<?xml version="1.0" standalone="no"?>
<!DOCTYPE svg PUBLIC "-//W3C//DTD SVG 20010904//EN"
 "http://www.w3.org/TR/2001/REC-SVG-20010904/DTD/svg10.dtd">
<svg version="1.0" xmlns="http://www.w3.org/2000/svg"
 width="828.000000pt" height="828.000000pt" viewBox="0 0 828.000000 828.000000"
 preserveAspectRatio="xMidYMid meet">
<metadata>
Created by potrace 1.11, written by Peter Selinger 2001-2013
</metadata>
<g transform="translate(0.000000,828.000000) scale(0.100000,-0.100000)"
fill="#000000" stroke="none">
<path d="M36 7807 c9 -18 54 -97 99 -177 45 -80 99 -176 120 -215 21 -38 45
-81 54 -95 9 -14 23 -38 31 -55 8 -16 32 -58 53 -92 20 -35 37 -66 37 -71 0
-4 6 -14 13 -20 6 -7 12 -16 12 -20 0 -4 19 -38 41 -77 23 -38 52 -90 66 -115
14 -25 88 -157 165 -295 78 -137 151 -268 163 -290 12 -22 25 -44 30 -50 4 -5
26 -45 49 -89 57 -106 65 -120 71 -126 3 -3 17 -27 31 -55 49 -94 64 -120 72
-123 4 -2 7 -8 7 -14 0 -6 15 -36 34 -67 32 -54 55 -95 116 -206 15 -27 36
-66 48 -86 11 -20 26 -47 34 -60 7 -13 15 -26 18 -29 3 -3 12 -18 20 -35 8
-16 34 -63 57 -102 24 -40 39 -73 35 -73 -4 0 -2 -4 3 -8 10 -7 15 -14 63
-101 72 -131 145 -257 154 -268 6 -7 7 -13 4 -13 -4 0 1 -12 12 -27 10 -16 65
-111 122 -213 57 -102 125 -222 152 -268 26 -45 48 -84 48 -87 0 -2 23 -42 50
-90 28 -48 50 -91 50 -96 0 -5 4 -9 8 -9 4 0 13 -12 19 -27 7 -16 28 -55 47
-88 19 -33 43 -76 54 -95 55 -105 227 -405 234 -408 4 -2 8 -10 8 -19 0 -8 8
-27 19 -41 10 -15 34 -56 53 -92 20 -36 46 -83 58 -105 13 -22 34 -60 48 -85
14 -25 42 -76 63 -113 22 -38 39 -72 39 -76 0 -4 5 -12 12 -19 11 -11 81 -132
110 -192 7 -14 29 -53 50 -87 21 -35 35 -63 32 -63 -3 0 2 -7 10 -16 9 -8 16
-22 16 -30 0 -8 4 -14 9 -14 5 0 11 -8 14 -17 6 -17 16 -37 113 -206 25 -43
55 -97 68 -120 12 -23 32 -58 43 -77 10 -19 46 -82 78 -140 32 -58 67 -117 77
-133 11 -15 16 -27 12 -27 -4 0 0 -8 8 -17 8 -10 43 -70 78 -133 65 -118 84
-152 121 -218 12 -20 33 -57 47 -82 13 -25 40 -71 58 -103 19 -32 34 -59 34
-61 0 -1 31 -56 68 -122 37 -65 71 -126 75 -134 4 -8 23 -42 42 -75 20 -33 41
-72 48 -88 6 -15 15 -27 19 -27 4 0 8 -6 8 -14 0 -7 9 -25 21 -40 11 -14 17
-26 13 -26 -4 0 0 -8 8 -17 9 -10 23 -33 33 -52 20 -41 27 -36 78 59 41 78
183 329 197 350 5 8 16 29 25 45 8 17 30 57 50 90 19 33 43 77 52 97 10 21 21
38 25 38 5 0 8 4 8 10 0 11 143 268 160 287 5 7 10 15 10 18 0 3 27 53 60 112
33 58 60 109 60 113 0 5 3 10 7 12 8 3 16 17 78 139 65 130 77 162 81 223 2
27 5 55 8 62 2 6 2 15 -2 18 -3 4 -8 19 -10 34 -1 15 -12 45 -23 68 -10 22
-19 46 -19 52 0 7 -3 12 -8 12 -4 0 -18 21 -31 48 -14 26 -33 59 -43 73 -9 14
-15 28 -12 31 2 3 -2 11 -11 18 -8 7 -15 19 -15 26 0 8 -4 14 -10 14 -5 0 -10
9 -10 20 0 11 -4 20 -9 20 -5 0 -12 8 -16 19 -5 16 -119 229 -145 271 -5 8
-23 42 -41 75 -17 33 -40 72 -51 88 -11 15 -16 27 -13 27 3 0 -2 12 -13 28
-19 27 -70 119 -126 227 -17 33 -33 62 -36 65 -3 3 -12 19 -21 35 -9 17 -105
191 -213 387 -108 197 -196 362 -196 368 0 5 -4 10 -10 10 -5 0 -10 4 -10 9 0
6 -15 36 -34 68 -34 59 -106 192 -148 273 -13 25 -26 47 -30 48 -5 2 -8 8 -8
12 0 5 -23 48 -50 96 -28 48 -50 89 -50 91 0 2 -26 50 -58 106 -32 56 -65 118
-75 137 -10 19 -26 49 -36 65 -18 30 -87 157 -119 217 -9 18 -20 35 -24 36 -5
2 -8 12 -8 23 0 10 -4 19 -9 19 -5 0 -11 8 -14 18 -3 9 -19 40 -35 67 -36 63
-123 223 -137 252 -5 13 -13 23 -17 23 -5 0 -8 4 -8 8 0 5 -36 75 -80 156 -44
81 -80 151 -80 157 0 5 -3 9 -7 9 -5 0 -28 40 -53 88 -25 48 -47 89 -50 92 -3
3 -14 23 -26 45 -11 22 -36 67 -54 100 -18 33 -44 79 -57 103 -12 23 -35 63
-49 90 -15 26 -39 70 -54 97 -15 28 -44 79 -64 115 -20 36 -44 81 -54 100 -9
19 -20 37 -24 38 -5 2 -8 7 -8 11 0 4 -31 66 -70 136 -38 70 -70 132 -70 137
0 4 -3 8 -8 8 -4 0 -13 14 -21 31 -7 17 -40 78 -72 135 -33 57 -59 108 -59
113 0 5 -3 11 -8 13 -4 2 -23 34 -42 71 -31 60 -74 114 -124 155 -25 20 -137
58 -197 67 -63 9 -277 12 -1122 19 l-617 5 16 -32z"/>
<path d="M6668 7785 c-3 -3 -29 -7 -59 -10 -121 -11 -201 -44 -264 -112 -49
-52 -42 -40 -168 -273 -17 -30 -49 -89 -72 -130 -23 -41 -45 -82 -48 -90 -4
-8 -15 -28 -25 -45 -10 -16 -38 -66 -62 -110 -24 -44 -63 -115 -87 -157 -23
-43 -43 -82 -43 -88 0 -5 -4 -10 -8 -10 -4 0 -13 -12 -19 -27 -7 -16 -35 -68
-63 -118 -28 -49 -54 -98 -57 -107 -3 -10 -9 -18 -14 -18 -5 0 -9 -9 -9 -19 0
-11 -4 -22 -9 -25 -5 -3 -20 -28 -34 -54 -14 -26 -35 -66 -48 -88 -12 -21 -32
-57 -44 -79 -55 -97 -65 -205 -30 -310 17 -50 117 -247 162 -317 12 -21 23
-40 23 -42 0 -3 14 -29 31 -58 18 -29 44 -75 59 -103 15 -27 38 -68 50 -90 13
-22 36 -65 53 -95 17 -30 38 -67 48 -81 10 -14 16 -28 13 -31 -2 -3 2 -11 11
-18 8 -7 15 -16 15 -20 0 -3 41 -78 90 -164 50 -87 90 -159 90 -161 0 -1 23
-41 50 -89 28 -48 50 -91 50 -96 0 -4 3 -10 8 -12 7 -3 23 -30 73 -125 24 -47
36 -53 46 -25 4 9 26 50 50 90 24 40 43 75 43 78 0 3 8 17 19 32 10 15 75 128
144 252 69 124 135 243 147 265 30 53 61 108 132 235 32 58 63 112 68 120 6 8
13 22 17 30 4 8 26 47 49 87 23 39 40 74 36 77 -3 3 0 6 6 6 7 0 12 4 12 10 0
5 20 44 45 86 25 41 45 77 45 79 0 2 23 43 51 92 28 48 69 122 91 163 23 41
48 86 57 100 9 14 26 43 36 65 11 22 22 42 25 45 6 6 50 86 65 117 5 13 13 23
18 23 4 0 7 5 7 10 0 6 27 58 60 116 33 58 60 110 60 115 0 5 3 9 8 9 4 0 13
14 21 31 7 17 42 80 77 141 35 61 64 114 64 118 0 4 7 13 15 20 9 7 13 15 10
18 -3 3 1 12 9 21 8 9 28 43 46 76 17 33 42 78 54 100 13 22 64 114 115 204
51 90 102 180 112 200 11 20 33 59 49 86 16 28 29 53 29 56 1 3 -140 7 -311 8
-1034 8 -1269 10 -1277 15 -4 3 -10 3 -13 1z"/>
</g>
</svg>
