<svg width="2063" height="1533" viewBox="0 0 2063 1533" fill="none" xmlns="http://www.w3.org/2000/svg">
<path fill-rule="evenodd" clip-rule="evenodd" d="M195 989.888L911.472 1046.77L912.222 1051.64C924.228 1129.83 930.292 1182.87 930.414 1210.77L930.416 1211.63C930.416 1239.3 938.91 1283.3 955.896 1343.63L956.947 1347.35L194 1348.68L185 1167.07L195 989.888ZM619.169 600.183C648.302 601.621 677.661 614.11 679.929 622.092C684.98 639.869 693.102 715.966 719.811 727.657C746.521 739.348 803.542 728.689 819.846 756.609C836.149 784.529 889.689 898.341 889.689 924.861C889.689 942.54 715.207 948.677 366.243 943.271C370.698 800.87 389.271 726.014 421.961 718.704L424.879 718.059C472.155 707.732 500.409 707.399 516.537 690.751C532.993 673.764 535.979 644.606 542.806 622.092C546.568 609.687 583.42 598.419 619.169 600.183Z" fill="white"/>
<path fill-rule="evenodd" clip-rule="evenodd" d="M683.057 644.689C683.167 644.604 683.278 644.579 683.397 644.639C685.667 645.729 686.137 647.909 686.917 650.179C688.057 653.499 689.377 656.739 690.597 660.029C693.028 666.629 695.347 673.219 698.057 679.709C700.837 686.389 703.717 692.949 707.017 699.399C708.607 702.519 710.317 705.579 712.057 708.619C713.257 710.729 714.377 713.629 715.957 715.609C716.077 714.979 716.247 714.379 716.447 713.819C716.238 713.919 716.037 714.029 715.847 714.149C715.447 714.399 714.967 713.899 715.207 713.509C716.067 712.089 717.187 711.129 718.467 710.479C722.007 706.549 800.036 725.304 821.367 746.369C860 784.52 886.077 831.689 903.227 881.869C912.697 909.559 921.417 937.519 930.427 965.359C939.947 994.799 949.887 1024.11 959.427 1053.53C961.517 1060 956.957 1065.88 951.197 1068.01C940.467 1071.97 929.657 1075.7 918.757 1079.15C924.047 1099.46 927.747 1120.2 930.407 1141C935.897 1183.89 936.587 1227.65 945.238 1270.09C947.224 1279.83 949.737 1289.43 952.392 1299.01L953.007 1301.22C954.587 1306.84 956.028 1312.51 957.967 1318.01C959.637 1322.74 961.797 1327.51 962.967 1332.39C964.337 1338.13 962.317 1344.4 956.947 1347.35C952.637 1349.72 946.467 1348.74 943.867 1344.29C943.337 1343.38 943.017 1342.39 942.887 1341.39C942.497 1340.56 942.137 1339.71 941.817 1338.84C941.692 1338.5 941.582 1338.16 941.477 1337.81L941.167 1336.77C940.407 1334.29 939.707 1331.79 939.007 1329.29C937.867 1325.28 936.719 1321.28 935.451 1317.3L934.807 1315.32C931.667 1305.76 928.857 1296.12 926.407 1286.36C917.639 1251.36 915.779 1215.13 913.372 1179.26L913.247 1177.41C911.067 1145.27 909.767 1113.2 912.437 1081.13L912.072 1081.25V1081.25L911.707 1081.36C908.238 1082.42 904.757 1083.46 901.267 1084.47C901.157 1084.51 901.057 1084.55 900.947 1084.58C898.713 1085.27 896.417 1085.93 894.082 1086.54L892.677 1086.9L891.687 1087.17L890.644 1087.47C887.337 1088.42 883.966 1089.53 880.537 1089.42C874.857 1090.33 869.077 1090.88 863.397 1090.9C865.147 1119.51 867.167 1148.1 869.577 1176.66C871.997 1205.37 875.207 1233.97 878.537 1262.57C880.177 1276.7 881.937 1290.8 883.877 1304.88C884.857 1312.02 885.877 1319.12 887.177 1326.2C888.517 1333.44 890.887 1341.18 889.457 1348.5C889.427 1348.49 889.397 1348.48 889.367 1348.48C888.887 1350.6 887.607 1352.5 885.377 1353.81C881.287 1356.2 875.567 1354.8 873.217 1350.62C873.017 1350.27 872.827 1349.91 872.647 1349.54C870.238 1350.57 867.597 1350.97 864.357 1351L820.417 1351.44V1351.44C800.447 1351.64 780.477 1351.85 760.497 1352.14C697.768 1353.06 635.039 1354.13 572.31 1354.89L548.787 1355.16C513.507 1355.53 478.207 1356.26 442.927 1356.25C425.278 1356.25 407.647 1356.19 389.997 1355.76C381.447 1355.55 372.917 1355.22 364.377 1354.87L362.869 1354.8C356.051 1354.46 348.813 1353.83 342.147 1355.36C340.307 1358.94 335.607 1359.68 333.147 1356.02C327.525 1347.64 325.991 1335.96 324.952 1325.72L324.587 1322.04C323.437 1310.57 322.427 1299.1 321.677 1287.61C319.017 1246.9 318.047 1206.15 319.267 1165.36C319.887 1144.57 321.797 1123.9 324.057 1103.23C324.767 1096.78 325.507 1090.34 326.307 1083.91L326.32 1081.62C326.322 1080.89 326.317 1080.19 326.297 1079.54L326.097 1073.33C325.932 1068.16 325.778 1062.99 325.714 1057.81L325.687 1054.71L325.657 1048.93C320.717 1048.46 315.447 1046.82 311.187 1046.03C304.278 1044.74 297.387 1043.35 290.517 1041.88C276.757 1038.92 263.147 1035.42 249.627 1031.55L246.751 1030.72C234.276 1027.13 221.629 1023.29 209.827 1017.92C205.207 1015.81 200.597 1013.43 196.547 1010.31C196.307 1013.59 195.937 1016.86 195.717 1020.11C195.278 1026.54 194.757 1032.95 194.327 1039.38L193.915 1045.5C193.24 1055.69 192.632 1065.87 192.357 1076.1C191.137 1120.7 190.927 1165.49 193.287 1210.06C194.457 1232.37 196.127 1254.68 198.537 1276.9C199.717 1287.83 200.967 1298.79 202.507 1309.68C204.097 1320.87 206.967 1331.99 207.847 1343.26C208.687 1354.13 192.067 1355.71 189.337 1345.77C186.068 1333.85 185.235 1320.99 183.512 1308.74L183.317 1307.38C181.407 1294.36 179.877 1281.29 178.557 1268.2C173.999 1223.05 172.817 1177.67 175.207 1132.35C176.343 1110.64 179.037 1089.02 182.298 1067.55L182.677 1065.07C184.161 1055.45 185.551 1045.83 187.232 1036.26L187.877 1032.67C189.387 1024.44 190.547 1015.49 192.997 1007.26L192.268 1006.59C190.907 1005.32 189.431 1003.85 188.357 1002.27C184.657 1001.77 181.507 999.109 181.897 994.279C183.167 978.409 188.967 962.269 194.137 947.289C199.327 932.229 205.347 917.449 212.167 903.049C236.157 852.439 270.707 806.489 312.957 769.679C335.367 750.149 359.927 732.829 387.067 720.499C400.447 714.409 414.287 709.699 428.787 707.159C435.967 705.899 443.217 704.919 450.517 704.709C456.439 701.212 463.471 702.683 469.205 706.517L469.517 706.729H469.528L470.997 707.019V707.019C471.357 707.089 471.347 707.659 470.997 707.739C470.977 707.739 470.947 707.749 470.927 707.759C471.867 708.499 472.757 709.289 473.587 710.139C476.327 712.939 476.317 716.319 474.907 719.049C483.297 726.829 488.597 736.819 494.147 746.889C500.097 757.669 507.887 766.989 517.367 774.849C552.117 803.669 603.227 816.419 646.767 802.809C678.787 792.809 706.137 765.739 713.697 733.149C711.907 733.789 709.967 733.889 708.127 733.229C699.486 730.148 696.192 720.705 692.887 712.809L692.727 712.429C689.497 704.779 686.787 697.009 684.647 688.989C682.488 680.889 681.217 672.339 680.687 663.979C680.482 660.673 680.572 657.368 680.743 654.062L680.895 651.329C681.012 648.852 680.975 646.322 683.057 644.689ZM542.467 622.399C542.587 622.099 543.057 621.939 543.237 622.299C550.886 638.079 545.867 659.699 538.636 674.749C531.067 690.489 519.667 702.429 506.157 712.759C504.297 714.179 502.386 715.579 500.447 716.949C489.176 724.909 479.136 703.449 492.147 699.349C505.707 692.459 516.727 680.179 524.386 667.279C528.527 660.309 532.197 653.049 535.007 645.429C537.807 637.829 539.487 629.919 542.467 622.399Z" fill="#262626"/>
<path fill-rule="evenodd" clip-rule="evenodd" d="M616.285 238.706C660.962 238.706 714.566 260.411 719.124 260.845L719.247 260.851C721.645 260.851 731.014 268.005 747.355 282.311L729.656 316.905L731.088 318.276C737.942 324.861 743.794 330.863 748.412 335.595C786.124 374.229 792.902 525.919 784.015 578.818C775.127 631.717 758.666 683.48 682.03 683.48C605.393 683.48 520.133 637.303 507 622.922C498.244 613.336 488.409 608.743 477.494 609.144C477.046 608.576 476.601 608.011 476.16 607.447L474.554 607.219C459.449 605.027 448.625 602.076 442.084 598.368C429.308 591.124 415.266 553.045 415.266 544.657C415.266 536.352 394.297 475.94 393.878 469.547L393.872 469.37C393.872 464.025 366.478 439.458 366.478 431.656C366.478 423.853 360.957 424.327 366.478 396.833L368.083 388.756C373.958 359.484 385.459 311.012 429.308 289.95C477.494 266.805 571.156 238.706 616.285 238.706Z" fill="white"/>
<path fill-rule="evenodd" clip-rule="evenodd" d="M742.806 291.481L743.585 289.958C729.643 290.363 713.351 290.985 696.183 291.94C671.553 293.31 645.112 295.365 621.222 298.449C597.347 301.531 575.963 305.646 561.475 311.156C546.835 316.724 535.003 330.045 525.489 346.737C515.966 363.444 508.707 383.631 503.258 403.098C497.809 422.57 494.164 441.352 491.881 455.263C490.74 462.22 489.938 467.961 489.423 471.963C489.165 473.965 488.978 475.532 488.856 476.599C488.795 477.133 488.75 477.541 488.72 477.817L488.72 477.819C488.579 477.888 488.4 477.975 488.185 478.081C487.591 478.375 486.723 478.811 485.618 479.383C483.408 480.526 480.254 482.213 476.469 484.387C468.903 488.735 458.809 495.04 448.711 502.863C443.661 506.776 440.463 509.768 438.516 512.065C436.592 514.336 435.799 516.034 435.779 517.344C435.758 518.774 436.64 519.546 437.423 519.916C437.706 520.049 437.983 520.137 438.219 520.195C438.217 520.295 438.216 520.406 438.214 520.527C438.211 520.674 438.209 520.837 438.207 521.014C438.195 521.958 438.186 523.319 438.194 524.993C438.21 528.342 438.295 532.946 438.576 537.967C438.856 542.986 439.331 548.433 440.127 553.463C440.922 558.481 442.043 563.137 443.639 566.547C445.3 570.097 448.95 572.825 453.317 574.933C457.705 577.052 462.94 578.603 467.946 579.731C472.957 580.86 477.769 581.571 481.326 582C483.105 582.214 484.572 582.359 485.595 582.449C485.767 582.465 485.927 582.478 486.074 582.491C486.312 582.511 486.515 582.527 486.681 582.54L492.713 602.782L491.888 612.065C492.373 612.27 492.856 612.488 493.336 612.717L494.22 602.772L494.232 602.629L494.191 602.492L487.97 581.615L487.821 581.114L487.299 581.08L487.298 581.08L487.294 581.08L487.275 581.079L487.198 581.074L487.071 581.065L486.894 581.051C486.627 581.031 486.232 581 485.727 580.955C484.718 580.866 483.267 580.723 481.505 580.511C477.981 580.086 473.222 579.382 468.275 578.268C463.323 577.152 458.212 575.631 453.969 573.583C449.704 571.524 446.438 568.989 444.998 565.911C443.492 562.694 442.396 558.203 441.609 553.229C440.823 548.266 440.352 542.874 440.073 537.883C439.795 532.894 439.709 528.317 439.694 524.986C439.686 523.321 439.695 521.968 439.707 521.033C439.713 520.565 439.719 520.201 439.724 519.955C439.726 519.832 439.728 519.738 439.73 519.675L439.731 519.604L439.732 519.587L439.732 519.583L439.732 519.582L439.699 519.581L439.732 519.581L439.751 518.851L439.024 518.813L439.023 518.813L439.022 518.813L439.021 518.813L439.014 518.812C439.007 518.812 438.998 518.811 438.986 518.81C438.978 518.809 438.969 518.808 438.959 518.807C438.907 518.801 438.83 518.791 438.736 518.773C438.543 518.736 438.299 518.671 438.065 518.56C437.613 518.346 437.269 518.015 437.279 517.367C437.291 516.6 437.788 515.245 439.661 513.035C441.511 510.851 444.618 507.932 449.63 504.049C459.658 496.28 469.69 490.013 477.217 485.688C480.98 483.526 484.114 481.85 486.307 480.715C487.403 480.148 488.264 479.716 488.85 479.426C489.018 479.343 489.164 479.271 489.286 479.212C489.376 479.168 489.453 479.13 489.517 479.099C489.593 479.063 489.65 479.035 489.687 479.017L489.73 478.997L489.74 478.992L489.742 478.991L489.743 478.991L489.422 478.313L489.743 478.99L490.125 478.809L490.168 478.389L489.422 478.313C490.168 478.389 490.168 478.388 490.168 478.387L490.168 478.383L490.17 478.364L490.178 478.286L490.193 478.149L490.211 477.978C490.241 477.705 490.285 477.3 490.346 476.77C490.467 475.709 490.653 474.149 490.91 472.155C491.424 468.167 492.223 462.444 493.361 455.506C495.638 441.63 499.273 422.906 504.703 403.502C510.135 384.094 517.355 364.037 526.792 347.479C536.238 330.907 547.847 317.944 562.008 312.558C576.322 307.115 597.558 303.016 621.414 299.936C645.255 296.859 671.655 294.806 696.266 293.438C713.082 292.502 729.058 291.887 742.806 291.481Z" fill="white"/>
<path fill-rule="evenodd" clip-rule="evenodd" d="M421.871 288.863C445.902 263.301 582.336 223.763 651.361 232.144L653.432 232.413C658.94 233.113 664.369 234.173 669.727 235.613C687.044 239.666 704.932 245.803 719.241 256.054C731.187 264.44 768.87 278.135 757.763 300.073C761.882 307.892 763.418 317.552 760.635 325.253C760.285 327.913 759.467 330.363 758.42 332.903C767.218 345.914 774.185 360.628 779.824 374.623C789.678 409.844 795.81 446.498 796.708 482.433C799.696 550.705 792.226 632.256 732.889 676.404C697.044 704.379 640.894 705.319 600.613 670.633C598.326 667.922 587.576 660.606 591.164 659.323C592.231 660.453 593.329 661.553 594.447 662.633C594.396 662.513 594.386 662.393 594.407 662.263L593.356 661.309C591.376 659.474 588.812 656.812 591.732 657.333C591.861 657.483 592.002 657.613 592.141 657.763C592.759 658.135 593.227 658.457 593.59 658.741L593.777 658.891L593.719 658.831C592.037 657.033 591.028 655.199 593.544 656.371L593.877 656.533C594.996 657.713 596.132 658.843 597.29 659.943C597.271 659.813 597.29 659.683 597.361 659.543L596.281 658.498C595.228 657.464 595.389 657.459 595.904 656.623C593.664 653.478 597.844 655.346 598.138 656.573C600.753 655.953 603.049 660.873 604.734 661.473C678.577 718.363 785.737 667.884 784.002 509.359L783.975 506.257C783.468 455.568 779.211 403.469 758.289 357.583C756.255 353.163 753.978 348.863 751.475 344.703C749.748 341.583 747.902 338.543 745.916 335.583C740.357 335.133 734.869 334.113 729.461 332.533C727.604 332.063 725.768 331.543 723.933 330.933C697.11 332.399 670.884 333.994 643.986 335.506L635.584 336.03C612.798 337.498 589.233 339.85 570.846 353.973C552.804 366.831 552.722 392.186 537.278 406.303C515.254 421.282 515.093 434.789 510.852 456.863C511.167 473.503 522.68 497.68 501.552 504.683C505.117 509.776 500.148 507.329 499.757 505.543C499.717 505.553 499.677 505.563 499.647 505.563C502.823 511.48 498.154 507.754 497.741 505.853C497.492 505.783 497.242 505.603 496.993 505.353C500.193 510.537 495.02 506.907 495.326 505.963C489.142 496.438 476.415 494.959 467.444 497.483C467.334 497.823 466.936 497.853 466.687 497.673C428.54 505.957 438.383 585.093 477.474 577.443C479.147 577.101 479.108 577.906 479.44 577.983C478.537 575.607 481.082 576.574 481.055 577.073L481.211 577.065C481.333 577.055 481.283 577.041 481.375 577.073C480.502 572.214 485.415 579.254 485.027 579.543C485.178 579.453 485.347 579.403 485.497 579.383L485.328 578.922C484.512 576.745 484.582 577.65 484.588 576.403C483.975 574.862 483.93 575.536 484.074 574.532C486.227 572.86 486.863 577.932 487.582 578.303C486.35 576.583 487.329 575.178 488.491 576.112C497.295 594.67 508.668 612.107 523.366 625.843C524.974 627.113 526.6 628.363 528.286 629.543C534.537 635 544.127 638.509 549.98 643.343C549.98 643.423 549.941 643.523 549.881 643.623L550.015 643.744V643.744L550.15 643.873L552.186 644.853C552.785 645.363 553.324 645.933 553.802 646.563C554.312 647.153 554.76 647.803 555.14 648.493C555.329 649.333 554.91 649.683 554.112 649.323C553.762 649.203 553.413 649.063 553.064 648.933C553.084 648.963 553.093 648.983 553.114 649.003C553.229 649.177 554.004 650.977 553.111 650.684L553.004 650.643C552.514 650.463 552.026 650.263 551.547 650.073C552.116 650.783 552.634 651.553 553.093 652.203C553.583 652.713 553.881 653.313 554.002 653.993C553.981 654.373 553.773 654.533 553.393 654.483C552.815 654.293 552.246 654.093 551.676 653.883L551.838 654.193C552.241 654.986 552.813 656.317 551.797 655.873C550.928 655.603 550.09 655.293 549.252 654.953C549.181 655.093 549.043 655.143 548.763 655.013C546.099 654.063 543.524 652.903 541.06 651.533C538.894 649.953 536.708 648.403 534.533 646.833C532.487 645.603 530.511 644.233 528.626 642.693C516.007 634.525 504.959 624.149 496.194 612.593C481.536 625.314 452.229 613.161 434.101 603.203C418.066 594.303 411.763 577.847 410.133 560.105C406.745 536.219 387.267 528.043 388.622 475.633C388.592 475.643 388.561 475.643 388.521 475.643C387.813 475.433 387.125 475.153 386.476 474.793C385.808 474.473 385.179 474.093 384.589 473.633L383.861 472.623V472.623C383.483 472.413 383.143 472.193 382.884 471.973L382.749 472.147C382.323 472.662 382.61 471.887 382.634 471.733L381.369 470.008C378.368 465.903 375.077 461.297 372.395 457.613L372.311 457.763C372.25 457.876 372.218 457.957 372.246 457.993C365.865 448.805 359.864 437.707 358.196 426.963C356.227 418.687 356.997 410.159 358.714 402.493C366.077 375.648 390.198 314.9 421.871 288.863ZM595.052 660.116L594.652 659.759L595.004 660.201C595.188 660.429 595.377 660.634 595.684 660.843C595.664 660.773 595.664 660.703 595.673 660.623C595.469 660.467 595.261 660.297 595.052 660.116ZM651.056 245.633C604.247 241.6 558.207 251.934 513.54 264.443L510.458 265.33C485.06 272.593 458.204 279.128 436.74 294.673C406.752 317.69 391.267 354.306 377.754 388.113C365.954 413.231 371.986 441.554 389.768 459.093C391.618 441.664 394.773 424.745 399.702 407.962C400.731 405.34 399.953 404.481 402.17 404.139C405.519 449.367 389.025 482.783 421.666 536.385C435.829 561.677 419.434 580.183 459.429 593.492L460.511 593.906C468.844 597.057 477.944 599.544 486.105 597.783L485.374 596.591C484.628 595.364 484.402 594.768 485.486 594.243C485.457 594.183 485.417 594.123 485.376 594.053C484.499 592.393 483.651 590.713 482.842 589.013C482.513 589.123 482.184 589.203 481.844 589.293C482.064 589.703 482.093 590.113 481.475 590.253C479.277 591.009 477.018 591.312 474.707 591.17L474.211 591.133C471.599 590.973 469.954 590.496 468.482 590.053C467.994 589.973 467.505 589.893 467.025 589.793C462.29 588.741 457.278 586.065 454.034 583.413C417.054 562.365 420.876 490.716 466.457 483.943C467.392 438.831 488.804 362.723 524.339 319.736C556.459 280.195 644.148 263.057 705.155 269.1C706.044 269.395 706.933 269.693 707.822 269.994C717.234 270.832 726.204 275.034 735.623 276.986C728.86 271.907 721.189 268.524 713.286 265.649C697.542 255.998 679.492 250.776 662.054 247.093C658.441 246.203 654.779 245.713 651.056 245.633ZM464.371 520.183C466.822 518.849 466.541 520.137 467.105 519.763C484.734 518.322 503.743 533.789 513.597 546.683C512.819 547.493 510.713 545.093 510.344 544.713C510.294 544.763 510.234 544.803 510.174 544.823L510.449 545.211C514.443 550.955 506.525 544.196 505.783 542.803C505.654 542.873 505.524 542.913 505.374 542.883C506.002 543.5 507.919 545.109 508.248 546.253L508.756 546.677C513.549 550.789 513.151 553.883 507.71 548.043C507.839 548.313 507.889 548.563 507.799 548.763L507.986 548.888C510.662 550.762 512.862 555.984 507.27 550.623C507.852 554.539 501.729 546.97 501.532 547.023C490.937 538.688 475.337 530.582 462.046 529.493L461.588 529.44C459.15 529.126 457.996 528.401 458.853 526.803C455.849 526.087 456.552 524.605 457.974 524.653C455.856 523.257 457.763 521.922 458.992 522.443C458.147 520.098 461.537 521.66 461.846 521.333C463.606 518.614 464.08 520.882 464.371 520.183ZM427.419 374.833C435.886 371.725 460.896 381.029 458.896 393.351C457.704 396.18 453.778 397.801 451.019 396.204L447.418 393.78C441.151 389.574 435.499 385.886 428.77 382.218C425.108 380.397 423.531 376.531 427.419 374.833ZM475.592 356.522L472.322 354.389C454.676 342.816 429.729 325.279 473.971 343.423C479.013 345.59 485.713 346.872 488.464 351.684C492.786 360.553 481.412 361.149 475.592 356.522ZM477.575 304.593C476.159 299.208 493.779 305.527 498.908 307.193L499.689 307.488C504.679 309.351 510.398 311.08 513.383 315.395C516.879 321.357 509.802 322.592 505.418 319.899C496.43 314.013 486.576 309.572 477.575 304.593ZM522.381 279.508C512.463 268.654 539.006 279.052 542.982 281.938L543.095 282.023C546.062 284.116 545.46 288.624 542.673 289.948C534.743 290.099 528.907 283.475 522.381 279.508ZM567.511 267.617C551.745 256.262 572.514 261.663 579.728 266.113C584.644 270.458 579.58 277.793 567.511 267.617Z" fill="#262626"/>
<path fill-rule="evenodd" clip-rule="evenodd" d="M636.816 597.147C641.39 583.047 691.003 562.296 699.368 568.33C707.732 574.364 696.944 617.471 696.944 617.471C696.944 617.471 650.675 622.269 647.365 619.87C644.055 617.471 632.243 611.247 636.816 597.147Z" fill="white"/>
<path fill-rule="evenodd" clip-rule="evenodd" d="M721.321 569.417C721.62 569.744 720.961 570.184 720.632 569.946C716.823 567.185 710.823 568.752 707.146 570.002C707.146 570.002 705.802 613.317 707.289 614.343C708.776 615.369 729.733 614.76 729.733 617.33C729.733 625.731 717.13 628.885 710.289 628.385C699.518 627.6 688.416 626.064 677.66 627.308C666.904 628.552 644.055 635.416 632.359 625.93C618.409 614.616 620.295 596.022 631.902 583.883C639.218 576.232 649.985 571.641 660.601 568.24C676.136 563.263 712.748 560.05 721.321 569.417ZM692.668 601.217C687.035 603.41 659.031 612.658 652.377 614.343C660.153 613.785 686.707 613.168 692.668 610.283C693.337 607.583 693.764 600.79 692.668 601.217ZM696.944 571.191C681.701 573.666 648.784 584.83 644.055 590.773C651.241 589.643 691.332 584.83 695.855 584.83C696.512 581.332 696.076 575.199 696.944 571.191ZM701.814 503.367C709.366 507.957 720.872 518.66 712.748 530.04C703.186 540.073 689.418 528.569 682.634 523.366C676.343 519.334 669.275 529.704 675.112 534.413C724.136 570.708 744.031 504.567 705.634 497.97C701.406 497.243 699.836 501.947 701.814 503.367ZM718.557 436.39C722.99 436.354 725.579 439.231 728.903 441.793C732.326 444.432 736.453 446.537 740.454 448.149C744.626 449.828 749.086 451.161 753.478 452.112C758.031 453.096 762.22 452.635 766.74 453.468C778.722 455.677 775.886 475.656 763.871 474.668C753.057 473.779 741.448 467.135 733.247 460.246C729.328 456.954 726.02 453.182 722.8 449.24L722.198 448.499C719.34 444.973 716.671 441.364 718.105 436.735C718.167 436.535 718.345 436.393 718.557 436.39ZM618.616 494.699C618.63 488.322 622.344 473.762 631.524 473.762C637.259 473.762 640.741 483.671 641.344 493.886L641.365 494.302C641.631 500.653 639.888 514.534 631.524 514.534C623.072 514.534 618.704 501.387 618.617 494.924L618.616 494.699ZM753.774 494.699C753.76 488.322 750.046 473.762 740.866 473.762C735.274 473.762 731.824 483.182 731.097 493.12L731.046 493.886C730.684 500.022 732.314 514.534 740.866 514.534C749.318 514.534 753.686 501.387 753.773 494.924L753.774 494.699ZM648.658 437.342C654.383 434.871 660.944 435.573 664.391 441.467C667.654 447.045 665.433 453.768 660.265 457.2C655.19 460.571 648.377 462.404 642.541 464.332L641.897 464.547C636.241 466.45 630.581 468.006 624.739 469.222C619.28 470.358 613.779 471.199 608.247 471.87L606.587 472.067C602.272 472.565 596.253 474.242 592.369 471.786C592.024 471.569 591.891 471.12 592.099 470.76C594.36 466.845 600.362 465.285 604.213 463.302C609.158 460.754 614.032 458.041 618.862 455.282C623.745 452.492 628.615 449.656 633.446 446.776C638.464 443.785 643.322 439.644 648.658 437.342Z" fill="#262626"/>
<path d="M922.08 147.18V189H916.62V147.18H922.08ZM991.182 156.12L980.922 189H975.282L967.362 162.9L959.442 189H953.802L943.482 156.12H949.062L956.622 183.72L964.782 156.12H970.362L978.342 183.78L985.782 156.12H991.182ZM1026.6 171.3C1026.6 172.34 1026.54 173.44 1026.42 174.6H1000.14C1000.34 177.84 1001.44 180.38 1003.44 182.22C1005.48 184.02 1007.94 184.92 1010.82 184.92C1013.18 184.92 1015.14 184.38 1016.7 183.3C1018.3 182.18 1019.42 180.7 1020.06 178.86H1025.94C1025.06 182.02 1023.3 184.6 1020.66 186.6C1018.02 188.56 1014.74 189.54 1010.82 189.54C1007.7 189.54 1004.9 188.84 1002.42 187.44C999.98 186.04 998.06 184.06 996.66 181.5C995.26 178.9 994.56 175.9 994.56 172.5C994.56 169.1 995.24 166.12 996.6 163.56C997.96 161 999.86 159.04 1002.3 157.68C1004.78 156.28 1007.62 155.58 1010.82 155.58C1013.94 155.58 1016.7 156.26 1019.1 157.62C1021.5 158.98 1023.34 160.86 1024.62 163.26C1025.94 165.62 1026.6 168.3 1026.6 171.3ZM1020.96 170.16C1020.96 168.08 1020.5 166.3 1019.58 164.82C1018.66 163.3 1017.4 162.16 1015.8 161.4C1014.24 160.6 1012.5 160.2 1010.58 160.2C1007.82 160.2 1005.46 161.08 1003.5 162.84C1001.58 164.6 1000.48 167.04 1000.2 170.16H1020.96ZM1049.83 155.52C1053.83 155.52 1057.07 156.74 1059.55 159.18C1062.03 161.58 1063.27 165.06 1063.27 169.62V189H1057.87V170.4C1057.87 167.12 1057.05 164.62 1055.41 162.9C1053.77 161.14 1051.53 160.26 1048.69 160.26C1045.81 160.26 1043.51 161.16 1041.79 162.96C1040.11 164.76 1039.27 167.38 1039.27 170.82V189H1033.81V156.12H1039.27V160.8C1040.35 159.12 1041.81 157.82 1043.65 156.9C1045.53 155.98 1047.59 155.52 1049.83 155.52ZM1078.85 160.62V180C1078.85 181.6 1079.19 182.74 1079.87 183.42C1080.55 184.06 1081.73 184.38 1083.41 184.38H1087.43V189H1082.51C1079.47 189 1077.19 188.3 1075.67 186.9C1074.15 185.5 1073.39 183.2 1073.39 180V160.62H1069.13V156.12H1073.39V147.84H1078.85V156.12H1087.43V160.62H1078.85ZM1116.7 160.62V180C1116.7 181.6 1117.04 182.74 1117.72 183.42C1118.4 184.06 1119.58 184.38 1121.26 184.38H1125.28V189H1120.36C1117.32 189 1115.04 188.3 1113.52 186.9C1112 185.5 1111.24 183.2 1111.24 180V160.62H1106.98V156.12H1111.24V147.84H1116.7V156.12H1125.28V160.62H1116.7ZM1146.23 189.54C1143.15 189.54 1140.35 188.84 1137.83 187.44C1135.35 186.04 1133.39 184.06 1131.95 181.5C1130.55 178.9 1129.85 175.9 1129.85 172.5C1129.85 169.14 1130.57 166.18 1132.01 163.62C1133.49 161.02 1135.49 159.04 1138.01 157.68C1140.53 156.28 1143.35 155.58 1146.47 155.58C1149.59 155.58 1152.41 156.28 1154.93 157.68C1157.45 159.04 1159.43 161 1160.87 163.56C1162.35 166.12 1163.09 169.1 1163.09 172.5C1163.09 175.9 1162.33 178.9 1160.81 181.5C1159.33 184.06 1157.31 186.04 1154.75 187.44C1152.19 188.84 1149.35 189.54 1146.23 189.54ZM1146.23 184.74C1148.19 184.74 1150.03 184.28 1151.75 183.36C1153.47 182.44 1154.85 181.06 1155.89 179.22C1156.97 177.38 1157.51 175.14 1157.51 172.5C1157.51 169.86 1156.99 167.62 1155.95 165.78C1154.91 163.94 1153.55 162.58 1151.87 161.7C1150.19 160.78 1148.37 160.32 1146.41 160.32C1144.41 160.32 1142.57 160.78 1140.89 161.7C1139.25 162.58 1137.93 163.94 1136.93 165.78C1135.93 167.62 1135.43 169.86 1135.43 172.5C1135.43 175.18 1135.91 177.44 1136.87 179.28C1137.87 181.12 1139.19 182.5 1140.83 183.42C1142.47 184.3 1144.27 184.74 1146.23 184.74ZM1192.93 160.62V180C1192.93 181.6 1193.27 182.74 1193.95 183.42C1194.63 184.06 1195.81 184.38 1197.49 184.38H1201.51V189H1196.59C1193.55 189 1191.27 188.3 1189.75 186.9C1188.23 185.5 1187.47 183.2 1187.47 180V160.62H1183.21V156.12H1187.47V147.84H1192.93V156.12H1201.51V160.62H1192.93ZM1224.44 155.52C1226.92 155.52 1229.16 156.06 1231.16 157.14C1233.16 158.18 1234.72 159.76 1235.84 161.88C1237 164 1237.58 166.58 1237.58 169.62V189H1232.18V170.4C1232.18 167.12 1231.36 164.62 1229.72 162.9C1228.08 161.14 1225.84 160.26 1223 160.26C1220.12 160.26 1217.82 161.16 1216.1 162.96C1214.42 164.76 1213.58 167.38 1213.58 170.82V189H1208.12V144.6H1213.58V160.8C1214.66 159.12 1216.14 157.82 1218.02 156.9C1219.94 155.98 1222.08 155.52 1224.44 155.52ZM1276.5 171.3C1276.5 172.34 1276.44 173.44 1276.32 174.6H1250.04C1250.24 177.84 1251.34 180.38 1253.34 182.22C1255.38 184.02 1257.84 184.92 1260.72 184.92C1263.08 184.92 1265.04 184.38 1266.6 183.3C1268.2 182.18 1269.32 180.7 1269.96 178.86H1275.84C1274.96 182.02 1273.2 184.6 1270.56 186.6C1267.92 188.56 1264.64 189.54 1260.72 189.54C1257.6 189.54 1254.8 188.84 1252.32 187.44C1249.88 186.04 1247.96 184.06 1246.56 181.5C1245.16 178.9 1244.46 175.9 1244.46 172.5C1244.46 169.1 1245.14 166.12 1246.5 163.56C1247.86 161 1249.76 159.04 1252.2 157.68C1254.68 156.28 1257.52 155.58 1260.72 155.58C1263.84 155.58 1266.6 156.26 1269 157.62C1271.4 158.98 1273.24 160.86 1274.52 163.26C1275.84 165.62 1276.5 168.3 1276.5 171.3ZM1270.86 170.16C1270.86 168.08 1270.4 166.3 1269.48 164.82C1268.56 163.3 1267.3 162.16 1265.7 161.4C1264.14 160.6 1262.4 160.2 1260.48 160.2C1257.72 160.2 1255.36 161.08 1253.4 162.84C1251.48 164.6 1250.38 167.04 1250.1 170.16H1270.86ZM1305.17 144.6V189H1299.71V144.6H1305.17ZM1317.29 150.78C1316.25 150.78 1315.37 150.42 1314.65 149.7C1313.93 148.98 1313.57 148.1 1313.57 147.06C1313.57 146.02 1313.93 145.14 1314.65 144.42C1315.37 143.7 1316.25 143.34 1317.29 143.34C1318.29 143.34 1319.13 143.7 1319.81 144.42C1320.53 145.14 1320.89 146.02 1320.89 147.06C1320.89 148.1 1320.53 148.98 1319.81 149.7C1319.13 150.42 1318.29 150.78 1317.29 150.78ZM1319.93 156.12V189H1314.47V156.12H1319.93ZM1334.7 162.24C1335.82 160.28 1337.46 158.68 1339.62 157.44C1341.78 156.2 1344.24 155.58 1347 155.58C1349.96 155.58 1352.62 156.28 1354.98 157.68C1357.34 159.08 1359.2 161.06 1360.56 163.62C1361.92 166.14 1362.6 169.08 1362.6 172.44C1362.6 175.76 1361.92 178.72 1360.56 181.32C1359.2 183.92 1357.32 185.94 1354.92 187.38C1352.56 188.82 1349.92 189.54 1347 189.54C1344.16 189.54 1341.66 188.92 1339.5 187.68C1337.38 186.44 1335.78 184.86 1334.7 182.94V189H1329.24V144.6H1334.7V162.24ZM1357.02 172.44C1357.02 169.96 1356.52 167.8 1355.52 165.96C1354.52 164.12 1353.16 162.72 1351.44 161.76C1349.76 160.8 1347.9 160.32 1345.86 160.32C1343.86 160.32 1342 160.82 1340.28 161.82C1338.6 162.78 1337.24 164.2 1336.2 166.08C1335.2 167.92 1334.7 170.06 1334.7 172.5C1334.7 174.98 1335.2 177.16 1336.2 179.04C1337.24 180.88 1338.6 182.3 1340.28 183.3C1342 184.26 1343.86 184.74 1345.86 184.74C1347.9 184.74 1349.76 184.26 1351.44 183.3C1353.16 182.3 1354.52 180.88 1355.52 179.04C1356.52 177.16 1357.02 174.96 1357.02 172.44ZM1375.24 161.46C1376.2 159.58 1377.56 158.12 1379.32 157.08C1381.12 156.04 1383.3 155.52 1385.86 155.52V161.16H1384.42C1378.3 161.16 1375.24 164.48 1375.24 171.12V189H1369.78V156.12H1375.24V161.46ZM1390.13 172.44C1390.13 169.08 1390.81 166.14 1392.17 163.62C1393.53 161.06 1395.39 159.08 1397.75 157.68C1400.15 156.28 1402.81 155.58 1405.73 155.58C1408.61 155.58 1411.11 156.2 1413.23 157.44C1415.35 158.68 1416.93 160.24 1417.97 162.12V156.12H1423.49V189H1417.97V182.88C1416.89 184.8 1415.27 186.4 1413.11 187.68C1410.99 188.92 1408.51 189.54 1405.67 189.54C1402.75 189.54 1400.11 188.82 1397.75 187.38C1395.39 185.94 1393.53 183.92 1392.17 181.32C1390.81 178.72 1390.13 175.76 1390.13 172.44ZM1417.97 172.5C1417.97 170.02 1417.47 167.86 1416.47 166.02C1415.47 164.18 1414.11 162.78 1412.39 161.82C1410.71 160.82 1408.85 160.32 1406.81 160.32C1404.77 160.32 1402.91 160.8 1401.23 161.76C1399.55 162.72 1398.21 164.12 1397.21 165.96C1396.21 167.8 1395.71 169.96 1395.71 172.44C1395.71 174.96 1396.21 177.16 1397.21 179.04C1398.21 180.88 1399.55 182.3 1401.23 183.3C1402.91 184.26 1404.77 184.74 1406.81 184.74C1408.85 184.74 1410.71 184.26 1412.39 183.3C1414.11 182.3 1415.47 180.88 1416.47 179.04C1417.47 177.16 1417.97 174.98 1417.97 172.5ZM1438.17 161.46C1439.13 159.58 1440.49 158.12 1442.25 157.08C1444.05 156.04 1446.23 155.52 1448.79 155.52V161.16H1447.35C1441.23 161.16 1438.17 164.48 1438.17 171.12V189H1432.71V156.12H1438.17V161.46ZM1483.42 156.12L1463.62 204.48H1457.98L1464.46 188.64L1451.2 156.12H1457.26L1467.58 182.76L1477.78 156.12H1483.42ZM1502.86 172.44C1502.86 169.08 1503.54 166.14 1504.9 163.62C1506.26 161.06 1508.12 159.08 1510.48 157.68C1512.88 156.28 1515.54 155.58 1518.46 155.58C1521.34 155.58 1523.84 156.2 1525.96 157.44C1528.08 158.68 1529.66 160.24 1530.7 162.12V156.12H1536.22V189H1530.7V182.88C1529.62 184.8 1528 186.4 1525.84 187.68C1523.72 188.92 1521.24 189.54 1518.4 189.54C1515.48 189.54 1512.84 188.82 1510.48 187.38C1508.12 185.94 1506.26 183.92 1504.9 181.32C1503.54 178.72 1502.86 175.76 1502.86 172.44ZM1530.7 172.5C1530.7 170.02 1530.2 167.86 1529.2 166.02C1528.2 164.18 1526.84 162.78 1525.12 161.82C1523.44 160.82 1521.58 160.32 1519.54 160.32C1517.5 160.32 1515.64 160.8 1513.96 161.76C1512.28 162.72 1510.94 164.12 1509.94 165.96C1508.94 167.8 1508.44 169.96 1508.44 172.44C1508.44 174.96 1508.94 177.16 1509.94 179.04C1510.94 180.88 1512.28 182.3 1513.96 183.3C1515.64 184.26 1517.5 184.74 1519.54 184.74C1521.58 184.74 1523.44 184.26 1525.12 183.3C1526.84 182.3 1528.2 180.88 1529.2 179.04C1530.2 177.16 1530.7 174.98 1530.7 172.5ZM1561.47 155.52C1565.47 155.52 1568.71 156.74 1571.19 159.18C1573.67 161.58 1574.91 165.06 1574.91 169.62V189H1569.51V170.4C1569.51 167.12 1568.69 164.62 1567.05 162.9C1565.41 161.14 1563.17 160.26 1560.33 160.26C1557.45 160.26 1555.15 161.16 1553.43 162.96C1551.75 164.76 1550.91 167.38 1550.91 170.82V189H1545.45V156.12H1550.91V160.8C1551.99 159.12 1553.45 157.82 1555.29 156.9C1557.17 155.98 1559.23 155.52 1561.47 155.52ZM1581.79 172.44C1581.79 169.08 1582.47 166.14 1583.83 163.62C1585.19 161.06 1587.05 159.08 1589.41 157.68C1591.81 156.28 1594.49 155.58 1597.45 155.58C1600.01 155.58 1602.39 156.18 1604.59 157.38C1606.79 158.54 1608.47 160.08 1609.63 162V144.6H1615.15V189H1609.63V182.82C1608.55 184.78 1606.95 186.4 1604.83 187.68C1602.71 188.92 1600.23 189.54 1597.39 189.54C1594.47 189.54 1591.81 188.82 1589.41 187.38C1587.05 185.94 1585.19 183.92 1583.83 181.32C1582.47 178.72 1581.79 175.76 1581.79 172.44ZM1609.63 172.5C1609.63 170.02 1609.13 167.86 1608.13 166.02C1607.13 164.18 1605.77 162.78 1604.05 161.82C1602.37 160.82 1600.51 160.32 1598.47 160.32C1596.43 160.32 1594.57 160.8 1592.89 161.76C1591.21 162.72 1589.87 164.12 1588.87 165.96C1587.87 167.8 1587.37 169.96 1587.37 172.44C1587.37 174.96 1587.87 177.16 1588.87 179.04C1589.87 180.88 1591.21 182.3 1592.89 183.3C1594.57 184.26 1596.43 184.74 1598.47 184.74C1600.51 184.74 1602.37 184.26 1604.05 183.3C1605.77 182.3 1607.13 180.88 1608.13 179.04C1609.13 177.16 1609.63 174.98 1609.63 172.5ZM1643.19 150.78C1642.15 150.78 1641.27 150.42 1640.55 149.7C1639.83 148.98 1639.47 148.1 1639.47 147.06C1639.47 146.02 1639.83 145.14 1640.55 144.42C1641.27 143.7 1642.15 143.34 1643.19 143.34C1644.19 143.34 1645.03 143.7 1645.71 144.42C1646.43 145.14 1646.79 146.02 1646.79 147.06C1646.79 148.1 1646.43 148.98 1645.71 149.7C1645.03 150.42 1644.19 150.78 1643.19 150.78ZM1645.83 156.12V189H1640.37V156.12H1645.83ZM1661.8 160.62V180C1661.8 181.6 1662.14 182.74 1662.82 183.42C1663.5 184.06 1664.68 184.38 1666.36 184.38H1670.38V189H1665.46C1662.42 189 1660.14 188.3 1658.62 186.9C1657.1 185.5 1656.34 183.2 1656.34 180V160.62H1652.08V156.12H1656.34V147.84H1661.8V156.12H1670.38V160.62H1661.8ZM960.42 246.12L950.16 279H944.52L936.6 252.9L928.68 279H923.04L912.72 246.12H918.3L925.86 273.72L934.02 246.12H939.6L947.58 273.78L955.02 246.12H960.42ZM963.799 262.44C963.799 259.08 964.479 256.14 965.839 253.62C967.199 251.06 969.059 249.08 971.419 247.68C973.819 246.28 976.479 245.58 979.399 245.58C982.279 245.58 984.779 246.2 986.899 247.44C989.019 248.68 990.599 250.24 991.639 252.12V246.12H997.159V279H991.639V272.88C990.559 274.8 988.939 276.4 986.779 277.68C984.659 278.92 982.179 279.54 979.339 279.54C976.419 279.54 973.779 278.82 971.419 277.38C969.059 275.94 967.199 273.92 965.839 271.32C964.479 268.72 963.799 265.76 963.799 262.44ZM991.639 262.5C991.639 260.02 991.139 257.86 990.139 256.02C989.139 254.18 987.779 252.78 986.059 251.82C984.379 250.82 982.519 250.32 980.479 250.32C978.439 250.32 976.579 250.8 974.899 251.76C973.219 252.72 971.879 254.12 970.879 255.96C969.879 257.8 969.379 259.96 969.379 262.44C969.379 264.96 969.879 267.16 970.879 269.04C971.879 270.88 973.219 272.3 974.899 273.3C976.579 274.26 978.439 274.74 980.479 274.74C982.519 274.74 984.379 274.26 986.059 273.3C987.779 272.3 989.139 270.88 990.139 269.04C991.139 267.16 991.639 264.98 991.639 262.5ZM1018.03 279.54C1015.51 279.54 1013.25 279.12 1011.25 278.28C1009.25 277.4 1007.67 276.2 1006.51 274.68C1005.35 273.12 1004.71 271.34 1004.59 269.34H1010.23C1010.39 270.98 1011.15 272.32 1012.51 273.36C1013.91 274.4 1015.73 274.92 1017.97 274.92C1020.05 274.92 1021.69 274.46 1022.89 273.54C1024.09 272.62 1024.69 271.46 1024.69 270.06C1024.69 268.62 1024.05 267.56 1022.77 266.88C1021.49 266.16 1019.51 265.46 1016.83 264.78C1014.39 264.14 1012.39 263.5 1010.83 262.86C1009.31 262.18 1007.99 261.2 1006.87 259.92C1005.79 258.6 1005.25 256.88 1005.25 254.76C1005.25 253.08 1005.75 251.54 1006.75 250.14C1007.75 248.74 1009.17 247.64 1011.01 246.84C1012.85 246 1014.95 245.58 1017.31 245.58C1020.95 245.58 1023.89 246.5 1026.13 248.34C1028.37 250.18 1029.57 252.7 1029.73 255.9H1024.27C1024.15 254.18 1023.45 252.8 1022.17 251.76C1020.93 250.72 1019.25 250.2 1017.13 250.2C1015.17 250.2 1013.61 250.62 1012.45 251.46C1011.29 252.3 1010.71 253.4 1010.71 254.76C1010.71 255.84 1011.05 256.74 1011.73 257.46C1012.45 258.14 1013.33 258.7 1014.37 259.14C1015.45 259.54 1016.93 260 1018.81 260.52C1021.17 261.16 1023.09 261.8 1024.57 262.44C1026.05 263.04 1027.31 263.96 1028.35 265.2C1029.43 266.44 1029.99 268.06 1030.03 270.06C1030.03 271.86 1029.53 273.48 1028.53 274.92C1027.53 276.36 1026.11 277.5 1024.27 278.34C1022.47 279.14 1020.39 279.54 1018.03 279.54ZM1067.11 250.62H1060.21V279H1054.75V250.62H1050.49V246.12H1054.75V243.78C1054.75 240.1 1055.69 237.42 1057.57 235.74C1059.49 234.02 1062.55 233.16 1066.75 233.16V237.72C1064.35 237.72 1062.65 238.2 1061.65 239.16C1060.69 240.08 1060.21 241.62 1060.21 243.78V246.12H1067.11V250.62ZM1102.64 246.12V279H1097.18V274.14C1096.14 275.82 1094.68 277.14 1092.8 278.1C1090.96 279.02 1088.92 279.48 1086.68 279.48C1084.12 279.48 1081.82 278.96 1079.78 277.92C1077.74 276.84 1076.12 275.24 1074.92 273.12C1073.76 271 1073.18 268.42 1073.18 265.38V246.12H1078.58V264.66C1078.58 267.9 1079.4 270.4 1081.04 272.16C1082.68 273.88 1084.92 274.74 1087.76 274.74C1090.68 274.74 1092.98 273.84 1094.66 272.04C1096.34 270.24 1097.18 267.62 1097.18 264.18V246.12H1102.64ZM1117.31 234.6V279H1111.85V234.6H1117.31ZM1132.08 234.6V279H1126.62V234.6H1132.08ZM1147.03 271.44L1140.31 287.58H1136.65L1141.03 271.44H1147.03ZM1174.74 237.18V279H1169.28V237.18H1174.74ZM1213.42 250.62H1206.52V279H1201.06V250.62H1196.8V246.12H1201.06V243.78C1201.06 240.1 1202 237.42 1203.88 235.74C1205.8 234.02 1208.86 233.16 1213.06 233.16V237.72C1210.66 237.72 1208.96 238.2 1207.96 239.16C1207 240.08 1206.52 241.62 1206.52 243.78V246.12H1213.42V250.62ZM1249.78 261.3C1249.78 262.34 1249.72 263.44 1249.6 264.6H1223.32C1223.52 267.84 1224.62 270.38 1226.62 272.22C1228.66 274.02 1231.12 274.92 1234 274.92C1236.36 274.92 1238.32 274.38 1239.88 273.3C1241.48 272.18 1242.6 270.7 1243.24 268.86H1249.12C1248.24 272.02 1246.48 274.6 1243.84 276.6C1241.2 278.56 1237.92 279.54 1234 279.54C1230.88 279.54 1228.08 278.84 1225.6 277.44C1223.16 276.04 1221.24 274.06 1219.84 271.5C1218.44 268.9 1217.74 265.9 1217.74 262.5C1217.74 259.1 1218.42 256.12 1219.78 253.56C1221.14 251 1223.04 249.04 1225.48 247.68C1227.96 246.28 1230.8 245.58 1234 245.58C1237.12 245.58 1239.88 246.26 1242.28 247.62C1244.68 248.98 1246.52 250.86 1247.8 253.26C1249.12 255.62 1249.78 258.3 1249.78 261.3ZM1244.14 260.16C1244.14 258.08 1243.68 256.3 1242.76 254.82C1241.84 253.3 1240.58 252.16 1238.98 251.4C1237.42 250.6 1235.68 250.2 1233.76 250.2C1231 250.2 1228.64 251.08 1226.68 252.84C1224.76 254.6 1223.66 257.04 1223.38 260.16H1244.14ZM1262.45 234.6V279H1256.99V234.6H1262.45ZM1278.42 250.62V270C1278.42 271.6 1278.76 272.74 1279.44 273.42C1280.12 274.06 1281.3 274.38 1282.98 274.38H1287V279H1282.08C1279.04 279 1276.76 278.3 1275.24 276.9C1273.72 275.5 1272.96 273.2 1272.96 270V250.62H1268.7V246.12H1272.96V237.84H1278.42V246.12H1287V250.62H1278.42ZM1315.07 251.46C1316.03 249.58 1317.39 248.12 1319.15 247.08C1320.95 246.04 1323.13 245.52 1325.69 245.52V251.16H1324.25C1318.13 251.16 1315.07 254.48 1315.07 261.12V279H1309.61V246.12H1315.07V251.46ZM1361.99 261.3C1361.99 262.34 1361.93 263.44 1361.81 264.6H1335.53C1335.73 267.84 1336.83 270.38 1338.83 272.22C1340.87 274.02 1343.33 274.92 1346.21 274.92C1348.57 274.92 1350.53 274.38 1352.09 273.3C1353.69 272.18 1354.81 270.7 1355.45 268.86H1361.33C1360.45 272.02 1358.69 274.6 1356.05 276.6C1353.41 278.56 1350.13 279.54 1346.21 279.54C1343.09 279.54 1340.29 278.84 1337.81 277.44C1335.37 276.04 1333.45 274.06 1332.05 271.5C1330.65 268.9 1329.95 265.9 1329.95 262.5C1329.95 259.1 1330.63 256.12 1331.99 253.56C1333.35 251 1335.25 249.04 1337.69 247.68C1340.17 246.28 1343.01 245.58 1346.21 245.58C1349.33 245.58 1352.09 246.26 1354.49 247.62C1356.89 248.98 1358.73 250.86 1360.01 253.26C1361.33 255.62 1361.99 258.3 1361.99 261.3ZM1356.35 260.16C1356.35 258.08 1355.89 256.3 1354.97 254.82C1354.05 253.3 1352.79 252.16 1351.19 251.4C1349.63 250.6 1347.89 250.2 1345.97 250.2C1343.21 250.2 1340.85 251.08 1338.89 252.84C1336.97 254.6 1335.87 257.04 1335.59 260.16H1356.35ZM1367.16 262.44C1367.16 259.08 1367.84 256.14 1369.2 253.62C1370.56 251.06 1372.42 249.08 1374.78 247.68C1377.18 246.28 1379.84 245.58 1382.76 245.58C1385.64 245.58 1388.14 246.2 1390.26 247.44C1392.38 248.68 1393.96 250.24 1395 252.12V246.12H1400.52V279H1395V272.88C1393.92 274.8 1392.3 276.4 1390.14 277.68C1388.02 278.92 1385.54 279.54 1382.7 279.54C1379.78 279.54 1377.14 278.82 1374.78 277.38C1372.42 275.94 1370.56 273.92 1369.2 271.32C1367.84 268.72 1367.16 265.76 1367.16 262.44ZM1395 262.5C1395 260.02 1394.5 257.86 1393.5 256.02C1392.5 254.18 1391.14 252.78 1389.42 251.82C1387.74 250.82 1385.88 250.32 1383.84 250.32C1381.8 250.32 1379.94 250.8 1378.26 251.76C1376.58 252.72 1375.24 254.12 1374.24 255.96C1373.24 257.8 1372.74 259.96 1372.74 262.44C1372.74 264.96 1373.24 267.16 1374.24 269.04C1375.24 270.88 1376.58 272.3 1378.26 273.3C1379.94 274.26 1381.8 274.74 1383.84 274.74C1385.88 274.74 1387.74 274.26 1389.42 273.3C1391.14 272.3 1392.5 270.88 1393.5 269.04C1394.5 267.16 1395 264.98 1395 262.5ZM1415.21 234.6V279H1409.75V234.6H1415.21ZM1429.97 234.6V279H1424.51V234.6H1429.97ZM1467.6 246.12L1447.8 294.48H1442.16L1448.64 278.64L1435.38 246.12H1441.44L1451.76 272.76L1461.96 246.12H1467.6ZM1502.46 250.62H1495.56V279H1490.1V250.62H1485.84V246.12H1490.1V243.78C1490.1 240.1 1491.04 237.42 1492.92 235.74C1494.84 234.02 1497.9 233.16 1502.1 233.16V237.72C1499.7 237.72 1498 238.2 1497 239.16C1496.04 240.08 1495.56 241.62 1495.56 243.78V246.12H1502.46V250.62ZM1514.29 251.46C1515.25 249.58 1516.61 248.12 1518.37 247.08C1520.17 246.04 1522.35 245.52 1524.91 245.52V251.16H1523.47C1517.35 251.16 1514.29 254.48 1514.29 261.12V279H1508.83V246.12H1514.29V251.46ZM1560.37 246.12V279H1554.91V274.14C1553.87 275.82 1552.41 277.14 1550.53 278.1C1548.69 279.02 1546.65 279.48 1544.41 279.48C1541.85 279.48 1539.55 278.96 1537.51 277.92C1535.47 276.84 1533.85 275.24 1532.65 273.12C1531.49 271 1530.91 268.42 1530.91 265.38V246.12H1536.31V264.66C1536.31 267.9 1537.13 270.4 1538.77 272.16C1540.41 273.88 1542.65 274.74 1545.49 274.74C1548.41 274.74 1550.71 273.84 1552.39 272.04C1554.07 270.24 1554.91 267.62 1554.91 264.18V246.12H1560.37ZM1581.23 279.54C1578.71 279.54 1576.45 279.12 1574.45 278.28C1572.45 277.4 1570.87 276.2 1569.71 274.68C1568.55 273.12 1567.91 271.34 1567.79 269.34H1573.43C1573.59 270.98 1574.35 272.32 1575.71 273.36C1577.11 274.4 1578.93 274.92 1581.17 274.92C1583.25 274.92 1584.89 274.46 1586.09 273.54C1587.29 272.62 1587.89 271.46 1587.89 270.06C1587.89 268.62 1587.25 267.56 1585.97 266.88C1584.69 266.16 1582.71 265.46 1580.03 264.78C1577.59 264.14 1575.59 263.5 1574.03 262.86C1572.51 262.18 1571.19 261.2 1570.07 259.92C1568.99 258.6 1568.45 256.88 1568.45 254.76C1568.45 253.08 1568.95 251.54 1569.95 250.14C1570.95 248.74 1572.37 247.64 1574.21 246.84C1576.05 246 1578.15 245.58 1580.51 245.58C1584.15 245.58 1587.09 246.5 1589.33 248.34C1591.57 250.18 1592.77 252.7 1592.93 255.9H1587.47C1587.35 254.18 1586.65 252.8 1585.37 251.76C1584.13 250.72 1582.45 250.2 1580.33 250.2C1578.37 250.2 1576.81 250.62 1575.65 251.46C1574.49 252.3 1573.91 253.4 1573.91 254.76C1573.91 255.84 1574.25 256.74 1574.93 257.46C1575.65 258.14 1576.53 258.7 1577.57 259.14C1578.65 259.54 1580.13 260 1582.01 260.52C1584.37 261.16 1586.29 261.8 1587.77 262.44C1589.25 263.04 1590.51 263.96 1591.55 265.2C1592.63 266.44 1593.19 268.06 1593.23 270.06C1593.23 271.86 1592.73 273.48 1591.73 274.92C1590.73 276.36 1589.31 277.5 1587.47 278.34C1585.67 279.14 1583.59 279.54 1581.23 279.54ZM1607.6 250.62V270C1607.6 271.6 1607.94 272.74 1608.62 273.42C1609.3 274.06 1610.48 274.38 1612.16 274.38H1616.18V279H1611.26C1608.22 279 1605.94 278.3 1604.42 276.9C1602.9 275.5 1602.14 273.2 1602.14 270V250.62H1597.88V246.12H1602.14V237.84H1607.6V246.12H1616.18V250.62H1607.6ZM1628.25 251.46C1629.21 249.58 1630.57 248.12 1632.33 247.08C1634.13 246.04 1636.31 245.52 1638.87 245.52V251.16H1637.43C1631.31 251.16 1628.25 254.48 1628.25 261.12V279H1622.79V246.12H1628.25V251.46ZM1643.13 262.44C1643.13 259.08 1643.81 256.14 1645.17 253.62C1646.53 251.06 1648.39 249.08 1650.75 247.68C1653.15 246.28 1655.81 245.58 1658.73 245.58C1661.61 245.58 1664.11 246.2 1666.23 247.44C1668.35 248.68 1669.93 250.24 1670.97 252.12V246.12H1676.49V279H1670.97V272.88C1669.89 274.8 1668.27 276.4 1666.11 277.68C1663.99 278.92 1661.51 279.54 1658.67 279.54C1655.75 279.54 1653.11 278.82 1650.75 277.38C1648.39 275.94 1646.53 273.92 1645.17 271.32C1643.81 268.72 1643.13 265.76 1643.13 262.44ZM1670.97 262.5C1670.97 260.02 1670.47 257.86 1669.47 256.02C1668.47 254.18 1667.11 252.78 1665.39 251.82C1663.71 250.82 1661.85 250.32 1659.81 250.32C1657.77 250.32 1655.91 250.8 1654.23 251.76C1652.55 252.72 1651.21 254.12 1650.21 255.96C1649.21 257.8 1648.71 259.96 1648.71 262.44C1648.71 264.96 1649.21 267.16 1650.21 269.04C1651.21 270.88 1652.55 272.3 1654.23 273.3C1655.91 274.26 1657.77 274.74 1659.81 274.74C1661.85 274.74 1663.71 274.26 1665.39 273.3C1667.11 272.3 1668.47 270.88 1669.47 269.04C1670.47 267.16 1670.97 264.98 1670.97 262.5ZM1692.38 250.62V270C1692.38 271.6 1692.72 272.74 1693.4 273.42C1694.08 274.06 1695.26 274.38 1696.94 274.38H1700.96V279H1696.04C1693 279 1690.72 278.3 1689.2 276.9C1687.68 275.5 1686.92 273.2 1686.92 270V250.62H1682.66V246.12H1686.92V237.84H1692.38V246.12H1700.96V250.62H1692.38ZM1737.58 261.3C1737.58 262.34 1737.52 263.44 1737.4 264.6H1711.12C1711.32 267.84 1712.42 270.38 1714.42 272.22C1716.46 274.02 1718.92 274.92 1721.8 274.92C1724.16 274.92 1726.12 274.38 1727.68 273.3C1729.28 272.18 1730.4 270.7 1731.04 268.86H1736.92C1736.04 272.02 1734.28 274.6 1731.64 276.6C1729 278.56 1725.72 279.54 1721.8 279.54C1718.68 279.54 1715.88 278.84 1713.4 277.44C1710.96 276.04 1709.04 274.06 1707.64 271.5C1706.24 268.9 1705.54 265.9 1705.54 262.5C1705.54 259.1 1706.22 256.12 1707.58 253.56C1708.94 251 1710.84 249.04 1713.28 247.68C1715.76 246.28 1718.6 245.58 1721.8 245.58C1724.92 245.58 1727.68 246.26 1730.08 247.62C1732.48 248.98 1734.32 250.86 1735.6 253.26C1736.92 255.62 1737.58 258.3 1737.58 261.3ZM1731.94 260.16C1731.94 258.08 1731.48 256.3 1730.56 254.82C1729.64 253.3 1728.38 252.16 1726.78 251.4C1725.22 250.6 1723.48 250.2 1721.56 250.2C1718.8 250.2 1716.44 251.08 1714.48 252.84C1712.56 254.6 1711.46 257.04 1711.18 260.16H1731.94ZM1742.74 262.44C1742.74 259.08 1743.42 256.14 1744.78 253.62C1746.14 251.06 1748 249.08 1750.36 247.68C1752.76 246.28 1755.44 245.58 1758.4 245.58C1760.96 245.58 1763.34 246.18 1765.54 247.38C1767.74 248.54 1769.42 250.08 1770.58 252V234.6H1776.1V279H1770.58V272.82C1769.5 274.78 1767.9 276.4 1765.78 277.68C1763.66 278.92 1761.18 279.54 1758.34 279.54C1755.42 279.54 1752.76 278.82 1750.36 277.38C1748 275.94 1746.14 273.92 1744.78 271.32C1743.42 268.72 1742.74 265.76 1742.74 262.44ZM1770.58 262.5C1770.58 260.02 1770.08 257.86 1769.08 256.02C1768.08 254.18 1766.72 252.78 1765 251.82C1763.32 250.82 1761.46 250.32 1759.42 250.32C1757.38 250.32 1755.52 250.8 1753.84 251.76C1752.16 252.72 1750.82 254.12 1749.82 255.96C1748.82 257.8 1748.32 259.96 1748.32 262.44C1748.32 264.96 1748.82 267.16 1749.82 269.04C1750.82 270.88 1752.16 272.3 1753.84 273.3C1755.52 274.26 1757.38 274.74 1759.42 274.74C1761.46 274.74 1763.32 274.26 1765 273.3C1766.72 272.3 1768.08 270.88 1769.08 269.04C1770.08 267.16 1770.58 264.98 1770.58 262.5ZM922.08 342.24C923.2 340.28 924.84 338.68 927 337.44C929.16 336.2 931.62 335.58 934.38 335.58C937.34 335.58 940 336.28 942.36 337.68C944.72 339.08 946.58 341.06 947.94 343.62C949.3 346.14 949.98 349.08 949.98 352.44C949.98 355.76 949.3 358.72 947.94 361.32C946.58 363.92 944.7 365.94 942.3 367.38C939.94 368.82 937.3 369.54 934.38 369.54C931.54 369.54 929.04 368.92 926.88 367.68C924.76 366.44 923.16 364.86 922.08 362.94V369H916.62V324.6H922.08V342.24ZM944.4 352.44C944.4 349.96 943.9 347.8 942.9 345.96C941.9 344.12 940.54 342.72 938.82 341.76C937.14 340.8 935.28 340.32 933.24 340.32C931.24 340.32 929.38 340.82 927.66 341.82C925.98 342.78 924.62 344.2 923.58 346.08C922.58 347.92 922.08 350.06 922.08 352.5C922.08 354.98 922.58 357.16 923.58 359.04C924.62 360.88 925.98 362.3 927.66 363.3C929.38 364.26 931.24 364.74 933.24 364.74C935.28 364.74 937.14 364.26 938.82 363.3C940.54 362.3 941.9 360.88 942.9 359.04C943.9 357.16 944.4 354.96 944.4 352.44ZM987.167 351.3C987.167 352.34 987.107 353.44 986.987 354.6H960.707C960.907 357.84 962.007 360.38 964.007 362.22C966.047 364.02 968.507 364.92 971.387 364.92C973.747 364.92 975.707 364.38 977.267 363.3C978.867 362.18 979.987 360.7 980.627 358.86H986.507C985.627 362.02 983.867 364.6 981.227 366.6C978.587 368.56 975.307 369.54 971.387 369.54C968.267 369.54 965.467 368.84 962.987 367.44C960.547 366.04 958.627 364.06 957.227 361.5C955.827 358.9 955.127 355.9 955.127 352.5C955.127 349.1 955.807 346.12 957.167 343.56C958.527 341 960.427 339.04 962.867 337.68C965.347 336.28 968.187 335.58 971.387 335.58C974.507 335.58 977.267 336.26 979.667 337.62C982.067 338.98 983.907 340.86 985.187 343.26C986.507 345.62 987.167 348.3 987.167 351.3ZM981.527 350.16C981.527 348.08 981.067 346.3 980.147 344.82C979.227 343.3 977.967 342.16 976.367 341.4C974.807 340.6 973.067 340.2 971.147 340.2C968.387 340.2 966.027 341.08 964.067 342.84C962.147 344.6 961.047 347.04 960.767 350.16H981.527ZM992.334 352.5C992.334 349.1 993.014 346.14 994.374 343.62C995.734 341.06 997.614 339.08 1000.01 337.68C1002.45 336.28 1005.23 335.58 1008.35 335.58C1012.39 335.58 1015.71 336.56 1018.31 338.52C1020.95 340.48 1022.69 343.2 1023.53 346.68H1017.65C1017.09 344.68 1015.99 343.1 1014.35 341.94C1012.75 340.78 1010.75 340.2 1008.35 340.2C1005.23 340.2 1002.71 341.28 1000.79 343.44C998.874 345.56 997.914 348.58 997.914 352.5C997.914 356.46 998.874 359.52 1000.79 361.68C1002.71 363.84 1005.23 364.92 1008.35 364.92C1010.75 364.92 1012.75 364.36 1014.35 363.24C1015.95 362.12 1017.05 360.52 1017.65 358.44H1023.53C1022.65 361.8 1020.89 364.5 1018.25 366.54C1015.61 368.54 1012.31 369.54 1008.35 369.54C1005.23 369.54 1002.45 368.84 1000.01 367.44C997.614 366.04 995.734 364.06 994.374 361.5C993.014 358.94 992.334 355.94 992.334 352.5ZM1028.78 352.44C1028.78 349.08 1029.46 346.14 1030.82 343.62C1032.18 341.06 1034.04 339.08 1036.4 337.68C1038.8 336.28 1041.46 335.58 1044.38 335.58C1047.26 335.58 1049.76 336.2 1051.88 337.44C1054 338.68 1055.58 340.24 1056.62 342.12V336.12H1062.14V369H1056.62V362.88C1055.54 364.8 1053.92 366.4 1051.76 367.68C1049.64 368.92 1047.16 369.54 1044.32 369.54C1041.4 369.54 1038.76 368.82 1036.4 367.38C1034.04 365.94 1032.18 363.92 1030.82 361.32C1029.46 358.72 1028.78 355.76 1028.78 352.44ZM1056.62 352.5C1056.62 350.02 1056.12 347.86 1055.12 346.02C1054.12 344.18 1052.76 342.78 1051.04 341.82C1049.36 340.82 1047.5 340.32 1045.46 340.32C1043.42 340.32 1041.56 340.8 1039.88 341.76C1038.2 342.72 1036.86 344.12 1035.86 345.96C1034.86 347.8 1034.36 349.96 1034.36 352.44C1034.36 354.96 1034.86 357.16 1035.86 359.04C1036.86 360.88 1038.2 362.3 1039.88 363.3C1041.56 364.26 1043.42 364.74 1045.46 364.74C1047.5 364.74 1049.36 364.26 1051.04 363.3C1052.76 362.3 1054.12 360.88 1055.12 359.04C1056.12 357.16 1056.62 354.98 1056.62 352.5ZM1100.53 336.12V369H1095.07V364.14C1094.03 365.82 1092.57 367.14 1090.69 368.1C1088.85 369.02 1086.81 369.48 1084.57 369.48C1082.01 369.48 1079.71 368.96 1077.67 367.92C1075.63 366.84 1074.01 365.24 1072.81 363.12C1071.65 361 1071.07 358.42 1071.07 355.38V336.12H1076.47V354.66C1076.47 357.9 1077.29 360.4 1078.93 362.16C1080.57 363.88 1082.81 364.74 1085.65 364.74C1088.57 364.74 1090.87 363.84 1092.55 362.04C1094.23 360.24 1095.07 357.62 1095.07 354.18V336.12H1100.53ZM1121.39 369.54C1118.87 369.54 1116.61 369.12 1114.61 368.28C1112.61 367.4 1111.03 366.2 1109.87 364.68C1108.71 363.12 1108.07 361.34 1107.95 359.34H1113.59C1113.75 360.98 1114.51 362.32 1115.87 363.36C1117.27 364.4 1119.09 364.92 1121.33 364.92C1123.41 364.92 1125.05 364.46 1126.25 363.54C1127.45 362.62 1128.05 361.46 1128.05 360.06C1128.05 358.62 1127.41 357.56 1126.13 356.88C1124.85 356.16 1122.87 355.46 1120.19 354.78C1117.75 354.14 1115.75 353.5 1114.19 352.86C1112.67 352.18 1111.35 351.2 1110.23 349.92C1109.15 348.6 1108.61 346.88 1108.61 344.76C1108.61 343.08 1109.11 341.54 1110.11 340.14C1111.11 338.74 1112.53 337.64 1114.37 336.84C1116.21 336 1118.31 335.58 1120.67 335.58C1124.31 335.58 1127.25 336.5 1129.49 338.34C1131.73 340.18 1132.93 342.7 1133.09 345.9H1127.63C1127.51 344.18 1126.81 342.8 1125.53 341.76C1124.29 340.72 1122.61 340.2 1120.49 340.2C1118.53 340.2 1116.97 340.62 1115.81 341.46C1114.65 342.3 1114.07 343.4 1114.07 344.76C1114.07 345.84 1114.41 346.74 1115.09 347.46C1115.81 348.14 1116.69 348.7 1117.73 349.14C1118.81 349.54 1120.29 350 1122.17 350.52C1124.53 351.16 1126.45 351.8 1127.93 352.44C1129.41 353.04 1130.67 353.96 1131.71 355.2C1132.79 356.44 1133.35 358.06 1133.39 360.06C1133.39 361.86 1132.89 363.48 1131.89 364.92C1130.89 366.36 1129.47 367.5 1127.63 368.34C1125.83 369.14 1123.75 369.54 1121.39 369.54ZM1171.09 351.3C1171.09 352.34 1171.03 353.44 1170.91 354.6H1144.63C1144.83 357.84 1145.93 360.38 1147.93 362.22C1149.97 364.02 1152.43 364.92 1155.31 364.92C1157.67 364.92 1159.63 364.38 1161.19 363.3C1162.79 362.18 1163.91 360.7 1164.55 358.86H1170.43C1169.55 362.02 1167.79 364.6 1165.15 366.6C1162.51 368.56 1159.23 369.54 1155.31 369.54C1152.19 369.54 1149.39 368.84 1146.91 367.44C1144.47 366.04 1142.55 364.06 1141.15 361.5C1139.75 358.9 1139.05 355.9 1139.05 352.5C1139.05 349.1 1139.73 346.12 1141.09 343.56C1142.45 341 1144.35 339.04 1146.79 337.68C1149.27 336.28 1152.11 335.58 1155.31 335.58C1158.43 335.58 1161.19 336.26 1163.59 337.62C1165.99 338.98 1167.83 340.86 1169.11 343.26C1170.43 345.62 1171.09 348.3 1171.09 351.3ZM1165.45 350.16C1165.45 348.08 1164.99 346.3 1164.07 344.82C1163.15 343.3 1161.89 342.16 1160.29 341.4C1158.73 340.6 1156.99 340.2 1155.07 340.2C1152.31 340.2 1149.95 341.08 1147.99 342.84C1146.07 344.6 1144.97 347.04 1144.69 350.16H1165.45ZM1199.76 327.18V369H1194.3V327.18H1199.76ZM1268.86 336.12L1258.6 369H1252.96L1245.04 342.9L1237.12 369H1231.48L1221.16 336.12H1226.74L1234.3 363.72L1242.46 336.12H1248.04L1256.02 363.78L1263.46 336.12H1268.86ZM1272.24 352.44C1272.24 349.08 1272.92 346.14 1274.28 343.62C1275.64 341.06 1277.5 339.08 1279.86 337.68C1282.26 336.28 1284.92 335.58 1287.84 335.58C1290.72 335.58 1293.22 336.2 1295.34 337.44C1297.46 338.68 1299.04 340.24 1300.08 342.12V336.12H1305.6V369H1300.08V362.88C1299 364.8 1297.38 366.4 1295.22 367.68C1293.1 368.92 1290.62 369.54 1287.78 369.54C1284.86 369.54 1282.22 368.82 1279.86 367.38C1277.5 365.94 1275.64 363.92 1274.28 361.32C1272.92 358.72 1272.24 355.76 1272.24 352.44ZM1300.08 352.5C1300.08 350.02 1299.58 347.86 1298.58 346.02C1297.58 344.18 1296.22 342.78 1294.5 341.82C1292.82 340.82 1290.96 340.32 1288.92 340.32C1286.88 340.32 1285.02 340.8 1283.34 341.76C1281.66 342.72 1280.32 344.12 1279.32 345.96C1278.32 347.8 1277.82 349.96 1277.82 352.44C1277.82 354.96 1278.32 357.16 1279.32 359.04C1280.32 360.88 1281.66 362.3 1283.34 363.3C1285.02 364.26 1286.88 364.74 1288.92 364.74C1290.96 364.74 1292.82 364.26 1294.5 363.3C1296.22 362.3 1297.58 360.88 1298.58 359.04C1299.58 357.16 1300.08 354.98 1300.08 352.5ZM1326.46 369.54C1323.94 369.54 1321.68 369.12 1319.68 368.28C1317.68 367.4 1316.1 366.2 1314.94 364.68C1313.78 363.12 1313.14 361.34 1313.02 359.34H1318.66C1318.82 360.98 1319.58 362.32 1320.94 363.36C1322.34 364.4 1324.16 364.92 1326.4 364.92C1328.48 364.92 1330.12 364.46 1331.32 363.54C1332.52 362.62 1333.12 361.46 1333.12 360.06C1333.12 358.62 1332.48 357.56 1331.2 356.88C1329.92 356.16 1327.94 355.46 1325.26 354.78C1322.82 354.14 1320.82 353.5 1319.26 352.86C1317.74 352.18 1316.42 351.2 1315.3 349.92C1314.22 348.6 1313.68 346.88 1313.68 344.76C1313.68 343.08 1314.18 341.54 1315.18 340.14C1316.18 338.74 1317.6 337.64 1319.44 336.84C1321.28 336 1323.38 335.58 1325.74 335.58C1329.38 335.58 1332.32 336.5 1334.56 338.34C1336.8 340.18 1338 342.7 1338.16 345.9H1332.7C1332.58 344.18 1331.88 342.8 1330.6 341.76C1329.36 340.72 1327.68 340.2 1325.56 340.2C1323.6 340.2 1322.04 340.62 1320.88 341.46C1319.72 342.3 1319.14 343.4 1319.14 344.76C1319.14 345.84 1319.48 346.74 1320.16 347.46C1320.88 348.14 1321.76 348.7 1322.8 349.14C1323.88 349.54 1325.36 350 1327.24 350.52C1329.6 351.16 1331.52 351.8 1333 352.44C1334.48 353.04 1335.74 353.96 1336.78 355.2C1337.86 356.44 1338.42 358.06 1338.46 360.06C1338.46 361.86 1337.96 363.48 1336.96 364.92C1335.96 366.36 1334.54 367.5 1332.7 368.34C1330.9 369.14 1328.82 369.54 1326.46 369.54ZM1352.83 340.62V360C1352.83 361.6 1353.17 362.74 1353.85 363.42C1354.53 364.06 1355.71 364.38 1357.39 364.38H1361.41V369H1356.49C1353.45 369 1351.17 368.3 1349.65 366.9C1348.13 365.5 1347.37 363.2 1347.37 360V340.62H1343.11V336.12H1347.37V327.84H1352.83V336.12H1361.41V340.62H1352.83ZM1398.03 351.3C1398.03 352.34 1397.97 353.44 1397.85 354.6H1371.57C1371.77 357.84 1372.87 360.38 1374.87 362.22C1376.91 364.02 1379.37 364.92 1382.25 364.92C1384.61 364.92 1386.57 364.38 1388.13 363.3C1389.73 362.18 1390.85 360.7 1391.49 358.86H1397.37C1396.49 362.02 1394.73 364.6 1392.09 366.6C1389.45 368.56 1386.17 369.54 1382.25 369.54C1379.13 369.54 1376.33 368.84 1373.85 367.44C1371.41 366.04 1369.49 364.06 1368.09 361.5C1366.69 358.9 1365.99 355.9 1365.99 352.5C1365.99 349.1 1366.67 346.12 1368.03 343.56C1369.39 341 1371.29 339.04 1373.73 337.68C1376.21 336.28 1379.05 335.58 1382.25 335.58C1385.37 335.58 1388.13 336.26 1390.53 337.62C1392.93 338.98 1394.77 340.86 1396.05 343.26C1397.37 345.62 1398.03 348.3 1398.03 351.3ZM1392.39 350.16C1392.39 348.08 1391.93 346.3 1391.01 344.82C1390.09 343.3 1388.83 342.16 1387.23 341.4C1385.67 340.6 1383.93 340.2 1382.01 340.2C1379.25 340.2 1376.89 341.08 1374.93 342.84C1373.01 344.6 1371.91 347.04 1371.63 350.16H1392.39ZM1403.19 352.44C1403.19 349.08 1403.87 346.14 1405.23 343.62C1406.59 341.06 1408.45 339.08 1410.81 337.68C1413.21 336.28 1415.89 335.58 1418.85 335.58C1421.41 335.58 1423.79 336.18 1425.99 337.38C1428.19 338.54 1429.87 340.08 1431.03 342V324.6H1436.55V369H1431.03V362.82C1429.95 364.78 1428.35 366.4 1426.23 367.68C1424.11 368.92 1421.63 369.54 1418.79 369.54C1415.87 369.54 1413.21 368.82 1410.81 367.38C1408.45 365.94 1406.59 363.92 1405.23 361.32C1403.87 358.72 1403.19 355.76 1403.19 352.44ZM1431.03 352.5C1431.03 350.02 1430.53 347.86 1429.53 346.02C1428.53 344.18 1427.17 342.78 1425.45 341.82C1423.77 340.82 1421.91 340.32 1419.87 340.32C1417.83 340.32 1415.97 340.8 1414.29 341.76C1412.61 342.72 1411.27 344.12 1410.27 345.96C1409.27 347.8 1408.77 349.96 1408.77 352.44C1408.77 354.96 1409.27 357.16 1410.27 359.04C1411.27 360.88 1412.61 362.3 1414.29 363.3C1415.97 364.26 1417.83 364.74 1419.87 364.74C1421.91 364.74 1423.77 364.26 1425.45 363.3C1427.17 362.3 1428.53 360.88 1429.53 359.04C1430.53 357.16 1431.03 354.98 1431.03 352.5ZM1501.32 335.52C1503.88 335.52 1506.16 336.06 1508.16 337.14C1510.16 338.18 1511.74 339.76 1512.9 341.88C1514.06 344 1514.64 346.58 1514.64 349.62V369H1509.24V350.4C1509.24 347.12 1508.42 344.62 1506.78 342.9C1505.18 341.14 1503 340.26 1500.24 340.26C1497.4 340.26 1495.14 341.18 1493.46 343.02C1491.78 344.82 1490.94 347.44 1490.94 350.88V369H1485.54V350.4C1485.54 347.12 1484.72 344.62 1483.08 342.9C1481.48 341.14 1479.3 340.26 1476.54 340.26C1473.7 340.26 1471.44 341.18 1469.76 343.02C1468.08 344.82 1467.24 347.44 1467.24 350.88V369H1461.78V336.12H1467.24V340.86C1468.32 339.14 1469.76 337.82 1471.56 336.9C1473.4 335.98 1475.42 335.52 1477.62 335.52C1480.38 335.52 1482.82 336.14 1484.94 337.38C1487.06 338.62 1488.64 340.44 1489.68 342.84C1490.6 340.52 1492.12 338.72 1494.24 337.44C1496.36 336.16 1498.72 335.52 1501.32 335.52ZM1551.91 336.12L1532.11 384.48H1526.47L1532.95 368.64L1519.69 336.12H1525.75L1536.07 362.76L1546.27 336.12H1551.91ZM1580.06 340.62V360C1580.06 361.6 1580.4 362.74 1581.08 363.42C1581.76 364.06 1582.94 364.38 1584.62 364.38H1588.64V369H1583.72C1580.68 369 1578.4 368.3 1576.88 366.9C1575.36 365.5 1574.6 363.2 1574.6 360V340.62H1570.34V336.12H1574.6V327.84H1580.06V336.12H1588.64V340.62H1580.06ZM1598.07 330.78C1597.03 330.78 1596.15 330.42 1595.43 329.7C1594.71 328.98 1594.35 328.1 1594.35 327.06C1594.35 326.02 1594.71 325.14 1595.43 324.42C1596.15 323.7 1597.03 323.34 1598.07 323.34C1599.07 323.34 1599.91 323.7 1600.59 324.42C1601.31 325.14 1601.67 326.02 1601.67 327.06C1601.67 328.1 1601.31 328.98 1600.59 329.7C1599.91 330.42 1599.07 330.78 1598.07 330.78ZM1600.71 336.12V369H1595.25V336.12H1600.71ZM1649.56 335.52C1652.12 335.52 1654.4 336.06 1656.4 337.14C1658.4 338.18 1659.98 339.76 1661.14 341.88C1662.3 344 1662.88 346.58 1662.88 349.62V369H1657.48V350.4C1657.48 347.12 1656.66 344.62 1655.02 342.9C1653.42 341.14 1651.24 340.26 1648.48 340.26C1645.64 340.26 1643.38 341.18 1641.7 343.02C1640.02 344.82 1639.18 347.44 1639.18 350.88V369H1633.78V350.4C1633.78 347.12 1632.96 344.62 1631.32 342.9C1629.72 341.14 1627.54 340.26 1624.78 340.26C1621.94 340.26 1619.68 341.18 1618 343.02C1616.32 344.82 1615.48 347.44 1615.48 350.88V369H1610.02V336.12H1615.48V340.86C1616.56 339.14 1618 337.82 1619.8 336.9C1621.64 335.98 1623.66 335.52 1625.86 335.52C1628.62 335.52 1631.06 336.14 1633.18 337.38C1635.3 338.62 1636.88 340.44 1637.92 342.84C1638.84 340.52 1640.36 338.72 1642.48 337.44C1644.6 336.16 1646.96 335.52 1649.56 335.52ZM1701.83 351.3C1701.83 352.34 1701.77 353.44 1701.65 354.6H1675.37C1675.57 357.84 1676.67 360.38 1678.67 362.22C1680.71 364.02 1683.17 364.92 1686.05 364.92C1688.41 364.92 1690.37 364.38 1691.93 363.3C1693.53 362.18 1694.65 360.7 1695.29 358.86H1701.17C1700.29 362.02 1698.53 364.6 1695.89 366.6C1693.25 368.56 1689.97 369.54 1686.05 369.54C1682.93 369.54 1680.13 368.84 1677.65 367.44C1675.21 366.04 1673.29 364.06 1671.89 361.5C1670.49 358.9 1669.79 355.9 1669.79 352.5C1669.79 349.1 1670.47 346.12 1671.83 343.56C1673.19 341 1675.09 339.04 1677.53 337.68C1680.01 336.28 1682.85 335.58 1686.05 335.58C1689.17 335.58 1691.93 336.26 1694.33 337.62C1696.73 338.98 1698.57 340.86 1699.85 343.26C1701.17 345.62 1701.83 348.3 1701.83 351.3ZM1696.19 350.16C1696.19 348.08 1695.73 346.3 1694.81 344.82C1693.89 343.3 1692.63 342.16 1691.03 341.4C1689.47 340.6 1687.73 340.2 1685.81 340.2C1683.05 340.2 1680.69 341.08 1678.73 342.84C1676.81 344.6 1675.71 347.04 1675.43 350.16H1696.19Z" fill="#333333"/>
<path d="M1828.42 97.5657C1828.21 86.7243 1819.4 78.0255 1808.55 77.9547L1589.84 76.5266L1470.09 75.8682L1349.9 75.4804C1269.71 75.3129 1189.53 74.831 1109.1 75.0611L988.585 75.2696L868.179 75.8965H868.104C867.006 75.9022 865.956 76.1644 865.187 76.6253C864.417 77.0861 863.991 77.708 864 78.354V78.3549L865.47 170.751L866.11 263.146L865.853 355.542L864.883 447.937C864.881 448.19 864.963 448.441 865.125 448.675C865.287 448.91 865.526 449.123 865.828 449.303C866.131 449.483 866.49 449.626 866.887 449.725C867.283 449.823 867.709 449.874 868.139 449.876H868.179L999.686 450.682C1000.71 450.688 1001.08 449.334 1000.2 448.814V448.814C999.537 448.424 998.699 448.896 998.689 449.666L997.915 508.754C997.908 509.302 998.139 509.843 998.587 510.325C999.035 510.806 999.684 511.212 1000.47 511.505C1001.26 511.797 1002.17 511.966 1003.1 511.995C1004.03 512.025 1004.96 511.914 1005.8 511.673L1005.87 511.651L1211.09 451.906C1211.33 451.836 1211.25 451.482 1211 451.515V451.515L1365.15 451.812L1519.29 452.004L1827.58 451.716L1827.63 451.715C1829.32 451.714 1830.94 451.317 1832.14 450.612C1833.33 449.907 1834 448.951 1834 447.956L1834 447.937C1833.3 385.915 1832.82 323.868 1831.62 262.161L1828.42 97.5657ZM1806.59 78.7595C1817.84 78.6871 1826.94 87.8997 1826.72 99.1447L1823.54 264.13L1821.19 445.506C1821.17 446.573 1822.33 447.245 1823.25 446.704V446.704C1824.45 445.997 1823.95 444.156 1822.56 444.155L1519.29 443.87L1365.15 444.062L1211 444.359H1210.97C1210.04 444.363 1209.12 444.491 1208.29 444.734L1006.46 504.236C1004.72 504.751 1004.64 507.195 1006.35 507.818V507.818C1007.59 508.27 1008.9 507.341 1008.88 506.021L1008.12 447.938L1008.12 447.888C1008.11 447.528 1007.99 447.172 1007.75 446.841C1007.51 446.51 1007.17 446.209 1006.73 445.957C1006.29 445.705 1005.78 445.505 1005.21 445.37C1004.65 445.235 1004.04 445.167 1003.43 445.169H1003.41L870.747 445.983C870.028 445.987 869.772 446.937 870.392 447.301V447.301C870.867 447.581 871.465 447.234 871.459 446.684L870.503 355.541L870.247 263.146L870.887 170.75L872.332 79.9488C872.343 79.2502 871.585 78.8088 870.983 79.163V79.163C870.199 79.6241 870.522 80.825 871.432 80.8297L987.622 81.4395L1106.96 81.6477C1186.43 81.8783 1266.15 81.3964 1345.85 81.2288L1465.52 80.8411L1585.62 80.1822L1806.59 78.7595Z" fill="#262626" stroke="#262626" stroke-width="6"/>
<path d="M1107.18 1313L1089 1293.62V1313H1084.8V1271.06H1089V1290.68L1107.18 1271.06H1112.52L1092.9 1292L1112.7 1313H1107.18ZM1148.54 1294.94C1148.54 1296.38 1148.5 1297.48 1148.42 1298.24H1121.24C1121.36 1300.72 1121.96 1302.84 1123.04 1304.6C1124.12 1306.36 1125.54 1307.7 1127.3 1308.62C1129.06 1309.5 1130.98 1309.94 1133.06 1309.94C1135.78 1309.94 1138.06 1309.28 1139.9 1307.96C1141.78 1306.64 1143.02 1304.86 1143.62 1302.62H1148.06C1147.26 1305.82 1145.54 1308.44 1142.9 1310.48C1140.3 1312.48 1137.02 1313.48 1133.06 1313.48C1129.98 1313.48 1127.22 1312.8 1124.78 1311.44C1122.34 1310.04 1120.42 1308.08 1119.02 1305.56C1117.66 1303 1116.98 1300.02 1116.98 1296.62C1116.98 1293.22 1117.66 1290.24 1119.02 1287.68C1120.38 1285.12 1122.28 1283.16 1124.72 1281.8C1127.16 1280.44 1129.94 1279.76 1133.06 1279.76C1136.18 1279.76 1138.9 1280.44 1141.22 1281.8C1143.58 1283.16 1145.38 1285 1146.62 1287.32C1147.9 1289.6 1148.54 1292.14 1148.54 1294.94ZM1144.28 1294.82C1144.32 1292.38 1143.82 1290.3 1142.78 1288.58C1141.78 1286.86 1140.4 1285.56 1138.64 1284.68C1136.88 1283.8 1134.96 1283.36 1132.88 1283.36C1129.76 1283.36 1127.1 1284.36 1124.9 1286.36C1122.7 1288.36 1121.48 1291.18 1121.24 1294.82H1144.28ZM1167.87 1308.92L1178.91 1280.24H1183.35L1170.21 1313H1165.47L1152.33 1280.24H1156.83L1167.87 1308.92ZM1191.14 1274.06C1190.3 1274.06 1189.58 1273.76 1188.98 1273.16C1188.38 1272.56 1188.08 1271.82 1188.08 1270.94C1188.08 1270.06 1188.38 1269.34 1188.98 1268.78C1189.58 1268.18 1190.3 1267.88 1191.14 1267.88C1191.98 1267.88 1192.7 1268.18 1193.3 1268.78C1193.9 1269.34 1194.2 1270.06 1194.2 1270.94C1194.2 1271.82 1193.9 1272.56 1193.3 1273.16C1192.7 1273.76 1191.98 1274.06 1191.14 1274.06ZM1193.24 1280.24V1313H1189.04V1280.24H1193.24ZM1218.11 1279.64C1222.03 1279.64 1225.23 1280.86 1227.71 1283.3C1230.19 1285.7 1231.43 1289.2 1231.43 1293.8V1313H1227.29V1294.28C1227.29 1290.72 1226.39 1288 1224.59 1286.12C1222.83 1284.24 1220.41 1283.3 1217.33 1283.3C1214.17 1283.3 1211.65 1284.3 1209.77 1286.3C1207.89 1288.3 1206.95 1291.24 1206.95 1295.12V1313H1202.75V1280.24H1206.95V1285.82C1207.99 1283.82 1209.49 1282.3 1211.45 1281.26C1213.41 1280.18 1215.63 1279.64 1218.11 1279.64ZM1298.16 1271.6V1313H1293.96V1279.94L1279.2 1313H1276.14L1261.38 1280.06V1313H1257.18V1271.6H1261.62L1277.64 1307.48L1293.66 1271.6H1298.16ZM1309.79 1274.06C1308.95 1274.06 1308.23 1273.76 1307.63 1273.16C1307.03 1272.56 1306.73 1271.82 1306.73 1270.94C1306.73 1270.06 1307.03 1269.34 1307.63 1268.78C1308.23 1268.18 1308.95 1267.88 1309.79 1267.88C1310.63 1267.88 1311.35 1268.18 1311.95 1268.78C1312.55 1269.34 1312.85 1270.06 1312.85 1270.94C1312.85 1271.82 1312.55 1272.56 1311.95 1273.16C1311.35 1273.76 1310.63 1274.06 1309.79 1274.06ZM1311.89 1280.24V1313H1307.69V1280.24H1311.89ZM1325.6 1286.06C1326.52 1284.02 1327.92 1282.44 1329.8 1281.32C1331.72 1280.2 1334.06 1279.64 1336.82 1279.64V1284.02H1335.68C1332.64 1284.02 1330.2 1284.84 1328.36 1286.48C1326.52 1288.12 1325.6 1290.86 1325.6 1294.7V1313H1321.4V1280.24H1325.6V1286.06ZM1341.22 1296.56C1341.22 1293.2 1341.88 1290.26 1343.2 1287.74C1344.56 1285.18 1346.42 1283.22 1348.78 1281.86C1351.18 1280.46 1353.88 1279.76 1356.88 1279.76C1360 1279.76 1362.68 1280.48 1364.92 1281.92C1367.2 1283.36 1368.84 1285.2 1369.84 1287.44V1280.24H1374.04V1313H1369.84V1305.74C1368.8 1307.98 1367.14 1309.84 1364.86 1311.32C1362.62 1312.76 1359.94 1313.48 1356.82 1313.48C1353.86 1313.48 1351.18 1312.78 1348.78 1311.38C1346.42 1309.98 1344.56 1308 1343.2 1305.44C1341.88 1302.88 1341.22 1299.92 1341.22 1296.56ZM1369.84 1296.62C1369.84 1293.98 1369.3 1291.66 1368.22 1289.66C1367.14 1287.66 1365.66 1286.12 1363.78 1285.04C1361.94 1283.96 1359.9 1283.42 1357.66 1283.42C1355.34 1283.42 1353.26 1283.94 1351.42 1284.98C1349.58 1286.02 1348.12 1287.54 1347.04 1289.54C1346 1291.5 1345.48 1293.84 1345.48 1296.56C1345.48 1299.24 1346 1301.6 1347.04 1303.64C1348.12 1305.64 1349.58 1307.18 1351.42 1308.26C1353.26 1309.3 1355.34 1309.82 1357.66 1309.82C1359.9 1309.82 1361.94 1309.28 1363.78 1308.2C1365.66 1307.12 1367.14 1305.58 1368.22 1303.58C1369.3 1301.58 1369.84 1299.26 1369.84 1296.62ZM1398.99 1279.64C1402.91 1279.64 1406.11 1280.86 1408.59 1283.3C1411.07 1285.7 1412.31 1289.2 1412.31 1293.8V1313H1408.17V1294.28C1408.17 1290.72 1407.27 1288 1405.47 1286.12C1403.71 1284.24 1401.29 1283.3 1398.21 1283.3C1395.05 1283.3 1392.53 1284.3 1390.65 1286.3C1388.77 1288.3 1387.83 1291.24 1387.83 1295.12V1313H1383.63V1280.24H1387.83V1285.82C1388.87 1283.82 1390.37 1282.3 1392.33 1281.26C1394.29 1280.18 1396.51 1279.64 1398.99 1279.64ZM1419.68 1296.56C1419.68 1293.2 1420.36 1290.26 1421.72 1287.74C1423.08 1285.18 1424.94 1283.22 1427.3 1281.86C1429.7 1280.46 1432.4 1279.76 1435.4 1279.76C1438.28 1279.76 1440.88 1280.46 1443.2 1281.86C1445.52 1283.26 1447.22 1285.08 1448.3 1287.32V1268.6H1452.5V1313H1448.3V1305.68C1447.3 1307.96 1445.66 1309.84 1443.38 1311.32C1441.1 1312.76 1438.42 1313.48 1435.34 1313.48C1432.34 1313.48 1429.64 1312.78 1427.24 1311.38C1424.88 1309.98 1423.02 1308 1421.66 1305.44C1420.34 1302.88 1419.68 1299.92 1419.68 1296.56ZM1448.3 1296.62C1448.3 1293.98 1447.76 1291.66 1446.68 1289.66C1445.6 1287.66 1444.12 1286.12 1442.24 1285.04C1440.4 1283.96 1438.36 1283.42 1436.12 1283.42C1433.8 1283.42 1431.72 1283.94 1429.88 1284.98C1428.04 1286.02 1426.58 1287.54 1425.5 1289.54C1424.46 1291.5 1423.94 1293.84 1423.94 1296.56C1423.94 1299.24 1424.46 1301.6 1425.5 1303.64C1426.58 1305.64 1428.04 1307.18 1429.88 1308.26C1431.72 1309.3 1433.8 1309.82 1436.12 1309.82C1438.36 1309.82 1440.4 1309.28 1442.24 1308.2C1444.12 1307.12 1445.6 1305.58 1446.68 1303.58C1447.76 1301.58 1448.3 1299.26 1448.3 1296.62ZM1460.17 1296.56C1460.17 1293.2 1460.83 1290.26 1462.15 1287.74C1463.51 1285.18 1465.37 1283.22 1467.73 1281.86C1470.13 1280.46 1472.83 1279.76 1475.83 1279.76C1478.95 1279.76 1481.63 1280.48 1483.87 1281.92C1486.15 1283.36 1487.79 1285.2 1488.79 1287.44V1280.24H1492.99V1313H1488.79V1305.74C1487.75 1307.98 1486.09 1309.84 1483.81 1311.32C1481.57 1312.76 1478.89 1313.48 1475.77 1313.48C1472.81 1313.48 1470.13 1312.78 1467.73 1311.38C1465.37 1309.98 1463.51 1308 1462.15 1305.44C1460.83 1302.88 1460.17 1299.92 1460.17 1296.56ZM1488.79 1296.62C1488.79 1293.98 1488.25 1291.66 1487.17 1289.66C1486.09 1287.66 1484.61 1286.12 1482.73 1285.04C1480.89 1283.96 1478.85 1283.42 1476.61 1283.42C1474.29 1283.42 1472.21 1283.94 1470.37 1284.98C1468.53 1286.02 1467.07 1287.54 1465.99 1289.54C1464.95 1291.5 1464.43 1293.84 1464.43 1296.56C1464.43 1299.24 1464.95 1301.6 1465.99 1303.64C1467.07 1305.64 1468.53 1307.18 1470.37 1308.26C1472.21 1309.3 1474.29 1309.82 1476.61 1309.82C1478.85 1309.82 1480.89 1309.28 1482.73 1308.2C1484.61 1307.12 1486.09 1305.58 1487.17 1303.58C1488.25 1301.58 1488.79 1299.26 1488.79 1296.62ZM1539.38 1289V1292.54H1516.04V1289H1539.38ZM1564.7 1292C1564.7 1287.88 1565.6 1284.2 1567.4 1280.96C1569.2 1277.68 1571.66 1275.14 1574.78 1273.34C1577.9 1271.5 1581.38 1270.58 1585.22 1270.58C1589.9 1270.58 1593.9 1271.7 1597.22 1273.94C1600.58 1276.14 1603.02 1279.26 1604.54 1283.3H1599.62C1598.42 1280.46 1596.58 1278.24 1594.1 1276.64C1591.66 1275.04 1588.7 1274.24 1585.22 1274.24C1582.14 1274.24 1579.36 1274.96 1576.88 1276.4C1574.44 1277.84 1572.52 1279.92 1571.12 1282.64C1569.72 1285.32 1569.02 1288.44 1569.02 1292C1569.02 1295.56 1569.72 1298.68 1571.12 1301.36C1572.52 1304.04 1574.44 1306.1 1576.88 1307.54C1579.36 1308.98 1582.14 1309.7 1585.22 1309.7C1588.7 1309.7 1591.66 1308.92 1594.1 1307.36C1596.58 1305.76 1598.42 1303.56 1599.62 1300.76H1604.54C1603.02 1304.76 1600.58 1307.86 1597.22 1310.06C1593.86 1312.26 1589.86 1313.36 1585.22 1313.36C1581.38 1313.36 1577.9 1312.46 1574.78 1310.66C1571.66 1308.82 1569.2 1306.28 1567.4 1303.04C1565.6 1299.8 1564.7 1296.12 1564.7 1292ZM1625.63 1313.42C1622.87 1313.42 1620.43 1312.94 1618.31 1311.98C1616.23 1311.02 1614.59 1309.68 1613.39 1307.96C1612.19 1306.24 1611.55 1304.32 1611.47 1302.2H1615.91C1616.11 1304.24 1617.01 1306.04 1618.61 1307.6C1620.21 1309.12 1622.55 1309.88 1625.63 1309.88C1628.47 1309.88 1630.71 1309.16 1632.35 1307.72C1634.03 1306.24 1634.87 1304.38 1634.87 1302.14C1634.87 1300.34 1634.41 1298.9 1633.49 1297.82C1632.57 1296.7 1631.43 1295.88 1630.07 1295.36C1628.71 1294.8 1626.83 1294.2 1624.43 1293.56C1621.63 1292.8 1619.41 1292.06 1617.77 1291.34C1616.13 1290.62 1614.73 1289.5 1613.57 1287.98C1612.41 1286.46 1611.83 1284.4 1611.83 1281.8C1611.83 1279.64 1612.39 1277.72 1613.51 1276.04C1614.63 1274.32 1616.21 1272.98 1618.25 1272.02C1620.29 1271.06 1622.63 1270.58 1625.27 1270.58C1629.15 1270.58 1632.27 1271.54 1634.63 1273.46C1637.03 1275.34 1638.41 1277.78 1638.77 1280.78H1634.21C1633.93 1279.06 1632.99 1277.54 1631.39 1276.22C1629.79 1274.86 1627.63 1274.18 1624.91 1274.18C1622.39 1274.18 1620.29 1274.86 1618.61 1276.22C1616.93 1277.54 1616.09 1279.36 1616.09 1281.68C1616.09 1283.44 1616.55 1284.86 1617.47 1285.94C1618.39 1287.02 1619.53 1287.84 1620.89 1288.4C1622.29 1288.96 1624.17 1289.56 1626.53 1290.2C1629.25 1290.96 1631.45 1291.72 1633.13 1292.48C1634.81 1293.2 1636.23 1294.32 1637.39 1295.84C1638.55 1297.36 1639.13 1299.4 1639.13 1301.96C1639.13 1303.92 1638.61 1305.78 1637.57 1307.54C1636.53 1309.3 1634.99 1310.72 1632.95 1311.8C1630.91 1312.88 1628.47 1313.42 1625.63 1313.42ZM1676.43 1313.42C1673.67 1313.42 1671.23 1312.94 1669.11 1311.98C1667.03 1311.02 1665.39 1309.68 1664.19 1307.96C1662.99 1306.24 1662.35 1304.32 1662.27 1302.2H1666.71C1666.91 1304.24 1667.81 1306.04 1669.41 1307.6C1671.01 1309.12 1673.35 1309.88 1676.43 1309.88C1679.27 1309.88 1681.51 1309.16 1683.15 1307.72C1684.83 1306.24 1685.67 1304.38 1685.67 1302.14C1685.67 1300.34 1685.21 1298.9 1684.29 1297.82C1683.37 1296.7 1682.23 1295.88 1680.87 1295.36C1679.51 1294.8 1677.63 1294.2 1675.23 1293.56C1672.43 1292.8 1670.21 1292.06 1668.57 1291.34C1666.93 1290.62 1665.53 1289.5 1664.37 1287.98C1663.21 1286.46 1662.63 1284.4 1662.63 1281.8C1662.63 1279.64 1663.19 1277.72 1664.31 1276.04C1665.43 1274.32 1667.01 1272.98 1669.05 1272.02C1671.09 1271.06 1673.43 1270.58 1676.07 1270.58C1679.95 1270.58 1683.07 1271.54 1685.43 1273.46C1687.83 1275.34 1689.21 1277.78 1689.57 1280.78H1685.01C1684.73 1279.06 1683.79 1277.54 1682.19 1276.22C1680.59 1274.86 1678.43 1274.18 1675.71 1274.18C1673.19 1274.18 1671.09 1274.86 1669.41 1276.22C1667.73 1277.54 1666.89 1279.36 1666.89 1281.68C1666.89 1283.44 1667.35 1284.86 1668.27 1285.94C1669.19 1287.02 1670.33 1287.84 1671.69 1288.4C1673.09 1288.96 1674.97 1289.56 1677.33 1290.2C1680.05 1290.96 1682.25 1291.72 1683.93 1292.48C1685.61 1293.2 1687.03 1294.32 1688.19 1295.84C1689.35 1297.36 1689.93 1299.4 1689.93 1301.96C1689.93 1303.92 1689.41 1305.78 1688.37 1307.54C1687.33 1309.3 1685.79 1310.72 1683.75 1311.8C1681.71 1312.88 1679.27 1313.42 1676.43 1313.42ZM1703.5 1283.78V1304.12C1703.5 1306.12 1703.88 1307.5 1704.64 1308.26C1705.4 1309.02 1706.74 1309.4 1708.66 1309.4H1712.5V1313H1708C1705.04 1313 1702.84 1312.32 1701.4 1310.96C1699.96 1309.56 1699.24 1307.28 1699.24 1304.12V1283.78H1694.68V1280.24H1699.24V1272.02H1703.5V1280.24H1712.5V1283.78H1703.5ZM1747.81 1280.24V1313H1743.61V1307.24C1742.65 1309.28 1741.17 1310.84 1739.17 1311.92C1737.17 1313 1734.93 1313.54 1732.45 1313.54C1728.53 1313.54 1725.33 1312.34 1722.85 1309.94C1720.37 1307.5 1719.13 1303.98 1719.13 1299.38V1280.24H1723.27V1298.9C1723.27 1302.46 1724.15 1305.18 1725.91 1307.06C1727.71 1308.94 1730.15 1309.88 1733.23 1309.88C1736.39 1309.88 1738.91 1308.88 1740.79 1306.88C1742.67 1304.88 1743.61 1301.94 1743.61 1298.06V1280.24H1747.81ZM1755.48 1296.56C1755.48 1293.2 1756.16 1290.26 1757.52 1287.74C1758.88 1285.18 1760.74 1283.22 1763.1 1281.86C1765.5 1280.46 1768.2 1279.76 1771.2 1279.76C1774.08 1279.76 1776.68 1280.46 1779 1281.86C1781.32 1283.26 1783.02 1285.08 1784.1 1287.32V1268.6H1788.3V1313H1784.1V1305.68C1783.1 1307.96 1781.46 1309.84 1779.18 1311.32C1776.9 1312.76 1774.22 1313.48 1771.14 1313.48C1768.14 1313.48 1765.44 1312.78 1763.04 1311.38C1760.68 1309.98 1758.82 1308 1757.46 1305.44C1756.14 1302.88 1755.48 1299.92 1755.48 1296.56ZM1784.1 1296.62C1784.1 1293.98 1783.56 1291.66 1782.48 1289.66C1781.4 1287.66 1779.92 1286.12 1778.04 1285.04C1776.2 1283.96 1774.16 1283.42 1771.92 1283.42C1769.6 1283.42 1767.52 1283.94 1765.68 1284.98C1763.84 1286.02 1762.38 1287.54 1761.3 1289.54C1760.26 1291.5 1759.74 1293.84 1759.74 1296.56C1759.74 1299.24 1760.26 1301.6 1761.3 1303.64C1762.38 1305.64 1763.84 1307.18 1765.68 1308.26C1767.52 1309.3 1769.6 1309.82 1771.92 1309.82C1774.16 1309.82 1776.2 1309.28 1778.04 1308.2C1779.92 1307.12 1781.4 1305.58 1782.48 1303.58C1783.56 1301.58 1784.1 1299.26 1784.1 1296.62ZM1827.53 1294.94C1827.53 1296.38 1827.49 1297.48 1827.41 1298.24H1800.23C1800.35 1300.72 1800.95 1302.84 1802.03 1304.6C1803.11 1306.36 1804.53 1307.7 1806.29 1308.62C1808.05 1309.5 1809.97 1309.94 1812.05 1309.94C1814.77 1309.94 1817.05 1309.28 1818.89 1307.96C1820.77 1306.64 1822.01 1304.86 1822.61 1302.62H1827.05C1826.25 1305.82 1824.53 1308.44 1821.89 1310.48C1819.29 1312.48 1816.01 1313.48 1812.05 1313.48C1808.97 1313.48 1806.21 1312.8 1803.77 1311.44C1801.33 1310.04 1799.41 1308.08 1798.01 1305.56C1796.65 1303 1795.97 1300.02 1795.97 1296.62C1795.97 1293.22 1796.65 1290.24 1798.01 1287.68C1799.37 1285.12 1801.27 1283.16 1803.71 1281.8C1806.15 1280.44 1808.93 1279.76 1812.05 1279.76C1815.17 1279.76 1817.89 1280.44 1820.21 1281.8C1822.57 1283.16 1824.37 1285 1825.61 1287.32C1826.89 1289.6 1827.53 1292.14 1827.53 1294.94ZM1823.27 1294.82C1823.31 1292.38 1822.81 1290.3 1821.77 1288.58C1820.77 1286.86 1819.39 1285.56 1817.63 1284.68C1815.87 1283.8 1813.95 1283.36 1811.87 1283.36C1808.75 1283.36 1806.09 1284.36 1803.89 1286.36C1801.69 1288.36 1800.47 1291.18 1800.23 1294.82H1823.27ZM1850.57 1279.64C1854.49 1279.64 1857.69 1280.86 1860.17 1283.3C1862.65 1285.7 1863.89 1289.2 1863.89 1293.8V1313H1859.75V1294.28C1859.75 1290.72 1858.85 1288 1857.05 1286.12C1855.29 1284.24 1852.87 1283.3 1849.79 1283.3C1846.63 1283.3 1844.11 1284.3 1842.23 1286.3C1840.35 1288.3 1839.41 1291.24 1839.41 1295.12V1313H1835.21V1280.24H1839.41V1285.82C1840.45 1283.82 1841.95 1282.3 1843.91 1281.26C1845.87 1280.18 1848.09 1279.64 1850.57 1279.64ZM1878.64 1283.78V1304.12C1878.64 1306.12 1879.02 1307.5 1879.78 1308.26C1880.54 1309.02 1881.88 1309.4 1883.8 1309.4H1887.64V1313H1883.14C1880.18 1313 1877.98 1312.32 1876.54 1310.96C1875.1 1309.56 1874.38 1307.28 1874.38 1304.12V1283.78H1869.82V1280.24H1874.38V1272.02H1878.64V1280.24H1887.64V1283.78H1878.64Z" fill="#595959"/>
</svg>
