<svg width="2153" height="1533" viewBox="0 0 2153 1533" fill="none" xmlns="http://www.w3.org/2000/svg">
<path fill-rule="evenodd" clip-rule="evenodd" d="M646.156 609.696C699.812 605.854 773.376 616.49 788.895 677.669C793.708 699.932 803.191 709.703 819.123 724.263C920.251 853.699 567.414 875.455 549.276 749.238C511.064 763.155 469.468 766.102 431.233 780.169C410.496 787.829 391.692 799.917 373.673 812.555C300.194 864.743 227.755 918.422 154.538 970.985C182.871 984.032 236.739 1033.85 214.789 1067.32C209.676 1073.84 202.086 1078.34 195.372 1083.1L191.831 1085.63C184.215 1091.09 171.393 1100.39 164.303 1105.45L162.995 1106.4C162.483 1106.77 161.904 1107.19 161.382 1107.56C212.512 1182.31 272.351 1251.29 338.727 1312.87C344.379 1318.12 342.064 1329.87 333.884 1331.24L324.139 1332.67C292.672 1337.25 260.608 1341.38 228.898 1338.89C198.015 1335.53 179.405 1308.19 158.293 1288.39C116.134 1245.3 76.889 1199.33 41.143 1150.77L40.3987 1149.75C29.2734 1134.54 14.5067 1119.01 13.426 1099.38C11.455 1093.47 16.642 1085.02 21.626 1080.99L23.3275 1078.54C50.0589 1040.09 80.3124 1003.02 118.216 975.175C118.075 971.026 119.993 966.665 123.791 963.916L282.199 849.28V849.28C323.071 821.153 361.06 788.097 405.362 765.383C450.662 743.573 501.783 742.715 548.206 724.513C549.19 711.393 576.773 708.044 575.902 710.07C605.005 692.504 619.987 671.603 624.608 652.394C629.228 633.185 623.486 615.667 646.156 609.696ZM1037.89 1021.27C1086.87 947.565 1133.56 1029.11 1153.95 1078.26C1178.04 1145.51 1128.15 1228.25 1095.92 1286.23C1084.04 1302.33 1068.43 1336.3 1047.5 1338.76C994.785 1338.54 941.992 1334.83 889.24 1333.73C855.178 1325.28 902.968 1274.09 935.98 1292.79C945.982 1296.53 950.979 1307.88 960.732 1311.53C964.285 1312.28 964.53 1310.7 965.976 1307.16L966.181 1306.67C968.758 1300.54 971.257 1294.39 973.795 1288.25C995.272 1235.36 1017.98 1182.93 1040.55 1130.53C1045.38 1119.16 1038.61 1109.78 1029.82 1103.01C1023.09 1097.47 994.143 1083.94 1021.41 1089.9C1010.91 1065.52 1023.53 1040.78 1037.89 1021.27ZM916.278 920.376C920.994 919.787 927.051 924.54 927.777 929.144C933.792 967.31 927.09 1005.04 919.055 1042.38L917.576 1049.21C914.612 1062.83 911.3 1076.71 903.909 1088.65C896.366 1100.83 884.955 1110.01 871.855 1115.59C829.83 1132.34 777.566 1115.77 746.651 1084.46C726.873 1057.37 744.26 1023.34 747.579 993.652C744.441 985.651 743.285 976.397 741.471 968.148L741.25 967.163L734.201 936.391C732.647 929.604 737.593 920.316 745.721 921.248C802.393 927.748 859.675 927.456 916.278 920.376Z" fill="white"/>
<rect x="730.997" y="922" width="199" height="200" fill="white"/>
<path fill-rule="evenodd" clip-rule="evenodd" d="M1114.2 1011.62C1114.03 1010.86 1114.94 1010.28 1115.53 1010.85C1125.5 1020.46 1132.54 1032.74 1140.27 1044.12C1147.63 1054.96 1155.64 1065.38 1161.13 1077.34C1166.23 1088.46 1169.52 1099.74 1170.5 1111.96C1171.48 1124.09 1170.21 1136.25 1168.07 1148.2C1163.86 1171.74 1154.86 1194.03 1144.98 1215.68C1135.37 1236.73 1124.52 1257.18 1113.06 1277.26L1108.95 1284.42C1103.94 1293.15 1098.87 1301.86 1093.45 1310.31C1086.7 1320.83 1080.54 1331.69 1071.64 1340.47C1065.32 1346.72 1053.41 1340.47 1056.29 1331.54C1057.54 1327.65 1058.52 1323.99 1060.46 1320.38C1061.93 1317.63 1063.59 1314.96 1065.15 1312.25C1068.27 1306.83 1071.36 1301.39 1074.48 1295.97C1081.03 1284.58 1087.93 1273.4 1094.42 1261.97C1105.68 1242.15 1116.31 1221.96 1125.71 1201.18L1126.81 1198.73C1135.46 1179.49 1143.66 1159.56 1147.46 1138.74C1151.46 1116.81 1147.88 1096.14 1140.09 1075.53C1136.06 1064.87 1131.53 1054.45 1126.82 1044.07L1125.91 1042.09C1121.36 1032.18 1116.54 1022.33 1114.2 1011.62ZM630.047 632.303C630.137 631.914 630.797 631.884 630.857 632.303C633.657 650.925 627.427 670.624 617.277 686.114C611.737 694.574 604.907 702.214 596.857 708.354L596.23 708.827C588.007 714.975 576.895 720.912 566.687 716.925C566.367 716.803 566.067 716.664 565.787 716.505C566.937 718.284 567.997 720.154 569.077 722.024C572.287 727.594 575.167 733.364 578.297 738.984C583.897 749.034 590.567 758.024 598.997 765.894C632.707 797.357 680.039 804.835 724.491 804.477L727.631 804.448C747.157 804.31 772.693 805.307 787.767 791.175C795.867 783.585 800.327 772.794 804.357 762.664C808.317 752.734 811.027 742.484 814.317 732.384C807.447 727.675 801.147 721.925 796.197 715.204C791.037 708.204 787.137 700.324 784.887 691.914L784.555 690.658C782.815 683.951 781.066 675.08 783.867 668.744C784.187 668.014 785.387 668.064 785.727 668.744C787.237 671.774 787.527 675.194 788.457 678.434C789.537 682.204 790.757 685.954 792.367 689.524C795.477 696.444 799.587 703.024 804.517 708.784C808.587 713.553 812.997 717.934 818.037 721.614C821.007 716.484 827.897 715.794 833.667 717.484C841.401 719.743 849.03 722.644 856.488 725.709L857.977 726.324C865.347 729.384 873.677 732.194 880.577 736.364C884.767 738.364 888.787 740.374 892.567 742.154C911.402 751.002 929.958 760.39 948.43 769.961L952.387 772.014C960.127 776.044 967.797 780.114 974.527 785.734C981.377 791.454 986.697 799.274 991.697 806.604C1003.13 823.364 1013.9 840.604 1025.2 857.454C1048.02 891.454 1070.84 925.454 1093.79 959.374C1099.34 967.585 1105.6 975.594 1110.58 984.154C1115.35 992.335 1115.22 1000.73 1114.29 1009.86L1114.11 1011.54C1112.33 1028.29 1109.26 1044.37 1099.87 1058.73C1085.08 1081.31 1061.78 1095.37 1037.13 1105.05C1040.14 1107.29 1042.97 1109.71 1046.56 1111.26C1052.08 1113.61 1057.97 1114.84 1063.94 1115.32C1070.31 1115.84 1077.49 1114.24 1082.65 1118.57C1084.72 1120.3 1084.78 1124.46 1082.65 1126.19C1077.69 1130.24 1071.27 1129.08 1065.23 1128.4L1064.87 1128.36C1059.26 1127.74 1053.73 1126.7 1048.46 1124.64C1047.16 1124.13 1045.87 1123.56 1044.62 1122.93C1044.66 1123.04 1044.68 1123.18 1044.66 1123.31C1043.76 1130.2 1041.81 1136.72 1039.74 1143.3L1038.44 1147.47C1035.78 1155.99 1033.1 1164.49 1030.34 1172.99C1025.08 1189.18 1019.36 1205.2 1013.62 1221.21L1008.67 1235.03C1003.58 1249.2 998.423 1263.35 992.727 1277.28C989.207 1285.88 985.667 1294.48 982.137 1303.07C978.687 1311.46 975.817 1320.52 971.537 1328.51C968.017 1335.09 958.417 1330.38 959.957 1323.62C961.977 1314.76 965.787 1305.95 968.697 1297.32C971.657 1288.56 974.557 1279.79 977.567 1271.05C982.802 1255.87 988.6 1240.89 994.427 1225.92L1000.2 1211.08C1005.87 1196.55 1011.6 1182.02 1017.73 1167.68L1018.4 1166.1C1024.76 1151.09 1031.33 1134.22 1042.9 1122.59C1043.05 1122.43 1043.26 1122.34 1043.47 1122.32C1040.63 1120.78 1037.97 1118.91 1035.63 1116.7L1035.51 1116.59C1034.59 1115.61 1030.77 1110.78 1029.54 1107.89C1027.94 1108.46 1026.34 1109.01 1024.74 1109.55C1021.95 1110.49 1019.64 1109.81 1018.01 1108.32L1014.9 1110.25C1011.58 1112.27 1008.01 1114.2 1004.35 1114.29C999.727 1114.41 996.097 1111.86 993.627 1108.1C991.407 1104.74 990.087 1101.11 987.277 1098.1C984.514 1095.15 981.316 1092.65 978.048 1090.26L974.196 1087.46C967.132 1082.31 960.284 1077.1 954.597 1070.28C951.737 1066.84 947.907 1062.76 946.167 1058.63C945.827 1057.84 945.617 1057.09 945.577 1056.35C945.197 1058.93 944.807 1061.52 944.417 1064.1C938.957 1100.41 934.547 1136.97 933.137 1173.69C932.447 1191.8 932.137 1209.93 932.947 1228.05C933.347 1237.1 934.007 1246.14 934.917 1255.16C935.367 1259.68 935.837 1264.19 936.387 1268.69L936.514 1269.74C936.673 1271.12 936.777 1272.45 936.657 1273.71C941.057 1275.88 943.587 1281.36 945.347 1285.64C946.687 1288.9 945.647 1292.07 943.487 1294.36C946.067 1296.71 948.367 1299.47 950.297 1302.63C950.687 1303.27 949.847 1303.77 949.347 1303.37C946.177 1300.85 942.767 1298.78 939.207 1297.19C937.337 1297.9 935.297 1298.09 933.417 1297.57C931.377 1297.01 929.617 1295.65 928.347 1293.93C918.237 1292.26 907.727 1294.29 898.627 1300.62C896.737 1301.94 895.027 1303.43 893.397 1305.05C893.117 1305.34 892.827 1305.69 892.537 1306.04L894.522 1306.81C895.345 1307.12 896.02 1307.36 896.277 1307.41C898.01 1307.77 899.77 1307.96 901.53 1308.11L904.167 1308.32C914.297 1309.16 924.397 1309.44 933.817 1313.68C935.797 1314.57 935.107 1317.62 933.237 1318.13C926.358 1320 919.532 1319.86 912.53 1319.36L911.027 1319.24C904.517 1318.74 897.527 1318.77 891.177 1316.97C892.697 1321.13 890.627 1326.56 884.277 1327.41C865.207 1329.95 846.017 1328.76 826.927 1327.07C807.647 1325.37 788.377 1323.76 769.047 1322.76C706.521 1319.47 643.898 1320.1 581.316 1320.99L545.95 1321.5C517.747 1321.9 489.538 1322.21 461.335 1321.99L448.134 1321.87C442.555 1321.82 436.973 1321.75 431.4 1321.58L428.057 1321.47C421.417 1321.23 412.627 1322.23 406.857 1318.3C402.097 1315.06 401.037 1309.12 403.907 1304.34C404.737 1302.95 405.877 1301.72 407.067 1300.52C409.507 1279.68 410.877 1258.72 412.277 1237.78C417.137 1164.51 414.297 1091.6 403.087 1019.06C373.007 1028.26 343.387 1039.78 314.527 1052.15C298.917 1058.84 283.387 1065.78 268.037 1073.06C254.027 1079.71 239.957 1088.02 224.987 1092.34C223.626 1093.55 221.723 1094.13 220.036 1093.59L219.817 1093.51H219.807C218.267 1093.87 216.557 1093.65 214.877 1092.64C214.537 1092.44 214.197 1092.23 213.857 1092.02L213.347 1091.69C208.077 1088.37 202.777 1084.28 199.047 1079.28C194.517 1083.48 189.647 1087.34 184.857 1091.23C179.657 1095.47 174.477 1099.73 169.337 1104.03C167.297 1105.74 165.047 1107.37 163.247 1109.34L162.986 1109.63C162.944 1109.68 162.904 1109.73 162.867 1109.77C170.657 1114.81 177.477 1122.46 183.587 1129.11C190.148 1136.25 196.482 1143.62 202.765 1151.01L208.846 1158.18C251.853 1208.96 295.299 1261.59 350.977 1298.91C359.777 1304.81 351.387 1319.18 342.647 1313.15C326.107 1301.76 310.457 1289.11 295.427 1275.8C269.087 1252.49 245.387 1226.34 223.197 1199.09C211.967 1185.3 201.067 1171.18 190.387 1156.95L186.762 1152.13C181.932 1145.7 177.127 1139.24 172.527 1132.64L171.565 1131.26C167.53 1125.44 163.239 1118.9 160.637 1112.19C159.637 1113.2 158.507 1114.05 156.857 1114.69C154.037 1115.79 150.577 1113.48 149.887 1110.73C148.207 1104.06 154.007 1100.09 158.727 1096.55C164.457 1092.27 170.297 1088.14 176.147 1084.03L178.237 1082.56C185.552 1077.37 192.906 1072.04 200.877 1067.94C201.117 1067.62 201.407 1067.32 201.737 1067.06C202.117 1066.76 202.487 1066.47 202.867 1066.18C193.347 1050.74 182.907 1035.9 171.257 1021.88C162.497 1011.34 153.197 1001.26 143.357 991.724L138.937 987.444C132.25 980.987 125.298 974.437 117.877 968.824L115.554 971.458C112.452 974.967 109.319 978.448 106.007 981.744C99.487 988.224 93.057 994.835 86.657 1001.44C76.0284 1012.44 65.7599 1023.78 55.5238 1035.13L50.407 1040.8C39.747 1052.63 28.327 1064.24 18.637 1076.88L18.1531 1077.52C13.9226 1083.2 10.9112 1089.48 12.877 1096.68C14.7738 1103.63 19.2835 1109.79 23.1705 1115.79L23.557 1116.39C39.427 1141.11 56.427 1165.2 74.637 1188.26C111.107 1234.43 152.707 1278.18 202.347 1310.28C209.227 1314.73 202.797 1325.79 195.907 1321.29C166.917 1302.34 140.287 1279.59 115.787 1255.14C93.297 1232.71 72.917 1208.01 53.817 1182.66C44.507 1170.29 35.587 1157.66 27.037 1144.76C18.747 1132.22 9.15702 1119.34 3.14702 1105.51C-0.00273855 1098.24 -1.16298 1090.37 1.41702 1082.71C3.78308 1075.67 8.4623 1069.83 13.3302 1064.33L13.787 1063.81C24.977 1051.24 36.367 1038.82 47.857 1026.52C59.387 1014.18 71.447 1002.28 83.757 990.734C93.427 981.644 103.507 973.633 114.287 966.214C113.317 965.524 112.347 964.864 111.357 964.224C108.347 962.264 107.587 958.074 110.227 955.414C117.437 948.133 125.747 941.803 133.567 935.175C140.917 928.944 148.267 922.704 155.617 916.464C170.577 903.784 185.537 891.094 200.497 878.404C227.367 855.614 254.087 832.664 280.867 809.774C292.034 800.232 303.305 790.809 314.546 781.359L334.52 764.55V764.55L344.288 756.349C349.294 752.157 354.405 748.011 360.097 744.814C373.489 737.291 389.59 734.037 404.345 730.051L405.327 729.784C421.877 725.255 438.517 720.994 455.247 717.194C471.997 713.394 488.817 709.934 505.707 706.803C520.887 703.984 536.427 701.564 551.907 701.204C555.747 699.744 560.567 699.234 564.347 700.794C565.907 701.444 567.537 702.394 568.987 703.594C576.557 700.934 584.027 699.664 591.097 695.164C598.157 690.675 604.407 684.774 609.667 678.274C620.537 664.814 626.227 648.914 630.047 632.303ZM804.057 1088.09C798.057 1087.68 792.657 1090.15 787.297 1092.79C790.317 1094.1 793.337 1095.4 796.357 1096.69L816.457 1105.27V1105.27C823.097 1108.1 830.127 1110.56 836.437 1114.05C836.887 1114.3 837.247 1114.6 837.517 1114.95C844.077 1110.76 851.017 1107.01 857.667 1103.01C859.187 1102.1 860.717 1101.19 862.247 1100.28C854.327 1102.93 846.207 1104.26 837.607 1101.77C826.137 1098.46 816.177 1088.94 804.057 1088.09ZM820.497 1067.97L819.419 1067.24C813.599 1063.25 806.655 1058.12 799.587 1061.7C796.257 1063.39 793.527 1066.12 790.247 1067.94C786.947 1069.78 783.317 1071.19 779.637 1072.04C773.527 1073.45 766.527 1073.66 759.957 1072.3L760.057 1081.18V1081.18C765.027 1083.23 769.967 1085.34 774.907 1087.45C778.114 1086.36 781.201 1085.04 784.447 1083.6L786.637 1082.61C792.887 1079.8 799.197 1077.93 806.107 1078.81C819.117 1080.48 828.947 1090.15 841.387 1093.37C856.637 1097.34 870.397 1085.95 884.807 1083.14C887.183 1082.68 889.632 1082.4 892.066 1082.36L892.877 1082.35L893.237 1082.14C896.337 1080.32 900.977 1078.59 903.137 1075.52C905.487 1072.2 905.687 1066.64 906.457 1062.74C906.537 1062.35 906.617 1061.95 906.687 1061.56C905.327 1061.56 903.947 1061.63 902.547 1061.89C898.147 1062.7 894.007 1064.26 889.907 1066.01C882.157 1069.29 874.577 1073.04 866.417 1075.23C858.427 1077.38 850.077 1078.4 841.847 1077.21C833.817 1076.05 827.147 1072.43 820.497 1067.97ZM821.749 1036.75L820.544 1035.98C817.366 1033.95 813.721 1031.85 809.827 1032.59C806.347 1033.26 803.357 1036.03 800.327 1037.74C793.677 1041.49 786.217 1043.54 778.607 1044.06C772.277 1044.49 765.707 1043.72 759.617 1041.84L759.827 1061.51V1061.51C762.057 1062.21 764.367 1062.72 766.797 1062.9C774.177 1063.45 781.377 1061.68 787.567 1057.61L790.698 1055.54C796.057 1052.01 801.085 1049.22 808.177 1050.51C815.197 1051.78 821.087 1056.28 826.827 1060.2L827.768 1060.84C834.36 1065.19 841.042 1068 849.127 1068.06C857.857 1068.13 866.487 1065.7 874.617 1062.71C882.687 1059.76 890.357 1056.2 898.987 1055.11C901.627 1054.78 904.847 1054.68 907.877 1055.2C908.277 1052.97 908.657 1050.76 909.017 1048.52C909.797 1043.73 910.467 1038.95 911.047 1034.16C895.737 1030.04 881.597 1043.37 867.377 1047.48C859.127 1049.86 850.147 1049.84 841.897 1047.53C834.263 1045.4 828.262 1040.98 821.749 1036.75ZM821.787 1003.64C818.517 1003.01 815.287 1004.52 812.507 1006.07C805.417 1010.01 799.297 1015.47 791.267 1017.54C780.937 1020.2 769.637 1017.91 759.377 1013.56C759.417 1019.63 759.467 1025.7 759.517 1031.77C761.447 1032.51 763.427 1033.09 765.447 1033.56C772.627 1035.2 780.237 1034.98 787.307 1032.91C794.517 1030.8 800.047 1025.1 807.277 1023.32C814.67 1021.5 821.639 1025.05 827.597 1029.09L829.39 1030.31C836.201 1034.93 842.806 1038.95 851.327 1039.73C860.337 1040.56 868.167 1037.74 876.217 1034.01L878.091 1033.14C888.283 1028.46 901.513 1023.13 911.687 1028.45C912.487 1020.89 913.067 1013.34 913.457 1005.76C912.057 1005.24 910.607 1004.86 908.937 1004.85C904.947 1004.84 900.757 1006.09 897.037 1007.4C888.907 1010.27 881.337 1014.55 873.287 1017.62C865.657 1020.54 857.207 1022.06 849.067 1020.76C841.527 1019.54 835.867 1015.6 830.657 1010.2L829.9 1009.41C827.615 1006.98 825.171 1004.3 821.787 1003.64ZM827.757 975.574C823.987 973.585 819.397 971.734 815.037 972.314C810.877 972.863 808.105 975.685 805.543 978.701L804.156 980.353C799.573 985.774 795.062 990.333 787.997 992.564C780.677 994.864 772.917 993.964 766.107 990.594C763.687 989.394 761.437 987.904 759.177 986.434L759.297 1002.38V1002.38C763.817 1004.63 768.417 1006.66 773.467 1007.89C782.787 1010.16 790.707 1008.48 798.677 1003.34L799.514 1002.8C805.517 998.857 811.672 994.164 819.087 993.724C826.323 993.291 831.754 997.303 836.519 1002.21L837.077 1002.79C843.087 1009.13 849.157 1012.22 858.097 1011.49C866.764 1010.79 874.876 1006.96 882.816 1003.66L883.537 1003.36C890.797 1000.38 899.167 997.314 907.137 998.454C909.047 998.724 911.517 999.314 913.717 1000.34C914.037 992.883 914.187 985.414 914.217 977.934C909.687 974.005 902.637 973.354 896.967 974.964C888.087 977.484 880.817 983.984 872.337 987.514C864.817 990.644 856.977 991.344 849.307 988.383C841.387 985.324 835.177 979.494 827.757 975.574ZM913.717 944.154C900.447 944.614 887.467 953.244 874.797 956.534C860.644 960.207 849.092 955.2 836.484 949.642L834.857 948.925C828.387 946.085 821.437 943.534 814.267 944.694C807.277 945.835 801.097 949.704 795.087 953.204L793.935 953.867C782.987 960.1 771.839 964.367 759.057 963.303C759.127 967.314 759.097 971.314 759.107 975.234C761.207 976.434 763.227 977.794 765.147 979.034L765.836 979.471C771.93 983.281 778.211 985.785 785.477 983.434C792.497 981.154 795.797 975.044 800.617 970.014C805.047 965.394 810.827 962.585 817.307 962.854C824.277 963.133 830.867 966.204 836.627 969.954C842.387 973.704 847.957 978.553 854.697 980.434C869.817 984.633 882.767 968.644 897.067 966.154C903.067 965.104 909.687 966.434 914.217 970.053C914.167 961.434 913.977 952.794 913.717 944.154ZM799.497 940.534C797.627 940.604 795.757 940.684 793.887 940.764C786.967 941.064 780.047 941.404 773.127 941.794C768.337 942.053 762.447 943.524 757.747 942.064C757.627 942.544 757.467 943.005 757.257 943.454C757.967 946.994 758.407 950.654 758.677 954.354C763.017 954.824 767.427 954.664 771.707 953.774C781.977 951.644 790.317 945.164 799.497 940.534ZM913.517 937.564C888.248 939.305 862.784 938.706 837.474 939.253L834.437 939.324C834.317 939.324 834.197 939.335 834.077 939.335C836.98 940.46 839.86 941.748 842.73 943.059L845.597 944.374C852.377 947.494 859.277 950.044 866.867 949.494C874.997 948.904 882.657 945.585 890.257 942.904C897.507 940.344 905.857 938.624 913.587 939.744C913.567 939.014 913.547 938.294 913.517 937.564Z" fill="#262626"/>
<path fill-rule="evenodd" clip-rule="evenodd" d="M866.673 484.003C864.525 465.088 867.305 425.552 867.492 423.15C868.669 407.965 861.569 348.002 848.148 353.527C825.633 335.666 795.646 331.722 767.605 329.838C709.36 325.924 647.399 334.909 602.424 374.189C580.182 394.588 558.529 424.257 560.269 455.149C540.061 484.431 511.572 524.598 536.751 558.831C545.309 569.768 558.912 573.841 569.663 582.124C591.289 599.604 604.857 624.69 626.688 642.066C684.526 694.149 782.736 705.029 839.561 645.789C883.504 602.885 876.398 538.699 868.669 484.003C863.473 447.23 870.864 520.904 866.673 484.003Z" fill="white"/>
<path fill-rule="evenodd" clip-rule="evenodd" d="M689.798 249.625C705.375 246.475 721.371 244.515 737.278 245.105L738.504 245.153C750.473 245.632 765.631 246.693 776.072 253.667C776.673 253.063 777.639 252.753 778.515 253.172C790.923 259.107 804.57 263.398 817.634 267.662C830.639 271.905 844.13 274.706 857.76 275.835C862.888 276.26 867.277 281.809 864.03 286.786C863.258 287.972 862.505 289.17 861.756 290.371C863.009 290.24 864.262 290.105 865.516 289.978C869.64 289.562 873.76 293.973 873.516 297.997C873.363 300.528 873.091 303.029 872.688 305.5C874.258 305.467 875.82 305.703 877.329 306.342C884.969 309.575 884.437 318.694 883.865 325.632C883.073 335.26 879.479 345.458 872.807 352.664C877.789 357.849 881.315 364.041 883.419 371.395C884.945 376.765 885.794 382.485 885.375 388.075L885.241 389.749C884.723 395.815 883.692 402.531 879.338 406.895C877.102 409.145 874.348 409.965 871.723 409.705C873.31 423.685 874.328 437.745 875.286 451.755L875.735 458.451C877.872 490.831 879.478 523.422 879.058 555.855C878.668 586.165 872.692 615.585 854.141 640.195C837.246 662.605 812.988 679.125 785.546 685.405C770.757 688.795 755.659 689.035 740.691 686.875C733.435 685.825 726.132 684.215 719.245 681.675C711.622 678.855 706.144 674.705 701.015 668.485C698.589 665.535 699.756 659.255 704.587 659.845C711.893 660.733 718.562 661.803 725.567 663.968L726.57 664.285C733.546 666.525 740.771 668.195 748.064 668.905C763.004 670.355 778.171 668.895 792.481 664.355C815.782 656.955 835.85 640.465 848.712 619.745C863.98 595.185 865.706 567.305 865.486 539.065C865.25 508.077 864.244 477.07 862.602 446.114L862.323 440.955C861.454 425.025 860.616 409.085 859.879 393.145C859.649 388.145 859.3 383.105 858.67 378.115C852.913 374.735 847.754 370.075 844.391 364.325C837.636 367.125 830.531 369.145 823.994 370.755C808.852 374.487 793.131 375.393 777.718 373.056C773.561 374.777 769.321 376.29 765.016 377.592C763.853 378.109 762.689 378.617 761.527 379.115C751.148 383.565 740.62 387.335 729.664 390.095L726.973 390.768C721.207 392.192 714.944 393.595 708.808 394.035C707.8 394.425 706.713 394.755 705.524 395.045C699.937 396.405 694.138 396.835 688.411 396.355C682.832 395.885 678.801 390.235 681.874 384.945C684.119 381.085 686.386 377.235 688.671 373.395C680.718 376.715 672.505 379.475 664.222 381.815C655.86 384.175 647.378 386.165 638.885 387.995C634.345 388.965 629.785 389.825 625.255 390.795C622.012 391.485 617.032 391.845 614.387 393.985C611.464 396.335 610.636 401.815 609.527 405.195C608.07 409.585 606.703 413.995 605.456 418.455C602.972 427.355 600.936 436.385 599.36 445.505C597.783 454.635 596.724 463.855 596.135 473.105C595.548 482.345 595.806 491.645 594.859 500.845C594.349 505.725 589.121 508.235 585.259 504.825C584.806 504.425 584.35 504.021 583.898 503.612L583.224 502.995C579.92 499.995 576.716 496.815 574.073 493.235C573.594 492.575 573.135 491.885 572.706 491.185C572.636 491.185 572.576 491.165 572.506 491.115L571.773 490.562C563.703 484.543 550.219 476.694 542.35 486.695C539.842 489.881 538.558 493.938 537.493 497.851L535.623 504.856C534.414 509.428 533.276 514.026 532.61 518.705C531.103 529.185 531.861 541.265 539.057 549.665C541.931 553.025 545.893 555.425 550.312 556.055C552.778 556.395 555.213 555.975 557.658 555.665C560.142 555.355 562.536 555.855 565.022 555.615C568.974 555.225 570.7 559.965 569.223 562.945C568.425 564.545 567.486 565.925 566.419 567.095C567.276 567.835 568.096 568.635 568.884 569.475C571.219 570.225 573.314 571.835 574.881 573.965C576.149 575.685 576.806 577.555 576.917 579.525C577.056 580.015 577.175 580.515 577.286 581.025L579.427 584.507C579.898 585.271 580.367 586.025 580.838 586.765C586.286 595.365 592.334 602.645 599.848 609.505C607.083 616.105 614.936 622.015 621.732 629.095L622.533 629.936C628.869 636.627 635.548 644.726 633.068 654.455C632.43 656.955 628.946 658.755 626.672 657.065C619.357 651.625 615.674 643.005 609.468 636.405C603.081 629.605 596.006 623.495 589.6 616.715C583.542 610.315 578.762 603.065 575.161 595.085C573.723 596.675 571.628 597.805 568.724 598.245C563.735 598.995 559.084 596.065 556.909 591.735C555.511 592.355 554.085 592.915 552.647 593.355C545.083 595.675 540.324 587.245 543.178 581.015C544.704 577.675 546.61 574.775 548.976 572.335C541.581 571.315 534.057 567.485 529.197 562.705C517.004 550.695 515.327 532.645 518.071 516.595C519.528 508.085 522.042 499.475 525.306 491.485C525.874 490.095 526.484 488.695 527.151 487.315C526.782 487.305 526.403 487.145 526.163 486.835C523.958 483.815 521.275 481.345 519.637 477.965C518.13 474.865 516.455 471.725 515.266 468.495C512.822 461.885 511.625 454.425 510.827 447.435C509.18 433.125 509.818 418.905 512.004 404.685C515.725 380.465 524.714 357.287 537.957 336.949C537.236 336.569 536.545 336.111 535.901 335.569L535.583 335.291L535.066 334.823C531.287 331.396 531.614 324.973 535.066 321.502L536.157 320.407C537.538 319.032 538.728 317.943 540.959 316.446C541.288 316.225 541.625 316.017 541.965 315.823C540.797 313.661 540.392 311.133 541.205 308.344C544.039 298.628 557.99 298.972 566.832 303.209C576.615 294.46 587.462 286.865 599.219 280.715C627.221 266.075 658.883 255.865 689.798 249.625ZM545.055 505.525C550.284 503.815 557.229 507.405 561.929 509.565C567.886 512.305 572.956 516.355 577.865 520.635C580.31 522.775 580.748 526.275 580.14 529.265C580.08 529.565 580.021 529.875 579.95 530.185C579.301 533.375 575.749 535.885 572.605 535.795C566.029 535.615 562.897 529.925 559.174 525.105C558.736 525.885 558.187 526.605 557.507 527.145L557.048 527.505C555.504 528.684 553.801 529.626 551.759 529.535C550.312 529.465 548.926 529.095 547.648 528.425C544.455 526.735 543.049 522.595 543.916 519.225C544.455 517.105 545.692 515.445 547.309 514.295L546.706 513.882C545.417 512.983 544.241 512.035 543.325 510.636L543.118 510.305H543.198C542.2 508.585 542.849 506.245 545.055 505.525Z" fill="#262626"/>
<path fill-rule="evenodd" clip-rule="evenodd" d="M816.648 571.743C808.262 567.29 798.421 568.043 790 572.021C779.706 576.884 771.748 584.869 764.697 593.65C761.991 597.021 759.458 600.536 756.928 604.048C755.887 605.494 754.846 606.939 753.794 608.372C753.589 608.641 753.364 608.93 753.125 609.237C751.44 611.402 749.14 614.397 748.259 617.115C747.906 618.206 747.774 619.259 747.933 620.219C748.01 620.683 748.152 621.128 748.37 621.549C747.026 621.896 746.129 621.565 745.509 620.898C744.527 619.841 744.182 618.254 744.168 616.432C744.118 609.906 748.421 600.392 750.178 596.472C750.359 596.068 750.514 595.722 750.637 595.443C756.991 580.903 767.157 566.74 781.288 558.903C794.98 551.31 811.186 549.875 825.351 557.053C841 564.984 845.27 580.687 847.043 596.826C847.315 599.299 846.196 601.579 844.476 603.299C842.534 605.241 839.806 606.498 837.256 606.498C834.609 606.498 832.184 605.377 830.412 603.605C828.624 601.817 827.495 599.364 827.475 596.706L827.458 595.158C827.376 589.769 826.998 584.71 825.042 580.419C823.47 576.969 820.895 573.999 816.648 571.743ZM795.814 499.367C803.366 503.957 814.872 514.66 806.748 526.04C797.186 536.073 783.419 524.569 776.634 519.366C770.343 515.334 763.275 525.705 769.112 530.413C818.136 566.708 838.031 500.568 799.634 493.971C795.406 493.244 793.836 497.947 795.814 499.367ZM732.25 500.874C730.216 501.87 727.96 502.274 725.748 501.813C723.767 501.399 721.831 500.289 720.117 498.333C717.763 495.644 716.054 491.826 717.196 488.183L717.523 487.246C717.909 486.156 718.43 485.135 719.064 484.208C719.471 482.224 719.553 480.924 719.63 479.69C719.65 479.374 719.669 479.063 719.691 478.753C719.813 477.025 720.066 475.215 720.647 473.551C720.756 473.237 720.877 472.927 721.009 472.621C720.684 472.507 720.359 472.393 720.035 472.278C717.792 471.488 715.556 470.685 713.332 469.844C707.007 467.453 700.753 464.758 694.699 461.742C691.708 460.251 688.793 458.574 685.914 456.877C684.539 455.963 681.524 453.834 680.171 452.688L679.145 451.819L678.608 453.052C678.031 453.634 677.565 453.679 677.173 453.548C676.752 453.408 676.44 453.076 676.244 452.677C676.008 452.198 675.935 451.613 676.059 451.05C676.171 450.542 676.448 450.051 676.917 449.665C678.7 448.194 681.216 448.833 683.306 449.243C683.605 449.301 683.897 449.359 684.181 449.41C687.431 450.004 690.674 450.712 693.904 451.442L697.792 452.328C699.275 452.666 700.759 453.006 702.241 453.346C719.088 457.207 735.906 461.058 753.122 462.751L754.936 462.921C758.005 463.195 760.736 464.498 762.535 466.573C764.192 468.484 765.039 471.048 764.636 474.022C764.243 476.931 762.606 479.354 760.353 480.854C758.112 482.347 755.26 482.927 752.414 482.163C747.07 480.73 741.738 479.222 736.431 477.622L737.673 480.571C738.74 483.14 739.725 485.803 739.841 488.52C739.95 491.073 739.201 493.545 737.904 495.66C736.524 497.91 734.523 499.761 732.25 500.874ZM852.352 439.43C851.034 441.229 849.519 442.765 848.01 444.305C844.75 447.63 841.491 450.956 838 454.049C836.735 455.171 835.455 456.277 834.176 457.383C833.701 457.793 833.226 458.204 832.752 458.615L832.005 459.263L832.644 460.017C832.815 460.219 832.977 460.428 833.112 460.65C835.03 463.789 836.095 467.197 837.173 470.615C837.912 472.956 838.654 475.303 839.651 477.583L839.972 478.297C841.269 481.088 841.618 484 840.929 486.629C840.28 489.104 838.705 491.314 836.179 492.923C835.544 493.328 834.46 493.798 833.726 493.961C830.831 494.603 827.9 494.156 825.504 492.796C823.214 491.495 821.418 489.358 820.622 486.555C819.446 482.415 818.691 478.208 818.731 474.107C818.737 473.413 818.767 472.716 818.818 472.017C818.36 472.481 817.835 472.89 817.239 473.227C815.384 474.275 813.287 474.378 811.316 473.843C809.085 473.238 807.008 471.821 805.569 469.968C804.302 468.337 803.527 466.361 803.627 464.296C803.714 462.493 804.475 460.637 806.102 458.888L807.637 457.325C808.779 456.166 810.351 455.275 812.027 454.824C813.564 454.411 815.194 454.366 816.656 454.865C818.628 454.326 819.906 453.69 821.093 453.098C821.939 452.677 822.736 452.279 823.447 451.97C826.91 450.463 830.359 448.928 833.798 447.366C836.779 446.01 839.807 444.758 842.836 443.506C846.026 442.187 849.216 440.868 852.352 439.43Z" fill="#262626"/>
<path fill-rule="evenodd" clip-rule="evenodd" d="M881.311 516.458C869.17 529.003 848.902 532.603 832.749 525.875C791.273 508.546 811.574 454.496 843.561 439.981C847.557 438.985 852.894 436.622 857.761 436.086C858.201 435.87 859.159 436.495 860.32 435.904C895.591 439.842 903.623 494.594 881.311 516.458M747.533 519.669C733.916 537.73 708.6 543.302 687.916 534.906C647.054 518.814 661.547 470.885 689.504 452.095C748.561 429.904 772.948 486.368 747.533 519.669M658.953 479.651C658.915 479.633 658.877 479.624 658.838 479.606C659.054 479.511 659.27 479.416 659.485 479.319C659.415 479.502 659.339 479.683 659.271 479.866C659.165 479.793 659.072 479.708 658.953 479.651M909.423 460.128C906.089 460.135 901.273 460.683 898.513 462.996C891.707 440.043 866.585 418.8 844.737 434.29C827.532 439.823 814.765 452.094 807.509 468.408C794.426 460.626 773.854 463.949 762.509 474.24C755.079 449.689 736.793 441.092 715.028 439.823C691.272 435.932 667.594 459.003 660.206 477.511C654.063 476.812 644.884 474.857 639.105 478.648C601.598 468.812 536.023 463.389 528.398 468.854C522.964 470.939 519.982 483.765 527.572 484.457C534.186 483.518 526.8 475.059 533.467 474.136C568.99 471.934 603.475 479.088 638.622 482.09C641.76 486.311 651.899 487.723 657.308 486.027C648.789 517.423 667.179 538.783 694.734 545.181C737.401 554.982 774.522 516.814 763.365 477.114C776.29 470.684 791.157 470.96 805.237 474.347C781.709 560.937 921.166 557.052 899.385 465.963C913.88 473.173 917.028 461.583 909.423 460.128" fill="black"/>
<path d="M1012.08 147.18V189H1006.62V147.18H1012.08ZM1028.05 160.62V180C1028.05 181.6 1028.39 182.74 1029.07 183.42C1029.75 184.06 1030.93 184.38 1032.61 184.38H1036.63V189H1031.71C1028.67 189 1026.39 188.3 1024.87 186.9C1023.35 185.5 1022.59 183.2 1022.59 180V160.62H1018.33V156.12H1022.59V147.84H1028.05V156.12H1036.63V160.62H1028.05ZM1046 141.24L1045.28 153.18H1041.5L1040.72 141.24H1046ZM1064.43 189.54C1061.91 189.54 1059.65 189.12 1057.65 188.28C1055.65 187.4 1054.07 186.2 1052.91 184.68C1051.75 183.12 1051.11 181.34 1050.99 179.34H1056.63C1056.79 180.98 1057.55 182.32 1058.91 183.36C1060.31 184.4 1062.13 184.92 1064.37 184.92C1066.45 184.92 1068.09 184.46 1069.29 183.54C1070.49 182.62 1071.09 181.46 1071.09 180.06C1071.09 178.62 1070.45 177.56 1069.17 176.88C1067.89 176.16 1065.91 175.46 1063.23 174.78C1060.79 174.14 1058.79 173.5 1057.23 172.86C1055.71 172.18 1054.39 171.2 1053.27 169.92C1052.19 168.6 1051.65 166.88 1051.65 164.76C1051.65 163.08 1052.15 161.54 1053.15 160.14C1054.15 158.74 1055.57 157.64 1057.41 156.84C1059.25 156 1061.35 155.58 1063.71 155.58C1067.35 155.58 1070.29 156.5 1072.53 158.34C1074.77 160.18 1075.97 162.7 1076.13 165.9H1070.67C1070.55 164.18 1069.85 162.8 1068.57 161.76C1067.33 160.72 1065.65 160.2 1063.53 160.2C1061.57 160.2 1060.01 160.62 1058.85 161.46C1057.69 162.3 1057.11 163.4 1057.11 164.76C1057.11 165.84 1057.45 166.74 1058.13 167.46C1058.85 168.14 1059.73 168.7 1060.77 169.14C1061.85 169.54 1063.33 170 1065.21 170.52C1067.57 171.16 1069.49 171.8 1070.97 172.44C1072.45 173.04 1073.71 173.96 1074.75 175.2C1075.83 176.44 1076.39 178.06 1076.43 180.06C1076.43 181.86 1075.93 183.48 1074.93 184.92C1073.93 186.36 1072.51 187.5 1070.67 188.34C1068.87 189.14 1066.79 189.54 1064.43 189.54ZM1105.6 161.46C1106.56 159.58 1107.92 158.12 1109.68 157.08C1111.48 156.04 1113.66 155.52 1116.22 155.52V161.16H1114.78C1108.66 161.16 1105.6 164.48 1105.6 171.12V189H1100.14V156.12H1105.6V161.46ZM1152.52 171.3C1152.52 172.34 1152.46 173.44 1152.34 174.6H1126.06C1126.26 177.84 1127.36 180.38 1129.36 182.22C1131.4 184.02 1133.86 184.92 1136.74 184.92C1139.1 184.92 1141.06 184.38 1142.62 183.3C1144.22 182.18 1145.34 180.7 1145.98 178.86H1151.86C1150.98 182.02 1149.22 184.6 1146.58 186.6C1143.94 188.56 1140.66 189.54 1136.74 189.54C1133.62 189.54 1130.82 188.84 1128.34 187.44C1125.9 186.04 1123.98 184.06 1122.58 181.5C1121.18 178.9 1120.48 175.9 1120.48 172.5C1120.48 169.1 1121.16 166.12 1122.52 163.56C1123.88 161 1125.78 159.04 1128.22 157.68C1130.7 156.28 1133.54 155.58 1136.74 155.58C1139.86 155.58 1142.62 156.26 1145.02 157.62C1147.42 158.98 1149.26 160.86 1150.54 163.26C1151.86 165.62 1152.52 168.3 1152.52 171.3ZM1146.88 170.16C1146.88 168.08 1146.42 166.3 1145.5 164.82C1144.58 163.3 1143.32 162.16 1141.72 161.4C1140.16 160.6 1138.42 160.2 1136.5 160.2C1133.74 160.2 1131.38 161.08 1129.42 162.84C1127.5 164.6 1126.4 167.04 1126.12 170.16H1146.88ZM1157.69 172.44C1157.69 169.08 1158.37 166.14 1159.73 163.62C1161.09 161.06 1162.95 159.08 1165.31 157.68C1167.71 156.28 1170.37 155.58 1173.29 155.58C1176.17 155.58 1178.67 156.2 1180.79 157.44C1182.91 158.68 1184.49 160.24 1185.53 162.12V156.12H1191.05V189H1185.53V182.88C1184.45 184.8 1182.83 186.4 1180.67 187.68C1178.55 188.92 1176.07 189.54 1173.23 189.54C1170.31 189.54 1167.67 188.82 1165.31 187.38C1162.95 185.94 1161.09 183.92 1159.73 181.32C1158.37 178.72 1157.69 175.76 1157.69 172.44ZM1185.53 172.5C1185.53 170.02 1185.03 167.86 1184.03 166.02C1183.03 164.18 1181.67 162.78 1179.95 161.82C1178.27 160.82 1176.41 160.32 1174.37 160.32C1172.33 160.32 1170.47 160.8 1168.79 161.76C1167.11 162.72 1165.77 164.12 1164.77 165.96C1163.77 167.8 1163.27 169.96 1163.27 172.44C1163.27 174.96 1163.77 177.16 1164.77 179.04C1165.77 180.88 1167.11 182.3 1168.79 183.3C1170.47 184.26 1172.33 184.74 1174.37 184.74C1176.41 184.74 1178.27 184.26 1179.95 183.3C1181.67 182.3 1183.03 180.88 1184.03 179.04C1185.03 177.16 1185.53 174.98 1185.53 172.5ZM1205.73 144.6V189H1200.27V144.6H1205.73ZM1220.5 144.6V189H1215.04V144.6H1220.5ZM1258.12 156.12L1238.32 204.48H1232.68L1239.16 188.64L1225.9 156.12H1231.96L1242.28 182.76L1252.48 156.12H1258.12ZM1277.57 172.44C1277.57 169.08 1278.25 166.14 1279.61 163.62C1280.97 161.06 1282.83 159.08 1285.19 157.68C1287.59 156.28 1290.25 155.58 1293.17 155.58C1296.05 155.58 1298.55 156.2 1300.67 157.44C1302.79 158.68 1304.37 160.24 1305.41 162.12V156.12H1310.93V189H1305.41V182.88C1304.33 184.8 1302.71 186.4 1300.55 187.68C1298.43 188.92 1295.95 189.54 1293.11 189.54C1290.19 189.54 1287.55 188.82 1285.19 187.38C1282.83 185.94 1280.97 183.92 1279.61 181.32C1278.25 178.72 1277.57 175.76 1277.57 172.44ZM1305.41 172.5C1305.41 170.02 1304.91 167.86 1303.91 166.02C1302.91 164.18 1301.55 162.78 1299.83 161.82C1298.15 160.82 1296.29 160.32 1294.25 160.32C1292.21 160.32 1290.35 160.8 1288.67 161.76C1286.99 162.72 1285.65 164.12 1284.65 165.96C1283.65 167.8 1283.15 169.96 1283.15 172.44C1283.15 174.96 1283.65 177.16 1284.65 179.04C1285.65 180.88 1286.99 182.3 1288.67 183.3C1290.35 184.26 1292.21 184.74 1294.25 184.74C1296.29 184.74 1298.15 184.26 1299.83 183.3C1301.55 182.3 1302.91 180.88 1303.91 179.04C1304.91 177.16 1305.41 174.98 1305.41 172.5ZM1336.18 155.52C1340.18 155.52 1343.42 156.74 1345.9 159.18C1348.38 161.58 1349.62 165.06 1349.62 169.62V189H1344.22V170.4C1344.22 167.12 1343.4 164.62 1341.76 162.9C1340.12 161.14 1337.88 160.26 1335.04 160.26C1332.16 160.26 1329.86 161.16 1328.14 162.96C1326.46 164.76 1325.62 167.38 1325.62 170.82V189H1320.16V156.12H1325.62V160.8C1326.7 159.12 1328.16 157.82 1330 156.9C1331.88 155.98 1333.94 155.52 1336.18 155.52ZM1374.55 155.52C1378.55 155.52 1381.79 156.74 1384.27 159.18C1386.75 161.58 1387.99 165.06 1387.99 169.62V189H1382.59V170.4C1382.59 167.12 1381.77 164.62 1380.13 162.9C1378.49 161.14 1376.25 160.26 1373.41 160.26C1370.53 160.26 1368.23 161.16 1366.51 162.96C1364.83 164.76 1363.99 167.38 1363.99 170.82V189H1358.53V156.12H1363.99V160.8C1365.07 159.12 1366.53 157.82 1368.37 156.9C1370.25 155.98 1372.31 155.52 1374.55 155.52ZM1411.25 189.54C1408.17 189.54 1405.37 188.84 1402.85 187.44C1400.37 186.04 1398.41 184.06 1396.97 181.5C1395.57 178.9 1394.87 175.9 1394.87 172.5C1394.87 169.14 1395.59 166.18 1397.03 163.62C1398.51 161.02 1400.51 159.04 1403.03 157.68C1405.55 156.28 1408.37 155.58 1411.49 155.58C1414.61 155.58 1417.43 156.28 1419.95 157.68C1422.47 159.04 1424.45 161 1425.89 163.56C1427.37 166.12 1428.11 169.1 1428.11 172.5C1428.11 175.9 1427.35 178.9 1425.83 181.5C1424.35 184.06 1422.33 186.04 1419.77 187.44C1417.21 188.84 1414.37 189.54 1411.25 189.54ZM1411.25 184.74C1413.21 184.74 1415.05 184.28 1416.77 183.36C1418.49 182.44 1419.87 181.06 1420.91 179.22C1421.99 177.38 1422.53 175.14 1422.53 172.5C1422.53 169.86 1422.01 167.62 1420.97 165.78C1419.93 163.94 1418.57 162.58 1416.89 161.7C1415.21 160.78 1413.39 160.32 1411.43 160.32C1409.43 160.32 1407.59 160.78 1405.91 161.7C1404.27 162.58 1402.95 163.94 1401.95 165.78C1400.95 167.62 1400.45 169.86 1400.45 172.5C1400.45 175.18 1400.93 177.44 1401.89 179.28C1402.89 181.12 1404.21 182.5 1405.85 183.42C1407.49 184.3 1409.29 184.74 1411.25 184.74ZM1463.61 156.12L1443.81 204.48H1438.17L1444.65 188.64L1431.39 156.12H1437.45L1447.77 182.76L1457.97 156.12H1463.61ZM1471.92 150.78C1470.88 150.78 1470 150.42 1469.28 149.7C1468.56 148.98 1468.2 148.1 1468.2 147.06C1468.2 146.02 1468.56 145.14 1469.28 144.42C1470 143.7 1470.88 143.34 1471.92 143.34C1472.92 143.34 1473.76 143.7 1474.44 144.42C1475.16 145.14 1475.52 146.02 1475.52 147.06C1475.52 148.1 1475.16 148.98 1474.44 149.7C1473.76 150.42 1472.92 150.78 1471.92 150.78ZM1474.56 156.12V189H1469.1V156.12H1474.56ZM1499.89 155.52C1503.89 155.52 1507.13 156.74 1509.61 159.18C1512.09 161.58 1513.33 165.06 1513.33 169.62V189H1507.93V170.4C1507.93 167.12 1507.11 164.62 1505.47 162.9C1503.83 161.14 1501.59 160.26 1498.75 160.26C1495.87 160.26 1493.57 161.16 1491.85 162.96C1490.17 164.76 1489.33 167.38 1489.33 170.82V189H1483.87V156.12H1489.33V160.8C1490.41 159.12 1491.87 157.82 1493.71 156.9C1495.59 155.98 1497.65 155.52 1499.89 155.52ZM1535.81 155.58C1538.65 155.58 1541.13 156.2 1543.25 157.44C1545.41 158.68 1547.01 160.24 1548.05 162.12V156.12H1553.57V189.72C1553.57 192.72 1552.93 195.38 1551.65 197.7C1550.37 200.06 1548.53 201.9 1546.13 203.22C1543.77 204.54 1541.01 205.2 1537.85 205.2C1533.53 205.2 1529.93 204.18 1527.05 202.14C1524.17 200.1 1522.47 197.32 1521.95 193.8H1527.35C1527.95 195.8 1529.19 197.4 1531.07 198.6C1532.95 199.84 1535.21 200.46 1537.85 200.46C1540.85 200.46 1543.29 199.52 1545.17 197.64C1547.09 195.76 1548.05 193.12 1548.05 189.72V182.82C1546.97 184.74 1545.37 186.34 1543.25 187.62C1541.13 188.9 1538.65 189.54 1535.81 189.54C1532.89 189.54 1530.23 188.82 1527.83 187.38C1525.47 185.94 1523.61 183.92 1522.25 181.32C1520.89 178.72 1520.21 175.76 1520.21 172.44C1520.21 169.08 1520.89 166.14 1522.25 163.62C1523.61 161.06 1525.47 159.08 1527.83 157.68C1530.23 156.28 1532.89 155.58 1535.81 155.58ZM1548.05 172.5C1548.05 170.02 1547.55 167.86 1546.55 166.02C1545.55 164.18 1544.19 162.78 1542.47 161.82C1540.79 160.82 1538.93 160.32 1536.89 160.32C1534.85 160.32 1532.99 160.8 1531.31 161.76C1529.63 162.72 1528.29 164.12 1527.29 165.96C1526.29 167.8 1525.79 169.96 1525.79 172.44C1525.79 174.96 1526.29 177.16 1527.29 179.04C1528.29 180.88 1529.63 182.3 1531.31 183.3C1532.99 184.26 1534.85 184.74 1536.89 184.74C1538.93 184.74 1540.79 184.26 1542.47 183.3C1544.19 182.3 1545.55 180.88 1546.55 179.04C1547.55 177.16 1548.05 174.98 1548.05 172.5ZM1622.59 156.12L1612.33 189H1606.69L1598.77 162.9L1590.85 189H1585.21L1574.89 156.12H1580.47L1588.03 183.72L1596.19 156.12H1601.77L1609.75 183.78L1617.19 156.12H1622.59ZM1644.33 155.52C1646.81 155.52 1649.05 156.06 1651.05 157.14C1653.05 158.18 1654.61 159.76 1655.73 161.88C1656.89 164 1657.47 166.58 1657.47 169.62V189H1652.07V170.4C1652.07 167.12 1651.25 164.62 1649.61 162.9C1647.97 161.14 1645.73 160.26 1642.89 160.26C1640.01 160.26 1637.71 161.16 1635.99 162.96C1634.31 164.76 1633.47 167.38 1633.47 170.82V189H1628.01V144.6H1633.47V160.8C1634.55 159.12 1636.03 157.82 1637.91 156.9C1639.83 155.98 1641.97 155.52 1644.33 155.52ZM1696.39 171.3C1696.39 172.34 1696.33 173.44 1696.21 174.6H1669.93C1670.13 177.84 1671.23 180.38 1673.23 182.22C1675.27 184.02 1677.73 184.92 1680.61 184.92C1682.97 184.92 1684.93 184.38 1686.49 183.3C1688.09 182.18 1689.21 180.7 1689.85 178.86H1695.73C1694.85 182.02 1693.09 184.6 1690.45 186.6C1687.81 188.56 1684.53 189.54 1680.61 189.54C1677.49 189.54 1674.69 188.84 1672.21 187.44C1669.77 186.04 1667.85 184.06 1666.45 181.5C1665.05 178.9 1664.35 175.9 1664.35 172.5C1664.35 169.1 1665.03 166.12 1666.39 163.56C1667.75 161 1669.65 159.04 1672.09 157.68C1674.57 156.28 1677.41 155.58 1680.61 155.58C1683.73 155.58 1686.49 156.26 1688.89 157.62C1691.29 158.98 1693.13 160.86 1694.41 163.26C1695.73 165.62 1696.39 168.3 1696.39 171.3ZM1690.75 170.16C1690.75 168.08 1690.29 166.3 1689.37 164.82C1688.45 163.3 1687.19 162.16 1685.59 161.4C1684.03 160.6 1682.29 160.2 1680.37 160.2C1677.61 160.2 1675.25 161.08 1673.29 162.84C1671.37 164.6 1670.27 167.04 1669.99 170.16H1690.75ZM1719.61 155.52C1723.61 155.52 1726.85 156.74 1729.33 159.18C1731.81 161.58 1733.05 165.06 1733.05 169.62V189H1727.65V170.4C1727.65 167.12 1726.83 164.62 1725.19 162.9C1723.55 161.14 1721.31 160.26 1718.47 160.26C1715.59 160.26 1713.29 161.16 1711.57 162.96C1709.89 164.76 1709.05 167.38 1709.05 170.82V189H1703.59V156.12H1709.05V160.8C1710.13 159.12 1711.59 157.82 1713.43 156.9C1715.31 155.98 1717.37 155.52 1719.61 155.52ZM1764.63 160.62V180C1764.63 181.6 1764.97 182.74 1765.65 183.42C1766.33 184.06 1767.51 184.38 1769.19 184.38H1773.21V189H1768.29C1765.25 189 1762.97 188.3 1761.45 186.9C1759.93 185.5 1759.17 183.2 1759.17 180V160.62H1754.91V156.12H1759.17V147.84H1764.63V156.12H1773.21V160.62H1764.63ZM1796.14 155.52C1798.62 155.52 1800.86 156.06 1802.86 157.14C1804.86 158.18 1806.42 159.76 1807.54 161.88C1808.7 164 1809.28 166.58 1809.28 169.62V189H1803.88V170.4C1803.88 167.12 1803.06 164.62 1801.42 162.9C1799.78 161.14 1797.54 160.26 1794.7 160.26C1791.82 160.26 1789.52 161.16 1787.8 162.96C1786.12 164.76 1785.28 167.38 1785.28 170.82V189H1779.82V144.6H1785.28V160.8C1786.36 159.12 1787.84 157.82 1789.72 156.9C1791.64 155.98 1793.78 155.52 1796.14 155.52ZM1848.2 171.3C1848.2 172.34 1848.14 173.44 1848.02 174.6H1821.74C1821.94 177.84 1823.04 180.38 1825.04 182.22C1827.08 184.02 1829.54 184.92 1832.42 184.92C1834.78 184.92 1836.74 184.38 1838.3 183.3C1839.9 182.18 1841.02 180.7 1841.66 178.86H1847.54C1846.66 182.02 1844.9 184.6 1842.26 186.6C1839.62 188.56 1836.34 189.54 1832.42 189.54C1829.3 189.54 1826.5 188.84 1824.02 187.44C1821.58 186.04 1819.66 184.06 1818.26 181.5C1816.86 178.9 1816.16 175.9 1816.16 172.5C1816.16 169.1 1816.84 166.12 1818.2 163.56C1819.56 161 1821.46 159.04 1823.9 157.68C1826.38 156.28 1829.22 155.58 1832.42 155.58C1835.54 155.58 1838.3 156.26 1840.7 157.62C1843.1 158.98 1844.94 160.86 1846.22 163.26C1847.54 165.62 1848.2 168.3 1848.2 171.3ZM1842.56 170.16C1842.56 168.08 1842.1 166.3 1841.18 164.82C1840.26 163.3 1839 162.16 1837.4 161.4C1835.84 160.6 1834.1 160.2 1832.18 160.2C1829.42 160.2 1827.06 161.08 1825.1 162.84C1823.18 164.6 1822.08 167.04 1821.8 170.16H1842.56ZM1860.87 161.46C1861.83 159.58 1863.19 158.12 1864.95 157.08C1866.75 156.04 1868.93 155.52 1871.49 155.52V161.16H1870.05C1863.93 161.16 1860.87 164.48 1860.87 171.12V189H1855.41V156.12H1860.87V161.46ZM1907.79 171.3C1907.79 172.34 1907.73 173.44 1907.61 174.6H1881.33C1881.53 177.84 1882.63 180.38 1884.63 182.22C1886.67 184.02 1889.13 184.92 1892.01 184.92C1894.37 184.92 1896.33 184.38 1897.89 183.3C1899.49 182.18 1900.61 180.7 1901.25 178.86H1907.13C1906.25 182.02 1904.49 184.6 1901.85 186.6C1899.21 188.56 1895.93 189.54 1892.01 189.54C1888.89 189.54 1886.09 188.84 1883.61 187.44C1881.17 186.04 1879.25 184.06 1877.85 181.5C1876.45 178.9 1875.75 175.9 1875.75 172.5C1875.75 169.1 1876.43 166.12 1877.79 163.56C1879.15 161 1881.05 159.04 1883.49 157.68C1885.97 156.28 1888.81 155.58 1892.01 155.58C1895.13 155.58 1897.89 156.26 1900.29 157.62C1902.69 158.98 1904.53 160.86 1905.81 163.26C1907.13 165.62 1907.79 168.3 1907.79 171.3ZM1902.15 170.16C1902.15 168.08 1901.69 166.3 1900.77 164.82C1899.85 163.3 1898.59 162.16 1896.99 161.4C1895.43 160.6 1893.69 160.2 1891.77 160.2C1889.01 160.2 1886.65 161.08 1884.69 162.84C1882.77 164.6 1881.67 167.04 1881.39 170.16H1902.15ZM1928.96 172.44C1928.96 169.08 1929.64 166.14 1931 163.62C1932.36 161.06 1934.22 159.08 1936.58 157.68C1938.98 156.28 1941.64 155.58 1944.56 155.58C1947.44 155.58 1949.94 156.2 1952.06 157.44C1954.18 158.68 1955.76 160.24 1956.8 162.12V156.12H1962.32V189H1956.8V182.88C1955.72 184.8 1954.1 186.4 1951.94 187.68C1949.82 188.92 1947.34 189.54 1944.5 189.54C1941.58 189.54 1938.94 188.82 1936.58 187.38C1934.22 185.94 1932.36 183.92 1931 181.32C1929.64 178.72 1928.96 175.76 1928.96 172.44ZM1956.8 172.5C1956.8 170.02 1956.3 167.86 1955.3 166.02C1954.3 164.18 1952.94 162.78 1951.22 161.82C1949.54 160.82 1947.68 160.32 1945.64 160.32C1943.6 160.32 1941.74 160.8 1940.06 161.76C1938.38 162.72 1937.04 164.12 1936.04 165.96C1935.04 167.8 1934.54 169.96 1934.54 172.44C1934.54 174.96 1935.04 177.16 1936.04 179.04C1937.04 180.88 1938.38 182.3 1940.06 183.3C1941.74 184.26 1943.6 184.74 1945.64 184.74C1947.68 184.74 1949.54 184.26 1951.22 183.3C1952.94 182.3 1954.3 180.88 1955.3 179.04C1956.3 177.16 1956.8 174.98 1956.8 172.5ZM1977 161.46C1977.96 159.58 1979.32 158.12 1981.08 157.08C1982.88 156.04 1985.06 155.52 1987.62 155.52V161.16H1986.18C1980.06 161.16 1977 164.48 1977 171.12V189H1971.54V156.12H1977V161.46ZM2023.92 171.3C2023.92 172.34 2023.86 173.44 2023.74 174.6H1997.46C1997.66 177.84 1998.76 180.38 2000.76 182.22C2002.8 184.02 2005.26 184.92 2008.14 184.92C2010.5 184.92 2012.46 184.38 2014.02 183.3C2015.62 182.18 2016.74 180.7 2017.38 178.86H2023.26C2022.38 182.02 2020.62 184.6 2017.98 186.6C2015.34 188.56 2012.06 189.54 2008.14 189.54C2005.02 189.54 2002.22 188.84 1999.74 187.44C1997.3 186.04 1995.38 184.06 1993.98 181.5C1992.58 178.9 1991.88 175.9 1991.88 172.5C1991.88 169.1 1992.56 166.12 1993.92 163.56C1995.28 161 1997.18 159.04 1999.62 157.68C2002.1 156.28 2004.94 155.58 2008.14 155.58C2011.26 155.58 2014.02 156.26 2016.42 157.62C2018.82 158.98 2020.66 160.86 2021.94 163.26C2023.26 165.62 2023.92 168.3 2023.92 171.3ZM2018.28 170.16C2018.28 168.08 2017.82 166.3 2016.9 164.82C2015.98 163.3 2014.72 162.16 2013.12 161.4C2011.56 160.6 2009.82 160.2 2007.9 160.2C2005.14 160.2 2002.78 161.08 2000.82 162.84C1998.9 164.6 1997.8 167.04 1997.52 170.16H2018.28ZM1012.08 252.18C1013.16 250.3 1014.76 248.74 1016.88 247.5C1019.04 246.22 1021.54 245.58 1024.38 245.58C1027.3 245.58 1029.94 246.28 1032.3 247.68C1034.7 249.08 1036.58 251.06 1037.94 253.62C1039.3 256.14 1039.98 259.08 1039.98 262.44C1039.98 265.76 1039.3 268.72 1037.94 271.32C1036.58 273.92 1034.7 275.94 1032.3 277.38C1029.94 278.82 1027.3 279.54 1024.38 279.54C1021.58 279.54 1019.1 278.92 1016.94 277.68C1014.82 276.4 1013.2 274.82 1012.08 272.94V294.6H1006.62V246.12H1012.08V252.18ZM1034.4 262.44C1034.4 259.96 1033.9 257.8 1032.9 255.96C1031.9 254.12 1030.54 252.72 1028.82 251.76C1027.14 250.8 1025.28 250.32 1023.24 250.32C1021.24 250.32 1019.38 250.82 1017.66 251.82C1015.98 252.78 1014.62 254.2 1013.58 256.08C1012.58 257.92 1012.08 260.06 1012.08 262.5C1012.08 264.98 1012.58 267.16 1013.58 269.04C1014.62 270.88 1015.98 272.3 1017.66 273.3C1019.38 274.26 1021.24 274.74 1023.24 274.74C1025.28 274.74 1027.14 274.26 1028.82 273.3C1030.54 272.3 1031.9 270.88 1032.9 269.04C1033.9 267.16 1034.4 264.96 1034.4 262.44ZM1077.17 261.3C1077.17 262.34 1077.11 263.44 1076.99 264.6H1050.71C1050.91 267.84 1052.01 270.38 1054.01 272.22C1056.05 274.02 1058.51 274.92 1061.39 274.92C1063.75 274.92 1065.71 274.38 1067.27 273.3C1068.87 272.18 1069.99 270.7 1070.63 268.86H1076.51C1075.63 272.02 1073.87 274.6 1071.23 276.6C1068.59 278.56 1065.31 279.54 1061.39 279.54C1058.27 279.54 1055.47 278.84 1052.99 277.44C1050.55 276.04 1048.63 274.06 1047.23 271.5C1045.83 268.9 1045.13 265.9 1045.13 262.5C1045.13 259.1 1045.81 256.12 1047.17 253.56C1048.53 251 1050.43 249.04 1052.87 247.68C1055.35 246.28 1058.19 245.58 1061.39 245.58C1064.51 245.58 1067.27 246.26 1069.67 247.62C1072.07 248.98 1073.91 250.86 1075.19 253.26C1076.51 255.62 1077.17 258.3 1077.17 261.3ZM1071.53 260.16C1071.53 258.08 1071.07 256.3 1070.15 254.82C1069.23 253.3 1067.97 252.16 1066.37 251.4C1064.81 250.6 1063.07 250.2 1061.15 250.2C1058.39 250.2 1056.03 251.08 1054.07 252.84C1052.15 254.6 1051.05 257.04 1050.77 260.16H1071.53ZM1098.71 279.54C1095.63 279.54 1092.83 278.84 1090.31 277.44C1087.83 276.04 1085.87 274.06 1084.43 271.5C1083.03 268.9 1082.33 265.9 1082.33 262.5C1082.33 259.14 1083.05 256.18 1084.49 253.62C1085.97 251.02 1087.97 249.04 1090.49 247.68C1093.01 246.28 1095.83 245.58 1098.95 245.58C1102.07 245.58 1104.89 246.28 1107.41 247.68C1109.93 249.04 1111.91 251 1113.35 253.56C1114.83 256.12 1115.57 259.1 1115.57 262.5C1115.57 265.9 1114.81 268.9 1113.29 271.5C1111.81 274.06 1109.79 276.04 1107.23 277.44C1104.67 278.84 1101.83 279.54 1098.71 279.54ZM1098.71 274.74C1100.67 274.74 1102.51 274.28 1104.23 273.36C1105.95 272.44 1107.33 271.06 1108.37 269.22C1109.45 267.38 1109.99 265.14 1109.99 262.5C1109.99 259.86 1109.47 257.62 1108.43 255.78C1107.39 253.94 1106.03 252.58 1104.35 251.7C1102.67 250.78 1100.85 250.32 1098.89 250.32C1096.89 250.32 1095.05 250.78 1093.37 251.7C1091.73 252.58 1090.41 253.94 1089.41 255.78C1088.41 257.62 1087.91 259.86 1087.91 262.5C1087.91 265.18 1088.39 267.44 1089.35 269.28C1090.35 271.12 1091.67 272.5 1093.31 273.42C1094.95 274.3 1096.75 274.74 1098.71 274.74ZM1128.21 252.18C1129.29 250.3 1130.89 248.74 1133.01 247.5C1135.17 246.22 1137.67 245.58 1140.51 245.58C1143.43 245.58 1146.07 246.28 1148.43 247.68C1150.83 249.08 1152.71 251.06 1154.07 253.62C1155.43 256.14 1156.11 259.08 1156.11 262.44C1156.11 265.76 1155.43 268.72 1154.07 271.32C1152.71 273.92 1150.83 275.94 1148.43 277.38C1146.07 278.82 1143.43 279.54 1140.51 279.54C1137.71 279.54 1135.23 278.92 1133.07 277.68C1130.95 276.4 1129.33 274.82 1128.21 272.94V294.6H1122.75V246.12H1128.21V252.18ZM1150.53 262.44C1150.53 259.96 1150.03 257.8 1149.03 255.96C1148.03 254.12 1146.67 252.72 1144.95 251.76C1143.27 250.8 1141.41 250.32 1139.37 250.32C1137.37 250.32 1135.51 250.82 1133.79 251.82C1132.11 252.78 1130.75 254.2 1129.71 256.08C1128.71 257.92 1128.21 260.06 1128.21 262.5C1128.21 264.98 1128.71 267.16 1129.71 269.04C1130.75 270.88 1132.11 272.3 1133.79 273.3C1135.51 274.26 1137.37 274.74 1139.37 274.74C1141.41 274.74 1143.27 274.26 1144.95 273.3C1146.67 272.3 1148.03 270.88 1149.03 269.04C1150.03 267.16 1150.53 264.96 1150.53 262.44ZM1168.76 234.6V279H1163.3V234.6H1168.76ZM1208.07 261.3C1208.07 262.34 1208.01 263.44 1207.89 264.6H1181.61C1181.81 267.84 1182.91 270.38 1184.91 272.22C1186.95 274.02 1189.41 274.92 1192.29 274.92C1194.65 274.92 1196.61 274.38 1198.17 273.3C1199.77 272.18 1200.89 270.7 1201.53 268.86H1207.41C1206.53 272.02 1204.77 274.6 1202.13 276.6C1199.49 278.56 1196.21 279.54 1192.29 279.54C1189.17 279.54 1186.37 278.84 1183.89 277.44C1181.45 276.04 1179.53 274.06 1178.13 271.5C1176.73 268.9 1176.03 265.9 1176.03 262.5C1176.03 259.1 1176.71 256.12 1178.07 253.56C1179.43 251 1181.33 249.04 1183.77 247.68C1186.25 246.28 1189.09 245.58 1192.29 245.58C1195.41 245.58 1198.17 246.26 1200.57 247.62C1202.97 248.98 1204.81 250.86 1206.09 253.26C1207.41 255.62 1208.07 258.3 1208.07 261.3ZM1202.43 260.16C1202.43 258.08 1201.97 256.3 1201.05 254.82C1200.13 253.3 1198.87 252.16 1197.27 251.4C1195.71 250.6 1193.97 250.2 1192.05 250.2C1189.29 250.2 1186.93 251.08 1184.97 252.84C1183.05 254.6 1181.95 257.04 1181.67 260.16H1202.43ZM1270.81 245.52C1273.37 245.52 1275.65 246.06 1277.65 247.14C1279.65 248.18 1281.23 249.76 1282.39 251.88C1283.55 254 1284.13 256.58 1284.13 259.62V279H1278.73V260.4C1278.73 257.12 1277.91 254.62 1276.27 252.9C1274.67 251.14 1272.49 250.26 1269.73 250.26C1266.89 250.26 1264.63 251.18 1262.95 253.02C1261.27 254.82 1260.43 257.44 1260.43 260.88V279H1255.03V260.4C1255.03 257.12 1254.21 254.62 1252.57 252.9C1250.97 251.14 1248.79 250.26 1246.03 250.26C1243.19 250.26 1240.93 251.18 1239.25 253.02C1237.57 254.82 1236.73 257.44 1236.73 260.88V279H1231.27V246.12H1236.73V250.86C1237.81 249.14 1239.25 247.82 1241.05 246.9C1242.89 245.98 1244.91 245.52 1247.11 245.52C1249.87 245.52 1252.31 246.14 1254.43 247.38C1256.55 248.62 1258.13 250.44 1259.17 252.84C1260.09 250.52 1261.61 248.72 1263.73 247.44C1265.85 246.16 1268.21 245.52 1270.81 245.52ZM1291.04 262.44C1291.04 259.08 1291.72 256.14 1293.08 253.62C1294.44 251.06 1296.3 249.08 1298.66 247.68C1301.06 246.28 1303.72 245.58 1306.64 245.58C1309.52 245.58 1312.02 246.2 1314.14 247.44C1316.26 248.68 1317.84 250.24 1318.88 252.12V246.12H1324.4V279H1318.88V272.88C1317.8 274.8 1316.18 276.4 1314.02 277.68C1311.9 278.92 1309.42 279.54 1306.58 279.54C1303.66 279.54 1301.02 278.82 1298.66 277.38C1296.3 275.94 1294.44 273.92 1293.08 271.32C1291.72 268.72 1291.04 265.76 1291.04 262.44ZM1318.88 262.5C1318.88 260.02 1318.38 257.86 1317.38 256.02C1316.38 254.18 1315.02 252.78 1313.3 251.82C1311.62 250.82 1309.76 250.32 1307.72 250.32C1305.68 250.32 1303.82 250.8 1302.14 251.76C1300.46 252.72 1299.12 254.12 1298.12 255.96C1297.12 257.8 1296.62 259.96 1296.62 262.44C1296.62 264.96 1297.12 267.16 1298.12 269.04C1299.12 270.88 1300.46 272.3 1302.14 273.3C1303.82 274.26 1305.68 274.74 1307.72 274.74C1309.76 274.74 1311.62 274.26 1313.3 273.3C1315.02 272.3 1316.38 270.88 1317.38 269.04C1318.38 267.16 1318.88 264.98 1318.88 262.5ZM1351.99 279L1339.09 264.48V279H1333.63V234.6H1339.09V260.7L1351.75 246.12H1359.37L1343.89 262.5L1359.43 279H1351.99ZM1367.33 240.78C1366.29 240.78 1365.41 240.42 1364.69 239.7C1363.97 238.98 1363.61 238.1 1363.61 237.06C1363.61 236.02 1363.97 235.14 1364.69 234.42C1365.41 233.7 1366.29 233.34 1367.33 233.34C1368.33 233.34 1369.17 233.7 1369.85 234.42C1370.57 235.14 1370.93 236.02 1370.93 237.06C1370.93 238.1 1370.57 238.98 1369.85 239.7C1369.17 240.42 1368.33 240.78 1367.33 240.78ZM1369.97 246.12V279H1364.51V246.12H1369.97ZM1395.3 245.52C1399.3 245.52 1402.54 246.74 1405.02 249.18C1407.5 251.58 1408.74 255.06 1408.74 259.62V279H1403.34V260.4C1403.34 257.12 1402.52 254.62 1400.88 252.9C1399.24 251.14 1397 250.26 1394.16 250.26C1391.28 250.26 1388.98 251.16 1387.26 252.96C1385.58 254.76 1384.74 257.38 1384.74 260.82V279H1379.28V246.12H1384.74V250.8C1385.82 249.12 1387.28 247.82 1389.12 246.9C1391 245.98 1393.06 245.52 1395.3 245.52ZM1431.22 245.58C1434.06 245.58 1436.54 246.2 1438.66 247.44C1440.82 248.68 1442.42 250.24 1443.46 252.12V246.12H1448.98V279.72C1448.98 282.72 1448.34 285.38 1447.06 287.7C1445.78 290.06 1443.94 291.9 1441.54 293.22C1439.18 294.54 1436.42 295.2 1433.26 295.2C1428.94 295.2 1425.34 294.18 1422.46 292.14C1419.58 290.1 1417.88 287.32 1417.36 283.8H1422.76C1423.36 285.8 1424.6 287.4 1426.48 288.6C1428.36 289.84 1430.62 290.46 1433.26 290.46C1436.26 290.46 1438.7 289.52 1440.58 287.64C1442.5 285.76 1443.46 283.12 1443.46 279.72V272.82C1442.38 274.74 1440.78 276.34 1438.66 277.62C1436.54 278.9 1434.06 279.54 1431.22 279.54C1428.3 279.54 1425.64 278.82 1423.24 277.38C1420.88 275.94 1419.02 273.92 1417.66 271.32C1416.3 268.72 1415.62 265.76 1415.62 262.44C1415.62 259.08 1416.3 256.14 1417.66 253.62C1419.02 251.06 1420.88 249.08 1423.24 247.68C1425.64 246.28 1428.3 245.58 1431.22 245.58ZM1443.46 262.5C1443.46 260.02 1442.96 257.86 1441.96 256.02C1440.96 254.18 1439.6 252.78 1437.88 251.82C1436.2 250.82 1434.34 250.32 1432.3 250.32C1430.26 250.32 1428.4 250.8 1426.72 251.76C1425.04 252.72 1423.7 254.12 1422.7 255.96C1421.7 257.8 1421.2 259.96 1421.2 262.44C1421.2 264.96 1421.7 267.16 1422.7 269.04C1423.7 270.88 1425.04 272.3 1426.72 273.3C1428.4 274.26 1430.26 274.74 1432.3 274.74C1434.34 274.74 1436.2 274.26 1437.88 273.3C1439.6 272.3 1440.96 270.88 1441.96 269.04C1442.96 267.16 1443.46 264.98 1443.46 262.5ZM1490.22 245.52C1494.22 245.52 1497.46 246.74 1499.94 249.18C1502.42 251.58 1503.66 255.06 1503.66 259.62V279H1498.26V260.4C1498.26 257.12 1497.44 254.62 1495.8 252.9C1494.16 251.14 1491.92 250.26 1489.08 250.26C1486.2 250.26 1483.9 251.16 1482.18 252.96C1480.5 254.76 1479.66 257.38 1479.66 260.82V279H1474.2V246.12H1479.66V250.8C1480.74 249.12 1482.2 247.82 1484.04 246.9C1485.92 245.98 1487.98 245.52 1490.22 245.52ZM1526.92 279.54C1523.84 279.54 1521.04 278.84 1518.52 277.44C1516.04 276.04 1514.08 274.06 1512.64 271.5C1511.24 268.9 1510.54 265.9 1510.54 262.5C1510.54 259.14 1511.26 256.18 1512.7 253.62C1514.18 251.02 1516.18 249.04 1518.7 247.68C1521.22 246.28 1524.04 245.58 1527.16 245.58C1530.28 245.58 1533.1 246.28 1535.62 247.68C1538.14 249.04 1540.12 251 1541.56 253.56C1543.04 256.12 1543.78 259.1 1543.78 262.5C1543.78 265.9 1543.02 268.9 1541.5 271.5C1540.02 274.06 1538 276.04 1535.44 277.44C1532.88 278.84 1530.04 279.54 1526.92 279.54ZM1526.92 274.74C1528.88 274.74 1530.72 274.28 1532.44 273.36C1534.16 272.44 1535.54 271.06 1536.58 269.22C1537.66 267.38 1538.2 265.14 1538.2 262.5C1538.2 259.86 1537.68 257.62 1536.64 255.78C1535.6 253.94 1534.24 252.58 1532.56 251.7C1530.88 250.78 1529.06 250.32 1527.1 250.32C1525.1 250.32 1523.26 250.78 1521.58 251.7C1519.94 252.58 1518.62 253.94 1517.62 255.78C1516.62 257.62 1516.12 259.86 1516.12 262.5C1516.12 265.18 1516.6 267.44 1517.56 269.28C1518.56 271.12 1519.88 272.5 1521.52 273.42C1523.16 274.3 1524.96 274.74 1526.92 274.74ZM1553.78 240.78C1552.74 240.78 1551.86 240.42 1551.14 239.7C1550.42 238.98 1550.06 238.1 1550.06 237.06C1550.06 236.02 1550.42 235.14 1551.14 234.42C1551.86 233.7 1552.74 233.34 1553.78 233.34C1554.78 233.34 1555.62 233.7 1556.3 234.42C1557.02 235.14 1557.38 236.02 1557.38 237.06C1557.38 238.1 1557.02 238.98 1556.3 239.7C1555.62 240.42 1554.78 240.78 1553.78 240.78ZM1556.42 246.12V279H1550.96V246.12H1556.42ZM1577.36 279.54C1574.84 279.54 1572.58 279.12 1570.58 278.28C1568.58 277.4 1567 276.2 1565.84 274.68C1564.68 273.12 1564.04 271.34 1563.92 269.34H1569.56C1569.72 270.98 1570.48 272.32 1571.84 273.36C1573.24 274.4 1575.06 274.92 1577.3 274.92C1579.38 274.92 1581.02 274.46 1582.22 273.54C1583.42 272.62 1584.02 271.46 1584.02 270.06C1584.02 268.62 1583.38 267.56 1582.1 266.88C1580.82 266.16 1578.84 265.46 1576.16 264.78C1573.72 264.14 1571.72 263.5 1570.16 262.86C1568.64 262.18 1567.32 261.2 1566.2 259.92C1565.12 258.6 1564.58 256.88 1564.58 254.76C1564.58 253.08 1565.08 251.54 1566.08 250.14C1567.08 248.74 1568.5 247.64 1570.34 246.84C1572.18 246 1574.28 245.58 1576.64 245.58C1580.28 245.58 1583.22 246.5 1585.46 248.34C1587.7 250.18 1588.9 252.7 1589.06 255.9H1583.6C1583.48 254.18 1582.78 252.8 1581.5 251.76C1580.26 250.72 1578.58 250.2 1576.46 250.2C1574.5 250.2 1572.94 250.62 1571.78 251.46C1570.62 252.3 1570.04 253.4 1570.04 254.76C1570.04 255.84 1570.38 256.74 1571.06 257.46C1571.78 258.14 1572.66 258.7 1573.7 259.14C1574.78 259.54 1576.26 260 1578.14 260.52C1580.5 261.16 1582.42 261.8 1583.9 262.44C1585.38 263.04 1586.64 263.96 1587.68 265.2C1588.76 266.44 1589.32 268.06 1589.36 270.06C1589.36 271.86 1588.86 273.48 1587.86 274.92C1586.86 276.36 1585.44 277.5 1583.6 278.34C1581.8 279.14 1579.72 279.54 1577.36 279.54ZM1627.07 261.3C1627.07 262.34 1627.01 263.44 1626.89 264.6H1600.61C1600.81 267.84 1601.91 270.38 1603.91 272.22C1605.95 274.02 1608.41 274.92 1611.29 274.92C1613.65 274.92 1615.61 274.38 1617.17 273.3C1618.77 272.18 1619.89 270.7 1620.53 268.86H1626.41C1625.53 272.02 1623.77 274.6 1621.13 276.6C1618.49 278.56 1615.21 279.54 1611.29 279.54C1608.17 279.54 1605.37 278.84 1602.89 277.44C1600.45 276.04 1598.53 274.06 1597.13 271.5C1595.73 268.9 1595.03 265.9 1595.03 262.5C1595.03 259.1 1595.71 256.12 1597.07 253.56C1598.43 251 1600.33 249.04 1602.77 247.68C1605.25 246.28 1608.09 245.58 1611.29 245.58C1614.41 245.58 1617.17 246.26 1619.57 247.62C1621.97 248.98 1623.81 250.86 1625.09 253.26C1626.41 255.62 1627.07 258.3 1627.07 261.3ZM1621.43 260.16C1621.43 258.08 1620.97 256.3 1620.05 254.82C1619.13 253.3 1617.87 252.16 1616.27 251.4C1614.71 250.6 1612.97 250.2 1611.05 250.2C1608.29 250.2 1605.93 251.08 1603.97 252.84C1602.05 254.6 1600.95 257.04 1600.67 260.16H1621.43ZM1653.09 240.78C1652.05 240.78 1651.17 240.42 1650.45 239.7C1649.73 238.98 1649.37 238.1 1649.37 237.06C1649.37 236.02 1649.73 235.14 1650.45 234.42C1651.17 233.7 1652.05 233.34 1653.09 233.34C1654.09 233.34 1654.93 233.7 1655.61 234.42C1656.33 235.14 1656.69 236.02 1656.69 237.06C1656.69 238.1 1656.33 238.98 1655.61 239.7C1654.93 240.42 1654.09 240.78 1653.09 240.78ZM1655.73 246.12V279H1650.27V246.12H1655.73ZM1681.06 245.52C1685.06 245.52 1688.3 246.74 1690.78 249.18C1693.26 251.58 1694.5 255.06 1694.5 259.62V279H1689.1V260.4C1689.1 257.12 1688.28 254.62 1686.64 252.9C1685 251.14 1682.76 250.26 1679.92 250.26C1677.04 250.26 1674.74 251.16 1673.02 252.96C1671.34 254.76 1670.5 257.38 1670.5 260.82V279H1665.04V246.12H1670.5V250.8C1671.58 249.12 1673.04 247.82 1674.88 246.9C1676.76 245.98 1678.82 245.52 1681.06 245.52ZM1726.07 250.62V270C1726.07 271.6 1726.41 272.74 1727.09 273.42C1727.77 274.06 1728.95 274.38 1730.63 274.38H1734.65V279H1729.73C1726.69 279 1724.41 278.3 1722.89 276.9C1721.37 275.5 1720.61 273.2 1720.61 270V250.62H1716.35V246.12H1720.61V237.84H1726.07V246.12H1734.65V250.62H1726.07ZM1757.59 245.52C1760.07 245.52 1762.31 246.06 1764.31 247.14C1766.31 248.18 1767.87 249.76 1768.99 251.88C1770.15 254 1770.73 256.58 1770.73 259.62V279H1765.33V260.4C1765.33 257.12 1764.51 254.62 1762.87 252.9C1761.23 251.14 1758.99 250.26 1756.15 250.26C1753.27 250.26 1750.97 251.16 1749.25 252.96C1747.57 254.76 1746.73 257.38 1746.73 260.82V279H1741.27V234.6H1746.73V250.8C1747.81 249.12 1749.29 247.82 1751.17 246.9C1753.09 245.98 1755.23 245.52 1757.59 245.52ZM1809.65 261.3C1809.65 262.34 1809.59 263.44 1809.47 264.6H1783.19C1783.39 267.84 1784.49 270.38 1786.49 272.22C1788.53 274.02 1790.99 274.92 1793.87 274.92C1796.23 274.92 1798.19 274.38 1799.75 273.3C1801.35 272.18 1802.47 270.7 1803.11 268.86H1808.99C1808.11 272.02 1806.35 274.6 1803.71 276.6C1801.07 278.56 1797.79 279.54 1793.87 279.54C1790.75 279.54 1787.95 278.84 1785.47 277.44C1783.03 276.04 1781.11 274.06 1779.71 271.5C1778.31 268.9 1777.61 265.9 1777.61 262.5C1777.61 259.1 1778.29 256.12 1779.65 253.56C1781.01 251 1782.91 249.04 1785.35 247.68C1787.83 246.28 1790.67 245.58 1793.87 245.58C1796.99 245.58 1799.75 246.26 1802.15 247.62C1804.55 248.98 1806.39 250.86 1807.67 253.26C1808.99 255.62 1809.65 258.3 1809.65 261.3ZM1804.01 260.16C1804.01 258.08 1803.55 256.3 1802.63 254.82C1801.71 253.3 1800.45 252.16 1798.85 251.4C1797.29 250.6 1795.55 250.2 1793.63 250.2C1790.87 250.2 1788.51 251.08 1786.55 252.84C1784.63 254.6 1783.53 257.04 1783.25 260.16H1804.01ZM1838.31 234.6V279H1832.85V234.6H1838.31ZM1850.44 240.78C1849.4 240.78 1848.52 240.42 1847.8 239.7C1847.08 238.98 1846.72 238.1 1846.72 237.06C1846.72 236.02 1847.08 235.14 1847.8 234.42C1848.52 233.7 1849.4 233.34 1850.44 233.34C1851.44 233.34 1852.28 233.7 1852.96 234.42C1853.68 235.14 1854.04 236.02 1854.04 237.06C1854.04 238.1 1853.68 238.98 1852.96 239.7C1852.28 240.42 1851.44 240.78 1850.44 240.78ZM1853.08 246.12V279H1847.62V246.12H1853.08ZM1867.84 252.24C1868.96 250.28 1870.6 248.68 1872.76 247.44C1874.92 246.2 1877.38 245.58 1880.14 245.58C1883.1 245.58 1885.76 246.28 1888.12 247.68C1890.48 249.08 1892.34 251.06 1893.7 253.62C1895.06 256.14 1895.74 259.08 1895.74 262.44C1895.74 265.76 1895.06 268.72 1893.7 271.32C1892.34 273.92 1890.46 275.94 1888.06 277.38C1885.7 278.82 1883.06 279.54 1880.14 279.54C1877.3 279.54 1874.8 278.92 1872.64 277.68C1870.52 276.44 1868.92 274.86 1867.84 272.94V279H1862.38V234.6H1867.84V252.24ZM1890.16 262.44C1890.16 259.96 1889.66 257.8 1888.66 255.96C1887.66 254.12 1886.3 252.72 1884.58 251.76C1882.9 250.8 1881.04 250.32 1879 250.32C1877 250.32 1875.14 250.82 1873.42 251.82C1871.74 252.78 1870.38 254.2 1869.34 256.08C1868.34 257.92 1867.84 260.06 1867.84 262.5C1867.84 264.98 1868.34 267.16 1869.34 269.04C1870.38 270.88 1871.74 272.3 1873.42 273.3C1875.14 274.26 1877 274.74 1879 274.74C1881.04 274.74 1882.9 274.26 1884.58 273.3C1886.3 272.3 1887.66 270.88 1888.66 269.04C1889.66 267.16 1890.16 264.96 1890.16 262.44ZM1908.39 251.46C1909.35 249.58 1910.71 248.12 1912.47 247.08C1914.27 246.04 1916.45 245.52 1919.01 245.52V251.16H1917.57C1911.45 251.16 1908.39 254.48 1908.39 261.12V279H1902.93V246.12H1908.39V251.46ZM1923.27 262.44C1923.27 259.08 1923.95 256.14 1925.31 253.62C1926.67 251.06 1928.53 249.08 1930.89 247.68C1933.29 246.28 1935.95 245.58 1938.87 245.58C1941.75 245.58 1944.25 246.2 1946.37 247.44C1948.49 248.68 1950.07 250.24 1951.11 252.12V246.12H1956.63V279H1951.11V272.88C1950.03 274.8 1948.41 276.4 1946.25 277.68C1944.13 278.92 1941.65 279.54 1938.81 279.54C1935.89 279.54 1933.25 278.82 1930.89 277.38C1928.53 275.94 1926.67 273.92 1925.31 271.32C1923.95 268.72 1923.27 265.76 1923.27 262.44ZM1951.11 262.5C1951.11 260.02 1950.61 257.86 1949.61 256.02C1948.61 254.18 1947.25 252.78 1945.53 251.82C1943.85 250.82 1941.99 250.32 1939.95 250.32C1937.91 250.32 1936.05 250.8 1934.37 251.76C1932.69 252.72 1931.35 254.12 1930.35 255.96C1929.35 257.8 1928.85 259.96 1928.85 262.44C1928.85 264.96 1929.35 267.16 1930.35 269.04C1931.35 270.88 1932.69 272.3 1934.37 273.3C1936.05 274.26 1937.91 274.74 1939.95 274.74C1941.99 274.74 1943.85 274.26 1945.53 273.3C1947.25 272.3 1948.61 270.88 1949.61 269.04C1950.61 267.16 1951.11 264.98 1951.11 262.5ZM1971.32 251.46C1972.28 249.58 1973.64 248.12 1975.4 247.08C1977.2 246.04 1979.38 245.52 1981.94 245.52V251.16H1980.5C1974.38 251.16 1971.32 254.48 1971.32 261.12V279H1965.86V246.12H1971.32V251.46ZM2016.56 246.12L1996.76 294.48H1991.12L1997.6 278.64L1984.34 246.12H1990.4L2000.72 272.76L2010.92 246.12H2016.56ZM1004.58 352.44C1004.58 349.08 1005.26 346.14 1006.62 343.62C1007.98 341.06 1009.84 339.08 1012.2 337.68C1014.6 336.28 1017.26 335.58 1020.18 335.58C1023.06 335.58 1025.56 336.2 1027.68 337.44C1029.8 338.68 1031.38 340.24 1032.42 342.12V336.12H1037.94V369H1032.42V362.88C1031.34 364.8 1029.72 366.4 1027.56 367.68C1025.44 368.92 1022.96 369.54 1020.12 369.54C1017.2 369.54 1014.56 368.82 1012.2 367.38C1009.84 365.94 1007.98 363.92 1006.62 361.32C1005.26 358.72 1004.58 355.76 1004.58 352.44ZM1032.42 352.5C1032.42 350.02 1031.92 347.86 1030.92 346.02C1029.92 344.18 1028.56 342.78 1026.84 341.82C1025.16 340.82 1023.3 340.32 1021.26 340.32C1019.22 340.32 1017.36 340.8 1015.68 341.76C1014 342.72 1012.66 344.12 1011.66 345.96C1010.66 347.8 1010.16 349.96 1010.16 352.44C1010.16 354.96 1010.66 357.16 1011.66 359.04C1012.66 360.88 1014 362.3 1015.68 363.3C1017.36 364.26 1019.22 364.74 1021.26 364.74C1023.3 364.74 1025.16 364.26 1026.84 363.3C1028.56 362.3 1029.92 360.88 1030.92 359.04C1031.92 357.16 1032.42 354.98 1032.42 352.5ZM1063.19 335.52C1067.19 335.52 1070.43 336.74 1072.91 339.18C1075.39 341.58 1076.63 345.06 1076.63 349.62V369H1071.23V350.4C1071.23 347.12 1070.41 344.62 1068.77 342.9C1067.13 341.14 1064.89 340.26 1062.05 340.26C1059.17 340.26 1056.87 341.16 1055.15 342.96C1053.47 344.76 1052.63 347.38 1052.63 350.82V369H1047.17V336.12H1052.63V340.8C1053.71 339.12 1055.17 337.82 1057.01 336.9C1058.89 335.98 1060.95 335.52 1063.19 335.52ZM1083.51 352.44C1083.51 349.08 1084.19 346.14 1085.55 343.62C1086.91 341.06 1088.77 339.08 1091.13 337.68C1093.53 336.28 1096.21 335.58 1099.17 335.58C1101.73 335.58 1104.11 336.18 1106.31 337.38C1108.51 338.54 1110.19 340.08 1111.35 342V324.6H1116.87V369H1111.35V362.82C1110.27 364.78 1108.67 366.4 1106.55 367.68C1104.43 368.92 1101.95 369.54 1099.11 369.54C1096.19 369.54 1093.53 368.82 1091.13 367.38C1088.77 365.94 1086.91 363.92 1085.55 361.32C1084.19 358.72 1083.51 355.76 1083.51 352.44ZM1111.35 352.5C1111.35 350.02 1110.85 347.86 1109.85 346.02C1108.85 344.18 1107.49 342.78 1105.77 341.82C1104.09 340.82 1102.23 340.32 1100.19 340.32C1098.15 340.32 1096.29 340.8 1094.61 341.76C1092.93 342.72 1091.59 344.12 1090.59 345.96C1089.59 347.8 1089.09 349.96 1089.09 352.44C1089.09 354.96 1089.59 357.16 1090.59 359.04C1091.59 360.88 1092.93 362.3 1094.61 363.3C1096.29 364.26 1098.15 364.74 1100.19 364.74C1102.23 364.74 1104.09 364.26 1105.77 363.3C1107.49 362.3 1108.85 360.88 1109.85 359.04C1110.85 357.16 1111.35 354.98 1111.35 352.5ZM1148.75 340.62V360C1148.75 361.6 1149.09 362.74 1149.77 363.42C1150.45 364.06 1151.63 364.38 1153.31 364.38H1157.33V369H1152.41C1149.37 369 1147.09 368.3 1145.57 366.9C1144.05 365.5 1143.29 363.2 1143.29 360V340.62H1139.03V336.12H1143.29V327.84H1148.75V336.12H1157.33V340.62H1148.75ZM1180.26 335.52C1182.74 335.52 1184.98 336.06 1186.98 337.14C1188.98 338.18 1190.54 339.76 1191.66 341.88C1192.82 344 1193.4 346.58 1193.4 349.62V369H1188V350.4C1188 347.12 1187.18 344.62 1185.54 342.9C1183.9 341.14 1181.66 340.26 1178.82 340.26C1175.94 340.26 1173.64 341.16 1171.92 342.96C1170.24 344.76 1169.4 347.38 1169.4 350.82V369H1163.94V324.6H1169.4V340.8C1170.48 339.12 1171.96 337.82 1173.84 336.9C1175.76 335.98 1177.9 335.52 1180.26 335.52ZM1232.32 351.3C1232.32 352.34 1232.26 353.44 1232.14 354.6H1205.86C1206.06 357.84 1207.16 360.38 1209.16 362.22C1211.2 364.02 1213.66 364.92 1216.54 364.92C1218.9 364.92 1220.86 364.38 1222.42 363.3C1224.02 362.18 1225.14 360.7 1225.78 358.86H1231.66C1230.78 362.02 1229.02 364.6 1226.38 366.6C1223.74 368.56 1220.46 369.54 1216.54 369.54C1213.42 369.54 1210.62 368.84 1208.14 367.44C1205.7 366.04 1203.78 364.06 1202.38 361.5C1200.98 358.9 1200.28 355.9 1200.28 352.5C1200.28 349.1 1200.96 346.12 1202.32 343.56C1203.68 341 1205.58 339.04 1208.02 337.68C1210.5 336.28 1213.34 335.58 1216.54 335.58C1219.66 335.58 1222.42 336.26 1224.82 337.62C1227.22 338.98 1229.06 340.86 1230.34 343.26C1231.66 345.62 1232.32 348.3 1232.32 351.3ZM1226.68 350.16C1226.68 348.08 1226.22 346.3 1225.3 344.82C1224.38 343.3 1223.12 342.16 1221.52 341.4C1219.96 340.6 1218.22 340.2 1216.3 340.2C1213.54 340.2 1211.18 341.08 1209.22 342.84C1207.3 344.6 1206.2 347.04 1205.92 350.16H1226.68ZM1244.99 341.46C1245.95 339.58 1247.31 338.12 1249.07 337.08C1250.87 336.04 1253.05 335.52 1255.61 335.52V341.16H1254.17C1248.05 341.16 1244.99 344.48 1244.99 351.12V369H1239.53V336.12H1244.99V341.46ZM1291.91 351.3C1291.91 352.34 1291.85 353.44 1291.73 354.6H1265.45C1265.65 357.84 1266.75 360.38 1268.75 362.22C1270.79 364.02 1273.25 364.92 1276.13 364.92C1278.49 364.92 1280.45 364.38 1282.01 363.3C1283.61 362.18 1284.73 360.7 1285.37 358.86H1291.25C1290.37 362.02 1288.61 364.6 1285.97 366.6C1283.33 368.56 1280.05 369.54 1276.13 369.54C1273.01 369.54 1270.21 368.84 1267.73 367.44C1265.29 366.04 1263.37 364.06 1261.97 361.5C1260.57 358.9 1259.87 355.9 1259.87 352.5C1259.87 349.1 1260.55 346.12 1261.91 343.56C1263.27 341 1265.17 339.04 1267.61 337.68C1270.09 336.28 1272.93 335.58 1276.13 335.58C1279.25 335.58 1282.01 336.26 1284.41 337.62C1286.81 338.98 1288.65 340.86 1289.93 343.26C1291.25 345.62 1291.91 348.3 1291.91 351.3ZM1286.27 350.16C1286.27 348.08 1285.81 346.3 1284.89 344.82C1283.97 343.3 1282.71 342.16 1281.11 341.4C1279.55 340.6 1277.81 340.2 1275.89 340.2C1273.13 340.2 1270.77 341.08 1268.81 342.84C1266.89 344.6 1265.79 347.04 1265.51 350.16H1286.27ZM1299.96 327.18H1306.02L1300.26 340.8H1296.42L1299.96 327.18ZM1323.89 369.54C1321.37 369.54 1319.11 369.12 1317.11 368.28C1315.11 367.4 1313.53 366.2 1312.37 364.68C1311.21 363.12 1310.57 361.34 1310.45 359.34H1316.09C1316.25 360.98 1317.01 362.32 1318.37 363.36C1319.77 364.4 1321.59 364.92 1323.83 364.92C1325.91 364.92 1327.55 364.46 1328.75 363.54C1329.95 362.62 1330.55 361.46 1330.55 360.06C1330.55 358.62 1329.91 357.56 1328.63 356.88C1327.35 356.16 1325.37 355.46 1322.69 354.78C1320.25 354.14 1318.25 353.5 1316.69 352.86C1315.17 352.18 1313.85 351.2 1312.73 349.92C1311.65 348.6 1311.11 346.88 1311.11 344.76C1311.11 343.08 1311.61 341.54 1312.61 340.14C1313.61 338.74 1315.03 337.64 1316.87 336.84C1318.71 336 1320.81 335.58 1323.17 335.58C1326.81 335.58 1329.75 336.5 1331.99 338.34C1334.23 340.18 1335.43 342.7 1335.59 345.9H1330.13C1330.01 344.18 1329.31 342.8 1328.03 341.76C1326.79 340.72 1325.11 340.2 1322.99 340.2C1321.03 340.2 1319.47 340.62 1318.31 341.46C1317.15 342.3 1316.57 343.4 1316.57 344.76C1316.57 345.84 1316.91 346.74 1317.59 347.46C1318.31 348.14 1319.19 348.7 1320.23 349.14C1321.31 349.54 1322.79 350 1324.67 350.52C1327.03 351.16 1328.95 351.8 1330.43 352.44C1331.91 353.04 1333.17 353.96 1334.21 355.2C1335.29 356.44 1335.85 358.06 1335.89 360.06C1335.89 361.86 1335.39 363.48 1334.39 364.92C1333.39 366.36 1331.97 367.5 1330.13 368.34C1328.33 369.14 1326.25 369.54 1323.89 369.54ZM1375.61 335.52C1379.61 335.52 1382.85 336.74 1385.33 339.18C1387.81 341.58 1389.05 345.06 1389.05 349.62V369H1383.65V350.4C1383.65 347.12 1382.83 344.62 1381.19 342.9C1379.55 341.14 1377.31 340.26 1374.47 340.26C1371.59 340.26 1369.29 341.16 1367.57 342.96C1365.89 344.76 1365.05 347.38 1365.05 350.82V369H1359.59V336.12H1365.05V340.8C1366.13 339.12 1367.59 337.82 1369.43 336.9C1371.31 335.98 1373.37 335.52 1375.61 335.52ZM1412.31 369.54C1409.23 369.54 1406.43 368.84 1403.91 367.44C1401.43 366.04 1399.47 364.06 1398.03 361.5C1396.63 358.9 1395.93 355.9 1395.93 352.5C1395.93 349.14 1396.65 346.18 1398.09 343.62C1399.57 341.02 1401.57 339.04 1404.09 337.68C1406.61 336.28 1409.43 335.58 1412.55 335.58C1415.67 335.58 1418.49 336.28 1421.01 337.68C1423.53 339.04 1425.51 341 1426.95 343.56C1428.43 346.12 1429.17 349.1 1429.17 352.5C1429.17 355.9 1428.41 358.9 1426.89 361.5C1425.41 364.06 1423.39 366.04 1420.83 367.44C1418.27 368.84 1415.43 369.54 1412.31 369.54ZM1412.31 364.74C1414.27 364.74 1416.11 364.28 1417.83 363.36C1419.55 362.44 1420.93 361.06 1421.97 359.22C1423.05 357.38 1423.59 355.14 1423.59 352.5C1423.59 349.86 1423.07 347.62 1422.03 345.78C1420.99 343.94 1419.63 342.58 1417.95 341.7C1416.27 340.78 1414.45 340.32 1412.49 340.32C1410.49 340.32 1408.65 340.78 1406.97 341.7C1405.33 342.58 1404.01 343.94 1403.01 345.78C1402.01 347.62 1401.51 349.86 1401.51 352.5C1401.51 355.18 1401.99 357.44 1402.95 359.28C1403.95 361.12 1405.27 362.5 1406.91 363.42C1408.55 364.3 1410.35 364.74 1412.31 364.74ZM1466.68 369.54C1463.6 369.54 1460.8 368.84 1458.28 367.44C1455.8 366.04 1453.84 364.06 1452.4 361.5C1451 358.9 1450.3 355.9 1450.3 352.5C1450.3 349.14 1451.02 346.18 1452.46 343.62C1453.94 341.02 1455.94 339.04 1458.46 337.68C1460.98 336.28 1463.8 335.58 1466.92 335.58C1470.04 335.58 1472.86 336.28 1475.38 337.68C1477.9 339.04 1479.88 341 1481.32 343.56C1482.8 346.12 1483.54 349.1 1483.54 352.5C1483.54 355.9 1482.78 358.9 1481.26 361.5C1479.78 364.06 1477.76 366.04 1475.2 367.44C1472.64 368.84 1469.8 369.54 1466.68 369.54ZM1466.68 364.74C1468.64 364.74 1470.48 364.28 1472.2 363.36C1473.92 362.44 1475.3 361.06 1476.34 359.22C1477.42 357.38 1477.96 355.14 1477.96 352.5C1477.96 349.86 1477.44 347.62 1476.4 345.78C1475.36 343.94 1474 342.58 1472.32 341.7C1470.64 340.78 1468.82 340.32 1466.86 340.32C1464.86 340.32 1463.02 340.78 1461.34 341.7C1459.7 342.58 1458.38 343.94 1457.38 345.78C1456.38 347.62 1455.88 349.86 1455.88 352.5C1455.88 355.18 1456.36 357.44 1457.32 359.28C1458.32 361.12 1459.64 362.5 1461.28 363.42C1462.92 364.3 1464.72 364.74 1466.68 364.74ZM1497.38 340.62V360C1497.38 361.6 1497.72 362.74 1498.4 363.42C1499.08 364.06 1500.26 364.38 1501.94 364.38H1505.96V369H1501.04C1498 369 1495.72 368.3 1494.2 366.9C1492.68 365.5 1491.92 363.2 1491.92 360V340.62H1487.66V336.12H1491.92V327.84H1497.38V336.12H1505.96V340.62H1497.38ZM1528.9 335.52C1531.38 335.52 1533.62 336.06 1535.62 337.14C1537.62 338.18 1539.18 339.76 1540.3 341.88C1541.46 344 1542.04 346.58 1542.04 349.62V369H1536.64V350.4C1536.64 347.12 1535.82 344.62 1534.18 342.9C1532.54 341.14 1530.3 340.26 1527.46 340.26C1524.58 340.26 1522.28 341.16 1520.56 342.96C1518.88 344.76 1518.04 347.38 1518.04 350.82V369H1512.58V324.6H1518.04V340.8C1519.12 339.12 1520.6 337.82 1522.48 336.9C1524.4 335.98 1526.54 335.52 1528.9 335.52ZM1580.96 351.3C1580.96 352.34 1580.9 353.44 1580.78 354.6H1554.5C1554.7 357.84 1555.8 360.38 1557.8 362.22C1559.84 364.02 1562.3 364.92 1565.18 364.92C1567.54 364.92 1569.5 364.38 1571.06 363.3C1572.66 362.18 1573.78 360.7 1574.42 358.86H1580.3C1579.42 362.02 1577.66 364.6 1575.02 366.6C1572.38 368.56 1569.1 369.54 1565.18 369.54C1562.06 369.54 1559.26 368.84 1556.78 367.44C1554.34 366.04 1552.42 364.06 1551.02 361.5C1549.62 358.9 1548.92 355.9 1548.92 352.5C1548.92 349.1 1549.6 346.12 1550.96 343.56C1552.32 341 1554.22 339.04 1556.66 337.68C1559.14 336.28 1561.98 335.58 1565.18 335.58C1568.3 335.58 1571.06 336.26 1573.46 337.62C1575.86 338.98 1577.7 340.86 1578.98 343.26C1580.3 345.62 1580.96 348.3 1580.96 351.3ZM1575.32 350.16C1575.32 348.08 1574.86 346.3 1573.94 344.82C1573.02 343.3 1571.76 342.16 1570.16 341.4C1568.6 340.6 1566.86 340.2 1564.94 340.2C1562.18 340.2 1559.82 341.08 1557.86 342.84C1555.94 344.6 1554.84 347.04 1554.56 350.16H1575.32ZM1593.62 341.46C1594.58 339.58 1595.94 338.12 1597.7 337.08C1599.5 336.04 1601.68 335.52 1604.24 335.52V341.16H1602.8C1596.68 341.16 1593.62 344.48 1593.62 351.12V369H1588.16V336.12H1593.62V341.46ZM1632 342.18C1633.08 340.3 1634.68 338.74 1636.8 337.5C1638.96 336.22 1641.46 335.58 1644.3 335.58C1647.22 335.58 1649.86 336.28 1652.22 337.68C1654.62 339.08 1656.5 341.06 1657.86 343.62C1659.22 346.14 1659.9 349.08 1659.9 352.44C1659.9 355.76 1659.22 358.72 1657.86 361.32C1656.5 363.92 1654.62 365.94 1652.22 367.38C1649.86 368.82 1647.22 369.54 1644.3 369.54C1641.5 369.54 1639.02 368.92 1636.86 367.68C1634.74 366.4 1633.12 364.82 1632 362.94V384.6H1626.54V336.12H1632V342.18ZM1654.32 352.44C1654.32 349.96 1653.82 347.8 1652.82 345.96C1651.82 344.12 1650.46 342.72 1648.74 341.76C1647.06 340.8 1645.2 340.32 1643.16 340.32C1641.16 340.32 1639.3 340.82 1637.58 341.82C1635.9 342.78 1634.54 344.2 1633.5 346.08C1632.5 347.92 1632 350.06 1632 352.5C1632 354.98 1632.5 357.16 1633.5 359.04C1634.54 360.88 1635.9 362.3 1637.58 363.3C1639.3 364.26 1641.16 364.74 1643.16 364.74C1645.2 364.74 1647.06 364.26 1648.74 363.3C1650.46 362.3 1651.82 360.88 1652.82 359.04C1653.82 357.16 1654.32 354.96 1654.32 352.44ZM1672.55 324.6V369H1667.09V324.6H1672.55ZM1679.81 352.44C1679.81 349.08 1680.49 346.14 1681.85 343.62C1683.21 341.06 1685.07 339.08 1687.43 337.68C1689.83 336.28 1692.49 335.58 1695.41 335.58C1698.29 335.58 1700.79 336.2 1702.91 337.44C1705.03 338.68 1706.61 340.24 1707.65 342.12V336.12H1713.17V369H1707.65V362.88C1706.57 364.8 1704.95 366.4 1702.79 367.68C1700.67 368.92 1698.19 369.54 1695.35 369.54C1692.43 369.54 1689.79 368.82 1687.43 367.38C1685.07 365.94 1683.21 363.92 1681.85 361.32C1680.49 358.72 1679.81 355.76 1679.81 352.44ZM1707.65 352.5C1707.65 350.02 1707.15 347.86 1706.15 346.02C1705.15 344.18 1703.79 342.78 1702.07 341.82C1700.39 340.82 1698.53 340.32 1696.49 340.32C1694.45 340.32 1692.59 340.8 1690.91 341.76C1689.23 342.72 1687.89 344.12 1686.89 345.96C1685.89 347.8 1685.39 349.96 1685.39 352.44C1685.39 354.96 1685.89 357.16 1686.89 359.04C1687.89 360.88 1689.23 362.3 1690.91 363.3C1692.59 364.26 1694.45 364.74 1696.49 364.74C1698.53 364.74 1700.39 364.26 1702.07 363.3C1703.79 362.3 1705.15 360.88 1706.15 359.04C1707.15 357.16 1707.65 354.98 1707.65 352.5ZM1720.36 352.5C1720.36 349.1 1721.04 346.14 1722.4 343.62C1723.76 341.06 1725.64 339.08 1728.04 337.68C1730.48 336.28 1733.26 335.58 1736.38 335.58C1740.42 335.58 1743.74 336.56 1746.34 338.52C1748.98 340.48 1750.72 343.2 1751.56 346.68H1745.68C1745.12 344.68 1744.02 343.1 1742.38 341.94C1740.78 340.78 1738.78 340.2 1736.38 340.2C1733.26 340.2 1730.74 341.28 1728.82 343.44C1726.9 345.56 1725.94 348.58 1725.94 352.5C1725.94 356.46 1726.9 359.52 1728.82 361.68C1730.74 363.84 1733.26 364.92 1736.38 364.92C1738.78 364.92 1740.78 364.36 1742.38 363.24C1743.98 362.12 1745.08 360.52 1745.68 358.44H1751.56C1750.68 361.8 1748.92 364.5 1746.28 366.54C1743.64 368.54 1740.34 369.54 1736.38 369.54C1733.26 369.54 1730.48 368.84 1728.04 367.44C1725.64 366.04 1723.76 364.06 1722.4 361.5C1721.04 358.94 1720.36 355.94 1720.36 352.5ZM1788.85 351.3C1788.85 352.34 1788.79 353.44 1788.67 354.6H1762.39C1762.59 357.84 1763.69 360.38 1765.69 362.22C1767.73 364.02 1770.19 364.92 1773.07 364.92C1775.43 364.92 1777.39 364.38 1778.95 363.3C1780.55 362.18 1781.67 360.7 1782.31 358.86H1788.19C1787.31 362.02 1785.55 364.6 1782.91 366.6C1780.27 368.56 1776.99 369.54 1773.07 369.54C1769.95 369.54 1767.15 368.84 1764.67 367.44C1762.23 366.04 1760.31 364.06 1758.91 361.5C1757.51 358.9 1756.81 355.9 1756.81 352.5C1756.81 349.1 1757.49 346.12 1758.85 343.56C1760.21 341 1762.11 339.04 1764.55 337.68C1767.03 336.28 1769.87 335.58 1773.07 335.58C1776.19 335.58 1778.95 336.26 1781.35 337.62C1783.75 338.98 1785.59 340.86 1786.87 343.26C1788.19 345.62 1788.85 348.3 1788.85 351.3ZM1783.21 350.16C1783.21 348.08 1782.75 346.3 1781.83 344.82C1780.91 343.3 1779.65 342.16 1778.05 341.4C1776.49 340.6 1774.75 340.2 1772.83 340.2C1770.07 340.2 1767.71 341.08 1765.75 342.84C1763.83 344.6 1762.73 347.04 1762.45 350.16H1783.21ZM1818.71 340.62V360C1818.71 361.6 1819.05 362.74 1819.73 363.42C1820.41 364.06 1821.59 364.38 1823.27 364.38H1827.29V369H1822.37C1819.33 369 1817.05 368.3 1815.53 366.9C1814.01 365.5 1813.25 363.2 1813.25 360V340.62H1808.99V336.12H1813.25V327.84H1818.71V336.12H1827.29V340.62H1818.71ZM1848.25 369.54C1845.17 369.54 1842.37 368.84 1839.85 367.44C1837.37 366.04 1835.41 364.06 1833.97 361.5C1832.57 358.9 1831.87 355.9 1831.87 352.5C1831.87 349.14 1832.59 346.18 1834.03 343.62C1835.51 341.02 1837.51 339.04 1840.03 337.68C1842.55 336.28 1845.37 335.58 1848.49 335.58C1851.61 335.58 1854.43 336.28 1856.95 337.68C1859.47 339.04 1861.45 341 1862.89 343.56C1864.37 346.12 1865.11 349.1 1865.11 352.5C1865.11 355.9 1864.35 358.9 1862.83 361.5C1861.35 364.06 1859.33 366.04 1856.77 367.44C1854.21 368.84 1851.37 369.54 1848.25 369.54ZM1848.25 364.74C1850.21 364.74 1852.05 364.28 1853.77 363.36C1855.49 362.44 1856.87 361.06 1857.91 359.22C1858.99 357.38 1859.53 355.14 1859.53 352.5C1859.53 349.86 1859.01 347.62 1857.97 345.78C1856.93 343.94 1855.57 342.58 1853.89 341.7C1852.21 340.78 1850.39 340.32 1848.43 340.32C1846.43 340.32 1844.59 340.78 1842.91 341.7C1841.27 342.58 1839.95 343.94 1838.95 345.78C1837.95 347.62 1837.45 349.86 1837.45 352.5C1837.45 355.18 1837.93 357.44 1838.89 359.28C1839.89 361.12 1841.21 362.5 1842.85 363.42C1844.49 364.3 1846.29 364.74 1848.25 364.74ZM1901.84 335.58C1904.68 335.58 1907.16 336.2 1909.28 337.44C1911.44 338.68 1913.04 340.24 1914.08 342.12V336.12H1919.6V369.72C1919.6 372.72 1918.96 375.38 1917.68 377.7C1916.4 380.06 1914.56 381.9 1912.16 383.22C1909.8 384.54 1907.04 385.2 1903.88 385.2C1899.56 385.2 1895.96 384.18 1893.08 382.14C1890.2 380.1 1888.5 377.32 1887.98 373.8H1893.38C1893.98 375.8 1895.22 377.4 1897.1 378.6C1898.98 379.84 1901.24 380.46 1903.88 380.46C1906.88 380.46 1909.32 379.52 1911.2 377.64C1913.12 375.76 1914.08 373.12 1914.08 369.72V362.82C1913 364.74 1911.4 366.34 1909.28 367.62C1907.16 368.9 1904.68 369.54 1901.84 369.54C1898.92 369.54 1896.26 368.82 1893.86 367.38C1891.5 365.94 1889.64 363.92 1888.28 361.32C1886.92 358.72 1886.24 355.76 1886.24 352.44C1886.24 349.08 1886.92 346.14 1888.28 343.62C1889.64 341.06 1891.5 339.08 1893.86 337.68C1896.26 336.28 1898.92 335.58 1901.84 335.58ZM1914.08 352.5C1914.08 350.02 1913.58 347.86 1912.58 346.02C1911.58 344.18 1910.22 342.78 1908.5 341.82C1906.82 340.82 1904.96 340.32 1902.92 340.32C1900.88 340.32 1899.02 340.8 1897.34 341.76C1895.66 342.72 1894.32 344.12 1893.32 345.96C1892.32 347.8 1891.82 349.96 1891.82 352.44C1891.82 354.96 1892.32 357.16 1893.32 359.04C1894.32 360.88 1895.66 362.3 1897.34 363.3C1899.02 364.26 1900.88 364.74 1902.92 364.74C1904.96 364.74 1906.82 364.26 1908.5 363.3C1910.22 362.3 1911.58 360.88 1912.58 359.04C1913.58 357.16 1914.08 354.98 1914.08 352.5ZM1943.17 369.54C1940.09 369.54 1937.29 368.84 1934.77 367.44C1932.29 366.04 1930.33 364.06 1928.89 361.5C1927.49 358.9 1926.79 355.9 1926.79 352.5C1926.79 349.14 1927.51 346.18 1928.95 343.62C1930.43 341.02 1932.43 339.04 1934.95 337.68C1937.47 336.28 1940.29 335.58 1943.41 335.58C1946.53 335.58 1949.35 336.28 1951.87 337.68C1954.39 339.04 1956.37 341 1957.81 343.56C1959.29 346.12 1960.03 349.1 1960.03 352.5C1960.03 355.9 1959.27 358.9 1957.75 361.5C1956.27 364.06 1954.25 366.04 1951.69 367.44C1949.13 368.84 1946.29 369.54 1943.17 369.54ZM1943.17 364.74C1945.13 364.74 1946.97 364.28 1948.69 363.36C1950.41 362.44 1951.79 361.06 1952.83 359.22C1953.91 357.38 1954.45 355.14 1954.45 352.5C1954.45 349.86 1953.93 347.62 1952.89 345.78C1951.85 343.94 1950.49 342.58 1948.81 341.7C1947.13 340.78 1945.31 340.32 1943.35 340.32C1941.35 340.32 1939.51 340.78 1937.83 341.7C1936.19 342.58 1934.87 343.94 1933.87 345.78C1932.87 347.62 1932.37 349.86 1932.37 352.5C1932.37 355.18 1932.85 357.44 1933.81 359.28C1934.81 361.12 1936.13 362.5 1937.77 363.42C1939.41 364.3 1941.21 364.74 1943.17 364.74Z" fill="#333333"/>
<path d="M2071.53 97.5218C2071.29 86.6981 2062.48 78.0334 2051.65 77.9724L1795.07 76.5266L1656.31 75.8682L1517.05 75.4804C1424.12 75.3129 1331.21 74.831 1238.01 75.0611L1098.36 75.2696L958.842 75.8965H958.755C957.483 75.9022 956.267 76.1644 955.375 76.6253C954.484 77.0861 953.989 77.708 954 78.354V78.3549L955.704 170.751L956.445 263.146L956.147 355.542L955.023 447.937C955.02 448.19 955.115 448.441 955.303 448.675C955.491 448.91 955.768 449.123 956.119 449.303C956.469 449.483 956.886 449.626 957.345 449.725C957.804 449.823 958.297 449.874 958.796 449.876H958.842L1111.12 450.682C1112.22 450.687 1112.58 449.199 1111.6 448.698V448.698C1110.91 448.347 1110.09 448.842 1110.07 449.617L1109.18 508.754C1109.17 509.302 1109.44 509.843 1109.95 510.325C1110.47 510.806 1111.23 511.212 1112.14 511.505C1113.05 511.797 1114.1 511.966 1115.18 511.995C1116.26 512.025 1117.34 511.914 1118.31 511.673L1118.39 511.651L1359.24 451.141L1356.1 451.515L1534.71 451.812L1713.33 452.004L2070.56 451.716L2070.62 451.715C2072.58 451.714 2074.46 451.317 2075.84 450.612C2077.23 449.907 2078 448.951 2078 447.956L2078 447.937C2077.19 385.915 2076.63 323.868 2075.24 262.161L2071.53 97.5218ZM2049.46 78.7417C2060.72 78.6791 2069.81 87.9267 2069.56 99.1881L2065.88 264.13L2063.15 445.565C2063.14 446.642 2064.27 447.351 2065.23 446.863V446.863C2066.57 446.181 2066.09 444.156 2064.58 444.154L1713.33 443.87L1534.71 444.062L1356.1 444.359H1356.05C1354.98 444.363 1353.92 444.491 1352.95 444.734L1119.43 504.147C1117.5 504.637 1117.43 507.341 1119.32 507.936V507.936C1120.6 508.338 1121.9 507.369 1121.88 506.027L1121 447.938L1121 447.888C1120.99 447.528 1120.85 447.172 1120.57 446.841C1120.3 446.51 1119.89 446.209 1119.39 445.957C1118.89 445.705 1118.29 445.505 1117.63 445.37C1116.97 445.235 1116.27 445.167 1115.56 445.169H1115.55L961.899 445.983C961.123 445.987 960.876 447.031 961.568 447.383V447.383C962.064 447.635 962.651 447.27 962.644 446.714L961.535 355.541L961.239 263.146L961.98 170.75L963.655 79.9114C963.668 79.2056 962.925 78.7399 962.295 79.0594V79.0594C961.419 79.5041 961.732 80.8257 962.715 80.8302L1097.25 81.4395L1235.53 81.6477C1327.62 81.8783 1420 81.3964 1512.36 81.2288L1651.02 80.8411L1790.18 80.1822L2049.46 78.7417Z" fill="#262626" stroke="#262626" stroke-width="6"/>
<path d="M1235 1274.48V1290.14H1250.9V1293.62H1235V1309.52H1252.7V1313H1230.8V1271H1252.7V1274.48H1235ZM1265.18 1286.06C1266.1 1284.02 1267.5 1282.44 1269.38 1281.32C1271.3 1280.2 1273.64 1279.64 1276.4 1279.64V1284.02H1275.26C1272.22 1284.02 1269.78 1284.84 1267.94 1286.48C1266.1 1288.12 1265.18 1290.86 1265.18 1294.7V1313H1260.98V1280.24H1265.18V1286.06ZM1284.81 1274.06C1283.97 1274.06 1283.25 1273.76 1282.65 1273.16C1282.05 1272.56 1281.75 1271.82 1281.75 1270.94C1281.75 1270.06 1282.05 1269.34 1282.65 1268.78C1283.25 1268.18 1283.97 1267.88 1284.81 1267.88C1285.65 1267.88 1286.37 1268.18 1286.97 1268.78C1287.57 1269.34 1287.87 1270.06 1287.87 1270.94C1287.87 1271.82 1287.57 1272.56 1286.97 1273.16C1286.37 1273.76 1285.65 1274.06 1284.81 1274.06ZM1286.91 1280.24V1313H1282.71V1280.24H1286.91ZM1294.51 1296.62C1294.51 1293.22 1295.19 1290.26 1296.55 1287.74C1297.91 1285.18 1299.79 1283.22 1302.19 1281.86C1304.59 1280.46 1307.33 1279.76 1310.41 1279.76C1314.45 1279.76 1317.77 1280.76 1320.37 1282.76C1323.01 1284.76 1324.71 1287.48 1325.47 1290.92H1320.97C1320.41 1288.56 1319.19 1286.72 1317.31 1285.4C1315.47 1284.04 1313.17 1283.36 1310.41 1283.36C1308.21 1283.36 1306.23 1283.86 1304.47 1284.86C1302.71 1285.86 1301.31 1287.36 1300.27 1289.36C1299.27 1291.32 1298.77 1293.74 1298.77 1296.62C1298.77 1299.5 1299.27 1301.94 1300.27 1303.94C1301.31 1305.94 1302.71 1307.44 1304.47 1308.44C1306.23 1309.44 1308.21 1309.94 1310.41 1309.94C1313.17 1309.94 1315.47 1309.28 1317.31 1307.96C1319.19 1306.6 1320.41 1304.72 1320.97 1302.32H1325.47C1324.71 1305.68 1323.01 1308.38 1320.37 1310.42C1317.73 1312.46 1314.41 1313.48 1310.41 1313.48C1307.33 1313.48 1304.59 1312.8 1302.19 1311.44C1299.79 1310.04 1297.91 1308.08 1296.55 1305.56C1295.19 1303 1294.51 1300.02 1294.51 1296.62ZM1347.77 1292C1347.77 1287.88 1348.67 1284.2 1350.47 1280.96C1352.27 1277.68 1354.73 1275.14 1357.85 1273.34C1360.97 1271.5 1364.45 1270.58 1368.29 1270.58C1372.97 1270.58 1376.97 1271.7 1380.29 1273.94C1383.65 1276.14 1386.09 1279.26 1387.61 1283.3H1382.69C1381.49 1280.46 1379.65 1278.24 1377.17 1276.64C1374.73 1275.04 1371.77 1274.24 1368.29 1274.24C1365.21 1274.24 1362.43 1274.96 1359.95 1276.4C1357.51 1277.84 1355.59 1279.92 1354.19 1282.64C1352.79 1285.32 1352.09 1288.44 1352.09 1292C1352.09 1295.56 1352.79 1298.68 1354.19 1301.36C1355.59 1304.04 1357.51 1306.1 1359.95 1307.54C1362.43 1308.98 1365.21 1309.7 1368.29 1309.7C1371.77 1309.7 1374.73 1308.92 1377.17 1307.36C1379.65 1305.76 1381.49 1303.56 1382.69 1300.76H1387.61C1386.09 1304.76 1383.65 1307.86 1380.29 1310.06C1376.93 1312.26 1372.93 1313.36 1368.29 1313.36C1364.45 1313.36 1360.97 1312.46 1357.85 1310.66C1354.73 1308.82 1352.27 1306.28 1350.47 1303.04C1348.67 1299.8 1347.77 1296.12 1347.77 1292ZM1410.32 1313.48C1407.24 1313.48 1404.46 1312.8 1401.98 1311.44C1399.54 1310.04 1397.6 1308.08 1396.16 1305.56C1394.76 1303 1394.06 1300.02 1394.06 1296.62C1394.06 1293.22 1394.78 1290.26 1396.22 1287.74C1397.66 1285.18 1399.62 1283.22 1402.1 1281.86C1404.58 1280.46 1407.36 1279.76 1410.44 1279.76C1413.52 1279.76 1416.3 1280.46 1418.78 1281.86C1421.3 1283.22 1423.26 1285.18 1424.66 1287.74C1426.1 1290.26 1426.82 1293.22 1426.82 1296.62C1426.82 1299.98 1426.1 1302.94 1424.66 1305.5C1423.22 1308.06 1421.24 1310.04 1418.72 1311.44C1416.2 1312.8 1413.4 1313.48 1410.32 1313.48ZM1410.32 1309.82C1412.48 1309.82 1414.48 1309.34 1416.32 1308.38C1418.16 1307.38 1419.64 1305.9 1420.76 1303.94C1421.92 1301.94 1422.5 1299.5 1422.5 1296.62C1422.5 1293.74 1421.94 1291.32 1420.82 1289.36C1419.7 1287.36 1418.22 1285.88 1416.38 1284.92C1414.54 1283.92 1412.54 1283.42 1410.38 1283.42C1408.22 1283.42 1406.22 1283.92 1404.38 1284.92C1402.54 1285.88 1401.06 1287.36 1399.94 1289.36C1398.86 1291.32 1398.32 1293.74 1398.32 1296.62C1398.32 1299.5 1398.86 1301.94 1399.94 1303.94C1401.06 1305.9 1402.52 1307.38 1404.32 1308.38C1406.16 1309.34 1408.16 1309.82 1410.32 1309.82ZM1438.67 1268.6V1313H1434.47V1268.6H1438.67ZM1452.38 1280.24V1313H1448.18V1280.24H1452.38ZM1455.8 1270.58L1443.5 1277.72V1274.48L1455.8 1266.8V1270.58ZM1477.25 1279.64C1481.17 1279.64 1484.37 1280.86 1486.85 1283.3C1489.33 1285.7 1490.57 1289.2 1490.57 1293.8V1313H1486.43V1294.28C1486.43 1290.72 1485.53 1288 1483.73 1286.12C1481.97 1284.24 1479.55 1283.3 1476.47 1283.3C1473.31 1283.3 1470.79 1284.3 1468.91 1286.3C1467.03 1288.3 1466.09 1291.24 1466.09 1295.12V1313H1461.89V1280.24H1466.09V1285.82C1467.13 1283.82 1468.63 1282.3 1470.59 1281.26C1472.55 1280.18 1474.77 1279.64 1477.25 1279.64ZM1536.67 1289V1292.54H1513.33V1289H1536.67ZM1568.11 1309.58H1583.17V1313H1563.91V1271.06H1568.11V1309.58ZM1587.24 1296.56C1587.24 1293.2 1587.9 1290.26 1589.22 1287.74C1590.58 1285.18 1592.44 1283.22 1594.8 1281.86C1597.2 1280.46 1599.9 1279.76 1602.9 1279.76C1606.02 1279.76 1608.7 1280.48 1610.94 1281.92C1613.22 1283.36 1614.86 1285.2 1615.86 1287.44V1280.24H1620.06V1313H1615.86V1305.74C1614.82 1307.98 1613.16 1309.84 1610.88 1311.32C1608.64 1312.76 1605.96 1313.48 1602.84 1313.48C1599.88 1313.48 1597.2 1312.78 1594.8 1311.38C1592.44 1309.98 1590.58 1308 1589.22 1305.44C1587.9 1302.88 1587.24 1299.92 1587.24 1296.56ZM1615.86 1296.62C1615.86 1293.98 1615.32 1291.66 1614.24 1289.66C1613.16 1287.66 1611.68 1286.12 1609.8 1285.04C1607.96 1283.96 1605.92 1283.42 1603.68 1283.42C1601.36 1283.42 1599.28 1283.94 1597.44 1284.98C1595.6 1286.02 1594.14 1287.54 1593.06 1289.54C1592.02 1291.5 1591.5 1293.84 1591.5 1296.56C1591.5 1299.24 1592.02 1301.6 1593.06 1303.64C1594.14 1305.64 1595.6 1307.18 1597.44 1308.26C1599.28 1309.3 1601.36 1309.82 1603.68 1309.82C1605.92 1309.82 1607.96 1309.28 1609.8 1308.2C1611.68 1307.12 1613.16 1305.58 1614.24 1303.58C1615.32 1301.58 1615.86 1299.26 1615.86 1296.62ZM1672.85 1280.24L1662.59 1313H1658.39L1649.33 1285.52L1640.27 1313H1636.01L1625.75 1280.24H1630.01L1638.17 1308.74L1647.35 1280.24H1651.55L1660.61 1308.8L1668.71 1280.24H1672.85ZM1707.76 1313.42C1705 1313.42 1702.56 1312.94 1700.44 1311.98C1698.36 1311.02 1696.72 1309.68 1695.52 1307.96C1694.32 1306.24 1693.68 1304.32 1693.6 1302.2H1698.04C1698.24 1304.24 1699.14 1306.04 1700.74 1307.6C1702.34 1309.12 1704.68 1309.88 1707.76 1309.88C1710.6 1309.88 1712.84 1309.16 1714.48 1307.72C1716.16 1306.24 1717 1304.38 1717 1302.14C1717 1300.34 1716.54 1298.9 1715.62 1297.82C1714.7 1296.7 1713.56 1295.88 1712.2 1295.36C1710.84 1294.8 1708.96 1294.2 1706.56 1293.56C1703.76 1292.8 1701.54 1292.06 1699.9 1291.34C1698.26 1290.62 1696.86 1289.5 1695.7 1287.98C1694.54 1286.46 1693.96 1284.4 1693.96 1281.8C1693.96 1279.64 1694.52 1277.72 1695.64 1276.04C1696.76 1274.32 1698.34 1272.98 1700.38 1272.02C1702.42 1271.06 1704.76 1270.58 1707.4 1270.58C1711.28 1270.58 1714.4 1271.54 1716.76 1273.46C1719.16 1275.34 1720.54 1277.78 1720.9 1280.78H1716.34C1716.06 1279.06 1715.12 1277.54 1713.52 1276.22C1711.92 1274.86 1709.76 1274.18 1707.04 1274.18C1704.52 1274.18 1702.42 1274.86 1700.74 1276.22C1699.06 1277.54 1698.22 1279.36 1698.22 1281.68C1698.22 1283.44 1698.68 1284.86 1699.6 1285.94C1700.52 1287.02 1701.66 1287.84 1703.02 1288.4C1704.42 1288.96 1706.3 1289.56 1708.66 1290.2C1711.38 1290.96 1713.58 1291.72 1715.26 1292.48C1716.94 1293.2 1718.36 1294.32 1719.52 1295.84C1720.68 1297.36 1721.26 1299.4 1721.26 1301.96C1721.26 1303.92 1720.74 1305.78 1719.7 1307.54C1718.66 1309.3 1717.12 1310.72 1715.08 1311.8C1713.04 1312.88 1710.6 1313.42 1707.76 1313.42ZM1734.83 1283.78V1304.12C1734.83 1306.12 1735.21 1307.5 1735.97 1308.26C1736.73 1309.02 1738.07 1309.4 1739.99 1309.4H1743.83V1313H1739.33C1736.37 1313 1734.17 1312.32 1732.73 1310.96C1731.29 1309.56 1730.57 1307.28 1730.57 1304.12V1283.78H1726.01V1280.24H1730.57V1272.02H1734.83V1280.24H1743.83V1283.78H1734.83ZM1779.14 1280.24V1313H1774.94V1307.24C1773.98 1309.28 1772.5 1310.84 1770.5 1311.92C1768.5 1313 1766.26 1313.54 1763.78 1313.54C1759.86 1313.54 1756.66 1312.34 1754.18 1309.94C1751.7 1307.5 1750.46 1303.98 1750.46 1299.38V1280.24H1754.6V1298.9C1754.6 1302.46 1755.48 1305.18 1757.24 1307.06C1759.04 1308.94 1761.48 1309.88 1764.56 1309.88C1767.72 1309.88 1770.24 1308.88 1772.12 1306.88C1774 1304.88 1774.94 1301.94 1774.94 1298.06V1280.24H1779.14ZM1786.81 1296.56C1786.81 1293.2 1787.49 1290.26 1788.85 1287.74C1790.21 1285.18 1792.07 1283.22 1794.43 1281.86C1796.83 1280.46 1799.53 1279.76 1802.53 1279.76C1805.41 1279.76 1808.01 1280.46 1810.33 1281.86C1812.65 1283.26 1814.35 1285.08 1815.43 1287.32V1268.6H1819.63V1313H1815.43V1305.68C1814.43 1307.96 1812.79 1309.84 1810.51 1311.32C1808.23 1312.76 1805.55 1313.48 1802.47 1313.48C1799.47 1313.48 1796.77 1312.78 1794.37 1311.38C1792.01 1309.98 1790.15 1308 1788.79 1305.44C1787.47 1302.88 1786.81 1299.92 1786.81 1296.56ZM1815.43 1296.62C1815.43 1293.98 1814.89 1291.66 1813.81 1289.66C1812.73 1287.66 1811.25 1286.12 1809.37 1285.04C1807.53 1283.96 1805.49 1283.42 1803.25 1283.42C1800.93 1283.42 1798.85 1283.94 1797.01 1284.98C1795.17 1286.02 1793.71 1287.54 1792.63 1289.54C1791.59 1291.5 1791.07 1293.84 1791.07 1296.56C1791.07 1299.24 1791.59 1301.6 1792.63 1303.64C1793.71 1305.64 1795.17 1307.18 1797.01 1308.26C1798.85 1309.3 1800.93 1309.82 1803.25 1309.82C1805.49 1309.82 1807.53 1309.28 1809.37 1308.2C1811.25 1307.12 1812.73 1305.58 1813.81 1303.58C1814.89 1301.58 1815.43 1299.26 1815.43 1296.62ZM1858.86 1294.94C1858.86 1296.38 1858.82 1297.48 1858.74 1298.24H1831.56C1831.68 1300.72 1832.28 1302.84 1833.36 1304.6C1834.44 1306.36 1835.86 1307.7 1837.62 1308.62C1839.38 1309.5 1841.3 1309.94 1843.38 1309.94C1846.1 1309.94 1848.38 1309.28 1850.22 1307.96C1852.1 1306.64 1853.34 1304.86 1853.94 1302.62H1858.38C1857.58 1305.82 1855.86 1308.44 1853.22 1310.48C1850.62 1312.48 1847.34 1313.48 1843.38 1313.48C1840.3 1313.48 1837.54 1312.8 1835.1 1311.44C1832.66 1310.04 1830.74 1308.08 1829.34 1305.56C1827.98 1303 1827.3 1300.02 1827.3 1296.62C1827.3 1293.22 1827.98 1290.24 1829.34 1287.68C1830.7 1285.12 1832.6 1283.16 1835.04 1281.8C1837.48 1280.44 1840.26 1279.76 1843.38 1279.76C1846.5 1279.76 1849.22 1280.44 1851.54 1281.8C1853.9 1283.16 1855.7 1285 1856.94 1287.32C1858.22 1289.6 1858.86 1292.14 1858.86 1294.94ZM1854.6 1294.82C1854.64 1292.38 1854.14 1290.3 1853.1 1288.58C1852.1 1286.86 1850.72 1285.56 1848.96 1284.68C1847.2 1283.8 1845.28 1283.36 1843.2 1283.36C1840.08 1283.36 1837.42 1284.36 1835.22 1286.36C1833.02 1288.36 1831.8 1291.18 1831.56 1294.82H1854.6ZM1881.9 1279.64C1885.82 1279.64 1889.02 1280.86 1891.5 1283.3C1893.98 1285.7 1895.22 1289.2 1895.22 1293.8V1313H1891.08V1294.28C1891.08 1290.72 1890.18 1288 1888.38 1286.12C1886.62 1284.24 1884.2 1283.3 1881.12 1283.3C1877.96 1283.3 1875.44 1284.3 1873.56 1286.3C1871.68 1288.3 1870.74 1291.24 1870.74 1295.12V1313H1866.54V1280.24H1870.74V1285.82C1871.78 1283.82 1873.28 1282.3 1875.24 1281.26C1877.2 1280.18 1879.42 1279.64 1881.9 1279.64ZM1909.97 1283.78V1304.12C1909.97 1306.12 1910.35 1307.5 1911.11 1308.26C1911.87 1309.02 1913.21 1309.4 1915.13 1309.4H1918.97V1313H1914.47C1911.51 1313 1909.31 1312.32 1907.87 1310.96C1906.43 1309.56 1905.71 1307.28 1905.71 1304.12V1283.78H1901.15V1280.24H1905.71V1272.02H1909.97V1280.24H1918.97V1283.78H1909.97Z" fill="#595959"/>
</svg>
