<svg width="2122" height="1533" viewBox="0 0 2122 1533" fill="none" xmlns="http://www.w3.org/2000/svg">
<path fill-rule="evenodd" clip-rule="evenodd" d="M195 989.888L911.472 1046.77L912.222 1051.64C924.228 1129.83 930.292 1182.87 930.415 1210.77L930.416 1211.63C930.416 1239.3 938.91 1283.3 955.896 1343.63L956.947 1347.35L194 1348.68L185 1167.07L195 989.888ZM619.169 600.183C648.302 601.621 677.661 614.11 679.929 622.092C684.98 639.869 693.102 715.966 719.811 727.657C746.521 739.348 803.542 728.689 819.846 756.609C836.149 784.529 889.689 898.341 889.689 924.861C889.689 942.54 715.207 948.677 366.243 943.271C370.698 800.87 389.271 726.014 421.961 718.704L424.879 718.059C472.155 707.732 500.409 707.399 516.537 690.751C532.993 673.764 535.979 644.606 542.806 622.092C546.568 609.687 583.42 598.419 619.169 600.183Z" fill="white"/>
<path fill-rule="evenodd" clip-rule="evenodd" d="M683.057 644.689C683.167 644.604 683.278 644.579 683.397 644.639C685.667 645.729 686.137 647.909 686.917 650.179C688.057 653.499 689.377 656.739 690.597 660.029C693.028 666.629 695.347 673.219 698.057 679.709C700.837 686.389 703.717 692.949 707.017 699.399C708.607 702.519 710.317 705.579 712.057 708.619C713.257 710.729 714.377 713.629 715.957 715.609C716.077 714.979 716.247 714.379 716.447 713.819C716.238 713.919 716.037 714.029 715.847 714.149C715.447 714.399 714.967 713.899 715.207 713.509C716.067 712.089 717.187 711.129 718.467 710.479C722.007 706.549 800.036 725.304 821.367 746.369C860 784.52 886.077 831.689 903.227 881.869C912.697 909.559 921.417 937.519 930.427 965.359C939.947 994.799 949.887 1024.11 959.427 1053.53C961.517 1060 956.957 1065.88 951.197 1068.01C940.467 1071.97 929.657 1075.7 918.757 1079.15C924.047 1099.46 927.747 1120.2 930.407 1141C935.897 1183.89 936.587 1227.65 945.238 1270.09C947.224 1279.83 949.737 1289.43 952.392 1299.01L953.007 1301.22C954.587 1306.84 956.028 1312.51 957.967 1318.01C959.637 1322.74 961.797 1327.51 962.967 1332.39C964.337 1338.13 962.317 1344.4 956.947 1347.35C952.637 1349.72 946.467 1348.74 943.867 1344.29C943.337 1343.38 943.017 1342.39 942.887 1341.39C942.497 1340.56 942.137 1339.71 941.817 1338.84C941.692 1338.5 941.582 1338.16 941.477 1337.81L941.167 1336.77C940.407 1334.29 939.707 1331.79 939.007 1329.29C937.867 1325.28 936.719 1321.28 935.451 1317.3L934.807 1315.32C931.667 1305.76 928.857 1296.12 926.407 1286.36C917.639 1251.36 915.779 1215.13 913.372 1179.26L913.247 1177.41C911.067 1145.27 909.767 1113.2 912.437 1081.13L912.072 1081.25V1081.25L911.707 1081.36C908.238 1082.42 904.757 1083.46 901.267 1084.47C901.157 1084.51 901.057 1084.55 900.947 1084.58C898.713 1085.27 896.417 1085.93 894.082 1086.54L892.677 1086.9L891.687 1087.17L890.644 1087.47C887.337 1088.42 883.966 1089.53 880.537 1089.42C874.857 1090.33 869.077 1090.88 863.397 1090.9C865.147 1119.51 867.167 1148.1 869.577 1176.66C871.997 1205.37 875.207 1233.97 878.537 1262.57C880.177 1276.7 881.937 1290.8 883.877 1304.88C884.857 1312.02 885.877 1319.12 887.177 1326.2C888.517 1333.44 890.887 1341.18 889.457 1348.5C889.427 1348.49 889.397 1348.48 889.367 1348.48C888.887 1350.6 887.607 1352.5 885.377 1353.81C881.287 1356.2 875.567 1354.8 873.217 1350.62C873.017 1350.27 872.827 1349.91 872.647 1349.54C870.238 1350.57 867.597 1350.97 864.357 1351L820.417 1351.44V1351.44C800.447 1351.64 780.477 1351.85 760.497 1352.14C697.768 1353.06 635.039 1354.13 572.31 1354.89L548.787 1355.16C513.507 1355.53 478.207 1356.26 442.927 1356.25C425.278 1356.25 407.647 1356.19 389.997 1355.76C381.447 1355.55 372.917 1355.22 364.377 1354.87L362.869 1354.8C356.051 1354.46 348.813 1353.83 342.147 1355.36C340.307 1358.94 335.607 1359.68 333.147 1356.02C327.525 1347.64 325.991 1335.96 324.952 1325.72L324.587 1322.04C323.437 1310.57 322.427 1299.1 321.677 1287.61C319.017 1246.9 318.047 1206.15 319.267 1165.36C319.887 1144.57 321.797 1123.9 324.057 1103.23C324.767 1096.78 325.507 1090.34 326.307 1083.91L326.32 1081.62C326.322 1080.89 326.317 1080.19 326.297 1079.54L326.097 1073.33C325.932 1068.16 325.778 1062.99 325.714 1057.81L325.687 1054.71L325.657 1048.93C320.717 1048.46 315.447 1046.82 311.187 1046.03C304.278 1044.74 297.387 1043.35 290.517 1041.88C276.757 1038.92 263.147 1035.42 249.627 1031.55L246.751 1030.72C234.276 1027.13 221.629 1023.29 209.827 1017.92C205.207 1015.81 200.597 1013.43 196.547 1010.31C196.307 1013.59 195.937 1016.86 195.717 1020.11C195.278 1026.54 194.757 1032.95 194.327 1039.38L193.915 1045.5C193.24 1055.69 192.632 1065.87 192.357 1076.1C191.137 1120.7 190.927 1165.49 193.287 1210.06C194.457 1232.37 196.127 1254.68 198.537 1276.9C199.717 1287.83 200.967 1298.79 202.507 1309.68C204.097 1320.87 206.967 1331.99 207.847 1343.26C208.687 1354.13 192.067 1355.71 189.337 1345.77C186.068 1333.85 185.235 1320.99 183.512 1308.74L183.317 1307.38C181.407 1294.36 179.877 1281.29 178.557 1268.2C173.999 1223.05 172.817 1177.67 175.207 1132.35C176.343 1110.64 179.037 1089.02 182.298 1067.55L182.677 1065.07C184.161 1055.45 185.551 1045.83 187.232 1036.26L187.877 1032.67C189.387 1024.44 190.547 1015.49 192.997 1007.26L192.268 1006.59C190.907 1005.32 189.431 1003.85 188.357 1002.27C184.657 1001.77 181.507 999.109 181.897 994.279C183.167 978.409 188.967 962.269 194.137 947.289C199.327 932.229 205.347 917.449 212.167 903.049C236.157 852.439 270.707 806.489 312.957 769.679C335.367 750.149 359.927 732.829 387.067 720.499C400.447 714.409 414.287 709.699 428.787 707.159C435.967 705.899 443.217 704.919 450.517 704.709C456.439 701.212 463.471 702.683 469.205 706.517L469.517 706.729H469.528L470.997 707.019V707.019C471.357 707.089 471.347 707.659 470.997 707.739C470.977 707.739 470.947 707.749 470.927 707.759C471.867 708.499 472.757 709.289 473.587 710.139C476.327 712.939 476.317 716.319 474.907 719.049C483.297 726.829 488.597 736.819 494.147 746.889C500.097 757.669 507.887 766.989 517.367 774.849C552.117 803.669 603.227 816.419 646.767 802.809C678.787 792.809 706.137 765.739 713.697 733.149C711.907 733.789 709.967 733.889 708.127 733.229C699.486 730.148 696.192 720.705 692.887 712.809L692.727 712.429C689.497 704.779 686.787 697.009 684.647 688.989C682.488 680.889 681.217 672.339 680.687 663.979C680.482 660.673 680.572 657.368 680.743 654.062L680.895 651.329C681.012 648.852 680.975 646.322 683.057 644.689ZM542.467 622.399C542.587 622.099 543.057 621.939 543.237 622.299C550.886 638.079 545.867 659.699 538.636 674.749C531.067 690.489 519.667 702.429 506.157 712.759C504.297 714.179 502.386 715.579 500.447 716.949C489.176 724.909 479.136 703.449 492.147 699.349C505.707 692.459 516.727 680.179 524.386 667.279C528.527 660.309 532.197 653.049 535.007 645.429C537.807 637.829 539.487 629.919 542.467 622.399Z" fill="#262626"/>
<path fill-rule="evenodd" clip-rule="evenodd" d="M616.285 238.706C660.962 238.706 714.566 260.411 719.124 260.845L719.247 260.851C721.645 260.851 731.014 268.005 747.355 282.311L729.656 316.905L731.088 318.276C737.942 324.861 743.794 330.863 748.412 335.595C786.124 374.229 792.902 525.919 784.015 578.818C775.127 631.717 758.666 683.48 682.03 683.48C605.393 683.48 520.133 637.303 507 622.922C498.244 613.336 488.409 608.743 477.494 609.144C477.046 608.577 476.601 608.011 476.16 607.447L474.554 607.219C459.449 605.027 448.625 602.076 442.084 598.368C429.308 591.124 415.266 553.045 415.266 544.657C415.266 536.352 394.297 475.94 393.878 469.547L393.872 469.37C393.872 464.025 366.478 439.458 366.478 431.656C366.478 423.854 360.957 424.327 366.478 396.833L368.083 388.756C373.958 359.484 385.459 311.013 429.308 289.95C477.494 266.805 571.156 238.706 616.285 238.706Z" fill="white"/>
<path fill-rule="evenodd" clip-rule="evenodd" d="M742.806 291.481L743.585 289.958C729.643 290.363 713.351 290.985 696.182 291.94C671.553 293.31 645.112 295.365 621.222 298.448C597.347 301.53 575.963 305.646 561.475 311.156C546.835 316.724 535.003 330.045 525.489 346.736C515.966 363.443 508.707 383.631 503.258 403.098C497.809 422.57 494.164 441.352 491.881 455.263C490.74 462.22 489.938 467.96 489.423 471.963C489.165 473.964 488.978 475.531 488.856 476.599C488.795 477.132 488.75 477.541 488.72 477.817L488.72 477.819C488.579 477.887 488.4 477.975 488.185 478.081C487.591 478.375 486.723 478.811 485.618 479.383C483.408 480.526 480.254 482.213 476.469 484.387C468.903 488.735 458.809 495.04 448.711 502.863C443.661 506.775 440.463 509.768 438.516 512.065C436.592 514.336 435.799 516.033 435.779 517.344C435.758 518.774 436.64 519.545 437.423 519.916C437.706 520.049 437.983 520.137 438.219 520.195C438.215 520.416 438.211 520.69 438.207 521.014C438.195 521.957 438.186 523.319 438.194 524.993C438.21 528.342 438.295 532.946 438.576 537.967C438.856 542.986 439.331 548.433 440.127 553.463C440.922 558.481 442.043 563.137 443.639 566.547C445.3 570.097 448.95 572.825 453.317 574.933C457.705 577.052 462.94 578.603 467.946 579.731C472.957 580.86 477.769 581.571 481.326 582C483.105 582.214 484.572 582.359 485.595 582.449C485.767 582.464 485.927 582.478 486.074 582.49C486.312 582.51 486.515 582.527 486.681 582.539L492.713 602.782L491.888 612.065C492.373 612.27 492.856 612.488 493.336 612.717L494.22 602.772L494.232 602.629L494.191 602.492L487.97 581.615L487.821 581.114L487.299 581.08L487.298 581.08L487.294 581.08L487.275 581.079L487.198 581.073L487.071 581.064L486.894 581.051C486.627 581.031 486.232 581 485.727 580.955C484.718 580.866 483.267 580.723 481.505 580.511C477.981 580.086 473.222 579.382 468.275 578.267C463.323 577.152 458.212 575.631 453.969 573.583C449.704 571.523 446.438 568.988 444.998 565.911C443.492 562.694 442.396 558.203 441.609 553.228C440.823 548.266 440.352 542.874 440.073 537.883C439.795 532.894 439.709 528.317 439.694 524.986C439.686 523.321 439.695 521.968 439.707 521.033C439.713 520.565 439.719 520.201 439.724 519.955C439.726 519.832 439.728 519.738 439.73 519.675L439.731 519.604L439.732 519.587L439.732 519.582L439.732 519.581L439.699 519.58L439.732 519.581L439.751 518.851L439.024 518.813L439.023 518.813L439.022 518.813L439.021 518.813L439.014 518.812C439.003 518.811 438.984 518.81 438.959 518.807C438.907 518.801 438.83 518.791 438.736 518.773C438.543 518.736 438.299 518.67 438.065 518.56C437.613 518.346 437.269 518.015 437.279 517.367C437.291 516.6 437.788 515.245 439.661 513.035C441.511 510.851 444.618 507.932 449.63 504.049C459.658 496.28 469.69 490.013 477.217 485.688C480.98 483.525 484.114 481.85 486.307 480.715C487.403 480.148 488.264 479.716 488.85 479.426C489.143 479.281 489.367 479.172 489.517 479.099C489.593 479.062 489.65 479.035 489.687 479.017L489.73 478.997L489.74 478.992L489.742 478.991L489.743 478.99L489.422 478.313L489.743 478.99L490.125 478.809L490.168 478.389L489.422 478.313C490.168 478.389 490.168 478.388 490.168 478.387L490.168 478.383L490.17 478.364L490.178 478.286L490.193 478.149L490.211 477.978C490.241 477.705 490.285 477.3 490.346 476.769C490.467 475.709 490.653 474.149 490.91 472.155C491.424 468.167 492.223 462.443 493.361 455.506C495.638 441.63 499.273 422.905 504.703 403.502C510.135 384.094 517.355 364.036 526.792 347.479C536.238 330.907 547.847 317.944 562.008 312.558C576.322 307.115 597.558 303.016 621.414 299.936C645.255 296.859 671.655 294.806 696.266 293.438C713.082 292.502 729.058 291.887 742.806 291.481Z" fill="white"/>
<path fill-rule="evenodd" clip-rule="evenodd" d="M421.87 288.863C445.902 263.301 582.336 223.763 651.361 232.144L653.432 232.413C658.94 233.113 664.369 234.173 669.726 235.613C687.044 239.666 704.932 245.803 719.241 256.054C731.187 264.44 768.87 278.135 757.763 300.073C761.882 307.892 763.418 317.552 760.635 325.253C760.285 327.913 759.467 330.363 758.42 332.903C767.218 345.914 774.185 360.628 779.824 374.623C789.678 409.844 795.81 446.498 796.708 482.433C799.696 550.705 792.225 632.256 732.889 676.404C697.044 704.379 640.894 705.319 600.613 670.633C598.326 667.922 587.576 660.606 591.164 659.323C592.231 660.453 593.329 661.553 594.447 662.633C594.396 662.513 594.386 662.393 594.407 662.263L593.355 661.309C591.376 659.474 588.811 656.812 591.732 657.333C591.861 657.483 592.002 657.613 592.14 657.763C592.759 658.135 593.226 658.457 593.59 658.741L593.777 658.891L593.719 658.831C592.037 657.033 591.028 655.199 593.544 656.371L593.877 656.533C594.995 657.713 596.132 658.843 597.29 659.943C597.271 659.813 597.29 659.683 597.36 659.543L596.281 658.498C595.228 657.464 595.388 657.459 595.904 656.623C593.664 653.478 597.844 655.346 598.138 656.573C600.753 655.953 603.049 660.873 604.734 661.473C678.577 718.363 785.737 667.884 784.002 509.359L783.975 506.257C783.468 455.568 779.211 403.469 758.289 357.583C756.255 353.163 753.978 348.863 751.475 344.703C749.748 341.583 747.902 338.543 745.916 335.583C740.357 335.133 734.869 334.113 729.461 332.533C727.604 332.063 725.768 331.543 723.933 330.933C697.11 332.399 670.884 333.994 643.986 335.506L635.584 336.03C612.798 337.498 589.233 339.85 570.846 353.973C552.804 366.831 552.722 392.186 537.277 406.303C515.254 421.282 515.093 434.789 510.852 456.863C511.167 473.503 522.68 497.68 501.552 504.683C505.116 509.776 500.148 507.329 499.757 505.543C499.717 505.553 499.677 505.563 499.647 505.563C502.823 511.48 498.154 507.754 497.741 505.853C497.492 505.783 497.242 505.603 496.993 505.353C500.193 510.537 495.02 506.907 495.326 505.963C489.142 496.438 476.415 494.959 467.444 497.483C467.334 497.823 466.936 497.853 466.687 497.673C428.54 505.957 438.383 585.093 477.474 577.443C479.147 577.101 479.107 577.906 479.44 577.983C478.537 575.607 481.082 576.574 481.055 577.073L481.21 577.065C481.333 577.055 481.283 577.041 481.375 577.073C480.502 572.214 485.415 579.254 485.027 579.543C485.178 579.453 485.347 579.403 485.497 579.383L485.328 578.922C484.512 576.745 484.582 577.65 484.588 576.403C483.975 574.862 483.93 575.536 484.074 574.532C486.227 572.86 486.863 577.932 487.582 578.303C486.35 576.583 487.329 575.178 488.491 576.112C497.295 594.67 508.668 612.107 523.366 625.843C524.973 627.113 526.6 628.363 528.285 629.543C534.537 635 544.127 638.509 549.98 643.343C549.98 643.423 549.941 643.523 549.881 643.623L550.015 643.744V643.744L550.15 643.873L552.186 644.853C552.785 645.363 553.324 645.933 553.802 646.563C554.311 647.153 554.76 647.803 555.14 648.493C555.329 649.333 554.91 649.683 554.112 649.323C553.762 649.203 553.413 649.063 553.064 648.933C553.084 648.963 553.093 648.983 553.114 649.003C553.229 649.177 554.004 650.977 553.11 650.684L553.004 650.643C552.514 650.463 552.026 650.263 551.547 650.073C552.116 650.783 552.634 651.553 553.093 652.203C553.583 652.713 553.881 653.313 554.002 653.993C553.981 654.373 553.773 654.533 553.393 654.483C552.815 654.293 552.246 654.093 551.676 653.883L551.838 654.193C552.241 654.986 552.813 656.317 551.797 655.873C550.928 655.603 550.09 655.293 549.252 654.953C549.181 655.093 549.043 655.143 548.763 655.013C546.099 654.063 543.524 652.903 541.059 651.533C538.894 649.953 536.708 648.403 534.533 646.833C532.487 645.603 530.511 644.233 528.626 642.693C516.006 634.525 504.959 624.149 496.194 612.593C481.536 625.314 452.229 613.161 434.101 603.203C418.066 594.303 411.763 577.847 410.133 560.105C406.745 536.219 387.267 528.043 388.622 475.633C388.592 475.643 388.561 475.643 388.521 475.643C387.812 475.433 387.125 475.153 386.476 474.793C385.808 474.473 385.179 474.093 384.589 473.633L383.861 472.623V472.623C383.483 472.413 383.143 472.193 382.884 471.973L382.749 472.147C382.323 472.662 382.61 471.887 382.634 471.733L381.369 470.008C378.368 465.903 375.077 461.297 372.395 457.613L372.311 457.763C372.25 457.876 372.218 457.957 372.246 457.993C365.865 448.805 359.864 437.707 358.196 426.963C356.227 418.687 356.997 410.159 358.714 402.493C366.077 375.648 390.198 314.9 421.87 288.863ZM595.052 660.116L594.652 659.759L595.004 660.201C595.188 660.429 595.377 660.634 595.684 660.843C595.664 660.773 595.664 660.703 595.673 660.623C595.469 660.467 595.261 660.297 595.052 660.116ZM651.056 245.633C604.247 241.6 558.207 251.934 513.54 264.443L510.458 265.33C485.06 272.593 458.204 279.128 436.74 294.673C406.752 317.69 391.267 354.306 377.754 388.113C365.954 413.231 371.986 441.554 389.768 459.093C391.618 441.664 394.773 424.745 399.702 407.962C400.731 405.34 399.953 404.481 402.17 404.139C405.519 449.367 389.025 482.783 421.666 536.385C435.829 561.677 419.434 580.183 459.429 593.492L460.511 593.906C468.844 597.057 477.943 599.544 486.105 597.783L485.373 596.591C484.628 595.364 484.402 594.768 485.486 594.243C485.457 594.183 485.417 594.123 485.376 594.053C484.499 592.393 483.651 590.713 482.842 589.013C482.513 589.123 482.184 589.203 481.844 589.293C482.064 589.703 482.093 590.113 481.475 590.253C479.276 591.009 477.018 591.312 474.707 591.17L474.211 591.133C471.599 590.973 469.954 590.496 468.482 590.053C467.994 589.973 467.505 589.893 467.025 589.793C462.29 588.741 457.278 586.065 454.033 583.413C417.054 562.365 420.876 490.716 466.457 483.943C467.392 438.831 488.804 362.723 524.339 319.736C556.459 280.195 644.147 263.057 705.155 269.1C706.044 269.395 706.933 269.693 707.822 269.994C717.234 270.832 726.204 275.034 735.623 276.986C728.86 271.907 721.189 268.524 713.286 265.649C697.542 255.998 679.492 250.776 662.054 247.093C658.441 246.203 654.779 245.713 651.056 245.633ZM464.371 520.183C466.822 518.849 466.541 520.137 467.105 519.763C484.734 518.322 503.743 533.789 513.597 546.683C512.818 547.493 510.713 545.093 510.344 544.713C510.294 544.763 510.234 544.803 510.174 544.823L510.448 545.211C514.442 550.955 506.525 544.196 505.783 542.803C505.654 542.873 505.524 542.913 505.374 542.883C506.002 543.5 507.919 545.109 508.248 546.253L508.756 546.677C513.549 550.789 513.151 553.883 507.71 548.043C507.839 548.313 507.889 548.563 507.799 548.763L507.986 548.888C510.662 550.762 512.862 555.984 507.27 550.623C507.852 554.539 501.729 546.97 501.532 547.023C490.937 538.688 475.337 530.582 462.046 529.493L461.588 529.44C459.149 529.126 457.996 528.401 458.853 526.803C455.849 526.087 456.552 524.605 457.974 524.653C455.856 523.257 457.763 521.922 458.992 522.443C458.147 520.098 461.537 521.66 461.846 521.333C463.606 518.614 464.08 520.882 464.371 520.183ZM427.419 374.833C435.886 371.725 460.896 381.029 458.896 393.351C457.704 396.18 453.778 397.801 451.019 396.204L447.418 393.78C441.151 389.574 435.499 385.886 428.77 382.218C425.108 380.397 423.531 376.531 427.419 374.833ZM475.592 356.522L472.322 354.389C454.676 342.816 429.729 325.279 473.971 343.423C479.013 345.59 485.713 346.872 488.464 351.684C492.786 360.553 481.412 361.149 475.592 356.522ZM477.575 304.593C476.159 299.208 493.779 305.527 498.908 307.193L499.689 307.488C504.679 309.351 510.398 311.08 513.382 315.395C516.879 321.357 509.802 322.592 505.418 319.899C496.43 314.013 486.576 309.572 477.575 304.593ZM522.381 279.508C512.463 268.654 539.006 279.052 542.981 281.938L543.095 282.023C546.062 284.116 545.46 288.624 542.673 289.948C534.743 290.099 528.907 283.475 522.381 279.508ZM567.511 267.617C551.745 256.262 572.514 261.663 579.728 266.113C584.644 270.458 579.58 277.793 567.511 267.617Z" fill="#262626"/>
<path fill-rule="evenodd" clip-rule="evenodd" d="M636.817 597.147C641.39 583.047 691.004 562.296 699.368 568.33C707.732 574.364 696.944 617.471 696.944 617.471C696.944 617.471 650.675 622.269 647.365 619.87C644.055 617.471 632.243 611.247 636.817 597.147Z" fill="white"/>
<path fill-rule="evenodd" clip-rule="evenodd" d="M721.321 569.417C721.62 569.744 720.961 570.184 720.632 569.946C716.823 567.185 710.823 568.752 707.146 570.002C707.146 570.002 705.802 613.317 707.289 614.343C708.776 615.369 729.733 614.76 729.733 617.33C729.733 625.731 717.13 628.885 710.289 628.385C699.518 627.6 688.417 626.064 677.661 627.308C666.905 628.552 644.055 635.416 632.359 625.93C618.409 614.616 620.295 596.022 631.902 583.883C639.219 576.232 649.985 571.641 660.601 568.24C676.136 563.263 712.748 560.05 721.321 569.417ZM692.668 601.217C687.035 603.41 659.031 612.658 652.377 614.343C660.154 613.785 686.707 613.168 692.668 610.283C693.337 607.583 693.764 600.79 692.668 601.217ZM696.944 571.191C681.701 573.666 648.784 584.83 644.055 590.773C651.241 589.643 691.332 584.83 695.855 584.83C696.512 581.332 696.076 575.199 696.944 571.191ZM701.814 503.367C709.366 507.957 720.872 518.66 712.748 530.04C703.186 540.073 689.419 528.569 682.634 523.366C676.343 519.334 669.275 529.704 675.112 534.413C724.136 570.708 744.031 504.567 705.634 497.97C701.406 497.243 699.836 501.947 701.814 503.367ZM718.557 436.39C722.99 436.354 725.579 439.231 728.903 441.793C732.326 444.432 736.453 446.537 740.454 448.149C744.626 449.828 749.086 451.161 753.478 452.112C758.031 453.096 762.22 452.635 766.74 453.468C778.722 455.677 775.886 475.656 763.871 474.668C753.057 473.779 741.448 467.135 733.247 460.246C729.328 456.954 726.02 453.182 722.8 449.24L722.198 448.499C719.34 444.973 716.671 441.364 718.105 436.735C718.167 436.535 718.345 436.393 718.557 436.39ZM618.616 494.699C618.63 488.322 622.344 473.762 631.524 473.762C637.259 473.762 640.741 483.671 641.344 493.886L641.365 494.302C641.631 500.653 639.888 514.534 631.524 514.534C623.072 514.534 618.704 501.387 618.617 494.924L618.616 494.699ZM753.774 494.699C753.76 488.322 750.046 473.762 740.866 473.762C735.274 473.762 731.824 483.182 731.097 493.12L731.046 493.886C730.684 500.022 732.314 514.534 740.866 514.534C749.318 514.534 753.686 501.387 753.773 494.924L753.774 494.699ZM648.658 437.342C654.383 434.871 660.944 435.573 664.391 441.467C667.654 447.045 665.433 453.768 660.265 457.2C655.19 460.571 648.377 462.404 642.541 464.332L641.897 464.547C636.241 466.45 630.581 468.006 624.739 469.222C619.28 470.358 613.78 471.199 608.248 471.87L606.587 472.067C602.272 472.565 596.253 474.242 592.369 471.786C592.024 471.569 591.891 471.12 592.099 470.76C594.36 466.845 600.362 465.285 604.213 463.302C609.158 460.754 614.032 458.041 618.862 455.282C623.745 452.492 628.615 449.656 633.446 446.776C638.464 443.785 643.322 439.644 648.658 437.342Z" fill="#262626"/>
<path d="M1006.56 184.8H1000.44L1006.2 171.18H1010.1L1006.56 184.8ZM1016.28 184.8H1010.16L1015.92 171.18H1019.82L1016.28 184.8ZM1031.87 171.18V213H1026.41V171.18H1031.87ZM1100.97 180.12L1090.71 213H1085.07L1077.15 186.9L1069.23 213H1063.59L1053.27 180.12H1058.85L1066.41 207.72L1074.57 180.12H1080.15L1088.13 207.78L1095.57 180.12H1100.97ZM1136.39 195.3C1136.39 196.34 1136.33 197.44 1136.21 198.6H1109.93C1110.13 201.84 1111.23 204.38 1113.23 206.22C1115.27 208.02 1117.73 208.92 1120.61 208.92C1122.97 208.92 1124.93 208.38 1126.49 207.3C1128.09 206.18 1129.21 204.7 1129.85 202.86H1135.73C1134.85 206.02 1133.09 208.6 1130.45 210.6C1127.81 212.56 1124.53 213.54 1120.61 213.54C1117.49 213.54 1114.69 212.84 1112.21 211.44C1109.77 210.04 1107.85 208.06 1106.45 205.5C1105.05 202.9 1104.35 199.9 1104.35 196.5C1104.35 193.1 1105.03 190.12 1106.39 187.56C1107.75 185 1109.65 183.04 1112.09 181.68C1114.57 180.28 1117.41 179.58 1120.61 179.58C1123.73 179.58 1126.49 180.26 1128.89 181.62C1131.29 182.98 1133.13 184.86 1134.41 187.26C1135.73 189.62 1136.39 192.3 1136.39 195.3ZM1130.75 194.16C1130.75 192.08 1130.29 190.3 1129.37 188.82C1128.45 187.3 1127.19 186.16 1125.59 185.4C1124.03 184.6 1122.29 184.2 1120.37 184.2C1117.61 184.2 1115.25 185.08 1113.29 186.84C1111.37 188.6 1110.27 191.04 1109.99 194.16H1130.75ZM1159.62 179.52C1163.62 179.52 1166.86 180.74 1169.34 183.18C1171.82 185.58 1173.06 189.06 1173.06 193.62V213H1167.66V194.4C1167.66 191.12 1166.84 188.62 1165.2 186.9C1163.56 185.14 1161.32 184.26 1158.48 184.26C1155.6 184.26 1153.3 185.16 1151.58 186.96C1149.9 188.76 1149.06 191.38 1149.06 194.82V213H1143.6V180.12H1149.06V184.8C1150.14 183.12 1151.6 181.82 1153.44 180.9C1155.32 179.98 1157.38 179.52 1159.62 179.52ZM1188.64 184.62V204C1188.64 205.6 1188.98 206.74 1189.66 207.42C1190.34 208.06 1191.52 208.38 1193.2 208.38H1197.22V213H1192.3C1189.26 213 1186.98 212.3 1185.46 210.9C1183.94 209.5 1183.18 207.2 1183.18 204V184.62H1178.92V180.12H1183.18V171.84H1188.64V180.12H1197.22V184.62H1188.64ZM1226.49 184.62V204C1226.49 205.6 1226.83 206.74 1227.51 207.42C1228.19 208.06 1229.37 208.38 1231.05 208.38H1235.07V213H1230.15C1227.11 213 1224.83 212.3 1223.31 210.9C1221.79 209.5 1221.03 207.2 1221.03 204V184.62H1216.77V180.12H1221.03V171.84H1226.49V180.12H1235.07V184.62H1226.49ZM1256.03 213.54C1252.95 213.54 1250.15 212.84 1247.63 211.44C1245.15 210.04 1243.19 208.06 1241.75 205.5C1240.35 202.9 1239.65 199.9 1239.65 196.5C1239.65 193.14 1240.37 190.18 1241.81 187.62C1243.29 185.02 1245.29 183.04 1247.81 181.68C1250.33 180.28 1253.15 179.58 1256.27 179.58C1259.39 179.58 1262.21 180.28 1264.73 181.68C1267.25 183.04 1269.23 185 1270.67 187.56C1272.15 190.12 1272.89 193.1 1272.89 196.5C1272.89 199.9 1272.13 202.9 1270.61 205.5C1269.13 208.06 1267.11 210.04 1264.55 211.44C1261.99 212.84 1259.15 213.54 1256.03 213.54ZM1256.03 208.74C1257.99 208.74 1259.83 208.28 1261.55 207.36C1263.27 206.44 1264.65 205.06 1265.69 203.22C1266.77 201.38 1267.31 199.14 1267.31 196.5C1267.31 193.86 1266.79 191.62 1265.75 189.78C1264.71 187.94 1263.35 186.58 1261.67 185.7C1259.99 184.78 1258.17 184.32 1256.21 184.32C1254.21 184.32 1252.37 184.78 1250.69 185.7C1249.05 186.58 1247.73 187.94 1246.73 189.78C1245.73 191.62 1245.23 193.86 1245.23 196.5C1245.23 199.18 1245.71 201.44 1246.67 203.28C1247.67 205.12 1248.99 206.5 1250.63 207.42C1252.27 208.3 1254.07 208.74 1256.03 208.74ZM1302.72 184.62V204C1302.72 205.6 1303.06 206.74 1303.74 207.42C1304.42 208.06 1305.6 208.38 1307.28 208.38H1311.3V213H1306.38C1303.34 213 1301.06 212.3 1299.54 210.9C1298.02 209.5 1297.26 207.2 1297.26 204V184.62H1293V180.12H1297.26V171.84H1302.72V180.12H1311.3V184.62H1302.72ZM1334.24 179.52C1336.72 179.52 1338.96 180.06 1340.96 181.14C1342.96 182.18 1344.52 183.76 1345.64 185.88C1346.8 188 1347.38 190.58 1347.38 193.62V213H1341.98V194.4C1341.98 191.12 1341.16 188.62 1339.52 186.9C1337.88 185.14 1335.64 184.26 1332.8 184.26C1329.92 184.26 1327.62 185.16 1325.9 186.96C1324.22 188.76 1323.38 191.38 1323.38 194.82V213H1317.92V168.6H1323.38V184.8C1324.46 183.12 1325.94 181.82 1327.82 180.9C1329.74 179.98 1331.88 179.52 1334.24 179.52ZM1386.3 195.3C1386.3 196.34 1386.24 197.44 1386.12 198.6H1359.84C1360.04 201.84 1361.14 204.38 1363.14 206.22C1365.18 208.02 1367.64 208.92 1370.52 208.92C1372.88 208.92 1374.84 208.38 1376.4 207.3C1378 206.18 1379.12 204.7 1379.76 202.86H1385.64C1384.76 206.02 1383 208.6 1380.36 210.6C1377.72 212.56 1374.44 213.54 1370.52 213.54C1367.4 213.54 1364.6 212.84 1362.12 211.44C1359.68 210.04 1357.76 208.06 1356.36 205.5C1354.96 202.9 1354.26 199.9 1354.26 196.5C1354.26 193.1 1354.94 190.12 1356.3 187.56C1357.66 185 1359.56 183.04 1362 181.68C1364.48 180.28 1367.32 179.58 1370.52 179.58C1373.64 179.58 1376.4 180.26 1378.8 181.62C1381.2 182.98 1383.04 184.86 1384.32 187.26C1385.64 189.62 1386.3 192.3 1386.3 195.3ZM1380.66 194.16C1380.66 192.08 1380.2 190.3 1379.28 188.82C1378.36 187.3 1377.1 186.16 1375.5 185.4C1373.94 184.6 1372.2 184.2 1370.28 184.2C1367.52 184.2 1365.16 185.08 1363.2 186.84C1361.28 188.6 1360.18 191.04 1359.9 194.16H1380.66ZM1414.96 168.6V213H1409.5V168.6H1414.96ZM1427.08 174.78C1426.04 174.78 1425.16 174.42 1424.44 173.7C1423.72 172.98 1423.36 172.1 1423.36 171.06C1423.36 170.02 1423.72 169.14 1424.44 168.42C1425.16 167.7 1426.04 167.34 1427.08 167.34C1428.08 167.34 1428.92 167.7 1429.6 168.42C1430.32 169.14 1430.68 170.02 1430.68 171.06C1430.68 172.1 1430.32 172.98 1429.6 173.7C1428.92 174.42 1428.08 174.78 1427.08 174.78ZM1429.72 180.12V213H1424.26V180.12H1429.72ZM1444.49 186.24C1445.61 184.28 1447.25 182.68 1449.41 181.44C1451.57 180.2 1454.03 179.58 1456.79 179.58C1459.75 179.58 1462.41 180.28 1464.77 181.68C1467.13 183.08 1468.99 185.06 1470.35 187.62C1471.71 190.14 1472.39 193.08 1472.39 196.44C1472.39 199.76 1471.71 202.72 1470.35 205.32C1468.99 207.92 1467.11 209.94 1464.71 211.38C1462.35 212.82 1459.71 213.54 1456.79 213.54C1453.95 213.54 1451.45 212.92 1449.29 211.68C1447.17 210.44 1445.57 208.86 1444.49 206.94V213H1439.03V168.6H1444.49V186.24ZM1466.81 196.44C1466.81 193.96 1466.31 191.8 1465.31 189.96C1464.31 188.12 1462.95 186.72 1461.23 185.76C1459.55 184.8 1457.69 184.32 1455.65 184.32C1453.65 184.32 1451.79 184.82 1450.07 185.82C1448.39 186.78 1447.03 188.2 1445.99 190.08C1444.99 191.92 1444.49 194.06 1444.49 196.5C1444.49 198.98 1444.99 201.16 1445.99 203.04C1447.03 204.88 1448.39 206.3 1450.07 207.3C1451.79 208.26 1453.65 208.74 1455.65 208.74C1457.69 208.74 1459.55 208.26 1461.23 207.3C1462.95 206.3 1464.31 204.88 1465.31 203.04C1466.31 201.16 1466.81 198.96 1466.81 196.44ZM1485.04 185.46C1486 183.58 1487.36 182.12 1489.12 181.08C1490.92 180.04 1493.1 179.52 1495.66 179.52V185.16H1494.22C1488.1 185.16 1485.04 188.48 1485.04 195.12V213H1479.58V180.12H1485.04V185.46ZM1499.92 196.44C1499.92 193.08 1500.6 190.14 1501.96 187.62C1503.32 185.06 1505.18 183.08 1507.54 181.68C1509.94 180.28 1512.6 179.58 1515.52 179.58C1518.4 179.58 1520.9 180.2 1523.02 181.44C1525.14 182.68 1526.72 184.24 1527.76 186.12V180.12H1533.28V213H1527.76V206.88C1526.68 208.8 1525.06 210.4 1522.9 211.68C1520.78 212.92 1518.3 213.54 1515.46 213.54C1512.54 213.54 1509.9 212.82 1507.54 211.38C1505.18 209.94 1503.32 207.92 1501.96 205.32C1500.6 202.72 1499.92 199.76 1499.92 196.44ZM1527.76 196.5C1527.76 194.02 1527.26 191.86 1526.26 190.02C1525.26 188.18 1523.9 186.78 1522.18 185.82C1520.5 184.82 1518.64 184.32 1516.6 184.32C1514.56 184.32 1512.7 184.8 1511.02 185.76C1509.34 186.72 1508 188.12 1507 189.96C1506 191.8 1505.5 193.96 1505.5 196.44C1505.5 198.96 1506 201.16 1507 203.04C1508 204.88 1509.34 206.3 1511.02 207.3C1512.7 208.26 1514.56 208.74 1516.6 208.74C1518.64 208.74 1520.5 208.26 1522.18 207.3C1523.9 206.3 1525.26 204.88 1526.26 203.04C1527.26 201.16 1527.76 198.98 1527.76 196.5ZM1547.97 185.46C1548.93 183.58 1550.29 182.12 1552.05 181.08C1553.85 180.04 1556.03 179.52 1558.59 179.52V185.16H1557.15C1551.03 185.16 1547.97 188.48 1547.97 195.12V213H1542.51V180.12H1547.97V185.46ZM1593.21 180.12L1573.41 228.48H1567.77L1574.25 212.64L1560.99 180.12H1567.05L1577.37 206.76L1587.57 180.12H1593.21ZM1612.65 196.44C1612.65 193.08 1613.33 190.14 1614.69 187.62C1616.05 185.06 1617.91 183.08 1620.27 181.68C1622.67 180.28 1625.33 179.58 1628.25 179.58C1631.13 179.58 1633.63 180.2 1635.75 181.44C1637.87 182.68 1639.45 184.24 1640.49 186.12V180.12H1646.01V213H1640.49V206.88C1639.41 208.8 1637.79 210.4 1635.63 211.68C1633.51 212.92 1631.03 213.54 1628.19 213.54C1625.27 213.54 1622.63 212.82 1620.27 211.38C1617.91 209.94 1616.05 207.92 1614.69 205.32C1613.33 202.72 1612.65 199.76 1612.65 196.44ZM1640.49 196.5C1640.49 194.02 1639.99 191.86 1638.99 190.02C1637.99 188.18 1636.63 186.78 1634.91 185.82C1633.23 184.82 1631.37 184.32 1629.33 184.32C1627.29 184.32 1625.43 184.8 1623.75 185.76C1622.07 186.72 1620.73 188.12 1619.73 189.96C1618.73 191.8 1618.23 193.96 1618.23 196.44C1618.23 198.96 1618.73 201.16 1619.73 203.04C1620.73 204.88 1622.07 206.3 1623.75 207.3C1625.43 208.26 1627.29 208.74 1629.33 208.74C1631.37 208.74 1633.23 208.26 1634.91 207.3C1636.63 206.3 1637.99 204.88 1638.99 203.04C1639.99 201.16 1640.49 198.98 1640.49 196.5ZM1671.26 179.52C1675.26 179.52 1678.5 180.74 1680.98 183.18C1683.46 185.58 1684.7 189.06 1684.7 193.62V213H1679.3V194.4C1679.3 191.12 1678.48 188.62 1676.84 186.9C1675.2 185.14 1672.96 184.26 1670.12 184.26C1667.24 184.26 1664.94 185.16 1663.22 186.96C1661.54 188.76 1660.7 191.38 1660.7 194.82V213H1655.24V180.12H1660.7V184.8C1661.78 183.12 1663.24 181.82 1665.08 180.9C1666.96 179.98 1669.02 179.52 1671.26 179.52ZM1691.58 196.44C1691.58 193.08 1692.26 190.14 1693.62 187.62C1694.98 185.06 1696.84 183.08 1699.2 181.68C1701.6 180.28 1704.28 179.58 1707.24 179.58C1709.8 179.58 1712.18 180.18 1714.38 181.38C1716.58 182.54 1718.26 184.08 1719.42 186V168.6H1724.94V213H1719.42V206.82C1718.34 208.78 1716.74 210.4 1714.62 211.68C1712.5 212.92 1710.02 213.54 1707.18 213.54C1704.26 213.54 1701.6 212.82 1699.2 211.38C1696.84 209.94 1694.98 207.92 1693.62 205.32C1692.26 202.72 1691.58 199.76 1691.58 196.44ZM1719.42 196.5C1719.42 194.02 1718.92 191.86 1717.92 190.02C1716.92 188.18 1715.56 186.78 1713.84 185.82C1712.16 184.82 1710.3 184.32 1708.26 184.32C1706.22 184.32 1704.36 184.8 1702.68 185.76C1701 186.72 1699.66 188.12 1698.66 189.96C1697.66 191.8 1697.16 193.96 1697.16 196.44C1697.16 198.96 1697.66 201.16 1698.66 203.04C1699.66 204.88 1701 206.3 1702.68 207.3C1704.36 208.26 1706.22 208.74 1708.26 208.74C1710.3 208.74 1712.16 208.26 1713.84 207.3C1715.56 206.3 1716.92 204.88 1717.92 203.04C1718.92 201.16 1719.42 198.98 1719.42 196.5ZM1752.98 174.78C1751.94 174.78 1751.06 174.42 1750.34 173.7C1749.62 172.98 1749.26 172.1 1749.26 171.06C1749.26 170.02 1749.62 169.14 1750.34 168.42C1751.06 167.7 1751.94 167.34 1752.98 167.34C1753.98 167.34 1754.82 167.7 1755.5 168.42C1756.22 169.14 1756.58 170.02 1756.58 171.06C1756.58 172.1 1756.22 172.98 1755.5 173.7C1754.82 174.42 1753.98 174.78 1752.98 174.78ZM1755.62 180.12V213H1750.16V180.12H1755.62ZM1771.59 184.62V204C1771.59 205.6 1771.93 206.74 1772.61 207.42C1773.29 208.06 1774.47 208.38 1776.15 208.38H1780.17V213H1775.25C1772.21 213 1769.93 212.3 1768.41 210.9C1766.89 209.5 1766.13 207.2 1766.13 204V184.62H1761.87V180.12H1766.13V171.84H1771.59V180.12H1780.17V184.62H1771.59ZM1846.58 180.12L1836.32 213H1830.68L1822.76 186.9L1814.84 213H1809.2L1798.88 180.12H1804.46L1812.02 207.72L1820.18 180.12H1825.76L1833.74 207.78L1841.18 180.12H1846.58ZM1849.96 196.44C1849.96 193.08 1850.64 190.14 1852 187.62C1853.36 185.06 1855.22 183.08 1857.58 181.68C1859.98 180.28 1862.64 179.58 1865.56 179.58C1868.44 179.58 1870.94 180.2 1873.06 181.44C1875.18 182.68 1876.76 184.24 1877.8 186.12V180.12H1883.32V213H1877.8V206.88C1876.72 208.8 1875.1 210.4 1872.94 211.68C1870.82 212.92 1868.34 213.54 1865.5 213.54C1862.58 213.54 1859.94 212.82 1857.58 211.38C1855.22 209.94 1853.36 207.92 1852 205.32C1850.64 202.72 1849.96 199.76 1849.96 196.44ZM1877.8 196.5C1877.8 194.02 1877.3 191.86 1876.3 190.02C1875.3 188.18 1873.94 186.78 1872.22 185.82C1870.54 184.82 1868.68 184.32 1866.64 184.32C1864.6 184.32 1862.74 184.8 1861.06 185.76C1859.38 186.72 1858.04 188.12 1857.04 189.96C1856.04 191.8 1855.54 193.96 1855.54 196.44C1855.54 198.96 1856.04 201.16 1857.04 203.04C1858.04 204.88 1859.38 206.3 1861.06 207.3C1862.74 208.26 1864.6 208.74 1866.64 208.74C1868.68 208.74 1870.54 208.26 1872.22 207.3C1873.94 206.3 1875.3 204.88 1876.3 203.04C1877.3 201.16 1877.8 198.98 1877.8 196.5ZM1904.19 213.54C1901.67 213.54 1899.41 213.12 1897.41 212.28C1895.41 211.4 1893.83 210.2 1892.67 208.68C1891.51 207.12 1890.87 205.34 1890.75 203.34H1896.39C1896.55 204.98 1897.31 206.32 1898.67 207.36C1900.07 208.4 1901.89 208.92 1904.13 208.92C1906.21 208.92 1907.85 208.46 1909.05 207.54C1910.25 206.62 1910.85 205.46 1910.85 204.06C1910.85 202.62 1910.21 201.56 1908.93 200.88C1907.65 200.16 1905.67 199.46 1902.99 198.78C1900.55 198.14 1898.55 197.5 1896.99 196.86C1895.47 196.18 1894.15 195.2 1893.03 193.92C1891.95 192.6 1891.41 190.88 1891.41 188.76C1891.41 187.08 1891.91 185.54 1892.91 184.14C1893.91 182.74 1895.33 181.64 1897.17 180.84C1899.01 180 1901.11 179.58 1903.47 179.58C1907.11 179.58 1910.05 180.5 1912.29 182.34C1914.53 184.18 1915.73 186.7 1915.89 189.9H1910.43C1910.31 188.18 1909.61 186.8 1908.33 185.76C1907.09 184.72 1905.41 184.2 1903.29 184.2C1901.33 184.2 1899.77 184.62 1898.61 185.46C1897.45 186.3 1896.87 187.4 1896.87 188.76C1896.87 189.84 1897.21 190.74 1897.89 191.46C1898.61 192.14 1899.49 192.7 1900.53 193.14C1901.61 193.54 1903.09 194 1904.97 194.52C1907.33 195.16 1909.25 195.8 1910.73 196.44C1912.21 197.04 1913.47 197.96 1914.51 199.2C1915.59 200.44 1916.15 202.06 1916.19 204.06C1916.19 205.86 1915.69 207.48 1914.69 208.92C1913.69 210.36 1912.27 211.5 1910.43 212.34C1908.63 213.14 1906.55 213.54 1904.19 213.54ZM1953.27 184.62H1946.37V213H1940.91V184.62H1936.65V180.12H1940.91V177.78C1940.91 174.1 1941.85 171.42 1943.73 169.74C1945.65 168.02 1948.71 167.16 1952.91 167.16V171.72C1950.51 171.72 1948.81 172.2 1947.81 173.16C1946.85 174.08 1946.37 175.62 1946.37 177.78V180.12H1953.27V184.62ZM1988.8 180.12V213H1983.34V208.14C1982.3 209.82 1980.84 211.14 1978.96 212.1C1977.12 213.02 1975.08 213.48 1972.84 213.48C1970.28 213.48 1967.98 212.96 1965.94 211.92C1963.9 210.84 1962.28 209.24 1961.08 207.12C1959.92 205 1959.34 202.42 1959.34 199.38V180.12H1964.74V198.66C1964.74 201.9 1965.56 204.4 1967.2 206.16C1968.84 207.88 1971.08 208.74 1973.92 208.74C1976.84 208.74 1979.14 207.84 1980.82 206.04C1982.5 204.24 1983.34 201.62 1983.34 198.18V180.12H1988.8ZM2003.47 168.6V213H1998.01V168.6H2003.47ZM2018.24 168.6V213H2012.78V168.6H2018.24ZM2033.19 205.44L2026.47 221.58H2022.81L2027.19 205.44H2033.19ZM1009.08 261.18V303H1003.62V261.18H1009.08ZM1047.76 274.62H1040.86V303H1035.4V274.62H1031.14V270.12H1035.4V267.78C1035.4 264.1 1036.34 261.42 1038.22 259.74C1040.14 258.02 1043.2 257.16 1047.4 257.16V261.72C1045 261.72 1043.3 262.2 1042.3 263.16C1041.34 264.08 1040.86 265.62 1040.86 267.78V270.12H1047.76V274.62ZM1084.13 285.3C1084.13 286.34 1084.07 287.44 1083.95 288.6H1057.67C1057.87 291.84 1058.97 294.38 1060.97 296.22C1063.01 298.02 1065.47 298.92 1068.35 298.92C1070.71 298.92 1072.67 298.38 1074.23 297.3C1075.83 296.18 1076.95 294.7 1077.59 292.86H1083.47C1082.59 296.02 1080.83 298.6 1078.19 300.6C1075.55 302.56 1072.27 303.54 1068.35 303.54C1065.23 303.54 1062.43 302.84 1059.95 301.44C1057.51 300.04 1055.59 298.06 1054.19 295.5C1052.79 292.9 1052.09 289.9 1052.09 286.5C1052.09 283.1 1052.77 280.12 1054.13 277.56C1055.49 275 1057.39 273.04 1059.83 271.68C1062.31 270.28 1065.15 269.58 1068.35 269.58C1071.47 269.58 1074.23 270.26 1076.63 271.62C1079.03 272.98 1080.87 274.86 1082.15 277.26C1083.47 279.62 1084.13 282.3 1084.13 285.3ZM1078.49 284.16C1078.49 282.08 1078.03 280.3 1077.11 278.82C1076.19 277.3 1074.93 276.16 1073.33 275.4C1071.77 274.6 1070.03 274.2 1068.11 274.2C1065.35 274.2 1062.99 275.08 1061.03 276.84C1059.11 278.6 1058.01 281.04 1057.73 284.16H1078.49ZM1096.79 258.6V303H1091.33V258.6H1096.79ZM1112.76 274.62V294C1112.76 295.6 1113.1 296.74 1113.78 297.42C1114.46 298.06 1115.64 298.38 1117.32 298.38H1121.34V303H1116.42C1113.38 303 1111.1 302.3 1109.58 300.9C1108.06 299.5 1107.3 297.2 1107.3 294V274.62H1103.04V270.12H1107.3V261.84H1112.76V270.12H1121.34V274.62H1112.76ZM1149.41 275.46C1150.37 273.58 1151.73 272.12 1153.49 271.08C1155.29 270.04 1157.47 269.52 1160.03 269.52V275.16H1158.59C1152.47 275.16 1149.41 278.48 1149.41 285.12V303H1143.95V270.12H1149.41V275.46ZM1196.33 285.3C1196.33 286.34 1196.27 287.44 1196.15 288.6H1169.87C1170.07 291.84 1171.17 294.38 1173.17 296.22C1175.21 298.02 1177.67 298.92 1180.55 298.92C1182.91 298.92 1184.87 298.38 1186.43 297.3C1188.03 296.18 1189.15 294.7 1189.79 292.86H1195.67C1194.79 296.02 1193.03 298.6 1190.39 300.6C1187.75 302.56 1184.47 303.54 1180.55 303.54C1177.43 303.54 1174.63 302.84 1172.15 301.44C1169.71 300.04 1167.79 298.06 1166.39 295.5C1164.99 292.9 1164.29 289.9 1164.29 286.5C1164.29 283.1 1164.97 280.12 1166.33 277.56C1167.69 275 1169.59 273.04 1172.03 271.68C1174.51 270.28 1177.35 269.58 1180.55 269.58C1183.67 269.58 1186.43 270.26 1188.83 271.62C1191.23 272.98 1193.07 274.86 1194.35 277.26C1195.67 279.62 1196.33 282.3 1196.33 285.3ZM1190.69 284.16C1190.69 282.08 1190.23 280.3 1189.31 278.82C1188.39 277.3 1187.13 276.16 1185.53 275.4C1183.97 274.6 1182.23 274.2 1180.31 274.2C1177.55 274.2 1175.19 275.08 1173.23 276.84C1171.31 278.6 1170.21 281.04 1169.93 284.16H1190.69ZM1201.5 286.44C1201.5 283.08 1202.18 280.14 1203.54 277.62C1204.9 275.06 1206.76 273.08 1209.12 271.68C1211.52 270.28 1214.18 269.58 1217.1 269.58C1219.98 269.58 1222.48 270.2 1224.6 271.44C1226.72 272.68 1228.3 274.24 1229.34 276.12V270.12H1234.86V303H1229.34V296.88C1228.26 298.8 1226.64 300.4 1224.48 301.68C1222.36 302.92 1219.88 303.54 1217.04 303.54C1214.12 303.54 1211.48 302.82 1209.12 301.38C1206.76 299.94 1204.9 297.92 1203.54 295.32C1202.18 292.72 1201.5 289.76 1201.5 286.44ZM1229.34 286.5C1229.34 284.02 1228.84 281.86 1227.84 280.02C1226.84 278.18 1225.48 276.78 1223.76 275.82C1222.08 274.82 1220.22 274.32 1218.18 274.32C1216.14 274.32 1214.28 274.8 1212.6 275.76C1210.92 276.72 1209.58 278.12 1208.58 279.96C1207.58 281.8 1207.08 283.96 1207.08 286.44C1207.08 288.96 1207.58 291.16 1208.58 293.04C1209.58 294.88 1210.92 296.3 1212.6 297.3C1214.28 298.26 1216.14 298.74 1218.18 298.74C1220.22 298.74 1222.08 298.26 1223.76 297.3C1225.48 296.3 1226.84 294.88 1227.84 293.04C1228.84 291.16 1229.34 288.98 1229.34 286.5ZM1249.55 258.6V303H1244.09V258.6H1249.55ZM1264.31 258.6V303H1258.85V258.6H1264.31ZM1301.94 270.12L1282.14 318.48H1276.5L1282.98 302.64L1269.72 270.12H1275.78L1286.1 296.76L1296.3 270.12H1301.94ZM1336.8 274.62H1329.9V303H1324.44V274.62H1320.18V270.12H1324.44V267.78C1324.44 264.1 1325.38 261.42 1327.26 259.74C1329.18 258.02 1332.24 257.16 1336.44 257.16V261.72C1334.04 261.72 1332.34 262.2 1331.34 263.16C1330.38 264.08 1329.9 265.62 1329.9 267.78V270.12H1336.8V274.62ZM1348.63 275.46C1349.59 273.58 1350.95 272.12 1352.71 271.08C1354.51 270.04 1356.69 269.52 1359.25 269.52V275.16H1357.81C1351.69 275.16 1348.63 278.48 1348.63 285.12V303H1343.17V270.12H1348.63V275.46ZM1394.71 270.12V303H1389.25V298.14C1388.21 299.82 1386.75 301.14 1384.87 302.1C1383.03 303.02 1380.99 303.48 1378.75 303.48C1376.19 303.48 1373.89 302.96 1371.85 301.92C1369.81 300.84 1368.19 299.24 1366.99 297.12C1365.83 295 1365.25 292.42 1365.25 289.38V270.12H1370.65V288.66C1370.65 291.9 1371.47 294.4 1373.11 296.16C1374.75 297.88 1376.99 298.74 1379.83 298.74C1382.75 298.74 1385.05 297.84 1386.73 296.04C1388.41 294.24 1389.25 291.62 1389.25 288.18V270.12H1394.71ZM1415.57 303.54C1413.05 303.54 1410.79 303.12 1408.79 302.28C1406.79 301.4 1405.21 300.2 1404.05 298.68C1402.89 297.12 1402.25 295.34 1402.13 293.34H1407.77C1407.93 294.98 1408.69 296.32 1410.05 297.36C1411.45 298.4 1413.27 298.92 1415.51 298.92C1417.59 298.92 1419.23 298.46 1420.43 297.54C1421.63 296.62 1422.23 295.46 1422.23 294.06C1422.23 292.62 1421.59 291.56 1420.31 290.88C1419.03 290.16 1417.05 289.46 1414.37 288.78C1411.93 288.14 1409.93 287.5 1408.37 286.86C1406.85 286.18 1405.53 285.2 1404.41 283.92C1403.33 282.6 1402.79 280.88 1402.79 278.76C1402.79 277.08 1403.29 275.54 1404.29 274.14C1405.29 272.74 1406.71 271.64 1408.55 270.84C1410.39 270 1412.49 269.58 1414.85 269.58C1418.49 269.58 1421.43 270.5 1423.67 272.34C1425.91 274.18 1427.11 276.7 1427.27 279.9H1421.81C1421.69 278.18 1420.99 276.8 1419.71 275.76C1418.47 274.72 1416.79 274.2 1414.67 274.2C1412.71 274.2 1411.15 274.62 1409.99 275.46C1408.83 276.3 1408.25 277.4 1408.25 278.76C1408.25 279.84 1408.59 280.74 1409.27 281.46C1409.99 282.14 1410.87 282.7 1411.91 283.14C1412.99 283.54 1414.47 284 1416.35 284.52C1418.71 285.16 1420.63 285.8 1422.11 286.44C1423.59 287.04 1424.85 287.96 1425.89 289.2C1426.97 290.44 1427.53 292.06 1427.57 294.06C1427.57 295.86 1427.07 297.48 1426.07 298.92C1425.07 300.36 1423.65 301.5 1421.81 302.34C1420.01 303.14 1417.93 303.54 1415.57 303.54ZM1441.94 274.62V294C1441.94 295.6 1442.28 296.74 1442.96 297.42C1443.64 298.06 1444.82 298.38 1446.5 298.38H1450.52V303H1445.6C1442.56 303 1440.28 302.3 1438.76 300.9C1437.24 299.5 1436.48 297.2 1436.48 294V274.62H1432.22V270.12H1436.48V261.84H1441.94V270.12H1450.52V274.62H1441.94ZM1462.6 275.46C1463.56 273.58 1464.92 272.12 1466.68 271.08C1468.48 270.04 1470.66 269.52 1473.22 269.52V275.16H1471.78C1465.66 275.16 1462.6 278.48 1462.6 285.12V303H1457.14V270.12H1462.6V275.46ZM1477.48 286.44C1477.48 283.08 1478.16 280.14 1479.52 277.62C1480.88 275.06 1482.74 273.08 1485.1 271.68C1487.5 270.28 1490.16 269.58 1493.08 269.58C1495.96 269.58 1498.46 270.2 1500.58 271.44C1502.7 272.68 1504.28 274.24 1505.32 276.12V270.12H1510.84V303H1505.32V296.88C1504.24 298.8 1502.62 300.4 1500.46 301.68C1498.34 302.92 1495.86 303.54 1493.02 303.54C1490.1 303.54 1487.46 302.82 1485.1 301.38C1482.74 299.94 1480.88 297.92 1479.52 295.32C1478.16 292.72 1477.48 289.76 1477.48 286.44ZM1505.32 286.5C1505.32 284.02 1504.82 281.86 1503.82 280.02C1502.82 278.18 1501.46 276.78 1499.74 275.82C1498.06 274.82 1496.2 274.32 1494.16 274.32C1492.12 274.32 1490.26 274.8 1488.58 275.76C1486.9 276.72 1485.56 278.12 1484.56 279.96C1483.56 281.8 1483.06 283.96 1483.06 286.44C1483.06 288.96 1483.56 291.16 1484.56 293.04C1485.56 294.88 1486.9 296.3 1488.58 297.3C1490.26 298.26 1492.12 298.74 1494.16 298.74C1496.2 298.74 1498.06 298.26 1499.74 297.3C1501.46 296.3 1502.82 294.88 1503.82 293.04C1504.82 291.16 1505.32 288.98 1505.32 286.5ZM1526.73 274.62V294C1526.73 295.6 1527.07 296.74 1527.75 297.42C1528.43 298.06 1529.61 298.38 1531.29 298.38H1535.31V303H1530.39C1527.35 303 1525.07 302.3 1523.55 300.9C1522.03 299.5 1521.27 297.2 1521.27 294V274.62H1517.01V270.12H1521.27V261.84H1526.73V270.12H1535.31V274.62H1526.73ZM1571.92 285.3C1571.92 286.34 1571.86 287.44 1571.74 288.6H1545.46C1545.66 291.84 1546.76 294.38 1548.76 296.22C1550.8 298.02 1553.26 298.92 1556.14 298.92C1558.5 298.92 1560.46 298.38 1562.02 297.3C1563.62 296.18 1564.74 294.7 1565.38 292.86H1571.26C1570.38 296.02 1568.62 298.6 1565.98 300.6C1563.34 302.56 1560.06 303.54 1556.14 303.54C1553.02 303.54 1550.22 302.84 1547.74 301.44C1545.3 300.04 1543.38 298.06 1541.98 295.5C1540.58 292.9 1539.88 289.9 1539.88 286.5C1539.88 283.1 1540.56 280.12 1541.92 277.56C1543.28 275 1545.18 273.04 1547.62 271.68C1550.1 270.28 1552.94 269.58 1556.14 269.58C1559.26 269.58 1562.02 270.26 1564.42 271.62C1566.82 272.98 1568.66 274.86 1569.94 277.26C1571.26 279.62 1571.92 282.3 1571.92 285.3ZM1566.28 284.16C1566.28 282.08 1565.82 280.3 1564.9 278.82C1563.98 277.3 1562.72 276.16 1561.12 275.4C1559.56 274.6 1557.82 274.2 1555.9 274.2C1553.14 274.2 1550.78 275.08 1548.82 276.84C1546.9 278.6 1545.8 281.04 1545.52 284.16H1566.28ZM1577.09 286.44C1577.09 283.08 1577.77 280.14 1579.13 277.62C1580.49 275.06 1582.35 273.08 1584.71 271.68C1587.11 270.28 1589.79 269.58 1592.75 269.58C1595.31 269.58 1597.69 270.18 1599.89 271.38C1602.09 272.54 1603.77 274.08 1604.93 276V258.6H1610.45V303H1604.93V296.82C1603.85 298.78 1602.25 300.4 1600.13 301.68C1598.01 302.92 1595.53 303.54 1592.69 303.54C1589.77 303.54 1587.11 302.82 1584.71 301.38C1582.35 299.94 1580.49 297.92 1579.13 295.32C1577.77 292.72 1577.09 289.76 1577.09 286.44ZM1604.93 286.5C1604.93 284.02 1604.43 281.86 1603.43 280.02C1602.43 278.18 1601.07 276.78 1599.35 275.82C1597.67 274.82 1595.81 274.32 1593.77 274.32C1591.73 274.32 1589.87 274.8 1588.19 275.76C1586.51 276.72 1585.17 278.12 1584.17 279.96C1583.17 281.8 1582.67 283.96 1582.67 286.44C1582.67 288.96 1583.17 291.16 1584.17 293.04C1585.17 294.88 1586.51 296.3 1588.19 297.3C1589.87 298.26 1591.73 298.74 1593.77 298.74C1595.81 298.74 1597.67 298.26 1599.35 297.3C1601.07 296.3 1602.43 294.88 1603.43 293.04C1604.43 291.16 1604.93 288.98 1604.93 286.5ZM1641.13 276.24C1642.25 274.28 1643.89 272.68 1646.05 271.44C1648.21 270.2 1650.67 269.58 1653.43 269.58C1656.39 269.58 1659.05 270.28 1661.41 271.68C1663.77 273.08 1665.63 275.06 1666.99 277.62C1668.35 280.14 1669.03 283.08 1669.03 286.44C1669.03 289.76 1668.35 292.72 1666.99 295.32C1665.63 297.92 1663.75 299.94 1661.35 301.38C1658.99 302.82 1656.35 303.54 1653.43 303.54C1650.59 303.54 1648.09 302.92 1645.93 301.68C1643.81 300.44 1642.21 298.86 1641.13 296.94V303H1635.67V258.6H1641.13V276.24ZM1663.45 286.44C1663.45 283.96 1662.95 281.8 1661.95 279.96C1660.95 278.12 1659.59 276.72 1657.87 275.76C1656.19 274.8 1654.33 274.32 1652.29 274.32C1650.29 274.32 1648.43 274.82 1646.71 275.82C1645.03 276.78 1643.67 278.2 1642.63 280.08C1641.63 281.92 1641.13 284.06 1641.13 286.5C1641.13 288.98 1641.63 291.16 1642.63 293.04C1643.67 294.88 1645.03 296.3 1646.71 297.3C1648.43 298.26 1650.29 298.74 1652.29 298.74C1654.33 298.74 1656.19 298.26 1657.87 297.3C1659.59 296.3 1660.95 294.88 1661.95 293.04C1662.95 291.16 1663.45 288.96 1663.45 286.44ZM1706.22 285.3C1706.22 286.34 1706.16 287.44 1706.04 288.6H1679.76C1679.96 291.84 1681.06 294.38 1683.06 296.22C1685.1 298.02 1687.56 298.92 1690.44 298.92C1692.8 298.92 1694.76 298.38 1696.32 297.3C1697.92 296.18 1699.04 294.7 1699.68 292.86H1705.56C1704.68 296.02 1702.92 298.6 1700.28 300.6C1697.64 302.56 1694.36 303.54 1690.44 303.54C1687.32 303.54 1684.52 302.84 1682.04 301.44C1679.6 300.04 1677.68 298.06 1676.28 295.5C1674.88 292.9 1674.18 289.9 1674.18 286.5C1674.18 283.1 1674.86 280.12 1676.22 277.56C1677.58 275 1679.48 273.04 1681.92 271.68C1684.4 270.28 1687.24 269.58 1690.44 269.58C1693.56 269.58 1696.32 270.26 1698.72 271.62C1701.12 272.98 1702.96 274.86 1704.24 277.26C1705.56 279.62 1706.22 282.3 1706.22 285.3ZM1700.58 284.16C1700.58 282.08 1700.12 280.3 1699.2 278.82C1698.28 277.3 1697.02 276.16 1695.42 275.4C1693.86 274.6 1692.12 274.2 1690.2 274.2C1687.44 274.2 1685.08 275.08 1683.12 276.84C1681.2 278.6 1680.1 281.04 1679.82 284.16H1700.58ZM1711.38 286.5C1711.38 283.1 1712.06 280.14 1713.42 277.62C1714.78 275.06 1716.66 273.08 1719.06 271.68C1721.5 270.28 1724.28 269.58 1727.4 269.58C1731.44 269.58 1734.76 270.56 1737.36 272.52C1740 274.48 1741.74 277.2 1742.58 280.68H1736.7C1736.14 278.68 1735.04 277.1 1733.4 275.94C1731.8 274.78 1729.8 274.2 1727.4 274.2C1724.28 274.2 1721.76 275.28 1719.84 277.44C1717.92 279.56 1716.96 282.58 1716.96 286.5C1716.96 290.46 1717.92 293.52 1719.84 295.68C1721.76 297.84 1724.28 298.92 1727.4 298.92C1729.8 298.92 1731.8 298.36 1733.4 297.24C1735 296.12 1736.1 294.52 1736.7 292.44H1742.58C1741.7 295.8 1739.94 298.5 1737.3 300.54C1734.66 302.54 1731.36 303.54 1727.4 303.54C1724.28 303.54 1721.5 302.84 1719.06 301.44C1716.66 300.04 1714.78 298.06 1713.42 295.5C1712.06 292.94 1711.38 289.94 1711.38 286.5ZM1747.83 286.44C1747.83 283.08 1748.51 280.14 1749.87 277.62C1751.23 275.06 1753.09 273.08 1755.45 271.68C1757.85 270.28 1760.51 269.58 1763.43 269.58C1766.31 269.58 1768.81 270.2 1770.93 271.44C1773.05 272.68 1774.63 274.24 1775.67 276.12V270.12H1781.19V303H1775.67V296.88C1774.59 298.8 1772.97 300.4 1770.81 301.68C1768.69 302.92 1766.21 303.54 1763.37 303.54C1760.45 303.54 1757.81 302.82 1755.45 301.38C1753.09 299.94 1751.23 297.92 1749.87 295.32C1748.51 292.72 1747.83 289.76 1747.83 286.44ZM1775.67 286.5C1775.67 284.02 1775.17 281.86 1774.17 280.02C1773.17 278.18 1771.81 276.78 1770.09 275.82C1768.41 274.82 1766.55 274.32 1764.51 274.32C1762.47 274.32 1760.61 274.8 1758.93 275.76C1757.25 276.72 1755.91 278.12 1754.91 279.96C1753.91 281.8 1753.41 283.96 1753.41 286.44C1753.41 288.96 1753.91 291.16 1754.91 293.04C1755.91 294.88 1757.25 296.3 1758.93 297.3C1760.61 298.26 1762.47 298.74 1764.51 298.74C1766.55 298.74 1768.41 298.26 1770.09 297.3C1771.81 296.3 1773.17 294.88 1774.17 293.04C1775.17 291.16 1775.67 288.98 1775.67 286.5ZM1819.58 270.12V303H1814.12V298.14C1813.08 299.82 1811.62 301.14 1809.74 302.1C1807.9 303.02 1805.86 303.48 1803.62 303.48C1801.06 303.48 1798.76 302.96 1796.72 301.92C1794.68 300.84 1793.06 299.24 1791.86 297.12C1790.7 295 1790.12 292.42 1790.12 289.38V270.12H1795.52V288.66C1795.52 291.9 1796.34 294.4 1797.98 296.16C1799.62 297.88 1801.86 298.74 1804.7 298.74C1807.62 298.74 1809.92 297.84 1811.6 296.04C1813.28 294.24 1814.12 291.62 1814.12 288.18V270.12H1819.58ZM1840.44 303.54C1837.92 303.54 1835.66 303.12 1833.66 302.28C1831.66 301.4 1830.08 300.2 1828.92 298.68C1827.76 297.12 1827.12 295.34 1827 293.34H1832.64C1832.8 294.98 1833.56 296.32 1834.92 297.36C1836.32 298.4 1838.14 298.92 1840.38 298.92C1842.46 298.92 1844.1 298.46 1845.3 297.54C1846.5 296.62 1847.1 295.46 1847.1 294.06C1847.1 292.62 1846.46 291.56 1845.18 290.88C1843.9 290.16 1841.92 289.46 1839.24 288.78C1836.8 288.14 1834.8 287.5 1833.24 286.86C1831.72 286.18 1830.4 285.2 1829.28 283.92C1828.2 282.6 1827.66 280.88 1827.66 278.76C1827.66 277.08 1828.16 275.54 1829.16 274.14C1830.16 272.74 1831.58 271.64 1833.42 270.84C1835.26 270 1837.36 269.58 1839.72 269.58C1843.36 269.58 1846.3 270.5 1848.54 272.34C1850.78 274.18 1851.98 276.7 1852.14 279.9H1846.68C1846.56 278.18 1845.86 276.8 1844.58 275.76C1843.34 274.72 1841.66 274.2 1839.54 274.2C1837.58 274.2 1836.02 274.62 1834.86 275.46C1833.7 276.3 1833.12 277.4 1833.12 278.76C1833.12 279.84 1833.46 280.74 1834.14 281.46C1834.86 282.14 1835.74 282.7 1836.78 283.14C1837.86 283.54 1839.34 284 1841.22 284.52C1843.58 285.16 1845.5 285.8 1846.98 286.44C1848.46 287.04 1849.72 287.96 1850.76 289.2C1851.84 290.44 1852.4 292.06 1852.44 294.06C1852.44 295.86 1851.94 297.48 1850.94 298.92C1849.94 300.36 1848.52 301.5 1846.68 302.34C1844.88 303.14 1842.8 303.54 1840.44 303.54ZM1890.14 285.3C1890.14 286.34 1890.08 287.44 1889.96 288.6H1863.68C1863.88 291.84 1864.98 294.38 1866.98 296.22C1869.02 298.02 1871.48 298.92 1874.36 298.92C1876.72 298.92 1878.68 298.38 1880.24 297.3C1881.84 296.18 1882.96 294.7 1883.6 292.86H1889.48C1888.6 296.02 1886.84 298.6 1884.2 300.6C1881.56 302.56 1878.28 303.54 1874.36 303.54C1871.24 303.54 1868.44 302.84 1865.96 301.44C1863.52 300.04 1861.6 298.06 1860.2 295.5C1858.8 292.9 1858.1 289.9 1858.1 286.5C1858.1 283.1 1858.78 280.12 1860.14 277.56C1861.5 275 1863.4 273.04 1865.84 271.68C1868.32 270.28 1871.16 269.58 1874.36 269.58C1877.48 269.58 1880.24 270.26 1882.64 271.62C1885.04 272.98 1886.88 274.86 1888.16 277.26C1889.48 279.62 1890.14 282.3 1890.14 285.3ZM1884.5 284.16C1884.5 282.08 1884.04 280.3 1883.12 278.82C1882.2 277.3 1880.94 276.16 1879.34 275.4C1877.78 274.6 1876.04 274.2 1874.12 274.2C1871.36 274.2 1869 275.08 1867.04 276.84C1865.12 278.6 1864.02 281.04 1863.74 284.16H1884.5ZM1918.81 261.18V303H1913.35V261.18H1918.81ZM1047.42 360.12L1037.16 393H1031.52L1023.6 366.9L1015.68 393H1010.04L999.72 360.12H1005.3L1012.86 387.72L1021.02 360.12H1026.6L1034.58 387.78L1042.02 360.12H1047.42ZM1050.8 376.44C1050.8 373.08 1051.48 370.14 1052.84 367.62C1054.2 365.06 1056.06 363.08 1058.42 361.68C1060.82 360.28 1063.48 359.58 1066.4 359.58C1069.28 359.58 1071.78 360.2 1073.9 361.44C1076.02 362.68 1077.6 364.24 1078.64 366.12V360.12H1084.16V393H1078.64V386.88C1077.56 388.8 1075.94 390.4 1073.78 391.68C1071.66 392.92 1069.18 393.54 1066.34 393.54C1063.42 393.54 1060.78 392.82 1058.42 391.38C1056.06 389.94 1054.2 387.92 1052.84 385.32C1051.48 382.72 1050.8 379.76 1050.8 376.44ZM1078.64 376.5C1078.64 374.02 1078.14 371.86 1077.14 370.02C1076.14 368.18 1074.78 366.78 1073.06 365.82C1071.38 364.82 1069.52 364.32 1067.48 364.32C1065.44 364.32 1063.58 364.8 1061.9 365.76C1060.22 366.72 1058.88 368.12 1057.88 369.96C1056.88 371.8 1056.38 373.96 1056.38 376.44C1056.38 378.96 1056.88 381.16 1057.88 383.04C1058.88 384.88 1060.22 386.3 1061.9 387.3C1063.58 388.26 1065.44 388.74 1067.48 388.74C1069.52 388.74 1071.38 388.26 1073.06 387.3C1074.78 386.3 1076.14 384.88 1077.14 383.04C1078.14 381.16 1078.64 378.98 1078.64 376.5ZM1105.03 393.54C1102.51 393.54 1100.25 393.12 1098.25 392.28C1096.25 391.4 1094.67 390.2 1093.51 388.68C1092.35 387.12 1091.71 385.34 1091.59 383.34H1097.23C1097.39 384.98 1098.15 386.32 1099.51 387.36C1100.91 388.4 1102.73 388.92 1104.97 388.92C1107.05 388.92 1108.69 388.46 1109.89 387.54C1111.09 386.62 1111.69 385.46 1111.69 384.06C1111.69 382.62 1111.05 381.56 1109.77 380.88C1108.49 380.16 1106.51 379.46 1103.83 378.78C1101.39 378.14 1099.39 377.5 1097.83 376.86C1096.31 376.18 1094.99 375.2 1093.87 373.92C1092.79 372.6 1092.25 370.88 1092.25 368.76C1092.25 367.08 1092.75 365.54 1093.75 364.14C1094.75 362.74 1096.17 361.64 1098.01 360.84C1099.85 360 1101.95 359.58 1104.31 359.58C1107.95 359.58 1110.89 360.5 1113.13 362.34C1115.37 364.18 1116.57 366.7 1116.73 369.9H1111.27C1111.15 368.18 1110.45 366.8 1109.17 365.76C1107.93 364.72 1106.25 364.2 1104.13 364.2C1102.17 364.2 1100.61 364.62 1099.45 365.46C1098.29 366.3 1097.71 367.4 1097.71 368.76C1097.71 369.84 1098.05 370.74 1098.73 371.46C1099.45 372.14 1100.33 372.7 1101.37 373.14C1102.45 373.54 1103.93 374 1105.81 374.52C1108.17 375.16 1110.09 375.8 1111.57 376.44C1113.05 377.04 1114.31 377.96 1115.35 379.2C1116.43 380.44 1116.99 382.06 1117.03 384.06C1117.03 385.86 1116.53 387.48 1115.53 388.92C1114.53 390.36 1113.11 391.5 1111.27 392.34C1109.47 393.14 1107.39 393.54 1105.03 393.54ZM1131.39 364.62V384C1131.39 385.6 1131.73 386.74 1132.41 387.42C1133.09 388.06 1134.27 388.38 1135.95 388.38H1139.97V393H1135.05C1132.01 393 1129.73 392.3 1128.21 390.9C1126.69 389.5 1125.93 387.2 1125.93 384V364.62H1121.67V360.12H1125.93V351.84H1131.39V360.12H1139.97V364.62H1131.39ZM1176.59 375.3C1176.59 376.34 1176.53 377.44 1176.41 378.6H1150.13C1150.33 381.84 1151.43 384.38 1153.43 386.22C1155.47 388.02 1157.93 388.92 1160.81 388.92C1163.17 388.92 1165.13 388.38 1166.69 387.3C1168.29 386.18 1169.41 384.7 1170.05 382.86H1175.93C1175.05 386.02 1173.29 388.6 1170.65 390.6C1168.01 392.56 1164.73 393.54 1160.81 393.54C1157.69 393.54 1154.89 392.84 1152.41 391.44C1149.97 390.04 1148.05 388.06 1146.65 385.5C1145.25 382.9 1144.55 379.9 1144.55 376.5C1144.55 373.1 1145.23 370.12 1146.59 367.56C1147.95 365 1149.85 363.04 1152.29 361.68C1154.77 360.28 1157.61 359.58 1160.81 359.58C1163.93 359.58 1166.69 360.26 1169.09 361.62C1171.49 362.98 1173.33 364.86 1174.61 367.26C1175.93 369.62 1176.59 372.3 1176.59 375.3ZM1170.95 374.16C1170.95 372.08 1170.49 370.3 1169.57 368.82C1168.65 367.3 1167.39 366.16 1165.79 365.4C1164.23 364.6 1162.49 364.2 1160.57 364.2C1157.81 364.2 1155.45 365.08 1153.49 366.84C1151.57 368.6 1150.47 371.04 1150.19 374.16H1170.95ZM1181.76 376.44C1181.76 373.08 1182.44 370.14 1183.8 367.62C1185.16 365.06 1187.02 363.08 1189.38 361.68C1191.78 360.28 1194.46 359.58 1197.42 359.58C1199.98 359.58 1202.36 360.18 1204.56 361.38C1206.76 362.54 1208.44 364.08 1209.6 366V348.6H1215.12V393H1209.6V386.82C1208.52 388.78 1206.92 390.4 1204.8 391.68C1202.68 392.92 1200.2 393.54 1197.36 393.54C1194.44 393.54 1191.78 392.82 1189.38 391.38C1187.02 389.94 1185.16 387.92 1183.8 385.32C1182.44 382.72 1181.76 379.76 1181.76 376.44ZM1209.6 376.5C1209.6 374.02 1209.1 371.86 1208.1 370.02C1207.1 368.18 1205.74 366.78 1204.02 365.82C1202.34 364.82 1200.48 364.32 1198.44 364.32C1196.4 364.32 1194.54 364.8 1192.86 365.76C1191.18 366.72 1189.84 368.12 1188.84 369.96C1187.84 371.8 1187.34 373.96 1187.34 376.44C1187.34 378.96 1187.84 381.16 1188.84 383.04C1189.84 384.88 1191.18 386.3 1192.86 387.3C1194.54 388.26 1196.4 388.74 1198.44 388.74C1200.48 388.74 1202.34 388.26 1204.02 387.3C1205.74 386.3 1207.1 384.88 1208.1 383.04C1209.1 381.16 1209.6 378.98 1209.6 376.5ZM1279.88 359.52C1282.44 359.52 1284.72 360.06 1286.72 361.14C1288.72 362.18 1290.3 363.76 1291.46 365.88C1292.62 368 1293.2 370.58 1293.2 373.62V393H1287.8V374.4C1287.8 371.12 1286.98 368.62 1285.34 366.9C1283.74 365.14 1281.56 364.26 1278.8 364.26C1275.96 364.26 1273.7 365.18 1272.02 367.02C1270.34 368.82 1269.5 371.44 1269.5 374.88V393H1264.1V374.4C1264.1 371.12 1263.28 368.62 1261.64 366.9C1260.04 365.14 1257.86 364.26 1255.1 364.26C1252.26 364.26 1250 365.18 1248.32 367.02C1246.64 368.82 1245.8 371.44 1245.8 374.88V393H1240.34V360.12H1245.8V364.86C1246.88 363.14 1248.32 361.82 1250.12 360.9C1251.96 359.98 1253.98 359.52 1256.18 359.52C1258.94 359.52 1261.38 360.14 1263.5 361.38C1265.62 362.62 1267.2 364.44 1268.24 366.84C1269.16 364.52 1270.68 362.72 1272.8 361.44C1274.92 360.16 1277.28 359.52 1279.88 359.52ZM1330.48 360.12L1310.68 408.48H1305.04L1311.52 392.64L1298.26 360.12H1304.32L1314.64 386.76L1324.84 360.12H1330.48ZM1358.62 364.62V384C1358.62 385.6 1358.96 386.74 1359.64 387.42C1360.32 388.06 1361.5 388.38 1363.18 388.38H1367.2V393H1362.28C1359.24 393 1356.96 392.3 1355.44 390.9C1353.92 389.5 1353.16 387.2 1353.16 384V364.62H1348.9V360.12H1353.16V351.84H1358.62V360.12H1367.2V364.62H1358.62ZM1376.64 354.78C1375.6 354.78 1374.72 354.42 1374 353.7C1373.28 352.98 1372.92 352.1 1372.92 351.06C1372.92 350.02 1373.28 349.14 1374 348.42C1374.72 347.7 1375.6 347.34 1376.64 347.34C1377.64 347.34 1378.48 347.7 1379.16 348.42C1379.88 349.14 1380.24 350.02 1380.24 351.06C1380.24 352.1 1379.88 352.98 1379.16 353.7C1378.48 354.42 1377.64 354.78 1376.64 354.78ZM1379.28 360.12V393H1373.82V360.12H1379.28ZM1428.12 359.52C1430.68 359.52 1432.96 360.06 1434.96 361.14C1436.96 362.18 1438.54 363.76 1439.7 365.88C1440.86 368 1441.44 370.58 1441.44 373.62V393H1436.04V374.4C1436.04 371.12 1435.22 368.62 1433.58 366.9C1431.98 365.14 1429.8 364.26 1427.04 364.26C1424.2 364.26 1421.94 365.18 1420.26 367.02C1418.58 368.82 1417.74 371.44 1417.74 374.88V393H1412.34V374.4C1412.34 371.12 1411.52 368.62 1409.88 366.9C1408.28 365.14 1406.1 364.26 1403.34 364.26C1400.5 364.26 1398.24 365.18 1396.56 367.02C1394.88 368.82 1394.04 371.44 1394.04 374.88V393H1388.58V360.12H1394.04V364.86C1395.12 363.14 1396.56 361.82 1398.36 360.9C1400.2 359.98 1402.22 359.52 1404.42 359.52C1407.18 359.52 1409.62 360.14 1411.74 361.38C1413.86 362.62 1415.44 364.44 1416.48 366.84C1417.4 364.52 1418.92 362.72 1421.04 361.44C1423.16 360.16 1425.52 359.52 1428.12 359.52ZM1480.4 375.3C1480.4 376.34 1480.34 377.44 1480.22 378.6H1453.94C1454.14 381.84 1455.24 384.38 1457.24 386.22C1459.28 388.02 1461.74 388.92 1464.62 388.92C1466.98 388.92 1468.94 388.38 1470.5 387.3C1472.1 386.18 1473.22 384.7 1473.86 382.86H1479.74C1478.86 386.02 1477.1 388.6 1474.46 390.6C1471.82 392.56 1468.54 393.54 1464.62 393.54C1461.5 393.54 1458.7 392.84 1456.22 391.44C1453.78 390.04 1451.86 388.06 1450.46 385.5C1449.06 382.9 1448.36 379.9 1448.36 376.5C1448.36 373.1 1449.04 370.12 1450.4 367.56C1451.76 365 1453.66 363.04 1456.1 361.68C1458.58 360.28 1461.42 359.58 1464.62 359.58C1467.74 359.58 1470.5 360.26 1472.9 361.62C1475.3 362.98 1477.14 364.86 1478.42 367.26C1479.74 369.62 1480.4 372.3 1480.4 375.3ZM1474.76 374.16C1474.76 372.08 1474.3 370.3 1473.38 368.82C1472.46 367.3 1471.2 366.16 1469.6 365.4C1468.04 364.6 1466.3 364.2 1464.38 364.2C1461.62 364.2 1459.26 365.08 1457.3 366.84C1455.38 368.6 1454.28 371.04 1454 374.16H1474.76ZM1488.44 351.18H1494.5L1488.74 364.8H1484.9L1488.44 351.18ZM1498.16 351.18H1504.22L1498.46 364.8H1494.56L1498.16 351.18Z" fill="#333333"/>
<path d="M2112.04 97.9596C2111.81 87.1271 2103 78.446 2092.16 78.3807L1818.92 76.7327L1671.77 75.9854L1524.08 75.5453C1425.54 75.3551 1327.01 74.8082 1228.18 75.0694L1080.09 75.306L932.135 76.0175H932.043C930.693 76.024 929.404 76.3216 928.458 76.8447C927.513 77.3678 926.988 78.0736 927 78.8068V78.8079L928.807 183.678L929.593 288.548L929.277 393.418L928.085 498.288C928.082 498.575 928.183 498.86 928.382 499.126C928.581 499.392 928.875 499.634 929.247 499.838C929.618 500.043 930.06 500.205 930.547 500.317C931.034 500.428 931.557 500.487 932.086 500.488H932.135L1093.67 501.403C1094.88 501.41 1095.3 499.79 1094.23 499.211V499.211C1093.46 498.792 1092.52 499.342 1092.51 500.22L1091.56 567.315C1091.55 567.938 1091.83 568.552 1092.38 569.098C1092.93 569.645 1093.73 570.106 1094.7 570.438C1095.67 570.77 1096.78 570.961 1097.92 570.995C1099.07 571.028 1100.21 570.902 1101.24 570.629L1101.33 570.604L1356.73 501.924L1353.4 502.349L1542.82 502.686L1732.23 502.904L2111.06 502.577L2111.12 502.576C2113.2 502.574 2115.19 502.124 2116.66 501.324C2118.13 500.523 2118.95 499.439 2118.95 498.309L2118.95 498.288C2118.09 427.892 2117.49 357.469 2116.02 287.43L2112.04 97.9596ZM2089.94 79.2393C2101.2 79.1724 2110.29 88.4031 2110.06 99.6564L2106.09 289.665L2103.2 495.566C2103.19 496.784 2104.49 497.57 2105.56 496.988V496.988C2107.01 496.2 2106.45 493.996 2104.8 493.995L1732.23 493.672L1542.82 493.89L1353.4 494.227H1353.36C1352.22 494.231 1351.09 494.377 1350.07 494.652L1102.26 562.132C1100.17 562.702 1100.09 565.636 1102.14 566.327V566.327C1103.57 566.81 1105.05 565.73 1105.03 564.217L1104.1 498.288L1104.09 498.232C1104.09 497.824 1103.94 497.42 1103.64 497.044C1103.35 496.668 1102.92 496.327 1102.39 496.04C1101.85 495.754 1101.22 495.527 1100.52 495.374C1099.83 495.221 1099.08 495.143 1098.33 495.147H1098.31L935.338 496.07C934.486 496.074 934.201 497.211 934.949 497.617V497.617C935.502 497.918 936.173 497.513 936.166 496.884L934.991 393.418L934.676 288.547L935.462 183.678L937.238 80.5935C937.252 79.7958 936.401 79.2794 935.7 79.6603V79.6603C934.753 80.1746 935.115 81.6119 936.192 81.6171L1078.91 82.3089L1225.55 82.5452C1323.2 82.8069 1421.17 82.26 1519.11 82.0698L1666.15 81.6297L1813.73 80.8819L2089.94 79.2393Z" fill="#262626" stroke="#262626" stroke-width="6"/>
<path d="M1107.3 1313L1090.08 1293.92V1313H1084.62V1271.18H1090.08V1290.56L1107.36 1271.18H1114.26L1095.3 1292.12L1114.44 1313H1107.3ZM1150.54 1295.3C1150.54 1296.34 1150.48 1297.44 1150.36 1298.6H1124.08C1124.28 1301.84 1125.38 1304.38 1127.38 1306.22C1129.42 1308.02 1131.88 1308.92 1134.76 1308.92C1137.12 1308.92 1139.08 1308.38 1140.64 1307.3C1142.24 1306.18 1143.36 1304.7 1144 1302.86H1149.88C1149 1306.02 1147.24 1308.6 1144.6 1310.6C1141.96 1312.56 1138.68 1313.54 1134.76 1313.54C1131.64 1313.54 1128.84 1312.84 1126.36 1311.44C1123.92 1310.04 1122 1308.06 1120.6 1305.5C1119.2 1302.9 1118.5 1299.9 1118.5 1296.5C1118.5 1293.1 1119.18 1290.12 1120.54 1287.56C1121.9 1285 1123.8 1283.04 1126.24 1281.68C1128.72 1280.28 1131.56 1279.58 1134.76 1279.58C1137.88 1279.58 1140.64 1280.26 1143.04 1281.62C1145.44 1282.98 1147.28 1284.86 1148.56 1287.26C1149.88 1289.62 1150.54 1292.3 1150.54 1295.3ZM1144.9 1294.16C1144.9 1292.08 1144.44 1290.3 1143.52 1288.82C1142.6 1287.3 1141.34 1286.16 1139.74 1285.4C1138.18 1284.6 1136.44 1284.2 1134.52 1284.2C1131.76 1284.2 1129.4 1285.08 1127.44 1286.84C1125.52 1288.6 1124.42 1291.04 1124.14 1294.16H1144.9ZM1169.99 1307.96L1180.19 1280.12H1186.01L1173.11 1313H1166.75L1153.85 1280.12H1159.73L1169.99 1307.96ZM1194.2 1274.78C1193.16 1274.78 1192.28 1274.42 1191.56 1273.7C1190.84 1272.98 1190.48 1272.1 1190.48 1271.06C1190.48 1270.02 1190.84 1269.14 1191.56 1268.42C1192.28 1267.7 1193.16 1267.34 1194.2 1267.34C1195.2 1267.34 1196.04 1267.7 1196.72 1268.42C1197.44 1269.14 1197.8 1270.02 1197.8 1271.06C1197.8 1272.1 1197.44 1272.98 1196.72 1273.7C1196.04 1274.42 1195.2 1274.78 1194.2 1274.78ZM1196.84 1280.12V1313H1191.38V1280.12H1196.84ZM1222.16 1279.52C1226.16 1279.52 1229.4 1280.74 1231.88 1283.18C1234.36 1285.58 1235.6 1289.06 1235.6 1293.62V1313H1230.2V1294.4C1230.2 1291.12 1229.38 1288.62 1227.74 1286.9C1226.1 1285.14 1223.86 1284.26 1221.02 1284.26C1218.14 1284.26 1215.84 1285.16 1214.12 1286.96C1212.44 1288.76 1211.6 1291.38 1211.6 1294.82V1313H1206.14V1280.12H1211.6V1284.8C1212.68 1283.12 1214.14 1281.82 1215.98 1280.9C1217.86 1279.98 1219.92 1279.52 1222.16 1279.52ZM1302.94 1271.48V1313H1297.48V1282.04L1283.68 1313H1279.84L1265.98 1281.98V1313H1260.52V1271.48H1266.4L1281.76 1305.8L1297.12 1271.48H1302.94ZM1315.02 1274.78C1313.98 1274.78 1313.1 1274.42 1312.38 1273.7C1311.66 1272.98 1311.3 1272.1 1311.3 1271.06C1311.3 1270.02 1311.66 1269.14 1312.38 1268.42C1313.1 1267.7 1313.98 1267.34 1315.02 1267.34C1316.02 1267.34 1316.86 1267.7 1317.54 1268.42C1318.26 1269.14 1318.62 1270.02 1318.62 1271.06C1318.62 1272.1 1318.26 1272.98 1317.54 1273.7C1316.86 1274.42 1316.02 1274.78 1315.02 1274.78ZM1317.66 1280.12V1313H1312.2V1280.12H1317.66ZM1332.42 1285.46C1333.38 1283.58 1334.74 1282.12 1336.5 1281.08C1338.3 1280.04 1340.48 1279.52 1343.04 1279.52V1285.16H1341.6C1335.48 1285.16 1332.42 1288.48 1332.42 1295.12V1313H1326.96V1280.12H1332.42V1285.46ZM1347.31 1296.44C1347.31 1293.08 1347.99 1290.14 1349.35 1287.62C1350.71 1285.06 1352.57 1283.08 1354.93 1281.68C1357.33 1280.28 1359.99 1279.58 1362.91 1279.58C1365.79 1279.58 1368.29 1280.2 1370.41 1281.44C1372.53 1282.68 1374.11 1284.24 1375.15 1286.12V1280.12H1380.67V1313H1375.15V1306.88C1374.07 1308.8 1372.45 1310.4 1370.29 1311.68C1368.17 1312.92 1365.69 1313.54 1362.85 1313.54C1359.93 1313.54 1357.29 1312.82 1354.93 1311.38C1352.57 1309.94 1350.71 1307.92 1349.35 1305.32C1347.99 1302.72 1347.31 1299.76 1347.31 1296.44ZM1375.15 1296.5C1375.15 1294.02 1374.65 1291.86 1373.65 1290.02C1372.65 1288.18 1371.29 1286.78 1369.57 1285.82C1367.89 1284.82 1366.03 1284.32 1363.99 1284.32C1361.95 1284.32 1360.09 1284.8 1358.41 1285.76C1356.73 1286.72 1355.39 1288.12 1354.39 1289.96C1353.39 1291.8 1352.89 1293.96 1352.89 1296.44C1352.89 1298.96 1353.39 1301.16 1354.39 1303.04C1355.39 1304.88 1356.73 1306.3 1358.41 1307.3C1360.09 1308.26 1361.95 1308.74 1363.99 1308.74C1366.03 1308.74 1367.89 1308.26 1369.57 1307.3C1371.29 1306.3 1372.65 1304.88 1373.65 1303.04C1374.65 1301.16 1375.15 1298.98 1375.15 1296.5ZM1405.91 1279.52C1409.91 1279.52 1413.15 1280.74 1415.63 1283.18C1418.11 1285.58 1419.35 1289.06 1419.35 1293.62V1313H1413.95V1294.4C1413.95 1291.12 1413.13 1288.62 1411.49 1286.9C1409.85 1285.14 1407.61 1284.26 1404.77 1284.26C1401.89 1284.26 1399.59 1285.16 1397.87 1286.96C1396.19 1288.76 1395.35 1291.38 1395.35 1294.82V1313H1389.89V1280.12H1395.35V1284.8C1396.43 1283.12 1397.89 1281.82 1399.73 1280.9C1401.61 1279.98 1403.67 1279.52 1405.91 1279.52ZM1426.23 1296.44C1426.23 1293.08 1426.91 1290.14 1428.27 1287.62C1429.63 1285.06 1431.49 1283.08 1433.85 1281.68C1436.25 1280.28 1438.93 1279.58 1441.89 1279.58C1444.45 1279.58 1446.83 1280.18 1449.03 1281.38C1451.23 1282.54 1452.91 1284.08 1454.07 1286V1268.6H1459.59V1313H1454.07V1306.82C1452.99 1308.78 1451.39 1310.4 1449.27 1311.68C1447.15 1312.92 1444.67 1313.54 1441.83 1313.54C1438.91 1313.54 1436.25 1312.82 1433.85 1311.38C1431.49 1309.94 1429.63 1307.92 1428.27 1305.32C1426.91 1302.72 1426.23 1299.76 1426.23 1296.44ZM1454.07 1296.5C1454.07 1294.02 1453.57 1291.86 1452.57 1290.02C1451.57 1288.18 1450.21 1286.78 1448.49 1285.82C1446.81 1284.82 1444.95 1284.32 1442.91 1284.32C1440.87 1284.32 1439.01 1284.8 1437.33 1285.76C1435.65 1286.72 1434.31 1288.12 1433.31 1289.96C1432.31 1291.8 1431.81 1293.96 1431.81 1296.44C1431.81 1298.96 1432.31 1301.16 1433.31 1303.04C1434.31 1304.88 1435.65 1306.3 1437.33 1307.3C1439.01 1308.26 1440.87 1308.74 1442.91 1308.74C1444.95 1308.74 1446.81 1308.26 1448.49 1307.3C1450.21 1306.3 1451.57 1304.88 1452.57 1303.04C1453.57 1301.16 1454.07 1298.98 1454.07 1296.5ZM1466.78 1296.44C1466.78 1293.08 1467.46 1290.14 1468.82 1287.62C1470.18 1285.06 1472.04 1283.08 1474.4 1281.68C1476.8 1280.28 1479.46 1279.58 1482.38 1279.58C1485.26 1279.58 1487.76 1280.2 1489.88 1281.44C1492 1282.68 1493.58 1284.24 1494.62 1286.12V1280.12H1500.14V1313H1494.62V1306.88C1493.54 1308.8 1491.92 1310.4 1489.76 1311.68C1487.64 1312.92 1485.16 1313.54 1482.32 1313.54C1479.4 1313.54 1476.76 1312.82 1474.4 1311.38C1472.04 1309.94 1470.18 1307.92 1468.82 1305.32C1467.46 1302.72 1466.78 1299.76 1466.78 1296.44ZM1494.62 1296.5C1494.62 1294.02 1494.12 1291.86 1493.12 1290.02C1492.12 1288.18 1490.76 1286.78 1489.04 1285.82C1487.36 1284.82 1485.5 1284.32 1483.46 1284.32C1481.42 1284.32 1479.56 1284.8 1477.88 1285.76C1476.2 1286.72 1474.86 1288.12 1473.86 1289.96C1472.86 1291.8 1472.36 1293.96 1472.36 1296.44C1472.36 1298.96 1472.86 1301.16 1473.86 1303.04C1474.86 1304.88 1476.2 1306.3 1477.88 1307.3C1479.56 1308.26 1481.42 1308.74 1483.46 1308.74C1485.5 1308.74 1487.36 1308.26 1489.04 1307.3C1490.76 1306.3 1492.12 1304.88 1493.12 1303.04C1494.12 1301.16 1494.62 1298.98 1494.62 1296.5ZM1548.16 1288.7V1293.32H1524.22V1288.7H1548.16ZM1572.37 1292.06C1572.37 1287.98 1573.29 1284.32 1575.13 1281.08C1576.97 1277.8 1579.47 1275.24 1582.63 1273.4C1585.83 1271.56 1589.37 1270.64 1593.25 1270.64C1597.81 1270.64 1601.79 1271.74 1605.19 1273.94C1608.59 1276.14 1611.07 1279.26 1612.63 1283.3H1606.09C1604.93 1280.78 1603.25 1278.84 1601.05 1277.48C1598.89 1276.12 1596.29 1275.44 1593.25 1275.44C1590.33 1275.44 1587.71 1276.12 1585.39 1277.48C1583.07 1278.84 1581.25 1280.78 1579.93 1283.3C1578.61 1285.78 1577.95 1288.7 1577.95 1292.06C1577.95 1295.38 1578.61 1298.3 1579.93 1300.82C1581.25 1303.3 1583.07 1305.22 1585.39 1306.58C1587.71 1307.94 1590.33 1308.62 1593.25 1308.62C1596.29 1308.62 1598.89 1307.96 1601.05 1306.64C1603.25 1305.28 1604.93 1303.34 1606.09 1300.82H1612.63C1611.07 1304.82 1608.59 1307.92 1605.19 1310.12C1601.79 1312.28 1597.81 1313.36 1593.25 1313.36C1589.37 1313.36 1585.83 1312.46 1582.63 1310.66C1579.47 1308.82 1576.97 1306.28 1575.13 1303.04C1573.29 1299.8 1572.37 1296.14 1572.37 1292.06ZM1634.01 1313.42C1631.25 1313.42 1628.77 1312.94 1626.57 1311.98C1624.41 1310.98 1622.71 1309.62 1621.47 1307.9C1620.23 1306.14 1619.59 1304.12 1619.55 1301.84H1625.37C1625.57 1303.8 1626.37 1305.46 1627.77 1306.82C1629.21 1308.14 1631.29 1308.8 1634.01 1308.8C1636.61 1308.8 1638.65 1308.16 1640.13 1306.88C1641.65 1305.56 1642.41 1303.88 1642.41 1301.84C1642.41 1300.24 1641.97 1298.94 1641.09 1297.94C1640.21 1296.94 1639.11 1296.18 1637.79 1295.66C1636.47 1295.14 1634.69 1294.58 1632.45 1293.98C1629.69 1293.26 1627.47 1292.54 1625.79 1291.82C1624.15 1291.1 1622.73 1289.98 1621.53 1288.46C1620.37 1286.9 1619.79 1284.82 1619.79 1282.22C1619.79 1279.94 1620.37 1277.92 1621.53 1276.16C1622.69 1274.4 1624.31 1273.04 1626.39 1272.08C1628.51 1271.12 1630.93 1270.64 1633.65 1270.64C1637.57 1270.64 1640.77 1271.62 1643.25 1273.58C1645.77 1275.54 1647.19 1278.14 1647.51 1281.38H1641.51C1641.31 1279.78 1640.47 1278.38 1638.99 1277.18C1637.51 1275.94 1635.55 1275.32 1633.11 1275.32C1630.83 1275.32 1628.97 1275.92 1627.53 1277.12C1626.09 1278.28 1625.37 1279.92 1625.37 1282.04C1625.37 1283.56 1625.79 1284.8 1626.63 1285.76C1627.51 1286.72 1628.57 1287.46 1629.81 1287.98C1631.09 1288.46 1632.87 1289.02 1635.15 1289.66C1637.91 1290.42 1640.13 1291.18 1641.81 1291.94C1643.49 1292.66 1644.93 1293.8 1646.13 1295.36C1647.33 1296.88 1647.93 1298.96 1647.93 1301.6C1647.93 1303.64 1647.39 1305.56 1646.31 1307.36C1645.23 1309.16 1643.63 1310.62 1641.51 1311.74C1639.39 1312.86 1636.89 1313.42 1634.01 1313.42ZM1685.22 1313.42C1682.46 1313.42 1679.98 1312.94 1677.78 1311.98C1675.62 1310.98 1673.92 1309.62 1672.68 1307.9C1671.44 1306.14 1670.8 1304.12 1670.76 1301.84H1676.58C1676.78 1303.8 1677.58 1305.46 1678.98 1306.82C1680.42 1308.14 1682.5 1308.8 1685.22 1308.8C1687.82 1308.8 1689.86 1308.16 1691.34 1306.88C1692.86 1305.56 1693.62 1303.88 1693.62 1301.84C1693.62 1300.24 1693.18 1298.94 1692.3 1297.94C1691.42 1296.94 1690.32 1296.18 1689 1295.66C1687.68 1295.14 1685.9 1294.58 1683.66 1293.98C1680.9 1293.26 1678.68 1292.54 1677 1291.82C1675.36 1291.1 1673.94 1289.98 1672.74 1288.46C1671.58 1286.9 1671 1284.82 1671 1282.22C1671 1279.94 1671.58 1277.92 1672.74 1276.16C1673.9 1274.4 1675.52 1273.04 1677.6 1272.08C1679.72 1271.12 1682.14 1270.64 1684.86 1270.64C1688.78 1270.64 1691.98 1271.62 1694.46 1273.58C1696.98 1275.54 1698.4 1278.14 1698.72 1281.38H1692.72C1692.52 1279.78 1691.68 1278.38 1690.2 1277.18C1688.72 1275.94 1686.76 1275.32 1684.32 1275.32C1682.04 1275.32 1680.18 1275.92 1678.74 1277.12C1677.3 1278.28 1676.58 1279.92 1676.58 1282.04C1676.58 1283.56 1677 1284.8 1677.84 1285.76C1678.72 1286.72 1679.78 1287.46 1681.02 1287.98C1682.3 1288.46 1684.08 1289.02 1686.36 1289.66C1689.12 1290.42 1691.34 1291.18 1693.02 1291.94C1694.7 1292.66 1696.14 1293.8 1697.34 1295.36C1698.54 1296.88 1699.14 1298.96 1699.14 1301.6C1699.14 1303.64 1698.6 1305.56 1697.52 1307.36C1696.44 1309.16 1694.84 1310.62 1692.72 1311.74C1690.6 1312.86 1688.1 1313.42 1685.22 1313.42ZM1713.84 1284.62V1304C1713.84 1305.6 1714.18 1306.74 1714.86 1307.42C1715.54 1308.06 1716.72 1308.38 1718.4 1308.38H1722.42V1313H1717.5C1714.46 1313 1712.18 1312.3 1710.66 1310.9C1709.14 1309.5 1708.38 1307.2 1708.38 1304V1284.62H1704.12V1280.12H1708.38V1271.84H1713.84V1280.12H1722.42V1284.62H1713.84ZM1758.19 1280.12V1313H1752.73V1308.14C1751.69 1309.82 1750.23 1311.14 1748.35 1312.1C1746.51 1313.02 1744.47 1313.48 1742.23 1313.48C1739.67 1313.48 1737.37 1312.96 1735.33 1311.92C1733.29 1310.84 1731.67 1309.24 1730.47 1307.12C1729.31 1305 1728.73 1302.42 1728.73 1299.38V1280.12H1734.13V1298.66C1734.13 1301.9 1734.95 1304.4 1736.59 1306.16C1738.23 1307.88 1740.47 1308.74 1743.31 1308.74C1746.23 1308.74 1748.53 1307.84 1750.21 1306.04C1751.89 1304.24 1752.73 1301.62 1752.73 1298.18V1280.12H1758.19ZM1765.37 1296.44C1765.37 1293.08 1766.05 1290.14 1767.41 1287.62C1768.77 1285.06 1770.63 1283.08 1772.99 1281.68C1775.39 1280.28 1778.07 1279.58 1781.03 1279.58C1783.59 1279.58 1785.97 1280.18 1788.17 1281.38C1790.37 1282.54 1792.05 1284.08 1793.21 1286V1268.6H1798.73V1313H1793.21V1306.82C1792.13 1308.78 1790.53 1310.4 1788.41 1311.68C1786.29 1312.92 1783.81 1313.54 1780.97 1313.54C1778.05 1313.54 1775.39 1312.82 1772.99 1311.38C1770.63 1309.94 1768.77 1307.92 1767.41 1305.32C1766.05 1302.72 1765.37 1299.76 1765.37 1296.44ZM1793.21 1296.5C1793.21 1294.02 1792.71 1291.86 1791.71 1290.02C1790.71 1288.18 1789.35 1286.78 1787.63 1285.82C1785.95 1284.82 1784.09 1284.32 1782.05 1284.32C1780.01 1284.32 1778.15 1284.8 1776.47 1285.76C1774.79 1286.72 1773.45 1288.12 1772.45 1289.96C1771.45 1291.8 1770.95 1293.96 1770.95 1296.44C1770.95 1298.96 1771.45 1301.16 1772.45 1303.04C1773.45 1304.88 1774.79 1306.3 1776.47 1307.3C1778.15 1308.26 1780.01 1308.74 1782.05 1308.74C1784.09 1308.74 1785.95 1308.26 1787.63 1307.3C1789.35 1306.3 1790.71 1304.88 1791.71 1303.04C1792.71 1301.16 1793.21 1298.98 1793.21 1296.5ZM1837.96 1295.3C1837.96 1296.34 1837.9 1297.44 1837.78 1298.6H1811.5C1811.7 1301.84 1812.8 1304.38 1814.8 1306.22C1816.84 1308.02 1819.3 1308.92 1822.18 1308.92C1824.54 1308.92 1826.5 1308.38 1828.06 1307.3C1829.66 1306.18 1830.78 1304.7 1831.42 1302.86H1837.3C1836.42 1306.02 1834.66 1308.6 1832.02 1310.6C1829.38 1312.56 1826.1 1313.54 1822.18 1313.54C1819.06 1313.54 1816.26 1312.84 1813.78 1311.44C1811.34 1310.04 1809.42 1308.06 1808.02 1305.5C1806.62 1302.9 1805.92 1299.9 1805.92 1296.5C1805.92 1293.1 1806.6 1290.12 1807.96 1287.56C1809.32 1285 1811.22 1283.04 1813.66 1281.68C1816.14 1280.28 1818.98 1279.58 1822.18 1279.58C1825.3 1279.58 1828.06 1280.26 1830.46 1281.62C1832.86 1282.98 1834.7 1284.86 1835.98 1287.26C1837.3 1289.62 1837.96 1292.3 1837.96 1295.3ZM1832.32 1294.16C1832.32 1292.08 1831.86 1290.3 1830.94 1288.82C1830.02 1287.3 1828.76 1286.16 1827.16 1285.4C1825.6 1284.6 1823.86 1284.2 1821.94 1284.2C1819.18 1284.2 1816.82 1285.08 1814.86 1286.84C1812.94 1288.6 1811.84 1291.04 1811.56 1294.16H1832.32ZM1861.19 1279.52C1865.19 1279.52 1868.43 1280.74 1870.91 1283.18C1873.39 1285.58 1874.63 1289.06 1874.63 1293.62V1313H1869.23V1294.4C1869.23 1291.12 1868.41 1288.62 1866.77 1286.9C1865.13 1285.14 1862.89 1284.26 1860.05 1284.26C1857.17 1284.26 1854.87 1285.16 1853.15 1286.96C1851.47 1288.76 1850.63 1291.38 1850.63 1294.82V1313H1845.17V1280.12H1850.63V1284.8C1851.71 1283.12 1853.17 1281.82 1855.01 1280.9C1856.89 1279.98 1858.95 1279.52 1861.19 1279.52ZM1890.21 1284.62V1304C1890.21 1305.6 1890.55 1306.74 1891.23 1307.42C1891.91 1308.06 1893.09 1308.38 1894.77 1308.38H1898.79V1313H1893.87C1890.83 1313 1888.55 1312.3 1887.03 1310.9C1885.51 1309.5 1884.75 1307.2 1884.75 1304V1284.62H1880.49V1280.12H1884.75V1271.84H1890.21V1280.12H1898.79V1284.62H1890.21Z" fill="#262626"/>
</svg>
