<svg width="1116" height="1350" viewBox="0 0 1116 1350" fill="none" xmlns="http://www.w3.org/2000/svg">
<mask id="mask0" mask-type="alpha" maskUnits="userSpaceOnUse" x="0" y="0" width="1116" height="1350">
<rect width="1116" height="1350" fill="#C4C4C4"/>
</mask>
<g mask="url(#mask0)">
<path fill-rule="evenodd" clip-rule="evenodd" d="M857.107 652.567C848.39 618.767 840.375 604.436 824.891 592.688C810.408 581.7 789.267 572.471 758.419 565.729C726.289 560.113 725.379 543.417 717.323 516.583C714.972 508.516 703.326 506.369 698.3 512.184C697.591 511.419 696.852 510.719 696.087 510.086C696.772 506.239 691.169 495.211 691.356 491.531C693.31 453.119 680.743 433.829 649.378 426.659C642.557 425.098 596.224 424.18 589.573 426.019C560.497 434.056 531.874 459.575 536.255 490.315C527.128 502.241 518.195 509.519 504.114 513.362C482.186 516.145 493.202 826.746 531.286 1012.83C547.626 1092.67 938.336 956.777 920.681 916.79C923.184 909.46 918.622 901.405 920.681 893.836C922.171 888.358 925.987 886.093 927.908 880.669C930.611 873.036 927.671 862.797 924.628 855.008C923.381 851.126 926.924 846.948 927.908 842.987C932.577 824.304 921.886 825.951 914.178 813.461C914.292 813.422 916.297 804.506 916.288 804.55C917.468 798.184 914.511 790.029 911.933 784.715C910.19 781.124 906.456 778.876 902.746 779.288C906.482 766.607 911.207 756.055 916.288 743.838C925.274 722.302 933.819 699.773 946.723 680.28C952.007 672.299 947.739 664.957 939.188 664.413C911.51 662.655 884.135 658.671 857.107 652.567Z" fill="white"/>
<path fill-rule="evenodd" clip-rule="evenodd" d="M813.899 655.178L750.72 762.087C750.72 762.087 765.708 763.583 771.774 766.496C777.839 769.41 805.689 804.81 805.689 804.81L810.114 824.304L799.629 840.02L803.718 849.888C803.718 849.888 806.636 843.203 813.899 838.013C821.163 832.823 837.182 824.304 837.182 824.304C837.182 824.304 831.859 821.456 831.859 818.113C831.859 814.77 827.17 800.508 837.182 795.121C847.194 789.733 898.933 777.125 898.933 777.125L951.368 666.534L813.899 655.178Z" fill="white"/>
<path fill-rule="evenodd" clip-rule="evenodd" d="M532.058 514.087L732.672 549.292L824.891 592.688L839.945 604.285L750.72 762.087L612.949 787.22L577.849 878.379L585.014 981.135L809.139 954.416L905.817 942.93L928.543 1034.67L924.438 1072.41L918.466 1091.54L678.796 1156.24C678.796 1156.24 556.753 1144.41 535.119 1144.41C513.485 1144.41 354.867 1160.16 354.867 1160.16L318.167 1156.24C318.167 1156.24 236.968 1070.67 224.374 1040.22C211.78 1009.76 184.547 824.638 184.547 824.638L187.546 796.193L257.7 615.677C257.7 615.677 267.068 607.171 278.878 592.688C290.689 578.206 532.058 514.087 532.058 514.087Z" fill="white"/>
<path fill-rule="evenodd" clip-rule="evenodd" d="M895.149 774.846C877.019 775.767 858.869 780.077 842.469 787.886C835.759 791.086 829.679 795.706 827.899 803.306C826.999 807.187 827.219 811.197 827.698 815.117C828.059 818.086 828.149 821.876 830.729 823.886C831.169 824.226 831.639 824.486 832.129 824.676C826.079 827.406 820.318 830.687 815.198 834.066C810.519 837.156 805.709 841.916 803.549 847.286C803.369 846.676 803.189 846.107 803.009 845.566C799.329 834.687 793.659 825.777 784.729 819.786C783.715 816.091 772.832 800.187 762.723 800.787C751.653 801.437 742.749 802.246 732.738 807.336C729.089 807.256 725.448 807.306 721.849 807.466C721.229 807.486 721.259 808.327 721.849 808.396C724.769 808.767 727.689 809.176 730.609 809.656C737.549 810.767 744.469 812.176 751.238 813.926C759.359 816.027 767.759 818.136 775.349 821.806C790.068 828.937 799.179 847.577 797.309 863.796C796.999 866.456 795.969 874.496 792.278 873.666C789.159 872.966 787.919 866.456 786.829 864.046C783.909 857.646 778.649 853.466 772.339 850.636C764.929 847.306 756.999 845.056 749.318 842.437C744.969 840.947 740.619 839.456 736.259 837.976C731.799 836.447 727.559 834.336 722.809 835.406C719.939 836.056 719.609 839.476 721.219 841.437C723.669 844.426 727.309 845.306 730.839 846.536C735.499 848.156 740.149 849.777 744.799 851.396C751.988 853.896 759.519 856.006 766.528 859.066L766.309 859.566C765.738 859.406 765.068 859.976 765.179 860.676C766.229 867.146 767.689 874.626 766.068 881.107C764.789 886.246 760.278 891.937 754.419 890.426C755.339 889.586 755.679 888.136 755.059 886.796C752.738 881.836 722.339 862.256 719.629 869.527C719.539 869.786 719.818 869.976 720.039 869.937C722.349 869.456 726.219 873.396 728.068 874.646C730.738 876.447 733.448 878.206 736.089 880.056C738.979 882.077 741.799 884.197 744.549 886.386C746.709 888.107 748.339 889.896 750.818 890.767C749.519 891.386 748.488 892.536 748.049 894.006C746.929 897.836 744.769 901.086 741.019 902.777C737.089 904.536 732.659 903.426 728.519 903.857C722.879 904.426 717.959 907.107 713.849 910.937C705.219 918.996 700.889 933.197 688.819 937.006C681.609 939.277 673.609 937.846 666.309 936.816C658.159 935.666 650.219 934.756 642.009 935.956C634.149 937.107 626.719 939.826 619.539 943.146C612.809 946.256 605.369 949.777 599.399 954.416C598.169 950.626 596.929 946.876 595.988 943.006C593.769 933.857 592.569 924.536 592.278 915.136C592.009 906.187 592.509 897.197 593.278 888.286C593.659 883.836 594.259 879.406 594.639 874.956C594.738 873.836 594.939 872.636 595.089 871.437C605.749 865.146 616.948 860.327 628.238 855.367C628.269 855.357 628.299 855.336 628.329 855.327C628.679 855.166 629.019 855.017 629.369 854.867C629.359 854.846 629.349 854.827 629.329 854.806C630.619 854.017 631.519 852.966 632.059 851.786C648.329 840.996 661.929 826.267 672.069 809.086C676.319 801.886 680.409 794.416 685.969 788.107C691.889 781.376 698.919 777.376 707.619 775.296C717.789 772.857 728.269 771.396 738.689 770.566C744.379 770.117 750.738 769.416 756.939 769.447C761.259 769.476 765.488 769.846 769.369 770.916C775.119 772.496 778.479 776.867 782.089 781.286C785.539 785.527 788.969 789.777 792.189 794.197C795.238 798.386 798.119 802.716 800.619 807.256C802.119 809.976 803.509 812.777 804.679 815.666C805.089 816.687 805.629 817.846 805.879 818.906C806.129 819.976 805.669 821.107 806.869 821.107C801.919 821.176 798.629 833.519 803.549 833.229C810.467 832.826 813.945 824.533 812.589 817.176C810.171 804.049 797.112 788.195 794.528 784.836C788.818 777.416 782.929 767.736 773.789 764.286C773.659 764.236 773.519 764.187 773.389 764.146C776.049 761.626 778.149 758.607 780.159 755.536C782.229 752.376 784.698 748.756 785.379 745.006C785.809 742.617 782.839 741.256 781.429 743.346C779.379 746.396 778.389 750.256 776.859 753.607C775.299 757.006 773.399 760.216 771.899 763.646C768.289 762.536 764.389 762.027 760.419 761.857C765.429 755.077 773.988 741.996 775.019 740.316C779.759 732.536 784.269 724.517 788.579 716.486C793.238 707.786 797.229 698.726 801.689 689.926C804.219 684.937 806.769 679.906 809.579 675.066C810.549 673.406 811.589 671.746 812.769 670.236C812.999 669.937 813.289 669.687 813.559 669.406C813.869 669.236 814.189 669.046 814.369 668.947C815.988 668.017 816.559 665.857 817.698 664.486C819.519 662.277 821.659 662.017 824.399 661.986C830.238 661.926 836.099 662.156 841.929 662.316C850.499 662.556 859.059 662.896 867.619 663.346C870.209 663.486 872.789 663.626 875.379 663.786C887.829 664.527 900.269 665.496 912.679 666.687C923.659 667.736 934.639 669.447 945.629 670.267C930.749 705.617 914.249 740.327 895.568 773.827C895.379 774.166 895.238 774.506 895.149 774.846ZM812.589 865.916C810.189 867.017 807.859 868.386 805.689 869.947C806.049 867.517 806.139 864.956 806.039 862.386C807.829 864.306 810.119 865.406 812.589 865.916ZM915.039 805.107C914.869 805.126 914.709 805.216 914.629 805.386C911.309 812.236 912.698 819.886 918.119 825.256C920.959 828.056 927.149 831.216 926.948 835.816C926.778 839.536 922.729 842.656 920.999 845.726C919.389 848.586 918.789 851.726 920.079 854.827C921.729 858.796 926.339 860.376 927.919 864.277C929.919 869.226 926.669 875.197 924.389 879.506C922.269 883.496 919.528 887.486 917.709 891.706C905.519 898.017 877.859 909.476 874.528 910.117C870.469 910.906 866.399 911.656 862.318 912.357C854.488 913.716 846.639 914.976 838.769 916.086C834.289 916.716 829.799 917.336 825.309 917.826C821.389 918.246 816.969 918.816 813.809 915.867C807.439 909.906 811.009 899.916 815.039 893.896C815.119 893.777 815.119 893.666 815.089 893.566C818.889 892.676 822.679 891.636 826.459 890.906C833.729 889.506 841.049 888.327 848.379 887.277C863.439 885.126 878.599 883.706 893.738 882.277C897.488 881.916 897.528 876.017 893.738 876.367C871.988 878.357 850.129 880.246 828.669 884.437C823.289 885.476 817.948 886.656 812.639 887.986C810.129 888.607 807.439 889.577 804.809 889.607C804.649 889.607 804.488 889.607 804.329 889.596C799.179 889.437 798.429 885.027 801.259 881.357C801.609 880.906 801.969 880.456 802.339 880.027C807.339 874.066 813.568 870.086 819.988 865.966C827.179 864.986 834.349 862.806 841.389 861.206C858.769 857.246 876.149 853.286 893.539 849.336C896.948 848.556 895.499 843.316 892.089 844.086C878.889 847.077 865.689 850.066 852.488 853.056L833.169 857.437C829.309 858.306 824.488 860.056 819.948 860.687C817.709 860.996 815.539 861.036 813.579 860.577C807.249 859.077 806.929 851.166 809.659 846.466C812.719 841.187 818.499 837.886 823.629 834.896C832.519 829.706 841.979 825.976 851.219 821.676C852.859 821.316 854.499 820.956 856.139 820.596C865.679 818.496 876.579 817.466 885.559 813.617C888.249 812.476 886.778 808.236 884.119 808.296C877.149 808.447 869.859 810.926 863.049 812.396C855.679 813.996 848.299 815.586 840.929 817.176C840.189 817.336 835.809 818.736 835.149 818.426C834.729 818.226 834.579 816.767 834.439 815.806C833.988 812.646 833.659 809.327 834.149 806.156C835.229 799.046 841.159 795.706 847.159 792.976C860.519 786.906 875.169 783.107 889.749 781.586C893.109 781.236 896.469 781.017 899.849 780.906C903.818 780.786 907.089 780.086 909.099 783.996C912.259 790.156 913.999 798.077 915.039 805.107ZM896.485 1028.45C893.574 1018.38 894.366 1007.63 892.372 997.364C891.343 992.066 889.938 986.81 888.404 981.638C887.166 977.46 885.101 973.016 884.867 968.656C884.853 968.365 885.196 968.197 885.432 968.331C889.539 970.683 892.693 975.768 895.035 979.758C897.839 984.533 899.98 989.533 901.707 994.79C905.149 1005.26 907.975 1017.9 903.536 1028.45C902.215 1031.59 897.575 1032.22 896.485 1028.45ZM782.877 1104.67C778.539 1101.64 775.378 1097.41 771.699 1093.67C768.081 1090 773.737 1084.34 777.356 1088.02C780.495 1091.2 783.22 1095.18 786.914 1097.76C788.692 1099 789.515 1101.24 788.35 1103.23C787.32 1104.99 784.65 1105.9 782.877 1104.67ZM758.685 988.32C766.604 984.896 774.392 981.167 782.68 978.701C787.633 977.226 789.73 984.949 784.807 986.414C777.174 988.687 770.015 992.075 762.723 995.227C758.041 997.251 753.972 990.357 758.685 988.32ZM675.055 985.924C673.118 981.146 680.861 979.087 682.769 983.798C684.966 989.22 687.484 994.503 689.681 999.925C691.616 1004.7 683.875 1006.76 681.967 1002.05C679.77 996.63 677.251 991.347 675.055 985.924ZM592.51 1081.34C591.22 1083.06 589.069 1083.99 587.037 1082.78C585.335 1081.76 584.296 1079.05 585.602 1077.31C589.415 1072.22 593.278 1067.2 597.747 1062.67C601.37 1059 607.024 1064.66 603.404 1068.33C599.413 1072.37 595.916 1076.8 592.51 1081.34ZM580.707 545.952C584.379 548.46 587.596 551.507 590.733 554.642C594.38 558.287 588.722 563.943 585.075 560.298C582.432 557.656 579.766 554.974 576.669 552.86C574.88 551.638 574.077 549.365 575.234 547.387C576.271 545.615 578.922 544.734 580.707 545.952ZM700.798 674.689C698.722 678.846 696.853 682.921 696.735 687.646C696.609 692.793 688.609 692.796 688.736 687.646C688.889 681.463 691.169 676.101 693.89 670.651C696.192 666.038 703.09 670.095 700.798 674.689ZM744.86 571.296C749.161 568.429 753.162 575.362 748.899 578.204C745.443 580.507 741.986 582.812 738.53 585.116C734.231 587.982 730.23 581.05 734.492 578.208C737.948 575.904 741.404 573.6 744.86 571.296ZM553.745 752.069C553.011 757.153 545.303 754.978 546.03 749.943C547.155 742.161 548.528 734.482 550.639 726.902C552.021 721.942 559.736 724.062 558.353 729.029C556.242 736.609 554.869 744.288 553.745 752.069ZM525.696 843.709C520.547 843.6 520.546 835.6 525.696 835.709C530.356 835.808 534.937 837.034 539.432 838.156C544.432 839.405 542.3 847.118 537.305 845.87C533.505 844.921 529.636 843.793 525.696 843.709ZM515.342 1028.31C513.573 1029.17 511.758 1029.94 509.97 1030.76C506.389 1032.4 502.81 1034.04 499.232 1035.68C491.778 1039.1 484.328 1042.54 476.885 1045.98C461.985 1052.88 446.97 1059.53 432.034 1066.35C416.803 1073.31 401.612 1080.36 386.44 1087.45C379.292 1090.79 372.09 1094 364.902 1097.25C358.756 1100.03 351.159 1104.89 344.412 1105.34C344.065 1105.37 343.949 1104.93 344.147 1104.7C346.696 1101.8 350.762 1100.12 354.112 1098.23C357.534 1096.31 361.02 1094.5 364.49 1092.66C371.724 1088.83 378.967 1085.02 386.271 1081.33C400.881 1073.93 415.519 1066.59 430.16 1059.26C445.092 1051.79 460.005 1044.26 475.068 1037.05C482.16 1033.65 489.259 1030.27 496.362 1026.89C500.21 1025.06 504.06 1023.24 507.91 1021.42C509.573 1020.63 511.219 1019.78 512.919 1019.08C515.178 1018.14 516.895 1018.33 519.225 1017.76C523.025 1016.82 524.67 1021.65 521.753 1023.75C519.351 1025.49 518.087 1026.97 515.342 1028.31ZM461.935 1110.34C461.114 1108.34 462.833 1105.92 464.729 1105.42C467 1104.82 468.821 1106.2 469.65 1108.21C471.843 1113.55 474.967 1118.44 478.988 1122.58C482.582 1126.27 476.928 1131.93 473.331 1128.23C468.292 1123.05 464.672 1117 461.935 1110.34ZM422.644 981.929C418.997 978.283 424.655 972.627 428.301 976.273L438.669 986.64C442.316 990.287 436.657 995.943 433.012 992.297L422.644 981.929ZM316.274 965.026C308.82 967.212 300.126 969.222 295.044 975.581C294.796 975.892 294.379 975.493 294.528 975.183C301.034 961.695 319.692 956.964 332.61 952.239C341.747 948.896 351.122 946.124 360.576 943.648C359.631 932.863 362.237 921.304 363.143 910.572C364.11 899.114 364.897 887.626 365.301 876.132C365.714 864.407 365.814 852.603 365.428 840.875C365.044 829.19 363.527 817.648 362.863 806.002C362.799 804.876 364.367 804.822 364.705 805.753C368.631 816.56 370.308 828.531 371.586 839.926C372.902 851.665 373.339 863.37 373.171 875.177C372.997 887.317 372.291 899.428 371.322 911.529C370.863 917.265 370.33 922.993 369.827 928.725C369.443 933.099 369.265 937.438 368.373 941.673C374.075 940.274 379.79 938.95 385.487 937.663C403.653 933.564 421.895 929.76 439.985 925.327C448.865 923.152 457.618 920.546 466.458 918.232C474.782 916.053 483.568 913.411 492.114 912.439C495.164 912.091 495.552 916.263 493.533 917.679C486.587 922.556 477.362 925.952 469.339 928.682C461.287 931.421 452.917 933.392 444.664 935.421C427.453 939.654 410.079 943.115 392.731 946.72C375.407 950.321 358.05 953.895 340.921 958.338C332.672 960.478 324.451 962.626 316.274 965.026ZM275.427 751.003C270.973 753.618 266.952 746.701 271.39 744.095C277.197 740.687 283.386 738.126 289.625 735.628C294.413 733.712 296.473 741.452 291.752 743.343C286.145 745.587 280.645 747.941 275.427 751.003ZM259.299 1048.22C254.833 1050.81 250.809 1043.89 255.262 1041.31C261.516 1037.69 268.365 1035.27 274.846 1032.09C279.457 1029.84 283.507 1036.74 278.883 1039C272.403 1042.17 265.553 1044.59 259.299 1048.22ZM252.045 879.505C256.363 883.607 262.126 885.538 267.56 887.693C272.298 889.57 270.22 897.304 265.433 895.407C258.663 892.722 251.767 890.271 246.388 885.161C242.646 881.607 248.313 875.96 252.045 879.505ZM299.816 650.38C304.563 652.242 302.484 659.976 297.689 658.095C292.371 656.009 286.879 654.421 281.561 652.335C276.815 650.473 278.893 642.74 283.688 644.62C289.006 646.706 294.498 648.294 299.816 650.38ZM384.089 559.372C389.133 558.522 391.281 566.232 386.216 567.087C379.932 568.148 373.744 569.389 367.784 571.695C362.971 573.557 360.906 565.819 365.657 563.981C371.618 561.675 377.806 560.433 384.089 559.372ZM411.934 780.955C407.309 778.681 411.367 771.785 415.971 774.048C420.823 776.433 425.85 778.277 431.144 779.404C436.185 780.478 434.038 788.189 429.017 787.119C423.059 785.849 417.39 783.638 411.934 780.955ZM438.233 656.14C443.213 654.776 445.319 662.495 440.36 663.855C431.635 666.245 422.652 667.488 413.863 669.615C408.854 670.827 406.735 663.111 411.736 661.901C420.525 659.773 429.509 658.532 438.233 656.14ZM549.799 616.972C554.863 617.909 552.705 625.618 547.673 624.687C542.316 623.696 536.887 623.68 531.456 623.677C526.3 623.675 526.309 615.675 531.456 615.677C537.626 615.68 543.717 615.847 549.799 616.972ZM913.659 658.767C900.589 657.517 887.499 656.517 874.389 655.767C873.778 655.736 873.179 655.697 872.568 655.666C872.499 655.527 872.409 655.396 872.318 655.256C868.039 648.976 864.889 642.697 862.159 635.596C859.549 628.836 857.019 621.867 852.999 615.767C848.414 608.817 842.224 603.379 835.44 598.666C831.325 601.433 827.506 604.673 824.012 608.107C820.335 611.72 814.677 606.064 818.355 602.45C821.46 599.398 824.774 596.579 828.277 594.032C824.232 591.574 820.105 589.264 816.079 586.966C800.988 578.357 785.539 570.396 769.769 563.117C762.439 559.726 755.019 556.716 747.549 553.666C743.528 552.027 739.559 549.916 735.539 548.017C735.829 545.176 734.979 541.996 732.799 540.126C731.189 538.756 729.939 538.246 728.019 537.277C727.589 537.126 727.329 537.036 727.209 536.986C727.299 537.006 727.559 537.086 727.988 537.226C729.009 537.697 729.089 537.556 728.229 536.816C728.179 535.197 724.988 531.777 724.259 530.107C721.719 524.376 720.929 518.316 717.179 513.096C712.009 505.906 703.329 503.187 695.238 505.626C694.399 496.976 694.179 487.947 690.919 480.226C690.829 480.017 690.539 479.926 690.409 480.156C687.009 485.947 686.719 492.396 686.459 499.076C686.209 505.346 686.448 511.756 687.269 517.986C686.749 518.386 686.219 518.767 685.669 519.136C683.089 520.836 680.309 522.146 677.389 523.117C671.829 524.956 665.999 525.756 660.169 526.036C645.119 526.756 629.609 525.236 614.809 522.656C599.839 520.046 576.889 516.126 563.569 508.636C554.778 503.697 546.669 497.666 538.448 491.826C541.429 482.226 542.189 471.906 539.189 463.796C538.829 462.826 537.309 462.646 537.019 463.796C535.139 471.536 534.589 479.316 532.089 486.966C532.049 487.076 532.009 487.197 531.969 487.306C531.189 486.777 530.409 486.256 529.629 485.736C527.829 484.546 525.379 485.437 524.299 487.136C507.028 514.346 479.679 515.906 450.959 520.767C419.528 526.086 387.939 531.826 357.719 542.236C328.819 552.197 301.199 566.697 279.319 588.357C274.366 593.261 269.734 598.486 265.362 603.941C269.592 604.474 273.787 605.304 277.928 606.605C282.831 608.145 280.724 615.866 275.801 614.319C270.479 612.647 265.098 611.82 259.662 611.408C244.795 631.746 233.203 654.807 223.179 677.506C203.952 721.027 191.437 767.375 185.678 814.562C188.84 812.667 192.059 810.862 195.358 809.183C199.942 806.852 203.985 813.756 199.396 816.091C194.3 818.683 189.35 821.54 184.554 824.638C182.459 845.293 181.647 866.081 182.139 886.836C183.309 936.316 189.989 987.246 205.099 1034.46C212.509 1057.63 222.329 1080.61 236.959 1100.19C243.579 1109.06 251.099 1117.06 259.959 1123.73C264.249 1126.97 268.789 1129.86 273.579 1132.3C279.749 1135.46 287.789 1136.5 293.109 1140.97C294.859 1142.44 296.209 1144.38 297.229 1146.57C296.639 1150.73 296.569 1154.9 297.709 1159.06C298.069 1160.36 299.049 1161.42 300.259 1161.93C300.279 1162.29 300.279 1162.64 300.279 1162.98C300.279 1163.14 300.519 1163.18 300.549 1163.02C300.599 1162.71 300.649 1162.4 300.699 1162.08C301.089 1162.21 301.499 1162.27 301.919 1162.27C317.109 1162.32 332.318 1161.95 347.528 1161.44C346.352 1157.83 345.078 1154.26 343.855 1150.66C342.194 1145.77 349.923 1143.68 351.569 1148.53C353 1152.75 354.496 1156.92 355.827 1161.15C372.124 1160.54 388.416 1159.81 404.679 1159.28C439.269 1158.13 473.849 1157.75 508.448 1157.02C562.179 1155.88 616.301 1153.55 670.115 1155.83C671.976 1151.88 674.059 1148.02 676.034 1144.12C678.364 1139.52 685.264 1143.58 682.942 1148.16C681.569 1150.87 680.147 1153.54 678.796 1156.24C689.695 1156.81 700.583 1157.56 711.448 1158.58C729.988 1160.32 748.349 1163.41 766.869 1165.33C785.698 1167.29 804.119 1166.94 822.799 1163.83C826.159 1163.27 828.139 1161.24 828.959 1158.72C828.988 1158.71 829.009 1158.69 829.028 1158.66C829.988 1157.54 830.889 1156.61 831.818 1155.8C832.929 1155.08 834.129 1154.47 835.539 1153.93C838.169 1152.93 840.909 1152.32 843.689 1151.91C846.749 1151.45 849.849 1151.41 852.909 1151.03C855.488 1150.7 858.009 1150.21 860.528 1149.61C865.059 1148.53 869.359 1147.12 873.639 1145.25C877.369 1143.62 880.738 1141.28 883.919 1138.73C890.499 1133.92 896.198 1127.78 901.179 1121.4C904.079 1117.67 906.809 1113.8 909.289 1109.77C913.609 1102.79 917.289 1095.54 921.009 1088.23C922.359 1086.06 923.591 1083.84 924.717 1081.58C917.447 1079.43 910.107 1077.69 902.4 1077.56C897.248 1077.48 897.249 1069.48 902.4 1069.56C911.239 1069.71 919.6 1071.77 927.907 1074.23C928.312 1073.16 928.7 1072.07 929.059 1070.98C930.049 1068.69 930.869 1066.34 931.549 1063.96C931.948 1062.88 932.349 1061.8 932.749 1060.72C933.649 1056.98 934.549 1053.23 935.459 1049.48C937.269 1043.48 938.698 1037.39 939.749 1031.22C940.629 1027.16 941.309 1023.07 941.769 1018.93C943.169 1008.9 944.309 998.886 944.389 988.746C944.269 982.496 943.869 976.256 943.189 970.046C942.899 965.826 942.409 961.626 941.749 957.456C940.889 951.256 940.039 945.117 938.609 938.996C937.539 934.857 936.469 930.716 935.399 926.576C932.729 917.947 929.579 909.486 925.948 901.216C925.749 900.697 924.738 899.556 924.129 899.546C923.669 899.536 923.028 899.956 923.238 900.517C923.259 900.566 923.278 900.626 923.299 900.676C923.089 900.206 922.889 899.726 922.679 899.256C922.499 898.816 921.799 897.937 921.259 897.947C921.229 897.947 921.198 897.947 921.159 897.956C921.299 897.857 921.429 897.726 921.559 897.577C925.149 893.327 927.479 887.736 930.049 882.816C932.179 878.756 934.189 874.476 934.769 869.886C935.278 865.857 934.589 861.886 932.059 858.626C929.179 854.916 923.759 853.176 926.769 847.816C930.189 841.716 935.219 836.426 930.209 829.496C927.659 825.966 923.619 824.027 920.619 820.956C917.169 817.406 915.528 812.656 915.619 807.806C915.829 807.926 916.109 807.867 916.209 807.566C919.109 798.806 917.009 789.187 914.039 780.656C912.419 776.027 908.988 774.756 904.999 774.527C922.278 740.777 938.448 706.486 952.859 671.406C953.339 670.256 953.809 669.107 954.278 667.956C954.979 666.236 953.499 663.947 951.789 663.566C939.329 660.836 926.349 659.966 913.659 658.767Z" fill="#262626"/>
<path fill-rule="evenodd" clip-rule="evenodd" d="M789.698 280.192C789.3 257.79 788.861 234.94 785.538 212.756C782.289 191.068 773.351 171.464 757.992 155.715C725.368 122.262 678.078 114.091 634.059 106.603L558.799 93.8001C535.838 89.8951 511.343 83.6531 488.145 89.1911C476.714 91.9201 467.007 98.2601 458.135 105.761C449.583 112.991 440.388 120.755 434.593 130.482C428.789 140.223 426.792 151.61 424.905 162.627C422.776 175.048 421.123 187.566 419.948 200.114C417.594 225.254 417.273 250.583 418.98 275.775C419.808 287.994 421.124 300.178 422.804 312.308C423.638 318.323 424.58 324.323 425.643 330.302C425.957 332.065 426.195 334.017 426.516 335.989C424.142 342.755 422.793 349.762 422.902 356.739C423.222 377.291 440.533 390.23 457.984 397.177C468.103 401.205 478.681 403.942 488.623 408.442C499.082 413.175 506.201 420.848 513.352 429.601C526.99 446.295 542.38 461.299 559.954 473.817C597.214 500.358 644.406 512.911 689.614 503.383C700.461 501.097 711.404 497.547 721.155 492.198C731.449 486.551 739.189 478.368 745.69 468.693C757.759 450.732 766.415 430.507 772.963 409.926C779.642 388.932 784.383 367.9 786.968 346.009C789.545 324.189 790.088 302.147 789.698 280.192Z" fill="white"/>
<path fill-rule="evenodd" clip-rule="evenodd" d="M549.536 15.7638C580.68 11.4708 623.666 25.4238 639.176 53.5578C713.226 36.0638 806.621 35.4908 867.653 93.7278C931.337 162.81 851.347 253.895 798.306 274.431C802.168 293.238 796.146 413.723 753.541 467.466C719.729 513.002 640.988 534.017 604.552 479.628L604.268 479.179C600.365 472.898 603.726 473.1 607.734 477.772C643.412 509.214 691.923 509.751 729.305 476.569C799.364 415.919 792.141 267.209 758.803 181.178C663.874 170.73 562.235 199.563 496.668 271.172L501.102 297.92C501.857 302.477 502.716 307.03 503.37 311.603C503.789 314.533 503.836 317.447 501.811 319.819C495.122 327.649 483.849 315.883 474.573 311.203C471.835 310.817 469.092 310.668 466.401 310.858C421.838 316.61 430.618 403.24 479.596 388.055C483.712 385.486 487.247 386.27 488.844 389.998C500.518 400.714 508.216 419.826 527.612 438.234C534.456 445.139 540.683 450.916 548.381 456.455C552.903 461.037 566.546 465.709 562.221 473.55C554.042 491.392 505.813 435.347 497.286 419.848C470.57 430.42 440.962 426.829 413.276 424.245C267.215 416.635 286.713 262.345 406.436 164.934C428.973 148.308 453.837 134.745 479.683 124.308C483.212 122.883 481.67 117.077 478.092 118.522C460.99 125.429 444.318 133.65 428.426 143.165L428.402 137.476C428.378 127.895 428.528 117.92 430.189 109.166C431.019 103.1 432.415 96.6208 434.565 91.7468C437.222 76.8038 478.849 25.5118 549.536 15.7638ZM464.452 330.746C466.707 328.599 470.917 331.159 472.925 331.095C478.059 331.799 482.937 333.972 486.741 336.654C489.253 338.064 491.013 339.388 492.484 340.606L492.524 340.595C492.513 340.595 492.499 340.606 492.487 340.609L492.625 340.703C494.767 342.228 502.607 350.817 497.654 348.507C497.285 348.026 496.906 347.564 496.525 347.111C496.484 347.173 496.428 347.234 496.36 347.293L496.638 347.707C500.848 354.054 493.579 347.367 492.461 345.591C492.408 345.634 492.348 345.663 492.289 345.694L493.746 347.471C493.949 347.723 494.109 347.924 494.242 348.094L494.549 348.392C499.417 353.186 499.569 357.501 493.914 350.412C494.136 350.746 494.315 351.1 494.34 351.414L494.675 351.843C499.115 357.576 495.504 355.54 493.297 353.091L493.113 352.881L493.15 352.938C495.203 356.107 491.13 353.883 490.411 352.188L490.38 352.111C489.596 351.47 489.114 350.751 488.948 350.569L488.917 350.538C485.099 346.618 479.565 343.301 474.864 341.794C474.183 341.664 473.493 341.56 472.796 341.486C469.969 340.854 467.111 340.421 464.224 340.187C463.87 340.145 463.512 339.885 463.245 339.549C458.878 339.402 460.226 337.608 462.038 337.275L462.069 337.27L461.71 337.239C458.907 336.965 456.993 335.957 459.827 335.339L460.186 335.267C460.142 335.198 460.103 335.129 460.065 335.06C457.639 334.793 459.222 332.429 460.569 333.001C460.003 331.144 462.593 332.071 462.916 331.795C463.163 331.521 463.469 331.279 463.646 331.266C464.426 330.714 464.048 330.764 464.452 330.746ZM479.301 300.681L478.732 301.014C478.272 301.283 477.799 301.462 477.324 301.567C477.995 301.853 478.657 302.162 479.313 302.492C479.302 302.089 479.295 301.686 479.295 301.283L479.301 300.681Z" fill="#262626"/>
<path fill-rule="evenodd" clip-rule="evenodd" d="M677.587 423.927C670.864 421.184 664.866 416.61 660.481 410.766C658.957 408.735 658.561 406.59 658.881 404.628C659.241 402.421 660.546 400.422 662.326 399.081C664.112 397.735 666.345 397.072 668.504 397.41C670.381 397.704 672.248 398.731 673.727 400.862L674.035 401.288C676.642 404.815 680.04 407.709 683.91 409.574C687.641 411.372 691.814 412.211 696.132 411.723C704.356 410.794 710.024 406.346 716.049 400.307C716.796 399.544 717.543 398.758 718.294 397.959C718.768 397.234 719.426 396.769 720.157 396.524C720.968 396.253 721.886 396.269 722.726 396.562C723.537 396.845 724.262 397.381 724.748 398.095C725.209 398.773 725.471 399.61 725.386 400.574C724.835 406.833 721.562 412.419 716.914 416.805C711.752 421.677 704.909 425.047 698.466 426.229C691.368 427.531 684.136 426.598 677.587 423.927ZM701.814 327.367C709.366 331.957 720.872 342.66 712.748 354.04C703.186 364.073 689.419 352.569 682.634 347.366C676.343 343.334 669.275 353.704 675.112 358.413C724.136 394.708 744.031 328.567 705.634 321.97C701.406 321.243 699.836 325.947 701.814 327.367ZM613.963 285.146C614.798 274.79 630.57 272.438 632.139 282.686C633.544 291.866 631.89 300.299 627.755 308.564C623.804 316.46 613.874 312.777 613.123 305.587C612.116 295.949 613.444 291.589 613.963 285.146ZM734.027 280.561C736.226 277.681 739.401 275.715 743.205 276.826C755.09 280.299 751.587 297.172 747.413 305.385C745.145 309.845 737.814 310.976 734.501 307.049C729.101 300.645 726.515 287.856 733.38 281.548C733.566 281.222 733.773 280.893 734.027 280.561ZM627.588 239.83L629.465 239.502C635.273 238.497 642.494 237.532 646.603 242.201C648.782 244.677 649.532 249.279 646.603 251.649C641.451 255.819 635.755 254.203 629.581 254.556C624.493 254.848 619.603 255.69 614.702 257.091C603.95 260.164 595.189 265.774 586.006 271.934C584.801 272.742 583.571 271.201 584.146 270.074C589.447 259.691 599.72 251.162 610.01 245.963C615.502 243.188 621.512 240.886 627.588 239.83ZM723.193 235.179L724.63 235.473C740.267 238.742 760.583 245.271 767.988 260.631C768.271 262.803 767.972 263.268 767.73 263.572L767.649 263.673C767.45 263.933 767.29 264.291 766.349 264.587C766.088 264.525 765.824 264.459 765.557 264.389C762.163 263.499 759.477 262.274 756.877 261.002L754.058 259.613C750.788 258.01 747.488 256.465 743.992 255.324C736.53 252.89 728.854 251.175 721.06 250.26C719.37 250.061 717.744 249.491 716.46 248.514C715.242 247.587 714.311 246.302 713.887 244.595C713.337 242.386 713.495 240.714 714.68 238.721C715.572 237.224 716.847 236.187 718.311 235.591C719.804 234.984 721.504 234.841 723.193 235.179Z" fill="#262626"/>
</g>
</svg>
