<svg width="1136" height="1533" viewBox="0 0 1136 1533" fill="none" xmlns="http://www.w3.org/2000/svg">
<g clip-path="url(#clip0)">
<rect x="608" y="918" width="229" height="282" fill="white"/>
<path fill-rule="evenodd" clip-rule="evenodd" d="M541.207 642.173C565.892 623.376 627.865 614.923 654.211 633.022C680.233 651.197 683.07 680.589 695.196 707.627C706.637 702.232 725.53 709.958 728.847 720.574C732.961 725.581 733.146 739.649 735.983 746.38C859.425 766.029 878.166 862.267 893.024 971.525C912.68 1082.39 957.301 1193.02 937.93 1307.11C940.454 1310.76 942.444 1314.31 944.284 1318.53C948.693 1326.03 943.014 1336.65 934.121 1336.24C922.61 1335.22 911.213 1333.84 899.648 1333.41C867.588 1332.3 835.499 1332.43 803.427 1332.84L799.054 1332.9C637.421 1334.91 475.797 1338.87 314.157 1339.93C308.293 1339.93 305.422 1334.68 306.205 1329.49C307.782 1319.04 309.245 1308.59 310.772 1298.14C272.54 1308.24 231.896 1310.78 193.772 1299.2C191.105 1296.49 199.986 1297.96 201.395 1297.55C166.309 1273.57 176.787 1223.07 179.895 1186.69C199.221 1062.04 206.034 924.118 280.703 817.751C313.006 774.343 360.365 739.975 414.784 732.242L416.294 732.036C432.206 729.914 449.94 729.231 463.852 720.574C479.499 708.083 486.167 685.002 502.629 684.786C508.064 684.715 515.459 691.592 523.416 696.26C524.01 685.99 529.545 677.322 530.767 669.359L530.866 668.678C532.141 659.394 530.395 651.041 541.207 642.173ZM806.495 974.819C771.805 950.719 682.192 962.828 680.14 964.178C675.623 967.149 673.678 967.411 671.235 971.269C668.823 971.589 666.413 971.921 664.005 972.263C659.174 973.841 662.754 979.783 668.334 977.663C664.978 992.138 674.855 1002.43 678.787 1016.74C680.064 1021.39 678.833 1029.74 678.787 1034.49C679.168 1040.54 685.861 1047.69 684.745 1053.77C680.78 1075.35 659.262 1096.41 668.334 1117.35C674.344 1129.18 692.42 1135.21 704.438 1139.23C729.337 1148.78 772.721 1138.87 787.188 1117.35C794.905 1105.88 803.845 1076.93 808.446 1067.95L809.465 1053.71C811.98 1018.3 814.217 980.183 806.495 974.819Z" fill="white"/>
<path fill-rule="evenodd" clip-rule="evenodd" d="M501.345 684.851L511.273 690.943L568.931 719.445C580.109 722.575 585.698 726.326 585.698 730.698V775.217C585.698 781.174 596.188 794.677 617.167 815.723L636.548 796.402L636.115 793.872C634.271 782.972 633.348 775.68 633.348 771.997C633.348 768.037 652.31 753.001 690.234 726.891L706.825 711.271L705.056 705.891C715.285 706.375 726.379 712.675 728.847 720.574C732.961 725.581 733.146 739.649 735.983 746.38C859.425 766.029 878.166 862.267 893.024 971.525C912.68 1082.39 957.301 1193.02 937.93 1307.11C940.454 1310.76 942.444 1314.31 944.284 1318.53C948.693 1326.03 943.014 1336.65 934.121 1336.24C922.61 1335.22 911.213 1333.84 899.648 1333.41C867.588 1332.3 835.499 1332.43 803.427 1332.84L799.054 1332.9C637.421 1334.91 475.797 1338.87 314.157 1339.93C308.293 1339.93 305.422 1334.68 306.205 1329.49C307.782 1319.04 309.245 1308.59 310.772 1298.14C272.54 1308.24 231.896 1310.78 193.772 1299.2C191.105 1296.49 199.986 1297.96 201.395 1297.55C166.309 1273.57 176.787 1223.07 179.895 1186.69C199.221 1062.04 206.034 924.118 280.703 817.751C313.006 774.343 360.365 739.975 414.784 732.242L416.294 732.036L417.815 731.838C433.328 729.863 450.381 728.956 463.852 720.574C479.086 708.413 485.809 686.213 501.345 684.851ZM639.502 946.156C633.847 946.156 622.265 954.938 604.757 972.502L603.214 973.215C582.049 983.046 568.028 991.574 561.151 998.799L560.905 999.06C553.958 1006.51 540.199 1026.33 519.63 1058.52L489.844 1076.13H478.573L470.549 1134.34L489.844 1175.9L533.547 1161.18L604.757 1142.41L645.619 1100.95L668.669 1093.21C665.872 1101.29 664.859 1109.33 668.334 1117.35C674.344 1129.18 692.42 1135.21 704.438 1139.23C729.337 1148.78 772.721 1138.87 787.188 1117.35C794.905 1105.88 803.845 1076.93 808.446 1067.95L809.765 1049.45C812.143 1015.3 813.909 979.968 806.495 974.819C771.805 950.719 682.192 962.828 680.14 964.178C675.623 967.149 673.678 967.411 671.235 971.269L669.97 971.439L677.082 961.794L674.564 960.449C656.596 950.92 644.909 946.156 639.502 946.156ZM668.334 977.663C665.121 991.52 674.037 1001.55 678.253 1014.93L667.48 994.308L667.479 977.931C667.758 977.862 668.043 977.774 668.334 977.663Z" fill="white"/>
<path fill-rule="evenodd" clip-rule="evenodd" d="M496.585 682.698C498.98 680.577 502.524 683.242 501.002 686.107C497.582 692.546 494.074 698.647 489.484 704.339C486.701 707.79 483.72 711.054 480.699 714.282C488.452 720.989 495.101 729.316 501.38 737.12C509.409 747.101 517 757.505 526.013 766.638C534.901 775.646 544.73 781.942 556.614 786.141L559.014 786.974C570.952 791.165 583.711 796.825 590.441 808.128C591.768 810.357 589.096 813.111 586.85 811.72C575.157 804.48 561.418 803.024 548.69 798.24C536.395 793.619 525.677 786.507 516.207 777.43C506.753 768.368 498.815 758.058 490.535 747.966C482.347 737.987 473.531 729.464 463.846 721.021C448.9 731.076 431.84 735.451 414.493 739.748L412.6 740.216C395.232 744.516 377.957 749.51 361.663 756.998C347.297 763.599 333.167 771.482 321.465 782.224C309.043 793.624 299.375 808.184 290.526 822.423C270.732 854.279 256.816 889.179 244.565 924.503C231.823 961.245 221.165 998.723 212.561 1036.65C208.185 1055.94 204.631 1075.36 201.71 1094.93C200.304 1104.35 199.055 1113.79 197.958 1123.25C196.787 1133.36 196.518 1143.75 193.418 1153.47C192.089 1157.63 188.951 1159.36 185.81 1159.22L185.172 1167.19C184.326 1177.83 183.537 1188.47 183.271 1199.18C182.829 1216.98 183.029 1234.72 184.309 1252.48L184.491 1254.9C185.497 1267.87 187.745 1282.43 197.492 1291.92C207.586 1301.75 223.109 1304.84 236.714 1305.02C268.401 1305.43 298.903 1290.46 326.943 1277.33C355.821 1263.8 383.91 1248.78 411.326 1232.5C425.288 1224.21 439.099 1215.64 452.734 1206.82C459.425 1202.49 466.069 1198.09 472.663 1193.61C476.44 1191.05 480.019 1188.24 483.864 1185.97C481.98 1184.22 481.139 1181.46 482.717 1179.05C471.602 1169.4 466.976 1152.19 466.435 1138.25C465.998 1127.01 467.653 1115.8 468.959 1104.66C469.618 1099.04 470.432 1093.43 471.277 1087.84C471.611 1085.63 471.866 1083.27 472.256 1080.94C442.243 1097.43 411.389 1112.12 379.718 1125.17C363.484 1131.86 347.042 1137.87 330.373 1143.38L326.994 1144.49C311.2 1149.66 295.028 1154.55 278.701 1157.5C277.828 1157.66 277.119 1156.37 278.051 1155.96C293.963 1148.94 310.426 1143.02 326.577 1136.55L329.231 1135.47V1135.47C328.926 1135.45 328.61 1135.41 328.28 1135.33C318.808 1133.05 309.41 1129.52 300.12 1126.56C291.498 1123.8 281.811 1122.08 273.752 1117.92C273.132 1117.6 273.479 1116.74 274.083 1116.7C283.141 1116.07 292.974 1118.71 301.855 1120.26L305.191 1120.85C310.78 1121.83 316.493 1122.89 322.055 1124.27C322.256 1122.41 323.297 1120.54 324.778 1119.44C341.075 1107.37 339.42 1083 341.163 1065.02L342.455 1051.68C344.728 1028.32 347.134 1004.97 350.788 981.788C350.983 980.55 352.898 980.905 352.906 982.074C353.094 1010.81 350.925 1039.41 349.838 1068.1L349.669 1072.81C349.068 1090.51 348.597 1108.89 337.448 1122.51C339.007 1121.6 341.115 1121.6 342.378 1123.11C343.93 1124.95 344.826 1127.03 344.798 1129.06C354.873 1124.84 364.904 1120.5 374.886 1116.08C406.979 1101.86 438.399 1085.95 468.988 1068.74C472.28 1066.88 475.409 1068.34 477.037 1070.78L477.271 1070.75C477.311 1070.74 477.351 1070.74 477.392 1070.74L477.625 1070.73C477.634 1070.73 477.643 1070.73 477.651 1070.73C481.957 1068.36 487.823 1070.05 491.518 1073.5C491.627 1073.6 491.72 1073.72 491.817 1073.83C496.495 1071.73 500.863 1068.89 504.827 1065.3C512.939 1057.95 519.81 1048.85 525.8 1039.74C536.831 1022.95 546.201 1004.28 561.102 990.456C573.209 979.227 588.219 972.236 603.966 967.847C603.9 967.387 604.076 966.897 604.394 966.571C605.203 965.742 605.78 965.455 606.825 965.958C606.908 965.999 606.958 966.055 606.992 966.115L608.528 963.49C609.367 962.065 610.228 960.63 610.527 960.253C612.315 958.002 614.155 955.768 616.023 953.581C619.19 949.878 622.799 946.224 626.978 943.656C636.128 938.035 645.747 941.216 655.154 944.288C660.838 946.145 666.503 948.062 672.177 949.947L672.762 950.139C676.993 951.498 681.944 952.687 683.836 957.169C684.585 958.943 684.701 960.784 684.352 962.57C724.535 952.351 769.167 957.046 808.38 969.042C809.885 969.502 811.389 970.74 811.706 972.366C816.199 995.407 818.2 1019.04 816.167 1042.47C814.413 1062.7 809.93 1082.52 801.484 1101.04L801.004 1102.09C793.067 1119.25 780.486 1140.41 761.273 1145.78C749.672 1149.03 736.842 1147.12 725.01 1146.52C713.511 1145.94 701.757 1145.86 690.367 1144.05C680.223 1142.44 671.335 1137.89 665.066 1129.65C659.658 1122.53 656.81 1113.93 654.477 1105.38C653.409 1105.72 652.348 1106.08 651.304 1106.49C646.897 1108.21 643.163 1110.98 639.787 1114.25C632.658 1121.16 627.128 1129.54 619.669 1136.13C612.917 1142.09 605.223 1146.73 596.97 1150.3C579.868 1157.69 561.522 1160.64 543.433 1164.56L542.172 1164.83C528.554 1167.82 514.654 1171.49 502.634 1178.58C502.399 1180.67 501.448 1182.63 499.924 1183.92C502.044 1185.91 502.942 1189.06 501.079 1192.02C495.875 1200.28 486.911 1204.97 478.864 1210.26L478.341 1210.6C470.425 1215.85 462.44 1220.99 454.39 1226.03C438.025 1236.28 421.318 1245.96 404.375 1255.22C377.124 1270.1 349.288 1284.15 320.948 1296.88C322.649 1305.25 322.027 1313.88 323.305 1322.31L323.502 1323.51C324.048 1326.63 323.31 1329.25 321.156 1331.29L320.929 1331.5L320.933 1331.47L320.731 1331.66L320.663 1331.72L320.686 1331.7C320.437 1331.93 320.181 1332.14 319.92 1332.32L319.588 1332.53V1332.53C317.513 1333.79 314.843 1333.78 312.719 1332.67L312.477 1332.53L312.069 1332.3C309.263 1330.68 307.328 1326.69 308.492 1323.51C311.353 1315.7 312.434 1307.37 315.076 1299.51L312.98 1300.44V1300.44L310.217 1301.65C280.339 1314.57 247.151 1325.45 214.597 1316.64C200.213 1312.75 186.769 1304.51 179.572 1291.09C172.49 1277.89 171.489 1262.55 171.113 1247.86C170.649 1229.73 171.621 1211.32 174.012 1193.35C175.617 1181.28 177.558 1168.99 180.552 1157.05C179.012 1155.69 177.88 1153.74 177.581 1151.33C176.168 1139.92 178.641 1128.06 180.155 1116.72C181.634 1105.64 183.268 1094.58 185.116 1083.56C188.847 1061.3 193.182 1039.09 198.229 1017.09C207.211 977.941 219.072 939.486 233.352 901.95L234.602 898.681C247.798 864.372 263.076 830.795 284.351 800.654C294.528 786.234 305.286 773.16 319.666 762.769C333.138 753.033 348.334 746.023 364.016 740.665C379.715 735.303 395.851 731.71 412.272 729.475C428.949 727.205 446.552 725.813 462.109 718.973C460.141 715.445 461.83 710.682 465.142 708.494C476.288 701.13 486.595 691.55 496.585 682.698ZM853.39 1002.92C853.857 1002.21 854.966 1002.66 854.761 1003.5C849.34 1025.71 844.251 1047.96 840.928 1070.59C834.93 1111.44 836.033 1152.83 836.523 1193.98L836.548 1196.11C836.8 1218.27 837.15 1240.44 837.883 1262.6C838.253 1273.8 838.985 1285.1 838.587 1296.31C838.37 1302.39 836.75 1308.13 836.176 1314.14C835.673 1319.39 836.121 1324.72 836.372 1329.98C836.54 1333.48 831.38 1333.33 831.029 1329.98L830.58 1325.65C829.997 1320.17 829.277 1314.73 827.481 1309.48C825.322 1303.18 824.286 1296.98 823.537 1290.36C822.39 1280.21 821.88 1269.96 821.437 1259.75L821.134 1252.68C819.285 1209.97 819.35 1167.07 822.343 1124.41L822.562 1121.36C825.526 1081.04 830.669 1037.47 853.39 1002.92ZM737.835 748.773C736.419 748.191 736.915 746.05 738.483 746.423L741.335 747.103C762.229 752.108 782.745 757.53 802.247 766.843C821.762 776.161 838.284 790.072 851.412 807.178C876.932 840.429 887.537 880.839 895.909 921.211C905.213 966.072 913.684 1011.1 923.069 1055.94L924.812 1064.3C933.496 1106.07 941.695 1147.86 947.736 1190.13L948.17 1193.19C954.263 1236.65 957.927 1281.62 951.279 1325.19C949.964 1333.81 935.618 1331.67 936.179 1323.15C937.799 1298.53 938.959 1274.03 937.838 1249.36C936.716 1224.67 934.401 1200.1 930.95 1175.63C928.046 1155.04 923.717 1134.71 919.886 1114.28L919.285 1111.05C916.077 1093.68 912.77 1076.32 909.47 1058.97L904.539 1032.98C897.148 994.065 889.612 955.118 881.097 916.449L880.592 914.174C872.259 876.972 859.974 838.002 834.979 808.46C809.614 778.479 773.303 763.38 737.835 748.773ZM645.668 1143.37C646.278 1142.01 648.412 1142.16 649.068 1143.37C651.639 1148.11 651.924 1154.17 652.41 1159.52L652.461 1160.07C653.079 1166.6 653.626 1173.16 653.961 1179.71C654.596 1192.15 654.9 1204.58 654.861 1217.03C654.821 1229.79 654.564 1242.54 653.876 1255.29L653.69 1258.7C653.062 1269.78 652.008 1282.13 646.745 1291.82C644.832 1295.34 639.629 1294.3 638.521 1290.74C634.891 1279.09 636.755 1265.27 637.686 1253.33L638.409 1244.01C639.125 1234.7 639.808 1225.38 640.349 1216.05C641.091 1203.29 641.703 1190.52 642.292 1177.75C642.484 1173.6 642.691 1169.46 642.909 1165.31L643.245 1159.09C643.532 1153.89 643.508 1148.18 645.668 1143.37ZM237.521 1159.89L239.127 1158.34C244.06 1153.51 250.294 1146.08 257.587 1146.54C260.495 1146.72 262.348 1149.13 261.745 1152C260.457 1158.11 254.218 1161.29 249.727 1165.02C244.807 1169.11 240.17 1173.48 235.542 1177.89C231.436 1181.81 227.487 1185.83 223.634 1189.98L222.193 1191.54C220.811 1193.05 210.974 1201.95 212.038 1204.26L212.096 1204.36C212.392 1204.8 211.899 1205.41 211.408 1205.25C207.16 1203.91 207.425 1200.27 209.031 1196.58C212.117 1189.49 217.521 1182.94 222.24 1176.88C226.946 1170.85 232.04 1165.22 237.521 1159.89V1159.89ZM661.062 982.137C657.777 974.373 645.676 974.536 638.806 975C621.506 976.169 602.788 980.546 587.395 988.632C571.436 997.015 560.686 1010.45 551.068 1025.3L550.618 1026C541.243 1040.57 532.214 1057.82 517.534 1067.84C510.057 1072.95 501.326 1077.61 492.254 1079.63C491.631 1080.72 490.622 1081.59 489.299 1081.9L488.684 1082.04C486.1 1082.61 482.086 1083.25 478.619 1082.87C478.642 1084.56 478.624 1086.25 478.667 1087.85C478.789 1092.46 478.841 1097.08 478.841 1101.69C478.843 1111.35 478.324 1121.02 478.727 1130.68C479.084 1139.21 480.29 1148.14 484.39 1155.77C487.397 1161.37 491.366 1165.08 496.157 1168.61C507.943 1161.43 521.27 1157.05 534.796 1153.76C551.154 1149.78 567.903 1147.12 583.889 1141.72C591.583 1139.13 598.98 1135.72 605.682 1131.11C612.795 1126.2 618.228 1119.56 623.818 1113.07L624.691 1112.06C630.396 1105.52 636.621 1099.26 644.684 1095.71C651.627 1092.66 660.778 1092.11 666.849 1087.39C670.023 1084.91 670.289 1081.32 670.623 1077.65C666.735 1078.2 662.619 1077.31 658.744 1076.86L656.736 1076.62C653.072 1076.19 649.492 1075.71 645.885 1074.78C645.215 1074.6 645.215 1073.59 645.885 1073.42C650.148 1072.32 654.373 1071.85 658.744 1071.34L659.77 1071.21C663.724 1070.69 667.881 1069.91 671.76 1070.78C672.456 1068.13 673.461 1065.6 674.871 1063.07C676.85 1059.51 680.595 1055.48 681.101 1051.33C681.252 1050.08 680.963 1048.62 680.378 1047.52L680.176 1047.15C679.93 1046.71 679.639 1046.26 679.213 1045.99C679.166 1046.04 679.066 1046.11 678.849 1046.18C675.864 1047.12 673.26 1045.65 671.878 1043.4C666.011 1044.13 659.608 1043.89 654.106 1044.13L648.543 1044.4C642.598 1044.67 636.384 1044.79 630.799 1043.59C630.019 1043.42 629.783 1042.12 630.564 1041.79C637.431 1038.85 645.761 1037.92 653.113 1036.79C657.219 1036.16 661.355 1035.68 665.473 1035.12C668.215 1034.75 671.125 1034.14 673.966 1033.99C681.089 1025.13 677.251 1011.14 667.338 1007.32C663.727 1008.91 660.48 1007.98 656.535 1007.65C652.597 1007.31 648.649 1007.08 644.695 1007.1C636.772 1007.13 628.376 1009.21 620.53 1008.32C619.254 1008.17 618.068 1006.47 619.337 1005.44C625.342 1000.54 633.95 998.937 641.573 997.893L643.154 997.681C645.71 997.346 648.818 996.857 652.042 996.566C652.771 995.144 654.079 994.069 656.044 993.802C656.628 993.722 657.215 993.675 657.801 993.625L657.792 993.567V993.567C662.584 993.337 662.376 985.243 661.062 982.137ZM332.993 1133.56C332.908 1133.69 332.815 1133.82 332.717 1133.94L332.565 1134.11L333.353 1133.79L332.993 1133.56V1133.56ZM744.684 964.788C724.514 962.621 704.315 963.078 684.085 963.66C682.467 968.952 676.835 973.462 671.378 973.632C675.652 980.137 676.093 988.941 673.096 995.84C679.459 998.373 684.941 1002.92 688.269 1009.4C692.884 1018.39 692.28 1028.38 687.719 1036.68C691.612 1040.21 693.909 1045.93 693.679 1051.33C693.422 1057.34 689.837 1062.48 686.858 1067.46C683.639 1072.84 683.531 1077.59 682.542 1083.62C681.095 1092.45 675.141 1097.8 667.48 1101.14L667.887 1102.75C669.862 1110.43 672.319 1118.55 677.965 1124.17C685.226 1131.4 696.492 1131.33 706.087 1131.79L706.55 1131.81C715.335 1132.25 724.117 1132.77 732.899 1133.27L739.487 1133.63C749.599 1134.19 759.31 1134.26 767.565 1127.57C781.042 1116.66 790.281 1098.6 796.129 1082.61C808.403 1049.06 808.55 1012.23 802.916 977.285C784.021 971.195 764.416 966.908 744.684 964.788ZM576.945 1020.46L577.093 1020.47C581.246 1020.94 584.099 1024.31 585.115 1028.3C586.591 1034.09 585.867 1039.34 589.418 1044.57C593.071 1049.95 595.317 1054.26 595.848 1060.91C596.066 1063.65 595.966 1066.38 596.575 1069.05L597.017 1070.93C597.486 1072.93 597.869 1074.86 597.636 1077.01C597.423 1078.96 596.469 1080.49 594.504 1081.12C588.101 1083.17 583.157 1078.45 581.503 1072.48C580.074 1067.33 581.982 1061.19 579.966 1056.35C578.849 1053.66 576.789 1051.42 575.625 1048.72C574.472 1046.04 573.893 1043.24 573.708 1040.33C573.357 1034.83 578.225 1028.22 575.509 1023.23C574.931 1022.17 575.586 1020.43 576.945 1020.46ZM491.892 963.662C496.228 962.781 501.147 960.762 505.423 962.44C507.621 963.304 508.707 965.984 506.85 967.847C503.626 971.079 498.94 971.259 494.597 972.021L494.215 972.09C489.08 973.04 483.936 973.941 478.785 974.795C469.094 976.4 459.38 977.819 449.632 979.025C439.62 980.264 429.58 981.367 419.526 982.197L415.634 982.516C407.141 983.195 398.304 983.708 389.971 982.407C388.76 982.218 388.955 980.455 389.971 980.146C399.1 977.383 409.114 976.642 418.552 975.473C428.586 974.228 438.603 972.913 448.594 971.353C458.569 969.795 468.531 968.123 478.456 966.275C482.942 965.441 487.421 964.57 491.892 963.662ZM648.347 954.79C644.542 953.443 640.356 951.447 636.233 952.115C629.123 953.267 622.795 960.194 617.167 964.756L619.992 964.207C634.452 961.428 653.6 958.434 665.738 967.627C665.769 967.574 665.793 967.521 665.828 967.468C666.808 965.98 667.943 964.819 669.182 963.546C669.3 963.435 669.414 963.319 669.527 963.202L670.196 962.49L668.667 961.961C665.392 960.803 661.512 959.309 660.899 959.09L660.857 959.075C656.682 957.661 652.502 956.263 648.347 954.79ZM529.545 651.716C528.95 644.063 540.861 644.126 541.451 651.716C542.738 668.286 539.009 684.699 530.983 699.226C530.924 699.332 530.859 699.426 530.797 699.526C535.817 702.138 540.894 704.644 546.084 706.884C552.723 709.75 559.487 712.36 566.372 714.574C572.6 716.578 580.273 717.369 585.509 721.539C596.55 730.331 592.402 748.577 590.278 760.404L589.946 762.271C588.889 768.357 588.124 774.601 590.69 780.442C593.43 786.681 598.971 791.309 603.914 795.773L604.912 796.678C609.291 800.668 614.295 805.515 617.507 810.923C620.439 804.861 624.436 799.907 628.662 794.33C631.677 790.35 629.531 789.038 627.365 785.15C625.28 781.408 624.262 777.419 624.914 773.15C626.117 765.266 632.418 759.571 638.69 755.292C646.097 750.241 654.364 746.499 662.021 741.8C677.755 732.146 693.078 721.108 706.883 708.849C707.264 708.51 707.924 708.954 707.619 709.417C696.714 726.004 683.927 740.337 668.212 752.503C661.84 757.436 655.146 761.528 648.407 765.83L646.47 767.073C643.764 768.826 640.389 771.168 639.166 774.152C637.935 777.153 640.56 779.419 641.973 781.905C646.46 789.8 644.295 797.166 638.976 803.861L638.728 804.169C633.442 810.683 629.436 816.741 627.52 825.063C623.403 842.94 629.137 861.561 635.14 878.344L635.377 879.005C638.624 888.051 642.075 897.031 644.896 906.222L645.672 908.763C648.228 917.22 650.321 925.561 647.454 934.254C646.479 937.211 642.446 937.91 640.771 935.127C634.862 925.313 633.389 913.503 629.685 902.713C626.075 892.197 621.93 881.871 618.443 871.312C613.953 857.717 610.948 843.083 612.579 828.823C612.531 828.74 612.478 828.662 612.438 828.574L611.295 826.074C608.178 819.304 605.168 813.392 599.5 807.996C593.588 802.367 587.171 797.384 582.519 790.57C572.414 775.769 578.663 759.304 579.884 743.12L580.024 741.136C580.245 737.775 580.367 733.209 578.172 730.883C575.703 728.265 569.913 727.597 566.637 726.438C558.171 723.442 549.828 719.951 541.882 715.759C534.318 711.769 526.991 707.361 520.169 702.197L516.711 699.596C511.255 695.48 505.598 690.984 501.942 685.381C501.52 684.736 502.237 683.695 503.001 684.004C509.105 686.481 514.682 690.421 520.393 693.849C520.482 693.64 520.585 693.429 520.702 693.217C527.768 680.429 530.674 666.261 529.545 651.716ZM724.528 739.331C726.96 732.662 738.044 733.177 737.602 741.101C737.263 747.189 734.679 752.684 732.315 758.211L732.063 758.803C729.623 764.562 726.805 769.969 723.433 775.247C716.99 785.337 709.443 794.701 701.382 803.538C694.074 811.55 684.482 816.449 673.429 815.635C668.772 815.292 664.071 814.107 659.99 811.781C655.143 809.017 649.879 800.718 643.695 802.728C643.097 802.922 642.539 802.046 643.056 801.631C650.195 795.882 658.298 804.796 665.133 806.944C675.432 810.179 686.001 806.602 692.63 798.276C699.551 789.583 705.921 779.85 711.738 770.385C714.692 765.579 717.387 760.591 719.715 755.45C722.064 750.261 722.598 744.622 724.528 739.331ZM707.927 698.289C707.627 697.368 708.771 696.492 709.58 697.018C714.271 700.072 718.336 704.107 722.663 707.644C727.464 711.568 732.3 715.412 737.211 719.197C744.37 724.716 736.067 734.876 729.765 728.847C721.141 720.6 711.696 709.816 707.927 698.289ZM682.172 666.009C684.078 658.661 695.349 661.691 693.707 668.954L693.653 669.175C690.542 681.172 694.973 693.386 704.432 701.163L704.78 701.445C710.764 706.234 702.286 714.606 696.361 709.863C683.426 699.511 678.045 681.926 682.172 666.009Z" fill="#262626"/>
</g>
<path fill-rule="evenodd" clip-rule="evenodd" d="M659.696 688.383C639.04 688.326 620.133 684.293 602.194 675.462C580.534 668.38 556.881 664.521 539.303 648.844C530.743 650.663 521.97 641.857 514.869 636.614C503.287 679.317 443.014 672.214 417.547 644.615C401.968 631.431 395.701 598.816 422.755 590.188C378.43 560.018 362.42 507.902 365.466 451.509C368.673 356.911 441.245 258.563 534.523 242.155C552.924 238.911 571.821 239.254 590.143 243.112C600.375 245.336 610.265 249.648 621.215 249.452C663.683 242.725 710.327 243.498 745.405 270.735C801.47 308.324 809.262 383.533 802.711 444.001L802.976 444.567C799.717 466.763 794.301 487.092 784.057 500.474C783.26 519.713 776.589 560.781 776.095 577.017C777.292 652.567 734.472 686.099 659.696 688.383" fill="white"/>
<path fill-rule="evenodd" clip-rule="evenodd" d="M514.598 256.357C552.855 243.387 576.997 250.088 612.7 257.251L614.9 257.69L618.363 258.368C654.188 255.96 685.047 248.08 719.636 265.275C791.607 295.599 804.927 379.308 799.97 449.212L799.676 450.512C797.332 460.711 794.034 471.249 787.102 479.356C775.466 421.959 738.057 384.068 692.056 347.889L690.412 345.896C684.7 338.995 678.47 331.826 670.938 326.958C671.185 324.727 671.308 322.491 671.268 320.286C671.213 317.24 666.873 314.678 664.61 317.327L664.178 317.863C661.224 321.456 645.708 338.727 637.856 347.59L636.877 348.697L634.508 351.396L630.508 356.194C587.337 407.915 541.8 459.837 477.411 484.661C461.982 474.883 443.265 483.493 433.623 497.268C406.225 529.27 437.985 589.614 480.096 573.244C482.653 595.376 493.705 620.326 508.7 637.02C492.27 659.991 465.985 664.136 441.397 651.135C417.395 640.389 401.863 617.833 416.597 592.883C416.906 592.703 417.225 592.529 417.549 592.359C428.846 599.912 442.01 604.861 455.623 605.863L456.655 605.932C465.158 606.334 465.023 592.914 456.393 592.227C399.318 584.957 373.979 519.64 373.922 468.418C371.497 378.251 427.589 285.48 514.598 256.357Z" fill="white"/>
<path fill-rule="evenodd" clip-rule="evenodd" d="M412.995 589.145C278.728 470.261 416.472 202.719 591.169 238.216C608.849 244.149 626.804 246.208 645.114 241.812C737.386 227.373 812.872 305.834 808.97 396.609C809.62 412.135 809.494 427.675 807.819 443.139C805.905 463.465 800.675 485.203 789.011 502.1C788.876 513.45 782.209 556.024 781.138 576.054L780.933 580.236C779.869 600.821 777.577 621.817 768.546 640.587C740.777 691.01 669.243 701.831 617.952 687.142L615.819 686.44C606.292 683.266 595.491 679.037 589.441 671.04C586.244 666.815 591.537 661.421 595.938 662.57C601.604 664.05 606.301 667.511 611.59 669.97C646.092 685.25 686.899 680.133 720.957 665.861L721.987 665.425C782.983 640.613 766.274 552.351 774.303 502.024C776.129 438.117 722.94 394.597 682.866 352.329L681.666 350.99C677.549 346.415 673.2 341.955 667.475 340.979C665.907 345.746 662.052 349.803 658.475 353.28L650.387 362.039C642.298 370.788 634.192 379.501 625.97 388.135C586.048 428.774 545.373 483.95 483.836 488.105C487.619 491.535 490.936 495.454 494.901 498.684C496.573 500.361 494.868 503.176 492.625 502.601C488.442 501.53 485.766 497.554 483.021 494.447C449.785 480.466 422.491 532.131 450.65 553.52C461.096 564.604 491.62 556.17 484.562 569.838C492.266 594.048 504.124 618.398 524.182 634.592C530.072 639.048 539.27 641.305 543.178 647.865C544.121 649.446 543.64 652.026 541.869 652.867C533.348 656.848 524.194 650.152 517.65 645.108C483.091 712.805 356.363 638.011 412.995 589.145ZM618.36 258.352L614.897 257.673C577.974 250.353 553.633 243.107 514.595 256.341C427.586 285.464 371.494 378.235 373.919 468.402C373.976 519.624 399.315 584.941 456.39 592.211C465.02 592.898 465.155 606.318 456.652 605.916L456.391 605.899C442.322 605.019 428.703 599.906 417.094 592.039C401.518 617.317 417.127 640.254 441.394 651.119C465.982 664.12 492.268 659.975 508.697 637.004C493.703 620.31 482.65 595.36 480.093 573.228C437.982 589.598 406.223 529.254 433.621 497.252C443.262 483.477 461.979 474.867 477.408 484.645C543.789 459.053 590.133 404.661 634.505 351.38L636.874 348.681C644.643 339.887 662.506 320.025 664.487 317.457C666.714 314.57 671.209 317.169 671.265 320.27C671.305 322.475 671.182 324.711 670.935 326.942C679.196 332.281 685.891 340.388 692.053 347.873C738.054 384.052 775.463 421.943 787.099 479.34C794.326 470.888 797.603 459.793 799.967 449.196C804.925 379.292 791.604 295.583 719.633 265.259C685.044 248.064 654.185 255.944 618.36 258.352ZM455.149 520.886C452.152 518.205 471.951 517.881 473.82 519.981L474.247 520.127C481.335 522.624 494.315 530.677 487.941 539.037C478.853 547.62 472.523 522.137 455.149 520.886Z" fill="#262626"/>
<path fill-rule="evenodd" clip-rule="evenodd" d="M677.587 606.927C670.864 604.184 664.866 599.61 660.481 593.766C658.957 591.735 658.561 589.59 658.881 587.628C659.241 585.422 660.546 583.422 662.326 582.081C664.112 580.736 666.345 580.072 668.504 580.41C670.381 580.704 672.248 581.732 673.727 583.862L674.035 584.288C676.642 587.815 680.04 590.709 683.91 592.574C687.641 594.372 691.814 595.211 696.132 594.723C704.356 593.794 710.024 589.347 716.049 583.307C716.796 582.544 717.543 581.758 718.294 580.959C718.768 580.235 719.426 579.769 720.157 579.525C720.968 579.253 721.886 579.269 722.726 579.562C723.537 579.845 724.262 580.381 724.748 581.095C725.209 581.773 725.471 582.611 725.386 583.574C724.835 589.834 721.562 595.42 716.914 599.806C711.752 604.677 704.909 608.047 698.466 609.229C691.368 610.531 684.136 609.598 677.587 606.927V606.927ZM701.814 510.367C709.366 514.957 720.872 525.661 712.748 537.04C703.186 547.073 689.419 535.569 682.634 530.366C676.343 526.334 669.275 536.705 675.112 541.413C724.136 577.708 744.031 511.568 705.634 504.971C701.406 504.244 699.836 508.947 701.814 510.367ZM613.963 468.147C614.798 457.79 630.57 455.439 632.139 465.687C633.544 474.867 631.89 483.3 627.755 491.565C623.804 499.461 613.874 495.777 613.123 488.587C612.116 478.949 613.444 474.589 613.963 468.147ZM734.027 463.562C736.226 460.682 739.401 458.716 743.205 459.827C755.09 463.3 751.587 480.173 747.413 488.386C745.145 492.846 737.814 493.977 734.501 490.05C729.101 483.646 726.515 470.857 733.38 464.549C733.566 464.223 733.773 463.894 734.027 463.562ZM627.588 422.831L629.465 422.502C635.273 421.498 642.494 420.533 646.603 425.202C648.782 427.678 649.532 432.28 646.603 434.65C641.451 438.82 635.755 437.204 629.581 437.557C624.493 437.849 619.603 438.691 614.702 440.092C603.95 443.165 595.189 448.775 586.006 454.935C584.801 455.743 583.571 454.202 584.146 453.075C589.447 442.692 599.72 434.163 610.01 428.964C615.502 426.189 621.512 423.887 627.588 422.831ZM723.193 418.18L724.63 418.474C740.267 421.742 760.583 428.272 767.988 443.631C768.271 445.803 767.972 446.268 767.73 446.573L767.649 446.674C767.45 446.933 767.29 447.291 766.349 447.587C766.088 447.525 765.824 447.459 765.557 447.389C762.163 446.499 759.477 445.274 756.877 444.002L754.058 442.614C750.788 441.01 747.488 439.465 743.992 438.324C736.53 435.89 728.854 434.176 721.06 433.26C719.37 433.062 717.744 432.492 716.46 431.514C715.242 430.587 714.311 429.303 713.887 427.596C713.337 425.387 713.495 423.714 714.681 421.721C715.572 420.225 716.847 419.187 718.311 418.592C719.804 417.984 721.504 417.841 723.193 418.18Z" fill="#262626"/>
<path fill-rule="evenodd" clip-rule="evenodd" d="M808.09 484.282C798.556 548.771 732.002 555.903 720.177 491.881C722.075 491.05 723.44 489.414 723.155 486.238C723.088 472.286 727.419 457.54 740.005 449.781C753.011 441.775 768.232 440.981 783.283 441.183C812.005 440.499 811.401 464.506 808.09 484.282M709.758 456.235C700.744 455.855 689.34 456.173 681.265 461.665C679.045 455.687 673.277 449.304 667.449 445.891C689.111 446.525 711.409 444.393 733.233 442.738C728.009 446.299 723.149 451.649 719.99 457.834C717.059 456.271 712.861 456.417 709.758 456.235M670.026 491.119C645.031 577.155 582.64 539.655 575.838 528.629C563.569 510.383 561.261 466.029 571.948 454.17C587.246 443.446 608.903 446.206 626.975 445.943C660.176 446.391 683.756 456.323 670.026 491.119M837.603 451.548C830.812 450.66 823.555 450.481 817.241 453.471C815.297 445.208 809.194 438.3 802.303 435.26C801.469 434.214 801.594 433.652 798.745 433.809C781.25 428.551 761.673 431.333 744.861 436.725C718.309 438.961 690.452 440.724 663.677 443.805C638.595 432.541 562.902 430.89 558.198 458.653C552.281 457.768 542.204 453.111 537.232 459.428C500.761 453.245 463.076 461.838 426.447 465.665C417.227 467.363 412.478 485.661 422.944 485.411C428.828 483.814 422.763 474.017 430.686 473.28C466.027 469.42 500.595 463.944 536.298 463.303C535.056 469.468 559.912 469.869 560.279 466.269C560.332 466.296 560.388 466.314 560.442 466.338C554.3 489.228 559.844 522.17 570.944 536.364C586.496 554.95 625.541 560.282 642.854 548.324C665.187 537.287 688.42 481.885 681.894 463.479C693.738 459.725 705.447 460.852 717.739 462.764C714.925 470.713 710.067 490.281 717.056 491.978C715.773 530.828 751.13 555.069 783.724 539.132C811.935 525.889 821.801 483.971 818.349 458.528C821.861 465.314 851.349 457.926 837.603 451.548" fill="#262626"/>
<defs>
<clipPath id="clip0">
<rect width="818" height="733" fill="white" transform="translate(147 639)"/>
</clipPath>
</defs>
</svg>
