<svg width="1136" height="1533" viewBox="0 0 1136 1533" fill="none" xmlns="http://www.w3.org/2000/svg">
<path fill-rule="evenodd" clip-rule="evenodd" d="M603.906 600.183C633.038 601.621 678.398 614.11 680.666 622.092C684.207 634.556 676.598 681.283 689.325 706.452C694.75 717.181 715.353 716.219 723.335 719.714C750.045 731.405 829.117 753.578 845.42 781.497C851.951 792.683 892.091 931.472 913.419 1002.28C915.824 1010.26 918.54 1017.64 921.492 1024.48L922.578 1019.17C931.274 976.374 935.622 950.466 935.622 941.447C935.622 927.354 924.38 867.895 935.622 852.774C946.751 837.805 973.572 825.565 985.639 825.321L986 825.318C993.923 825.318 1000.8 822.841 1006.62 817.888L1015.17 813.592C1058.63 791.784 1084.02 779.822 1091.34 777.706C1103.02 774.328 1122.91 781.524 1112.97 792.328C1106.34 799.531 1089.68 812.273 1063 830.553L1052.93 838.548L1054.15 839.183C1067.15 846.029 1074.8 851.791 1077.09 856.469C1079.45 861.291 1078.31 866.995 1073.69 873.581L1074.39 874.265C1080.24 880.001 1083.16 883.849 1083.16 885.808V895.379C1088.98 903.895 1090.43 910.997 1087.52 916.685C1084.62 922.374 1080.01 927.303 1073.69 931.472C1069.04 943.708 1063.5 952.417 1057.07 957.598C1050.65 962.779 1039.54 967.093 1023.75 970.538L1009.46 1004.7L997.885 1052.69L992.051 1106.25L993.745 1107.47C1001.6 1113.19 1006.62 1117.43 1006.62 1121.81C1006.62 1128.63 974.948 1289.11 925.664 1296.3C915.006 1297.85 859.729 1290.23 841.58 1275.47L841.848 1277.06C846.118 1302.85 845.215 1316.25 839.137 1317.24C764.45 1329.49 552.333 1333.27 202.787 1328.59C200.707 1143.07 210.111 1019.52 230.998 957.93C284.418 800.417 343.316 746.618 363.921 742.01C381.971 737.974 444.559 713.064 462.055 706.452C473.476 702.136 475.923 689.197 488.937 689.197L489.989 689.202C502.576 689.328 513.737 691.579 520.008 685.106C536.464 668.119 531.864 644.606 538.691 622.092C542.452 609.687 568.157 598.419 603.906 600.183Z" fill="white"/>
<path d="M488.937 689.197L489.989 689.202C493.1 689.233 496.124 689.394 499.008 689.521L492.931 710.228L492.799 712.403C488.853 783.797 523.814 817.973 597.682 814.933C671.549 811.893 708.292 788.529 707.909 744.841L707.886 743.511L707.887 716.324L709.049 716.546C714.656 717.596 720.059 718.279 723.335 719.714C750.045 731.405 829.117 753.578 845.42 781.497C851.951 792.683 892.091 931.472 913.419 1002.28C914.199 1004.87 915.011 1007.39 915.853 1009.85L915.853 1023.85L915.621 1024.7C908.146 1052.66 918.099 1075.51 945.48 1093.27C964.888 1105.86 984.82 1114.03 1005.28 1117.79C1006.15 1119.15 1006.62 1120.47 1006.62 1121.81C1006.62 1128.63 974.948 1289.11 925.664 1296.3C915.006 1297.85 859.729 1290.23 841.58 1275.47L841.848 1277.06L842.098 1278.59C846.08 1303.38 845.093 1316.27 839.137 1317.24C764.45 1329.49 552.333 1333.27 202.787 1328.59C200.707 1143.07 210.111 1019.52 230.998 957.93C284.418 800.417 343.316 746.618 363.921 742.01C381.971 737.974 444.559 713.064 462.055 706.452C473.476 702.136 475.923 689.197 488.937 689.197Z" fill="white"/>
<path fill-rule="evenodd" clip-rule="evenodd" d="M523.87 644.663C525.58 641.275 530.119 641.714 533.114 643.251C542.097 649.818 532.698 662.547 530.213 670.561C523.821 686.105 512.719 701.296 497.393 708.561C498.663 724.013 500.102 739.431 500.633 754.931C520.228 779.236 553.265 788.107 582.592 794.929C628.653 807.667 680.637 781.569 696.183 736.04C678.49 725.987 672.764 699.665 678.043 681.301C678.502 680.011 680.502 679.441 681.213 680.881C686.058 690.846 685.412 703.003 690.92 712.848C743.788 717.909 812.018 737.857 846.653 780.611C862.002 802.001 868.082 829.821 875.642 854.611C891.772 905.719 904.624 957.861 920.443 1009.02L922.308 999.341C927.419 972.675 932.063 945.648 928.611 918.53L928.549 917.232C927.422 895.655 920.669 855.557 937.403 840.989C952.54 829.422 974.468 820.127 993.463 825.459C1027.27 810.417 1056.44 785.087 1092.44 775.221C1103.52 772.941 1119.46 775.641 1116.84 790.672C1109.59 816.961 1079.19 827.165 1058.41 840.721C1071.73 844.33 1087.97 860.527 1077.56 874.651C1077.47 874.901 1077.39 875.091 1077.31 875.241C1085.75 878.981 1086.93 888.381 1084.86 896.441C1084.65 898.571 1084.09 896.741 1085.34 898.671C1094.87 907.651 1090.66 932.684 1076.31 933.53C1077.25 945.391 1069.63 956.911 1059.98 963.381C1049.58 970.351 1034.54 970.651 1025.93 980.191C1005.72 1015.84 998.741 1057.92 996.537 1098.75C1009.86 1103.73 1021.82 1118.65 1009.71 1131.31C1009.47 1131.33 1009.24 1131.36 1008.99 1131.38C1001.97 1150.11 999.264 1170.08 995.552 1189.64C989.841 1223.02 974.958 1253.67 955.953 1281.47C933.975 1318.28 874.876 1312.45 845.103 1288.69C845.222 1294.92 846.249 1301.12 844.253 1307.14C841.307 1313.64 834.124 1310.83 833.413 1304.43C817.674 1313.28 813.967 1284.07 831.463 1288.7C830.117 1267.58 829.337 1246.43 828.704 1225.27C808.896 1231.68 808.042 1198.82 828.303 1205.39L828.279 1196.31C828.13 1126.64 828.9 1056.74 838.093 987.631C838.943 982.461 840.383 977.461 841.223 972.321C841.313 971.79 842.143 971.941 842.146 972.45C843.569 1069.21 837.245 1166.18 843.843 1262.97C849.336 1264.65 851.526 1270.95 855.593 1274.62C864.622 1282.96 876.918 1287.02 888.942 1288.43C922.612 1293.15 937.149 1282.87 952.143 1253.6C945.38 1258.12 936.242 1250.14 940.364 1242.99L940.493 1242.77C944.774 1235.19 956.863 1239.73 955.332 1248.22C970.407 1224.08 978.297 1196.86 984.124 1169.24L984.912 1165.94C987.745 1154.22 991.421 1140.78 998.223 1130.17C956.741 1119.6 916.163 1087.39 909.672 1043.2C899.14 1076.28 884.872 1108.63 871.273 1140.81C867.073 1152 865.323 1164.03 859.303 1174.41C857.903 1176.81 854.353 1176.19 853.561 1173.66C848.147 1149.45 864.553 1126.43 873.071 1104.64C880.027 1092.33 899.993 1036.09 912.372 1035.95C898.462 974.984 879.909 914.472 862.24 854.263C845.155 772.965 810.338 757.288 736.58 731.691C749.884 799.487 810.624 865.112 778.303 936.221L777.517 938.065C774.211 945.906 771.465 953.806 773.773 962.411C776.013 970.761 781.113 978.011 785.194 985.521C808.002 1027.94 792.302 1077.48 783.483 1121.66C772.343 1173.47 761.338 1225.32 749.823 1277.05C747.553 1287.37 746.082 1298 742.653 1308C740.883 1313.16 732.053 1312.67 732.624 1306.65C733.713 1294.97 736.993 1283.58 739.395 1272.11C753.733 1197.85 773.134 1124.47 785.47 1049.88C793.405 994.669 762.166 986.185 763.332 950.511C767.578 932.266 778.817 915.984 778.172 896.541C780.67 837.025 737.318 787.924 731.966 730.04L722.516 726.669C717.793 724.978 713.075 723.274 708.372 721.529C733.127 894.654 725.61 1071.56 713.235 1245.54C710.707 1253.57 713.112 1335.65 702.513 1330.67C701.978 1333.81 700.313 1336.89 696.693 1336.87C663.823 1337.17 630.943 1337.69 598.073 1338.08C582.262 1336.63 560.53 1342.66 547.082 1333.54C531.555 1329.11 529.77 1261.06 525.619 1246.07L524.001 1235.17C497.617 1057.06 474.006 875.278 492.971 695.405C466.585 696.419 461.139 724.896 459.182 745.63C454.289 791.393 424.721 830.803 423.303 877.091C423.183 888.321 425.303 899.2 429.792 909.511C441.702 934.773 462.3 963.978 446.905 992.192C428.698 1014.16 430.274 1019.94 436.955 1047.08C455.752 1136.81 486.968 1223.08 516.663 1309.59C510.211 1343.22 471.403 1218.38 467.752 1208.97C450.573 1217.61 441.189 1188.94 460.893 1186.9C448.237 1144.54 436.59 1101.86 426.893 1058.71L426.636 1057.49C422.353 1037.56 413.928 1014.21 428.155 996.53C464.841 959.431 403.918 917.964 411.603 873.021C404.967 877.941 394.922 872.765 395.073 864.501C394.772 855.197 407.27 850.431 413.284 857.53C419.468 821.067 440.98 789.235 447.49 752.879L447.784 751.171C449.99 738.322 450.612 724.802 456.923 713.091C448.332 718.671 439.183 723.181 429.773 727.161C446.598 741.214 414.017 754.04 416.713 732.331C324.445 759.025 303.59 796.251 269.713 881.741C276.041 875.593 286.881 883.549 283.093 891.39C280.071 899.65 266.888 897.235 266.893 888.431L265.349 892.113C244.807 941.232 226.109 991.544 216.713 1044.11C235.145 1041.51 230.452 1070.97 213.752 1062.66C207.05 1109.41 206.944 1156.82 207.763 1203.95C223.31 1195.8 223.778 1223.5 207.913 1215.6C208.493 1254.22 209.343 1292.84 209.983 1331.46C210.113 1339.68 197.433 1339.64 197.233 1331.46C195.752 1272.12 193.053 1212.67 194.336 1153.31C193.129 1050.29 222.747 950.986 266.877 858.696C305.924 752.431 359.86 740.346 459.093 709.45C468.253 695.853 487.823 682.993 503.79 691.531C512.723 677.111 517.26 660.027 523.87 644.663ZM353.853 1015.02C354.223 1013.71 356.093 1014.04 356.153 1015.33C356.983 1032 356.243 1048.78 355.103 1065.52C354.412 1075.74 353.563 1085.95 352.843 1096.1C350.933 1122.88 349.393 1149.69 348.223 1176.52C348.633 1176.35 349.053 1176.2 349.493 1176.08C351.513 1175.53 353.534 1175.53 355.553 1176.08C357.355 1176.58 358.929 1177.46 360.286 1178.73L360.573 1179.01C361.683 1180.04 362.473 1181.26 362.933 1182.67C363.589 1183.93 363.92 1185.27 363.919 1186.7L363.912 1187.06C363.903 1189.12 363.393 1191.03 362.353 1192.81C361.343 1194.52 359.983 1195.88 358.273 1196.9C356.493 1197.93 354.582 1198.44 352.523 1198.45C352.303 1198.47 352.082 1198.49 351.863 1198.5C350.332 1198.56 348.903 1198.24 347.582 1197.55L347.383 1197.49C346.883 1211.1 346.473 1224.72 346.173 1238.34C345.903 1250.21 345.543 1262.08 345.303 1273.95L345.192 1279.89L344.974 1293.01C344.903 1298.41 344.938 1303.57 343.103 1308.66L342.883 1309.25C341.563 1312.65 340.534 1317.38 337.002 1319.27C334.183 1320.78 330.383 1320.22 328.763 1317.28C327.403 1314.82 328.582 1311.28 330.593 1309.62C330.553 1309.51 330.493 1309.41 330.443 1309.3C330.133 1308.4 329.662 1307.55 329.383 1306.64C328.502 1303.76 328.743 1300.69 328.733 1297.7C328.733 1292.42 328.912 1287.14 329.053 1281.87C329.363 1270.65 329.723 1259.44 330.162 1248.23C331.649 1210.63 334.447 1173.02 337.653 1135.52L338.741 1122.86C340.19 1106.03 341.69 1089.19 343.813 1072.44C343.912 1071.64 344.013 1070.84 344.123 1070.04C342.983 1069.47 341.923 1068.68 341.082 1067.8C337.713 1064.26 335.67 1058.97 333.754 1054.42L333.313 1053.38C331.233 1048.52 329.313 1043.6 328.323 1038.38L328.229 1037.9C327.777 1035.68 326.886 1031.74 329.243 1030.66C330.473 1030.1 331.252 1030.5 331.653 1031.73C331.704 1031.89 331.662 1032.07 331.573 1032.21C332.543 1033.7 334.063 1035.09 335.023 1036.47L338.309 1041.17L339.933 1043.53C341.993 1046.56 344.193 1049.46 346.463 1052.32C348.252 1039.76 350.443 1027.25 353.853 1015.02ZM488.593 1294.91C492.703 1291.69 499.393 1293.44 499.393 1299.38C499.393 1305.35 492.693 1307.07 488.593 1303.85L488.389 1303.7L488.193 1303.54C485.961 1301.8 485.886 1297.26 488.024 1295.36L488.193 1295.22C488.322 1295.11 488.453 1295.01 488.593 1294.91ZM309.903 1283.31C311.763 1283.31 313.493 1283.78 315.103 1284.72C315.803 1285.25 316.493 1285.79 317.193 1286.33C318.473 1287.61 319.353 1289.13 319.843 1290.88L320.214 1293.62C320.263 1295.04 319.973 1296.36 319.323 1297.59C318.903 1298.87 318.193 1299.98 317.193 1300.91C316.253 1301.92 315.153 1302.63 313.874 1303.04C312.746 1303.64 311.542 1303.94 310.256 1303.94L309.903 1303.93C308.034 1303.93 306.303 1303.46 304.693 1302.52C303.993 1301.99 303.303 1301.45 302.603 1300.91C301.333 1299.63 300.443 1298.11 299.954 1296.36C299.833 1295.45 299.714 1294.53 299.583 1293.62C299.534 1292.2 299.833 1290.88 300.473 1289.65C300.893 1288.37 301.603 1287.26 302.603 1286.33C303.544 1285.32 304.643 1284.61 305.923 1284.2C307.05 1283.61 308.262 1283.3 309.55 1283.3L309.903 1283.31ZM777.663 1264.29L780.284 1264.64C782.794 1265.21 784.813 1267.06 786.163 1269.17C786.884 1270.3 787.273 1271.52 787.333 1272.83C787.624 1274.13 787.563 1275.44 787.153 1276.75C786.853 1278.03 786.264 1279.15 785.393 1280.1C785.094 1280.57 784.743 1281 784.344 1281.38C783.523 1282.75 782.284 1283.65 781.003 1284.57C779.924 1285.26 778.753 1285.63 777.493 1285.69C776.663 1285.91 775.823 1285.91 774.983 1285.69C773.733 1285.63 772.563 1285.26 771.483 1284.57C770.844 1284.08 770.204 1283.58 769.573 1283.09C769.014 1282.44 768.493 1281.77 768.003 1281.07C767.674 1280.3 767.353 1279.54 767.034 1278.78C766.443 1276.95 766.733 1275.33 767.054 1273.5C767.103 1273.19 767.184 1272.91 767.294 1272.61L767.51 1272.03C768.085 1270.51 768.393 1269.99 769.413 1268.67L769.802 1268.15C769.996 1267.89 770.196 1267.64 770.424 1267.41C771.063 1266.75 771.974 1266.2 772.693 1265.63C774.233 1264.74 775.893 1264.3 777.663 1264.29ZM438.483 1257.89C439.933 1257.9 441.294 1258.26 442.553 1258.99L444.193 1260.26C445.193 1261.27 445.883 1262.45 446.273 1263.82C446.363 1264.54 446.464 1265.26 446.563 1265.97C446.603 1267.08 446.374 1268.12 445.863 1269.09C445.544 1270.09 444.983 1270.95 444.193 1271.69C443.464 1272.47 442.593 1273.03 441.593 1273.36C440.72 1273.82 439.781 1274.06 438.784 1274.06L438.483 1274.05C437.023 1274.05 435.663 1273.68 434.403 1272.95L432.763 1271.69C431.763 1270.68 431.073 1269.49 430.683 1268.12C430.593 1267.4 430.493 1266.69 430.393 1265.97C430.353 1264.86 430.583 1263.82 431.093 1262.86C431.423 1261.86 431.973 1260.99 432.763 1260.26C433.493 1259.47 434.363 1258.91 435.363 1258.59C436.236 1258.13 437.158 1257.9 438.15 1257.89L438.483 1257.89ZM372.153 1254.58C374.242 1254.56 376.363 1255.15 378.073 1256.36C379.733 1257.54 380.992 1258.81 381.803 1260.72C382.023 1261.24 382.242 1261.75 382.433 1262.27C383.293 1264.56 383.453 1266.86 382.263 1269.1C381.113 1271.27 378.633 1272.22 376.412 1272.87C374.533 1273.43 372.403 1273.52 370.533 1272.85C369.603 1272.52 368.693 1272.17 367.853 1271.66C366.283 1270.69 365.433 1269.54 364.383 1268.12C363.563 1266.72 363.153 1265.2 363.153 1263.58C363.153 1261.95 363.563 1260.44 364.383 1259.03C365.992 1256.28 368.973 1254.6 372.153 1254.58ZM266.153 1256.51C268.794 1256.51 271.113 1257.73 272.704 1259.79C274.313 1261.88 274.903 1264.48 274.193 1267.07C273.443 1269.81 271.174 1272.21 268.363 1272.9C266.284 1273.41 264.583 1273.39 262.513 1273.04C260.763 1272.74 259.424 1271.7 258.083 1270.62C256.553 1269.37 256.083 1267.09 256.333 1265.25C256.573 1263.41 257.424 1262.21 258.714 1261.12L258.723 1261.09L258.243 1261.46C258.424 1261.3 258.603 1261.13 258.784 1260.96C258.843 1260.86 258.893 1260.75 258.943 1260.64C259.683 1259.38 260.683 1258.39 261.933 1257.65C263.243 1256.89 264.643 1256.51 266.153 1256.51ZM881.743 1226.22C883.193 1225.83 884.653 1225.83 886.103 1226.22C887.174 1226.47 888.103 1226.96 888.894 1227.69C889.695 1228.21 890.349 1228.88 890.844 1229.71L891.003 1229.99C892.144 1231.93 892.323 1234.15 891.833 1236.31C891.224 1238.98 888.764 1241.41 886.103 1242.04L886.013 1242.06L885.924 1242.08C884.844 1242.42 883.753 1242.47 882.674 1242.22C881.583 1242.17 880.573 1241.85 879.644 1241.25C878.464 1240.49 877.474 1239.51 876.714 1238.33C876.113 1237.39 875.794 1236.38 875.743 1235.29C875.554 1234.57 875.554 1233.85 875.743 1233.13C875.794 1232.04 876.113 1231.03 876.714 1230.09L877.993 1228.44L878.124 1228.33C879.144 1227.31 880.353 1226.61 881.743 1226.22ZM781.063 1173.3C794.173 1173.3 794.153 1193.64 781.063 1193.64C767.954 1193.64 767.973 1173.3 781.063 1173.3ZM301.082 1170.73C302.463 1170.42 303.843 1170.48 305.213 1170.91C306.043 1171.26 306.863 1171.61 307.683 1171.95L309.783 1173.57C310.173 1173.9 310.363 1174.26 310.723 1174.73L311.173 1175.32C311.824 1176.19 311.839 1176.37 312.553 1178.23C313.033 1180.01 313.033 1181.79 312.553 1183.57C312.322 1184.43 311.973 1185.24 311.523 1185.99C311.112 1186.71 310.62 1187.34 310.066 1187.92L309.783 1188.21C308.843 1189.22 307.733 1189.93 306.453 1190.35C305.643 1190.82 304.773 1191.05 303.843 1191.05C302.463 1191.36 301.082 1191.3 299.713 1190.87C298.883 1190.52 298.063 1190.17 297.242 1189.83L295.143 1188.21L293.523 1186.11L293.007 1184.88L292.483 1183.64L292.113 1180.89C292.063 1179.46 292.353 1178.14 293.002 1176.9C293.252 1176.03 293.693 1175.26 294.332 1174.62C294.793 1173.84 295.412 1173.22 296.193 1172.76C296.832 1172.12 297.603 1171.68 298.473 1171.43C299.283 1170.96 300.153 1170.73 301.082 1170.73ZM949.502 1156.2C950.593 1156.16 951.613 1156.39 952.553 1156.89C952.883 1157 953.204 1157.14 953.513 1157.3C954.723 1158.01 955.683 1158.97 956.393 1160.17C956.973 1161.09 957.293 1162.08 957.343 1163.15C957.561 1164.11 957.541 1165.09 957.279 1166.05L957.193 1166.34C956.973 1167.13 956.643 1167.86 956.204 1168.53C956.162 1168.61 956.113 1168.69 956.053 1168.76C955.383 1169.82 954.493 1170.69 953.393 1171.34C952.173 1172.04 950.863 1172.4 949.443 1172.41C946.613 1172.41 944.173 1170.88 942.683 1168.53C942.473 1168.2 942.353 1167.78 942.204 1167.44C942.073 1167.12 941.863 1166.71 941.752 1166.34C941.373 1164.92 941.373 1163.5 941.752 1162.08C942.002 1161.04 942.473 1160.13 943.183 1159.36C943.752 1158.49 944.502 1157.8 945.433 1157.3C946.587 1156.63 947.827 1156.27 949.143 1156.21L949.502 1156.2ZM395.983 1146.25C397.367 1145.87 398.744 1145.84 400.12 1146.16L400.464 1146.25C401.563 1146.51 402.514 1147.01 403.333 1147.75C404.243 1148.35 404.974 1149.14 405.503 1150.12C406.264 1151.43 406.644 1152.85 406.653 1154.37C406.644 1155.89 406.264 1157.31 405.503 1158.62C404.753 1159.89 403.743 1160.89 402.474 1161.64L401.374 1162.17C400.454 1162.75 399.474 1163.06 398.413 1163.11C397.704 1163.3 396.993 1163.3 396.294 1163.11C395.573 1163.11 394.903 1162.93 394.284 1162.57C393.604 1162.38 393.023 1162.04 392.523 1161.54C391.653 1160.98 390.974 1160.24 390.474 1159.31L389.663 1157.4L389.384 1155.28L389.663 1153.17L390.104 1152.13C390.503 1150.7 391.224 1149.46 392.273 1148.41C393.323 1147.37 394.563 1146.65 395.983 1146.25ZM891.903 1129.38C893.362 1128.92 894.813 1128.86 896.263 1129.18C897.242 1129.18 898.162 1129.43 899.013 1129.93C899.943 1130.19 900.742 1130.65 901.423 1131.33C902.612 1132.1 903.543 1133.12 904.233 1134.39L905.332 1137C905.992 1138.69 905.752 1141.18 905.353 1142.88C905.023 1144.28 904.383 1145.5 903.433 1146.54C902.953 1147.35 902.313 1147.99 901.502 1148.47C900.577 1149.31 899.509 1149.91 898.297 1150.27L897.963 1150.36L897.843 1150.39C897.822 1150.4 897.803 1150.4 897.783 1150.4C897.773 1150.41 897.752 1150.41 897.742 1150.41C897.263 1150.53 896.773 1150.6 896.263 1150.62C894.813 1150.94 893.362 1150.88 891.903 1150.42C891.043 1150.06 890.173 1149.69 889.303 1149.32C888.563 1148.76 887.832 1148.19 887.093 1147.62C886.523 1146.88 885.953 1146.14 885.383 1145.41C884.582 1144.16 884.153 1142.8 884.093 1141.35C883.832 1140.38 883.832 1139.42 884.093 1138.45C884.093 1137.46 884.343 1136.55 884.832 1135.7C885.273 1134.34 886.023 1133.17 887.093 1132.18C887.832 1131.61 888.563 1131.04 889.303 1130.48C890.173 1130.11 891.043 1129.74 891.903 1129.38ZM254.103 1093.58C255.612 1093.17 257.123 1093.17 258.633 1093.58L260.662 1094.43C261.662 1094.97 262.453 1095.7 263.053 1096.63C263.813 1097.45 264.322 1098.42 264.582 1099.53C265.173 1101.05 265.103 1103.46 264.633 1105.01C264.103 1106.77 263.283 1108.17 262.013 1109.49C259.903 1111.67 256.662 1112.3 253.793 1111.64C253.002 1111.46 252.252 1111.11 251.572 1110.68C249.403 1109.34 247.943 1107 247.953 1104.41C247.953 1104.13 247.973 1103.85 248.013 1103.57C247.873 1103 247.822 1102.41 247.843 1101.79L248.143 1099.53L248.162 1099.47C248.563 1098.04 249.283 1096.8 250.332 1095.75C251.303 1094.79 252.434 1094.1 253.727 1093.68L254.053 1093.58H254.103ZM1008.69 869.032C1005.96 846.635 995.69 822.539 964.363 835.691L962.036 836.563C954.285 839.497 945.252 843.353 940.534 850.131C937.284 854.801 938.383 863.851 937.934 869.301C935.891 887.021 936.987 904.716 939.115 922.361C941.862 963.72 933.166 1006.57 915.853 1044.16C933.18 1072.2 956.369 1098.35 988.002 1110.03C989.34 1078.16 995.581 1046.87 1002.22 1015.76L1002.48 1014.4C1005.14 1000.38 1006.47 985.985 1015.68 974.32C1034.42 953.977 1060.19 965.491 1072.52 932.811C1069.93 931.501 1071.36 927.021 1074.48 927.882C1085.3 929.801 1087.06 909.752 1079.65 904.921C1071.94 900.218 1079.71 891.542 1076.42 885.28C1074.59 882.581 1070.64 882.491 1068.85 879.38C1064.11 867.931 1087.86 860.594 1059.93 847.687C1054.21 845.654 1047.82 846.915 1042.05 846.892C1033.57 847.684 1026.83 853.66 1019.07 855.54C1027.52 877.409 1006.21 898.468 986.973 881.001C976.506 890.894 964.801 913.445 990.244 902.932C1002.7 894.621 1013.42 883.878 1027.87 878.76L1028.18 878.665C1033.55 876.906 1057.03 865.498 1055.86 875.372C1047.07 883.861 1032.56 883.761 1022.37 890.652C1008.25 897.183 999.22 913.009 982.313 912.79C978.415 936.457 1005.27 922.057 1015.27 915.53L1018.05 914.026C1032.15 906.405 1046.47 899.345 1062.92 899.251C1067.46 899.221 1067.44 906.221 1062.92 906.281C1041.48 906.415 1024.03 919.816 1006.07 929.78C1004.31 943.595 1024.54 937.547 1032.21 935.509C1040.26 934.378 1053.19 925.672 1060.23 930.271C1062.99 937.35 1050.86 936.823 1046.64 938.971C1065.92 948.227 1049.03 954.056 1043.86 939.831L1042.35 940.347C1029.44 944.683 998.152 953.61 1001.87 931.751C997.151 933.841 991.392 935.091 986.173 933.931C973.158 953.181 952.397 945.732 982.573 932.611C975.773 929.448 973.502 917.236 980.034 912.691C956.281 911.241 973.916 886.32 983.747 878.015C982.819 877.077 981.92 876.12 981.082 875.151C975.413 877.851 969.454 879.491 963.082 880.071C956.983 880.62 955.624 870.241 961.643 869.391C968.093 868.481 974.034 866.761 979.713 863.52C988.321 859.803 991.259 875.775 999.874 876.341C1004.57 877.271 1007.75 873.151 1008.69 869.032ZM808.714 1075.12C810.794 1075.12 812.643 1075.99 814.153 1077.37C815.663 1078.75 816.313 1080.82 816.403 1082.8C816.443 1083.86 816.223 1084.85 815.743 1085.77C815.433 1086.72 814.903 1087.54 814.153 1088.24C812.753 1089.63 810.683 1090.49 808.714 1090.49C806.634 1090.49 804.784 1089.62 803.273 1088.24C801.764 1086.85 801.113 1084.79 801.023 1082.8C800.983 1081.75 801.204 1080.76 801.683 1079.84C801.962 1078.99 802.419 1078.23 803.054 1077.58L803.273 1077.37C804.674 1075.97 806.743 1075.12 808.714 1075.12ZM871.74 1027.69L872.073 1027.7C873.833 1027.71 875.464 1028.15 876.983 1029.03C877.643 1029.54 878.303 1030.04 878.954 1030.55C880.163 1031.77 880.993 1033.2 881.454 1034.85C881.924 1036.57 881.924 1038.3 881.454 1040.02C881.294 1041.01 880.924 1041.97 880.344 1042.8C879.483 1044.23 878.344 1045.38 876.903 1046.23C875.413 1047.1 873.803 1047.53 872.073 1047.54C870.344 1047.53 868.733 1047.1 867.243 1046.23C865.803 1045.38 864.663 1044.23 863.813 1042.8C863.223 1041.97 862.853 1041.01 862.693 1040.02C862.223 1038.3 862.223 1036.57 862.693 1034.85C863.12 1033.32 863.866 1031.98 864.939 1030.82L865.193 1030.55C866.073 1029.6 867.113 1028.93 868.323 1028.54C869.386 1027.98 870.525 1027.7 871.74 1027.69ZM390.742 1028.23C391.483 1028.03 392.213 1028.03 392.953 1028.23C394.053 1028.28 395.082 1028.61 396.033 1029.21C396.593 1029.65 397.153 1030.08 397.713 1030.51L398.202 1031.1C399.245 1032.37 399.272 1032.59 400.072 1034.52C400.403 1035.6 400.453 1036.68 400.213 1037.76C400.213 1038.49 400.023 1039.17 399.662 1039.8C399.463 1040.49 399.123 1041.09 398.613 1041.59C398.252 1042.2 397.773 1042.69 397.162 1043.05C396.383 1043.76 395.463 1044.25 394.403 1044.5L392.252 1044.79C391.973 1044.75 391.683 1044.71 391.403 1044.68C391.066 1044.67 390.738 1044.63 390.417 1044.57L390.092 1044.5L389.797 1044.42C389.405 1044.31 389.024 1044.15 388.653 1043.96C387.953 1043.76 387.343 1043.41 386.822 1042.89C385.923 1042.31 385.203 1041.53 384.683 1040.56L384.543 1040.24C384.353 1039.9 384.193 1039.55 384.072 1039.17C383.733 1038.57 383.563 1037.93 383.553 1037.24C383.354 1036.32 383.368 1035.41 383.606 1034.5L383.693 1034.2L384.463 1032.37C384.863 1031.75 385.283 1031.12 385.822 1030.61C386.147 1030.32 386.941 1029.7 387.388 1029.39L387.662 1029.21C388.613 1028.61 389.643 1028.28 390.742 1028.23ZM283.113 1010.52C287.162 1014.57 285.373 1022.01 279.704 1023.45L279.053 1023.61C273.573 1025 268.633 1020.05 270.023 1014.57L270.183 1013.93C271.623 1008.26 279.063 1006.47 283.113 1010.52ZM956.553 967.681C956.513 967.121 957.233 966.922 957.593 967.252C962.413 971.572 965.483 976.752 971.333 980.101C977.214 983.462 983.273 983.191 989.403 985.361C991.483 986.101 991.493 988.882 989.403 989.611C977.803 993.662 957.433 979.931 956.553 967.681ZM411.503 966.801C412.794 966.401 414.094 966.341 415.384 966.631C416.264 966.631 417.083 966.851 417.833 967.29C418.663 967.521 419.374 967.941 419.983 968.54C420.714 968.971 421.294 969.561 421.733 970.29C422.594 971.231 423.174 972.331 423.473 973.591L423.813 976.181L423.473 978.771C423.143 979.54 422.813 980.321 422.493 981.091L421.599 982.302C420.875 983.267 420.759 983.278 419.003 984.581C417.884 985.29 416.674 985.681 415.384 985.731C414.523 985.971 413.663 985.971 412.794 985.731C411.924 985.731 411.103 985.511 410.344 985.071C409.523 984.841 408.804 984.421 408.193 983.821C407.134 983.131 406.304 982.221 405.693 981.091C405.363 980.321 405.034 979.54 404.714 978.771L404.363 976.181L404.714 973.591L404.733 973.511C405.193 971.891 406.014 970.481 407.193 969.29L409.134 967.79C409.893 967.301 410.683 967.051 411.503 966.801ZM878.313 968.741C881.082 967.98 884.123 968.78 886.152 970.811C888.183 972.841 888.983 975.87 888.223 978.641C887.473 981.341 885.303 983.53 882.593 984.261C881.783 984.48 880.963 984.601 880.133 984.561C878.742 984.551 877.443 984.2 876.233 983.501L874.673 982.29C873.912 981.591 873.383 980.761 873.072 979.801C872.582 978.881 872.362 977.891 872.402 976.821L872.393 976.631C872.362 976.251 872.412 975.87 872.533 975.501C872.533 975.11 872.593 974.73 872.693 974.36C873.423 971.661 875.623 969.48 878.313 968.741ZM281.153 941.662C282.043 941.631 282.873 941.811 283.643 942.221C284.453 942.481 285.143 942.921 285.723 943.561C286.363 944.141 286.803 944.841 287.063 945.641C287.473 946.412 287.653 947.242 287.623 948.131C287.623 949.301 287.323 950.391 286.743 951.391C286.403 951.832 286.063 952.271 285.723 952.701C284.923 953.511 283.973 954.061 282.873 954.371L282.233 954.591C281.293 954.931 280.373 954.951 279.393 954.822C278.363 954.681 277.412 954.401 276.573 953.761C275.752 953.281 275.103 952.631 274.623 951.811L274.073 950.511C273.953 950.072 273.903 949.412 273.873 948.951C273.873 948.881 273.873 948.822 273.863 948.751C273.863 948.361 273.983 947.412 274.082 947.021C274.303 946.201 274.752 945.421 275.263 944.761C275.703 944.072 276.303 943.531 277.043 943.131L277.109 943.081L277.183 943.031C277.412 942.871 277.653 942.711 277.893 942.54C278.893 941.961 279.983 941.662 281.153 941.662ZM797.544 934.561C799.144 934.561 800.634 934.971 802.014 935.771C802.063 935.79 802.113 935.811 802.153 935.832C803.474 936.611 804.523 937.662 805.304 938.981C806.104 940.351 806.503 941.832 806.503 943.412C806.503 945.001 806.104 946.471 805.304 947.841C804.523 949.162 803.474 950.211 802.153 950.992C802.113 951.021 802.063 951.04 802.014 951.061C800.634 951.861 799.144 952.261 797.544 952.271C795.954 952.261 794.464 951.861 793.083 951.061C790.384 949.481 788.693 946.531 788.693 943.412C788.693 940.29 790.384 937.341 793.083 935.771C794.464 934.971 795.954 934.561 797.544 934.561ZM382.261 922.997L382.534 922.992C383.594 922.951 384.583 923.171 385.493 923.662C386.443 923.971 387.273 924.502 387.974 925.252L389.434 926.471L389.857 926.814C389.927 926.872 389.996 926.931 390.063 926.992C391.044 927.981 391.714 929.141 392.094 930.481C392.214 931.252 392.313 932.011 392.394 932.781C392.613 934.781 391.434 936.832 390.134 938.252C389.434 939.002 388.603 939.531 387.644 939.851C386.724 940.332 385.724 940.551 384.663 940.511C382.493 940.322 380.434 939.861 378.874 938.181C378.693 937.981 378.523 937.771 378.344 937.561L377.094 936.121C376.144 935.162 375.483 934.031 375.124 932.731C375.023 932.041 374.934 931.361 374.844 930.681C374.753 928.631 375.753 926.711 377.094 925.252C378.332 923.899 380.432 923.073 382.261 922.997ZM331.784 901.941C342.183 901.941 342.163 918.072 331.784 918.072C321.393 918.072 321.413 901.941 331.784 901.941ZM854.665 879.325L854.993 879.331C856.714 879.341 858.323 879.771 859.814 880.641L861.753 882.131C862.934 883.331 863.753 884.731 864.214 886.351C864.323 887.2 864.434 888.051 864.554 888.891C864.604 890.211 864.323 891.441 863.724 892.581C863.344 893.761 862.684 894.79 861.753 895.661C860.884 896.591 859.863 897.251 858.674 897.631C857.534 898.231 856.304 898.511 854.993 898.461C853.264 898.45 851.653 898.021 850.163 897.151C849.514 896.651 848.874 896.151 848.224 895.661C847.134 894.553 846.352 893.275 845.884 891.811L845.774 891.441L845.424 888.891C845.374 887.581 845.653 886.351 846.253 885.211C846.634 884.021 847.294 883.001 848.224 882.131C849.094 881.2 850.124 880.54 851.304 880.161C852.348 879.611 853.469 879.329 854.665 879.325ZM807.823 849.131C808.753 849.1 809.613 849.29 810.424 849.711C811.253 849.98 811.973 850.45 812.583 851.1C813.874 852.131 814.663 854.19 814.663 855.86C814.663 857.53 813.874 859.591 812.583 860.62C811.743 861.45 810.753 862.03 809.613 862.35L807.823 862.591C806.083 862.671 804.313 861.761 803.073 860.62C802.823 860.391 802.583 860.161 802.333 859.94C801.204 858.9 800.714 857.35 800.643 855.86C800.613 855.071 800.784 854.331 801.143 853.641C801.374 852.921 801.773 852.31 802.333 851.78C802.583 851.56 802.823 851.331 803.073 851.1C804.424 849.85 806.003 849.221 807.823 849.131ZM1104.6 795.341C1111.17 787.337 1107.35 781.64 1097.47 783.62C1080.46 785.921 1064.45 796.671 1049.47 804.38C1033.12 813.016 1016.27 820.139 999.592 828.254C1006.47 832.478 1011.59 839.093 1015.5 846.641C1023.31 840.714 1033.28 837.88 1043.02 837.511C1060.69 820.589 1089.95 816.714 1104.6 795.341ZM328.284 821.912C330.066 821.92 331.735 822.339 333.3 823.175L333.633 823.361L335.773 825.021C336.813 825.981 337.543 827.12 337.973 828.431C338.633 829.691 338.933 831.061 338.883 832.521C338.933 833.981 338.633 835.341 337.973 836.601C337.543 837.921 336.813 839.051 335.773 840.011C335.183 840.781 334.423 841.381 333.513 841.822C332.662 842.171 331.823 842.531 330.973 842.891C330.023 843.191 328.923 843.231 327.893 843.281C326.023 843.271 324.284 842.801 322.662 841.861L320.563 840.242C319.553 839.301 318.832 838.191 318.412 836.901C317.817 835.765 317.516 834.552 317.516 833.256L317.523 832.901C317.523 832.822 317.523 832.731 317.534 832.641C317.653 831.701 317.784 830.761 317.912 829.822C318.243 828.441 318.873 827.231 319.813 826.211C320.053 825.731 320.373 825.341 320.784 825.021C322.103 823.701 323.662 822.801 325.463 822.29C326.403 822.171 327.343 822.04 328.284 821.912ZM792.583 795.421C793.933 795.421 795.183 795.761 796.344 796.431C796.853 796.822 797.353 797.211 797.853 797.601C798.784 798.531 799.424 799.631 799.773 800.891L800.044 802.87C800.073 803.901 799.863 804.851 799.393 805.742C799.094 806.661 798.583 807.461 797.853 808.141C797.183 808.87 796.384 809.381 795.454 809.681C794.573 810.151 793.613 810.361 792.583 810.322C791.243 810.322 789.983 809.981 788.823 809.301C788.323 808.921 787.813 808.531 787.313 808.141C786.469 807.288 785.861 806.293 785.496 805.163L785.403 804.851L785.134 802.87C785.094 801.841 785.304 800.891 785.773 800.001C786.073 799.072 786.594 798.271 787.313 797.601C787.993 796.87 788.794 796.361 789.714 796.061C790.514 795.638 791.371 795.425 792.279 795.416L792.583 795.421ZM386.734 784.585L387.083 784.591C389.073 784.601 390.923 785.101 392.643 786.101C393.383 786.672 394.124 787.242 394.863 787.822C396.233 789.191 397.173 790.811 397.704 792.681L398.093 795.601C398.153 797.121 397.833 798.531 397.143 799.841C396.704 801.212 395.943 802.391 394.863 803.391C393.874 804.462 392.693 805.221 391.323 805.662C390.013 806.351 388.603 806.672 387.083 806.611C385.093 806.611 383.243 806.111 381.523 805.111C380.784 804.541 380.044 803.962 379.294 803.391C377.933 802.011 376.993 800.391 376.463 798.531L376.073 795.601C376.013 794.091 376.333 792.672 377.023 791.361C377.463 790.002 378.223 788.811 379.294 787.822C380.294 786.742 381.473 785.981 382.843 785.541C384.052 784.904 385.347 784.59 386.734 784.585ZM757.014 757.091C757.924 756.85 758.833 756.85 759.743 757.091C761.103 757.15 762.374 757.56 763.554 758.31L765.624 759.911C765.653 759.94 765.684 759.971 765.714 760.011C766.964 761.27 767.833 762.761 768.313 764.471L768.674 767.161C768.724 768.551 768.434 769.85 767.804 771.051C767.428 772.205 766.808 773.209 765.953 774.077L765.624 774.4C764.693 775.4 763.603 776.11 762.333 776.52C761.534 776.991 760.663 777.221 759.743 777.221C758.384 777.53 757.014 777.471 755.653 777.04C754.844 776.69 754.023 776.35 753.204 776.011L752.943 775.86C749.853 774.171 747.943 770.631 747.943 767.161C747.943 763.69 749.853 760.14 752.943 758.45C753.034 758.411 753.113 758.36 753.204 758.31C754.384 757.56 755.653 757.15 757.014 757.091Z" fill="#262626"/>
<path fill-rule="evenodd" clip-rule="evenodd" d="M659.696 688.383C639.04 688.326 620.133 684.293 602.194 675.462C580.534 668.38 556.881 664.521 539.303 648.844C530.743 650.663 521.97 641.857 514.869 636.614C503.287 679.317 443.014 672.214 417.547 644.615C401.968 631.431 395.701 598.816 422.755 590.188C378.43 560.018 362.42 507.902 365.466 451.509C368.673 356.911 441.245 258.563 534.523 242.155C552.924 238.911 571.821 239.254 590.143 243.112C600.375 245.336 610.265 249.648 621.215 249.452C663.683 242.725 710.327 243.498 745.405 270.735C801.47 308.324 809.262 383.533 802.711 444.001L802.976 444.567C799.717 466.763 794.301 487.092 784.057 500.474C783.26 519.713 776.589 560.781 776.095 577.017C777.292 652.567 734.472 686.099 659.696 688.383" fill="white"/>
<path fill-rule="evenodd" clip-rule="evenodd" d="M514.598 256.357C552.855 243.387 576.997 250.088 612.7 257.251L614.9 257.69L618.363 258.368C654.188 255.96 685.047 248.08 719.636 265.275C791.607 295.599 804.927 379.308 799.97 449.212L799.676 450.512C797.332 460.711 794.034 471.249 787.102 479.356C775.466 421.959 738.057 384.068 692.056 347.889L690.412 345.896C684.7 338.995 678.47 331.826 670.938 326.958C671.185 324.727 671.308 322.491 671.268 320.286C671.213 317.24 666.873 314.678 664.61 317.327L664.178 317.863C661.224 321.456 645.708 338.727 637.856 347.59L636.877 348.697L634.508 351.396L630.508 356.194C587.337 407.915 541.8 459.837 477.411 484.661C461.982 474.883 443.265 483.493 433.623 497.268C406.225 529.27 437.985 589.614 480.096 573.244C482.653 595.376 493.705 620.326 508.7 637.02C492.27 659.991 465.985 664.136 441.397 651.135C417.395 640.389 401.863 617.833 416.597 592.883C416.906 592.703 417.225 592.529 417.549 592.359C428.846 599.912 442.01 604.861 455.623 605.863L456.655 605.932C465.158 606.334 465.023 592.914 456.393 592.227C399.318 584.957 373.979 519.64 373.922 468.418C371.497 378.251 427.589 285.48 514.598 256.357Z" fill="white"/>
<path fill-rule="evenodd" clip-rule="evenodd" d="M412.995 589.145C278.728 470.261 416.472 202.719 591.169 238.216C608.849 244.149 626.804 246.208 645.114 241.812C737.386 227.373 812.872 305.834 808.97 396.609C809.62 412.135 809.494 427.675 807.819 443.139C805.905 463.465 800.675 485.203 789.011 502.1C788.876 513.45 782.209 556.024 781.138 576.054L780.933 580.236C779.869 600.821 777.577 621.817 768.546 640.587C740.777 691.01 669.243 701.831 617.952 687.142L615.819 686.44C606.292 683.266 595.491 679.037 589.441 671.04C586.244 666.815 591.537 661.421 595.938 662.57C601.604 664.05 606.301 667.511 611.59 669.97C646.092 685.25 686.899 680.133 720.957 665.861L721.987 665.425C782.983 640.613 766.274 552.351 774.303 502.024C776.129 438.117 722.94 394.597 682.866 352.329L681.666 350.99C677.549 346.415 673.2 341.955 667.475 340.979C665.907 345.746 662.052 349.803 658.475 353.28L650.387 362.039C642.298 370.788 634.192 379.501 625.97 388.135C586.048 428.774 545.373 483.95 483.836 488.105C487.619 491.535 490.936 495.454 494.901 498.684C496.573 500.361 494.868 503.176 492.625 502.601C488.442 501.53 485.766 497.554 483.021 494.447C449.785 480.466 422.491 532.131 450.65 553.52C461.096 564.604 491.62 556.17 484.562 569.838C492.266 594.048 504.124 618.398 524.182 634.592C530.072 639.048 539.27 641.305 543.178 647.865C544.121 649.446 543.64 652.026 541.869 652.867C533.348 656.848 524.194 650.152 517.65 645.108C483.091 712.805 356.363 638.011 412.995 589.145ZM618.36 258.352L614.897 257.673C577.974 250.353 553.633 243.107 514.595 256.341C427.586 285.464 371.494 378.235 373.919 468.402C373.976 519.624 399.315 584.941 456.39 592.211C465.02 592.898 465.155 606.318 456.652 605.916L456.391 605.899C442.322 605.019 428.703 599.906 417.094 592.039C401.518 617.317 417.127 640.254 441.394 651.119C465.982 664.12 492.268 659.975 508.697 637.004C493.703 620.31 482.65 595.36 480.093 573.228C437.982 589.598 406.223 529.254 433.621 497.252C443.262 483.477 461.979 474.867 477.408 484.645C543.789 459.053 590.133 404.661 634.505 351.38L636.874 348.681C644.643 339.887 662.506 320.025 664.487 317.457C666.714 314.57 671.209 317.169 671.265 320.27C671.305 322.475 671.182 324.711 670.935 326.942C679.196 332.281 685.891 340.388 692.053 347.873C738.054 384.052 775.463 421.943 787.099 479.34C794.326 470.888 797.603 459.793 799.967 449.196C804.925 379.292 791.604 295.583 719.633 265.259C685.044 248.064 654.185 255.944 618.36 258.352ZM455.149 520.886C452.152 518.205 471.951 517.881 473.82 519.981L474.247 520.127C481.335 522.624 494.315 530.677 487.941 539.037C478.853 547.62 472.523 522.137 455.149 520.886Z" fill="#262626"/>
<path fill-rule="evenodd" clip-rule="evenodd" d="M677.587 606.927C670.864 604.184 664.866 599.61 660.481 593.766C658.957 591.735 658.561 589.59 658.881 587.628C659.241 585.421 660.546 583.422 662.326 582.081C664.112 580.735 666.345 580.072 668.504 580.41C670.381 580.704 672.248 581.731 673.727 583.862L674.035 584.288C676.642 587.815 680.04 590.709 683.91 592.574C687.641 594.372 691.814 595.211 696.132 594.723C704.356 593.794 710.024 589.346 716.049 583.307C716.796 582.544 717.543 581.758 718.294 580.959C718.768 580.234 719.426 579.769 720.157 579.524C720.968 579.253 721.886 579.269 722.726 579.562C723.537 579.845 724.262 580.381 724.748 581.095C725.209 581.773 725.471 582.61 725.386 583.574C724.835 589.833 721.562 595.419 716.914 599.805C711.752 604.677 704.909 608.047 698.466 609.229C691.368 610.531 684.136 609.598 677.587 606.927V606.927ZM701.814 510.367C709.366 514.957 720.872 525.66 712.748 537.04C703.186 547.073 689.419 535.569 682.634 530.366C676.343 526.334 669.275 536.704 675.112 541.413C724.136 577.708 744.031 511.567 705.634 504.97C701.406 504.243 699.836 508.947 701.814 510.367ZM613.963 468.146C614.798 457.79 630.57 455.438 632.139 465.686C633.544 474.866 631.89 483.299 627.755 491.564C623.804 499.46 613.874 495.777 613.123 488.587C612.116 478.949 613.444 474.589 613.963 468.146ZM734.027 463.561C736.226 460.681 739.401 458.715 743.205 459.826C755.09 463.299 751.587 480.172 747.413 488.385C745.145 492.845 737.814 493.976 734.501 490.049C729.101 483.645 726.515 470.856 733.38 464.548C733.566 464.222 733.773 463.893 734.027 463.561ZM627.588 422.83L629.465 422.502C635.273 421.497 642.494 420.532 646.603 425.201C648.782 427.677 649.532 432.279 646.603 434.649C641.451 438.819 635.755 437.203 629.581 437.556C624.493 437.848 619.603 438.69 614.702 440.091C603.95 443.164 595.189 448.774 586.006 454.934C584.801 455.742 583.571 454.201 584.146 453.074C589.447 442.691 599.72 434.162 610.01 428.963C615.502 426.188 621.512 423.886 627.588 422.83ZM723.193 418.179L724.63 418.473C740.267 421.742 760.583 428.271 767.988 443.631C768.271 445.803 767.972 446.268 767.73 446.572L767.649 446.673C767.45 446.933 767.29 447.291 766.349 447.587C766.088 447.525 765.824 447.459 765.557 447.389C762.163 446.499 759.477 445.274 756.877 444.002L754.058 442.613C750.788 441.01 747.488 439.465 743.992 438.324C736.53 435.89 728.854 434.175 721.06 433.26C719.37 433.061 717.744 432.491 716.46 431.514C715.242 430.587 714.311 429.302 713.887 427.595C713.337 425.386 713.495 423.714 714.681 421.721C715.572 420.224 716.847 419.187 718.311 418.591C719.804 417.984 721.504 417.841 723.193 418.179Z" fill="#262626"/>
<path fill-rule="evenodd" clip-rule="evenodd" d="M808.09 484.282C798.556 548.771 732.002 555.903 720.177 491.881C722.075 491.05 723.44 489.414 723.155 486.238C723.088 472.286 727.419 457.54 740.005 449.781C753.011 441.775 768.232 440.981 783.283 441.183C812.005 440.499 811.401 464.506 808.09 484.282M709.758 456.235C700.744 455.855 689.34 456.173 681.265 461.665C679.045 455.687 673.277 449.304 667.449 445.891C689.111 446.525 711.409 444.393 733.233 442.738C728.009 446.299 723.149 451.649 719.99 457.834C717.059 456.271 712.861 456.417 709.758 456.235M670.026 491.119C645.031 577.155 582.64 539.655 575.838 528.629C563.569 510.383 561.261 466.029 571.948 454.17C587.246 443.446 608.903 446.206 626.975 445.943C660.176 446.391 683.756 456.323 670.026 491.119M837.603 451.548C830.812 450.66 823.555 450.481 817.241 453.471C815.297 445.208 809.194 438.3 802.303 435.26C801.469 434.214 801.594 433.652 798.745 433.809C781.25 428.551 761.673 431.333 744.861 436.725C718.309 438.961 690.452 440.724 663.677 443.805C638.595 432.541 562.902 430.89 558.198 458.653C552.281 457.768 542.204 453.111 537.232 459.428C500.761 453.245 463.076 461.838 426.447 465.665C417.227 467.363 412.478 485.661 422.944 485.411C428.828 483.814 422.763 474.017 430.686 473.28C466.027 469.42 500.595 463.944 536.298 463.303C535.056 469.468 559.912 469.869 560.279 466.269C560.332 466.296 560.388 466.314 560.442 466.338C554.3 489.228 559.844 522.17 570.944 536.364C586.496 554.95 625.541 560.282 642.854 548.324C665.187 537.287 688.42 481.885 681.894 463.479C693.738 459.725 705.447 460.852 717.739 462.764C714.925 470.713 710.067 490.281 717.056 491.978C715.773 530.828 751.13 555.069 783.724 539.132C811.935 525.889 821.801 483.971 818.349 458.528C821.861 465.314 851.349 457.926 837.603 451.548" fill="#262626"/>
</svg>
