<svg width="1116" height="1350" viewBox="0 0 1116 1350" fill="none" xmlns="http://www.w3.org/2000/svg">
<mask id="mask0" mask-type="alpha" maskUnits="userSpaceOnUse" x="0" y="0" width="1116" height="1350">
<rect width="1116" height="1350" fill="#C4C4C4"/>
</mask>
<g mask="url(#mask0)">
<path fill-rule="evenodd" clip-rule="evenodd" d="M603.906 417.183C633.038 418.621 678.398 431.11 680.666 439.092C684.207 451.556 676.598 498.283 689.325 523.452C694.751 534.181 715.353 533.219 723.336 536.714C750.045 548.405 829.117 570.578 845.42 598.497C851.951 609.683 892.091 748.472 913.419 819.279C915.824 827.262 918.54 834.645 921.492 841.482L922.578 836.169C931.274 793.374 935.622 767.466 935.622 758.447C935.622 744.354 924.38 684.895 935.622 669.774C946.751 654.805 973.572 642.565 985.639 642.321L986 642.318C993.923 642.318 1000.8 639.841 1006.62 634.888L1015.17 630.592C1058.63 608.784 1084.02 596.822 1091.34 594.706C1103.02 591.328 1122.91 598.524 1112.97 609.328C1106.34 616.531 1089.68 629.273 1063 647.553L1052.93 655.548L1054.15 656.183C1067.15 663.029 1074.8 668.791 1077.09 673.469C1079.45 678.291 1078.31 683.995 1073.69 690.581L1074.39 691.265C1080.24 697.001 1083.16 700.849 1083.16 702.808V712.379C1088.98 720.895 1090.43 727.997 1087.52 733.685C1084.62 739.374 1080.01 744.303 1073.69 748.472C1069.04 760.708 1063.5 769.417 1057.07 774.598C1050.65 779.779 1039.54 784.093 1023.75 787.538L1009.46 821.7L997.885 869.694L992.051 923.247L993.745 924.474C1001.6 930.192 1006.62 934.431 1006.62 938.811C1006.62 945.635 974.948 1106.11 925.665 1113.3C915.006 1114.85 859.729 1107.23 841.58 1092.47L841.848 1094.06C846.118 1119.85 845.215 1133.25 839.137 1134.24C764.45 1146.49 552.333 1150.27 202.787 1145.59C200.707 960.072 210.111 836.518 230.998 774.93C284.418 617.417 343.316 563.618 363.921 559.01C381.971 554.974 444.559 530.064 462.055 523.452C473.476 519.136 475.923 506.197 488.937 506.197L489.989 506.202C502.576 506.328 513.737 508.579 520.008 502.106C536.464 485.119 531.864 461.606 538.691 439.092C542.452 426.687 568.157 415.419 603.906 417.183Z" fill="white"/>
<path d="M488.937 506.197L489.989 506.202C493.1 506.233 496.124 506.394 499.008 506.521L492.931 527.228L492.799 529.403C488.853 600.797 523.814 634.973 597.682 631.933C671.549 628.893 708.292 605.529 707.909 561.841L707.886 560.511L707.887 533.324L709.049 533.546C714.656 534.596 720.059 535.279 723.336 536.714C750.045 548.405 829.117 570.578 845.42 598.497C851.951 609.683 892.091 748.472 913.419 819.279C914.199 821.866 915.011 824.391 915.853 826.854L915.853 840.848L915.621 841.696C908.146 869.655 918.099 892.514 945.48 910.273C964.888 922.861 984.82 931.032 1005.28 934.787C1006.15 936.146 1006.62 937.472 1006.62 938.811C1006.62 945.635 974.948 1106.11 925.665 1113.3C915.006 1114.85 859.729 1107.23 841.58 1092.47L841.848 1094.06L842.098 1095.59C846.08 1120.38 845.093 1133.27 839.137 1134.24C764.45 1146.49 552.333 1150.27 202.787 1145.59C200.707 960.072 210.111 836.518 230.998 774.93C284.418 617.417 343.316 563.618 363.921 559.01C381.971 554.974 444.559 530.064 462.055 523.452C473.476 519.136 475.923 506.197 488.937 506.197Z" fill="#FF8181"/>
<path fill-rule="evenodd" clip-rule="evenodd" d="M523.87 461.663C525.58 458.275 530.119 458.714 533.114 460.251C542.097 466.818 532.698 479.547 530.213 487.561C523.821 503.105 512.719 518.296 497.393 525.561C498.663 541.013 500.102 556.431 500.633 571.931C520.228 596.236 553.265 605.107 582.592 611.929C628.653 624.667 680.637 598.569 696.183 553.04C678.49 542.987 672.764 516.665 678.043 498.301C678.502 497.011 680.502 496.441 681.213 497.881C686.058 507.846 685.412 520.003 690.92 529.848C743.788 534.909 812.018 554.857 846.653 597.611C862.002 619.001 868.082 646.821 875.642 671.611C891.772 722.719 904.624 774.861 920.443 826.021L922.308 816.341C927.419 789.675 932.063 762.648 928.611 735.53L928.549 734.232C927.422 712.655 920.669 672.557 937.403 657.989C952.54 646.422 974.468 637.127 993.463 642.459C1027.27 627.417 1056.44 602.087 1092.44 592.221C1103.52 589.941 1119.46 592.641 1116.84 607.672C1109.59 633.961 1079.19 644.165 1058.41 657.721C1071.73 661.33 1087.97 677.527 1077.56 691.651C1077.47 691.901 1077.39 692.091 1077.31 692.241C1085.75 695.981 1086.93 705.381 1084.86 713.441C1084.65 715.571 1084.09 713.741 1085.34 715.671C1094.87 724.651 1090.66 749.684 1076.31 750.53C1077.25 762.391 1069.63 773.911 1059.98 780.381C1049.58 787.351 1034.54 787.651 1025.93 797.191C1005.72 832.839 998.741 874.923 996.537 915.745C1009.86 920.733 1021.82 935.65 1009.71 948.305C1009.47 948.333 1009.24 948.361 1008.99 948.381C1001.97 967.112 999.264 987.079 995.552 1006.64C989.841 1040.02 974.958 1070.67 955.953 1098.47C933.975 1135.28 874.876 1129.45 845.103 1105.69C845.222 1111.92 846.249 1118.12 844.253 1124.14C841.307 1130.64 834.124 1127.83 833.413 1121.43C817.674 1130.28 813.967 1101.07 831.463 1105.7C830.117 1084.58 829.337 1063.43 828.704 1042.27C808.896 1048.68 808.042 1015.82 828.303 1022.39L828.279 1013.31C828.13 943.644 828.9 873.744 838.093 804.631C838.943 799.461 840.383 794.461 841.223 789.321C841.313 788.79 842.143 788.941 842.146 789.45C843.569 886.21 837.245 983.177 843.843 1079.97C849.336 1081.65 851.526 1087.95 855.593 1091.62C864.622 1099.96 876.918 1104.02 888.942 1105.43C922.612 1110.15 937.149 1099.87 952.143 1070.6C945.38 1075.12 936.242 1067.14 940.364 1059.99L940.493 1059.77C944.774 1052.19 956.863 1056.73 955.332 1065.22C970.407 1041.08 978.297 1013.86 984.124 986.241L984.912 982.941C987.745 971.216 991.421 957.78 998.223 947.171C956.741 936.599 916.163 904.388 909.672 860.195C899.14 893.284 884.872 925.629 871.273 957.811C867.073 969.001 865.323 981.03 859.303 991.411C857.903 993.811 854.353 993.191 853.561 990.66C848.147 966.454 864.553 943.43 873.071 921.64C880.027 909.325 899.993 853.088 912.372 852.952C898.462 791.984 879.909 731.472 862.24 671.263C845.155 589.965 810.338 574.288 736.58 548.691C749.884 616.487 810.624 682.112 778.303 753.221L777.517 755.065C774.211 762.906 771.465 770.806 773.773 779.411C776.013 787.761 781.113 795.011 785.194 802.521C808.002 844.942 792.302 894.484 783.483 938.661C772.343 990.468 761.338 1042.32 749.823 1094.05C747.553 1104.37 746.082 1115 742.653 1125C740.883 1130.16 732.053 1129.67 732.624 1123.65C733.713 1111.97 736.993 1100.58 739.395 1089.11C753.733 1014.85 773.134 941.466 785.47 866.881C793.405 811.669 762.166 803.185 763.332 767.511C767.578 749.266 778.817 732.984 778.172 713.541C780.67 654.025 737.318 604.924 731.966 547.04L722.516 543.669C717.793 541.978 713.075 540.274 708.372 538.529C733.127 711.654 725.61 888.561 713.235 1062.54C710.707 1070.57 713.112 1152.65 702.513 1147.67C701.978 1150.8 700.313 1153.89 696.693 1153.87C663.823 1154.17 630.943 1154.69 598.073 1155.08C582.262 1153.63 560.53 1159.66 547.082 1150.54C531.555 1146.11 529.77 1078.06 525.619 1063.07L524.001 1052.17C497.617 874.062 474.006 692.278 492.971 512.405C466.585 513.419 461.139 541.896 459.182 562.63C454.289 608.393 424.721 647.803 423.303 694.091C423.183 705.321 425.303 716.2 429.792 726.511C441.702 751.773 462.3 780.978 446.905 809.192C428.698 831.156 430.274 836.937 436.955 864.08C455.752 953.812 486.968 1040.08 516.663 1126.59C510.211 1160.22 471.403 1035.38 467.752 1025.97C450.573 1034.61 441.189 1005.94 460.893 1003.9C448.237 961.539 436.59 918.86 426.893 875.711L426.636 874.495C422.353 854.559 413.928 831.214 428.155 813.53C464.841 776.431 403.918 734.964 411.603 690.021C404.967 694.941 394.922 689.765 395.073 681.501C394.772 672.197 407.27 667.431 413.284 674.53C419.468 638.067 440.98 606.235 447.49 569.879L447.784 568.171C449.99 555.322 450.612 541.802 456.923 530.091C448.332 535.671 439.183 540.181 429.773 544.161C446.598 558.214 414.017 571.04 416.713 549.331C324.445 576.025 303.59 613.251 269.713 698.741C276.041 692.593 286.881 700.549 283.093 708.39C280.071 716.65 266.888 714.235 266.893 705.431L265.349 709.113C244.807 758.232 226.109 808.544 216.713 861.111C235.145 858.509 230.452 887.966 213.752 879.661C207.05 926.411 206.944 973.823 207.763 1020.95C223.31 1012.8 223.778 1040.5 207.913 1032.6C208.493 1071.22 209.343 1109.84 209.983 1148.46C210.113 1156.68 197.433 1156.64 197.233 1148.46C195.752 1089.12 193.053 1029.67 194.336 970.312C193.129 867.286 222.747 767.986 266.877 675.696C305.924 569.431 359.86 557.346 459.093 526.45C468.253 512.853 487.823 499.993 503.79 508.531C512.723 494.111 517.26 477.027 523.87 461.663ZM353.853 832.021C354.223 830.711 356.093 831.04 356.153 832.331C356.983 849.001 356.243 865.78 355.103 882.521C354.412 892.741 353.563 902.95 352.843 913.101C350.933 939.881 349.393 966.691 348.223 993.521C348.633 993.351 349.053 993.2 349.493 993.081C351.513 992.53 353.534 992.53 355.553 993.081C357.355 993.584 358.929 994.464 360.286 995.733L360.573 996.011C361.683 997.04 362.473 998.261 362.933 999.671C363.589 1000.93 363.92 1002.27 363.919 1003.7L363.912 1004.06C363.903 1006.12 363.393 1008.03 362.353 1009.81C361.343 1011.52 359.983 1012.88 358.273 1013.9C356.493 1014.93 354.582 1015.44 352.523 1015.45C352.303 1015.47 352.082 1015.49 351.863 1015.5C350.332 1015.56 348.903 1015.24 347.582 1014.55L347.383 1014.49C346.883 1028.1 346.473 1041.72 346.173 1055.34C345.903 1067.21 345.543 1079.08 345.303 1090.95L345.192 1096.89L344.974 1110.01C344.903 1115.41 344.938 1120.57 343.103 1125.66L342.883 1126.25C341.563 1129.65 340.534 1134.38 337.002 1136.27C334.183 1137.78 330.383 1137.22 328.763 1134.28C327.403 1131.82 328.582 1128.28 330.593 1126.62C330.553 1126.51 330.493 1126.41 330.443 1126.3C330.133 1125.4 329.662 1124.55 329.383 1123.64C328.502 1120.76 328.743 1117.69 328.733 1114.7C328.733 1109.42 328.912 1104.14 329.053 1098.87C329.363 1087.65 329.723 1076.44 330.162 1065.23C331.649 1027.63 334.447 990.021 337.653 952.522L338.741 939.865C340.19 923.034 341.69 906.185 343.813 889.441C343.912 888.641 344.013 887.841 344.123 887.04C342.983 886.471 341.923 885.681 341.082 884.801C337.713 881.263 335.67 875.975 333.754 871.418L333.313 870.381C331.233 865.521 329.313 860.601 328.323 855.381L328.229 854.901C327.777 852.678 326.886 848.738 329.243 847.661C330.473 847.101 331.252 847.501 331.653 848.731C331.704 848.891 331.662 849.071 331.573 849.211C332.543 850.7 334.063 852.091 335.023 853.471L338.309 858.169L339.933 860.53C341.993 863.561 344.193 866.461 346.463 869.321C348.252 856.761 350.443 844.251 353.853 832.021ZM488.593 1111.91C492.703 1108.69 499.393 1110.44 499.393 1116.38C499.393 1122.35 492.693 1124.07 488.593 1120.85L488.389 1120.7L488.193 1120.54C485.961 1118.8 485.886 1114.26 488.024 1112.36L488.193 1112.22C488.322 1112.11 488.453 1112.01 488.593 1111.91ZM309.903 1100.31C311.763 1100.31 313.493 1100.78 315.103 1101.72C315.803 1102.25 316.493 1102.79 317.193 1103.33C318.473 1104.61 319.353 1106.13 319.843 1107.88L320.214 1110.62C320.263 1112.04 319.973 1113.36 319.323 1114.59C318.903 1115.87 318.193 1116.98 317.193 1117.91C316.253 1118.92 315.153 1119.63 313.874 1120.04C312.746 1120.64 311.542 1120.94 310.256 1120.94L309.903 1120.93C308.034 1120.93 306.303 1120.46 304.693 1119.52C303.993 1118.99 303.303 1118.45 302.603 1117.91C301.333 1116.63 300.443 1115.11 299.954 1113.36C299.833 1112.45 299.714 1111.53 299.583 1110.62C299.534 1109.2 299.833 1107.88 300.473 1106.65C300.893 1105.37 301.603 1104.26 302.603 1103.33C303.544 1102.32 304.643 1101.61 305.923 1101.2C307.05 1100.61 308.262 1100.3 309.55 1100.3L309.903 1100.31ZM777.663 1081.29L780.284 1081.64C782.794 1082.21 784.813 1084.06 786.163 1086.17C786.884 1087.3 787.273 1088.52 787.333 1089.83C787.624 1091.13 787.563 1092.44 787.153 1093.75C786.853 1095.03 786.264 1096.15 785.393 1097.1C785.094 1097.57 784.743 1098 784.344 1098.38C783.523 1099.75 782.284 1100.65 781.003 1101.57C779.924 1102.26 778.753 1102.63 777.493 1102.69C776.663 1102.91 775.823 1102.91 774.983 1102.69C773.733 1102.63 772.563 1102.26 771.483 1101.57C770.844 1101.08 770.204 1100.58 769.573 1100.09C769.014 1099.44 768.493 1098.77 768.003 1098.07C767.674 1097.3 767.353 1096.54 767.034 1095.78C766.443 1093.95 766.733 1092.33 767.054 1090.5C767.103 1090.19 767.184 1089.91 767.294 1089.61L767.51 1089.03C768.085 1087.51 768.393 1086.99 769.413 1085.67L769.802 1085.15C769.996 1084.89 770.196 1084.64 770.424 1084.41C771.063 1083.75 771.974 1083.2 772.693 1082.63C774.233 1081.74 775.893 1081.3 777.663 1081.29ZM438.483 1074.89C439.933 1074.9 441.294 1075.26 442.553 1075.99L444.193 1077.26C445.193 1078.27 445.883 1079.45 446.273 1080.82C446.363 1081.54 446.464 1082.26 446.563 1082.97C446.603 1084.08 446.374 1085.12 445.863 1086.09C445.544 1087.09 444.983 1087.95 444.193 1088.69C443.464 1089.47 442.593 1090.03 441.593 1090.36C440.72 1090.82 439.781 1091.06 438.784 1091.06L438.483 1091.05C437.023 1091.05 435.663 1090.68 434.403 1089.95L432.763 1088.69C431.763 1087.68 431.073 1086.49 430.683 1085.12C430.593 1084.4 430.493 1083.69 430.393 1082.97C430.353 1081.86 430.583 1080.82 431.093 1079.86C431.423 1078.86 431.973 1077.99 432.763 1077.26C433.493 1076.47 434.363 1075.91 435.363 1075.59C436.236 1075.13 437.158 1074.9 438.15 1074.89L438.483 1074.89ZM372.153 1071.58C374.242 1071.56 376.363 1072.15 378.073 1073.36C379.733 1074.54 380.992 1075.81 381.803 1077.72C382.023 1078.24 382.242 1078.75 382.433 1079.27C383.293 1081.56 383.453 1083.86 382.263 1086.1C381.113 1088.27 378.633 1089.22 376.412 1089.87C374.533 1090.43 372.403 1090.52 370.533 1089.85C369.603 1089.52 368.693 1089.17 367.853 1088.66C366.283 1087.69 365.433 1086.54 364.383 1085.12C363.563 1083.72 363.153 1082.2 363.153 1080.58C363.153 1078.95 363.563 1077.44 364.383 1076.03C365.992 1073.28 368.973 1071.6 372.153 1071.58ZM266.153 1073.51C268.794 1073.51 271.113 1074.73 272.704 1076.79C274.313 1078.88 274.903 1081.48 274.193 1084.07C273.443 1086.81 271.174 1089.21 268.363 1089.9C266.284 1090.41 264.583 1090.39 262.513 1090.04C260.763 1089.74 259.424 1088.7 258.083 1087.62C256.553 1086.37 256.083 1084.09 256.333 1082.25C256.573 1080.41 257.424 1079.21 258.714 1078.12L258.723 1078.09L258.243 1078.46C258.424 1078.3 258.603 1078.13 258.784 1077.96C258.843 1077.86 258.893 1077.75 258.943 1077.64C259.683 1076.38 260.683 1075.39 261.933 1074.65C263.243 1073.89 264.643 1073.51 266.153 1073.51ZM881.743 1043.22C883.193 1042.83 884.653 1042.83 886.103 1043.22C887.174 1043.47 888.103 1043.96 888.894 1044.69C889.695 1045.21 890.349 1045.88 890.844 1046.71L891.003 1046.99C892.144 1048.93 892.323 1051.15 891.833 1053.31C891.224 1055.98 888.764 1058.41 886.103 1059.04L886.013 1059.06L885.924 1059.08C884.844 1059.42 883.753 1059.47 882.674 1059.22C881.583 1059.17 880.573 1058.85 879.644 1058.25C878.464 1057.49 877.474 1056.51 876.714 1055.33C876.113 1054.39 875.794 1053.38 875.743 1052.29C875.554 1051.57 875.554 1050.85 875.743 1050.13C875.794 1049.04 876.113 1048.03 876.714 1047.09L877.993 1045.44L878.124 1045.33C879.144 1044.31 880.353 1043.61 881.743 1043.22ZM781.063 990.301C794.173 990.301 794.153 1010.64 781.063 1010.64C767.954 1010.64 767.973 990.301 781.063 990.301ZM301.082 987.731C302.463 987.421 303.843 987.481 305.213 987.911C306.043 988.261 306.863 988.611 307.683 988.95L309.783 990.572C310.173 990.901 310.363 991.261 310.723 991.731L311.173 992.32C311.824 993.19 311.839 993.375 312.553 995.231C313.033 997.011 313.033 998.79 312.553 1000.57C312.322 1001.43 311.973 1002.24 311.523 1002.99C311.112 1003.71 310.62 1004.34 310.066 1004.92L309.783 1005.21C308.843 1006.22 307.733 1006.93 306.453 1007.35C305.643 1007.82 304.773 1008.05 303.843 1008.05C302.463 1008.36 301.082 1008.3 299.713 1007.87C298.883 1007.52 298.063 1007.17 297.242 1006.83L295.143 1005.21L293.523 1003.11L293.007 1001.88L292.483 1000.64L292.113 997.891C292.063 996.461 292.353 995.141 293.002 993.901C293.252 993.03 293.693 992.261 294.332 991.62C294.793 990.841 295.412 990.221 296.193 989.761C296.832 989.12 297.603 988.681 298.473 988.431C299.283 987.961 300.153 987.731 301.082 987.731ZM949.502 973.2C950.593 973.161 951.613 973.39 952.553 973.89C952.883 974.001 953.204 974.14 953.513 974.301C954.723 975.01 955.683 975.97 956.393 977.171C956.973 978.091 957.293 979.081 957.343 980.15C957.561 981.115 957.541 982.086 957.279 983.052L957.193 983.341C956.973 984.131 956.643 984.86 956.204 985.53C956.162 985.61 956.113 985.69 956.053 985.76C955.383 986.821 954.493 987.69 953.393 988.341C952.173 989.04 950.863 989.4 949.443 989.411C946.613 989.411 944.173 987.881 942.683 985.53C942.473 985.2 942.353 984.78 942.204 984.44C942.073 984.12 941.863 983.711 941.752 983.341C941.373 981.921 941.373 980.501 941.752 979.081C942.002 978.04 942.473 977.131 943.183 976.36C943.752 975.491 944.502 974.801 945.433 974.301C946.587 973.628 947.827 973.269 949.143 973.209L949.502 973.2ZM395.983 963.251C397.367 962.873 398.744 962.844 400.12 963.164L400.464 963.251C401.563 963.511 402.514 964.011 403.333 964.751C404.243 965.351 404.974 966.141 405.503 967.12C406.264 968.431 406.644 969.851 406.653 971.37C406.644 972.891 406.264 974.311 405.503 975.62C404.753 976.891 403.743 977.891 402.474 978.641L401.374 979.171C400.454 979.751 399.474 980.061 398.413 980.11C397.704 980.301 396.993 980.301 396.294 980.11C395.573 980.11 394.903 979.931 394.284 979.571C393.604 979.381 393.023 979.04 392.523 978.54C391.653 977.98 390.974 977.241 390.474 976.311L389.663 974.4L389.384 972.28L389.663 970.171L390.104 969.131C390.503 967.7 391.224 966.461 392.273 965.411C393.323 964.37 394.563 963.65 395.983 963.251ZM891.903 946.381C893.362 945.921 894.813 945.86 896.263 946.181C897.242 946.181 898.162 946.431 899.013 946.931C899.943 947.19 900.742 947.65 901.423 948.331C902.612 949.1 903.543 950.12 904.233 951.39L905.332 954.001C905.992 955.69 905.752 958.181 905.353 959.881C905.023 961.28 904.383 962.501 903.433 963.54C902.953 964.35 902.313 964.991 901.502 965.471C900.577 966.314 899.509 966.913 898.297 967.269L897.963 967.36L897.843 967.39C897.822 967.4 897.803 967.4 897.783 967.4C897.773 967.411 897.752 967.411 897.742 967.411C897.263 967.53 896.773 967.6 896.263 967.62C894.813 967.94 893.362 967.881 891.903 967.421C891.043 967.06 890.173 966.69 889.303 966.321C888.563 965.761 887.832 965.19 887.093 964.62C886.523 963.881 885.953 963.14 885.383 962.411C884.582 961.161 884.153 959.801 884.093 958.35C883.832 957.381 883.832 956.421 884.093 955.45C884.093 954.461 884.343 953.551 884.832 952.7C885.273 951.341 886.023 950.171 887.093 949.181C887.832 948.61 888.563 948.04 889.303 947.48C890.173 947.11 891.043 946.741 891.903 946.381ZM254.103 910.581C255.612 910.171 257.123 910.171 258.633 910.581L260.662 911.431C261.662 911.971 262.453 912.7 263.053 913.631C263.813 914.45 264.322 915.421 264.582 916.531C265.173 918.051 265.103 920.461 264.633 922.011C264.103 923.771 263.283 925.171 262.013 926.491C259.903 928.671 256.662 929.301 253.793 928.641C253.002 928.461 252.252 928.111 251.572 927.681C249.403 926.341 247.943 924.001 247.953 921.411C247.953 921.131 247.973 920.851 248.013 920.572C247.873 920.001 247.822 919.411 247.843 918.79L248.143 916.531L248.162 916.471C248.563 915.04 249.283 913.801 250.332 912.751C251.303 911.791 252.434 911.095 253.727 910.679L254.053 910.581H254.103ZM1008.69 686.032C1005.96 663.635 995.69 639.539 964.363 652.691L962.036 653.563C954.285 656.497 945.252 660.353 940.534 667.131C937.284 671.801 938.383 680.851 937.934 686.301C935.891 704.021 936.987 721.716 939.115 739.361C941.862 780.72 933.166 823.572 915.853 861.161C933.18 889.196 956.369 915.345 988.002 927.03C989.34 895.155 995.581 863.865 1002.22 832.761L1002.48 831.405C1005.14 817.379 1006.47 802.985 1015.68 791.32C1034.42 770.977 1060.19 782.491 1072.52 749.811C1069.93 748.501 1071.36 744.021 1074.48 744.882C1085.3 746.801 1087.06 726.752 1079.65 721.921C1071.94 717.218 1079.71 708.542 1076.42 702.28C1074.59 699.581 1070.64 699.491 1068.85 696.38C1064.11 684.931 1087.86 677.594 1059.93 664.687C1054.21 662.654 1047.82 663.915 1042.05 663.892C1033.57 664.684 1026.83 670.66 1019.07 672.54C1027.52 694.409 1006.21 715.468 986.973 698.001C976.506 707.894 964.801 730.445 990.244 719.932C1002.7 711.621 1013.42 700.878 1027.87 695.76L1028.18 695.665C1033.55 693.906 1057.03 682.498 1055.86 692.372C1047.07 700.861 1032.56 700.761 1022.37 707.652C1008.25 714.183 999.22 730.009 982.313 729.79C978.415 753.457 1005.27 739.057 1015.27 732.53L1018.05 731.026C1032.15 723.405 1046.47 716.345 1062.92 716.251C1067.46 716.221 1067.44 723.221 1062.92 723.281C1041.48 723.415 1024.03 736.816 1006.07 746.78C1004.31 760.595 1024.54 754.547 1032.21 752.509C1040.26 751.378 1053.19 742.672 1060.23 747.271C1062.99 754.35 1050.86 753.823 1046.64 755.971C1065.92 765.227 1049.03 771.056 1043.86 756.831L1042.35 757.347C1029.44 761.683 998.152 770.61 1001.87 748.751C997.151 750.841 991.392 752.091 986.173 750.931C973.158 770.181 952.397 762.732 982.573 749.611C975.773 746.448 973.502 734.236 980.034 729.691C956.281 728.241 973.916 703.32 983.747 695.015C982.819 694.077 981.92 693.12 981.082 692.151C975.413 694.851 969.454 696.491 963.082 697.071C956.983 697.62 955.624 687.241 961.643 686.391C968.093 685.481 974.034 683.761 979.713 680.52C988.321 676.803 991.259 692.775 999.874 693.341C1004.57 694.271 1007.75 690.151 1008.69 686.032ZM808.714 892.121C810.794 892.121 812.643 892.992 814.153 894.371C815.663 895.751 816.313 897.822 816.403 899.801C816.443 900.861 816.223 901.851 815.743 902.771C815.433 903.721 814.903 904.541 814.153 905.242C812.753 906.631 810.683 907.492 808.714 907.492C806.634 907.492 804.784 906.621 803.273 905.242C801.764 903.851 801.113 901.791 801.023 899.801C800.983 898.751 801.204 897.761 801.683 896.841C801.962 895.986 802.419 895.228 803.054 894.582L803.273 894.371C804.674 892.971 806.743 892.121 808.714 892.121ZM871.74 844.695L872.073 844.7C873.833 844.711 875.464 845.15 876.983 846.03C877.643 846.54 878.303 847.04 878.954 847.551C880.163 848.77 880.993 850.2 881.454 851.851C881.924 853.571 881.924 855.301 881.454 857.02C881.294 858.011 880.924 858.971 880.344 859.801C879.483 861.23 878.344 862.381 876.903 863.23C875.413 864.101 873.803 864.53 872.073 864.54C870.344 864.53 868.733 864.101 867.243 863.23C865.803 862.381 864.663 861.23 863.813 859.801C863.223 858.971 862.853 858.011 862.693 857.02C862.223 855.301 862.223 853.571 862.693 851.851C863.12 850.318 863.866 848.976 864.939 847.816L865.193 847.551C866.073 846.601 867.113 845.931 868.323 845.54C869.386 844.982 870.525 844.699 871.74 844.695ZM390.742 845.23C391.483 845.03 392.213 845.03 392.953 845.23C394.053 845.28 395.082 845.61 396.033 846.211C396.593 846.65 397.153 847.081 397.713 847.511L398.202 848.097C399.245 849.368 399.272 849.585 400.072 851.521C400.403 852.601 400.453 853.681 400.213 854.761C400.213 855.491 400.023 856.171 399.662 856.801C399.463 857.491 399.123 858.091 398.613 858.591C398.252 859.2 397.773 859.69 397.162 860.051C396.383 860.761 395.463 861.251 394.403 861.501L392.252 861.79C391.973 861.751 391.683 861.711 391.403 861.681C391.066 861.671 390.738 861.633 390.417 861.571L390.092 861.5L389.797 861.421C389.405 861.307 389.024 861.155 388.653 860.961C387.953 860.761 387.343 860.411 386.822 859.891C385.923 859.311 385.203 858.53 384.683 857.561L384.543 857.241C384.353 856.9 384.193 856.551 384.072 856.171C383.733 855.571 383.563 854.931 383.553 854.241C383.354 853.323 383.368 852.413 383.606 851.503L383.693 851.2L384.463 849.37C384.863 848.751 385.283 848.12 385.822 847.61C386.147 847.322 386.941 846.703 387.388 846.392L387.662 846.211C388.613 845.61 389.643 845.28 390.742 845.23ZM283.113 827.521C287.162 831.572 285.373 839.011 279.704 840.451L279.053 840.611C273.573 842.001 268.633 837.051 270.023 831.572L270.183 830.931C271.623 825.261 279.063 823.471 283.113 827.521ZM956.553 784.681C956.513 784.121 957.233 783.922 957.593 784.252C962.413 788.572 965.483 793.752 971.333 797.101C977.214 800.462 983.273 800.191 989.403 802.361C991.483 803.101 991.493 805.882 989.403 806.611C977.803 810.662 957.433 796.931 956.553 784.681ZM411.503 783.801C412.794 783.401 414.094 783.341 415.384 783.631C416.264 783.631 417.083 783.851 417.833 784.29C418.663 784.521 419.374 784.941 419.983 785.54C420.714 785.971 421.294 786.561 421.733 787.29C422.594 788.231 423.174 789.331 423.473 790.591L423.813 793.181L423.473 795.771C423.143 796.54 422.813 797.321 422.493 798.091L421.599 799.302C420.875 800.267 420.759 800.278 419.003 801.581C417.884 802.29 416.674 802.681 415.384 802.731C414.523 802.971 413.663 802.971 412.794 802.731C411.924 802.731 411.103 802.511 410.344 802.071C409.523 801.841 408.804 801.421 408.193 800.821C407.134 800.131 406.304 799.221 405.693 798.091C405.363 797.321 405.034 796.54 404.714 795.771L404.363 793.181L404.714 790.591L404.733 790.511C405.193 788.891 406.014 787.481 407.193 786.29L409.134 784.79C409.893 784.301 410.683 784.051 411.503 783.801ZM878.313 785.741C881.083 784.98 884.123 785.78 886.152 787.811C888.183 789.841 888.984 792.87 888.224 795.641C887.474 798.341 885.303 800.53 882.594 801.261C881.784 801.48 880.964 801.601 880.133 801.561C878.742 801.551 877.443 801.2 876.234 800.501L874.673 799.29C873.912 798.591 873.383 797.761 873.073 796.801C872.583 795.881 872.362 794.891 872.402 793.821L872.393 793.631C872.362 793.251 872.412 792.87 872.534 792.501C872.534 792.11 872.594 791.73 872.693 791.36C873.423 788.661 875.623 786.48 878.313 785.741ZM281.153 758.662C282.043 758.631 282.873 758.811 283.643 759.221C284.453 759.481 285.143 759.921 285.723 760.561C286.363 761.141 286.803 761.841 287.063 762.641C287.473 763.412 287.653 764.242 287.623 765.131C287.623 766.301 287.323 767.391 286.743 768.391C286.403 768.832 286.063 769.271 285.723 769.701C284.923 770.511 283.973 771.061 282.873 771.371L282.233 771.591C281.293 771.931 280.373 771.951 279.393 771.822C278.363 771.681 277.412 771.401 276.573 770.761C275.752 770.281 275.103 769.631 274.623 768.811L274.073 767.511C273.953 767.072 273.903 766.412 273.873 765.951C273.873 765.881 273.873 765.822 273.863 765.751C273.863 765.361 273.983 764.412 274.082 764.021C274.303 763.201 274.752 762.421 275.263 761.761C275.703 761.072 276.303 760.531 277.043 760.131L277.109 760.081L277.183 760.031C277.412 759.871 277.653 759.711 277.893 759.54C278.893 758.961 279.983 758.662 281.153 758.662ZM797.544 751.561C799.144 751.561 800.634 751.971 802.014 752.771C802.063 752.79 802.113 752.811 802.153 752.832C803.474 753.611 804.523 754.662 805.304 755.981C806.104 757.351 806.503 758.832 806.503 760.412C806.503 762.001 806.104 763.471 805.304 764.841C804.523 766.162 803.474 767.211 802.153 767.992C802.113 768.021 802.063 768.04 802.014 768.061C800.634 768.861 799.144 769.261 797.544 769.271C795.954 769.261 794.464 768.861 793.083 768.061C790.384 766.481 788.693 763.531 788.693 760.412C788.693 757.29 790.384 754.341 793.083 752.771C794.464 751.971 795.954 751.561 797.544 751.561ZM382.261 739.997L382.534 739.992C383.594 739.951 384.583 740.171 385.493 740.662C386.443 740.971 387.273 741.502 387.974 742.252L389.434 743.471L389.857 743.814C389.927 743.872 389.996 743.931 390.063 743.992C391.044 744.981 391.714 746.141 392.094 747.481C392.214 748.252 392.313 749.011 392.394 749.781C392.613 751.781 391.434 753.832 390.134 755.252C389.434 756.002 388.603 756.531 387.644 756.851C386.724 757.332 385.724 757.551 384.663 757.511C382.493 757.322 380.434 756.861 378.874 755.181C378.693 754.981 378.523 754.771 378.344 754.561L377.094 753.121C376.144 752.162 375.483 751.031 375.124 749.731C375.023 749.041 374.934 748.361 374.844 747.681C374.753 745.631 375.753 743.711 377.094 742.252C378.332 740.899 380.432 740.073 382.261 739.997ZM331.784 718.941C342.183 718.941 342.163 735.072 331.784 735.072C321.393 735.072 321.413 718.941 331.784 718.941ZM854.665 696.325L854.993 696.331C856.714 696.341 858.323 696.771 859.814 697.641L861.753 699.131C862.934 700.331 863.753 701.731 864.214 703.351C864.323 704.2 864.434 705.051 864.554 705.891C864.604 707.211 864.323 708.441 863.724 709.581C863.344 710.761 862.684 711.79 861.753 712.661C860.884 713.591 859.863 714.251 858.674 714.631C857.534 715.231 856.304 715.511 854.993 715.461C853.264 715.45 851.653 715.021 850.163 714.151C849.514 713.651 848.874 713.151 848.224 712.661C847.134 711.553 846.352 710.275 845.884 708.811L845.774 708.441L845.424 705.891C845.374 704.581 845.653 703.351 846.253 702.211C846.634 701.021 847.294 700.001 848.224 699.131C849.094 698.2 850.124 697.54 851.304 697.161C852.348 696.611 853.469 696.329 854.665 696.325ZM807.823 666.131C808.753 666.1 809.613 666.29 810.424 666.711C811.253 666.98 811.973 667.45 812.583 668.1C813.874 669.131 814.663 671.19 814.663 672.86C814.663 674.53 813.874 676.591 812.583 677.62C811.743 678.45 810.753 679.03 809.613 679.35L807.823 679.591C806.083 679.671 804.313 678.761 803.073 677.62C802.823 677.391 802.583 677.161 802.333 676.94C801.204 675.9 800.714 674.35 800.643 672.86C800.613 672.071 800.784 671.331 801.143 670.641C801.374 669.921 801.773 669.31 802.333 668.78C802.583 668.56 802.823 668.331 803.073 668.1C804.424 666.85 806.003 666.221 807.823 666.131ZM1104.6 612.341C1111.17 604.337 1107.35 598.64 1097.47 600.62C1080.46 602.921 1064.45 613.671 1049.47 621.38C1033.12 630.016 1016.27 637.139 999.592 645.254C1006.47 649.478 1011.59 656.093 1015.5 663.641C1023.31 657.714 1033.28 654.88 1043.02 654.511C1060.69 637.589 1089.95 633.714 1104.6 612.341ZM328.284 638.912C330.066 638.92 331.735 639.339 333.3 640.175L333.633 640.361L335.773 642.021C336.813 642.981 337.543 644.12 337.973 645.431C338.633 646.691 338.933 648.061 338.883 649.521C338.933 650.981 338.633 652.341 337.973 653.601C337.543 654.921 336.813 656.051 335.773 657.011C335.183 657.781 334.423 658.381 333.513 658.822C332.662 659.171 331.823 659.531 330.973 659.891C330.023 660.191 328.923 660.231 327.893 660.281C326.023 660.271 324.284 659.801 322.662 658.861L320.563 657.242C319.553 656.301 318.832 655.191 318.412 653.901C317.817 652.765 317.516 651.552 317.516 650.256L317.523 649.901C317.523 649.822 317.523 649.731 317.534 649.641C317.653 648.701 317.784 647.761 317.912 646.822C318.243 645.441 318.873 644.231 319.813 643.211C320.053 642.731 320.373 642.341 320.784 642.021C322.103 640.701 323.662 639.801 325.463 639.29C326.403 639.171 327.343 639.04 328.284 638.912ZM792.583 612.421C793.933 612.421 795.183 612.761 796.344 613.431C796.853 613.822 797.353 614.211 797.853 614.601C798.784 615.531 799.424 616.631 799.773 617.891L800.044 619.87C800.073 620.901 799.863 621.851 799.393 622.742C799.094 623.661 798.583 624.461 797.853 625.141C797.183 625.87 796.384 626.381 795.454 626.681C794.573 627.151 793.613 627.361 792.583 627.322C791.243 627.322 789.983 626.981 788.823 626.301C788.323 625.921 787.813 625.531 787.313 625.141C786.469 624.288 785.861 623.293 785.496 622.163L785.403 621.851L785.134 619.87C785.094 618.841 785.304 617.891 785.773 617.001C786.073 616.072 786.594 615.271 787.313 614.601C787.993 613.87 788.794 613.361 789.714 613.061C790.514 612.638 791.371 612.425 792.279 612.416L792.583 612.421ZM386.734 601.585L387.083 601.591C389.073 601.601 390.923 602.101 392.643 603.101C393.383 603.672 394.124 604.242 394.863 604.822C396.233 606.191 397.173 607.811 397.704 609.681L398.093 612.601C398.153 614.121 397.833 615.531 397.143 616.841C396.704 618.212 395.943 619.391 394.863 620.391C393.874 621.462 392.693 622.221 391.323 622.662C390.013 623.351 388.603 623.672 387.083 623.611C385.093 623.611 383.243 623.111 381.523 622.111C380.784 621.541 380.044 620.962 379.294 620.391C377.933 619.011 376.993 617.391 376.463 615.531L376.073 612.601C376.013 611.091 376.333 609.672 377.023 608.361C377.463 607.002 378.223 605.811 379.294 604.822C380.294 603.742 381.473 602.981 382.843 602.541C384.052 601.904 385.347 601.59 386.734 601.585ZM757.014 574.091C757.924 573.85 758.833 573.85 759.743 574.091C761.103 574.15 762.374 574.56 763.554 575.31L765.624 576.911C765.653 576.94 765.684 576.971 765.714 577.011C766.964 578.27 767.833 579.761 768.313 581.471L768.674 584.161C768.724 585.551 768.434 586.85 767.804 588.051C767.428 589.205 766.807 590.209 765.953 591.077L765.624 591.4C764.693 592.4 763.603 593.11 762.333 593.52C761.534 593.991 760.663 594.221 759.743 594.221C758.384 594.53 757.014 594.471 755.653 594.04C754.844 593.69 754.023 593.35 753.204 593.011L752.943 592.86C749.853 591.171 747.943 587.631 747.943 584.161C747.943 580.69 749.853 577.14 752.943 575.45C753.034 575.411 753.113 575.36 753.204 575.31C754.384 574.56 755.653 574.15 757.014 574.091Z" fill="#262626"/>
<path fill-rule="evenodd" clip-rule="evenodd" d="M659.696 505.383C639.04 505.326 620.133 501.293 602.194 492.462C580.534 485.38 556.881 481.521 539.303 465.844C530.743 467.663 521.97 458.857 514.869 453.614C503.287 496.317 443.014 489.214 417.547 461.615C401.968 448.431 395.701 415.816 422.755 407.188C378.43 377.018 362.42 324.902 365.466 268.509C368.673 173.911 441.245 75.5632 534.523 59.1552C552.924 55.9112 571.821 56.2542 590.143 60.1122C600.375 62.3362 610.265 66.6482 621.215 66.4522C663.683 59.7252 710.327 60.4982 745.405 87.7352C801.47 125.324 809.262 200.533 802.711 261.001L802.976 261.567C799.717 283.763 794.301 304.092 784.057 317.474C783.26 336.713 776.589 377.781 776.095 394.017C777.292 469.567 734.472 503.099 659.696 505.383Z" fill="white"/>
<path fill-rule="evenodd" clip-rule="evenodd" d="M514.598 73.3574C552.855 60.3874 576.997 67.0879 612.7 74.2507L614.9 74.6896L618.363 75.3684C654.188 72.9604 685.047 65.0804 719.636 82.2754C791.607 112.599 804.927 196.308 799.97 266.212L799.676 267.512C797.332 277.711 794.034 288.249 787.102 296.356C775.466 238.959 738.057 201.068 692.056 164.889L690.412 162.896C684.7 155.995 678.47 148.826 670.938 143.958C671.185 141.727 671.308 139.491 671.268 137.286C671.213 134.24 666.873 131.678 664.61 134.327L664.178 134.863C661.224 138.456 645.708 155.727 637.856 164.59L636.877 165.697L634.508 168.396L630.508 173.194C587.337 224.915 541.8 276.837 477.411 301.661C461.982 291.883 443.265 300.493 433.623 314.268C406.225 346.27 437.985 406.614 480.096 390.244C482.653 412.376 493.705 437.326 508.7 454.02C492.27 476.991 465.985 481.136 441.397 468.135C417.395 457.389 401.863 434.833 416.597 409.883C416.906 409.703 417.225 409.529 417.549 409.359C428.846 416.912 442.01 421.861 455.623 422.863L456.655 422.932C465.158 423.334 465.023 409.914 456.393 409.227C399.318 401.957 373.979 336.64 373.922 285.418C371.497 195.251 427.589 102.48 514.598 73.3574Z" fill="white"/>
<path fill-rule="evenodd" clip-rule="evenodd" d="M412.995 406.145C278.728 287.261 416.472 19.7193 591.169 55.2163C608.849 61.1493 626.804 63.2083 645.115 58.8123C737.386 44.3733 812.872 122.834 808.97 213.609C809.62 229.135 809.494 244.675 807.82 260.139C805.905 280.465 800.675 302.203 789.011 319.1C788.876 330.45 782.209 373.024 781.138 393.054L780.933 397.236C779.869 417.821 777.577 438.816 768.547 457.587C740.777 508.01 669.243 518.831 617.952 504.142L615.819 503.44C606.292 500.266 595.491 496.037 589.441 488.04C586.244 483.815 591.537 478.421 595.938 479.57C601.605 481.05 606.301 484.511 611.59 486.97C646.092 502.25 686.899 497.133 720.957 482.861L721.987 482.425C782.983 457.613 766.274 369.351 774.303 319.024C776.13 255.117 722.94 211.597 682.866 169.329L681.666 167.99C677.549 163.415 673.2 158.955 667.475 157.979C665.908 162.746 662.052 166.803 658.475 170.28L650.388 179.039C642.298 187.788 634.192 196.501 625.97 205.135C586.048 245.774 545.373 300.95 483.836 305.105C487.619 308.535 490.936 312.454 494.901 315.684C496.574 317.361 494.868 320.176 492.625 319.601C488.442 318.53 485.766 314.554 483.021 311.447C449.785 297.466 422.491 349.131 450.65 370.52C461.096 381.604 491.62 373.17 484.562 386.838C492.266 411.048 504.124 435.398 524.182 451.592C530.072 456.048 539.27 458.305 543.178 464.865C544.121 466.446 543.64 469.026 541.869 469.867C533.348 473.848 524.194 467.152 517.65 462.108C483.091 529.805 356.363 455.011 412.995 406.145ZM618.36 75.3523L614.897 74.6735C577.974 67.3534 553.633 60.1066 514.595 73.3413C427.586 102.464 371.494 195.235 373.919 285.402C373.976 336.624 399.315 401.941 456.391 409.211C465.02 409.898 465.155 423.318 456.652 422.916L456.392 422.899C442.322 422.019 428.703 416.906 417.094 409.039C401.519 434.317 417.128 457.254 441.394 468.119C465.982 481.12 492.268 476.975 508.697 454.004C493.703 437.31 482.65 412.36 480.093 390.228C437.982 406.598 406.223 346.254 433.621 314.252C443.262 300.477 461.979 291.867 477.408 301.645C543.789 276.053 590.133 221.661 634.505 168.38L636.874 165.681C644.643 156.887 662.506 137.025 664.488 134.457C666.714 131.57 671.209 134.169 671.265 137.27C671.305 139.475 671.182 141.711 670.935 143.942C679.196 149.281 685.891 157.388 692.053 164.873C738.054 201.052 775.463 238.943 787.099 296.34C794.326 287.888 797.603 276.793 799.967 266.196C804.925 196.292 791.604 112.583 719.633 82.2593C685.044 65.0643 654.185 72.9443 618.36 75.3523ZM455.149 337.886C452.152 335.205 471.951 334.881 473.82 336.981L474.247 337.127C481.335 339.625 494.316 347.677 487.941 356.037C478.853 364.62 472.523 339.137 455.149 337.886Z" fill="#262626"/>
<path fill-rule="evenodd" clip-rule="evenodd" d="M677.587 423.927C670.864 421.184 664.866 416.61 660.481 410.766C658.957 408.735 658.561 406.59 658.881 404.628C659.241 402.421 660.546 400.422 662.326 399.081C664.112 397.735 666.345 397.072 668.504 397.41C670.381 397.704 672.248 398.731 673.727 400.862L674.035 401.288C676.642 404.815 680.04 407.709 683.91 409.574C687.641 411.372 691.814 412.211 696.132 411.723C704.356 410.794 710.024 406.346 716.049 400.307C716.796 399.544 717.543 398.758 718.294 397.959C718.768 397.234 719.426 396.769 720.157 396.524C720.968 396.253 721.886 396.269 722.726 396.562C723.537 396.845 724.262 397.381 724.747 398.095C725.209 398.773 725.471 399.61 725.386 400.574C724.835 406.833 721.562 412.419 716.914 416.805C711.752 421.677 704.909 425.047 698.466 426.229C691.368 427.531 684.136 426.598 677.587 423.927ZM701.814 327.367C709.366 331.957 720.872 342.66 712.748 354.04C703.186 364.073 689.418 352.569 682.634 347.366C676.343 343.334 669.275 353.704 675.112 358.413C724.136 394.708 744.031 328.567 705.634 321.97C701.406 321.243 699.836 325.947 701.814 327.367ZM613.963 285.146C614.798 274.79 630.57 272.438 632.139 282.686C633.544 291.866 631.89 300.299 627.755 308.564C623.804 316.46 613.874 312.777 613.123 305.587C612.116 295.949 613.444 291.589 613.963 285.146ZM734.027 280.561C736.226 277.681 739.401 275.715 743.205 276.826C755.09 280.299 751.587 297.172 747.413 305.385C745.145 309.845 737.814 310.976 734.501 307.049C729.101 300.645 726.515 287.856 733.38 281.548C733.566 281.222 733.773 280.893 734.027 280.561ZM627.588 239.83L629.465 239.502C635.273 238.497 642.494 237.532 646.603 242.201C648.782 244.677 649.532 249.279 646.603 251.649C641.451 255.819 635.755 254.203 629.581 254.556C624.493 254.848 619.603 255.69 614.702 257.091C603.95 260.164 595.189 265.774 586.006 271.934C584.801 272.742 583.571 271.201 584.146 270.074C589.447 259.691 599.72 251.162 610.01 245.963C615.502 243.188 621.512 240.886 627.588 239.83ZM723.193 235.179L724.63 235.473C740.267 238.742 760.583 245.271 767.988 260.631C768.271 262.803 767.972 263.268 767.73 263.572L767.649 263.673C767.45 263.933 767.29 264.291 766.349 264.587C766.087 264.525 765.824 264.459 765.557 264.389C762.163 263.499 759.477 262.274 756.877 261.002L754.058 259.613C750.788 258.01 747.488 256.465 743.992 255.324C736.53 252.89 728.854 251.175 721.06 250.26C719.37 250.061 717.744 249.491 716.46 248.514C715.242 247.587 714.311 246.302 713.887 244.595C713.337 242.386 713.495 240.714 714.68 238.721C715.572 237.224 716.847 236.187 718.311 235.591C719.804 234.984 721.503 234.841 723.193 235.179Z" fill="#262626"/>
<path fill-rule="evenodd" clip-rule="evenodd" d="M808.09 301.282C798.556 365.771 732.002 372.903 720.177 308.881C722.075 308.05 723.44 306.414 723.155 303.238C723.088 289.286 727.419 274.54 740.005 266.781C753.011 258.775 768.232 257.981 783.283 258.183C812.005 257.499 811.401 281.506 808.09 301.282ZM709.758 273.235C700.744 272.855 689.34 273.173 681.265 278.665C679.045 272.687 673.277 266.304 667.449 262.891C689.111 263.525 711.409 261.393 733.233 259.738C728.009 263.299 723.149 268.649 719.99 274.834C717.059 273.271 712.861 273.417 709.758 273.235ZM670.026 308.119C645.031 394.155 582.64 356.655 575.838 345.629C563.569 327.383 561.261 283.029 571.948 271.17C587.246 260.446 608.903 263.206 626.975 262.943C660.176 263.391 683.756 273.323 670.026 308.119ZM837.603 268.548C830.812 267.66 823.555 267.481 817.241 270.471C815.297 262.208 809.194 255.3 802.303 252.26C801.469 251.214 801.594 250.652 798.745 250.809C781.25 245.551 761.673 248.333 744.861 253.725C718.309 255.961 690.452 257.724 663.677 260.805C638.595 249.541 562.902 247.89 558.198 275.653C552.281 274.768 542.204 270.111 537.232 276.428C500.761 270.245 463.076 278.838 426.447 282.665C417.227 284.363 412.478 302.661 422.944 302.411C428.828 300.814 422.763 291.017 430.686 290.28C466.027 286.42 500.595 280.944 536.298 280.303C535.056 286.468 559.912 286.869 560.279 283.269C560.332 283.296 560.388 283.314 560.442 283.338C554.3 306.228 559.844 339.17 570.944 353.364C586.496 371.95 625.541 377.282 642.854 365.324C665.187 354.287 688.42 298.885 681.894 280.479C693.738 276.725 705.447 277.852 717.739 279.764C714.925 287.713 710.067 307.281 717.056 308.978C715.773 347.828 751.13 372.069 783.724 356.132C811.935 342.889 821.801 300.971 818.349 275.528C821.861 282.314 851.349 274.926 837.603 268.548Z" fill="#262626"/>
</g>
</svg>
