<svg width="78" height="78" viewBox="0 0 78 78" fill="none" xmlns="http://www.w3.org/2000/svg">
<path d="M40.56 35.425C33.1825 33.5075 30.81 31.525 30.81 28.4375C30.81 24.895 34.0925 22.425 39.585 22.425C45.37 22.425 47.515 25.1875 47.71 29.25H54.8925C54.665 23.66 51.2525 18.525 44.46 16.8675V9.75H34.71V16.77C28.405 18.135 23.335 22.23 23.335 28.5025C23.335 36.01 29.5425 39.7475 38.61 41.925C46.735 43.875 48.36 46.735 48.36 49.7575C48.36 52 46.7675 55.575 39.585 55.575C32.89 55.575 30.2575 52.585 29.9 48.75H22.75C23.14 55.8675 28.47 59.865 34.71 61.1975V68.25H44.46V61.2625C50.7975 60.06 55.835 56.3875 55.835 49.725C55.835 40.495 47.9375 37.3425 40.56 35.425Z" fill="#141414"/>
</svg>
