<svg width="1116" height="1350" viewBox="0 0 1116 1350" fill="none" xmlns="http://www.w3.org/2000/svg">
<mask id="mask0" style="mask-type:alpha" maskUnits="userSpaceOnUse" x="0" y="0" width="1116" height="1350">
<rect width="1116" height="1350" fill="#C4C4C4"/>
</mask>
<g mask="url(#mask0)">
<path fill-rule="evenodd" clip-rule="evenodd" d="M593.906 420.183C623.038 421.621 668.398 434.11 670.666 442.092C674.207 454.556 666.598 501.283 679.325 526.452C684.75 537.181 705.353 536.219 713.335 539.714C740.045 551.405 819.117 573.578 835.42 601.497C841.951 612.683 882.091 751.472 903.419 822.279C905.824 830.262 908.54 837.645 911.492 844.482L912.578 839.169C921.274 796.374 925.622 770.466 925.622 761.447C925.622 747.354 914.38 687.895 925.622 672.774C936.751 657.805 963.572 645.565 975.639 645.321L976 645.318C983.923 645.318 990.798 642.841 996.625 637.888L1005.17 633.592C1048.63 611.784 1074.02 599.822 1081.34 597.706C1093.02 594.328 1112.91 601.524 1102.97 612.328C1096.34 619.531 1079.68 632.273 1053 650.553L1042.93 658.548L1044.15 659.183C1057.15 666.029 1064.8 671.791 1067.09 676.469C1069.45 681.291 1068.31 686.995 1063.69 693.581L1064.39 694.265C1070.24 700.001 1073.16 703.849 1073.16 705.808V715.379C1078.98 723.895 1080.43 730.997 1077.52 736.685C1074.62 742.374 1070.01 747.303 1063.69 751.472C1059.04 763.708 1053.5 772.417 1047.07 777.598C1040.65 782.779 1029.54 787.093 1013.75 790.538L999.462 824.7L987.885 872.694L982.051 926.247L983.745 927.474C991.596 933.192 996.625 937.431 996.625 941.811C996.625 948.635 964.948 1109.11 915.665 1116.3C905.006 1117.85 849.729 1110.23 831.58 1095.47L831.848 1097.06C836.118 1122.85 835.215 1136.25 829.137 1137.24C754.45 1149.49 542.333 1153.27 192.787 1148.59C190.707 963.072 200.111 839.518 220.998 777.93C274.418 620.417 333.316 566.618 353.921 562.01C371.971 557.974 434.559 533.064 452.055 526.452C463.476 522.136 465.923 509.197 478.937 509.197L479.989 509.202C492.576 509.328 503.737 511.579 510.008 505.106C526.464 488.119 521.864 464.606 528.691 442.092C532.452 429.687 558.157 418.419 593.906 420.183Z" fill="white"/>
<path d="M478.937 509.197L479.989 509.202C483.1 509.233 486.124 509.394 489.008 509.521L482.931 530.228L482.799 532.403C478.853 603.797 513.814 637.973 587.682 634.933C661.549 631.893 698.292 608.529 697.909 564.841L697.886 563.511L697.887 536.324L699.049 536.546C704.656 537.596 710.059 538.279 713.335 539.714C740.045 551.405 819.117 573.578 835.42 601.497C841.951 612.683 882.091 751.472 903.419 822.279C904.199 824.866 905.011 827.391 905.853 829.854L905.853 843.848L905.621 844.696C898.146 872.655 908.099 895.514 935.48 913.273C954.888 925.861 974.82 934.032 995.276 937.787C996.155 939.146 996.625 940.472 996.625 941.811C996.625 948.635 964.948 1109.11 915.665 1116.3C905.006 1117.85 849.729 1110.23 831.58 1095.47L831.848 1097.06L832.098 1098.59C836.08 1123.38 835.093 1136.27 829.137 1137.24C754.45 1149.49 542.333 1153.27 192.787 1148.59C190.707 963.072 200.111 839.518 220.998 777.93C274.418 620.417 333.316 566.618 353.921 562.01C371.971 557.974 434.559 533.064 452.055 526.452C463.476 522.136 465.923 509.197 478.937 509.197Z" fill="#FF8181"/>
<path fill-rule="evenodd" clip-rule="evenodd" d="M513.87 464.663C515.58 461.275 520.119 461.714 523.114 463.251C532.097 469.818 522.698 482.547 520.213 490.561C513.821 506.105 502.719 521.296 487.393 528.561C488.663 544.013 490.102 559.431 490.633 574.931C510.228 599.236 543.265 608.107 572.592 614.929C618.653 627.667 670.637 601.569 686.183 556.04C668.49 545.987 662.764 519.665 668.043 501.301C668.502 500.011 670.502 499.441 671.213 500.881C676.058 510.846 675.412 523.003 680.92 532.848C733.788 537.909 802.018 557.857 836.653 600.611C852.002 622.001 858.082 649.821 865.642 674.611C881.772 725.719 894.624 777.861 910.443 829.021L912.308 819.341C917.419 792.675 922.063 765.648 918.611 738.53L918.549 737.232C917.422 715.655 910.669 675.557 927.403 660.989C942.54 649.422 964.468 640.127 983.463 645.459C1017.27 630.417 1046.44 605.087 1082.44 595.221C1093.52 592.941 1109.46 595.641 1106.84 610.672C1099.59 636.961 1069.19 647.165 1048.41 660.721C1061.73 664.33 1077.97 680.527 1067.56 694.651C1067.47 694.901 1067.39 695.091 1067.31 695.241C1075.75 698.981 1076.93 708.381 1074.86 716.441C1074.65 718.571 1074.09 716.741 1075.34 718.671C1084.87 727.651 1080.66 752.684 1066.31 753.53C1067.25 765.391 1059.63 776.911 1049.98 783.381C1039.58 790.351 1024.54 790.651 1015.93 800.191C995.715 835.839 988.741 877.923 986.537 918.745C999.864 923.733 1011.82 938.65 999.713 951.305C999.474 951.333 999.235 951.361 998.993 951.381C991.974 970.112 989.264 990.079 985.552 1009.64C979.841 1043.02 964.958 1073.67 945.953 1101.47C923.975 1138.28 864.876 1132.45 835.103 1108.69C835.222 1114.92 836.249 1121.12 834.253 1127.14C831.307 1133.64 824.124 1130.83 823.413 1124.43C807.674 1133.28 803.967 1104.07 821.463 1108.7C820.117 1087.58 819.337 1066.43 818.704 1045.27C798.896 1051.68 798.042 1018.82 818.303 1025.39L818.279 1016.31C818.13 946.644 818.9 876.744 828.093 807.631C828.943 802.461 830.383 797.461 831.223 792.321C831.313 791.79 832.143 791.941 832.146 792.45C833.569 889.21 827.245 986.177 833.843 1082.97C839.336 1084.65 841.526 1090.95 845.593 1094.62C854.622 1102.96 866.918 1107.02 878.942 1108.43C912.612 1113.15 927.149 1102.87 942.143 1073.6C935.38 1078.12 926.242 1070.14 930.364 1062.99L930.493 1062.77C934.774 1055.19 946.863 1059.73 945.332 1068.22C960.407 1044.08 968.297 1016.86 974.124 989.241L974.912 985.941C977.745 974.216 981.421 960.78 988.223 950.171C946.741 939.599 906.163 907.388 899.672 863.195C889.14 896.284 874.872 928.629 861.273 960.811C857.073 972.001 855.323 984.03 849.303 994.411C847.903 996.811 844.353 996.191 843.561 993.66C838.147 969.454 854.553 946.43 863.071 924.64C870.027 912.325 889.993 856.088 902.372 855.952C888.462 794.984 869.909 734.472 852.24 674.263C835.155 592.965 800.338 577.288 726.58 551.691C739.884 619.487 800.624 685.112 768.303 756.221L767.517 758.065C764.211 765.906 761.465 773.806 763.773 782.411C766.013 790.761 771.113 798.011 775.194 805.521C798.002 847.942 782.302 897.484 773.483 941.661C762.343 993.468 751.338 1045.32 739.823 1097.05C737.553 1107.37 736.082 1118 732.653 1128C730.883 1133.16 722.053 1132.67 722.624 1126.65C723.713 1114.97 726.993 1103.58 729.395 1092.11C743.733 1017.85 763.134 944.466 775.47 869.881C783.405 814.669 752.166 806.185 753.332 770.511C757.578 752.266 768.817 735.984 768.172 716.541C770.67 657.025 727.318 607.924 721.966 550.04L712.516 546.669C707.793 544.978 703.075 543.274 698.372 541.529C723.127 714.654 715.61 891.561 703.235 1065.54C700.707 1073.57 703.112 1155.65 692.513 1150.67C691.978 1153.8 690.313 1156.89 686.693 1156.87C653.823 1157.17 620.943 1157.69 588.073 1158.08C572.262 1156.63 550.53 1162.66 537.082 1153.54C521.555 1149.11 519.77 1081.06 515.619 1066.07L514.001 1055.17C487.617 877.062 464.006 695.278 482.971 515.405C456.585 516.419 451.139 544.896 449.182 565.63C444.289 611.393 414.721 650.803 413.303 697.091C413.183 708.321 415.303 719.2 419.792 729.511C431.702 754.773 452.3 783.978 436.905 812.192C418.698 834.156 420.274 839.937 426.955 867.08C445.752 956.812 476.968 1043.08 506.663 1129.59C500.211 1163.22 461.403 1038.38 457.752 1028.97C440.573 1037.61 431.189 1008.94 450.893 1006.9C438.237 964.539 426.59 921.86 416.893 878.711L416.636 877.495C412.353 857.559 403.928 834.214 418.155 816.53C454.841 779.431 393.918 737.964 401.603 693.021C394.967 697.941 384.922 692.765 385.073 684.501C384.772 675.197 397.27 670.431 403.284 677.53C409.468 641.067 430.98 609.235 437.49 572.879L437.784 571.171C439.99 558.322 440.612 544.802 446.923 533.091C438.332 538.671 429.183 543.181 419.773 547.161C436.598 561.214 404.017 574.04 406.713 552.331C314.445 579.025 293.59 616.251 259.713 701.741C266.041 695.593 276.881 703.549 273.093 711.39C270.071 719.65 256.888 717.235 256.893 708.431L255.349 712.113C234.807 761.232 216.109 811.544 206.713 864.111C225.145 861.509 220.452 890.966 203.752 882.661C197.05 929.411 196.944 976.823 197.763 1023.95C213.31 1015.8 213.778 1043.5 197.913 1035.6C198.493 1074.22 199.343 1112.84 199.983 1151.46C200.113 1159.68 187.433 1159.64 187.233 1151.46C185.752 1092.12 183.053 1032.67 184.336 973.312C183.129 870.286 212.747 770.986 256.877 678.696C295.924 572.431 349.86 560.346 449.093 529.45C458.253 515.853 477.823 502.993 493.79 511.531C502.723 497.111 507.26 480.027 513.87 464.663ZM343.853 835.021C344.223 833.711 346.093 834.04 346.153 835.331C346.983 852.001 346.243 868.78 345.103 885.521C344.412 895.741 343.563 905.95 342.843 916.101C340.933 942.881 339.393 969.691 338.223 996.521C338.633 996.351 339.053 996.2 339.493 996.081C341.513 995.53 343.534 995.53 345.553 996.081C347.355 996.584 348.929 997.464 350.286 998.733L350.573 999.011C351.683 1000.04 352.473 1001.26 352.933 1002.67C353.589 1003.93 353.92 1005.27 353.919 1006.7L353.912 1007.06C353.903 1009.12 353.393 1011.03 352.353 1012.81C351.343 1014.52 349.983 1015.88 348.273 1016.9C346.493 1017.93 344.582 1018.44 342.523 1018.45C342.303 1018.47 342.082 1018.49 341.863 1018.5C340.332 1018.56 338.903 1018.24 337.582 1017.55L337.383 1017.49C336.883 1031.1 336.473 1044.72 336.173 1058.34C335.903 1070.21 335.543 1082.08 335.303 1093.95L335.192 1099.89L334.974 1113.01C334.903 1118.41 334.938 1123.57 333.103 1128.66L332.883 1129.25C331.563 1132.65 330.534 1137.38 327.002 1139.27C324.183 1140.78 320.383 1140.22 318.763 1137.28C317.403 1134.82 318.582 1131.28 320.593 1129.62C320.553 1129.51 320.493 1129.41 320.443 1129.3C320.133 1128.4 319.662 1127.55 319.383 1126.64C318.502 1123.76 318.743 1120.69 318.733 1117.7C318.733 1112.42 318.912 1107.14 319.053 1101.87C319.363 1090.65 319.723 1079.44 320.162 1068.23C321.649 1030.63 324.447 993.021 327.653 955.522L328.741 942.865C330.19 926.034 331.69 909.185 333.813 892.441C333.912 891.641 334.013 890.841 334.123 890.04C332.983 889.471 331.923 888.681 331.082 887.801C327.713 884.263 325.67 878.975 323.754 874.418L323.313 873.381C321.233 868.521 319.313 863.601 318.323 858.381L318.229 857.901C317.777 855.678 316.886 851.738 319.243 850.661C320.473 850.101 321.252 850.501 321.653 851.731C321.704 851.891 321.662 852.071 321.573 852.211C322.543 853.7 324.063 855.091 325.023 856.471L328.309 861.169L329.933 863.53C331.993 866.561 334.193 869.461 336.463 872.321C338.252 859.761 340.443 847.251 343.853 835.021ZM478.593 1114.91C482.703 1111.69 489.393 1113.44 489.393 1119.38C489.393 1125.35 482.693 1127.07 478.593 1123.85L478.389 1123.7L478.193 1123.54C475.961 1121.8 475.886 1117.26 478.024 1115.36L478.193 1115.22C478.322 1115.11 478.453 1115.01 478.593 1114.91ZM299.903 1103.31C301.763 1103.31 303.493 1103.78 305.103 1104.72C305.803 1105.25 306.493 1105.79 307.193 1106.33C308.473 1107.61 309.353 1109.13 309.843 1110.88L310.214 1113.62C310.263 1115.04 309.973 1116.36 309.323 1117.59C308.903 1118.87 308.193 1119.98 307.193 1120.91C306.253 1121.92 305.153 1122.63 303.874 1123.04C302.746 1123.64 301.542 1123.94 300.256 1123.94L299.903 1123.93C298.034 1123.93 296.303 1123.46 294.693 1122.52C293.993 1121.99 293.303 1121.45 292.603 1120.91C291.333 1119.63 290.443 1118.11 289.954 1116.36C289.833 1115.45 289.714 1114.53 289.583 1113.62C289.534 1112.2 289.833 1110.88 290.473 1109.65C290.893 1108.37 291.603 1107.26 292.603 1106.33C293.544 1105.32 294.643 1104.61 295.923 1104.2C297.05 1103.61 298.262 1103.3 299.55 1103.3L299.903 1103.31ZM362.153 1074.58C364.242 1074.56 366.363 1075.15 368.073 1076.36C369.733 1077.54 370.992 1078.81 371.803 1080.72C372.023 1081.24 372.242 1081.75 372.433 1082.27C373.293 1084.56 373.453 1086.86 372.263 1089.1C371.113 1091.27 368.633 1092.22 366.412 1092.87C364.533 1093.43 362.403 1093.52 360.533 1092.85C359.603 1092.52 358.693 1092.17 357.853 1091.66C356.283 1090.69 355.433 1089.54 354.383 1088.12C353.563 1086.72 353.153 1085.2 353.153 1083.58C353.153 1081.95 353.563 1080.44 354.383 1079.03C355.992 1076.28 358.973 1074.6 362.153 1074.58ZM256.153 1076.51C258.794 1076.51 261.113 1077.73 262.704 1079.79C264.313 1081.88 264.903 1084.48 264.193 1087.07C263.443 1089.81 261.174 1092.21 258.363 1092.9C256.284 1093.41 254.583 1093.39 252.513 1093.04C250.763 1092.74 249.424 1091.7 248.083 1090.62C246.553 1089.37 246.083 1087.09 246.333 1085.25C246.573 1083.41 247.424 1082.21 248.714 1081.12L248.723 1081.09L248.243 1081.46C248.424 1081.3 248.603 1081.13 248.784 1080.96C248.843 1080.86 248.893 1080.75 248.943 1080.64C249.683 1079.38 250.683 1078.39 251.933 1077.65C253.243 1076.89 254.643 1076.51 256.153 1076.51ZM291.082 990.731C292.463 990.421 293.843 990.481 295.213 990.911C296.043 991.261 296.863 991.611 297.683 991.95L299.783 993.572C300.173 993.901 300.363 994.261 300.723 994.731L301.173 995.32C301.824 996.19 301.839 996.375 302.553 998.231C303.033 1000.01 303.033 1001.79 302.553 1003.57C302.322 1004.43 301.973 1005.24 301.523 1005.99C301.112 1006.71 300.62 1007.34 300.066 1007.92L299.783 1008.21C298.843 1009.22 297.733 1009.93 296.453 1010.35C295.643 1010.82 294.773 1011.05 293.843 1011.05C292.463 1011.36 291.082 1011.3 289.713 1010.87C288.883 1010.52 288.063 1010.17 287.242 1009.83L285.143 1008.21L283.523 1006.11L283.007 1004.88L282.483 1003.64L282.113 1000.89C282.063 999.461 282.353 998.141 283.002 996.901C283.252 996.03 283.693 995.261 284.332 994.62C284.793 993.841 285.412 993.221 286.193 992.761C286.832 992.12 287.603 991.681 288.473 991.431C289.283 990.961 290.153 990.731 291.082 990.731ZM939.502 976.2C940.593 976.161 941.613 976.39 942.553 976.89C942.883 977.001 943.204 977.14 943.513 977.301C944.723 978.01 945.683 978.97 946.393 980.171C946.973 981.091 947.293 982.081 947.343 983.15C947.561 984.115 947.541 985.086 947.279 986.052L947.193 986.341C946.973 987.131 946.643 987.86 946.204 988.53C946.162 988.61 946.113 988.69 946.053 988.76C945.383 989.821 944.493 990.69 943.393 991.341C942.173 992.04 940.863 992.4 939.443 992.411C936.613 992.411 934.173 990.881 932.683 988.53C932.473 988.2 932.353 987.78 932.204 987.44C932.073 987.12 931.863 986.711 931.752 986.341C931.373 984.921 931.373 983.501 931.752 982.081C932.002 981.04 932.473 980.131 933.183 979.36C933.752 978.491 934.502 977.801 935.433 977.301C936.587 976.628 937.827 976.269 939.143 976.209L939.502 976.2ZM385.983 966.251C387.367 965.873 388.744 965.844 390.12 966.164L390.464 966.251C391.563 966.511 392.514 967.011 393.333 967.751C394.243 968.351 394.974 969.141 395.503 970.12C396.264 971.431 396.644 972.851 396.653 974.37C396.644 975.891 396.264 977.311 395.503 978.62C394.753 979.891 393.743 980.891 392.474 981.641L391.374 982.171C390.454 982.751 389.474 983.061 388.413 983.11C387.704 983.301 386.993 983.301 386.294 983.11C385.573 983.11 384.903 982.931 384.284 982.571C383.604 982.381 383.023 982.04 382.523 981.54C381.653 980.98 380.974 980.241 380.474 979.311L379.663 977.4L379.384 975.28L379.663 973.171L380.104 972.131C380.503 970.7 381.224 969.461 382.273 968.411C383.323 967.37 384.563 966.65 385.983 966.251ZM881.903 949.381C883.362 948.921 884.813 948.86 886.263 949.181C887.242 949.181 888.162 949.431 889.013 949.931C889.943 950.19 890.742 950.65 891.423 951.331C892.612 952.1 893.543 953.12 894.233 954.39L895.332 957.001C895.992 958.69 895.752 961.181 895.353 962.881C895.023 964.28 894.383 965.501 893.433 966.54C892.953 967.35 892.313 967.991 891.502 968.471C890.577 969.314 889.509 969.913 888.297 970.269L887.963 970.36L887.843 970.39C887.822 970.4 887.803 970.4 887.783 970.4C887.773 970.411 887.752 970.411 887.742 970.411C887.263 970.53 886.773 970.6 886.263 970.62C884.813 970.94 883.362 970.881 881.903 970.421C881.043 970.06 880.173 969.69 879.303 969.321C878.563 968.761 877.832 968.19 877.093 967.62C876.523 966.881 875.953 966.14 875.383 965.411C874.582 964.161 874.153 962.801 874.093 961.35C873.832 960.381 873.832 959.421 874.093 958.45C874.093 957.461 874.343 956.551 874.832 955.7C875.273 954.341 876.023 953.171 877.093 952.181C877.832 951.61 878.563 951.04 879.303 950.48C880.173 950.11 881.043 949.741 881.903 949.381ZM244.103 913.581C245.612 913.171 247.123 913.171 248.633 913.581L250.662 914.431C251.662 914.971 252.453 915.7 253.053 916.631C253.813 917.45 254.322 918.421 254.582 919.531C255.173 921.051 255.103 923.461 254.633 925.011C254.103 926.771 253.283 928.171 252.013 929.491C249.903 931.671 246.662 932.301 243.793 931.641C243.002 931.461 242.252 931.111 241.572 930.681C239.403 929.341 237.943 927.001 237.953 924.411C237.953 924.131 237.973 923.851 238.013 923.572C237.873 923.001 237.822 922.411 237.843 921.79L238.143 919.531L238.162 919.471C238.563 918.04 239.283 916.801 240.332 915.751C241.303 914.791 242.434 914.095 243.727 913.679L244.053 913.581H244.103ZM998.693 689.032C995.961 666.635 985.69 642.539 954.363 655.691L952.036 656.563C944.285 659.497 935.252 663.353 930.534 670.131C927.284 674.801 928.383 683.851 927.934 689.301C925.891 707.021 926.987 724.716 929.115 742.361C931.862 783.72 923.166 826.572 905.853 864.161C923.18 892.196 946.369 918.345 978.002 930.03C979.34 898.155 985.581 866.865 992.223 835.761L992.485 834.405C995.141 820.379 996.47 805.985 1005.68 794.32C1024.42 773.977 1050.19 785.491 1062.52 752.811C1059.93 751.501 1061.36 747.021 1064.48 747.882C1075.3 749.801 1077.06 729.752 1069.65 724.921C1061.94 720.218 1069.71 711.542 1066.42 705.28C1064.59 702.581 1060.64 702.491 1058.85 699.38C1054.11 687.931 1077.86 680.594 1049.93 667.687C1044.21 665.654 1037.82 666.915 1032.05 666.892C1023.57 667.684 1016.83 673.66 1009.07 675.54C1017.52 697.409 996.208 718.468 976.973 701.001C966.506 710.894 954.801 733.445 980.244 722.932C992.697 714.621 1003.42 703.878 1017.87 698.76L1018.18 698.665C1023.55 696.906 1047.03 685.498 1045.86 695.372C1037.07 703.861 1022.56 703.761 1012.37 710.652C998.251 717.183 989.22 733.009 972.313 732.79C968.415 756.457 995.272 742.057 1005.27 735.53L1008.05 734.026C1022.15 726.405 1036.47 719.345 1052.92 719.251C1057.46 719.221 1057.44 726.221 1052.92 726.281C1031.48 726.415 1014.03 739.816 996.073 749.78C994.305 763.595 1014.54 757.547 1022.21 755.509C1030.26 754.378 1043.19 745.672 1050.23 750.271C1052.99 757.35 1040.86 756.823 1036.64 758.971C1055.92 768.227 1039.03 774.056 1033.86 759.831L1032.35 760.347C1019.44 764.683 988.152 773.61 991.874 751.751C987.151 753.841 981.392 755.091 976.173 753.931C963.158 773.181 942.397 765.732 972.573 752.611C965.773 749.448 963.502 737.236 970.034 732.691C946.281 731.241 963.916 706.32 973.747 698.015C972.819 697.077 971.92 696.12 971.082 695.151C965.413 697.851 959.454 699.491 953.082 700.071C946.983 700.62 945.624 690.241 951.643 689.391C958.093 688.481 964.034 686.761 969.713 683.52C978.321 679.803 981.259 695.775 989.874 696.341C994.573 697.271 997.752 693.151 998.693 689.032ZM798.714 895.121C800.794 895.121 802.643 895.992 804.153 897.371C805.663 898.751 806.313 900.822 806.403 902.801C806.443 903.861 806.223 904.851 805.743 905.771C805.433 906.721 804.903 907.541 804.153 908.242C802.753 909.631 800.683 910.492 798.714 910.492C796.634 910.492 794.784 909.621 793.273 908.242C791.764 906.851 791.113 904.791 791.023 902.801C790.983 901.751 791.204 900.761 791.683 899.841C791.962 898.986 792.419 898.228 793.054 897.582L793.273 897.371C794.674 895.971 796.743 895.121 798.714 895.121ZM861.74 847.695L862.073 847.7C863.833 847.711 865.464 848.15 866.983 849.03C867.643 849.54 868.303 850.04 868.954 850.551C870.163 851.77 870.993 853.2 871.454 854.851C871.924 856.571 871.924 858.301 871.454 860.02C871.294 861.011 870.924 861.971 870.344 862.801C869.483 864.23 868.344 865.381 866.903 866.23C865.413 867.101 863.803 867.53 862.073 867.54C860.344 867.53 858.733 867.101 857.243 866.23C855.803 865.381 854.663 864.23 853.813 862.801C853.223 861.971 852.853 861.011 852.693 860.02C852.223 858.301 852.223 856.571 852.693 854.851C853.12 853.318 853.866 851.976 854.939 850.816L855.193 850.551C856.073 849.601 857.113 848.931 858.323 848.54C859.386 847.982 860.525 847.699 861.74 847.695ZM380.742 848.23C381.483 848.03 382.213 848.03 382.953 848.23C384.053 848.28 385.082 848.61 386.033 849.211C386.593 849.65 387.153 850.081 387.713 850.511L388.202 851.097C389.245 852.368 389.272 852.585 390.072 854.521C390.403 855.601 390.453 856.681 390.213 857.761C390.213 858.491 390.023 859.171 389.662 859.801C389.463 860.491 389.123 861.091 388.613 861.591C388.252 862.2 387.773 862.69 387.162 863.051C386.383 863.761 385.463 864.251 384.403 864.501L382.252 864.79C381.973 864.751 381.683 864.711 381.403 864.681C381.066 864.671 380.738 864.633 380.417 864.571L380.092 864.5L379.797 864.421C379.405 864.307 379.024 864.155 378.653 863.961C377.953 863.761 377.343 863.411 376.822 862.891C375.923 862.311 375.203 861.53 374.683 860.561L374.543 860.241C374.353 859.9 374.193 859.551 374.072 859.171C373.733 858.571 373.563 857.931 373.553 857.241C373.354 856.323 373.368 855.413 373.606 854.503L373.693 854.2L374.463 852.37C374.863 851.751 375.283 851.12 375.822 850.61C376.147 850.322 376.941 849.703 377.388 849.392L377.662 849.211C378.613 848.61 379.643 848.28 380.742 848.23ZM273.113 830.521C277.162 834.572 275.373 842.011 269.704 843.451L269.053 843.611C263.573 845.001 258.633 840.051 260.023 834.572L260.183 833.931C261.623 828.261 269.063 826.471 273.113 830.521ZM946.553 787.681C946.513 787.121 947.233 786.922 947.593 787.252C952.413 791.572 955.483 796.752 961.333 800.101C967.214 803.462 973.273 803.191 979.403 805.361C981.483 806.101 981.493 808.882 979.403 809.611C967.803 813.662 947.433 799.931 946.553 787.681ZM401.503 786.801C402.794 786.401 404.094 786.341 405.384 786.631C406.264 786.631 407.083 786.851 407.833 787.29C408.663 787.521 409.374 787.941 409.983 788.54C410.714 788.971 411.294 789.561 411.733 790.29C412.594 791.231 413.174 792.331 413.473 793.591L413.813 796.181L413.473 798.771C413.143 799.54 412.813 800.321 412.493 801.091L411.599 802.302C410.875 803.267 410.759 803.278 409.003 804.581C407.884 805.29 406.674 805.681 405.384 805.731C404.523 805.971 403.663 805.971 402.794 805.731C401.924 805.731 401.103 805.511 400.344 805.071C399.523 804.841 398.804 804.421 398.193 803.821C397.134 803.131 396.304 802.221 395.693 801.091C395.363 800.321 395.034 799.54 394.714 798.771L394.363 796.181L394.714 793.591L394.733 793.511C395.193 791.891 396.014 790.481 397.193 789.29L399.134 787.79C399.893 787.301 400.683 787.051 401.503 786.801ZM868.313 788.741C871.083 787.98 874.123 788.78 876.152 790.811C878.183 792.841 878.984 795.87 878.224 798.641C877.474 801.341 875.303 803.53 872.594 804.261C871.784 804.48 870.964 804.601 870.133 804.561C868.742 804.551 867.443 804.2 866.234 803.501L864.673 802.29C863.912 801.591 863.383 800.761 863.073 799.801C862.583 798.881 862.362 797.891 862.402 796.821L862.393 796.631C862.362 796.251 862.412 795.87 862.534 795.501C862.534 795.11 862.594 794.73 862.693 794.36C863.423 791.661 865.623 789.48 868.313 788.741ZM271.153 761.662C272.043 761.631 272.873 761.811 273.643 762.221C274.453 762.481 275.143 762.921 275.723 763.561C276.363 764.141 276.803 764.841 277.063 765.641C277.473 766.412 277.653 767.242 277.623 768.131C277.623 769.301 277.323 770.391 276.743 771.391C276.403 771.832 276.063 772.271 275.723 772.701C274.923 773.511 273.973 774.061 272.873 774.371L272.233 774.591C271.293 774.931 270.373 774.951 269.393 774.822C268.363 774.681 267.412 774.401 266.573 773.761C265.752 773.281 265.103 772.631 264.623 771.811L264.073 770.511C263.953 770.072 263.903 769.412 263.873 768.951C263.873 768.881 263.873 768.822 263.863 768.751C263.863 768.361 263.983 767.412 264.082 767.021C264.303 766.201 264.752 765.421 265.263 764.761C265.703 764.072 266.303 763.531 267.043 763.131L267.109 763.081L267.183 763.031C267.412 762.871 267.653 762.711 267.893 762.54C268.893 761.961 269.983 761.662 271.153 761.662ZM787.544 754.561C789.144 754.561 790.634 754.971 792.014 755.771C792.063 755.79 792.113 755.811 792.153 755.832C793.474 756.611 794.523 757.662 795.304 758.981C796.104 760.351 796.503 761.832 796.503 763.412C796.503 765.001 796.104 766.471 795.304 767.841C794.523 769.162 793.474 770.211 792.153 770.992C792.113 771.021 792.063 771.04 792.014 771.061C790.634 771.861 789.144 772.261 787.544 772.271C785.954 772.261 784.464 771.861 783.083 771.061C780.384 769.481 778.693 766.531 778.693 763.412C778.693 760.29 780.384 757.341 783.083 755.771C784.464 754.971 785.954 754.561 787.544 754.561ZM372.261 742.997L372.534 742.992C373.594 742.951 374.583 743.171 375.493 743.662C376.443 743.971 377.273 744.502 377.974 745.252L379.434 746.471L379.857 746.814C379.927 746.872 379.996 746.931 380.063 746.992C381.044 747.981 381.714 749.141 382.094 750.481C382.214 751.252 382.313 752.011 382.394 752.781C382.613 754.781 381.434 756.832 380.134 758.252C379.434 759.002 378.603 759.531 377.644 759.851C376.724 760.332 375.724 760.551 374.663 760.511C372.493 760.322 370.434 759.861 368.874 758.181C368.693 757.981 368.523 757.771 368.344 757.561L367.094 756.121C366.144 755.162 365.483 754.031 365.124 752.731C365.023 752.041 364.934 751.361 364.844 750.681C364.753 748.631 365.753 746.711 367.094 745.252C368.332 743.899 370.432 743.073 372.261 742.997ZM321.784 721.941C332.183 721.941 332.163 738.072 321.784 738.072C311.393 738.072 311.413 721.941 321.784 721.941ZM844.665 699.325L844.993 699.331C846.714 699.341 848.323 699.771 849.814 700.641L851.753 702.131C852.934 703.331 853.753 704.731 854.214 706.351C854.323 707.2 854.434 708.051 854.554 708.891C854.604 710.211 854.323 711.441 853.724 712.581C853.344 713.761 852.684 714.79 851.753 715.661C850.884 716.591 849.863 717.251 848.674 717.631C847.534 718.231 846.304 718.511 844.993 718.461C843.264 718.45 841.653 718.021 840.163 717.151C839.514 716.651 838.874 716.151 838.224 715.661C837.134 714.553 836.352 713.275 835.884 711.811L835.774 711.441L835.424 708.891C835.374 707.581 835.653 706.351 836.253 705.211C836.634 704.021 837.294 703.001 838.224 702.131C839.094 701.2 840.124 700.54 841.304 700.161C842.348 699.611 843.469 699.329 844.665 699.325ZM797.823 669.131C798.753 669.1 799.613 669.29 800.424 669.711C801.253 669.98 801.973 670.45 802.583 671.1C803.874 672.131 804.663 674.19 804.663 675.86C804.663 677.53 803.874 679.591 802.583 680.62C801.743 681.45 800.753 682.03 799.613 682.35L797.823 682.591C796.083 682.671 794.313 681.761 793.073 680.62C792.823 680.391 792.583 680.161 792.333 679.94C791.204 678.9 790.714 677.35 790.643 675.86C790.613 675.071 790.784 674.331 791.143 673.641C791.374 672.921 791.773 672.31 792.333 671.78C792.583 671.56 792.823 671.331 793.073 671.1C794.424 669.85 796.003 669.221 797.823 669.131ZM1094.6 615.341C1101.17 607.337 1097.35 601.64 1087.47 603.62C1070.46 605.921 1054.45 616.671 1039.47 624.38C1023.12 633.016 1006.27 640.139 989.592 648.254C996.474 652.478 1001.59 659.093 1005.5 666.641C1013.31 660.714 1023.28 657.88 1033.02 657.511C1050.69 640.589 1079.95 636.714 1094.6 615.341ZM318.284 641.912C320.066 641.92 321.735 642.339 323.3 643.175L323.633 643.361L325.773 645.021C326.813 645.981 327.543 647.12 327.973 648.431C328.633 649.691 328.933 651.061 328.883 652.521C328.933 653.981 328.633 655.341 327.973 656.601C327.543 657.921 326.813 659.051 325.773 660.011C325.183 660.781 324.423 661.381 323.513 661.822C322.662 662.171 321.823 662.531 320.973 662.891C320.023 663.191 318.923 663.231 317.893 663.281C316.023 663.271 314.284 662.801 312.662 661.861L310.563 660.242C309.553 659.301 308.832 658.191 308.412 656.901C307.817 655.765 307.516 654.552 307.516 653.256L307.523 652.901C307.523 652.822 307.523 652.731 307.534 652.641C307.653 651.701 307.784 650.761 307.912 649.822C308.243 648.441 308.873 647.231 309.813 646.211C310.053 645.731 310.373 645.341 310.784 645.021C312.103 643.701 313.662 642.801 315.463 642.29C316.403 642.171 317.343 642.04 318.284 641.912ZM782.583 615.421C783.933 615.421 785.183 615.761 786.344 616.431C786.853 616.822 787.353 617.211 787.853 617.601C788.784 618.531 789.424 619.631 789.773 620.891L790.044 622.87C790.073 623.901 789.863 624.851 789.393 625.742C789.094 626.661 788.583 627.461 787.853 628.141C787.183 628.87 786.384 629.381 785.454 629.681C784.573 630.151 783.613 630.361 782.583 630.322C781.243 630.322 779.983 629.981 778.823 629.301C778.323 628.921 777.813 628.531 777.313 628.141C776.469 627.288 775.861 626.293 775.496 625.163L775.403 624.851L775.134 622.87C775.094 621.841 775.304 620.891 775.773 620.001C776.073 619.072 776.594 618.271 777.313 617.601C777.993 616.87 778.794 616.361 779.714 616.061C780.514 615.638 781.371 615.425 782.279 615.416L782.583 615.421ZM376.734 604.585L377.083 604.591C379.073 604.601 380.923 605.101 382.643 606.101C383.383 606.672 384.124 607.242 384.863 607.822C386.233 609.191 387.173 610.811 387.704 612.681L388.093 615.601C388.153 617.121 387.833 618.531 387.143 619.841C386.704 621.212 385.943 622.391 384.863 623.391C383.874 624.462 382.693 625.221 381.323 625.662C380.013 626.351 378.603 626.672 377.083 626.611C375.093 626.611 373.243 626.111 371.523 625.111C370.784 624.541 370.044 623.962 369.294 623.391C367.933 622.011 366.993 620.391 366.463 618.531L366.073 615.601C366.013 614.091 366.333 612.672 367.023 611.361C367.463 610.002 368.223 608.811 369.294 607.822C370.294 606.742 371.473 605.981 372.843 605.541C374.052 604.904 375.347 604.59 376.734 604.585ZM747.014 577.091C747.924 576.85 748.833 576.85 749.743 577.091C751.103 577.15 752.374 577.56 753.554 578.31L755.624 579.911C755.653 579.94 755.684 579.971 755.714 580.011C756.964 581.27 757.833 582.761 758.313 584.471L758.674 587.161C758.724 588.551 758.434 589.85 757.804 591.051C757.428 592.205 756.807 593.209 755.953 594.077L755.624 594.4C754.693 595.4 753.603 596.11 752.333 596.52C751.534 596.991 750.663 597.221 749.743 597.221C748.384 597.53 747.014 597.471 745.653 597.04C744.844 596.69 744.023 596.35 743.204 596.011L742.943 595.86C739.853 594.171 737.943 590.631 737.943 587.161C737.943 583.69 739.853 580.14 742.943 578.45C743.034 578.411 743.113 578.36 743.204 578.31C744.384 577.56 745.653 577.15 747.014 577.091Z" fill="#262626"/>
<path fill-rule="evenodd" clip-rule="evenodd" d="M789.967 194.624C770.303 75.447 620.161 53.96 522.324 79.044C520.521 56.12 506.109 35.864 488.125 22.54C411.731 -32.549 321.288 60.981 339.394 141.589C342.643 166.008 362.121 193.873 389.375 189.694C355.118 254.661 341.732 385.664 417.209 426.16C424.491 431.353 425.699 441.9 431.303 448.663C440.401 459.57 479.27 473.463 500.297 462.329C506.904 468.413 514.527 474.333 523.439 476.438C569.48 513.37 636.765 521.703 692.828 506.464C727.369 500.59 763.176 484.976 780.946 453.075C796.003 428.796 789.065 400.349 782.16 374.652C779.178 360.516 777.236 346.267 776.04 331.898C778.489 329.033 778.626 325.055 779.237 321.432C781.888 308.591 787.682 296.674 790.58 283.87C797.063 254.804 795.937 223.75 789.967 194.624" fill="white"/>
<path fill-rule="evenodd" clip-rule="evenodd" d="M363.048 65.4736C380.034 33.0592 413.331 14.7707 446.631 17.2789C480.702 19.8451 506.776 43.3836 512.813 81.3909L512.989 82.547L513.352 85.0142L513.022 85.1269L513.181 85.4071L513.467 85.886C513.805 86.4376 514.22 87.0658 514.787 87.8858L515.545 88.9692L518.094 92.5547L518.275 92.8119L518.818 93.5959L519.913 93.2083C573.296 74.5279 632.757 74.7202 685.908 94.5831L687.517 95.191L688.999 95.7639L689.835 95.982C722.422 104.618 748.462 125.386 766.287 155.121L766.825 156.025L767.368 156.953C783.639 184.956 791.982 219.57 791.396 254.322L791.375 255.386L791.367 255.556L791.277 256.604C790.503 264.944 788.408 272.398 784.075 283.765L783.521 285.206L782.664 287.406L779.992 294.187L779.338 295.874L771.674 316.038L773.094 295.801C773.252 293.55 773.34 291.574 773.415 288.557L773.428 288.013L773.601 279.449L773.651 277.536C773.678 276.646 773.707 275.843 773.741 275.059L773.796 273.891L773.899 272.075L773.923 271.697L773.874 271.289C772.242 258.427 766.351 247.444 756.21 237.04L755.682 236.502L755.146 235.966L754.506 235.334C747.034 228.012 739.48 222.413 723.832 212.14L723.157 211.697L714.064 205.768L710.659 203.532C703.157 198.579 698.584 195.371 693.749 191.63L692.707 190.82L691.892 190.178C683.521 183.538 676.982 177.013 671.961 169.974L671.495 169.313L670.505 167.892L671.212 166.376L671.201 166.396L671.2 166.39L671.234 166.228L671.282 165.957L671.33 165.629C671.419 164.978 671.495 164.128 671.549 163.168C671.569 162.821 671.585 162.466 671.598 162.106L671.615 161.564L671.623 161.096L671.436 161.648C661.743 189.686 638.772 213.08 606.392 230.344L605.408 230.865L604.296 231.446C572.381 247.997 533.343 257.499 499.496 257.768L498.406 257.773L497.327 257.776L496.496 257.089C493.39 254.524 487.674 257.717 488.714 262.285C498.333 304.545 500.351 348.285 494.476 390.434L494.268 391.903L494.245 392.042L494.022 393.234C493.827 394.297 493.641 395.386 493.44 396.642L493.123 398.667L491.898 406.872L491.342 410.387L491.101 411.812C489.033 423.775 486.412 431.914 481.65 438.933L481.194 439.594L480.726 440.043L480.268 440.503C479.33 441.471 478.74 442.255 478.452 442.803L478.391 442.925L478.356 443L478.438 443.033C479.953 443.577 483.051 443.466 485.632 442.757L485.951 442.665L486.253 442.571L488.343 441.891L489.801 443.944L490.235 444.549C491.035 445.657 491.869 446.774 492.913 448.138L494.143 449.736L496.985 453.395L494.377 455.201C485.574 461.295 473.268 460.084 460.192 454.37L459.682 454.145L459.497 454.055C453.262 450.748 449.179 446.752 442.454 438.235L441.666 437.232L438.672 433.385L437.532 431.944C436.736 430.948 436.055 430.121 435.373 429.324L435.145 429.059L434.348 428.147L434.173 427.794C430.882 421.156 426.176 416.741 417.94 411.991L416.778 411.332L416.034 410.821C395.134 396.299 382.798 373.392 377.611 343.683C373.556 320.461 373.975 294.331 377.69 264.988L377.869 263.588L378.061 262.13C381.276 237.434 388.629 214.376 399.776 193.384L400.356 192.3L400.879 191.335L398.263 189.256L397.19 188.419C396.302 187.736 395.654 187.265 395.066 186.878L394.75 186.674L394.457 186.493L394.378 186.64L392.383 186.426C383.958 185.524 375.651 181.877 368.888 176.255L368.331 175.784L367.79 175.24C354.719 161.921 348.301 143.456 348.295 122.37C348.29 103.732 353.393 83.8972 362.12 67.2098L362.552 66.3917L363.048 65.4736Z" fill="white"/>
<path fill-rule="evenodd" clip-rule="evenodd" d="M788.392 255.319C787.257 269.689 781.178 282.619 776.09 296.011C776.646 288.087 776.385 279.841 776.938 271.613C771.021 220.09 701.102 206.554 673.959 167.595C674.987 165.395 675.357 145.724 671.31 151.256C655.61 220.101 562.296 254.64 498.409 254.773C493.577 250.783 483.995 254.998 485.805 262.952C495.359 304.923 497.45 348.828 491.315 391.475C488.424 406.534 487.936 424.654 478.92 437.63C469.351 446.751 480.855 447.483 487.187 445.424C488.952 447.911 490.815 450.326 492.685 452.732C483.591 459.028 470.321 455.594 460.907 451.403C450.437 445.849 444.451 435.086 436.864 426.459C432.722 418.104 426.439 413.302 418.362 408.777C373.428 378.173 374.589 311.039 381.039 262.518C399.836 118.132 559.754 48.4653 688.093 98.6253C757.404 116.386 789.877 188.198 788.392 255.319M370.371 173.576C342.962 146.222 348.479 98.4023 365.709 66.8683C400.234 0.98131 498.295 3.12231 510.038 82.9843C460.03 100.151 417.834 136.962 392.711 183.443C384.531 182.567 376.624 178.916 370.371 173.576M789.967 194.646C770.303 75.4693 620.162 53.9823 522.324 79.0673C520.521 56.1423 506.11 35.8863 488.125 22.5613C411.73 -32.5267 321.288 61.0033 339.394 141.611C342.643 166.03 362.121 193.895 389.375 189.716C355.118 254.683 341.732 385.686 417.209 426.182C424.49 431.376 425.699 441.923 431.303 448.684C440.401 459.592 479.27 473.486 500.297 462.351C505.297 468.498 533.674 487.192 531.605 468.867C529.517 463.93 523.067 462.642 518.772 460.202C509.745 455.208 501.903 448.17 495.741 439.903C515.095 385.215 513.62 324.322 502.778 268.012C567.571 264.746 643.812 236.286 672.39 173.791C691.71 219.271 751.621 225.124 766.755 275.973C767.668 302.68 761.953 328.991 766.097 355.711C767.314 381.883 781.12 407.881 773.137 433.881C750.839 490.579 670.565 498.899 617.53 496.529C604.933 495.487 594.478 488.665 584.122 482.188C577.915 479.236 570.527 485.411 574.33 492.002C588.85 512.307 618.716 514.082 641.649 513.35C701.167 509.814 787.181 492.193 790.27 418.545C788.307 389.35 776.875 361.41 776.041 331.92C778.489 329.055 778.626 325.077 779.236 321.454C781.888 308.612 787.683 296.696 790.58 283.892C797.063 254.826 795.938 223.773 789.967 194.646" fill="#262626"/>
<path fill-rule="evenodd" clip-rule="evenodd" d="M692.042 426.159C684.675 428.293 676.768 428.483 669.259 426.28C662.448 424.281 655.455 419.882 650.442 414.062C645.989 408.892 643.105 402.608 643.219 395.901C643.232 395.135 643.506 394.496 643.927 393.999C644.38 393.465 645.014 393.098 645.693 392.939C646.391 392.775 647.129 392.833 647.757 393.119C648.326 393.377 648.813 393.816 649.118 394.457C649.888 395.469 650.655 396.466 651.426 397.435C657.62 405.084 663.618 410.8 672.932 412.85C677.985 413.962 683.032 413.469 687.663 411.771C692.62 409.954 697.102 406.76 700.613 402.672C702.2 400.824 704.074 400.07 705.906 400.057C707.982 400.043 710.034 401.007 711.579 402.549C713.099 404.065 714.116 406.124 714.209 408.279C714.29 410.17 713.673 412.145 712.032 413.907C706.627 419.711 699.621 423.964 692.042 426.159ZM691.814 330.367C699.366 334.957 710.872 345.66 702.748 357.04C693.186 367.073 679.419 355.569 672.634 350.366C666.343 346.334 659.275 356.705 665.112 361.413C714.136 397.708 734.031 331.567 695.634 324.97C691.406 324.244 689.836 328.947 691.814 330.367ZM621.175 310.17C618.748 308.618 615.893 308.085 612.729 309.525C610.256 310.649 605.919 314.398 602.901 319.325C600.836 322.697 599.372 326.652 599.677 330.771C599.748 331.728 599.394 332.433 598.837 332.955C598.396 333.367 597.76 333.669 597.013 333.764C596.379 333.844 595.669 333.772 595.091 333.592C593.993 333.249 593.412 332.537 593.193 331.955C591.08 326.343 591.99 320.08 594.358 314.43C597.555 306.805 603.359 300.418 607.162 298.359C613.67 294.834 621.347 294.671 627.864 298.262C633.411 301.319 636.88 306.254 640.33 311.283C641.064 312.353 641.791 313.414 642.544 314.457C644.051 316.546 644.201 318.619 643.618 320.396C642.971 322.364 641.322 324.026 639.259 324.895C637.353 325.699 635.141 325.812 633.183 324.986C631.529 324.289 630.012 322.929 629.051 320.622C627.434 316.736 624.739 312.45 621.175 310.17ZM744.441 318.814C742.779 319.681 741.478 319.942 739.634 319.389C738.615 319.083 737.607 318.496 736.818 317.707C736.036 316.925 735.472 315.953 735.252 314.874C734.713 312.212 733.256 309.719 731.181 308.095C729.406 306.706 727.167 305.97 724.683 306.385C722.002 306.833 719.449 308.552 717.69 310.579C717.102 311.257 716.641 312.027 716.178 312.792C715.311 314.223 714.469 315.553 713.274 316.603C712.821 317.003 712.138 317.28 711.477 317.28C711.208 317.28 710.935 317.236 710.676 317.155C708.008 314.478 707.495 312.446 707.581 310.432C707.671 308.319 708.504 306.18 709.85 304.184C713.008 299.502 719.003 295.663 723.048 294.793C728.589 293.603 734.091 295.032 738.503 298.127C743.042 301.311 746.405 306.254 747.454 311.825C747.706 313.167 747.599 314.615 747.088 315.871C746.589 317.098 745.719 318.149 744.441 318.814ZM633.394 260.253C630.069 263.492 626.134 263.994 622.153 264.44C619.941 264.691 618.175 264.892 616.437 265.285C611.661 266.363 606.939 267.987 602.632 270.325C598.129 272.77 593.222 275.718 589.692 279.495C588.853 280.394 588.062 281.337 587.269 282.283C586.547 283.144 585.851 283.974 585.117 284.774C584.275 285.693 583.475 286.656 582.679 287.617C582.187 288.427 582.09 288.627 581.99 288.834C581.841 289.146 581.668 289.495 581.47 289.87C581.198 290.382 580.881 290.944 580.548 291.453C579.994 292.383 579.697 292.639 579.44 292.753C579.014 292.943 578.61 293.037 578.218 292.986C577.851 292.939 577.504 292.762 577.162 292.473C575.455 291.031 574.952 288.664 575.004 286.151C575.082 282.339 576.488 278.117 577.785 275.522C580.799 269.492 584.979 263.224 590.006 258.724C595.742 253.587 602.018 249.698 609.226 247.018C613.705 245.352 618.891 243.823 623.771 244.016C627.284 244.155 630.637 245.2 633.407 247.807C635.107 249.408 635.924 251.685 635.924 253.96C635.924 256.28 635.076 258.615 633.394 260.253ZM751.203 289.918C750.992 290.264 750.699 290.503 750.373 290.646C750.032 290.797 749.651 290.84 749.285 290.779C748.921 290.717 748.575 290.552 748.3 290.3C748.037 290.058 747.837 289.737 747.747 289.345C745.54 279.649 741.253 272.436 732.104 267.784C727.604 265.495 722.429 264.041 717.53 262.882C716.106 262.545 714.602 262.327 713.087 262.106C708.339 261.413 703.557 260.619 700.462 256.781C698.597 254.469 697.814 251.513 698.256 248.809C698.673 246.263 700.161 243.929 702.865 242.53C709.598 239.049 717.964 242.465 724.763 245.374C725.267 245.59 725.762 245.802 726.246 246.007C732.895 248.813 738.959 252.517 743.944 257.815C747.899 262.018 751.563 268.231 753.039 274.623C754.267 279.941 753.978 285.369 751.203 289.918Z" fill="#262626"/>
</g>
</svg>
