<svg width="1116" height="1350" viewBox="0 0 1116 1350" fill="none" xmlns="http://www.w3.org/2000/svg">
<mask id="mask0" style="mask-type:alpha" maskUnits="userSpaceOnUse" x="0" y="0" width="1116" height="1350">
<rect width="1116" height="1350" fill="#C4C4C4"/>
</mask>
<g mask="url(#mask0)">
<path fill-rule="evenodd" clip-rule="evenodd" d="M847.107 652.567C838.39 618.767 830.374 604.436 814.891 592.688C800.408 581.7 779.267 572.471 748.419 565.729C716.289 560.113 715.379 543.417 707.323 516.583C704.972 508.516 693.326 506.369 688.3 512.184C687.591 511.419 686.852 510.719 686.087 510.086C686.772 506.239 681.169 495.211 681.356 491.531C683.31 453.119 670.743 433.829 639.378 426.659C632.557 425.098 586.224 424.18 579.573 426.019C550.497 434.056 521.874 459.575 526.255 490.315C517.128 502.241 508.195 509.519 494.114 513.362C472.186 516.145 483.202 826.746 521.286 1012.83C537.626 1092.67 928.336 956.777 910.681 916.79C913.184 909.46 908.622 901.405 910.681 893.836C912.171 888.358 915.987 886.093 917.908 880.669C920.611 873.036 917.671 862.797 914.628 855.008C913.381 851.126 916.924 846.948 917.908 842.987C922.577 824.304 911.885 825.951 904.178 813.461C904.292 813.422 906.297 804.506 906.288 804.55C907.468 798.184 904.511 790.029 901.932 784.715C900.189 781.124 896.456 778.876 892.746 779.288C896.482 766.607 901.207 756.055 906.288 743.838C915.274 722.302 923.819 699.773 936.723 680.28C942.007 672.299 937.739 664.957 929.188 664.413C901.51 662.655 874.135 658.671 847.107 652.567Z" fill="white"/>
<path fill-rule="evenodd" clip-rule="evenodd" d="M803.899 655.178L740.72 762.087C740.72 762.087 755.708 763.583 761.774 766.496C767.839 769.41 795.689 804.81 795.689 804.81L800.114 824.304L789.629 840.02L793.718 849.888C793.718 849.888 796.636 843.203 803.899 838.013C811.163 832.823 827.182 824.304 827.182 824.304C827.182 824.304 821.859 821.456 821.859 818.113C821.859 814.77 817.17 800.508 827.182 795.121C837.194 789.733 888.933 777.125 888.933 777.125L941.368 666.534L803.899 655.178Z" fill="white"/>
<path fill-rule="evenodd" clip-rule="evenodd" d="M522.058 514.087L722.673 549.292L814.891 592.688L829.945 604.285L740.72 762.087L602.949 787.22L567.849 878.379L575.014 981.135L799.139 954.416L895.817 942.93L918.543 1034.67L914.438 1072.41L908.466 1091.54L668.796 1156.24C668.796 1156.24 546.753 1144.41 525.119 1144.41C503.485 1144.41 344.867 1160.16 344.867 1160.16L308.167 1156.24C308.167 1156.24 226.968 1070.67 214.374 1040.22C201.781 1009.76 174.547 824.638 174.547 824.638L177.546 796.193L247.7 615.677C247.7 615.677 257.068 607.171 268.878 592.688C280.689 578.206 522.058 514.087 522.058 514.087Z" fill="white"/>
<path fill-rule="evenodd" clip-rule="evenodd" d="M885.149 774.846C867.019 775.767 848.869 780.077 832.469 787.886C825.759 791.086 819.679 795.706 817.899 803.306C816.999 807.187 817.219 811.197 817.698 815.117C818.059 818.086 818.149 821.876 820.729 823.886C821.169 824.226 821.639 824.486 822.129 824.676C816.079 827.406 810.318 830.687 805.198 834.066C800.519 837.156 795.709 841.916 793.549 847.286C793.369 846.676 793.189 846.107 793.009 845.566C789.329 834.687 783.659 825.777 774.729 819.786C773.715 816.091 762.832 800.187 752.723 800.787C741.653 801.437 732.749 802.246 722.738 807.336C719.089 807.256 715.448 807.306 711.849 807.466C711.229 807.486 711.259 808.327 711.849 808.396C714.769 808.767 717.689 809.176 720.609 809.656C727.549 810.767 734.469 812.176 741.238 813.926C749.359 816.027 757.759 818.136 765.349 821.806C780.068 828.937 789.179 847.577 787.309 863.796C786.999 866.456 785.969 874.496 782.278 873.666C779.159 872.966 777.919 866.456 776.829 864.046C773.909 857.646 768.649 853.466 762.339 850.636C754.929 847.306 746.999 845.056 739.318 842.437C734.969 840.947 730.619 839.456 726.259 837.976C721.799 836.447 717.559 834.336 712.809 835.406C709.939 836.056 709.609 839.476 711.219 841.437C713.669 844.426 717.309 845.306 720.839 846.536C725.499 848.156 730.149 849.777 734.799 851.396C741.988 853.896 749.519 856.006 756.528 859.066L756.309 859.566C755.738 859.406 755.068 859.976 755.179 860.676C756.229 867.146 757.689 874.626 756.068 881.107C754.789 886.246 750.278 891.937 744.419 890.426C745.339 889.586 745.679 888.136 745.059 886.796C742.738 881.836 712.339 862.256 709.629 869.527C709.539 869.786 709.818 869.976 710.039 869.937C712.349 869.456 716.219 873.396 718.068 874.646C720.738 876.447 723.448 878.206 726.089 880.056C728.979 882.077 731.799 884.197 734.549 886.386C736.709 888.107 738.339 889.896 740.818 890.767C739.519 891.386 738.488 892.536 738.049 894.006C736.929 897.836 734.769 901.086 731.019 902.777C727.089 904.536 722.659 903.426 718.519 903.857C712.879 904.426 707.959 907.107 703.849 910.937C695.219 918.996 690.889 933.197 678.819 937.006C671.609 939.277 663.609 937.846 656.309 936.816C648.159 935.666 640.219 934.756 632.009 935.956C624.149 937.107 616.719 939.826 609.539 943.146C602.809 946.256 595.369 949.777 589.399 954.416C588.169 950.626 586.929 946.876 585.988 943.006C583.769 933.857 582.569 924.536 582.278 915.136C582.009 906.187 582.509 897.197 583.278 888.286C583.659 883.836 584.259 879.406 584.639 874.956C584.738 873.836 584.939 872.636 585.089 871.437C595.749 865.146 606.948 860.327 618.238 855.367C618.269 855.357 618.299 855.336 618.329 855.327C618.679 855.166 619.019 855.017 619.369 854.867C619.359 854.846 619.349 854.827 619.329 854.806C620.619 854.017 621.519 852.966 622.059 851.786C638.329 840.996 651.929 826.267 662.069 809.086C666.319 801.886 670.409 794.416 675.969 788.107C681.889 781.376 688.919 777.376 697.619 775.296C707.789 772.857 718.269 771.396 728.689 770.566C734.379 770.117 740.738 769.416 746.939 769.447C751.259 769.476 755.488 769.846 759.369 770.916C765.119 772.496 768.479 776.867 772.089 781.286C775.539 785.527 778.969 789.777 782.189 794.197C785.238 798.386 788.119 802.716 790.619 807.256C792.119 809.976 793.509 812.777 794.679 815.666C795.089 816.687 795.629 817.846 795.879 818.906C796.129 819.976 795.669 821.107 796.869 821.107C791.919 821.176 788.629 833.519 793.549 833.229C800.467 832.826 803.945 824.533 802.589 817.176C800.171 804.049 787.112 788.195 784.528 784.836C778.818 777.416 772.929 767.736 763.789 764.286C763.659 764.236 763.519 764.187 763.389 764.146C766.049 761.626 768.149 758.607 770.159 755.536C772.229 752.376 774.698 748.756 775.379 745.006C775.809 742.617 772.839 741.256 771.429 743.346C769.379 746.396 768.389 750.256 766.859 753.607C765.299 757.006 763.399 760.216 761.899 763.646C758.289 762.536 754.389 762.027 750.419 761.857C755.429 755.077 763.988 741.996 765.019 740.316C769.759 732.536 774.269 724.517 778.579 716.486C783.238 707.786 787.229 698.726 791.689 689.926C794.219 684.937 796.769 679.906 799.579 675.066C800.549 673.406 801.589 671.746 802.769 670.236C802.999 669.937 803.289 669.687 803.559 669.406C803.869 669.236 804.189 669.046 804.369 668.947C805.988 668.017 806.559 665.857 807.698 664.486C809.519 662.277 811.659 662.017 814.399 661.986C820.238 661.926 826.099 662.156 831.929 662.316C840.499 662.556 849.059 662.896 857.619 663.346C860.209 663.486 862.789 663.626 865.379 663.786C877.829 664.527 890.269 665.496 902.679 666.687C913.659 667.736 924.639 669.447 935.629 670.267C920.749 705.617 904.249 740.327 885.568 773.827C885.379 774.166 885.238 774.506 885.149 774.846ZM802.589 865.916C800.189 867.017 797.859 868.386 795.689 869.947C796.049 867.517 796.139 864.956 796.039 862.386C797.829 864.306 800.119 865.406 802.589 865.916ZM905.039 805.107C904.869 805.126 904.709 805.216 904.629 805.386C901.309 812.236 902.698 819.886 908.119 825.256C910.959 828.056 917.149 831.216 916.948 835.816C916.778 839.536 912.729 842.656 910.999 845.726C909.389 848.586 908.789 851.726 910.079 854.827C911.729 858.796 916.339 860.376 917.919 864.277C919.919 869.226 916.669 875.197 914.389 879.506C912.269 883.496 909.528 887.486 907.709 891.706C895.519 898.017 867.859 909.476 864.528 910.117C860.469 910.906 856.399 911.656 852.318 912.357C844.488 913.716 836.639 914.976 828.769 916.086C824.289 916.716 819.799 917.336 815.309 917.826C811.389 918.246 806.969 918.816 803.809 915.867C797.439 909.906 801.009 899.916 805.039 893.896C805.119 893.777 805.119 893.666 805.089 893.566C808.889 892.676 812.679 891.636 816.459 890.906C823.729 889.506 831.049 888.327 838.379 887.277C853.439 885.126 868.599 883.706 883.738 882.277C887.488 881.916 887.528 876.017 883.738 876.367C861.988 878.357 840.129 880.246 818.669 884.437C813.289 885.476 807.948 886.656 802.639 887.986C800.129 888.607 797.439 889.577 794.809 889.607C794.649 889.607 794.488 889.607 794.329 889.596C789.179 889.437 788.429 885.027 791.259 881.357C791.609 880.906 791.969 880.456 792.339 880.027C797.339 874.066 803.568 870.086 809.988 865.966C817.179 864.986 824.349 862.806 831.389 861.206C848.769 857.246 866.149 853.286 883.539 849.336C886.948 848.556 885.499 843.316 882.089 844.086C868.889 847.077 855.689 850.066 842.488 853.056L823.169 857.437C819.309 858.306 814.488 860.056 809.948 860.687C807.709 860.996 805.539 861.036 803.579 860.577C797.249 859.077 796.929 851.166 799.659 846.466C802.719 841.187 808.499 837.886 813.629 834.896C822.519 829.706 831.979 825.976 841.219 821.676C842.859 821.316 844.499 820.956 846.139 820.596C855.679 818.496 866.579 817.466 875.559 813.617C878.249 812.476 876.778 808.236 874.119 808.296C867.149 808.447 859.859 810.926 853.049 812.396C845.679 813.996 838.299 815.586 830.929 817.176C830.189 817.336 825.809 818.736 825.149 818.426C824.729 818.226 824.579 816.767 824.439 815.806C823.988 812.646 823.659 809.327 824.149 806.156C825.229 799.046 831.159 795.706 837.159 792.976C850.519 786.906 865.169 783.107 879.749 781.586C883.109 781.236 886.469 781.017 889.849 780.906C893.818 780.786 897.089 780.086 899.099 783.996C902.259 790.156 903.999 798.077 905.039 805.107ZM886.485 1028.45C883.574 1018.38 884.366 1007.63 882.372 997.364C881.343 992.066 879.938 986.81 878.404 981.638C877.166 977.46 875.101 973.016 874.867 968.656C874.853 968.365 875.196 968.197 875.432 968.331C879.539 970.683 882.693 975.768 885.035 979.758C887.839 984.533 889.98 989.533 891.707 994.79C895.149 1005.26 897.975 1017.9 893.536 1028.45C892.215 1031.59 887.575 1032.22 886.485 1028.45ZM665.055 985.924C663.118 981.146 670.861 979.087 672.769 983.798C674.966 989.22 677.484 994.503 679.681 999.925C681.616 1004.7 673.875 1006.76 671.967 1002.05C669.77 996.63 667.251 991.347 665.055 985.924ZM582.51 1081.34C581.22 1083.06 579.069 1083.99 577.037 1082.78C575.335 1081.76 574.296 1079.05 575.602 1077.31C579.415 1072.22 583.278 1067.2 587.747 1062.67C591.37 1059 597.024 1064.66 593.404 1068.33C589.413 1072.37 585.916 1076.8 582.51 1081.34ZM734.86 571.296C739.161 568.429 743.162 575.362 738.899 578.204C735.443 580.507 731.986 582.812 728.53 585.116C724.231 587.982 720.23 581.05 724.492 578.208C727.948 575.904 731.404 573.6 734.86 571.296ZM543.745 752.069C543.011 757.153 535.303 754.978 536.03 749.943C537.155 742.161 538.528 734.482 540.639 726.902C542.021 721.942 549.736 724.062 548.353 729.029C546.242 736.609 544.869 744.288 543.745 752.069ZM515.696 843.709C510.547 843.6 510.546 835.6 515.696 835.709C520.356 835.808 524.937 837.034 529.432 838.156C534.432 839.405 532.3 847.118 527.305 845.87C523.505 844.921 519.636 843.793 515.696 843.709ZM505.342 1028.31C503.573 1029.17 501.758 1029.94 499.97 1030.76C496.389 1032.4 492.81 1034.04 489.232 1035.68C481.778 1039.1 474.328 1042.54 466.885 1045.98C451.985 1052.88 436.97 1059.53 422.034 1066.35C406.803 1073.31 391.612 1080.36 376.44 1087.45C369.292 1090.79 362.09 1094 354.902 1097.25C348.756 1100.03 341.159 1104.89 334.412 1105.34C334.065 1105.37 333.949 1104.93 334.147 1104.7C336.696 1101.8 340.762 1100.12 344.112 1098.23C347.534 1096.31 351.02 1094.5 354.49 1092.66C361.724 1088.83 368.967 1085.02 376.271 1081.33C390.881 1073.93 405.519 1066.59 420.16 1059.26C435.092 1051.79 450.005 1044.26 465.068 1037.05C472.16 1033.65 479.259 1030.27 486.362 1026.89C490.21 1025.06 494.06 1023.24 497.91 1021.42C499.573 1020.63 501.219 1019.78 502.919 1019.08C505.178 1018.14 506.895 1018.33 509.225 1017.76C513.025 1016.82 514.67 1021.65 511.753 1023.75C509.351 1025.49 508.087 1026.97 505.342 1028.31ZM451.935 1110.34C451.114 1108.34 452.833 1105.92 454.729 1105.42C457 1104.82 458.821 1106.2 459.65 1108.21C461.843 1113.55 464.967 1118.44 468.988 1122.58C472.582 1126.27 466.928 1131.93 463.331 1128.23C458.292 1123.05 454.672 1117 451.935 1110.34ZM412.644 981.929C408.997 978.283 414.655 972.627 418.301 976.273L428.669 986.64C432.316 990.287 426.657 995.943 423.012 992.297L412.644 981.929ZM306.274 965.026C298.82 967.212 290.126 969.222 285.044 975.581C284.796 975.892 284.379 975.493 284.528 975.183C291.034 961.695 309.692 956.964 322.61 952.239C331.747 948.896 341.122 946.124 350.576 943.648C349.631 932.863 352.237 921.304 353.143 910.572C354.11 899.114 354.897 887.626 355.301 876.132C355.714 864.407 355.814 852.603 355.428 840.875C355.044 829.19 353.527 817.648 352.863 806.002C352.799 804.876 354.367 804.822 354.705 805.753C358.631 816.56 360.308 828.531 361.586 839.926C362.902 851.665 363.339 863.37 363.171 875.177C362.997 887.317 362.291 899.428 361.322 911.529C360.863 917.265 360.33 922.993 359.827 928.725C359.443 933.099 359.265 937.438 358.373 941.673C364.075 940.274 369.79 938.95 375.487 937.663C393.653 933.564 411.895 929.76 429.985 925.327C438.865 923.152 447.618 920.546 456.458 918.232C464.782 916.053 473.568 913.411 482.114 912.439C485.164 912.091 485.552 916.263 483.533 917.679C476.587 922.556 467.362 925.952 459.339 928.682C451.287 931.421 442.917 933.392 434.664 935.421C417.453 939.654 400.079 943.115 382.731 946.72C365.407 950.321 348.05 953.895 330.921 958.338C322.672 960.478 314.451 962.626 306.274 965.026ZM265.427 751.003C260.973 753.618 256.952 746.701 261.39 744.095C267.197 740.687 273.386 738.126 279.625 735.628C284.413 733.712 286.473 741.452 281.752 743.343C276.145 745.587 270.645 747.941 265.427 751.003ZM249.299 1048.22C244.833 1050.81 240.809 1043.89 245.262 1041.31C251.516 1037.69 258.365 1035.27 264.846 1032.09C269.457 1029.84 273.507 1036.74 268.883 1039C262.403 1042.17 255.553 1044.59 249.299 1048.22ZM242.045 879.505C246.363 883.607 252.126 885.538 257.56 887.693C262.298 889.57 260.22 897.304 255.433 895.407C248.663 892.722 241.767 890.271 236.388 885.161C232.646 881.607 238.313 875.96 242.045 879.505ZM289.816 650.38C294.563 652.242 292.484 659.976 287.689 658.095C282.371 656.009 276.879 654.421 271.561 652.335C266.815 650.473 268.893 642.74 273.688 644.62C279.006 646.706 284.498 648.294 289.816 650.38ZM374.089 559.372C379.133 558.522 381.281 566.232 376.216 567.087C369.932 568.148 363.744 569.389 357.784 571.695C352.971 573.557 350.906 565.819 355.657 563.981C361.618 561.675 367.806 560.433 374.089 559.372ZM401.934 780.955C397.309 778.681 401.367 771.785 405.971 774.048C410.823 776.433 415.85 778.277 421.144 779.404C426.185 780.478 424.038 788.189 419.017 787.119C413.059 785.849 407.39 783.638 401.934 780.955ZM428.233 656.14C433.213 654.776 435.319 662.495 430.36 663.855C421.635 666.245 412.652 667.488 403.863 669.615C398.854 670.827 396.735 663.111 401.736 661.901C410.525 659.773 419.509 658.532 428.233 656.14ZM539.799 616.972C544.863 617.909 542.705 625.618 537.673 624.687C532.316 623.696 526.887 623.68 521.456 623.677C516.3 623.675 516.309 615.675 521.456 615.677C527.626 615.68 533.717 615.847 539.799 616.972ZM903.659 658.767C890.589 657.517 877.499 656.517 864.389 655.767C863.778 655.736 863.179 655.697 862.568 655.666C862.499 655.527 862.409 655.396 862.318 655.256C858.039 648.976 854.889 642.697 852.159 635.596C849.549 628.836 847.019 621.867 842.999 615.767C838.414 608.817 832.224 603.379 825.44 598.666C821.325 601.433 817.506 604.673 814.012 608.107C810.335 611.72 804.677 606.064 808.355 602.45C811.46 599.398 814.774 596.579 818.277 594.032C814.232 591.574 810.105 589.264 806.079 586.966C790.988 578.357 775.539 570.396 759.769 563.117C752.439 559.726 745.019 556.716 737.549 553.666C733.528 552.027 729.559 549.916 725.539 548.017C725.829 545.176 724.979 541.996 722.799 540.126C721.189 538.756 719.939 538.246 718.019 537.277C717.589 537.126 717.329 537.036 717.209 536.986C717.299 537.006 717.559 537.086 717.988 537.226C719.009 537.697 719.089 537.556 718.229 536.816C718.179 535.197 714.988 531.777 714.259 530.107C711.719 524.376 710.929 518.316 707.179 513.096C702.009 505.906 693.329 503.187 685.238 505.626C684.399 496.976 684.179 487.947 680.919 480.226C680.829 480.017 680.539 479.926 680.409 480.156C677.009 485.947 676.719 492.396 676.459 499.076C676.209 505.346 676.448 511.756 677.269 517.986C676.749 518.386 676.219 518.767 675.669 519.136C673.089 520.836 670.309 522.146 667.389 523.117C661.829 524.956 655.999 525.756 650.169 526.036C635.119 526.756 619.609 525.236 604.809 522.656C589.839 520.046 566.889 516.126 553.569 508.636C544.778 503.697 536.669 497.666 528.448 491.826C531.429 482.226 532.189 471.906 529.189 463.796C528.829 462.826 527.309 462.646 527.019 463.796C525.139 471.536 524.589 479.316 522.089 486.966C522.049 487.076 522.009 487.197 521.969 487.306C521.189 486.777 520.409 486.256 519.629 485.736C517.829 484.546 515.379 485.437 514.299 487.136C497.028 514.346 469.679 515.906 440.959 520.767C409.528 526.086 377.939 531.826 347.719 542.236C318.819 552.197 291.199 566.697 269.319 588.357C264.366 593.261 259.734 598.486 255.362 603.941C259.592 604.474 263.787 605.304 267.928 606.605C272.831 608.145 270.724 615.866 265.801 614.319C260.479 612.647 255.098 611.82 249.662 611.408C234.795 631.746 223.203 654.807 213.179 677.506C193.952 721.027 181.437 767.375 175.678 814.562C178.84 812.667 182.059 810.862 185.358 809.183C189.942 806.852 193.985 813.756 189.396 816.091C184.3 818.683 179.35 821.54 174.554 824.638C172.459 845.293 171.647 866.081 172.139 886.836C173.309 936.316 179.989 987.246 195.099 1034.46C202.509 1057.63 212.329 1080.61 226.959 1100.19C233.579 1109.06 241.099 1117.06 249.959 1123.73C254.249 1126.97 258.789 1129.86 263.579 1132.3C269.749 1135.46 277.789 1136.5 283.109 1140.97C284.859 1142.44 286.209 1144.38 287.229 1146.57C286.639 1150.73 286.569 1154.9 287.709 1159.06C288.069 1160.36 289.049 1161.42 290.259 1161.93C290.279 1162.29 290.279 1162.64 290.279 1162.98C290.279 1163.14 290.519 1163.18 290.549 1163.02C290.599 1162.71 290.649 1162.4 290.699 1162.08C291.089 1162.21 291.499 1162.27 291.919 1162.27C307.109 1162.32 322.318 1161.95 337.528 1161.44C336.352 1157.83 335.078 1154.26 333.855 1150.66C332.194 1145.77 339.923 1143.68 341.569 1148.53C343 1152.75 344.496 1156.92 345.827 1161.15C362.124 1160.54 378.416 1159.81 394.679 1159.28C429.269 1158.13 463.849 1157.75 498.448 1157.02C552.179 1155.88 606.301 1153.55 660.115 1155.83C661.976 1151.88 664.059 1148.02 666.034 1144.12C668.364 1139.52 675.264 1143.58 672.942 1148.16C671.569 1150.87 670.147 1153.54 668.796 1156.24C679.695 1156.81 690.583 1157.56 701.448 1158.58C719.988 1160.32 738.349 1163.41 756.869 1165.33C775.698 1167.29 794.119 1166.94 812.799 1163.83C816.159 1163.27 818.139 1161.24 818.959 1158.72C818.988 1158.71 819.009 1158.69 819.028 1158.66C819.988 1157.54 820.889 1156.61 821.818 1155.8C822.929 1155.08 824.129 1154.47 825.539 1153.93C828.169 1152.93 830.909 1152.32 833.689 1151.91C836.749 1151.45 839.849 1151.41 842.909 1151.03C845.488 1150.7 848.009 1150.21 850.528 1149.61C855.059 1148.53 859.359 1147.12 863.639 1145.25C867.369 1143.62 870.738 1141.28 873.919 1138.73C880.499 1133.92 886.198 1127.78 891.179 1121.4C894.079 1117.67 896.809 1113.8 899.289 1109.77C903.609 1102.79 907.289 1095.54 911.009 1088.23C912.359 1086.06 913.591 1083.84 914.717 1081.58C907.447 1079.43 900.107 1077.69 892.4 1077.56C887.248 1077.48 887.249 1069.48 892.4 1069.56C901.239 1069.71 909.6 1071.77 917.907 1074.23C918.312 1073.16 918.7 1072.07 919.059 1070.98C920.049 1068.69 920.869 1066.34 921.549 1063.96C921.948 1062.88 922.349 1061.8 922.749 1060.72C923.649 1056.98 924.549 1053.23 925.459 1049.48C927.269 1043.48 928.698 1037.39 929.749 1031.22C930.629 1027.16 931.309 1023.07 931.769 1018.93C933.169 1008.9 934.309 998.886 934.389 988.746C934.269 982.496 933.869 976.256 933.189 970.046C932.899 965.826 932.409 961.626 931.749 957.456C930.889 951.256 930.039 945.117 928.609 938.996C927.539 934.857 926.469 930.716 925.399 926.576C922.729 917.947 919.579 909.486 915.948 901.216C915.749 900.697 914.738 899.556 914.129 899.546C913.669 899.536 913.028 899.956 913.238 900.517C913.259 900.566 913.278 900.626 913.299 900.676C913.089 900.206 912.889 899.726 912.679 899.256C912.499 898.816 911.799 897.937 911.259 897.947C911.229 897.947 911.198 897.947 911.159 897.956C911.299 897.857 911.429 897.726 911.559 897.577C915.149 893.327 917.479 887.736 920.049 882.816C922.179 878.756 924.189 874.476 924.769 869.886C925.278 865.857 924.589 861.886 922.059 858.626C919.179 854.916 913.759 853.176 916.769 847.816C920.189 841.716 925.219 836.426 920.209 829.496C917.659 825.966 913.619 824.027 910.619 820.956C907.169 817.406 905.528 812.656 905.619 807.806C905.829 807.926 906.109 807.867 906.209 807.566C909.109 798.806 907.009 789.187 904.039 780.656C902.419 776.027 898.988 774.756 894.999 774.527C912.278 740.777 928.448 706.486 942.859 671.406C943.339 670.256 943.809 669.107 944.278 667.956C944.979 666.236 943.499 663.947 941.789 663.566C929.329 660.836 916.349 659.966 903.659 658.767Z" fill="#262626"/>
<path fill-rule="evenodd" clip-rule="evenodd" d="M606.285 55.7062C650.962 55.7062 704.566 77.4107 709.124 77.8448L709.247 77.8514C711.645 77.8514 721.014 85.0047 737.355 99.3111L719.656 133.905L721.088 135.276C727.942 141.861 733.794 147.863 738.412 152.595C776.124 191.229 782.902 342.919 774.015 395.818C765.127 448.717 748.666 500.48 672.03 500.48C595.393 500.48 510.133 454.303 497 439.922C488.244 430.336 478.409 425.743 467.494 426.144C467.046 425.577 466.601 425.011 466.16 424.447L464.554 424.219C449.449 422.027 438.625 419.076 432.084 415.368C419.308 408.124 405.266 370.045 405.266 361.657C405.266 353.352 384.297 292.94 383.878 286.547L383.872 286.37C383.872 281.025 356.478 256.458 356.478 248.656C356.478 240.854 350.957 241.327 356.478 213.833L358.083 205.756C363.958 176.484 375.459 128.013 419.308 106.95C467.494 83.8051 561.156 55.7062 606.285 55.7062Z" fill="white"/>
<path fill-rule="evenodd" clip-rule="evenodd" d="M732.806 108.481L733.585 106.958C719.643 107.363 703.351 107.985 686.183 108.94C661.553 110.31 635.112 112.365 611.222 115.448C587.347 118.53 565.963 122.646 551.475 128.156C536.835 133.724 525.003 147.045 515.489 163.736C505.966 180.443 498.707 200.631 493.258 220.098C487.809 239.57 484.164 258.352 481.881 272.263C480.74 279.22 479.938 284.96 479.423 288.963C479.165 290.964 478.978 292.531 478.856 293.599C478.795 294.132 478.75 294.541 478.72 294.817L478.72 294.819C478.579 294.887 478.4 294.975 478.185 295.081C477.591 295.375 476.723 295.811 475.618 296.383C473.408 297.526 470.254 299.213 466.469 301.387C458.903 305.735 448.809 312.04 438.711 319.863C433.661 323.775 430.463 326.768 428.516 329.065C426.592 331.336 425.799 333.034 425.779 334.344C425.758 335.774 426.64 336.545 427.423 336.916C427.706 337.049 427.983 337.137 428.219 337.195C428.217 337.295 428.216 337.406 428.214 337.527C428.211 337.674 428.209 337.837 428.207 338.014C428.195 338.957 428.186 340.319 428.194 341.993C428.21 345.342 428.295 349.946 428.576 354.967C428.856 359.986 429.331 365.433 430.127 370.463C430.922 375.481 432.043 380.137 433.639 383.547C435.3 387.097 438.95 389.825 443.317 391.933C447.705 394.052 452.94 395.603 457.946 396.731C462.957 397.86 467.769 398.571 471.326 399C473.105 399.214 474.572 399.359 475.595 399.449C475.767 399.464 475.927 399.478 476.074 399.49C476.312 399.51 476.515 399.527 476.681 399.539L482.713 419.782L481.888 429.065C482.373 429.27 482.856 429.488 483.336 429.717L484.22 419.772L484.232 419.629L484.191 419.492L477.97 398.615L477.821 398.114L477.299 398.08L477.298 398.08L477.294 398.08L477.275 398.079L477.198 398.073L477.071 398.064L476.894 398.051C476.627 398.031 476.232 398 475.727 397.955C474.718 397.866 473.267 397.723 471.505 397.511C467.981 397.086 463.222 396.382 458.275 395.267C453.323 394.152 448.212 392.631 443.969 390.583C439.704 388.523 436.438 385.988 434.998 382.911C433.492 379.694 432.396 375.203 431.609 370.228C430.823 365.266 430.352 359.874 430.073 354.883C429.795 349.894 429.709 345.317 429.694 341.986C429.686 340.321 429.695 338.968 429.707 338.033C429.713 337.565 429.719 337.201 429.724 336.955C429.726 336.832 429.728 336.738 429.73 336.675L429.731 336.604L429.732 336.587L429.732 336.582L429.732 336.581L429.699 336.58L429.732 336.581L429.751 335.851L429.024 335.813L429.023 335.813L429.022 335.813L429.021 335.813L429.014 335.812C429.007 335.812 428.998 335.811 428.986 335.81C428.978 335.809 428.969 335.808 428.959 335.807C428.907 335.801 428.83 335.791 428.736 335.773C428.543 335.736 428.299 335.67 428.065 335.56C427.613 335.346 427.269 335.015 427.279 334.367C427.291 333.6 427.788 332.245 429.661 330.035C431.511 327.851 434.618 324.932 439.63 321.049C449.658 313.28 459.69 307.013 467.217 302.688C470.98 300.525 474.114 298.85 476.307 297.715C477.403 297.148 478.264 296.716 478.85 296.426C479.018 296.343 479.164 296.271 479.286 296.212C479.376 296.167 479.453 296.13 479.517 296.099C479.593 296.062 479.65 296.035 479.687 296.017L479.73 295.997L479.74 295.992L479.742 295.991L479.743 295.99L479.422 295.313L479.743 295.99L480.125 295.809L480.168 295.389L479.422 295.313C480.168 295.389 480.168 295.388 480.168 295.387L480.168 295.383L480.17 295.364L480.178 295.286L480.193 295.149L480.211 294.978C480.241 294.705 480.285 294.3 480.346 293.769C480.467 292.709 480.653 291.149 480.91 289.155C481.424 285.167 482.223 279.443 483.361 272.506C485.638 258.63 489.273 239.905 494.703 220.502C500.135 201.094 507.355 181.036 516.792 164.479C526.238 147.907 537.847 134.944 552.008 129.558C566.322 124.115 587.558 120.016 611.414 116.936C635.255 113.859 661.655 111.806 686.266 110.438C703.082 109.502 719.058 108.887 732.806 108.481Z" fill="white"/>
<path fill-rule="evenodd" clip-rule="evenodd" d="M411.871 105.863C435.902 80.3012 572.336 40.7632 641.361 49.1443L643.432 49.413C648.94 50.113 654.369 51.173 659.727 52.613C677.044 56.666 694.932 62.803 709.241 73.054C721.187 81.44 758.87 95.135 747.763 117.073C751.882 124.892 753.418 134.552 750.635 142.253C750.285 144.913 749.467 147.363 748.42 149.903C757.218 162.914 764.185 177.628 769.824 191.623C779.678 226.844 785.81 263.498 786.708 299.433C789.696 367.705 782.226 449.256 722.889 493.404C687.044 521.379 630.894 522.319 590.613 487.633C588.326 484.922 577.576 477.606 581.164 476.323C582.231 477.453 583.329 478.553 584.447 479.633C584.396 479.513 584.386 479.393 584.407 479.263L583.356 478.309C581.376 476.474 578.812 473.812 581.732 474.333C581.861 474.483 582.002 474.613 582.141 474.763C582.759 475.135 583.227 475.457 583.59 475.741L583.777 475.891L583.719 475.831C582.037 474.033 581.028 472.199 583.544 473.371L583.877 473.533C584.996 474.713 586.132 475.843 587.29 476.943C587.271 476.813 587.29 476.683 587.361 476.543L586.281 475.498C585.228 474.464 585.389 474.459 585.904 473.623C583.664 470.478 587.844 472.346 588.138 473.573C590.753 472.953 593.049 477.873 594.734 478.473C668.577 535.363 775.737 484.884 774.002 326.359L773.975 323.257C773.468 272.568 769.211 220.469 748.289 174.583C746.255 170.163 743.978 165.863 741.475 161.703C739.748 158.583 737.902 155.543 735.916 152.583C730.357 152.133 724.869 151.113 719.461 149.533C717.604 149.063 715.768 148.543 713.933 147.933C687.11 149.399 660.884 150.994 633.986 152.506L625.584 153.03C602.798 154.498 579.233 156.85 560.846 170.973C542.804 183.831 542.722 209.186 527.278 223.303C505.254 238.282 505.093 251.789 500.852 273.863C501.167 290.503 512.68 314.68 491.552 321.683C495.117 326.776 490.148 324.329 489.757 322.543C489.717 322.553 489.677 322.563 489.647 322.563C492.823 328.48 488.154 324.754 487.741 322.853C487.492 322.783 487.242 322.603 486.993 322.353C490.193 327.537 485.02 323.907 485.326 322.963C479.142 313.438 466.415 311.959 457.444 314.483C457.334 314.823 456.936 314.853 456.687 314.673C418.54 322.957 428.383 402.093 467.474 394.443C469.147 394.101 469.108 394.906 469.44 394.983C468.537 392.607 471.082 393.574 471.055 394.073L471.211 394.065C471.333 394.055 471.283 394.041 471.375 394.073C470.502 389.214 475.415 396.254 475.027 396.543C475.178 396.453 475.347 396.403 475.497 396.383L475.328 395.922C474.512 393.745 474.582 394.65 474.588 393.403C473.975 391.862 473.93 392.536 474.074 391.532C476.227 389.86 476.863 394.932 477.582 395.303C476.35 393.583 477.329 392.178 478.491 393.112C487.295 411.67 498.668 429.107 513.366 442.843C514.974 444.113 516.6 445.363 518.286 446.543C524.537 452 534.127 455.509 539.98 460.343C539.98 460.423 539.941 460.523 539.881 460.623L540.015 460.744V460.744L540.15 460.873L542.186 461.853C542.785 462.363 543.324 462.933 543.802 463.563C544.312 464.153 544.76 464.803 545.14 465.493C545.329 466.333 544.91 466.683 544.112 466.323C543.762 466.203 543.413 466.063 543.064 465.933C543.084 465.963 543.093 465.983 543.114 466.003C543.229 466.177 544.004 467.977 543.111 467.684L543.004 467.643C542.514 467.463 542.026 467.263 541.547 467.073C542.116 467.783 542.634 468.553 543.093 469.203C543.583 469.713 543.881 470.313 544.002 470.993C543.981 471.373 543.773 471.533 543.393 471.483C542.815 471.293 542.246 471.093 541.676 470.883L541.838 471.193C542.241 471.986 542.813 473.317 541.797 472.873C540.928 472.603 540.09 472.293 539.252 471.953C539.181 472.093 539.043 472.143 538.763 472.013C536.099 471.063 533.524 469.903 531.06 468.533C528.894 466.953 526.708 465.403 524.533 463.833C522.487 462.603 520.511 461.233 518.626 459.693C506.007 451.525 494.959 441.149 486.194 429.593C471.536 442.314 442.229 430.161 424.101 420.203C408.066 411.303 401.763 394.847 400.133 377.105C396.745 353.219 377.267 345.043 378.622 292.633C378.592 292.643 378.561 292.643 378.521 292.643C377.813 292.433 377.125 292.153 376.476 291.793C375.808 291.473 375.179 291.093 374.589 290.633L373.861 289.623V289.623C373.483 289.413 373.143 289.193 372.884 288.973L372.749 289.147C372.323 289.662 372.61 288.887 372.634 288.733L371.369 287.008C368.368 282.903 365.077 278.297 362.395 274.613L362.311 274.763C362.25 274.876 362.218 274.957 362.246 274.993C355.865 265.805 349.864 254.707 348.196 243.963C346.227 235.687 346.997 227.159 348.714 219.493C356.077 192.648 380.198 131.9 411.871 105.863ZM585.052 477.116L584.652 476.759L585.004 477.201C585.188 477.429 585.377 477.634 585.684 477.843C585.664 477.773 585.664 477.703 585.673 477.623C585.469 477.467 585.261 477.297 585.052 477.116ZM641.056 62.633C594.247 58.6 548.207 68.934 503.54 81.443L500.458 82.3305C475.06 89.593 448.204 96.1282 426.74 111.673C396.752 134.69 381.267 171.306 367.754 205.113C355.954 230.231 361.986 258.554 379.768 276.093C381.618 258.664 384.773 241.745 389.702 224.962C390.731 222.34 389.953 221.481 392.17 221.139C395.519 266.367 379.025 299.783 411.666 353.385C425.829 378.677 409.434 397.183 449.429 410.492L450.511 410.906C458.844 414.057 467.944 416.544 476.105 414.783L475.374 413.591C474.628 412.364 474.402 411.768 475.486 411.243C475.457 411.183 475.417 411.123 475.376 411.053C474.499 409.393 473.651 407.713 472.842 406.013C472.513 406.123 472.184 406.203 471.844 406.293C472.064 406.703 472.093 407.113 471.475 407.253C469.277 408.009 467.018 408.312 464.707 408.17L464.211 408.133C461.599 407.973 459.954 407.496 458.482 407.053C457.994 406.973 457.505 406.893 457.025 406.793C452.29 405.741 447.278 403.065 444.034 400.413C407.054 379.365 410.876 307.716 456.457 300.943C457.392 255.831 478.804 179.723 514.339 136.736C546.459 97.195 634.148 80.057 695.155 86.1C696.044 86.395 696.933 86.693 697.822 86.994C707.234 87.832 716.204 92.034 725.623 93.986C718.86 88.907 711.189 85.524 703.286 82.649C687.542 72.998 669.492 67.776 652.054 64.093C648.441 63.203 644.779 62.713 641.056 62.633ZM454.371 337.183C456.822 335.849 456.541 337.137 457.105 336.763C474.734 335.322 493.743 350.789 503.597 363.683C502.819 364.493 500.713 362.093 500.344 361.713C500.294 361.763 500.234 361.803 500.174 361.823L500.449 362.211C504.443 367.955 496.525 361.196 495.783 359.803C495.654 359.873 495.524 359.913 495.374 359.883C496.002 360.5 497.919 362.109 498.248 363.253L498.756 363.677C503.549 367.789 503.151 370.883 497.71 365.043C497.839 365.313 497.889 365.563 497.799 365.763L497.986 365.888C500.662 367.762 502.862 372.984 497.27 367.623C497.852 371.539 491.729 363.97 491.532 364.023C480.937 355.688 465.337 347.582 452.046 346.493L451.588 346.44C449.15 346.126 447.996 345.401 448.853 343.803C445.849 343.087 446.552 341.605 447.974 341.653C445.856 340.257 447.763 338.922 448.992 339.443C448.147 337.098 451.537 338.66 451.846 338.333C453.606 335.614 454.08 337.882 454.371 337.183ZM417.419 191.833C425.886 188.725 450.896 198.029 448.896 210.351C447.704 213.18 443.778 214.801 441.019 213.204L437.418 210.78C431.151 206.574 425.499 202.886 418.77 199.218C415.108 197.397 413.531 193.531 417.419 191.833ZM465.592 173.522L462.322 171.389C444.676 159.816 419.729 142.279 463.971 160.423C469.013 162.59 475.713 163.872 478.464 168.684C482.786 177.553 471.412 178.149 465.592 173.522ZM467.575 121.593C466.159 116.208 483.779 122.527 488.908 124.193L489.689 124.488C494.679 126.351 500.398 128.08 503.383 132.395C506.879 138.357 499.802 139.592 495.418 136.899C486.43 131.013 476.576 126.572 467.575 121.593ZM512.381 96.5078C502.463 85.6544 529.006 96.0516 532.982 98.9377L533.095 99.0228C536.062 101.116 535.46 105.624 532.673 106.948C524.743 107.099 518.907 100.475 512.381 96.5078ZM557.511 84.6166C541.745 73.2616 562.514 78.6626 569.728 83.1126C574.644 87.4576 569.58 94.7926 557.511 84.6166Z" fill="#262626"/>
<path fill-rule="evenodd" clip-rule="evenodd" d="M667.587 423.927C660.864 421.184 654.866 416.61 650.481 410.766C648.957 408.735 648.561 406.59 648.881 404.628C649.241 402.421 650.546 400.422 652.326 399.081C654.112 397.735 656.345 397.072 658.504 397.41C660.381 397.704 662.248 398.731 663.727 400.862L664.035 401.288C666.642 404.815 670.04 407.709 673.91 409.574C677.641 411.372 681.814 412.211 686.132 411.723C694.356 410.794 700.024 406.346 706.049 400.307C706.796 399.544 707.543 398.758 708.294 397.959C708.768 397.234 709.426 396.769 710.157 396.524C710.968 396.253 711.886 396.269 712.726 396.562C713.537 396.845 714.262 397.381 714.747 398.095C715.209 398.773 715.471 399.61 715.386 400.574C714.835 406.833 711.562 412.419 706.914 416.805C701.752 421.677 694.909 425.047 688.466 426.229C681.368 427.531 674.136 426.598 667.587 423.927V423.927ZM691.814 327.367C699.366 331.957 710.872 342.66 702.748 354.04C693.186 364.073 679.418 352.569 672.634 347.366C666.343 343.334 659.275 353.704 665.112 358.413C714.136 394.708 734.031 328.567 695.634 321.97C691.406 321.243 689.836 325.947 691.814 327.367ZM603.963 285.146C604.798 274.79 620.57 272.438 622.139 282.686C623.544 291.866 621.89 300.299 617.755 308.564C613.804 316.46 603.874 312.777 603.123 305.587C602.116 295.949 603.444 291.589 603.963 285.146ZM724.027 280.561C726.226 277.681 729.401 275.715 733.205 276.826C745.09 280.299 741.587 297.172 737.413 305.385C735.145 309.845 727.814 310.976 724.501 307.049C719.101 300.645 716.515 287.856 723.38 281.548C723.566 281.222 723.773 280.893 724.027 280.561ZM617.588 239.83L619.465 239.502C625.273 238.497 632.494 237.532 636.603 242.201C638.782 244.677 639.532 249.279 636.603 251.649C631.451 255.819 625.755 254.203 619.581 254.556C614.493 254.848 609.603 255.69 604.702 257.091C593.95 260.164 585.189 265.774 576.006 271.934C574.801 272.742 573.571 271.201 574.146 270.074C579.447 259.691 589.72 251.162 600.01 245.963C605.502 243.188 611.512 240.886 617.588 239.83ZM713.193 235.179L714.63 235.473C730.267 238.742 750.583 245.271 757.988 260.631C758.271 262.803 757.972 263.268 757.73 263.572L757.649 263.673C757.45 263.933 757.29 264.291 756.349 264.587C756.087 264.525 755.824 264.459 755.557 264.389C752.163 263.499 749.477 262.274 746.877 261.002L744.058 259.613C740.788 258.01 737.488 256.465 733.992 255.324C726.53 252.89 718.854 251.175 711.06 250.26C709.37 250.061 707.744 249.491 706.46 248.514C705.242 247.587 704.311 246.302 703.887 244.595C703.337 242.386 703.495 240.714 704.68 238.721C705.572 237.224 706.847 236.187 708.311 235.591C709.804 234.984 711.503 234.841 713.193 235.179Z" fill="#262626"/>
<path fill-rule="evenodd" clip-rule="evenodd" d="M781.311 333.458C769.17 346.003 748.902 349.603 732.749 342.875C691.273 325.546 711.574 271.496 743.561 256.981C747.557 255.985 752.894 253.622 757.761 253.086C758.201 252.87 759.159 253.495 760.32 252.904C795.591 256.842 803.623 311.594 781.311 333.458M647.533 336.669C633.916 354.73 608.6 360.302 587.916 351.906C547.054 335.814 561.547 287.885 589.504 269.095C648.561 246.904 672.948 303.368 647.533 336.669M558.953 296.651C558.915 296.633 558.877 296.624 558.838 296.606C559.054 296.511 559.27 296.416 559.485 296.319C559.415 296.502 559.339 296.683 559.271 296.866C559.165 296.793 559.072 296.708 558.953 296.651M809.423 277.128C806.089 277.135 801.273 277.683 798.513 279.996C791.707 257.043 766.585 235.8 744.737 251.29C727.532 256.823 714.765 269.094 707.509 285.408C694.426 277.626 673.854 280.949 662.509 291.24C655.079 266.689 636.793 258.092 615.028 256.823C591.272 252.932 567.594 276.003 560.206 294.511C554.063 293.812 544.884 291.857 539.105 295.648C501.598 285.812 436.023 280.389 428.398 285.854C422.964 287.939 419.982 300.765 427.572 301.457C434.186 300.518 426.8 292.059 433.467 291.136C468.99 288.934 503.475 296.088 538.622 299.09C541.76 303.311 551.899 304.723 557.308 303.027C548.789 334.423 567.179 355.783 594.734 362.181C637.401 371.982 674.522 333.814 663.365 294.114C676.29 287.684 691.157 287.96 705.237 291.347C681.709 377.937 821.166 374.052 799.385 282.963C813.88 290.173 817.028 278.583 809.423 277.128" fill="#262626"/>
</g>
</svg>
