<svg width="207" height="186" viewBox="0 0 207 186" fill="none" xmlns="http://www.w3.org/2000/svg">
<g clip-path="url(#clip0_1774_12379)">
<mask id="mask0_1774_12379" style="mask-type:luminance" maskUnits="userSpaceOnUse" x="0" y="0" width="207" height="186">
<path d="M206.86 0.5H0.429688V185.23H206.86V0.5Z" fill="white"/>
</mask>
<g mask="url(#mask0_1774_12379)">
<path d="M122.69 152.23L104.16 185.23L0.429688 0.5L17.3197 0.65L39.2497 0.85C43.9797 0.89 49.0097 1.24 51.4297 5.63L125 139.32C127.43 143.72 125.2 147.77 122.69 152.23Z" fill="#E6E1E3"/>
<path d="M159.018 87.5003L140.518 54.5503C137.758 49.6503 135.678 45.8003 138.098 41.4103L157.178 6.74027C159.598 2.35027 164.438 1.74027 169.578 2.04027L206.858 2.34027L173.858 61.1103C171.428 65.5003 161.108 83.8803 159.018 87.5003Z" fill="#E6E1E3"/>
</g>
</g>
<defs>
<clipPath id="clip0_1774_12379">
<rect width="207" height="185" fill="white" transform="translate(0 0.5)"/>
</clipPath>
</defs>
</svg>
