<svg width="48" height="48" viewBox="0 0 48 48" fill="none" xmlns="http://www.w3.org/2000/svg">
<path fill-rule="evenodd" clip-rule="evenodd" d="M17.8351 45.0402C17.8814 44.8863 17.9029 44.7268 17.9029 44.5725C17.9029 44.257 17.8975 43.701 17.8903 42.9573C17.882 42.0975 17.8713 40.987 17.8637 39.7076C9.93941 41.4349 8.26551 35.8719 8.26551 35.8719C6.9727 32.5668 5.10292 31.6871 5.10292 31.6871C2.51373 29.9135 5.29524 29.9491 5.29524 29.9491C8.15511 30.1521 9.65805 32.898 9.65805 32.898C12.2009 37.268 16.3287 36.0072 17.9527 35.2735C18.2092 33.4251 18.9464 32.1644 19.762 31.4485C13.4368 30.7255 6.78394 28.2717 6.78394 17.313C6.78394 14.1896 7.89512 11.636 9.71859 9.63448C9.42299 8.9115 8.44715 6.00178 9.99639 2.06635C9.99639 2.06635 12.3897 1.29707 17.8316 4.99744C20.1039 4.3635 22.5399 4.04653 24.9653 4.03584C27.3835 4.05009 29.8231 4.3635 32.0989 5.001C37.5373 1.30063 39.927 2.06991 39.927 2.06991C41.4798 6.0089 40.504 8.91507 40.2119 9.63805C42.039 11.6396 43.1395 14.1932 43.1395 17.3166C43.1395 28.3037 36.4795 30.722 30.133 31.4307C31.1551 32.3139 32.0668 34.0591 32.0668 36.7266C32.0668 39.2854 32.0509 41.5127 32.0404 42.9873C32.0351 43.7171 32.0312 44.2625 32.0312 44.5725C32.0312 44.7261 32.0519 44.8848 32.0965 45.0379C29.8222 45.6653 27.4302 46 24.9617 46C22.4962 46 20.107 45.6661 17.8351 45.0402Z" fill="#141414"/>
</svg>
