<svg width="729" height="163" viewBox="0 0 729 163" fill="none" xmlns="http://www.w3.org/2000/svg">
<path d="M47.1017 109.356C36.0313 109.356 26.8361 101.466 24.7699 90.9407L0 95.7317C4.22615 117.906 23.7386 134.628 47.1017 134.628C60.4228 134.628 72.4308 129.18 81.1605 120.441L60.8913 104.752C57.0435 107.572 52.2618 109.356 47.1017 109.356ZM47.1017 63.7906C52.2618 63.7906 57.0435 65.5738 60.8913 68.4871L81.1605 52.7984C72.4308 44.0635 60.4221 38.6114 47.1017 38.6114C23.7386 38.6114 4.22542 55.3364 0 77.5071L24.7699 82.3934C26.7417 71.7772 35.9376 63.7906 47.101 63.7906H47.1017ZM388.798 112.739C376.227 112.739 367.032 103.531 365.625 90.0018V82.8632C367.032 69.5213 376.227 60.3166 388.798 60.3166C403.157 60.3166 413.286 71.1197 413.286 86.4303C413.192 101.935 403.156 112.739 388.798 112.739V112.739ZM396.211 38.6121C383.45 38.6121 372.851 44.1544 365.531 53.5496V40.6804H339.636V163H365.531V119.502C372.758 129.085 383.45 134.627 396.211 134.627C420.7 134.627 438.431 114.71 438.431 86.5234C438.431 58.4337 420.7 38.6106 396.211 38.6106V38.6121ZM498.853 112.739C485.059 112.739 473.521 100.715 473.521 86.4303C473.521 72.2462 485.059 60.3166 498.853 60.3166C512.455 60.3166 523.997 72.2462 523.997 86.4303C524.091 100.715 512.548 112.739 498.853 112.739V112.739ZM498.853 38.6121C471.552 38.6121 448.657 60.4097 448.657 86.5241C448.657 112.645 471.552 134.628 498.853 134.628C525.967 134.628 548.67 112.645 548.67 86.5241C548.67 60.4104 525.967 38.6114 498.853 38.6114V38.6121ZM560.963 132.468H586.855V8.45416H560.963V132.468ZM685.183 75.5326C672.797 72.1532 669.046 70.7445 669.046 65.7658C669.046 62.5703 673.455 60.2228 679.835 60.2228C687.621 60.2228 697.191 63.2277 705.542 68.394L715.958 49.9818C705.824 43.2155 692.875 38.6114 679.836 38.6114C658.257 38.6114 643.902 51.0145 643.995 68.394C644.183 86.5241 658.725 91.6948 677.488 96.299C686.874 98.7396 693.625 100.527 693.625 106.254C693.625 110.295 688.652 113.209 681.71 113.209C669.515 113.209 659.195 108.792 651.03 102.875L639.96 120.723C650.937 129.555 666.515 134.534 681.242 134.534C703.761 134.534 718.489 122.979 718.489 104.939C718.489 84.9286 700.944 79.5732 685.183 75.5326V75.5326ZM603.839 132.469H629.734V40.6804H603.838L603.839 132.469ZM616.882 0.0945459C608.905 0.0945459 602.713 6.66951 602.713 13.9056C602.713 21.7023 608.905 28.0926 616.881 28.0926C624.479 28.0926 630.671 21.7016 630.671 13.9056C630.768 6.66951 624.574 0.0945459 616.881 0.0945459H616.882ZM303.983 8.55017H278.089L268.425 28.2773H294.32L303.983 8.55017ZM261.671 76.3813C265.05 67.173 273.21 61.4424 282.968 61.4424C293.48 61.4424 300.136 67.2676 302.671 76.3813H261.671ZM281.937 38.5205C255.198 38.5205 234.745 58.6228 234.745 86.2456C234.745 114.429 256.042 134.534 283.343 134.534C296.854 134.534 312.617 128.898 320.78 120.347L304.265 103.438C299.293 108.229 290.476 111.61 283.156 111.61C272.366 111.61 264.39 104.845 261.389 94.8867H327.441C327.441 60.4104 310.645 38.5205 281.937 38.5205V38.5205ZM189.334 38.6114C177.42 38.6114 167.193 43.8729 161.658 52.2355V40.6804H135.762V132.469H161.658V78.0714C161.658 68.1126 170.193 60.4097 180.982 60.4097C191.306 60.4097 198.341 68.2057 198.341 79.5732V132.469H223.295V74.0301C223.393 53.2682 209.224 38.6114 189.334 38.6114V38.6114ZM104.614 0C96.6379 0 90.4472 6.5757 90.4472 13.8081C90.4472 21.6078 96.6379 27.9988 104.614 27.9988C112.212 27.9988 118.408 21.6078 118.408 13.8081C118.407 6.5757 112.212 0 104.614 0ZM91.4785 132.469H117.373V40.6804H91.4778L91.4785 132.469ZM729 129.461C729 132.563 726.56 135.004 723.368 135.004C720.18 135.004 717.645 132.563 717.645 129.461C717.645 126.359 720.18 123.918 723.369 123.918C726.56 124.012 729 126.457 729 129.461ZM719.055 129.461C719.055 131.905 720.833 133.877 723.368 133.877C725.81 133.877 727.591 131.905 727.591 129.461C727.591 127.017 725.81 125.045 723.368 125.045C720.93 125.045 719.055 127.017 719.055 129.461ZM722.525 132.375H721.212V126.829C721.68 126.735 722.43 126.641 723.368 126.641C724.4 126.641 724.868 126.829 725.244 127.017C725.528 127.298 725.81 127.677 725.81 128.237C725.81 128.804 725.337 129.274 724.68 129.555V129.649C725.244 129.836 725.528 130.212 725.712 130.964C725.902 131.812 725.998 132.184 726.091 132.375H724.68C724.497 132.184 724.399 131.62 724.212 131.057C724.122 130.494 723.743 130.212 723.087 130.212H722.525V132.375ZM722.525 129.274H723.087C723.837 129.274 724.399 128.991 724.399 128.428C724.399 127.959 724.028 127.58 723.18 127.58C722.806 127.58 722.618 127.58 722.43 127.677L722.525 129.274Z" fill="#212E5C"/>
</svg>
