<svg xmlns="http://www.w3.org/2000/svg" xmlns:xlink="http://www.w3.org/1999/xlink" viewBox="0 0 22.79 19.34"><defs><style>.cls-1{fill:none;}.cls-2{clip-path:url(#clip-path);}.cls-3{fill:#462523;}.cls-4{fill:#472623;}.cls-5{fill:#482624;}.cls-6{fill:#482724;}.cls-7{fill:#492724;}.cls-8{fill:#492824;}.cls-9{fill:#4a2824;}.cls-10{fill:#4a2924;}.cls-11{fill:#4b2925;}.cls-12{fill:#4b2a25;}.cls-13{fill:#4c2a25;}.cls-14{fill:#4d2b25;}.cls-15{fill:#4d2b26;}.cls-16{fill:#4e2c26;}.cls-17{fill:#4f2d26;}.cls-18{fill:#502e26;}.cls-19{fill:#512e27;}.cls-20{fill:#512f27;}.cls-21{fill:#523027;}.cls-22{fill:#533027;}.cls-23{fill:#543128;}.cls-24{fill:#543228;}.cls-25{fill:#553228;}.cls-26{fill:#563329;}.cls-27{fill:#573429;}.cls-28{fill:#583529;}.cls-29{fill:#59362a;}.cls-30{fill:#5a372a;}.cls-31{fill:#5b372a;}.cls-32{fill:#5c382a;}.cls-33{fill:#5d392b;}.cls-34{fill:#5d3a2b;}.cls-35{fill:#5e3b2b;}.cls-36{fill:#5f3b2c;}.cls-37{fill:#603c2c;}.cls-38{fill:#613d2c;}.cls-39{fill:#623e2d;}.cls-40{fill:#633f2d;}.cls-41{fill:#643f2d;}.cls-42{fill:#65402e;}.cls-43{fill:#66412e;}.cls-44{fill:#66422e;}.cls-45{fill:#67432f;}.cls-46{fill:#68442f;}.cls-47{fill:#69442f;}.cls-48{fill:#6a4530;}.cls-49{fill:#6b4630;}.cls-50{fill:#6c4730;}.cls-51{fill:#6d4831;}.cls-52{fill:#6e4931;}.cls-53{fill:#6f4a31;}.cls-54{fill:#704a32;}.cls-55{fill:#714b32;}.cls-56{fill:#724c32;}.cls-57{fill:#734d33;}.cls-58{fill:#744e33;}.cls-59{fill:#754f33;}.cls-60{fill:#765034;}.cls-61{fill:#775134;}.cls-62{fill:#795234;}.cls-63{fill:#7a5335;}.cls-64{fill:#7b5435;}.cls-65{fill:#7c5536;}.cls-66{fill:#7d5636;}.cls-67{fill:#7e5736;}.cls-68{fill:#7f5837;}.cls-69{fill:#805837;}.cls-70{fill:#815937;}.cls-71{fill:#825a38;}.cls-72{fill:#835b38;}.cls-73{fill:#845c39;}.cls-74{fill:#865d39;}.cls-75{fill:#875e39;}.cls-76{fill:#885f3a;}.cls-77{fill:#89603a;}.cls-78{fill:#8a613b;}.cls-79{fill:#8b623b;}.cls-80{fill:#8c633b;}.cls-81{fill:#8e643c;}.cls-82{fill:#8f653c;}.cls-83{fill:#90673d;}.cls-84{fill:#91683d;}.cls-85{fill:#92693d;}.cls-86{fill:#936a3e;}.cls-87{fill:#956b3e;}.cls-88{fill:#966c3f;}.cls-89{fill:#976d3f;}.cls-90{fill:#986e3f;}.cls-91{fill:#996f40;}.cls-92{fill:#9a7040;}.cls-93{fill:#9c7141;}.cls-94{fill:#9d7241;}.cls-95{fill:#9e7341;}.cls-96{fill:#9f7442;}.cls-97{fill:#a17542;}.cls-98{fill:#a27643;}.cls-99{fill:#a37743;}.cls-100{fill:#a47944;}.cls-101{fill:#a57a44;}.cls-102{fill:#a77b44;}.cls-103{fill:#a87c45;}.cls-104{fill:#a97d45;}.cls-105{fill:#aa7e46;}.cls-106{fill:#ac7f46;}.cls-107{fill:#ad8047;}.cls-108{fill:#ae8147;}.cls-109{fill:#af8347;}.cls-110{fill:#b18448;}.cls-111{fill:#b28548;}.cls-112{fill:#b38649;}.cls-113{fill:#b58749;}.cls-114{fill:#b6884a;}.cls-115{fill:#b7894a;}.cls-116{fill:#b88b4b;}.cls-117{fill:#ba8c4b;}.cls-118{fill:#bb8d4b;}.cls-119{fill:#bc8e4c;}.cls-120{fill:#be8f4c;}.cls-121{fill:#bf904d;}.cls-122{fill:#c0924d;}.cls-123{fill:#c2934e;}.cls-124{fill:#c3944e;}.cls-125{fill:#c4954f;}.cls-126{fill:#c6964f;}.cls-127{fill:#c79750;}.cls-128{fill:#c89950;}.cls-129{fill:#ca9a51;}.cls-130{fill:#cb9b51;}.cls-131{fill:#cc9c52;}.cls-132{fill:#cc9d52;}.cls-133{fill:#cd9e53;}.cls-134{fill:#cd9f53;}.cls-135{fill:#cea054;}.cls-136{fill:#cfa155;}.cls-137{fill:#cfa255;}.cls-138{fill:#d0a356;}.cls-139{fill:#d0a456;}.cls-140{fill:#d1a557;}.cls-141{fill:#d1a657;}.cls-142{fill:#d2a758;}.cls-143{fill:#d3a758;}.cls-144{fill:#d3a859;}.cls-145{fill:#d4a959;}.cls-146{fill:#d4aa5a;}.cls-147{fill:#d5ab5a;}.cls-148{fill:#d5ac5b;}.cls-149{fill:#d6ad5b;}.cls-150{fill:#d7ae5c;}.cls-151{fill:#d7af5d;}.cls-152{fill:#d8b05d;}.cls-153{fill:#d8b15e;}.cls-154{fill:#d9b25e;}.cls-155{fill:#dab35f;}.cls-156{fill:#dab45f;}.cls-157{fill:#dbb560;}.cls-158{fill:#dbb661;}.cls-159{fill:#dcb761;}.cls-160{fill:#ddb862;}.cls-161{fill:#ddb962;}.cls-162{fill:#deba63;}.cls-163{fill:#dfbb64;}.cls-164{fill:#dfbc64;}.cls-165{fill:#e0be65;}.cls-166{fill:#e1bf66;}.cls-167{fill:#e1c066;}.cls-168{fill:#e2c167;}.cls-169{fill:#e3c267;}.cls-170{fill:#e3c368;}.cls-171{fill:#e4c469;}.cls-172{fill:#e5c569;}.cls-173{fill:#e5c66a;}.cls-174{fill:#e6c76b;}.cls-175{fill:#e7c86b;}.cls-176{fill:#e7ca6c;}.cls-177{fill:#e8cb6d;}.cls-178{fill:#e9cc6d;}.cls-179{fill:#e9cd6e;}.cls-180{fill:#eace6f;}.cls-181{fill:#ebcf6f;}.cls-182{fill:#ebd070;}.cls-183{fill:#ecd271;}.cls-184{fill:#edd371;}.cls-185{fill:#edd472;}.cls-186{fill:#eed573;}.cls-187{fill:#efd673;}.cls-188{fill:#f0d774;}.cls-189{fill:#f0d975;}.cls-190{fill:#f1da75;}.cls-191{fill:#f2db76;}.cls-192{fill:#f2dc77;}.cls-193{fill:#f3dd77;}.cls-194{fill:#f4de78;}.cls-195{fill:#f5e079;}.cls-196{fill:#f5e179;}.cls-197{fill:#f6e27a;}.cls-198{fill:#f6e27b;}.cls-199{fill:#f6e27c;}.cls-200{fill:#f6e37d;}.cls-201{fill:#f6e37e;}.cls-202{fill:#f6e37f;}.cls-203{fill:#f6e380;}.cls-204{fill:#f6e481;}.cls-205{fill:#f6e482;}.cls-206{fill:#f6e483;}.cls-207{fill:#f6e484;}.cls-208{fill:#f6e585;}.cls-209{fill:#f6e586;}.cls-210{fill:#f6e587;}.cls-211{fill:#f6e588;}.cls-212{fill:#f6e589;}.cls-213{fill:#f6e68a;}.cls-214{fill:#f6e68b;}.cls-215{fill:#f6e68c;}.cls-216{fill:#f6e68d;}.cls-217{fill:#f6e78e;}.cls-218{fill:#f6e78f;}.cls-219{fill:#f6e790;}.cls-220{fill:#f6e791;}.cls-221{fill:#f6e892;}.cls-222{fill:#f6e893;}.cls-223{fill:#f6e894;}.cls-224{fill:#f6e895;}.cls-225{fill:#f6e896;}.cls-226{fill:#f6e997;}.cls-227{fill:#f6e998;}.cls-228{fill:#f6e999;}.cls-229{fill:#f6e99a;}.cls-230{fill:#f6ea9b;}.cls-231{fill:#f6ea9c;}.cls-232{fill:#f6ea9e;}.cls-233{fill:#f6ea9f;}.cls-234{fill:#f6eba0;}.cls-235{fill:#f6eba1;}.cls-236{fill:#f6eba2;}.cls-237{fill:#f6eba3;}.cls-238{fill:#f6eca4;}.cls-239{fill:#f6eca5;}.cls-240{fill:#f6eca6;}.cls-241{fill:#f6eca7;}.cls-242{fill:#f6eca8;}.cls-243{fill:#f6eda9;}.cls-244{fill:#f6edaa;}.cls-245{fill:#f6edab;}.cls-246{fill:#f6edac;}.cls-247{fill:#f6eead;}.cls-248{fill:#f6eeae;}.cls-249{fill:#f6eeaf;}.cls-250{fill:#f6eeb0;}.cls-251{fill:#f6efb1;}.cls-252{fill:#f6efb2;}.cls-253{fill:#f6efb3;}.cls-254{fill:#f6efb4;}.cls-255{fill:#f6efb5;}.cls-256{fill:#f6f0b6;}.cls-257{fill:#f6f0b7;}.cls-258{fill:#f6f0b8;}.cls-259{fill:#f6f0b9;}.cls-260{fill:#f6f1ba;}.cls-261{fill:#f6f1bb;}.cls-262{fill:#f6f1bc;}.cls-263{fill:#f6f1bd;}.cls-264{fill:#f6f2be;}.cls-265{fill:#f6f2bf;}.cls-266{fill:#f6f2c0;}.cls-267{clip-path:url(#clip-path-2);}.cls-268{fill:#f4df78;}.cls-269{fill:#f2dc76;}.cls-270{fill:#f0d874;}.cls-271{fill:#efd774;}.cls-272{fill:#eed572;}.cls-273{fill:#ecd170;}.cls-274{fill:#ebd06f;}.cls-275{fill:#eacf6f;}.cls-276{fill:#eace6e;}.cls-277{fill:#e8cc6d;}.cls-278{fill:#e7c96b;}.cls-279{fill:#e6c86b;}.cls-280{fill:#e5c76a;}.cls-281{fill:#e4c569;}.cls-282{fill:#e4c468;}.cls-283{fill:#e2c267;}.cls-284{fill:#e0bd65;}.cls-285{fill:#ddb963;}.cls-286{fill:#dcb661;}.cls-287{fill:#dab460;}.cls-288{fill:#d9b15e;}.cls-289{fill:#d6ad5c;}.cls-290{fill:#d2a657;}.cls-291{fill:#d1a456;}.cls-292{fill:#c99950;}.cls-293{fill:#c89850;}.cls-294{fill:#c6974f;}.cls-295{fill:#c5964f;}.cls-296{fill:#c1924e;}.cls-297{fill:#c0914d;}.cls-298{fill:#bd8e4c;}.cls-299{fill:#b98b4b;}.cls-300{fill:#b88a4a;}.cls-301{fill:#b48649;}.cls-302{fill:#b08348;}.cls-303{fill:#af8247;}.cls-304{fill:#ab7e46;}.cls-305{fill:#aa7d45;}.cls-306{fill:#a67a44;}.cls-307{fill:#a57944;}.cls-308{fill:#a47843;}.cls-309{fill:#a07542;}.cls-310{fill:#9b7040;}.cls-311{fill:#9a6f40;}.cls-312{fill:#996e40;}.cls-313{fill:#986d3f;}.cls-314{fill:#946a3e;}.cls-315{fill:#93693d;}.cls-316{fill:#92683d;}.cls-317{fill:#91673d;}.cls-318{fill:#90663c;}.cls-319{fill:#8d643b;}.cls-320{fill:#8a613a;}.cls-321{fill:#88603a;}.cls-322{fill:#875f3a;}.cls-323{fill:#865e39;}.cls-324{fill:#855d39;}.cls-325{fill:#835c38;}.cls-326{fill:#825b38;}.cls-327{fill:#815a38;}.cls-328{fill:#805937;}.cls-329{fill:#7e5737;}.cls-330{fill:#795335;}.cls-331{fill:#785234;}.cls-332{fill:#704b32;}.cls-333{fill:#68432f;}.cls-334{fill:#67422e;}.cls-335{fill:#65412e;}.cls-336{fill:#64402d;}.cls-337{fill:#5e3a2b;}.cls-338{fill:#5c392b;}.cls-339{fill:#5b382a;}.cls-340{fill:#533128;}</style><clipPath id="clip-path" transform="translate(0.2 0.2)"><rect class="cls-1" x="4.6" y="-0.94" width="4.25" height="20.84" rx="1.39" transform="translate(-3.95 4.89) rotate(-31.42)"/></clipPath><clipPath id="clip-path-2" transform="translate(0.2 0.2)"><path class="cls-1" d="M21.73,1,20.49.21a1.4,1.4,0,0,0-1.92.46L15.22,6.16c-.51.79-.14,1.36.38,2l1,1.45c.48.68.91,1.48,1.34.76l4.22-7.5A1.39,1.39,0,0,0,21.73,1Z"/></clipPath></defs><g id="Layer_2" data-name="Layer 2"><g id="Layer_1-2" data-name="Layer 1"><g id="FinalLogov1"><g class="cls-2"><rect class="cls-3" width="0.2" height="19.34"/><rect class="cls-3" x="0.2" width="0.05" height="19.34"/><rect class="cls-3" x="0.25" width="0.05" height="19.34"/><rect class="cls-3" x="0.3" width="0.05" height="19.34"/><rect class="cls-4" x="0.35" width="0.05" height="19.34"/><rect class="cls-4" x="0.4" width="0.05" height="19.34"/><rect class="cls-5" x="0.45" width="0.05" height="19.34"/><rect class="cls-6" x="0.5" width="0.05" height="19.34"/><rect class="cls-7" x="0.55" width="0.05" height="19.34"/><rect class="cls-8" x="0.6" width="0.05" height="19.34"/><rect class="cls-9" x="0.66" width="0.05" height="19.34"/><rect class="cls-10" x="0.71" width="0.05" height="19.34"/><rect class="cls-11" x="0.76" width="0.05" height="19.34"/><rect class="cls-12" x="0.81" width="0.05" height="19.34"/><rect class="cls-13" x="0.86" width="0.05" height="19.34"/><rect class="cls-14" x="0.91" width="0.05" height="19.34"/><rect class="cls-15" x="0.96" width="0.05" height="19.34"/><rect class="cls-16" x="1.01" width="0.05" height="19.34"/><rect class="cls-17" x="1.06" width="0.05" height="19.34"/><rect class="cls-17" x="1.12" width="0.05" height="19.34"/><rect class="cls-18" x="1.17" width="0.05" height="19.34"/><rect class="cls-19" x="1.22" width="0.05" height="19.34"/><rect class="cls-20" x="1.27" width="0.05" height="19.34"/><rect class="cls-21" x="1.32" width="0.05" height="19.34"/><rect class="cls-22" x="1.37" width="0.05" height="19.34"/><rect class="cls-23" x="1.42" width="0.05" height="19.34"/><rect class="cls-24" x="1.47" width="0.05" height="19.34"/><rect class="cls-25" x="1.52" width="0.05" height="19.34"/><rect class="cls-26" x="1.58" width="0.05" height="19.34"/><rect class="cls-27" x="1.63" width="0.05" height="19.34"/><rect class="cls-28" x="1.68" width="0.05" height="19.34"/><rect class="cls-28" x="1.73" width="0.05" height="19.34"/><rect class="cls-29" x="1.78" width="0.05" height="19.34"/><rect class="cls-30" x="1.83" width="0.05" height="19.34"/><rect class="cls-31" x="1.88" width="0.05" height="19.34"/><rect class="cls-32" x="1.93" width="0.05" height="19.34"/><rect class="cls-33" x="1.98" width="0.05" height="19.34"/><rect class="cls-34" x="2.03" width="0.05" height="19.34"/><rect class="cls-35" x="2.09" width="0.05" height="19.34"/><rect class="cls-36" x="2.14" width="0.05" height="19.34"/><rect class="cls-37" x="2.19" width="0.05" height="19.34"/><rect class="cls-38" x="2.24" width="0.05" height="19.34"/><rect class="cls-39" x="2.29" width="0.05" height="19.34"/><rect class="cls-40" x="2.34" width="0.05" height="19.34"/><rect class="cls-41" x="2.39" width="0.05" height="19.34"/><rect class="cls-42" x="2.44" width="0.05" height="19.34"/><rect class="cls-43" x="2.49" width="0.05" height="19.34"/><rect class="cls-44" x="2.55" width="0.05" height="19.34"/><rect class="cls-45" x="2.6" width="0.05" height="19.34"/><rect class="cls-46" x="2.65" width="0.05" height="19.34"/><rect class="cls-47" x="2.7" width="0.05" height="19.34"/><rect class="cls-48" x="2.75" width="0.05" height="19.34"/><rect class="cls-49" x="2.8" width="0.05" height="19.34"/><rect class="cls-50" x="2.85" width="0.05" height="19.34"/><rect class="cls-51" x="2.9" width="0.05" height="19.34"/><rect class="cls-52" x="2.95" width="0.05" height="19.34"/><rect class="cls-53" x="3" width="0.05" height="19.34"/><rect class="cls-54" x="3.06" width="0.05" height="19.34"/><rect class="cls-55" x="3.11" width="0.05" height="19.34"/><rect class="cls-56" x="3.16" width="0.05" height="19.34"/><rect class="cls-57" x="3.21" width="0.05" height="19.34"/><rect class="cls-58" x="3.26" width="0.05" height="19.34"/><rect class="cls-59" x="3.31" width="0.05" height="19.34"/><rect class="cls-60" x="3.36" width="0.05" height="19.34"/><rect class="cls-61" x="3.41" width="0.05" height="19.34"/><rect class="cls-62" x="3.46" width="0.05" height="19.34"/><rect class="cls-63" x="3.52" width="0.05" height="19.34"/><rect class="cls-64" x="3.57" width="0.05" height="19.34"/><rect class="cls-65" x="3.62" width="0.05" height="19.34"/><rect class="cls-66" x="3.67" width="0.05" height="19.34"/><rect class="cls-67" x="3.72" width="0.05" height="19.34"/><rect class="cls-68" x="3.77" width="0.05" height="19.34"/><rect class="cls-69" x="3.82" width="0.05" height="19.34"/><rect class="cls-70" x="3.87" width="0.05" height="19.34"/><rect class="cls-71" x="3.92" width="0.05" height="19.34"/><rect class="cls-72" x="3.98" width="0.05" height="19.34"/><rect class="cls-73" x="4.03" width="0.05" height="19.34"/><rect class="cls-74" x="4.08" width="0.05" height="19.34"/><rect class="cls-75" x="4.13" width="0.05" height="19.34"/><rect class="cls-76" x="4.18" width="0.05" height="19.34"/><rect class="cls-77" x="4.23" width="0.05" height="19.34"/><rect class="cls-78" x="4.28" width="0.05" height="19.34"/><rect class="cls-79" x="4.33" width="0.05" height="19.34"/><rect class="cls-80" x="4.38" width="0.05" height="19.34"/><rect class="cls-81" x="4.43" width="0.05" height="19.34"/><rect class="cls-82" x="4.49" width="0.05" height="19.34"/><rect class="cls-83" x="4.54" width="0.05" height="19.34"/><rect class="cls-84" x="4.59" width="0.05" height="19.34"/><rect class="cls-85" x="4.64" width="0.05" height="19.34"/><rect class="cls-86" x="4.69" width="0.05" height="19.34"/><rect class="cls-87" x="4.74" width="0.05" height="19.34"/><rect class="cls-88" x="4.79" width="0.05" height="19.34"/><rect class="cls-89" x="4.84" width="0.05" height="19.34"/><rect class="cls-90" x="4.89" width="0.05" height="19.34"/><rect class="cls-91" x="4.95" width="0.05" height="19.34"/><rect class="cls-92" x="5" width="0.05" height="19.34"/><rect class="cls-93" x="5.05" width="0.05" height="19.34"/><rect class="cls-94" x="5.1" width="0.05" height="19.34"/><rect class="cls-95" x="5.15" width="0.05" height="19.34"/><rect class="cls-96" x="5.2" width="0.05" height="19.34"/><rect class="cls-97" x="5.25" width="0.05" height="19.34"/><rect class="cls-98" x="5.3" width="0.05" height="19.34"/><rect class="cls-99" x="5.35" width="0.05" height="19.34"/><rect class="cls-100" x="5.4" width="0.05" height="19.34"/><rect class="cls-101" x="5.46" width="0.05" height="19.34"/><rect class="cls-102" x="5.51" width="0.05" height="19.34"/><rect class="cls-103" x="5.56" width="0.05" height="19.34"/><rect class="cls-104" x="5.61" width="0.05" height="19.34"/><rect class="cls-105" x="5.66" width="0.05" height="19.34"/><rect class="cls-106" x="5.71" width="0.05" height="19.34"/><rect class="cls-107" x="5.76" width="0.05" height="19.34"/><rect class="cls-108" x="5.81" width="0.05" height="19.34"/><rect class="cls-109" x="5.86" width="0.05" height="19.34"/><rect class="cls-110" x="5.92" width="0.05" height="19.34"/><rect class="cls-111" x="5.97" width="0.05" height="19.34"/><rect class="cls-112" x="6.02" width="0.05" height="19.34"/><rect class="cls-113" x="6.07" width="0.05" height="19.34"/><rect class="cls-114" x="6.12" width="0.05" height="19.34"/><rect class="cls-115" x="6.17" width="0.05" height="19.34"/><rect class="cls-116" x="6.22" width="0.05" height="19.34"/><rect class="cls-117" x="6.27" width="0.05" height="19.34"/><rect class="cls-118" x="6.32" width="0.05" height="19.34"/><rect class="cls-119" x="6.37" width="0.05" height="19.34"/><rect class="cls-120" x="6.43" width="0.05" height="19.34"/><rect class="cls-121" x="6.48" width="0.05" height="19.34"/><rect class="cls-122" x="6.53" width="0.05" height="19.34"/><rect class="cls-123" x="6.58" width="0.05" height="19.34"/><rect class="cls-124" x="6.63" width="0.05" height="19.34"/><rect class="cls-125" x="6.68" width="0.05" height="19.34"/><rect class="cls-126" x="6.73" width="0.05" height="19.34"/><rect class="cls-127" x="6.78" width="0.05" height="19.34"/><rect class="cls-128" x="6.83" width="0.05" height="19.34"/><rect class="cls-129" x="6.89" width="0.05" height="19.34"/><rect class="cls-130" x="6.94" width="0.05" height="19.34"/><rect class="cls-130" x="6.99" width="0.04" height="19.34"/><rect class="cls-130" x="7.03" width="0.04" height="19.34"/><rect class="cls-131" x="7.08" width="0.04" height="19.34"/><rect class="cls-132" x="7.12" width="0.04" height="19.34"/><rect class="cls-132" x="7.16" width="0.04" height="19.34"/><rect class="cls-133" x="7.21" width="0.04" height="19.34"/><rect class="cls-134" x="7.25" width="0.04" height="19.34"/><rect class="cls-135" x="7.3" width="0.04" height="19.34"/><rect class="cls-135" x="7.34" width="0.04" height="19.34"/><rect class="cls-136" x="7.38" width="0.04" height="19.34"/><rect class="cls-137" x="7.43" width="0.04" height="19.34"/><rect class="cls-138" x="7.47" width="0.04" height="19.34"/><rect class="cls-139" x="7.52" width="0.04" height="19.34"/><rect class="cls-140" x="7.56" width="0.04" height="19.34"/><rect class="cls-141" x="7.61" width="0.04" height="19.34"/><rect class="cls-142" x="7.65" width="0.04" height="19.34"/><rect class="cls-143" x="7.69" width="0.04" height="19.34"/><rect class="cls-144" x="7.74" width="0.04" height="19.34"/><rect class="cls-145" x="7.78" width="0.04" height="19.34"/><rect class="cls-146" x="7.83" width="0.04" height="19.34"/><rect class="cls-147" x="7.87" width="0.04" height="19.34"/><rect class="cls-148" x="7.91" width="0.04" height="19.34"/><rect class="cls-149" x="7.96" width="0.04" height="19.34"/><rect class="cls-150" x="8" width="0.04" height="19.34"/><rect class="cls-151" x="8.05" width="0.04" height="19.34"/><rect class="cls-152" x="8.09" width="0.04" height="19.34"/><rect class="cls-153" x="8.14" width="0.04" height="19.34"/><rect class="cls-154" x="8.18" width="0.04" height="19.34"/><rect class="cls-155" x="8.22" width="0.04" height="19.34"/><rect class="cls-156" x="8.27" width="0.04" height="19.34"/><rect class="cls-157" x="8.31" width="0.04" height="19.34"/><rect class="cls-158" x="8.36" width="0.04" height="19.34"/><rect class="cls-159" x="8.4" width="0.04" height="19.34"/><rect class="cls-160" x="8.44" width="0.04" height="19.34"/><rect class="cls-161" x="8.49" width="0.04" height="19.34"/><rect class="cls-162" x="8.53" width="0.04" height="19.34"/><rect class="cls-163" x="8.58" width="0.04" height="19.34"/><rect class="cls-164" x="8.62" width="0.04" height="19.34"/><rect class="cls-165" x="8.66" width="0.04" height="19.34"/><rect class="cls-166" x="8.71" width="0.04" height="19.34"/><rect class="cls-167" x="8.75" width="0.04" height="19.34"/><rect class="cls-168" x="8.8" width="0.04" height="19.34"/><rect class="cls-169" x="8.84" width="0.04" height="19.34"/><rect class="cls-170" x="8.89" width="0.04" height="19.34"/><rect class="cls-171" x="8.93" width="0.04" height="19.34"/><rect class="cls-172" x="8.97" width="0.04" height="19.34"/><rect class="cls-173" x="9.02" width="0.04" height="19.34"/><rect class="cls-174" x="9.06" width="0.04" height="19.34"/><rect class="cls-175" x="9.11" width="0.04" height="19.34"/><rect class="cls-176" x="9.15" width="0.04" height="19.34"/><rect class="cls-177" x="9.19" width="0.04" height="19.34"/><rect class="cls-178" x="9.24" width="0.04" height="19.34"/><rect class="cls-179" x="9.28" width="0.04" height="19.34"/><rect class="cls-180" x="9.33" width="0.04" height="19.34"/><rect class="cls-181" x="9.37" width="0.04" height="19.34"/><rect class="cls-182" x="9.41" width="0.04" height="19.34"/><rect class="cls-183" x="9.46" width="0.04" height="19.34"/><rect class="cls-184" x="9.5" width="0.04" height="19.34"/><rect class="cls-185" x="9.55" width="0.04" height="19.34"/><rect class="cls-186" x="9.59" width="0.04" height="19.34"/><rect class="cls-187" x="9.64" width="0.04" height="19.34"/><rect class="cls-188" x="9.68" width="0.04" height="19.34"/><rect class="cls-189" x="9.72" width="0.04" height="19.34"/><rect class="cls-190" x="9.77" width="0.04" height="19.34"/><rect class="cls-191" x="9.81" width="0.04" height="19.34"/><rect class="cls-192" x="9.86" width="0.04" height="19.34"/><rect class="cls-193" x="9.9" width="0.04" height="19.34"/><rect class="cls-194" x="9.94" width="0.04" height="19.34"/><rect class="cls-195" x="9.99" width="0.04" height="19.34"/><rect class="cls-196" x="10.03" width="0.04" height="19.34"/><rect class="cls-197" x="10.08" width="0.04" height="19.34"/><rect class="cls-197" x="10.12" width="0.05" height="19.34"/><rect class="cls-198" x="10.17" width="0.05" height="19.34"/><rect class="cls-199" x="10.21" width="0.05" height="19.34"/><rect class="cls-200" x="10.26" width="0.05" height="19.34"/><rect class="cls-201" x="10.31" width="0.05" height="19.34"/><rect class="cls-202" x="10.35" width="0.05" height="19.34"/><rect class="cls-203" x="10.4" width="0.05" height="19.34"/><rect class="cls-204" x="10.45" width="0.05" height="19.34"/><rect class="cls-205" x="10.49" width="0.05" height="19.34"/><rect class="cls-206" x="10.54" width="0.05" height="19.34"/><rect class="cls-207" x="10.59" width="0.05" height="19.34"/><rect class="cls-208" x="10.63" width="0.05" height="19.34"/><rect class="cls-209" x="10.68" width="0.05" height="19.34"/><rect class="cls-210" x="10.73" width="0.05" height="19.34"/><rect class="cls-211" x="10.77" width="0.05" height="19.34"/><rect class="cls-212" x="10.82" width="0.05" height="19.34"/><rect class="cls-213" x="10.87" width="0.05" height="19.34"/><rect class="cls-214" x="10.91" width="0.05" height="19.34"/><rect class="cls-215" x="10.96" width="0.05" height="19.34"/><rect class="cls-216" x="11.01" width="0.05" height="19.34"/><rect class="cls-217" x="11.05" width="0.05" height="19.34"/><rect class="cls-218" x="11.1" width="0.05" height="19.34"/><rect class="cls-219" x="11.15" width="0.05" height="19.34"/><rect class="cls-220" x="11.19" width="0.05" height="19.34"/><rect class="cls-221" x="11.24" width="0.05" height="19.34"/><rect class="cls-222" x="11.29" width="0.05" height="19.34"/><rect class="cls-223" x="11.33" width="0.05" height="19.34"/><rect class="cls-224" x="11.38" width="0.05" height="19.34"/><rect class="cls-225" x="11.42" width="0.05" height="19.34"/><rect class="cls-226" x="11.47" width="0.05" height="19.34"/><rect class="cls-227" x="11.52" width="0.05" height="19.34"/><rect class="cls-228" x="11.56" width="0.05" height="19.34"/><rect class="cls-229" x="11.61" width="0.05" height="19.34"/><rect class="cls-230" x="11.66" width="0.05" height="19.34"/><rect class="cls-231" x="11.7" width="0.05" height="19.34"/><rect class="cls-232" x="11.75" width="0.05" height="19.34"/><rect class="cls-233" x="11.8" width="0.05" height="19.34"/><rect class="cls-234" x="11.84" width="0.05" height="19.34"/><rect class="cls-235" x="11.89" width="0.05" height="19.34"/><rect class="cls-236" x="11.94" width="0.05" height="19.34"/><rect class="cls-237" x="11.98" width="0.05" height="19.34"/><rect class="cls-238" x="12.03" width="0.05" height="19.34"/><rect class="cls-239" x="12.08" width="0.05" height="19.34"/><rect class="cls-240" x="12.12" width="0.05" height="19.34"/><rect class="cls-241" x="12.17" width="0.05" height="19.34"/><rect class="cls-242" x="12.22" width="0.05" height="19.34"/><rect class="cls-243" x="12.26" width="0.05" height="19.34"/><rect class="cls-244" x="12.31" width="0.05" height="19.34"/><rect class="cls-245" x="12.36" width="0.05" height="19.34"/><rect class="cls-246" x="12.4" width="0.05" height="19.34"/><rect class="cls-247" x="12.45" width="0.05" height="19.34"/><rect class="cls-248" x="12.5" width="0.05" height="19.34"/><rect class="cls-249" x="12.54" width="0.05" height="19.34"/><rect class="cls-250" x="12.59" width="0.05" height="19.34"/><rect class="cls-251" x="12.64" width="0.05" height="19.34"/><rect class="cls-252" x="12.68" width="0.05" height="19.34"/><rect class="cls-253" x="12.73" width="0.05" height="19.34"/><rect class="cls-254" x="12.78" width="0.05" height="19.34"/><rect class="cls-255" x="12.82" width="0.05" height="19.34"/><rect class="cls-256" x="12.87" width="0.05" height="19.34"/><rect class="cls-257" x="12.92" width="0.05" height="19.34"/><rect class="cls-258" x="12.96" width="0.05" height="19.34"/><rect class="cls-259" x="13.01" width="0.05" height="19.34"/><rect class="cls-260" x="13.06" width="0.05" height="19.34"/><rect class="cls-261" x="13.1" width="0.05" height="19.34"/><rect class="cls-262" x="13.15" width="0.05" height="19.34"/><rect class="cls-263" x="13.19" width="0.05" height="19.34"/><rect class="cls-264" x="13.24" width="0.05" height="19.34"/><rect class="cls-265" x="13.29" width="0.05" height="19.34"/><rect class="cls-266" x="13.33" width="0.05" height="19.34"/><rect class="cls-266" x="13.38" width="0.45" height="19.34"/></g><g class="cls-267"><polygon class="cls-246" points="14.92 0.01 14.9 4.29 14.9 0.01 14.92 0.01"/><polygon class="cls-245" points="14.95 0.01 14.9 10.16 14.9 4.29 14.92 0.01 14.95 0.01"/><polygon class="cls-244" points="14.98 0.01 14.93 11.3 14.9 11.3 14.9 10.16 14.95 0.01 14.98 0.01"/><polygon class="cls-243" points="15.01 0.01 14.95 11.3 14.93 11.3 14.98 0.01 15.01 0.01"/><polygon class="cls-242" points="15.03 0.01 14.98 11.3 14.95 11.3 15.01 0.01 15.03 0.01"/><polygon class="cls-241" points="15.06 0.01 15.01 11.3 14.98 11.3 15.03 0.01 15.06 0.01"/><polygon class="cls-240" points="15.09 0.01 15.04 11.3 15.01 11.3 15.06 0.01 15.09 0.01"/><polygon class="cls-239" points="15.11 0.01 15.06 11.3 15.04 11.3 15.09 0.01 15.11 0.01"/><polygon class="cls-238" points="15.14 0.01 15.09 11.3 15.06 11.3 15.11 0.01 15.14 0.01"/><polygon class="cls-237" points="15.17 0.01 15.12 11.3 15.09 11.3 15.14 0.01 15.17 0.01"/><polygon class="cls-236" points="15.2 0.01 15.14 11.3 15.12 11.3 15.17 0.01 15.2 0.01"/><polygon class="cls-235" points="15.22 0.01 15.17 11.3 15.14 11.3 15.2 0.01 15.22 0.01"/><polygon class="cls-234" points="15.25 0.01 15.2 11.3 15.17 11.3 15.22 0.01 15.25 0.01"/><polygon class="cls-233" points="15.28 0.01 15.22 11.3 15.2 11.3 15.25 0.01 15.28 0.01"/><polygon class="cls-232" points="15.3 0.01 15.25 11.3 15.22 11.3 15.28 0.01 15.3 0.01"/><polygon class="cls-231" points="15.33 0.01 15.28 11.3 15.25 11.3 15.3 0.01 15.33 0.01"/><polygon class="cls-230" points="15.36 0.01 15.31 11.3 15.28 11.3 15.33 0.01 15.36 0.01"/><polygon class="cls-229" points="15.39 0.01 15.33 11.3 15.31 11.3 15.36 0.01 15.39 0.01"/><polygon class="cls-228" points="15.41 0.01 15.36 11.3 15.33 11.3 15.39 0.01 15.41 0.01"/><polygon class="cls-227" points="15.44 0.01 15.39 11.3 15.36 11.3 15.41 0.01 15.44 0.01"/><polygon class="cls-226" points="15.47 0.01 15.42 11.3 15.39 11.3 15.44 0.01 15.47 0.01"/><polygon class="cls-225" points="15.49 0.01 15.44 11.3 15.42 11.3 15.47 0.01 15.49 0.01"/><polygon class="cls-224" points="15.52 0.01 15.47 11.3 15.44 11.3 15.49 0.01 15.52 0.01"/><polygon class="cls-223" points="15.55 0.01 15.5 11.3 15.47 11.3 15.52 0.01 15.55 0.01"/><polygon class="cls-222" points="15.58 0.01 15.53 11.3 15.5 11.3 15.55 0.01 15.58 0.01"/><polygon class="cls-221" points="15.6 0.01 15.55 11.3 15.53 11.3 15.58 0.01 15.6 0.01"/><polygon class="cls-220" points="15.63 0.01 15.58 11.3 15.55 11.3 15.6 0.01 15.63 0.01"/><polygon class="cls-219" points="15.66 0.01 15.61 11.3 15.58 11.3 15.63 0.01 15.66 0.01"/><polygon class="cls-218" points="15.69 0.01 15.63 11.3 15.61 11.3 15.66 0.01 15.69 0.01"/><polygon class="cls-217" points="15.71 0.01 15.66 11.3 15.63 11.3 15.69 0.01 15.71 0.01"/><polygon class="cls-216" points="15.74 0.01 15.69 11.3 15.66 11.3 15.71 0.01 15.74 0.01"/><polygon class="cls-215" points="15.77 0.01 15.71 11.3 15.69 11.3 15.74 0.01 15.77 0.01"/><polygon class="cls-214" points="15.79 0.01 15.74 11.3 15.71 11.3 15.77 0.01 15.79 0.01"/><polygon class="cls-213" points="15.82 0.01 15.77 11.3 15.74 11.3 15.79 0.01 15.82 0.01"/><polygon class="cls-212" points="15.85 0.01 15.8 11.3 15.77 11.3 15.82 0.01 15.85 0.01"/><polygon class="cls-211" points="15.88 0.01 15.82 11.3 15.8 11.3 15.85 0.01 15.88 0.01"/><polygon class="cls-210" points="15.9 0.01 15.85 11.3 15.82 11.3 15.88 0.01 15.9 0.01"/><polygon class="cls-209" points="15.93 0.01 15.88 11.3 15.85 11.3 15.9 0.01 15.93 0.01"/><polygon class="cls-208" points="15.96 0.01 15.9 11.3 15.88 11.3 15.93 0.01 15.96 0.01"/><polygon class="cls-207" points="15.98 0.01 15.93 11.3 15.9 11.3 15.96 0.01 15.98 0.01"/><polygon class="cls-206" points="16.01 0.01 15.96 11.3 15.93 11.3 15.98 0.01 16.01 0.01"/><polygon class="cls-205" points="16.04 0.01 15.99 11.3 15.96 11.3 16.01 0.01 16.04 0.01"/><polygon class="cls-204" points="16.07 0.01 16.01 11.3 15.99 11.3 16.04 0.01 16.07 0.01"/><polygon class="cls-203" points="16.09 0.01 16.04 11.3 16.01 11.3 16.07 0.01 16.09 0.01"/><polygon class="cls-202" points="16.12 0.01 16.07 11.3 16.04 11.3 16.09 0.01 16.12 0.01"/><polygon class="cls-201" points="16.15 0.01 16.1 11.3 16.07 11.3 16.12 0.01 16.15 0.01"/><polygon class="cls-200" points="16.18 0.01 16.12 11.3 16.1 11.3 16.15 0.01 16.18 0.01"/><polygon class="cls-199" points="16.2 0.01 16.15 11.3 16.12 11.3 16.18 0.01 16.2 0.01"/><polygon class="cls-198" points="16.23 0.01 16.18 11.3 16.15 11.3 16.2 0.01 16.23 0.01"/><polygon class="cls-197" points="16.26 0.01 16.2 11.3 16.18 11.3 16.23 0.01 16.26 0.01"/><polygon class="cls-197" points="16.29 0.01 16.23 11.3 16.2 11.3 16.26 0.01 16.29 0.01"/><polygon class="cls-196" points="16.31 0.01 16.26 11.3 16.23 11.3 16.29 0.01 16.31 0.01"/><polygon class="cls-195" points="16.34 0.01 16.29 11.3 16.26 11.3 16.31 0.01 16.34 0.01"/><polygon class="cls-268" points="16.37 0.01 16.32 11.3 16.29 11.3 16.34 0.01 16.37 0.01"/><polygon class="cls-194" points="16.4 0.01 16.35 11.3 16.32 11.3 16.37 0.01 16.4 0.01"/><polygon class="cls-193" points="16.43 0.01 16.38 11.3 16.35 11.3 16.4 0.01 16.43 0.01"/><polygon class="cls-269" points="16.46 0.01 16.4 11.3 16.38 11.3 16.43 0.01 16.46 0.01"/><polygon class="cls-191" points="16.48 0.01 16.43 11.3 16.4 11.3 16.46 0.01 16.48 0.01"/><polygon class="cls-190" points="16.51 0.01 16.46 11.3 16.43 11.3 16.48 0.01 16.51 0.01"/><polygon class="cls-189" points="16.54 0.01 16.49 11.3 16.46 11.3 16.51 0.01 16.54 0.01"/><polygon class="cls-270" points="16.57 0.01 16.52 11.3 16.49 11.3 16.54 0.01 16.57 0.01"/><polygon class="cls-271" points="16.6 0.01 16.55 11.3 16.52 11.3 16.57 0.01 16.6 0.01"/><polygon class="cls-187" points="16.63 0.01 16.57 11.3 16.55 11.3 16.6 0.01 16.63 0.01"/><polygon class="cls-272" points="16.66 0.01 16.6 11.3 16.57 11.3 16.63 0.01 16.66 0.01"/><polygon class="cls-185" points="16.68 0.01 16.63 11.3 16.6 11.3 16.66 0.01 16.68 0.01"/><polygon class="cls-184" points="16.71 0.01 16.66 11.3 16.63 11.3 16.68 0.01 16.71 0.01"/><polygon class="cls-183" points="16.74 0.01 16.69 11.3 16.66 11.3 16.71 0.01 16.74 0.01"/><polygon class="cls-273" points="16.77 0.01 16.72 11.3 16.69 11.3 16.74 0.01 16.77 0.01"/><polygon class="cls-274" points="16.8 0.01 16.75 11.3 16.72 11.3 16.77 0.01 16.8 0.01"/><polygon class="cls-275" points="16.83 0.01 16.77 11.3 16.75 11.3 16.8 0.01 16.83 0.01"/><polygon class="cls-276" points="16.85 0.01 16.8 11.3 16.77 11.3 16.83 0.01 16.85 0.01"/><polygon class="cls-179" points="16.88 0.01 16.83 11.3 16.8 11.3 16.85 0.01 16.88 0.01"/><polygon class="cls-277" points="16.91 0.01 16.86 11.3 16.83 11.3 16.88 0.01 16.91 0.01"/><polygon class="cls-177" points="16.94 0.01 16.89 11.3 16.86 11.3 16.91 0.01 16.94 0.01"/><polygon class="cls-176" points="16.97 0.01 16.91 11.3 16.89 11.3 16.94 0.01 16.97 0.01"/><polygon class="cls-278" points="17 0.01 16.94 11.3 16.91 11.3 16.97 0.01 17 0.01"/><polygon class="cls-279" points="17.02 0.01 16.97 11.3 16.94 11.3 17 0.01 17.02 0.01"/><polygon class="cls-280" points="17.05 0.01 17 11.3 16.97 11.3 17.02 0.01 17.05 0.01"/><polygon class="cls-173" points="17.08 0.01 17.03 11.3 17 11.3 17.05 0.01 17.08 0.01"/><polygon class="cls-281" points="17.11 0.01 17.06 11.3 17.03 11.3 17.08 0.01 17.11 0.01"/><polygon class="cls-282" points="17.14 0.01 17.09 11.3 17.06 11.3 17.11 0.01 17.14 0.01"/><polygon class="cls-170" points="17.17 0.01 17.11 11.3 17.09 11.3 17.14 0.01 17.17 0.01"/><polygon class="cls-283" points="17.2 0.01 17.14 11.3 17.11 11.3 17.17 0.01 17.2 0.01"/><polygon class="cls-168" points="17.22 0.01 17.17 11.3 17.14 11.3 17.2 0.01 17.22 0.01"/><polygon class="cls-167" points="17.25 0.01 17.2 11.3 17.17 11.3 17.22 0.01 17.25 0.01"/><polygon class="cls-165" points="17.28 0.01 17.23 11.3 17.2 11.3 17.25 0.01 17.28 0.01"/><polygon class="cls-284" points="17.31 0.01 17.26 11.3 17.23 11.3 17.28 0.01 17.31 0.01"/><polygon class="cls-164" points="17.34 0.01 17.29 11.3 17.26 11.3 17.31 0.01 17.34 0.01"/><polygon class="cls-163" points="17.37 0.01 17.31 11.3 17.29 11.3 17.34 0.01 17.37 0.01"/><polygon class="cls-162" points="17.39 0.01 17.34 11.3 17.31 11.3 17.37 0.01 17.39 0.01"/><polygon class="cls-285" points="17.42 0.01 17.37 11.3 17.34 11.3 17.39 0.01 17.42 0.01"/><polygon class="cls-160" points="17.45 0.01 17.4 11.3 17.37 11.3 17.42 0.01 17.45 0.01"/><polygon class="cls-159" points="17.48 0.01 17.43 11.3 17.4 11.3 17.45 0.01 17.48 0.01"/><polygon class="cls-286" points="17.51 0.01 17.46 11.3 17.43 11.3 17.48 0.01 17.51 0.01"/><polygon class="cls-157" points="17.54 0.01 17.48 11.3 17.46 11.3 17.51 0.01 17.54 0.01"/><polygon class="cls-287" points="17.57 0.01 17.51 11.3 17.48 11.3 17.54 0.01 17.57 0.01"/><polygon class="cls-155" points="17.59 0.01 17.54 11.3 17.51 11.3 17.57 0.01 17.59 0.01"/><polygon class="cls-154" points="17.62 0.01 17.57 11.3 17.54 11.3 17.59 0.01 17.62 0.01"/><polygon class="cls-288" points="17.65 0.01 17.6 11.3 17.57 11.3 17.62 0.01 17.65 0.01"/><polygon class="cls-152" points="17.68 0.01 17.63 11.3 17.6 11.3 17.65 0.01 17.68 0.01"/><polygon class="cls-151" points="17.71 0.01 17.66 11.3 17.63 11.3 17.68 0.01 17.71 0.01"/><polygon class="cls-150" points="17.73 0.01 17.68 11.3 17.66 11.3 17.71 0.01 17.73 0.01"/><polygon class="cls-289" points="17.76 0.01 17.71 11.3 17.68 11.3 17.73 0.01 17.76 0.01"/><polygon class="cls-148" points="17.79 0.01 17.74 11.3 17.71 11.3 17.76 0.01 17.79 0.01"/><polygon class="cls-147" points="17.82 0.01 17.77 11.3 17.74 11.3 17.79 0.01 17.82 0.01"/><polygon class="cls-146" points="17.85 0.01 17.8 11.3 17.77 11.3 17.82 0.01 17.85 0.01"/><polygon class="cls-145" points="17.88 0.01 17.82 11.3 17.8 11.3 17.85 0.01 17.88 0.01"/><polygon class="cls-144" points="17.91 0.01 17.85 11.3 17.82 11.3 17.88 0.01 17.91 0.01"/><polygon class="cls-142" points="17.93 0.01 17.88 11.3 17.85 11.3 17.91 0.01 17.93 0.01"/><polygon class="cls-290" points="17.96 0.01 17.91 11.3 17.88 11.3 17.93 0.01 17.96 0.01"/><polygon class="cls-140" points="17.99 0.01 17.94 11.3 17.91 11.3 17.96 0.01 17.99 0.01"/><polygon class="cls-291" points="18.02 0.01 17.97 11.3 17.94 11.3 17.99 0.01 18.02 0.01"/><polygon class="cls-138" points="18.05 0.01 18 11.3 17.97 11.3 18.02 0.01 18.05 0.01"/><polygon class="cls-137" points="18.08 0.01 18.02 11.3 18 11.3 18.05 0.01 18.08 0.01"/><polygon class="cls-136" points="18.11 0.01 18.05 11.3 18.02 11.3 18.08 0.01 18.11 0.01"/><polygon class="cls-135" points="18.13 0.01 18.08 11.3 18.05 11.3 18.11 0.01 18.13 0.01"/><polygon class="cls-134" points="18.16 0.01 18.11 11.3 18.08 11.3 18.13 0.01 18.16 0.01"/><polygon class="cls-133" points="18.19 0.01 18.14 11.3 18.11 11.3 18.16 0.01 18.19 0.01"/><polygon class="cls-132" points="18.22 0.01 18.17 11.3 18.14 11.3 18.19 0.01 18.22 0.01"/><polygon class="cls-131" points="18.25 0.01 18.2 11.3 18.17 11.3 18.22 0.01 18.25 0.01"/><polygon class="cls-130" points="18.27 0.01 18.22 11.3 18.2 11.3 18.25 0.01 18.27 0.01"/><polygon class="cls-130" points="18.3 0.01 18.25 11.3 18.22 11.3 18.27 0.01 18.3 0.01"/><polygon class="cls-129" points="18.33 0.01 18.28 11.3 18.25 11.3 18.3 0.01 18.33 0.01"/><polygon class="cls-292" points="18.36 0.01 18.31 11.3 18.28 11.3 18.33 0.01 18.36 0.01"/><polygon class="cls-293" points="18.39 0.01 18.34 11.3 18.31 11.3 18.36 0.01 18.39 0.01"/><polygon class="cls-127" points="18.42 0.01 18.37 11.3 18.34 11.3 18.39 0.01 18.42 0.01"/><polygon class="cls-294" points="18.45 0.01 18.4 11.3 18.37 11.3 18.42 0.01 18.45 0.01"/><polygon class="cls-295" points="18.48 0.01 18.43 11.3 18.4 11.3 18.45 0.01 18.48 0.01"/><polygon class="cls-125" points="18.51 0.01 18.46 11.3 18.43 11.3 18.48 0.01 18.51 0.01"/><polygon class="cls-124" points="18.54 0.01 18.49 11.3 18.46 11.3 18.51 0.01 18.54 0.01"/><polygon class="cls-123" points="18.57 0.01 18.52 11.3 18.49 11.3 18.54 0.01 18.57 0.01"/><polygon class="cls-296" points="18.6 0.01 18.54 11.3 18.52 11.3 18.57 0.01 18.6 0.01"/><polygon class="cls-297" points="18.63 0.01 18.57 11.3 18.54 11.3 18.6 0.01 18.63 0.01"/><polygon class="cls-121" points="18.66 0.01 18.6 11.3 18.57 11.3 18.63 0.01 18.66 0.01"/><polygon class="cls-120" points="18.68 0.01 18.63 11.3 18.6 11.3 18.66 0.01 18.68 0.01"/><polygon class="cls-298" points="18.71 0.01 18.66 11.3 18.63 11.3 18.68 0.01 18.71 0.01"/><polygon class="cls-119" points="18.74 0.01 18.69 11.3 18.66 11.3 18.71 0.01 18.74 0.01"/><polygon class="cls-118" points="18.77 0.01 18.72 11.3 18.69 11.3 18.74 0.01 18.77 0.01"/><polygon class="cls-117" points="18.8 0.01 18.75 11.3 18.72 11.3 18.77 0.01 18.8 0.01"/><polygon class="cls-299" points="18.83 0.01 18.78 11.3 18.75 11.3 18.8 0.01 18.83 0.01"/><polygon class="cls-300" points="18.86 0.01 18.81 11.3 18.78 11.3 18.83 0.01 18.86 0.01"/><polygon class="cls-115" points="18.89 0.01 18.84 11.3 18.81 11.3 18.86 0.01 18.89 0.01"/><polygon class="cls-114" points="18.92 0.01 18.87 11.3 18.84 11.3 18.89 0.01 18.92 0.01"/><polygon class="cls-113" points="18.95 0.01 18.89 11.3 18.87 11.3 18.92 0.01 18.95 0.01"/><polygon class="cls-301" points="18.98 0.01 18.92 11.3 18.89 11.3 18.95 0.01 18.98 0.01"/><polygon class="cls-112" points="19.01 0.01 18.95 11.3 18.92 11.3 18.98 0.01 19.01 0.01"/><polygon class="cls-111" points="19.04 0.01 18.98 11.3 18.95 11.3 19.01 0.01 19.04 0.01"/><polygon class="cls-110" points="19.06 0.01 19.01 11.3 18.98 11.3 19.04 0.01 19.06 0.01"/><polygon class="cls-302" points="19.09 0.01 19.04 11.3 19.01 11.3 19.06 0.01 19.09 0.01"/><polygon class="cls-303" points="19.12 0.01 19.07 11.3 19.04 11.3 19.09 0.01 19.12 0.01"/><polygon class="cls-108" points="19.15 0.01 19.1 11.3 19.07 11.3 19.12 0.01 19.15 0.01"/><polygon class="cls-107" points="19.18 0.01 19.13 11.3 19.1 11.3 19.15 0.01 19.18 0.01"/><polygon class="cls-106" points="19.21 0.01 19.16 11.3 19.13 11.3 19.18 0.01 19.21 0.01"/><polygon class="cls-304" points="19.24 0.01 19.19 11.3 19.16 11.3 19.21 0.01 19.24 0.01"/><polygon class="cls-305" points="19.27 0.01 19.22 11.3 19.19 11.3 19.24 0.01 19.27 0.01"/><polygon class="cls-104" points="19.3 0.01 19.25 11.3 19.22 11.3 19.27 0.01 19.3 0.01"/><polygon class="cls-103" points="19.33 0.01 19.27 11.3 19.25 11.3 19.3 0.01 19.33 0.01"/><polygon class="cls-102" points="19.36 0.01 19.3 11.3 19.27 11.3 19.33 0.01 19.36 0.01"/><polygon class="cls-306" points="19.39 0.01 19.33 11.3 19.3 11.3 19.36 0.01 19.39 0.01"/><polygon class="cls-307" points="19.41 0.01 19.36 11.3 19.33 11.3 19.39 0.01 19.41 0.01"/><polygon class="cls-308" points="19.44 0.01 19.39 11.3 19.36 11.3 19.41 0.01 19.44 0.01"/><polygon class="cls-99" points="19.47 0.01 19.42 11.3 19.39 11.3 19.44 0.01 19.47 0.01"/><polygon class="cls-98" points="19.5 0.01 19.45 11.3 19.42 11.3 19.47 0.01 19.5 0.01"/><polygon class="cls-97" points="19.53 0.01 19.48 11.3 19.45 11.3 19.5 0.01 19.53 0.01"/><polygon class="cls-309" points="19.56 0.01 19.51 11.3 19.48 11.3 19.53 0.01 19.56 0.01"/><polygon class="cls-96" points="19.59 0.01 19.54 11.3 19.51 11.3 19.56 0.01 19.59 0.01"/><polygon class="cls-95" points="19.62 0.01 19.57 11.3 19.54 11.3 19.59 0.01 19.62 0.01"/><polygon class="cls-94" points="19.65 0.01 19.6 11.3 19.57 11.3 19.62 0.01 19.65 0.01"/><polygon class="cls-93" points="19.68 0.01 19.63 11.3 19.6 11.3 19.65 0.01 19.68 0.01"/><polygon class="cls-310" points="19.71 0.01 19.65 11.3 19.63 11.3 19.68 0.01 19.71 0.01"/><polygon class="cls-311" points="19.74 0.01 19.68 11.3 19.65 11.3 19.71 0.01 19.74 0.01"/><polygon class="cls-312" points="19.77 0.01 19.71 11.3 19.68 11.3 19.74 0.01 19.77 0.01"/><polygon class="cls-313" points="19.79 0.01 19.74 11.3 19.71 11.3 19.77 0.01 19.79 0.01"/><polygon class="cls-89" points="19.82 0.01 19.77 11.3 19.74 11.3 19.79 0.01 19.82 0.01"/><polygon class="cls-88" points="19.85 0.01 19.8 11.3 19.77 11.3 19.82 0.01 19.85 0.01"/><polygon class="cls-87" points="19.88 0.01 19.83 11.3 19.8 11.3 19.85 0.01 19.88 0.01"/><polygon class="cls-314" points="19.91 0.01 19.86 11.3 19.83 11.3 19.88 0.01 19.91 0.01"/><polygon class="cls-315" points="19.94 0.01 19.89 11.3 19.86 11.3 19.91 0.01 19.94 0.01"/><polygon class="cls-316" points="19.97 0.01 19.92 11.3 19.89 11.3 19.94 0.01 19.97 0.01"/><polygon class="cls-317" points="20 0.01 19.95 11.3 19.92 11.3 19.97 0.01 20 0.01"/><polygon class="cls-318" points="20.03 0.01 19.98 11.3 19.95 11.3 20 0.01 20.03 0.01"/><polygon class="cls-82" points="20.06 0.01 20 11.3 19.98 11.3 20.03 0.01 20.06 0.01"/><polygon class="cls-81" points="20.09 0.01 20.03 11.3 20 11.3 20.06 0.01 20.09 0.01"/><polygon class="cls-319" points="20.11 0.01 20.06 11.3 20.03 11.3 20.09 0.01 20.11 0.01"/><polygon class="cls-80" points="20.14 0.01 20.09 11.3 20.06 11.3 20.11 0.01 20.14 0.01"/><polygon class="cls-79" points="20.17 0.01 20.12 11.3 20.09 11.3 20.14 0.01 20.17 0.01"/><polygon class="cls-320" points="20.2 0.01 20.15 11.3 20.12 11.3 20.17 0.01 20.2 0.01"/><polygon class="cls-321" points="20.23 0.01 20.18 11.3 20.15 11.3 20.2 0.01 20.23 0.01"/><polygon class="cls-322" points="20.26 0.01 20.21 11.3 20.18 11.3 20.23 0.01 20.26 0.01"/><polygon class="cls-323" points="20.29 0.01 20.24 11.3 20.21 11.3 20.26 0.01 20.29 0.01"/><polygon class="cls-324" points="20.32 0.01 20.27 11.3 20.24 11.3 20.29 0.01 20.32 0.01"/><polygon class="cls-73" points="20.35 0.01 20.3 11.3 20.27 11.3 20.32 0.01 20.35 0.01"/><polygon class="cls-325" points="20.38 0.01 20.33 11.3 20.3 11.3 20.35 0.01 20.38 0.01"/><polygon class="cls-326" points="20.41 0.01 20.36 11.3 20.33 11.3 20.38 0.01 20.41 0.01"/><polygon class="cls-327" points="20.44 0.01 20.38 11.3 20.36 11.3 20.41 0.01 20.44 0.01"/><polygon class="cls-328" points="20.47 0.01 20.41 11.3 20.38 11.3 20.44 0.01 20.47 0.01"/><polygon class="cls-68" points="20.5 0.01 20.44 11.3 20.41 11.3 20.47 0.01 20.5 0.01"/><polygon class="cls-329" points="20.52 0.01 20.47 11.3 20.44 11.3 20.5 0.01 20.52 0.01"/><polygon class="cls-66" points="20.55 0.01 20.5 11.3 20.47 11.3 20.52 0.01 20.55 0.01"/><polygon class="cls-65" points="20.58 0.01 20.53 11.3 20.5 11.3 20.55 0.01 20.58 0.01"/><polygon class="cls-64" points="20.61 0.01 20.56 11.3 20.53 11.3 20.58 0.01 20.61 0.01"/><polygon class="cls-63" points="20.64 0.01 20.59 11.3 20.56 11.3 20.61 0.01 20.64 0.01"/><polygon class="cls-330" points="20.67 0.01 20.62 11.3 20.59 11.3 20.64 0.01 20.67 0.01"/><polygon class="cls-331" points="20.7 0.01 20.65 11.3 20.62 11.3 20.67 0.01 20.7 0.01"/><polygon class="cls-61" points="20.73 0.01 20.68 11.3 20.65 11.3 20.7 0.01 20.73 0.01"/><polygon class="cls-60" points="20.76 0.01 20.71 11.3 20.68 11.3 20.73 0.01 20.76 0.01"/><polygon class="cls-59" points="20.79 0.01 20.73 11.3 20.71 11.3 20.76 0.01 20.79 0.01"/><polygon class="cls-58" points="20.82 0.01 20.76 11.3 20.73 11.3 20.79 0.01 20.82 0.01"/><polygon class="cls-57" points="20.85 0.01 20.79 11.3 20.76 11.3 20.82 0.01 20.85 0.01"/><polygon class="cls-56" points="20.88 0.01 20.82 11.3 20.79 11.3 20.85 0.01 20.88 0.01"/><polygon class="cls-55" points="20.9 0.01 20.85 11.3 20.82 11.3 20.88 0.01 20.9 0.01"/><polygon class="cls-332" points="20.93 0.01 20.88 11.3 20.85 11.3 20.9 0.01 20.93 0.01"/><polygon class="cls-53" points="20.96 0.01 20.91 11.3 20.88 11.3 20.93 0.01 20.96 0.01"/><polygon class="cls-52" points="20.99 0.01 20.94 11.3 20.91 11.3 20.96 0.01 20.99 0.01"/><polygon class="cls-51" points="21.02 0.01 20.97 11.3 20.94 11.3 20.99 0.01 21.02 0.01"/><polygon class="cls-50" points="21.05 0.01 21 11.3 20.97 11.3 21.02 0.01 21.05 0.01"/><polygon class="cls-49" points="21.08 0.01 21.03 11.3 21 11.3 21.05 0.01 21.08 0.01"/><polygon class="cls-48" points="21.11 0.01 21.06 11.3 21.03 11.3 21.08 0.01 21.11 0.01"/><polygon class="cls-47" points="21.14 0.01 21.09 11.3 21.06 11.3 21.11 0.01 21.14 0.01"/><polygon class="cls-333" points="21.17 0.01 21.11 11.3 21.09 11.3 21.14 0.01 21.17 0.01"/><polygon class="cls-334" points="21.2 0.01 21.14 11.3 21.11 11.3 21.17 0.01 21.2 0.01"/><polygon class="cls-44" points="21.23 0.01 21.17 11.3 21.14 11.3 21.2 0.01 21.23 0.01"/><polygon class="cls-335" points="21.25 0.01 21.2 11.3 21.17 11.3 21.23 0.01 21.25 0.01"/><polygon class="cls-336" points="21.28 0.01 21.23 11.3 21.2 11.3 21.25 0.01 21.28 0.01"/><polygon class="cls-40" points="21.31 0.01 21.26 11.3 21.23 11.3 21.28 0.01 21.31 0.01"/><polygon class="cls-39" points="21.34 0.01 21.29 11.3 21.26 11.3 21.31 0.01 21.34 0.01"/><polygon class="cls-38" points="21.37 0.01 21.32 11.3 21.29 11.3 21.34 0.01 21.37 0.01"/><polygon class="cls-37" points="21.4 0.01 21.35 11.3 21.32 11.3 21.37 0.01 21.4 0.01"/><polygon class="cls-36" points="21.43 0.01 21.38 11.3 21.35 11.3 21.4 0.01 21.43 0.01"/><polygon class="cls-337" points="21.46 0.01 21.41 11.3 21.38 11.3 21.43 0.01 21.46 0.01"/><polygon class="cls-34" points="21.49 0.01 21.44 11.3 21.41 11.3 21.46 0.01 21.49 0.01"/><polygon class="cls-338" points="21.52 0.01 21.46 11.3 21.44 11.3 21.49 0.01 21.52 0.01"/><polygon class="cls-339" points="21.55 0.01 21.49 11.3 21.46 11.3 21.52 0.01 21.55 0.01"/><polygon class="cls-30" points="21.58 0.01 21.52 11.3 21.49 11.3 21.55 0.01 21.58 0.01"/><polygon class="cls-29" points="21.61 0.01 21.55 11.3 21.52 11.3 21.58 0.01 21.61 0.01"/><polygon class="cls-28" points="21.63 0.01 21.58 11.3 21.55 11.3 21.61 0.01 21.63 0.01"/><polygon class="cls-27" points="21.66 0.01 21.61 11.3 21.58 11.3 21.63 0.01 21.66 0.01"/><polygon class="cls-26" points="21.69 0.01 21.64 11.3 21.61 11.3 21.66 0.01 21.69 0.01"/><polygon class="cls-25" points="21.72 0.01 21.67 11.3 21.64 11.3 21.69 0.01 21.72 0.01"/><polygon class="cls-24" points="21.75 0.01 21.7 11.3 21.67 11.3 21.72 0.01 21.75 0.01"/><polygon class="cls-340" points="21.78 0.01 21.73 11.3 21.7 11.3 21.75 0.01 21.78 0.01"/><polygon class="cls-21" points="21.81 0.01 21.76 11.3 21.73 11.3 21.78 0.01 21.81 0.01"/><polygon class="cls-20" points="21.84 0.01 21.79 11.3 21.76 11.3 21.81 0.01 21.84 0.01"/><polygon class="cls-18" points="21.87 0.01 21.82 11.3 21.79 11.3 21.84 0.01 21.87 0.01"/><polygon class="cls-17" points="21.9 0.01 21.84 11.3 21.82 11.3 21.87 0.01 21.9 0.01"/><polygon class="cls-16" points="21.93 0.01 21.87 11.3 21.84 11.3 21.9 0.01 21.93 0.01"/><polygon class="cls-14" points="21.95 0.01 21.9 11.3 21.87 11.3 21.93 0.01 21.95 0.01"/><polygon class="cls-13" points="21.98 0.01 21.93 11.3 21.9 11.3 21.95 0.01 21.98 0.01"/><polygon class="cls-11" points="22.01 0.01 21.96 11.3 21.93 11.3 21.98 0.01 22.01 0.01"/><polygon class="cls-10" points="22.04 0.01 21.99 11.3 21.96 11.3 22.01 0.01 22.04 0.01"/><polygon class="cls-8" points="22.07 0.01 22.02 11.3 21.99 11.3 22.04 0.01 22.07 0.01"/><polygon class="cls-6" points="22.1 0.01 22.05 11.3 22.02 11.3 22.07 0.01 22.1 0.01"/><polygon class="cls-4" points="22.13 0.01 22.08 11.3 22.05 11.3 22.1 0.01 22.13 0.01"/><polygon class="cls-3" points="22.16 0.01 22.11 11.3 22.08 11.3 22.13 0.01 22.16 0.01"/><polygon class="cls-3" points="22.11 11.3 22.16 0.01 22.79 0.01 22.79 11.3 22.11 11.3"/></g></g></g></g></svg>