<svg xmlns="http://www.w3.org/2000/svg" xmlns:xlink="http://www.w3.org/1999/xlink" viewBox="0 0 21.91 21.41"><defs><style>.cls-1{fill:url(#linear-gradient);}.cls-2{fill:url(#linear-gradient-2);}</style><linearGradient id="linear-gradient" x1="-0.01" y1="8.81" x2="13.4" y2="8.81" gradientTransform="matrix(1, 0, 0, -1, 0.01, 19.82)" gradientUnits="userSpaceOnUse"><stop offset="0" stop-color="#462523"/><stop offset="0.07" stop-color="#4f2d26"/><stop offset="0.19" stop-color="#69442f"/><stop offset="0.33" stop-color="#92693d"/><stop offset="0.51" stop-color="#cb9b51"/><stop offset="0.57" stop-color="#d5ab5b"/><stop offset="0.71" stop-color="#efd673"/><stop offset="0.74" stop-color="#f6e27a"/><stop offset="0.98" stop-color="#f6f2c0"/></linearGradient><linearGradient id="linear-gradient-2" x1="13.41" y1="14.52" x2="21.54" y2="14.48" gradientTransform="matrix(1, 0, 0, -1, 0, 19.82)" gradientUnits="userSpaceOnUse"><stop offset="0.03" stop-color="#f6f2c0"/><stop offset="0.27" stop-color="#f6e27a"/><stop offset="0.52" stop-color="#cb9b51"/><stop offset="0.99" stop-color="#462523"/></linearGradient></defs><g id="Layer_2" data-name="Layer 2"><g id="Layer_1-2" data-name="Layer 1"><g id="Layer_2-2" data-name="Layer 2"><g id="Layer_1-2-2" data-name="Layer 1-2"><g id="FinalLogov1"><path class="cls-1" d="M.67,1.58,1.92.81a1.39,1.39,0,0,1,1.91.46l9.42,15.41c.4.66,0,1.46-.37,2l-.75,1.35c-.36.64-.87,1.68-1.06,1.23L.2,3.49A1.39,1.39,0,0,1,.67,1.58Z"/><path class="cls-2" d="M21.29,1,20.05.2a1.4,1.4,0,0,0-1.92.46L14.78,6.15c-.51.79-.14,1.36.38,2l1,1.45c.48.68.91,1.48,1.34.76l4.22-7.5A1.39,1.39,0,0,0,21.29,1Z"/></g></g></g></g></g></svg>