<svg xmlns="http://www.w3.org/2000/svg" xmlns:xlink="http://www.w3.org/1999/xlink" viewBox="0 0 536.82 455.57"><defs><style>.cls-1{fill:none;}.cls-2{clip-path:url(#clip-path);}.cls-3{fill:#462523;}.cls-4{fill:#472623;}.cls-5{fill:#482624;}.cls-6{fill:#482724;}.cls-7{fill:#492724;}.cls-8{fill:#492824;}.cls-9{fill:#4a2824;}.cls-10{fill:#4a2924;}.cls-11{fill:#4b2925;}.cls-12{fill:#4b2a25;}.cls-13{fill:#4c2a25;}.cls-14{fill:#4d2b25;}.cls-15{fill:#4d2b26;}.cls-16{fill:#4e2c26;}.cls-17{fill:#4f2d26;}.cls-18{fill:#502e26;}.cls-19{fill:#512e27;}.cls-20{fill:#512f27;}.cls-21{fill:#523027;}.cls-22{fill:#533027;}.cls-23{fill:#543128;}.cls-24{fill:#543228;}.cls-25{fill:#553228;}.cls-26{fill:#563329;}.cls-27{fill:#573429;}.cls-28{fill:#583529;}.cls-29{fill:#59362a;}.cls-30{fill:#5a372a;}.cls-31{fill:#5b372a;}.cls-32{fill:#5c382a;}.cls-33{fill:#5d392b;}.cls-34{fill:#5d3a2b;}.cls-35{fill:#5e3b2b;}.cls-36{fill:#5f3b2c;}.cls-37{fill:#603c2c;}.cls-38{fill:#613d2c;}.cls-39{fill:#623e2d;}.cls-40{fill:#633f2d;}.cls-41{fill:#643f2d;}.cls-42{fill:#65402e;}.cls-43{fill:#66412e;}.cls-44{fill:#66422e;}.cls-45{fill:#67432f;}.cls-46{fill:#68442f;}.cls-47{fill:#69442f;}.cls-48{fill:#6a4530;}.cls-49{fill:#6b4630;}.cls-50{fill:#6c4730;}.cls-51{fill:#6d4831;}.cls-52{fill:#6e4931;}.cls-53{fill:#6f4a31;}.cls-54{fill:#704a32;}.cls-55{fill:#714b32;}.cls-56{fill:#724c32;}.cls-57{fill:#734d33;}.cls-58{fill:#744e33;}.cls-59{fill:#754f33;}.cls-60{fill:#765034;}.cls-61{fill:#775134;}.cls-62{fill:#795234;}.cls-63{fill:#7a5335;}.cls-64{fill:#7b5435;}.cls-65{fill:#7c5536;}.cls-66{fill:#7d5636;}.cls-67{fill:#7e5736;}.cls-68{fill:#7f5837;}.cls-69{fill:#805837;}.cls-70{fill:#815937;}.cls-71{fill:#825a38;}.cls-72{fill:#835b38;}.cls-73{fill:#845c39;}.cls-74{fill:#865d39;}.cls-75{fill:#875e39;}.cls-76{fill:#885f3a;}.cls-77{fill:#89603a;}.cls-78{fill:#8a613b;}.cls-79{fill:#8b623b;}.cls-80{fill:#8c633b;}.cls-81{fill:#8e643c;}.cls-82{fill:#8f653c;}.cls-83{fill:#90673d;}.cls-84{fill:#91683d;}.cls-85{fill:#92693d;}.cls-86{fill:#936a3e;}.cls-87{fill:#956b3e;}.cls-88{fill:#966c3f;}.cls-89{fill:#976d3f;}.cls-90{fill:#986e3f;}.cls-91{fill:#996f40;}.cls-92{fill:#9a7040;}.cls-93{fill:#9c7141;}.cls-94{fill:#9d7241;}.cls-95{fill:#9e7341;}.cls-96{fill:#9f7442;}.cls-97{fill:#a17542;}.cls-98{fill:#a27643;}.cls-99{fill:#a37743;}.cls-100{fill:#a47944;}.cls-101{fill:#a57a44;}.cls-102{fill:#a77b44;}.cls-103{fill:#a87c45;}.cls-104{fill:#a97d45;}.cls-105{fill:#aa7e46;}.cls-106{fill:#ac7f46;}.cls-107{fill:#ad8047;}.cls-108{fill:#ae8147;}.cls-109{fill:#af8347;}.cls-110{fill:#b18448;}.cls-111{fill:#b28548;}.cls-112{fill:#b38649;}.cls-113{fill:#b58749;}.cls-114{fill:#b6884a;}.cls-115{fill:#b7894a;}.cls-116{fill:#b88b4b;}.cls-117{fill:#ba8c4b;}.cls-118{fill:#bb8d4b;}.cls-119{fill:#bc8e4c;}.cls-120{fill:#be8f4c;}.cls-121{fill:#bf904d;}.cls-122{fill:#c0924d;}.cls-123{fill:#c2934e;}.cls-124{fill:#c3944e;}.cls-125{fill:#c4954f;}.cls-126{fill:#c6964f;}.cls-127{fill:#c79750;}.cls-128{fill:#c89950;}.cls-129{fill:#ca9a51;}.cls-130{fill:#cb9b51;}.cls-131{fill:#cc9c52;}.cls-132{fill:#cc9d52;}.cls-133{fill:#cd9e53;}.cls-134{fill:#cd9f53;}.cls-135{fill:#cea054;}.cls-136{fill:#cfa155;}.cls-137{fill:#cfa255;}.cls-138{fill:#d0a356;}.cls-139{fill:#d0a456;}.cls-140{fill:#d1a557;}.cls-141{fill:#d1a657;}.cls-142{fill:#d2a758;}.cls-143{fill:#d3a758;}.cls-144{fill:#d3a859;}.cls-145{fill:#d4a959;}.cls-146{fill:#d4aa5a;}.cls-147{fill:#d5ab5a;}.cls-148{fill:#d5ac5b;}.cls-149{fill:#d6ad5b;}.cls-150{fill:#d7ae5c;}.cls-151{fill:#d7af5d;}.cls-152{fill:#d8b05d;}.cls-153{fill:#d8b15e;}.cls-154{fill:#d9b25e;}.cls-155{fill:#dab35f;}.cls-156{fill:#dab45f;}.cls-157{fill:#dbb560;}.cls-158{fill:#dbb661;}.cls-159{fill:#dcb761;}.cls-160{fill:#ddb862;}.cls-161{fill:#ddb962;}.cls-162{fill:#deba63;}.cls-163{fill:#dfbb64;}.cls-164{fill:#dfbc64;}.cls-165{fill:#e0be65;}.cls-166{fill:#e1bf66;}.cls-167{fill:#e1c066;}.cls-168{fill:#e2c167;}.cls-169{fill:#e3c267;}.cls-170{fill:#e3c368;}.cls-171{fill:#e4c469;}.cls-172{fill:#e5c569;}.cls-173{fill:#e5c66a;}.cls-174{fill:#e6c76b;}.cls-175{fill:#e7c86b;}.cls-176{fill:#e7ca6c;}.cls-177{fill:#e8cb6d;}.cls-178{fill:#e9cc6d;}.cls-179{fill:#e9cd6e;}.cls-180{fill:#eace6f;}.cls-181{fill:#ebcf6f;}.cls-182{fill:#ebd070;}.cls-183{fill:#ecd271;}.cls-184{fill:#edd371;}.cls-185{fill:#edd472;}.cls-186{fill:#eed573;}.cls-187{fill:#efd673;}.cls-188{fill:#f0d774;}.cls-189{fill:#f0d975;}.cls-190{fill:#f1da75;}.cls-191{fill:#f2db76;}.cls-192{fill:#f2dc77;}.cls-193{fill:#f3dd77;}.cls-194{fill:#f4de78;}.cls-195{fill:#f5e079;}.cls-196{fill:#f5e179;}.cls-197{fill:#f6e27a;}.cls-198{fill:#f6e27b;}.cls-199{fill:#f6e27c;}.cls-200{fill:#f6e37d;}.cls-201{fill:#f6e37e;}.cls-202{fill:#f6e37f;}.cls-203{fill:#f6e380;}.cls-204{fill:#f6e481;}.cls-205{fill:#f6e482;}.cls-206{fill:#f6e483;}.cls-207{fill:#f6e484;}.cls-208{fill:#f6e585;}.cls-209{fill:#f6e586;}.cls-210{fill:#f6e587;}.cls-211{fill:#f6e588;}.cls-212{fill:#f6e589;}.cls-213{fill:#f6e68a;}.cls-214{fill:#f6e68b;}.cls-215{fill:#f6e68c;}.cls-216{fill:#f6e68d;}.cls-217{fill:#f6e78e;}.cls-218{fill:#f6e78f;}.cls-219{fill:#f6e790;}.cls-220{fill:#f6e791;}.cls-221{fill:#f6e892;}.cls-222{fill:#f6e893;}.cls-223{fill:#f6e894;}.cls-224{fill:#f6e895;}.cls-225{fill:#f6e896;}.cls-226{fill:#f6e997;}.cls-227{fill:#f6e998;}.cls-228{fill:#f6e999;}.cls-229{fill:#f6e99a;}.cls-230{fill:#f6ea9b;}.cls-231{fill:#f6ea9c;}.cls-232{fill:#f6ea9e;}.cls-233{fill:#f6ea9f;}.cls-234{fill:#f6eba0;}.cls-235{fill:#f6eba1;}.cls-236{fill:#f6eba2;}.cls-237{fill:#f6eba3;}.cls-238{fill:#f6eca4;}.cls-239{fill:#f6eca5;}.cls-240{fill:#f6eca6;}.cls-241{fill:#f6eca7;}.cls-242{fill:#f6eca8;}.cls-243{fill:#f6eda9;}.cls-244{fill:#f6edaa;}.cls-245{fill:#f6edab;}.cls-246{fill:#f6edac;}.cls-247{fill:#f6eead;}.cls-248{fill:#f6eeae;}.cls-249{fill:#f6eeaf;}.cls-250{fill:#f6eeb0;}.cls-251{fill:#f6efb1;}.cls-252{fill:#f6efb2;}.cls-253{fill:#f6efb3;}.cls-254{fill:#f6efb4;}.cls-255{fill:#f6efb5;}.cls-256{fill:#f6f0b6;}.cls-257{fill:#f6f0b7;}.cls-258{fill:#f6f0b8;}.cls-259{fill:#f6f0b9;}.cls-260{fill:#f6f1ba;}.cls-261{fill:#f6f1bb;}.cls-262{fill:#f6f1bc;}.cls-263{fill:#f6f1bd;}.cls-264{fill:#f6f2be;}.cls-265{fill:#f6f2bf;}.cls-266{fill:#f6f2c0;}.cls-267{clip-path:url(#clip-path-2);}.cls-268{fill:#f4df78;}.cls-269{fill:#f2dc76;}.cls-270{fill:#f0d874;}.cls-271{fill:#efd774;}.cls-272{fill:#eed572;}.cls-273{fill:#ecd170;}.cls-274{fill:#ebd06f;}.cls-275{fill:#eacf6f;}.cls-276{fill:#eace6e;}.cls-277{fill:#e8cc6d;}.cls-278{fill:#e7c96b;}.cls-279{fill:#e6c86b;}.cls-280{fill:#e5c76a;}.cls-281{fill:#e4c569;}.cls-282{fill:#e4c468;}.cls-283{fill:#e2c267;}.cls-284{fill:#e0bd65;}.cls-285{fill:#ddb963;}.cls-286{fill:#dcb661;}.cls-287{fill:#dab460;}.cls-288{fill:#d9b15e;}.cls-289{fill:#d6ad5c;}.cls-290{fill:#d2a657;}.cls-291{fill:#d1a456;}.cls-292{fill:#c99950;}.cls-293{fill:#c89850;}.cls-294{fill:#c6974f;}.cls-295{fill:#c5964f;}.cls-296{fill:#c1924e;}.cls-297{fill:#c0914d;}.cls-298{fill:#bd8e4c;}.cls-299{fill:#b98b4b;}.cls-300{fill:#b88a4a;}.cls-301{fill:#b48649;}.cls-302{fill:#b08348;}.cls-303{fill:#af8247;}.cls-304{fill:#ab7e46;}.cls-305{fill:#aa7d45;}.cls-306{fill:#a67a44;}.cls-307{fill:#a57944;}.cls-308{fill:#a47843;}.cls-309{fill:#a07542;}.cls-310{fill:#9b7040;}.cls-311{fill:#9a6f40;}.cls-312{fill:#996e40;}.cls-313{fill:#986d3f;}.cls-314{fill:#946a3e;}.cls-315{fill:#93693d;}.cls-316{fill:#92683d;}.cls-317{fill:#91673d;}.cls-318{fill:#90663c;}.cls-319{fill:#8d643b;}.cls-320{fill:#8a613a;}.cls-321{fill:#88603a;}.cls-322{fill:#875f3a;}.cls-323{fill:#865e39;}.cls-324{fill:#855d39;}.cls-325{fill:#835c38;}.cls-326{fill:#825b38;}.cls-327{fill:#815a38;}.cls-328{fill:#805937;}.cls-329{fill:#7e5737;}.cls-330{fill:#795335;}.cls-331{fill:#785234;}.cls-332{fill:#704b32;}.cls-333{fill:#68432f;}.cls-334{fill:#67422e;}.cls-335{fill:#65412e;}.cls-336{fill:#64402d;}.cls-337{fill:#5e3a2b;}.cls-338{fill:#5c392b;}.cls-339{fill:#5b382a;}.cls-340{fill:#533128;}</style><clipPath id="clip-path" transform="translate(4.62 4.63)"><path class="cls-1" d="M90.13,15.69a32.77,32.77,0,0,0-45-10.88l-29.39,18a32.77,32.77,0,0,0-10.88,45L226.47,430.63a32.78,32.78,0,0,0,45,10.88l29.39-18a32.78,32.78,0,0,0,10.88-45.05Z"/></clipPath><clipPath id="clip-path-2" transform="translate(4.62 4.63)"><path class="cls-1" d="M511.88,22.88l-29.38-18A32.78,32.78,0,0,0,437.45,15.8l-79,129.28c-12.07,18.59-3.36,32.12,9,47.43l24.37,34.12c11.44,16,21.43,34.87,31.76,17.91l99.2-176.61A32.76,32.76,0,0,0,511.88,22.88Z"/></clipPath></defs><g id="Layer_2" data-name="Layer 2"><g id="Logo"><g id="FinalLogov1"><g class="cls-2"><rect class="cls-3" width="4.62" height="455.57"/><rect class="cls-3" x="4.62" width="1.2" height="455.57"/><rect class="cls-3" x="5.83" width="1.2" height="455.57"/><rect class="cls-3" x="7.03" width="1.2" height="455.57"/><rect class="cls-4" x="8.23" width="1.2" height="455.57"/><rect class="cls-4" x="9.44" width="1.2" height="455.57"/><rect class="cls-5" x="10.64" width="1.2" height="455.57"/><rect class="cls-6" x="11.84" width="1.2" height="455.57"/><rect class="cls-7" x="13.04" width="1.2" height="455.57"/><rect class="cls-8" x="14.25" width="1.2" height="455.57"/><rect class="cls-9" x="15.45" width="1.2" height="455.57"/><rect class="cls-10" x="16.65" width="1.2" height="455.57"/><rect class="cls-11" x="17.85" width="1.2" height="455.57"/><rect class="cls-12" x="19.06" width="1.2" height="455.57"/><rect class="cls-13" x="20.26" width="1.2" height="455.57"/><rect class="cls-14" x="21.46" width="1.2" height="455.57"/><rect class="cls-15" x="22.66" width="1.2" height="455.57"/><rect class="cls-16" x="23.87" width="1.2" height="455.57"/><rect class="cls-17" x="25.07" width="1.2" height="455.57"/><rect class="cls-17" x="26.27" width="1.2" height="455.57"/><rect class="cls-18" x="27.47" width="1.2" height="455.57"/><rect class="cls-19" x="28.68" width="1.2" height="455.57"/><rect class="cls-20" x="29.88" width="1.2" height="455.57"/><rect class="cls-21" x="31.08" width="1.2" height="455.57"/><rect class="cls-22" x="32.29" width="1.2" height="455.57"/><rect class="cls-23" x="33.49" width="1.2" height="455.57"/><rect class="cls-24" x="34.69" width="1.2" height="455.57"/><rect class="cls-25" x="35.89" width="1.2" height="455.57"/><rect class="cls-26" x="37.1" width="1.2" height="455.57"/><rect class="cls-27" x="38.3" width="1.2" height="455.57"/><rect class="cls-28" x="39.5" width="1.2" height="455.57"/><rect class="cls-28" x="40.7" width="1.2" height="455.57"/><rect class="cls-29" x="41.91" width="1.2" height="455.57"/><rect class="cls-30" x="43.11" width="1.2" height="455.57"/><rect class="cls-31" x="44.31" width="1.2" height="455.57"/><rect class="cls-32" x="45.51" width="1.2" height="455.57"/><rect class="cls-33" x="46.72" width="1.2" height="455.57"/><rect class="cls-34" x="47.92" width="1.2" height="455.57"/><rect class="cls-35" x="49.12" width="1.2" height="455.57"/><rect class="cls-36" x="50.32" width="1.2" height="455.57"/><rect class="cls-37" x="51.53" width="1.2" height="455.57"/><rect class="cls-38" x="52.73" width="1.2" height="455.57"/><rect class="cls-39" x="53.93" width="1.2" height="455.57"/><rect class="cls-40" x="55.13" width="1.2" height="455.57"/><rect class="cls-41" x="56.34" width="1.2" height="455.57"/><rect class="cls-42" x="57.54" width="1.2" height="455.57"/><rect class="cls-43" x="58.74" width="1.2" height="455.57"/><rect class="cls-44" x="59.95" width="1.2" height="455.57"/><rect class="cls-45" x="61.15" width="1.2" height="455.57"/><rect class="cls-46" x="62.35" width="1.2" height="455.57"/><rect class="cls-47" x="63.55" width="1.2" height="455.57"/><rect class="cls-48" x="64.76" width="1.2" height="455.57"/><rect class="cls-49" x="65.96" width="1.2" height="455.57"/><rect class="cls-50" x="67.16" width="1.2" height="455.57"/><rect class="cls-51" x="68.36" width="1.2" height="455.57"/><rect class="cls-52" x="69.57" width="1.2" height="455.57"/><rect class="cls-53" x="70.77" width="1.2" height="455.57"/><rect class="cls-54" x="71.97" width="1.2" height="455.57"/><rect class="cls-55" x="73.17" width="1.2" height="455.57"/><rect class="cls-56" x="74.38" width="1.2" height="455.57"/><rect class="cls-57" x="75.58" width="1.2" height="455.57"/><rect class="cls-58" x="76.78" width="1.2" height="455.57"/><rect class="cls-59" x="77.98" width="1.2" height="455.57"/><rect class="cls-60" x="79.19" width="1.2" height="455.57"/><rect class="cls-61" x="80.39" width="1.2" height="455.57"/><rect class="cls-62" x="81.59" width="1.2" height="455.57"/><rect class="cls-63" x="82.8" width="1.2" height="455.57"/><rect class="cls-64" x="84" width="1.2" height="455.57"/><rect class="cls-65" x="85.2" width="1.2" height="455.57"/><rect class="cls-66" x="86.4" width="1.2" height="455.57"/><rect class="cls-67" x="87.61" width="1.2" height="455.57"/><rect class="cls-68" x="88.81" width="1.2" height="455.57"/><rect class="cls-69" x="90.01" width="1.2" height="455.57"/><rect class="cls-70" x="91.21" width="1.2" height="455.57"/><rect class="cls-71" x="92.42" width="1.2" height="455.57"/><rect class="cls-72" x="93.62" width="1.2" height="455.57"/><rect class="cls-73" x="94.82" width="1.2" height="455.57"/><rect class="cls-74" x="96.02" width="1.2" height="455.57"/><rect class="cls-75" x="97.23" width="1.2" height="455.57"/><rect class="cls-76" x="98.43" width="1.2" height="455.57"/><rect class="cls-77" x="99.63" width="1.2" height="455.57"/><rect class="cls-78" x="100.83" width="1.2" height="455.57"/><rect class="cls-79" x="102.04" width="1.2" height="455.57"/><rect class="cls-80" x="103.24" width="1.2" height="455.57"/><rect class="cls-81" x="104.44" width="1.2" height="455.57"/><rect class="cls-82" x="105.65" width="1.2" height="455.57"/><rect class="cls-83" x="106.85" width="1.2" height="455.57"/><rect class="cls-84" x="108.05" width="1.2" height="455.57"/><rect class="cls-85" x="109.25" width="1.2" height="455.57"/><rect class="cls-86" x="110.46" width="1.2" height="455.57"/><rect class="cls-87" x="111.66" width="1.2" height="455.57"/><rect class="cls-88" x="112.86" width="1.2" height="455.57"/><rect class="cls-89" x="114.06" width="1.2" height="455.57"/><rect class="cls-90" x="115.27" width="1.2" height="455.57"/><rect class="cls-91" x="116.47" width="1.2" height="455.57"/><rect class="cls-92" x="117.67" width="1.2" height="455.57"/><rect class="cls-93" x="118.87" width="1.2" height="455.57"/><rect class="cls-94" x="120.08" width="1.2" height="455.57"/><rect class="cls-95" x="121.28" width="1.2" height="455.57"/><rect class="cls-96" x="122.48" width="1.2" height="455.57"/><rect class="cls-97" x="123.68" width="1.2" height="455.57"/><rect class="cls-98" x="124.89" width="1.2" height="455.57"/><rect class="cls-99" x="126.09" width="1.2" height="455.57"/><rect class="cls-100" x="127.29" width="1.2" height="455.57"/><rect class="cls-101" x="128.49" width="1.2" height="455.57"/><rect class="cls-102" x="129.7" width="1.2" height="455.57"/><rect class="cls-103" x="130.9" width="1.2" height="455.57"/><rect class="cls-104" x="132.1" width="1.2" height="455.57"/><rect class="cls-105" x="133.31" width="1.2" height="455.57"/><rect class="cls-106" x="134.51" width="1.2" height="455.57"/><rect class="cls-107" x="135.71" width="1.2" height="455.57"/><rect class="cls-108" x="136.91" width="1.2" height="455.57"/><rect class="cls-109" x="138.12" width="1.2" height="455.57"/><rect class="cls-110" x="139.32" width="1.2" height="455.57"/><rect class="cls-111" x="140.52" width="1.2" height="455.57"/><rect class="cls-112" x="141.72" width="1.2" height="455.57"/><rect class="cls-113" x="142.93" width="1.2" height="455.57"/><rect class="cls-114" x="144.13" width="1.2" height="455.57"/><rect class="cls-115" x="145.33" width="1.2" height="455.57"/><rect class="cls-116" x="146.53" width="1.2" height="455.57"/><rect class="cls-117" x="147.74" width="1.2" height="455.57"/><rect class="cls-118" x="148.94" width="1.2" height="455.57"/><rect class="cls-119" x="150.14" width="1.2" height="455.57"/><rect class="cls-120" x="151.34" width="1.2" height="455.57"/><rect class="cls-121" x="152.55" width="1.2" height="455.57"/><rect class="cls-122" x="153.75" width="1.2" height="455.57"/><rect class="cls-123" x="154.95" width="1.2" height="455.57"/><rect class="cls-124" x="156.16" width="1.2" height="455.57"/><rect class="cls-125" x="157.36" width="1.2" height="455.57"/><rect class="cls-126" x="158.56" width="1.2" height="455.57"/><rect class="cls-127" x="159.76" width="1.2" height="455.57"/><rect class="cls-128" x="160.97" width="1.2" height="455.57"/><rect class="cls-129" x="162.17" width="1.2" height="455.57"/><rect class="cls-130" x="163.37" width="1.2" height="455.57"/><rect class="cls-130" x="164.57" width="1.04" height="455.57"/><rect class="cls-130" x="165.61" width="1.04" height="455.57"/><rect class="cls-131" x="166.65" width="1.04" height="455.57"/><rect class="cls-132" x="167.69" width="1.04" height="455.57"/><rect class="cls-132" x="168.73" width="1.04" height="455.57"/><rect class="cls-133" x="169.77" width="1.04" height="455.57"/><rect class="cls-134" x="170.81" width="1.04" height="455.57"/><rect class="cls-135" x="171.85" width="1.04" height="455.57"/><rect class="cls-135" x="172.89" width="1.04" height="455.57"/><rect class="cls-136" x="173.93" width="1.04" height="455.57"/><rect class="cls-137" x="174.97" width="1.04" height="455.57"/><rect class="cls-138" x="176.01" width="1.04" height="455.57"/><rect class="cls-139" x="177.04" width="1.04" height="455.57"/><rect class="cls-140" x="178.08" width="1.04" height="455.57"/><rect class="cls-141" x="179.12" width="1.04" height="455.57"/><rect class="cls-142" x="180.16" width="1.04" height="455.57"/><rect class="cls-143" x="181.2" width="1.04" height="455.57"/><rect class="cls-144" x="182.24" width="1.04" height="455.57"/><rect class="cls-145" x="183.28" width="1.04" height="455.57"/><rect class="cls-146" x="184.32" width="1.04" height="455.57"/><rect class="cls-147" x="185.36" width="1.04" height="455.57"/><rect class="cls-148" x="186.4" width="1.04" height="455.57"/><rect class="cls-149" x="187.44" width="1.04" height="455.57"/><rect class="cls-150" x="188.48" width="1.04" height="455.57"/><rect class="cls-151" x="189.52" width="1.04" height="455.57"/><rect class="cls-152" x="190.56" width="1.04" height="455.57"/><rect class="cls-153" x="191.59" width="1.04" height="455.57"/><rect class="cls-154" x="192.63" width="1.04" height="455.57"/><rect class="cls-155" x="193.67" width="1.04" height="455.57"/><rect class="cls-156" x="194.71" width="1.04" height="455.57"/><rect class="cls-157" x="195.75" width="1.04" height="455.57"/><rect class="cls-158" x="196.79" width="1.04" height="455.57"/><rect class="cls-159" x="197.83" width="1.04" height="455.57"/><rect class="cls-160" x="198.87" width="1.04" height="455.57"/><rect class="cls-161" x="199.91" width="1.04" height="455.57"/><rect class="cls-162" x="200.95" width="1.04" height="455.57"/><rect class="cls-163" x="201.99" width="1.04" height="455.57"/><rect class="cls-164" x="203.03" width="1.04" height="455.57"/><rect class="cls-165" x="204.07" width="1.04" height="455.57"/><rect class="cls-166" x="205.11" width="1.04" height="455.57"/><rect class="cls-167" x="206.14" width="1.04" height="455.57"/><rect class="cls-168" x="207.18" width="1.04" height="455.57"/><rect class="cls-169" x="208.22" width="1.04" height="455.57"/><rect class="cls-170" x="209.26" width="1.04" height="455.57"/><rect class="cls-171" x="210.3" width="1.04" height="455.57"/><rect class="cls-172" x="211.34" width="1.04" height="455.57"/><rect class="cls-173" x="212.38" width="1.04" height="455.57"/><rect class="cls-174" x="213.42" width="1.04" height="455.57"/><rect class="cls-175" x="214.46" width="1.04" height="455.57"/><rect class="cls-176" x="215.5" width="1.04" height="455.57"/><rect class="cls-177" x="216.54" width="1.04" height="455.57"/><rect class="cls-178" x="217.58" width="1.04" height="455.57"/><rect class="cls-179" x="218.62" width="1.04" height="455.57"/><rect class="cls-180" x="219.66" width="1.04" height="455.57"/><rect class="cls-181" x="220.69" width="1.04" height="455.57"/><rect class="cls-182" x="221.73" width="1.04" height="455.57"/><rect class="cls-183" x="222.77" width="1.04" height="455.57"/><rect class="cls-184" x="223.81" width="1.04" height="455.57"/><rect class="cls-185" x="224.85" width="1.04" height="455.57"/><rect class="cls-186" x="225.89" width="1.04" height="455.57"/><rect class="cls-187" x="226.93" width="1.04" height="455.57"/><rect class="cls-188" x="227.97" width="1.04" height="455.57"/><rect class="cls-189" x="229.01" width="1.04" height="455.57"/><rect class="cls-190" x="230.05" width="1.04" height="455.57"/><rect class="cls-191" x="231.09" width="1.04" height="455.57"/><rect class="cls-192" x="232.13" width="1.04" height="455.57"/><rect class="cls-193" x="233.17" width="1.04" height="455.57"/><rect class="cls-194" x="234.2" width="1.04" height="455.57"/><rect class="cls-195" x="235.24" width="1.04" height="455.57"/><rect class="cls-196" x="236.28" width="1.04" height="455.57"/><rect class="cls-197" x="237.32" width="1.04" height="455.57"/><rect class="cls-197" x="238.36" width="1.1" height="455.57"/><rect class="cls-198" x="239.46" width="1.1" height="455.57"/><rect class="cls-199" x="240.56" width="1.1" height="455.57"/><rect class="cls-200" x="241.65" width="1.1" height="455.57"/><rect class="cls-201" x="242.75" width="1.1" height="455.57"/><rect class="cls-202" x="243.85" width="1.1" height="455.57"/><rect class="cls-203" x="244.94" width="1.1" height="455.57"/><rect class="cls-204" x="246.04" width="1.1" height="455.57"/><rect class="cls-205" x="247.14" width="1.1" height="455.57"/><rect class="cls-206" x="248.23" width="1.1" height="455.57"/><rect class="cls-207" x="249.33" width="1.1" height="455.57"/><rect class="cls-208" x="250.43" width="1.1" height="455.57"/><rect class="cls-209" x="251.53" width="1.1" height="455.57"/><rect class="cls-210" x="252.62" width="1.1" height="455.57"/><rect class="cls-211" x="253.72" width="1.1" height="455.57"/><rect class="cls-212" x="254.82" width="1.1" height="455.57"/><rect class="cls-213" x="255.91" width="1.1" height="455.57"/><rect class="cls-214" x="257.01" width="1.1" height="455.57"/><rect class="cls-215" x="258.11" width="1.1" height="455.57"/><rect class="cls-216" x="259.2" width="1.1" height="455.57"/><rect class="cls-217" x="260.3" width="1.1" height="455.57"/><rect class="cls-218" x="261.4" width="1.1" height="455.57"/><rect class="cls-219" x="262.5" width="1.1" height="455.57"/><rect class="cls-220" x="263.59" width="1.1" height="455.57"/><rect class="cls-221" x="264.69" width="1.1" height="455.57"/><rect class="cls-222" x="265.79" width="1.1" height="455.57"/><rect class="cls-223" x="266.88" width="1.1" height="455.57"/><rect class="cls-224" x="267.98" width="1.1" height="455.57"/><rect class="cls-225" x="269.08" width="1.1" height="455.57"/><rect class="cls-226" x="270.17" width="1.1" height="455.57"/><rect class="cls-227" x="271.27" width="1.1" height="455.57"/><rect class="cls-228" x="272.37" width="1.1" height="455.57"/><rect class="cls-229" x="273.47" width="1.1" height="455.57"/><rect class="cls-230" x="274.56" width="1.1" height="455.57"/><rect class="cls-231" x="275.66" width="1.1" height="455.57"/><rect class="cls-232" x="276.76" width="1.1" height="455.57"/><rect class="cls-233" x="277.85" width="1.1" height="455.57"/><rect class="cls-234" x="278.95" width="1.1" height="455.57"/><rect class="cls-235" x="280.05" width="1.1" height="455.57"/><rect class="cls-236" x="281.14" width="1.1" height="455.57"/><rect class="cls-237" x="282.24" width="1.1" height="455.57"/><rect class="cls-238" x="283.34" width="1.1" height="455.57"/><rect class="cls-239" x="284.44" width="1.1" height="455.57"/><rect class="cls-240" x="285.53" width="1.1" height="455.57"/><rect class="cls-241" x="286.63" width="1.1" height="455.57"/><rect class="cls-242" x="287.73" width="1.1" height="455.57"/><rect class="cls-243" x="288.82" width="1.1" height="455.57"/><rect class="cls-244" x="289.92" width="1.1" height="455.57"/><rect class="cls-245" x="291.02" width="1.1" height="455.57"/><rect class="cls-246" x="292.11" width="1.1" height="455.57"/><rect class="cls-247" x="293.21" width="1.1" height="455.57"/><rect class="cls-248" x="294.31" width="1.1" height="455.57"/><rect class="cls-249" x="295.41" width="1.1" height="455.57"/><rect class="cls-250" x="296.5" width="1.1" height="455.57"/><rect class="cls-251" x="297.6" width="1.1" height="455.57"/><rect class="cls-252" x="298.7" width="1.1" height="455.57"/><rect class="cls-253" x="299.79" width="1.1" height="455.57"/><rect class="cls-254" x="300.89" width="1.1" height="455.57"/><rect class="cls-255" x="301.99" width="1.1" height="455.57"/><rect class="cls-256" x="303.08" width="1.1" height="455.57"/><rect class="cls-257" x="304.18" width="1.1" height="455.57"/><rect class="cls-258" x="305.28" width="1.1" height="455.57"/><rect class="cls-259" x="306.38" width="1.1" height="455.57"/><rect class="cls-260" x="307.47" width="1.1" height="455.57"/><rect class="cls-261" x="308.57" width="1.1" height="455.57"/><rect class="cls-262" x="309.67" width="1.1" height="455.57"/><rect class="cls-263" x="310.76" width="1.1" height="455.57"/><rect class="cls-264" x="311.86" width="1.1" height="455.57"/><rect class="cls-265" x="312.96" width="1.1" height="455.57"/><rect class="cls-266" x="314.05" width="1.1" height="455.57"/><rect class="cls-266" x="315.15" width="10.7" height="455.57"/></g><g class="cls-267"><polygon class="cls-246" points="351.49 0.11 351.02 100.99 351.02 0.11 351.49 0.11"/><polygon class="cls-245" points="352.13 0.11 351.02 239.27 351.02 100.99 351.49 0.11 352.13 0.11"/><polygon class="cls-244" points="352.77 0.11 351.53 266.12 351.02 266.12 351.02 239.27 352.13 0.11 352.77 0.11"/><polygon class="cls-243" points="353.41 0.11 352.18 266.12 351.53 266.12 352.77 0.11 353.41 0.11"/><polygon class="cls-242" points="354.05 0.11 352.82 266.12 352.18 266.12 353.41 0.11 354.05 0.11"/><polygon class="cls-241" points="354.69 0.11 353.46 266.12 352.82 266.12 354.05 0.11 354.69 0.11"/><polygon class="cls-240" points="355.33 0.11 354.1 266.12 353.46 266.12 354.69 0.11 355.33 0.11"/><polygon class="cls-239" points="355.97 0.11 354.74 266.12 354.1 266.12 355.33 0.11 355.97 0.11"/><polygon class="cls-238" points="356.61 0.11 355.38 266.12 354.74 266.12 355.97 0.11 356.61 0.11"/><polygon class="cls-237" points="357.25 0.11 356.02 266.12 355.38 266.12 356.61 0.11 357.25 0.11"/><polygon class="cls-236" points="357.89 0.11 356.66 266.12 356.02 266.12 357.25 0.11 357.89 0.11"/><polygon class="cls-235" points="358.53 0.11 357.3 266.12 356.66 266.12 357.89 0.11 358.53 0.11"/><polygon class="cls-234" points="359.17 0.11 357.94 266.12 357.3 266.12 358.53 0.11 359.17 0.11"/><polygon class="cls-233" points="359.81 0.11 358.58 266.12 357.94 266.12 359.17 0.11 359.81 0.11"/><polygon class="cls-232" points="360.45 0.11 359.22 266.12 358.58 266.12 359.81 0.11 360.45 0.11"/><polygon class="cls-231" points="361.1 0.11 359.86 266.12 359.22 266.12 360.45 0.11 361.1 0.11"/><polygon class="cls-230" points="361.74 0.11 360.5 266.12 359.86 266.12 361.1 0.11 361.74 0.11"/><polygon class="cls-229" points="362.38 0.11 361.14 266.12 360.5 266.12 361.74 0.11 362.38 0.11"/><polygon class="cls-228" points="363.02 0.11 361.79 266.12 361.14 266.12 362.38 0.11 363.02 0.11"/><polygon class="cls-227" points="363.66 0.11 362.43 266.12 361.79 266.12 363.02 0.11 363.66 0.11"/><polygon class="cls-226" points="364.3 0.11 363.07 266.12 362.43 266.12 363.66 0.11 364.3 0.11"/><polygon class="cls-225" points="364.94 0.11 363.71 266.12 363.07 266.12 364.3 0.11 364.94 0.11"/><polygon class="cls-224" points="365.58 0.11 364.35 266.12 363.71 266.12 364.94 0.11 365.58 0.11"/><polygon class="cls-223" points="366.22 0.11 364.99 266.12 364.35 266.12 365.58 0.11 366.22 0.11"/><polygon class="cls-222" points="366.86 0.11 365.63 266.12 364.99 266.12 366.22 0.11 366.86 0.11"/><polygon class="cls-221" points="367.5 0.11 366.27 266.12 365.63 266.12 366.86 0.11 367.5 0.11"/><polygon class="cls-220" points="368.14 0.11 366.91 266.12 366.27 266.12 367.5 0.11 368.14 0.11"/><polygon class="cls-219" points="368.78 0.11 367.55 266.12 366.91 266.12 368.14 0.11 368.78 0.11"/><polygon class="cls-218" points="369.43 0.11 368.19 266.12 367.55 266.12 368.78 0.11 369.43 0.11"/><polygon class="cls-217" points="370.07 0.11 368.83 266.12 368.19 266.12 369.43 0.11 370.07 0.11"/><polygon class="cls-216" points="370.71 0.11 369.47 266.12 368.83 266.12 370.07 0.11 370.71 0.11"/><polygon class="cls-215" points="371.35 0.11 370.11 266.12 369.47 266.12 370.71 0.11 371.35 0.11"/><polygon class="cls-214" points="371.99 0.11 370.75 266.12 370.11 266.12 371.35 0.11 371.99 0.11"/><polygon class="cls-213" points="372.63 0.11 371.4 266.12 370.75 266.12 371.99 0.11 372.63 0.11"/><polygon class="cls-212" points="373.27 0.11 372.04 266.12 371.4 266.12 372.63 0.11 373.27 0.11"/><polygon class="cls-211" points="373.91 0.11 372.68 266.12 372.04 266.12 373.27 0.11 373.91 0.11"/><polygon class="cls-210" points="374.55 0.11 373.32 266.12 372.68 266.12 373.91 0.11 374.55 0.11"/><polygon class="cls-209" points="375.19 0.11 373.96 266.12 373.32 266.12 374.55 0.11 375.19 0.11"/><polygon class="cls-208" points="375.83 0.11 374.6 266.12 373.96 266.12 375.19 0.11 375.83 0.11"/><polygon class="cls-207" points="376.47 0.11 375.24 266.12 374.6 266.12 375.83 0.11 376.47 0.11"/><polygon class="cls-206" points="377.11 0.11 375.88 266.12 375.24 266.12 376.47 0.11 377.11 0.11"/><polygon class="cls-205" points="377.75 0.11 376.52 266.12 375.88 266.12 377.11 0.11 377.75 0.11"/><polygon class="cls-204" points="378.39 0.11 377.16 266.12 376.52 266.12 377.75 0.11 378.39 0.11"/><polygon class="cls-203" points="379.04 0.11 377.8 266.12 377.16 266.12 378.39 0.11 379.04 0.11"/><polygon class="cls-202" points="379.68 0.11 378.44 266.12 377.8 266.12 379.04 0.11 379.68 0.11"/><polygon class="cls-201" points="380.32 0.11 379.08 266.12 378.44 266.12 379.68 0.11 380.32 0.11"/><polygon class="cls-200" points="380.96 0.11 379.73 266.12 379.08 266.12 380.32 0.11 380.96 0.11"/><polygon class="cls-199" points="381.6 0.11 380.37 266.12 379.73 266.12 380.96 0.11 381.6 0.11"/><polygon class="cls-198" points="382.24 0.11 381.01 266.12 380.37 266.12 381.6 0.11 382.24 0.11"/><polygon class="cls-197" points="382.88 0.11 381.65 266.12 381.01 266.12 382.24 0.11 382.88 0.11"/><polygon class="cls-197" points="383.55 0.11 382.32 266.12 381.65 266.12 382.88 0.11 383.55 0.11"/><polygon class="cls-196" points="384.22 0.11 382.99 266.12 382.32 266.12 383.55 0.11 384.22 0.11"/><polygon class="cls-195" points="384.89 0.11 383.66 266.12 382.99 266.12 384.22 0.11 384.89 0.11"/><polygon class="cls-268" points="385.56 0.11 384.32 266.12 383.66 266.12 384.89 0.11 385.56 0.11"/><polygon class="cls-194" points="386.23 0.11 385 266.12 384.32 266.12 385.56 0.11 386.23 0.11"/><polygon class="cls-193" points="386.9 0.11 385.66 266.12 385 266.12 386.23 0.11 386.9 0.11"/><polygon class="cls-269" points="387.57 0.11 386.33 266.12 385.66 266.12 386.9 0.11 387.57 0.11"/><polygon class="cls-191" points="388.24 0.11 387 266.12 386.33 266.12 387.57 0.11 388.24 0.11"/><polygon class="cls-190" points="388.91 0.11 387.67 266.12 387 266.12 388.24 0.11 388.91 0.11"/><polygon class="cls-189" points="389.57 0.11 388.34 266.12 387.67 266.12 388.91 0.11 389.57 0.11"/><polygon class="cls-270" points="390.25 0.11 389.01 266.12 388.34 266.12 389.57 0.11 390.25 0.11"/><polygon class="cls-271" points="390.91 0.11 389.68 266.12 389.01 266.12 390.25 0.11 390.91 0.11"/><polygon class="cls-187" points="391.58 0.11 390.35 266.12 389.68 266.12 390.91 0.11 391.58 0.11"/><polygon class="cls-272" points="392.25 0.11 391.02 266.12 390.35 266.12 391.58 0.11 392.25 0.11"/><polygon class="cls-185" points="392.92 0.11 391.69 266.12 391.02 266.12 392.25 0.11 392.92 0.11"/><polygon class="cls-184" points="393.59 0.11 392.36 266.12 391.69 266.12 392.92 0.11 393.59 0.11"/><polygon class="cls-183" points="394.26 0.11 393.03 266.12 392.36 266.12 393.59 0.11 394.26 0.11"/><polygon class="cls-273" points="394.93 0.11 393.7 266.12 393.03 266.12 394.26 0.11 394.93 0.11"/><polygon class="cls-274" points="395.6 0.11 394.37 266.12 393.7 266.12 394.93 0.11 395.6 0.11"/><polygon class="cls-275" points="396.27 0.11 395.04 266.12 394.37 266.12 395.6 0.11 396.27 0.11"/><polygon class="cls-276" points="396.94 0.11 395.71 266.12 395.04 266.12 396.27 0.11 396.94 0.11"/><polygon class="cls-179" points="397.61 0.11 396.38 266.12 395.71 266.12 396.94 0.11 397.61 0.11"/><polygon class="cls-277" points="398.28 0.11 397.05 266.12 396.38 266.12 397.61 0.11 398.28 0.11"/><polygon class="cls-177" points="398.95 0.11 397.72 266.12 397.05 266.12 398.28 0.11 398.95 0.11"/><polygon class="cls-176" points="399.62 0.11 398.39 266.12 397.72 266.12 398.95 0.11 399.62 0.11"/><polygon class="cls-278" points="400.29 0.11 399.06 266.12 398.39 266.12 399.62 0.11 400.29 0.11"/><polygon class="cls-279" points="400.96 0.11 399.73 266.12 399.06 266.12 400.29 0.11 400.96 0.11"/><polygon class="cls-280" points="401.63 0.11 400.39 266.12 399.73 266.12 400.96 0.11 401.63 0.11"/><polygon class="cls-173" points="402.3 0.11 401.06 266.12 400.39 266.12 401.63 0.11 402.3 0.11"/><polygon class="cls-281" points="402.97 0.11 401.73 266.12 401.06 266.12 402.3 0.11 402.97 0.11"/><polygon class="cls-282" points="403.64 0.11 402.4 266.12 401.73 266.12 402.97 0.11 403.64 0.11"/><polygon class="cls-170" points="404.31 0.11 403.07 266.12 402.4 266.12 403.64 0.11 404.31 0.11"/><polygon class="cls-283" points="404.98 0.11 403.74 266.12 403.07 266.12 404.31 0.11 404.98 0.11"/><polygon class="cls-168" points="405.64 0.11 404.41 266.12 403.74 266.12 404.98 0.11 405.64 0.11"/><polygon class="cls-167" points="406.31 0.11 405.08 266.12 404.41 266.12 405.64 0.11 406.31 0.11"/><polygon class="cls-165" points="406.98 0.11 405.75 266.12 405.08 266.12 406.31 0.11 406.98 0.11"/><polygon class="cls-284" points="407.65 0.11 406.42 266.12 405.75 266.12 406.98 0.11 407.65 0.11"/><polygon class="cls-164" points="408.32 0.11 407.09 266.12 406.42 266.12 407.65 0.11 408.32 0.11"/><polygon class="cls-163" points="408.99 0.11 407.76 266.12 407.09 266.12 408.32 0.11 408.99 0.11"/><polygon class="cls-162" points="409.66 0.11 408.43 266.12 407.76 266.12 408.99 0.11 409.66 0.11"/><polygon class="cls-285" points="410.33 0.11 409.1 266.12 408.43 266.12 409.66 0.11 410.33 0.11"/><polygon class="cls-160" points="411 0.11 409.77 266.12 409.1 266.12 410.33 0.11 411 0.11"/><polygon class="cls-159" points="411.67 0.11 410.44 266.12 409.77 266.12 411 0.11 411.67 0.11"/><polygon class="cls-286" points="412.34 0.11 411.11 266.12 410.44 266.12 411.67 0.11 412.34 0.11"/><polygon class="cls-157" points="413.01 0.11 411.78 266.12 411.11 266.12 412.34 0.11 413.01 0.11"/><polygon class="cls-287" points="413.68 0.11 412.45 266.12 411.78 266.12 413.01 0.11 413.68 0.11"/><polygon class="cls-155" points="414.35 0.11 413.12 266.12 412.45 266.12 413.68 0.11 414.35 0.11"/><polygon class="cls-154" points="415.02 0.11 413.79 266.12 413.12 266.12 414.35 0.11 415.02 0.11"/><polygon class="cls-288" points="415.69 0.11 414.46 266.12 413.79 266.12 415.02 0.11 415.69 0.11"/><polygon class="cls-152" points="416.36 0.11 415.13 266.12 414.46 266.12 415.69 0.11 416.36 0.11"/><polygon class="cls-151" points="417.03 0.11 415.8 266.12 415.13 266.12 416.36 0.11 417.03 0.11"/><polygon class="cls-150" points="417.7 0.11 416.46 266.12 415.8 266.12 417.03 0.11 417.7 0.11"/><polygon class="cls-289" points="418.37 0.11 417.13 266.12 416.46 266.12 417.7 0.11 418.37 0.11"/><polygon class="cls-148" points="419.04 0.11 417.8 266.12 417.13 266.12 418.37 0.11 419.04 0.11"/><polygon class="cls-147" points="419.71 0.11 418.47 266.12 417.8 266.12 419.04 0.11 419.71 0.11"/><polygon class="cls-146" points="420.38 0.11 419.14 266.12 418.47 266.12 419.71 0.11 420.38 0.11"/><polygon class="cls-145" points="421.05 0.11 419.81 266.12 419.14 266.12 420.38 0.11 421.05 0.11"/><polygon class="cls-144" points="421.71 0.11 420.48 266.12 419.81 266.12 421.05 0.11 421.71 0.11"/><polygon class="cls-142" points="422.38 0.11 421.15 266.12 420.48 266.12 421.71 0.11 422.38 0.11"/><polygon class="cls-290" points="423.05 0.11 421.82 266.12 421.15 266.12 422.38 0.11 423.05 0.11"/><polygon class="cls-140" points="423.72 0.11 422.49 266.12 421.82 266.12 423.05 0.11 423.72 0.11"/><polygon class="cls-291" points="424.39 0.11 423.16 266.12 422.49 266.12 423.72 0.11 424.39 0.11"/><polygon class="cls-138" points="425.06 0.11 423.83 266.12 423.16 266.12 424.39 0.11 425.06 0.11"/><polygon class="cls-137" points="425.73 0.11 424.5 266.12 423.83 266.12 425.06 0.11 425.73 0.11"/><polygon class="cls-136" points="426.4 0.11 425.17 266.12 424.5 266.12 425.73 0.11 426.4 0.11"/><polygon class="cls-135" points="427.07 0.11 425.84 266.12 425.17 266.12 426.4 0.11 427.07 0.11"/><polygon class="cls-134" points="427.74 0.11 426.51 266.12 425.84 266.12 427.07 0.11 427.74 0.11"/><polygon class="cls-133" points="428.41 0.11 427.18 266.12 426.51 266.12 427.74 0.11 428.41 0.11"/><polygon class="cls-132" points="429.08 0.11 427.85 266.12 427.18 266.12 428.41 0.11 429.08 0.11"/><polygon class="cls-131" points="429.75 0.11 428.52 266.12 427.85 266.12 429.08 0.11 429.75 0.11"/><polygon class="cls-130" points="430.42 0.11 429.19 266.12 428.52 266.12 429.75 0.11 430.42 0.11"/><polygon class="cls-130" points="431.11 0.11 429.88 266.12 429.19 266.12 430.42 0.11 431.11 0.11"/><polygon class="cls-129" points="431.8 0.11 430.56 266.12 429.88 266.12 431.11 0.11 431.8 0.11"/><polygon class="cls-292" points="432.48 0.11 431.25 266.12 430.56 266.12 431.8 0.11 432.48 0.11"/><polygon class="cls-293" points="433.17 0.11 431.94 266.12 431.25 266.12 432.48 0.11 433.17 0.11"/><polygon class="cls-127" points="433.86 0.11 432.63 266.12 431.94 266.12 433.17 0.11 433.86 0.11"/><polygon class="cls-294" points="434.55 0.11 433.31 266.12 432.63 266.12 433.86 0.11 434.55 0.11"/><polygon class="cls-295" points="435.24 0.11 434 266.12 433.31 266.12 434.55 0.11 435.24 0.11"/><polygon class="cls-125" points="435.92 0.11 434.69 266.12 434 266.12 435.24 0.11 435.92 0.11"/><polygon class="cls-124" points="436.61 0.11 435.38 266.12 434.69 266.12 435.92 0.11 436.61 0.11"/><polygon class="cls-123" points="437.3 0.11 436.07 266.12 435.38 266.12 436.61 0.11 437.3 0.11"/><polygon class="cls-296" points="437.99 0.11 436.75 266.12 436.07 266.12 437.3 0.11 437.99 0.11"/><polygon class="cls-297" points="438.67 0.11 437.44 266.12 436.75 266.12 437.99 0.11 438.67 0.11"/><polygon class="cls-121" points="439.36 0.11 438.13 266.12 437.44 266.12 438.67 0.11 439.36 0.11"/><polygon class="cls-120" points="440.05 0.11 438.82 266.12 438.13 266.12 439.36 0.11 440.05 0.11"/><polygon class="cls-298" points="440.74 0.11 439.5 266.12 438.82 266.12 440.05 0.11 440.74 0.11"/><polygon class="cls-119" points="441.43 0.11 440.19 266.12 439.5 266.12 440.74 0.11 441.43 0.11"/><polygon class="cls-118" points="442.11 0.11 440.88 266.12 440.19 266.12 441.43 0.11 442.11 0.11"/><polygon class="cls-117" points="442.8 0.11 441.57 266.12 440.88 266.12 442.11 0.11 442.8 0.11"/><polygon class="cls-299" points="443.49 0.11 442.26 266.12 441.57 266.12 442.8 0.11 443.49 0.11"/><polygon class="cls-300" points="444.18 0.11 442.94 266.12 442.26 266.12 443.49 0.11 444.18 0.11"/><polygon class="cls-115" points="444.87 0.11 443.63 266.12 442.94 266.12 444.18 0.11 444.87 0.11"/><polygon class="cls-114" points="445.55 0.11 444.32 266.12 443.63 266.12 444.87 0.11 445.55 0.11"/><polygon class="cls-113" points="446.24 0.11 445.01 266.12 444.32 266.12 445.55 0.11 446.24 0.11"/><polygon class="cls-301" points="446.93 0.11 445.7 266.12 445.01 266.12 446.24 0.11 446.93 0.11"/><polygon class="cls-112" points="447.62 0.11 446.38 266.12 445.7 266.12 446.93 0.11 447.62 0.11"/><polygon class="cls-111" points="448.3 0.11 447.07 266.12 446.38 266.12 447.62 0.11 448.3 0.11"/><polygon class="cls-110" points="448.99 0.11 447.76 266.12 447.07 266.12 448.3 0.11 448.99 0.11"/><polygon class="cls-302" points="449.68 0.11 448.45 266.12 447.76 266.12 448.99 0.11 449.68 0.11"/><polygon class="cls-303" points="450.37 0.11 449.13 266.12 448.45 266.12 449.68 0.11 450.37 0.11"/><polygon class="cls-108" points="451.06 0.11 449.82 266.12 449.13 266.12 450.37 0.11 451.06 0.11"/><polygon class="cls-107" points="451.74 0.11 450.51 266.12 449.82 266.12 451.06 0.11 451.74 0.11"/><polygon class="cls-106" points="452.43 0.11 451.2 266.12 450.51 266.12 451.74 0.11 452.43 0.11"/><polygon class="cls-304" points="453.12 0.11 451.89 266.12 451.2 266.12 452.43 0.11 453.12 0.11"/><polygon class="cls-305" points="453.81 0.11 452.57 266.12 451.89 266.12 453.12 0.11 453.81 0.11"/><polygon class="cls-104" points="454.5 0.11 453.26 266.12 452.57 266.12 453.81 0.11 454.5 0.11"/><polygon class="cls-103" points="455.18 0.11 453.95 266.12 453.26 266.12 454.5 0.11 455.18 0.11"/><polygon class="cls-102" points="455.87 0.11 454.64 266.12 453.95 266.12 455.18 0.11 455.87 0.11"/><polygon class="cls-306" points="456.56 0.11 455.33 266.12 454.64 266.12 455.87 0.11 456.56 0.11"/><polygon class="cls-307" points="457.25 0.11 456.01 266.12 455.33 266.12 456.56 0.11 457.25 0.11"/><polygon class="cls-308" points="457.93 0.11 456.7 266.12 456.01 266.12 457.25 0.11 457.93 0.11"/><polygon class="cls-99" points="458.62 0.11 457.39 266.12 456.7 266.12 457.93 0.11 458.62 0.11"/><polygon class="cls-98" points="459.31 0.11 458.08 266.12 457.39 266.12 458.62 0.11 459.31 0.11"/><polygon class="cls-97" points="460 0.11 458.76 266.12 458.08 266.12 459.31 0.11 460 0.11"/><polygon class="cls-309" points="460.69 0.11 459.45 266.12 458.76 266.12 460 0.11 460.69 0.11"/><polygon class="cls-96" points="461.37 0.11 460.14 266.12 459.45 266.12 460.69 0.11 461.37 0.11"/><polygon class="cls-95" points="462.06 0.11 460.83 266.12 460.14 266.12 461.37 0.11 462.06 0.11"/><polygon class="cls-94" points="462.75 0.11 461.52 266.12 460.83 266.12 462.06 0.11 462.75 0.11"/><polygon class="cls-93" points="463.44 0.11 462.2 266.12 461.52 266.12 462.75 0.11 463.44 0.11"/><polygon class="cls-310" points="464.13 0.11 462.89 266.12 462.2 266.12 463.44 0.11 464.13 0.11"/><polygon class="cls-311" points="464.81 0.11 463.58 266.12 462.89 266.12 464.13 0.11 464.81 0.11"/><polygon class="cls-312" points="465.5 0.11 464.27 266.12 463.58 266.12 464.81 0.11 465.5 0.11"/><polygon class="cls-313" points="466.19 0.11 464.96 266.12 464.27 266.12 465.5 0.11 466.19 0.11"/><polygon class="cls-89" points="466.88 0.11 465.64 266.12 464.96 266.12 466.19 0.11 466.88 0.11"/><polygon class="cls-88" points="467.56 0.11 466.33 266.12 465.64 266.12 466.88 0.11 467.56 0.11"/><polygon class="cls-87" points="468.25 0.11 467.02 266.12 466.33 266.12 467.56 0.11 468.25 0.11"/><polygon class="cls-314" points="468.94 0.11 467.71 266.12 467.02 266.12 468.25 0.11 468.94 0.11"/><polygon class="cls-315" points="469.63 0.11 468.39 266.12 467.71 266.12 468.94 0.11 469.63 0.11"/><polygon class="cls-316" points="470.31 0.11 469.08 266.12 468.39 266.12 469.63 0.11 470.31 0.11"/><polygon class="cls-317" points="471 0.11 469.77 266.12 469.08 266.12 470.31 0.11 471 0.11"/><polygon class="cls-318" points="471.69 0.11 470.46 266.12 469.77 266.12 471 0.11 471.69 0.11"/><polygon class="cls-82" points="472.38 0.11 471.15 266.12 470.46 266.12 471.69 0.11 472.38 0.11"/><polygon class="cls-81" points="473.07 0.11 471.83 266.12 471.15 266.12 472.38 0.11 473.07 0.11"/><polygon class="cls-319" points="473.75 0.11 472.52 266.12 471.83 266.12 473.07 0.11 473.75 0.11"/><polygon class="cls-80" points="474.44 0.11 473.21 266.12 472.52 266.12 473.75 0.11 474.44 0.11"/><polygon class="cls-79" points="475.13 0.11 473.9 266.12 473.21 266.12 474.44 0.11 475.13 0.11"/><polygon class="cls-320" points="475.82 0.11 474.59 266.12 473.9 266.12 475.13 0.11 475.82 0.11"/><polygon class="cls-321" points="476.51 0.11 475.27 266.12 474.59 266.12 475.82 0.11 476.51 0.11"/><polygon class="cls-322" points="477.19 0.11 475.96 266.12 475.27 266.12 476.51 0.11 477.19 0.11"/><polygon class="cls-323" points="477.88 0.11 476.65 266.12 475.96 266.12 477.19 0.11 477.88 0.11"/><polygon class="cls-324" points="478.57 0.11 477.34 266.12 476.65 266.12 477.88 0.11 478.57 0.11"/><polygon class="cls-73" points="479.26 0.11 478.02 266.12 477.34 266.12 478.57 0.11 479.26 0.11"/><polygon class="cls-325" points="479.94 0.11 478.71 266.12 478.02 266.12 479.26 0.11 479.94 0.11"/><polygon class="cls-326" points="480.63 0.11 479.4 266.12 478.71 266.12 479.94 0.11 480.63 0.11"/><polygon class="cls-327" points="481.32 0.11 480.09 266.12 479.4 266.12 480.63 0.11 481.32 0.11"/><polygon class="cls-328" points="482.01 0.11 480.78 266.12 480.09 266.12 481.32 0.11 482.01 0.11"/><polygon class="cls-68" points="482.7 0.11 481.46 266.12 480.78 266.12 482.01 0.11 482.7 0.11"/><polygon class="cls-329" points="483.38 0.11 482.15 266.12 481.46 266.12 482.7 0.11 483.38 0.11"/><polygon class="cls-66" points="484.07 0.11 482.84 266.12 482.15 266.12 483.38 0.11 484.07 0.11"/><polygon class="cls-65" points="484.76 0.11 483.53 266.12 482.84 266.12 484.07 0.11 484.76 0.11"/><polygon class="cls-64" points="485.45 0.11 484.21 266.12 483.53 266.12 484.76 0.11 485.45 0.11"/><polygon class="cls-63" points="486.14 0.11 484.9 266.12 484.21 266.12 485.45 0.11 486.14 0.11"/><polygon class="cls-330" points="486.82 0.11 485.59 266.12 484.9 266.12 486.14 0.11 486.82 0.11"/><polygon class="cls-331" points="487.51 0.11 486.28 266.12 485.59 266.12 486.82 0.11 487.51 0.11"/><polygon class="cls-61" points="488.2 0.11 486.97 266.12 486.28 266.12 487.51 0.11 488.2 0.11"/><polygon class="cls-60" points="488.89 0.11 487.65 266.12 486.97 266.12 488.2 0.11 488.89 0.11"/><polygon class="cls-59" points="489.57 0.11 488.34 266.12 487.65 266.12 488.89 0.11 489.57 0.11"/><polygon class="cls-58" points="490.26 0.11 489.03 266.12 488.34 266.12 489.57 0.11 490.26 0.11"/><polygon class="cls-57" points="490.95 0.11 489.72 266.12 489.03 266.12 490.26 0.11 490.95 0.11"/><polygon class="cls-56" points="491.64 0.11 490.41 266.12 489.72 266.12 490.95 0.11 491.64 0.11"/><polygon class="cls-55" points="492.33 0.11 491.09 266.12 490.41 266.12 491.64 0.11 492.33 0.11"/><polygon class="cls-332" points="493.01 0.11 491.78 266.12 491.09 266.12 492.33 0.11 493.01 0.11"/><polygon class="cls-53" points="493.7 0.11 492.47 266.12 491.78 266.12 493.01 0.11 493.7 0.11"/><polygon class="cls-52" points="494.39 0.11 493.16 266.12 492.47 266.12 493.7 0.11 494.39 0.11"/><polygon class="cls-51" points="495.08 0.11 493.85 266.12 493.16 266.12 494.39 0.11 495.08 0.11"/><polygon class="cls-50" points="495.77 0.11 494.53 266.12 493.85 266.12 495.08 0.11 495.77 0.11"/><polygon class="cls-49" points="496.45 0.11 495.22 266.12 494.53 266.12 495.77 0.11 496.45 0.11"/><polygon class="cls-48" points="497.14 0.11 495.91 266.12 495.22 266.12 496.45 0.11 497.14 0.11"/><polygon class="cls-47" points="497.83 0.11 496.6 266.12 495.91 266.12 497.14 0.11 497.83 0.11"/><polygon class="cls-333" points="498.52 0.11 497.29 266.12 496.6 266.12 497.83 0.11 498.52 0.11"/><polygon class="cls-334" points="499.2 0.11 497.97 266.12 497.29 266.12 498.52 0.11 499.2 0.11"/><polygon class="cls-44" points="499.89 0.11 498.66 266.12 497.97 266.12 499.2 0.11 499.89 0.11"/><polygon class="cls-335" points="500.58 0.11 499.35 266.12 498.66 266.12 499.89 0.11 500.58 0.11"/><polygon class="cls-336" points="501.27 0.11 500.04 266.12 499.35 266.12 500.58 0.11 501.27 0.11"/><polygon class="cls-40" points="501.96 0.11 500.72 266.12 500.04 266.12 501.27 0.11 501.96 0.11"/><polygon class="cls-39" points="502.64 0.11 501.41 266.12 500.72 266.12 501.96 0.11 502.64 0.11"/><polygon class="cls-38" points="503.33 0.11 502.1 266.12 501.41 266.12 502.64 0.11 503.33 0.11"/><polygon class="cls-37" points="504.02 0.11 502.79 266.12 502.1 266.12 503.33 0.11 504.02 0.11"/><polygon class="cls-36" points="504.71 0.11 503.48 266.12 502.79 266.12 504.02 0.11 504.71 0.11"/><polygon class="cls-337" points="505.4 0.11 504.16 266.12 503.48 266.12 504.71 0.11 505.4 0.11"/><polygon class="cls-34" points="506.08 0.11 504.85 266.12 504.16 266.12 505.4 0.11 506.08 0.11"/><polygon class="cls-338" points="506.77 0.11 505.54 266.12 504.85 266.12 506.08 0.11 506.77 0.11"/><polygon class="cls-339" points="507.46 0.11 506.23 266.12 505.54 266.12 506.77 0.11 507.46 0.11"/><polygon class="cls-30" points="508.15 0.11 506.92 266.12 506.23 266.12 507.46 0.11 508.15 0.11"/><polygon class="cls-29" points="508.83 0.11 507.6 266.12 506.92 266.12 508.15 0.11 508.83 0.11"/><polygon class="cls-28" points="509.52 0.11 508.29 266.12 507.6 266.12 508.83 0.11 509.52 0.11"/><polygon class="cls-27" points="510.21 0.11 508.98 266.12 508.29 266.12 509.52 0.11 510.21 0.11"/><polygon class="cls-26" points="510.9 0.11 509.67 266.12 508.98 266.12 510.21 0.11 510.9 0.11"/><polygon class="cls-25" points="511.59 0.11 510.35 266.12 509.67 266.12 510.9 0.11 511.59 0.11"/><polygon class="cls-24" points="512.27 0.11 511.04 266.12 510.35 266.12 511.59 0.11 512.27 0.11"/><polygon class="cls-340" points="512.96 0.11 511.73 266.12 511.04 266.12 512.27 0.11 512.96 0.11"/><polygon class="cls-21" points="513.65 0.11 512.42 266.12 511.73 266.12 512.96 0.11 513.65 0.11"/><polygon class="cls-20" points="514.34 0.11 513.11 266.12 512.42 266.12 513.65 0.11 514.34 0.11"/><polygon class="cls-18" points="515.03 0.11 513.79 266.12 513.11 266.12 514.34 0.11 515.03 0.11"/><polygon class="cls-17" points="515.71 0.11 514.48 266.12 513.79 266.12 515.03 0.11 515.71 0.11"/><polygon class="cls-16" points="516.4 0.11 515.17 266.12 514.48 266.12 515.71 0.11 516.4 0.11"/><polygon class="cls-14" points="517.09 0.11 515.86 266.12 515.17 266.12 516.4 0.11 517.09 0.11"/><polygon class="cls-13" points="517.78 0.11 516.54 266.12 515.86 266.12 517.09 0.11 517.78 0.11"/><polygon class="cls-11" points="518.47 0.11 517.23 266.12 516.54 266.12 517.78 0.11 518.47 0.11"/><polygon class="cls-10" points="519.15 0.11 517.92 266.12 517.23 266.12 518.47 0.11 519.15 0.11"/><polygon class="cls-8" points="519.84 0.11 518.61 266.12 517.92 266.12 519.15 0.11 519.84 0.11"/><polygon class="cls-6" points="520.53 0.11 519.3 266.12 518.61 266.12 519.84 0.11 520.53 0.11"/><polygon class="cls-4" points="521.22 0.11 519.98 266.12 519.3 266.12 520.53 0.11 521.22 0.11"/><polygon class="cls-3" points="521.9 0.11 520.67 266.12 519.98 266.12 521.22 0.11 521.9 0.11"/><polygon class="cls-3" points="520.67 266.12 521.9 0.11 536.82 0.11 536.82 266.12 520.67 266.12"/></g></g></g></g></svg>