<svg width="48" height="48" viewBox="0 0 48 48" fill="none" xmlns="http://www.w3.org/2000/svg">
<path d="M10.734 15H0V48H10.734V15Z" fill="#FAFAFA"/>
<path d="M39.972 15.387C39.858 15.351 39.75 15.312 39.63 15.279C39.486 15.246 39.342 15.219 39.195 15.195C38.625 15.081 38.001 15 37.269 15C31.011 15 27.042 19.551 25.734 21.309V15H15V48H25.734V30C25.734 30 33.846 18.702 37.269 27C37.269 34.407 37.269 48 37.269 48H48V25.731C48 20.745 44.583 16.59 39.972 15.387Z" fill="#FAFAFA"/>
<path d="M5.25 10.5C8.1495 10.5 10.5 8.1495 10.5 5.25C10.5 2.35051 8.1495 0 5.25 0C2.35051 0 0 2.35051 0 5.25C0 8.1495 2.35051 10.5 5.25 10.5Z" fill="#FAFAFA"/>
</svg>
