<svg width="52" height="62" viewBox="0 0 52 62" fill="none" xmlns="http://www.w3.org/2000/svg">
<path d="M2.00513 53.7496L4.00345 53.8317L2.00513 53.7496ZM49.0204 0L8 0V4L49.0204 4V0ZM52 2.97959C52 1.33401 50.666 0 49.0204 0V4C48.4569 4 48 3.54315 48 2.97959L52 2.97959ZM52 47.75L52 2.97959L48 2.97959L48 47.75H52ZM49.75 50C50.9926 50 52 48.9926 52 47.75H48C48 46.7835 48.7835 46 49.75 46V50ZM44 50H49.75V46H44V50ZM44 46L13.75 46V50L44 50V46ZM13.75 46H8L8 50H13.75V46ZM8 46C3.69306 46 0.181867 49.4027 0.00681121 53.6676L4.00345 53.8317C4.09088 51.7014 5.84726 50 8 50L8 46ZM0 8L0 53.75H4L4 8H0ZM8 0C3.58172 0 0 3.58172 0 8H4C4 5.79086 5.79086 4 8 4V0ZM0.00681121 53.6676C0.0255692 53.2106 0.372754 51.8662 1.85843 51.7589C2.60134 51.7052 3.22931 52.063 3.59438 52.5444C3.93284 52.9907 4 53.4585 4 53.75H0C0 54.0441 0.0677715 54.5138 0.407161 54.9613C0.773157 55.444 1.40238 55.8022 2.14654 55.7485C3.63473 55.641 3.98448 54.2938 4.00345 53.8317L0.00681121 53.6676Z" fill="#F26E5A"/>
<path d="M49.3755 50.145L47.8385 48.8652L49.3755 50.145ZM49.3755 57.755L47.8385 59.0348L49.3755 57.755ZM52 59.75V59.2983H48V59.75H52ZM49.75 62C50.9927 62 52 60.9926 52 59.75H48C48 58.7835 48.7835 58 49.75 58V62ZM49.5 62H49.75V58H49.5V62ZM8 62L49.5 62V58L8 58L8 62ZM0 54C0 58.4183 3.58172 62 8 62L8 58C5.79086 58 4 56.2091 4 54H0ZM8 46C3.58172 46 0 49.5817 0 54H4C4 51.7909 5.79086 50 8 50V46ZM49.9375 46L8 46V50L49.9375 50V46ZM52 48.0625C52 46.9234 51.0766 46 49.9375 46V50C48.8674 50 48 49.1325 48 48.0625H52ZM52 48.6017V48.0625H48V48.6017H52ZM50 53.95C50 52.9876 50.3416 52.1102 50.9124 51.4248L47.8385 48.8652C46.6916 50.2426 46 52.0182 46 53.95H50ZM50.9124 56.4752C50.3416 55.7898 50 54.9124 50 53.95H46C46 55.8818 46.6916 57.6574 47.8385 59.0348L50.9124 56.4752ZM48 48.6017C48 48.5814 48.0051 48.5917 47.9846 48.6399C47.9627 48.6912 47.9182 48.7695 47.8385 48.8652L50.9124 51.4248C51.4697 50.7555 52 49.7852 52 48.6017H48ZM52 59.2983C52 58.1148 51.4697 57.1445 50.9124 56.4752L47.8385 59.0348C47.9182 59.1305 47.9627 59.2088 47.9846 59.2601C48.0051 59.3083 48 59.3186 48 59.2983H52Z" fill="#F26E5A"/>
</svg>
