<svg width="79" height="62" viewBox="0 0 79 62" fill="none" xmlns="http://www.w3.org/2000/svg">
<path d="M14.0348 30.8596C15.1763 27.6834 18.1883 25.5652 21.5634 25.5652L71.4995 25.5652C74.269 25.5652 76.2005 28.3117 75.2638 30.918L67.2013 53.3528C66.6306 54.9409 65.1246 56 63.437 56L7.84398 56C6.45924 56 5.49351 54.6267 5.96183 53.3236L14.0348 30.8596Z" stroke="#F26E5A" stroke-width="4" stroke-linecap="round" stroke-linejoin="round"/>
<path d="M5.92082 54.5533L4.38197 55.8308C4.98721 56.5599 6.02102 56.7642 6.8581 56.3201C7.69517 55.876 8.10573 54.9055 7.84146 53.9955L5.92082 54.5533ZM5.96183 53.3236L4.07968 52.6472L4.07968 52.6472L5.96183 53.3236ZM10 42.087L11.8821 42.7634C11.9601 42.5464 12 42.3175 12 42.087H10ZM56 25.5652H54C54 26.6698 54.8954 27.5652 56 27.5652V25.5652ZM66.25 25.5652V27.5652C67.3546 27.5652 68.25 26.6698 68.25 25.5652H66.25ZM29.5828 14.1798L27.9601 15.3489L27.9601 15.349L29.5828 14.1798ZM29.2112 13.664L30.8339 12.4948L30.8339 12.4948L29.2112 13.664ZM28.7997 13.0929L27.177 14.262L27.177 14.262L28.7997 13.0929ZM28.3882 12.5217L30.0109 11.3526L30.0109 11.3526L28.3882 12.5217ZM24.8866 7.66172L26.5093 6.49259L26.5093 6.49259L24.8866 7.66172ZM7 10C7 8.89543 7.89543 8 9 8V4C5.68629 4 3 6.6863 3 10H7ZM7 18.6957V10H3V18.6957H7ZM7 36.7826V18.6957H3V36.7826H7ZM7 52V36.7826H3V52H7ZM7.45967 53.2759C7.17157 52.9288 7 52.4871 7 52H3C3 53.4543 3.51993 54.7924 4.38197 55.8308L7.45967 53.2759ZM4.07968 52.6472C3.78191 53.4758 3.77452 54.3341 4.00018 55.1111L7.84146 53.9955C7.84174 53.9965 7.84237 53.9994 7.84227 54.0035C7.84224 54.0043 7.84219 54.0051 7.84213 54.0056C7.84207 54.0062 7.84201 54.0065 7.84202 54.0065C7.84202 54.0065 7.84211 54.006 7.84238 54.005C7.84265 54.004 7.84314 54.0023 7.84398 54L4.07968 52.6472ZM8.11785 41.4106L4.07968 52.6472L7.84398 54L11.8821 42.7634L8.11785 41.4106ZM12 42.087V23H8V42.087H12ZM12 23C12 21.8954 12.8954 21 14 21V17C10.6863 17 8 19.6863 8 23H12ZM14 21H52V17H14V21ZM52 21C53.1046 21 54 21.8954 54 23H58C58 19.6863 55.3137 17 52 17V21ZM54 23V25.5652H58V23H54ZM66.25 23.5652H56V27.5652H66.25V23.5652ZM64.25 18.6957V25.5652H68.25V18.6957H64.25ZM62.25 16.6957C63.3546 16.6957 64.25 17.5911 64.25 18.6957H68.25C68.25 15.3819 65.5637 12.6957 62.25 12.6957V16.6957ZM30.5903 16.6957H62.25V12.6957H30.5903V16.6957ZM27.9601 15.349C28.5694 16.1945 29.5481 16.6957 30.5903 16.6957V12.6957C30.8341 12.6957 31.063 12.8129 31.2055 13.0107L27.9601 15.349ZM27.5885 14.8331L27.9601 15.3489L31.2055 13.0107L30.8339 12.4948L27.5885 14.8331ZM27.177 14.262L27.5885 14.8331L30.8339 12.4948L30.4224 11.9237L27.177 14.262ZM26.7655 13.6909L27.177 14.262L30.4224 11.9237L30.0109 11.3526L26.7655 13.6909ZM23.2639 8.83086L26.7655 13.6909L30.0109 11.3526L26.5093 6.49259L23.2639 8.83086ZM21.6412 8C22.2842 8 22.888 8.30916 23.2639 8.83086L26.5093 6.49259C25.3816 4.92748 23.5702 4 21.6412 4V8ZM9 8H21.6412V4H9V8Z" fill="#F26E5A"/>
<path d="M10 42.087H8C8 43.0591 8.69901 43.8904 9.65671 44.0573C10.6144 44.2241 11.5534 43.6782 11.8821 42.7634L10 42.087ZM14.0348 30.8596L15.917 31.536L15.917 31.536L14.0348 30.8596ZM56 25.5652V27.5652C57.1046 27.5652 58 26.6698 58 25.5652H56ZM12 23C12 21.8954 12.8954 21 14 21V17C10.6863 17 8 19.6863 8 23H12ZM12 42.087V23H8V42.087H12ZM11.8821 42.7634L15.917 31.536L12.1527 30.1832L8.11785 41.4106L11.8821 42.7634ZM15.917 31.536C16.7731 29.1539 19.0321 27.5652 21.5634 27.5652V23.5652C17.3445 23.5652 13.5795 26.2129 12.1527 30.1832L15.917 31.536ZM21.5634 27.5652H56V23.5652H21.5634V27.5652ZM54 23V25.5652H58V23H54ZM52 21C53.1046 21 54 21.8954 54 23H58C58 19.6863 55.3137 17 52 17V21ZM14 21H52V17H14V21Z" fill="#F26E5A"/>
</svg>
