<svg width="33" height="68" viewBox="0 0 33 68" fill="none" xmlns="http://www.w3.org/2000/svg">
<path d="M12.4518 27.0564L13.3373 25.2631C12.9049 25.0496 12.4099 24.9995 11.9435 25.1221L12.4518 27.0564ZM14.1485 27.6777L14.6309 25.7368L14.6309 25.7368L14.1485 27.6777ZM19.8759 27.0708L20.3978 25.1401C19.9302 25.0137 19.4326 25.0613 18.9975 25.274L19.8759 27.0708ZM25.6878 35.9905L27.6653 36.2896L25.6878 35.9905ZM21.8987 61.0421L23.8762 61.3412L23.8762 61.3412L21.8987 61.0421ZM10.3702 61.0411L8.39265 61.3399L8.39265 61.3399L10.3702 61.0411ZM6.58556 35.9891L8.56312 35.6904L8.56312 35.6904L6.58556 35.9891ZM11.5662 28.8497C12.2291 29.177 12.9321 29.4362 13.6661 29.6187L14.6309 25.7368C14.1779 25.6242 13.745 25.4645 13.3373 25.2631L11.5662 28.8497ZM13.6661 29.6187C16.0789 30.2184 18.5854 29.9279 20.7543 28.8676L18.9975 25.274C17.6606 25.9276 16.1168 26.1061 14.6309 25.7368L13.6661 29.6187ZM27.6653 36.2896C28.4449 31.1357 25.1634 26.4283 20.3978 25.1401L19.354 29.0015C22.2142 29.7747 24.177 32.6061 23.7103 35.6914L27.6653 36.2896ZM23.8762 61.3412L27.6653 36.2896L23.7103 35.6914L19.9212 60.743L23.8762 61.3412ZM16.1345 68C20.0066 68 23.2971 65.1697 23.8762 61.3412L19.9212 60.743C19.6379 62.6156 18.0284 64 16.1345 64V68ZM8.39265 61.3399C8.97112 65.169 12.2619 68 16.1345 68V64C14.2403 64 12.6307 62.6153 12.3478 60.7424L8.39265 61.3399ZM4.608 36.2879L8.39265 61.3399L12.3478 60.7424L8.56312 35.6904L4.608 36.2879ZM11.9435 25.1221C7.14173 26.3837 3.82581 31.1103 4.608 36.2879L8.56312 35.6904C8.09486 32.5908 10.0785 29.7479 12.96 28.9907L11.9435 25.1221Z" fill="#F26E5A"/>
<path d="M22.5959 24.995L21.1903 23.5723C21.1849 23.5776 21.1796 23.5829 21.1743 23.5882L22.5959 24.995ZM25.6433 13.6163L23.7131 14.1399L23.7131 14.1399L25.6433 13.6163ZM17.3116 5.28456L17.8353 3.35433L17.8353 3.35433L17.3116 5.28456ZM11.7903 5.13503L11.3731 3.17902C10.7546 3.31094 10.2349 3.72764 9.97168 4.30271C9.70848 4.87777 9.73279 5.54345 10.0372 6.09779L11.7903 5.13503ZM12.3745 6.56926L10.4479 7.10598L10.4479 7.10599L12.3745 6.56926ZM12.4102 6.69721L14.3368 6.16049L14.3368 6.16048L12.4102 6.69721ZM10.5751 13.2056L9.21242 11.7416C8.81506 12.1115 8.58511 12.627 8.57539 13.1698C8.56566 13.7125 8.77699 14.2359 9.16085 14.6198L10.5751 13.2056ZM10.5779 13.2084L11.9921 14.6226C12.7731 13.8416 12.7731 12.5752 11.9921 11.7942L10.5779 13.2084ZM8.01085 21.5402L6.0699 22.0226L6.0699 22.0226L8.01085 21.5402ZM14.1485 27.6778L13.666 29.6188L13.666 29.6188L14.1485 27.6778ZM22.1298 25.4613L20.7156 24.0471L22.1298 25.4613ZM22.565 25.0261L23.9792 26.4404L22.565 25.0261ZM24.0016 26.4178C24.021 26.3986 24.0404 26.3793 24.0599 26.3598L21.2314 23.5314C21.2178 23.545 21.2041 23.5586 21.1903 23.5723L24.0016 26.4178ZM24.0599 26.3598C27.5254 22.8943 28.8531 17.8091 27.5735 13.0926L23.7131 14.1399C24.621 17.4865 23.6734 21.0894 21.2314 23.5314L24.0599 26.3598ZM27.5735 13.0926C26.2923 8.36994 22.5579 4.63559 17.8353 3.35433L16.7879 7.21478C20.14 8.1242 22.8037 10.7879 23.7131 14.1399L27.5735 13.0926ZM17.8353 3.35433C15.6931 2.77316 13.477 2.73032 11.3731 3.17902L12.2074 7.09104C13.7011 6.77248 15.2719 6.80347 16.7879 7.21478L17.8353 3.35433ZM10.0372 6.09779C10.2103 6.41298 10.3489 6.75058 10.4479 7.10598L14.3012 6.03254C14.1188 5.37798 13.8632 4.7547 13.5433 4.17228L10.0372 6.09779ZM10.4479 7.10599L10.4836 7.23395L14.3368 6.16048L14.3012 6.03252L10.4479 7.10599ZM10.4836 7.23393C10.9198 8.79992 10.4787 10.4795 9.32917 11.629L12.1576 14.4574C14.3276 12.2874 15.1604 9.11675 14.3368 6.16049L10.4836 7.23393ZM9.32917 11.629C9.29082 11.6673 9.25189 11.7049 9.21242 11.7416L11.9377 14.6696C12.0121 14.6003 12.0854 14.5296 12.1576 14.4574L9.32917 11.629ZM9.16085 14.6198L9.16366 14.6226L11.9921 11.7942L11.9893 11.7914L9.16085 14.6198ZM11.6416 14.9731L11.9921 14.6226L9.16366 11.7942L8.81319 12.1446L11.6416 14.9731ZM9.95179 21.0578C9.40889 18.8735 10.0501 16.5646 11.6416 14.9731L8.81319 12.1446C6.22956 14.7283 5.18855 18.4767 6.0699 22.0226L9.95179 21.0578ZM14.6309 25.7369C12.3252 25.1638 10.5249 23.3635 9.95179 21.0578L6.0699 22.0226C7.00028 25.7658 9.9229 28.6884 13.666 29.6188L14.6309 25.7369ZM20.7156 24.0471C19.1241 25.6386 16.8151 26.2798 14.6309 25.7369L13.666 29.6188C17.212 30.5001 20.9604 29.4591 23.544 26.8755L20.7156 24.0471ZM21.1508 23.6119L20.7156 24.0471L23.544 26.8755L23.9792 26.4404L21.1508 23.6119ZM21.1743 23.5882C21.1665 23.5961 21.1587 23.604 21.1508 23.6119L23.9792 26.4404C23.992 26.4275 24.0048 26.4147 24.0175 26.4018L21.1743 23.5882Z" fill="#F26E5A"/>
</svg>
