<svg width="76" height="76" viewBox="0 0 76 76" fill="none" xmlns="http://www.w3.org/2000/svg">
<mask id="mask0" mask-type="alpha" maskUnits="userSpaceOnUse" x="0" y="0" width="76" height="76">
<circle cx="38" cy="38" r="38" fill="#C4C4C4"/>
</mask>
<g mask="url(#mask0)">
<rect width="162" height="89" fill="white"/>
<path d="M61.8313 18.954C62.4313 18.687 62.8023 18.634 66.8313 18.309C66.9623 18.299 67.0753 18.282 67.1833 18.265H142.821V17.877H67.8003C67.8349 17.7925 67.8536 17.7023 67.8553 17.611C67.8553 17.343 67.8553 17.074 67.3703 17.074L66.0823 17.237C62.4433 17.6788 58.7787 17.8756 55.1133 17.826L32.9753 17.452C18.9503 17.289 18.3123 17.181 16.2113 16.806L12.8263 16C12.7284 16.0052 12.6358 16.0462 12.5662 16.1151C12.4965 16.184 12.4545 16.2762 12.4483 16.374C12.4483 17.128 14.4923 17.88 15.7813 18.149C17.1233 18.418 20.4033 18.739 20.6183 18.903C21.1033 19.277 21.2633 25.028 21.2633 25.89C21.2369 33.1324 20.7519 40.3659 19.8113 47.547C19.4333 49.697 18.2553 57.381 13.6863 57.381C13.226 57.374 12.7766 57.2395 12.3882 56.9923C11.9998 56.7451 11.6876 56.3951 11.4863 55.981C11.1553 56.3921 10.9832 56.9085 11.0013 57.436C11.0013 58.618 12.1853 60.285 14.9243 59.798C14.5253 60.4855 14.3037 61.2615 14.2793 62.056C14.301 62.6812 14.5554 63.2758 14.9927 63.7231C15.4301 64.1704 16.0187 64.4382 16.6433 64.474C17.0158 64.4551 17.381 64.3634 17.7183 64.204C16.9093 63.774 16.5843 63.562 16.5843 62.972C16.5843 61.895 18.9003 57.059 19.2793 55.981C21.6943 49.372 22.3953 39.429 22.3953 35.454C22.3486 33.82 22.4201 32.1847 22.6093 30.561C22.6623 30.294 22.5543 28.951 22.5543 28.735C22.5543 28.519 22.7143 28.413 22.9373 28.413C23.2543 28.413 23.3073 28.573 23.9003 29.865C26.6933 36.151 30.9373 44.912 34.5953 52.329C35.6693 54.747 35.8263 55.014 36.3653 55.014C36.7963 55.014 37.0653 54.156 37.2283 53.672C37.7113 52.272 40.8793 45.45 41.5803 43.944C43.0263 40.666 49.5323 24.812 50.5563 23.149H51.1463C51.2543 25.135 51.2543 32.013 51.2543 34.433L51.2013 39.699C51.2013 41.58 51.0393 52.759 50.8763 53.188C50.4463 53.942 44.1603 53.349 44.1603 54.48L44.2673 54.853L50.9283 54.747L57.8113 54.91C59.1553 54.961 65.7653 55.337 67.2733 55.337C67.5923 55.337 68.0223 55.231 68.0223 54.747C68.0294 54.6836 68.0239 54.6193 68.0061 54.558C67.9883 54.4967 67.9585 54.4395 67.9186 54.3897C67.8786 54.3399 67.8293 54.2985 67.7733 54.2678C67.7173 54.2372 67.6558 54.2178 67.5923 54.211C66.6232 53.944 65.6323 53.7636 64.6313 53.672C62.8623 53.458 62.6973 53.403 62.3783 52.972C61.8313 52.279 60.6493 46.762 60.4703 35.19H142.829V34.803H60.4573C60.4453 33.956 60.4383 33.083 60.4383 32.173C60.4383 31.973 60.4433 31.531 60.4533 30.958H142.823V30.573H60.4593C60.4773 29.518 60.5063 28.111 60.5453 26.729H142.823V26.341H60.5573C60.5983 24.933 60.6503 23.587 60.7093 22.716C60.7093 22.644 60.7213 22.57 60.7263 22.496H142.826V22.109H60.7563C60.8563 20.786 61.0433 19.329 61.8313 18.954V18.954ZM38.4593 45.988C37.9203 45.988 37.5973 45.181 34.6993 38.841C31.9523 32.769 29.3203 27.447 26.2063 21.052C25.8653 20.3888 25.5608 19.7075 25.2943 19.011C25.2943 18.634 25.6653 18.524 25.9373 18.524L27.5983 18.579C29.1593 21.534 31.3083 26.479 32.7663 29.543L38.8883 42.493C39.186 43.0261 39.4372 43.5838 39.6393 44.16C39.6393 44.375 38.8883 45.988 38.4593 45.988ZM46.8423 28.144C44.4753 33.736 40.9833 41.69 40.3953 42.818C38.5103 39.485 29.0563 19.118 29.0563 18.903C29.063 18.811 29.1057 18.7254 29.1752 18.6647C29.2446 18.604 29.3352 18.5732 29.4273 18.579C37.0603 18.687 47.2143 18.954 50.2273 18.954C50.3103 18.9609 50.388 18.9973 50.4465 19.0565C50.505 19.1158 50.5404 19.194 50.5463 19.277C50.5463 19.547 49.2553 22.397 46.8383 28.144H46.8423ZM60.2753 53.565C58.2923 53.565 58.2923 52.706 58.2923 52.006L57.9143 48.568C57.5363 43.461 57.4263 35.723 57.4263 32.985C57.4292 29.196 57.6272 25.4097 58.0193 21.641C58.0693 20.835 58.2343 19.169 59.3093 19.169C59.4234 19.1653 59.537 19.1849 59.6432 19.2268C59.7494 19.2686 59.8459 19.3318 59.9268 19.4124C60.0076 19.493 60.0711 19.5892 60.1133 19.6953C60.1556 19.8013 60.1756 19.9149 60.1723 20.029L59.7423 24.653C59.5753 27.123 59.4753 32.39 59.4753 33.682C59.5262 38.6746 59.8306 43.6613 60.3873 48.623C60.4873 49.323 61.0313 52.438 61.0313 52.923C61.0313 53.244 60.9203 53.565 60.2753 53.565Z" fill="#701826"/>
</g>
</svg>
