<svg width="25" height="25" viewBox="0 0 25 25" fill="none" xmlns="http://www.w3.org/2000/svg">
<mask id="mask0" mask-type="alpha" maskUnits="userSpaceOnUse" x="0" y="0" width="25" height="25">
<circle cx="12.3838" cy="12.5" r="12" fill="#C4C4C4"/>
</mask>
<g mask="url(#mask0)">
<path d="M4.63379 0.5H20.1338C22.4838 0.5 24.3838 2.44872 24.3838 4.85897V20.141C24.3838 22.5513 22.4838 24.5 20.1338 24.5H4.63379C2.28379 24.5 0.383789 22.5513 0.383789 20.141V4.85897C0.383789 2.44872 2.28379 0.5 4.63379 0.5Z" fill="#001E36"/>
<path fill-rule="evenodd" clip-rule="evenodd" d="M5.38379 7.65741V17.1852C5.38379 17.2685 5.42257 17.3056 5.50013 17.3056H7.34212H7.3809C7.44877 17.2963 7.49724 17.2407 7.48755 17.1759V14.2037H7.48757C7.67176 14.2037 7.80748 14.2037 7.90442 14.213C8.00137 14.2222 8.15648 14.2222 8.38915 14.2222C9.18412 14.2222 9.91123 14.1389 10.5705 13.9074C11.2006 13.6852 11.7435 13.2963 12.1313 12.7778C12.5191 12.2593 12.713 11.6019 12.713 10.8056C12.713 10.3889 12.6354 9.99074 12.49 9.60185C12.3349 9.2037 12.0925 8.84259 11.7823 8.5463C11.4139 8.2037 10.968 7.94444 10.4832 7.78704C9.94031 7.59259 9.28107 7.5 8.4861 7.5C8.19526 7.5 7.90442 7.5 7.60388 7.50926C7.45879 7.51373 7.31822 7.51604 7.18216 7.51828C7.0364 7.52068 6.89583 7.52299 6.76044 7.52778C6.63348 7.53227 6.51109 7.53458 6.39215 7.53683C6.26586 7.53922 6.14346 7.54153 6.02364 7.5463C5.80066 7.55556 5.64555 7.55556 5.48074 7.55556C5.41287 7.55556 5.38379 7.59259 5.38379 7.65741ZM7.49725 12.4537V9.34259C7.56512 9.33333 7.70084 9.32407 7.89474 9.33333C8.07894 9.32407 8.30192 9.32407 8.55398 9.32407C8.95146 9.31482 9.33925 9.37037 9.69796 9.50926C9.9791 9.61111 10.2118 9.7963 10.3766 10.037C10.5317 10.287 10.6093 10.5741 10.5996 10.8611C10.5996 11.2685 10.5026 11.5833 10.299 11.8148C10.0857 12.0463 9.81429 12.2222 9.50406 12.3056C9.14536 12.4167 8.76726 12.4722 8.38917 12.4722H7.87535C7.76737 12.4722 7.65104 12.4642 7.52636 12.4557C7.51671 12.455 7.507 12.4544 7.49725 12.4537Z" fill="#31A8FF"/>
<path d="M18.7624 11.8889C18.4716 11.7407 18.1614 11.6389 17.8317 11.5741C17.473 11.5 17.1143 11.4537 16.7459 11.4537C16.552 11.4444 16.3484 11.4722 16.1642 11.5185C16.0382 11.5463 15.9316 11.6111 15.8637 11.7037C15.8152 11.7778 15.7862 11.8704 15.7862 11.9537C15.7862 12.037 15.8249 12.1204 15.8831 12.1944C15.9704 12.2963 16.0867 12.3796 16.2127 12.4444C16.4357 12.5556 16.6684 12.6574 16.901 12.75C17.4246 12.9167 17.9287 13.1481 18.394 13.4259C18.714 13.6204 18.9757 13.8796 19.1599 14.1944C19.315 14.4907 19.3926 14.8148 19.3829 15.1481C19.3926 15.5833 19.2569 16.0185 19.0048 16.3796C18.7333 16.75 18.3553 17.037 17.919 17.2037C17.444 17.3981 16.8623 17.5 16.1642 17.5C15.7183 17.5 15.282 17.463 14.8458 17.3796C14.5064 17.3241 14.1671 17.2222 13.8569 17.0833C13.789 17.0463 13.7406 16.9815 13.7503 16.9074V15.2963C13.7503 15.2685 13.76 15.2315 13.789 15.213C13.8181 15.1944 13.8472 15.2037 13.8763 15.2222C14.2544 15.4352 14.6519 15.5833 15.0784 15.6759C15.4468 15.7685 15.8346 15.8148 16.2224 15.8148C16.5908 15.8148 16.8526 15.7685 17.0271 15.6852C17.1822 15.6204 17.2888 15.463 17.2888 15.2963C17.2888 15.1667 17.2113 15.0463 17.0562 14.9259C16.901 14.8056 16.5811 14.6667 16.1061 14.4907C15.6116 14.3241 15.156 14.1019 14.7294 13.8241C14.4289 13.6204 14.1768 13.3519 13.9926 13.037C13.8375 12.7407 13.76 12.4167 13.7696 12.0926C13.7696 11.6944 13.886 11.3148 14.0993 10.9722C14.3416 10.6019 14.7003 10.3056 15.1172 10.1204C15.5729 9.89815 16.1449 9.7963 16.8332 9.7963C17.2307 9.7963 17.6378 9.82407 18.0353 9.87963C18.3262 9.91667 18.6073 9.99074 18.8691 10.0926C18.9079 10.1019 18.9466 10.1389 18.966 10.1759C18.9757 10.213 18.9854 10.25 18.9854 10.287V11.7963C18.9854 11.8333 18.966 11.8704 18.9369 11.8889C18.8497 11.9074 18.8012 11.9074 18.7624 11.8889Z" fill="#31A8FF"/>
</g>
</svg>
