<svg width="25" height="25" viewBox="0 0 25 25" fill="none" xmlns="http://www.w3.org/2000/svg">
<mask id="mask0" mask-type="alpha" maskUnits="userSpaceOnUse" x="0" y="0" width="25" height="25">
<circle cx="12.3838" cy="12.5" r="12" fill="#C4C4C4"/>
</mask>
<g mask="url(#mask0)">
<path d="M4.63379 0.5H20.1338C22.4838 0.5 24.3838 2.44872 24.3838 4.85897V20.141C24.3838 22.5513 22.4838 24.5 20.1338 24.5H4.63379C2.28379 24.5 0.383789 22.5513 0.383789 20.141V4.85897C0.383789 2.44872 2.28379 0.5 4.63379 0.5Z" fill="#330000"/>
<path fill-rule="evenodd" clip-rule="evenodd" d="M8.49438 15.2973H12.4156L13.28 17.3943C13.3011 17.4559 13.3748 17.5 13.4486 17.4912H15.6517C15.7571 17.4912 15.7887 17.4471 15.7571 17.3502L11.9096 8.27532C11.8991 8.23127 11.8569 8.20483 11.7726 8.20483H9.07413H9.04251C8.9898 8.21364 8.94764 8.2577 8.95818 8.30175C8.95818 8.49558 8.9371 8.68942 8.89494 8.87444C8.86506 8.94935 8.84048 9.01983 8.81744 9.08589C8.80796 9.11307 8.79874 9.1395 8.78953 9.16519L5.39534 17.3326C5.36371 17.4383 5.39534 17.4912 5.51129 17.4912H7.49299C7.58786 17.5 7.67218 17.4471 7.69327 17.3678L8.49438 15.2973ZM11.7832 13.5088H9.10577C9.26389 13.1388 9.422 12.7247 9.56958 12.2753C9.67399 12.0026 9.77437 11.7299 9.8732 11.4613C9.93401 11.2961 9.99424 11.1324 10.0545 10.9714C10.202 10.5925 10.318 10.2136 10.4129 9.83479H10.4339C10.4751 9.95266 10.5162 10.076 10.5592 10.2048C10.5933 10.3071 10.6285 10.4128 10.6658 10.522C10.7502 10.7775 10.845 11.033 10.9504 11.3062C11.0031 11.4427 11.0532 11.5771 11.1033 11.7114C11.1534 11.8458 11.2034 11.9802 11.2561 12.1167C11.351 12.381 11.4459 12.6366 11.5407 12.8744C11.6356 13.1035 11.7199 13.3238 11.7832 13.5088Z" fill="#FF9A00"/>
<path fill-rule="evenodd" clip-rule="evenodd" d="M17.1168 9.40308C17.3698 9.60573 17.7071 9.72026 18.055 9.71145C18.4134 9.72908 18.7717 9.61454 19.0142 9.40308C19.2672 9.18282 19.3937 8.89207 19.3831 8.59251C19.3937 8.30176 19.2672 8.01982 19.0353 7.80837C18.8034 7.60573 18.4871 7.5 18.076 7.5C17.7282 7.5 17.3909 7.60573 17.1379 7.80837C16.8849 8.01101 16.7479 8.29295 16.7584 8.59251C16.7479 8.89207 16.8744 9.18282 17.1168 9.40308ZM16.8744 10.5749V17.359C16.8744 17.4471 16.9271 17.5 17.0325 17.5H19.0985C19.1934 17.5 19.2356 17.4559 19.2356 17.359V10.5749C19.2356 10.4956 19.1934 10.4515 19.0985 10.4515H17.0114C16.9166 10.4515 16.8744 10.4868 16.8744 10.5749Z" fill="#FF9A00"/>
</g>
</svg>
