<svg width="25" height="25" viewBox="0 0 25 25" fill="none" xmlns="http://www.w3.org/2000/svg">
<path d="M0.383789 12.5C0.383789 5.8726 5.75639 0.5 12.3838 0.5C19.0112 0.5 24.3838 5.8726 24.3838 12.5C24.3838 19.1274 19.0112 24.5 12.3838 24.5C5.75639 24.5 0.383789 19.1274 0.383789 12.5Z" fill="#333333"/>
<path d="M9.98374 19.7C11.3092 19.7 12.3837 18.6255 12.3837 17.3V14.9H9.98374C8.65826 14.9 7.58374 15.9745 7.58374 17.3C7.58374 18.6255 8.65826 19.7 9.98374 19.7Z" fill="#0ACF83"/>
<path d="M7.58374 12.5C7.58374 11.1745 8.65826 10.1 9.98374 10.1H12.3837V14.9H9.98374C8.65826 14.9 7.58374 13.8255 7.58374 12.5Z" fill="#A259FF"/>
<path d="M7.58374 7.69999C7.58374 6.3745 8.65826 5.29999 9.98374 5.29999H12.3837V10.1H9.98374C8.65826 10.1 7.58374 9.02547 7.58374 7.69999Z" fill="#F24E1E"/>
<path d="M12.3838 5.29999H14.7838C16.1093 5.29999 17.1838 6.3745 17.1838 7.69999C17.1838 9.02547 16.1093 10.1 14.7838 10.1H12.3838V5.29999Z" fill="#FF7262"/>
<path d="M17.1838 12.5C17.1838 13.8255 16.1093 14.9 14.7838 14.9C13.4583 14.9 12.3838 13.8255 12.3838 12.5C12.3838 11.1745 13.4583 10.1 14.7838 10.1C16.1093 10.1 17.1838 11.1745 17.1838 12.5Z" fill="#1ABCFE"/>
</svg>
