<svg width="24" height="24" viewBox="0 0 24 24" fill="none" xmlns="http://www.w3.org/2000/svg">
<path d="M0 12C0 5.37258 5.37258 0 12 0C18.6274 0 24 5.37258 24 12C24 18.6274 18.6274 24 12 24C5.37258 24 0 18.6274 0 12Z" fill="#FF3366"/>
<path fill-rule="evenodd" clip-rule="evenodd" d="M9.51457 7.27599C9.51457 6.55238 8.92414 6 8.21921 6C7.51436 6 6.92392 6.55238 6.92392 7.27599C6.92392 8.00013 7.51436 8.55259 8.21921 8.55259C8.92414 8.55259 9.51457 8.00013 9.51457 7.27599ZM14.9426 16.3626C14.9426 17.4297 15.571 18.2103 16.8855 18.2103C18.0094 18.2103 18.9048 17.4868 19.4 15.7532L18.562 15.4297C18.1429 16.5911 17.7809 16.8012 17.4952 16.8012C17.2094 16.8012 17.0569 16.6109 17.0569 16.23C17.0569 16.0586 17.0952 15.8686 17.1521 15.6395L17.7619 13.45C17.9143 12.9358 17.9714 12.4807 17.9714 12.0618C17.9714 10.4235 16.9807 9.57045 15.7806 9.57045C14.6568 9.57045 13.5138 10.5879 12.9424 11.6548L13.3614 9.74722H10.1039L9.64676 11.4388H11.1707L10.2324 15.1872C9.49529 16.8254 8.14156 16.8431 7.97171 16.805C7.69276 16.7421 7.51437 16.638 7.51437 16.2756C7.51437 16.0664 7.55243 15.7697 7.6477 15.4075L9.07654 9.74722H5.45719L5 11.4388H6.50481L5.53331 15.3956C5.45719 15.7195 5.41897 16.0573 5.41897 16.3425C5.41897 17.4667 6.02856 18.2086 7.32392 18.2086C8.39838 18.2086 9.26931 17.5619 9.89634 16.5317L9.51343 18.0513H11.6469L12.8661 13.1783C13.1708 11.94 13.7614 11.3146 14.6568 11.3146C15.3617 11.3146 15.7998 11.753 15.7998 12.4766C15.7998 12.6863 15.7806 12.9146 15.7045 13.1624L15.0758 15.4102C14.9805 15.734 14.9426 16.0581 14.9426 16.3626Z" fill="white"/>
</svg>
