<svg width="24" height="24" viewBox="0 0 24 24" fill="none" xmlns="http://www.w3.org/2000/svg">
<circle cx="12" cy="12" r="12" fill="#2B384C"/>
<path fill-rule="evenodd" clip-rule="evenodd" d="M4.75066 15.0314C3.74977 14.0393 3.74978 12.4308 4.75069 11.4387L7.4692 8.74408C8.31533 7.90541 9.60586 7.7757 10.5894 8.35496C10.8937 8.53413 10.891 8.94515 10.6408 9.19317C10.3906 9.4412 9.98207 9.41985 9.64243 9.32139C9.2075 9.1953 8.71838 9.30226 8.37538 9.64226L5.65685 12.3368C5.1564 12.8329 5.15639 13.6371 5.65684 14.1332C6.1573 14.6293 6.96871 14.6293 7.46917 14.1332L12.9061 8.74411C13.9071 7.75202 15.5298 7.75201 16.5308 8.7441L19.2493 11.4387C20.2502 12.4307 20.2502 14.0393 19.2493 15.0314C18.2484 16.0235 16.6256 16.0235 15.6247 15.0314L14.7185 14.1332L13.5858 15.2559C12.7397 16.0946 11.4492 16.2243 10.4656 15.645C10.1613 15.4659 10.164 15.0549 10.4142 14.8068C10.6644 14.5588 11.0729 14.5801 11.4126 14.6786C11.8475 14.8047 12.3366 14.6977 12.6796 14.3577L13.8447 13.2029C14.3273 12.7246 15.1097 12.7246 15.5923 13.2029L16.5309 14.1332C17.0313 14.6292 17.8427 14.6292 18.3431 14.1332C18.8436 13.6371 18.8436 12.8329 18.3431 12.3368L15.6246 9.64229C15.1242 9.14625 14.3128 9.14625 13.8123 9.6423L8.37534 15.0314C7.3744 16.0235 5.75158 16.0235 4.75066 15.0314Z" fill="white"/>
</svg>
