<svg width="24" height="24" viewBox="0 0 24 24" fill="none" xmlns="http://www.w3.org/2000/svg">
<path d="M0 12C0 5.37258 5.37258 0 12 0C18.6274 0 24 5.37258 24 12C24 18.6274 18.6274 24 12 24C5.37258 24 0 18.6274 0 12Z" fill="#FFD02F"/>
<path d="M4 4H20V20H4V4Z" fill="#FFD02F"/>
<path d="M14.9028 6.13333H13.1947L14.7111 8.48333L11.5054 6.13333H9.79739L11.3137 9.21267L8.10804 6.13333H6.40002L7.89137 10.1087L6.40002 17.8667H8.10804L11.3137 9.54833L9.79739 17.8667H11.5054L14.7111 8.81933L13.1947 17.8667H14.9028L18.1335 7.92833L14.9028 6.13333Z" fill="#050038"/>
</svg>
