<svg width="24" height="24" viewBox="0 0 24 24" fill="none" xmlns="http://www.w3.org/2000/svg">
<path d="M12 24C18.6274 24 24 18.6274 24 12C24 5.37258 18.6274 0 12 0C5.37258 0 0 5.37258 0 12C0 18.6274 5.37258 24 12 24Z" fill="#333333"/>
<mask id="mask0" mask-type="alpha" maskUnits="userSpaceOnUse" x="4" y="6" width="16" height="14">
<path fill-rule="evenodd" clip-rule="evenodd" d="M7.93946 6.82871L11.9946 6.4L16.0497 6.82871L19.1892 11.0432L11.9946 19.4212L4.79999 11.0432L7.93946 6.82871Z" fill="white"/>
</mask>
<g mask="url(#mask0)">
<path d="M4.617 19.6042H19.3722V6.21703H4.617V19.6042Z" fill="#FDB300"/>
</g>
<mask id="mask1" mask-type="alpha" maskUnits="userSpaceOnUse" x="4" y="11" width="8" height="9">
<path fill-rule="evenodd" clip-rule="evenodd" d="M7.71417 11.0432L11.9946 19.4212L4.79999 11.0432H7.71417Z" fill="white"/>
</mask>
<g mask="url(#mask1)">
<path d="M4.617 19.6042H12.1776V10.8602H4.617V19.6042Z" fill="#EA6C00"/>
</g>
<mask id="mask2" mask-type="alpha" maskUnits="userSpaceOnUse" x="11" y="11" width="9" height="9">
<path fill-rule="evenodd" clip-rule="evenodd" d="M16.2751 11.0432L11.9946 19.4212L19.1892 11.0432H16.2751Z" fill="white"/>
</mask>
<g mask="url(#mask2)">
<path d="M11.8116 19.6042H19.3722V10.8602H11.8116V19.6042Z" fill="#EA6C00"/>
</g>
<mask id="mask3" mask-type="alpha" maskUnits="userSpaceOnUse" x="7" y="11" width="10" height="9">
<path fill-rule="evenodd" clip-rule="evenodd" d="M7.71417 11.0432H16.275L11.9946 19.4212L7.71417 11.0432Z" fill="white"/>
</mask>
<g mask="url(#mask3)">
<path d="M7.53119 19.6042H16.458V10.8602H7.53119V19.6042Z" fill="#FDAD00"/>
</g>
<mask id="mask4" mask-type="alpha" maskUnits="userSpaceOnUse" x="7" y="6" width="5" height="6">
<path fill-rule="evenodd" clip-rule="evenodd" d="M11.9946 6.4L7.93946 6.82871L7.71417 11.0432L11.9946 6.4Z" fill="white"/>
</mask>
<g mask="url(#mask4)">
<path d="M7.53119 11.2261H12.1776V6.21703H7.53119V11.2261Z" fill="#FDD231"/>
</g>
<mask id="mask5" mask-type="alpha" maskUnits="userSpaceOnUse" x="11" y="6" width="6" height="6">
<path fill-rule="evenodd" clip-rule="evenodd" d="M11.9946 6.4L16.0498 6.82871L16.2751 11.0432L11.9946 6.4Z" fill="white"/>
</mask>
<g mask="url(#mask5)">
<path d="M11.8116 11.2261H16.458V6.21703H11.8116V11.2261Z" fill="#FDD231"/>
</g>
<mask id="mask6" mask-type="alpha" maskUnits="userSpaceOnUse" x="16" y="6" width="4" height="6">
<path fill-rule="evenodd" clip-rule="evenodd" d="M19.1892 11.0432L16.0497 6.82871L16.275 11.0432H19.1892Z" fill="white"/>
</mask>
<g mask="url(#mask6)">
<path d="M15.8668 11.2261H19.3722V6.64574H15.8668V11.2261Z" fill="#FDAD00"/>
</g>
<mask id="mask7" mask-type="alpha" maskUnits="userSpaceOnUse" x="4" y="6" width="4" height="6">
<path fill-rule="evenodd" clip-rule="evenodd" d="M4.79999 11.0432L7.93946 6.82871L7.71417 11.0432H4.79999Z" fill="white"/>
</mask>
<g mask="url(#mask7)">
<path d="M4.617 11.2261H8.12242V6.64574H4.617V11.2261Z" fill="#FDAD00"/>
</g>
<mask id="mask8" mask-type="alpha" maskUnits="userSpaceOnUse" x="7" y="6" width="10" height="6">
<path fill-rule="evenodd" clip-rule="evenodd" d="M11.9946 6.4L7.71417 11.0432H16.275L11.9946 6.4Z" fill="white"/>
</mask>
<g mask="url(#mask8)">
<path d="M7.53119 11.2261H16.458V6.21703H7.53119V11.2261Z" fill="#FEEEB7"/>
</g>
</svg>
