<svg width="48" height="48" viewBox="0 0 48 48" fill="none" xmlns="http://www.w3.org/2000/svg">
<g clip-path="url(#clip0)">
<path d="M19.7476 22.5599C20.7437 22.0588 21.4968 21.5008 22.0128 20.8977C22.9309 19.8116 23.3839 18.3715 23.3839 16.5864C23.3839 14.8492 22.9309 13.3641 22.0248 12.119C20.5127 10.0909 17.9535 9.05277 14.3352 8.99876H0V38.2602H13.3661C14.8722 38.2602 16.2673 38.1311 17.5574 37.8671C18.8475 37.6001 19.9636 37.1111 20.9087 36.397C21.7488 35.776 22.4508 35.0049 23.0089 34.0958C23.891 32.7217 24.332 31.1646 24.332 29.4304C24.332 27.7503 23.945 26.3192 23.1769 25.1431C22.3998 23.967 21.2597 23.1059 19.7476 22.5599ZM5.91349 14.0812H12.37C13.7891 14.0812 14.9592 14.2342 15.8773 14.5372C16.9394 14.9783 17.4704 15.8753 17.4704 17.2434C17.4704 18.4705 17.0654 19.3286 16.2643 19.8116C15.4573 20.2947 14.4102 20.5377 13.1261 20.5377H5.91349V14.0812ZM16.1233 32.6677C15.4093 33.0127 14.4042 33.1837 13.1171 33.1837H5.91349V25.3801H13.2161C14.4882 25.3891 15.4783 25.5571 16.1863 25.8721C17.4464 26.4422 18.0735 27.4863 18.0735 29.0134C18.0735 30.8135 17.4254 32.0256 16.1233 32.6677Z" fill="#060511"/>
<path d="M43.3866 10.3639H30.6746V14.0062H43.3866V10.3639Z" fill="#060511"/>
<path d="M47.8029 24.738C47.5389 23.0429 46.9569 21.5518 46.0508 20.2647C45.0577 18.8066 43.7976 17.7385 42.2645 17.0634C40.7374 16.3854 39.0182 16.0463 37.1041 16.0493C33.8908 16.0493 31.2806 17.0544 29.2614 19.0496C27.2483 21.0507 26.2402 23.928 26.2402 27.6783C26.2402 31.6776 27.3533 34.5669 29.5914 36.34C31.8206 38.1161 34.3948 39.0012 37.3171 39.0012C40.8544 39.0012 43.6056 37.9481 45.5707 35.848C46.8278 34.5218 47.5389 33.2167 47.6949 31.9356H41.8384C41.4994 32.5687 41.1064 33.0637 40.6563 33.4238C39.8403 34.0838 38.7782 34.4138 37.4761 34.4138C36.237 34.4138 35.1869 34.1408 34.3108 33.5978C32.8647 32.7277 32.1087 31.2036 32.0126 29.0344H47.9949C48.0189 27.1652 47.9589 25.7281 47.8029 24.738ZM32.1567 25.2991C32.3667 23.892 32.8767 22.7759 33.6868 21.9508C34.4968 21.1288 35.6429 20.7147 37.1101 20.7117C38.4632 20.7117 39.5943 21.0987 40.5153 21.8758C41.4244 22.6589 41.9374 23.796 42.0425 25.2991H32.1567Z" fill="#060511"/>
</g>
<defs>
<clipPath id="clip0">
<rect width="48" height="48" fill="white"/>
</clipPath>
</defs>
</svg>
