<svg width="48" height="48" viewBox="0 0 48 48" fill="none" xmlns="http://www.w3.org/2000/svg">
<path d="M24 0C10.767 0 0 10.767 0 24C0 37.233 10.767 48 24 48C37.233 48 48 37.233 48 24C48 10.767 37.233 0 24 0ZM24 45C12.42 45 3 35.577 3 24C3 12.42 12.42 3 24 3C35.577 3 45 12.42 45 24C45 35.577 35.577 45 24 45Z" fill="#141414"/>
<path d="M24 6C22.74 6 21.51 6.132 20.322 6.378C22.506 9.474 24.489 12.696 26.235 16.035C29.538 14.496 32.646 12.51 35.484 10.14C32.367 7.554 28.365 6 24 6Z" fill="#141414"/>
<path d="M37.623 12.258C34.536 14.859 31.14 17.016 27.534 18.702C28.323 20.346 29.055 22.011 29.733 23.703C33.717 22.884 37.863 22.809 41.973 23.49C41.853 19.2 40.239 15.288 37.623 12.258Z" fill="#141414"/>
<path d="M17.31 7.299C11.907 9.465 7.80899 14.169 6.47699 19.944C12.303 20.193 18.069 19.221 23.436 17.172C21.633 13.749 19.59 10.449 17.31 7.299Z" fill="#141414"/>
<path d="M24.78 19.887C19.584 21.912 14.034 23.016 8.391 23.016C7.614 23.016 6.834 22.968 6.054 22.926C6.033 23.283 6 23.637 6 24C6 28.419 7.599 32.463 10.242 35.595C14.565 30.228 20.376 26.382 26.808 24.45C26.181 22.908 25.503 21.39 24.78 19.887Z" fill="#141414"/>
<path d="M30.834 26.544C32.265 30.534 33.387 34.635 34.209 38.817C38.265 36.018 41.097 31.599 41.808 26.493C38.13 25.842 34.413 25.872 30.834 26.544Z" fill="#141414"/>
<path d="M27.888 27.24C21.84 29.007 16.377 32.637 12.372 37.728C15.51 40.389 19.563 42 24 42C26.664 42 29.187 41.406 31.461 40.365C30.636 35.883 29.436 31.497 27.888 27.24Z" fill="#141414"/>
</svg>
