<svg width="59" height="67" viewBox="0 0 59 67" fill="none" xmlns="http://www.w3.org/2000/svg">
<path d="M21.4043 53.3128C17.2525 53.1482 0.123047 57.8419 0.123047 57.8419C0.123047 57.8419 4.91346 55.4031 5.08783 27.5313C5.26196 -0.34042 15.6268 5.0596 15.6268 5.0596C15.3786 5.47886 15.2143 5.94235 15.1429 6.4243C12.7525 7.50809 5.1072 12.5889 7.43945 32.7573C7.43945 32.7573 7.78796 46.519 17.0205 48.7836C18.356 48.9739 19.634 49.4528 20.7657 50.1869C21.1624 52.1515 21.4043 53.3128 21.4043 53.3128Z" fill="#020202"/>
<path d="M21.0273 54.0095C21.4074 53.4393 21.6157 52.7719 21.6274 52.0868C21.6076 51.7689 21.5133 51.4602 21.3521 51.1856C21.191 50.911 20.9674 50.6781 20.6996 50.5058C19.5628 49.8132 18.2777 49.4005 16.9501 49.3016L16.9052 49.2934L16.8962 49.2912C15.1627 48.9006 13.5485 48.0993 12.1892 46.9548C10.8872 45.7638 9.81345 44.3453 9.02073 42.7688C8.23463 41.2243 7.63716 39.5909 7.24118 37.9037C6.83168 36.2231 6.57606 34.5087 6.47751 32.7817L6.48362 32.8677C6.36033 31.614 6.2617 30.3578 6.16428 29.1019C6.14304 27.8381 6.05857 26.5786 6.09153 25.3125C6.13824 22.7711 6.43112 20.2402 6.96604 17.7553C7.52088 15.2498 8.52157 12.8645 9.92038 10.7131C10.657 9.6665 11.5266 8.72009 12.5073 7.89771C13.4713 7.07274 14.6113 6.4793 15.8401 6.16284C13.6325 7.24509 11.8422 9.02339 10.7451 11.2236C9.62515 13.3671 8.85635 15.6764 8.46796 18.0635C8.09044 20.4655 7.91519 22.8949 7.94403 25.3262C7.92694 26.5441 8.02582 27.7675 8.06003 28.9871L8.39621 32.6466L8.39768 32.6626L8.40207 32.7329C8.47765 34.3311 8.6963 35.9194 9.05539 37.4785C9.38407 39.043 9.88399 40.5666 10.5461 42.0216C11.1996 43.45 12.0833 44.7614 13.1618 45.9033C14.2987 46.9779 15.6589 47.788 17.1452 48.2758L17.0915 48.2655C17.8116 48.4047 18.5147 48.6204 19.1889 48.9091C19.8781 49.1835 20.5147 49.5746 21.071 50.0652C21.3652 50.3122 21.5981 50.6241 21.7513 50.9763C21.9045 51.3285 21.974 51.7115 21.9541 52.0951C21.8436 52.8116 21.5207 53.4784 21.0273 54.0095V54.0095Z" fill="#020202"/>
<path d="M20.0322 49.7516C21.2498 49.1472 22.4028 48.6448 23.5132 48.0424C24.0774 47.7606 24.6072 47.4276 25.148 47.0971C25.6936 46.7654 26.1931 46.3772 26.7715 45.998C26.5092 46.6339 26.1177 47.2084 25.6219 47.6851C25.1327 48.1676 24.5753 48.5757 23.9676 48.8962C23.364 49.2136 22.7227 49.4533 22.0589 49.6095C21.397 49.776 20.7109 49.8241 20.0322 49.7516Z" fill="#020202"/>
<path d="M12.1369 28.7283C11.8083 29.8145 11.3742 30.7692 11.1769 31.7078C11.0543 32.1308 11.0567 32.5802 11.1838 33.002C11.4011 33.4482 11.7292 33.8312 12.1369 34.1143C11.8283 34.131 11.5203 34.0721 11.2395 33.9429C10.9588 33.8136 10.7138 33.6179 10.5258 33.3726C10.3496 33.1 10.2322 32.7936 10.1812 32.4731C10.1303 32.1525 10.1469 31.8249 10.2299 31.5111C10.3626 30.9415 10.6034 30.4027 10.9394 29.924C11.2558 29.4503 11.6628 29.044 12.1369 28.7283Z" fill="#020202"/>
<path d="M16.8418 3.9581C16.8418 3.9581 11.1513 7.09369 18.4676 16.0359C25.784 24.9781 28.6873 25.4426 28.6873 25.4426C28.6873 25.4426 33.5649 33.4558 24.6227 51.9209C24.6227 51.9209 36.1198 74.1022 58.5334 63.7664C58.5334 63.7664 59.1141 39.8431 53.772 27.6491C53.772 27.6491 51.217 19.636 51.6816 15.6875C52.1461 11.739 49.2428 0.590251 40.5329 2.68064C40.5329 2.68064 36.3521 -3.93892 16.8418 3.9581Z" fill="#020202"/>
<path d="M10.2118 25.0652C10.62 25.0511 11.0069 24.879 11.2907 24.5852C11.5745 24.2914 11.7332 23.8989 11.7332 23.4904C11.7332 23.0819 11.5745 22.6893 11.2907 22.3955C11.0069 22.1017 10.62 21.9296 10.2118 21.9155C9.80354 21.9296 9.4167 22.1017 9.13287 22.3955C8.84905 22.6893 8.69043 23.0819 8.69043 23.4904C8.69043 23.8989 8.84905 24.2914 9.13287 24.5852C9.4167 24.879 9.80354 25.0511 10.2118 25.0652V25.0652Z" fill="#020202"/>
<path d="M18.8104 25.2542C19.2187 25.2401 19.6055 25.068 19.8893 24.7742C20.1731 24.4804 20.3318 24.0878 20.3318 23.6793C20.3318 23.2708 20.1731 22.8783 19.8893 22.5845C19.6055 22.2907 19.2187 22.1186 18.8104 22.1045C18.4022 22.1186 18.0154 22.2907 17.7315 22.5845C17.4477 22.8783 17.2891 23.2708 17.2891 23.6793C17.2891 24.0878 17.4477 24.4804 17.7315 24.7742C18.0154 25.068 18.4022 25.2401 18.8104 25.2542V25.2542Z" fill="#020202"/>
<path d="M6.71533 20.0887C6.99707 19.6205 7.4216 19.255 7.92651 19.046C8.40511 18.8224 8.92808 18.7098 9.4563 18.7168C9.99057 18.7023 10.5201 18.82 10.998 19.0593C11.4759 19.2986 11.8873 19.6522 12.1958 20.0887C11.7107 20.1856 11.2185 20.2425 10.7241 20.2589C10.281 20.2823 9.86621 20.2967 9.45093 20.2911C9.03493 20.2818 8.62061 20.2812 8.177 20.2442C7.68737 20.2183 7.19946 20.1664 6.71533 20.0887Z" fill="#020202"/>
<path d="M17.582 20.0887C17.8081 19.6706 18.1656 19.3386 18.5994 19.1442C19.0011 18.9426 19.445 18.8392 19.8945 18.8425C20.3466 18.8346 20.7938 18.9371 21.1973 19.1412C21.6292 19.3389 21.9853 19.6713 22.2122 20.0887C21.8032 20.2148 21.383 20.3011 20.9575 20.3465C20.6069 20.3927 20.2538 20.4162 19.9001 20.4168C19.5437 20.4168 19.1876 20.393 18.8342 20.3456C18.4101 20.2969 17.9911 20.2109 17.582 20.0887V20.0887Z" fill="#020202"/>
<path d="M13.256 41.4889C14.4867 40.7335 15.6023 39.805 16.5687 38.732C17.0045 38.2155 17.3978 37.6646 17.7448 37.0847C17.954 36.7915 18.1045 36.4546 18.3175 36.1268C18.5088 35.7615 18.7212 35.4076 18.9536 35.0669C19.1023 35.4711 19.2012 35.892 19.248 36.3202C19.274 36.7507 19.2492 37.1827 19.1742 37.6074C19.0127 38.4893 18.62 39.3125 18.0361 39.993C17.4512 40.6821 16.6867 41.1956 15.8274 41.4764C14.9961 41.7698 14.0901 41.7742 13.256 41.4889V41.4889Z" fill="#020202"/>
</svg>
