<svg width="432" height="432" viewBox="0 0 432 432" fill="none" xmlns="http://www.w3.org/2000/svg">
<path d="M280.204 347.143C280.138 347.137 280.072 347.134 280.007 347.136H279.984C272.256 346.855 264.525 346.602 256.792 346.377H256.777C245.416 346.051 234.06 345.783 222.71 345.573H222.687C222.596 345.573 222.498 345.566 222.407 345.566C222.346 347.712 222.293 349.904 222.247 351.875C222.376 351.875 222.505 351.868 222.634 351.86H222.642C241.821 351.216 260.999 350.412 280.173 349.448H280.196C280.28 349.441 280.355 349.441 280.431 349.434L280.204 347.143ZM196.083 345.148H196.075C193.792 345.111 191.517 345.08 189.234 345.058L162.668 344.815C153.825 344.716 144.967 344.709 136.116 344.709C127.258 344.716 118.4 344.656 109.55 344.716L82.9909 344.936L56.4243 345.346L49.7883 345.444L46.4742 345.505L45.0334 345.528L45.0256 344.276L44.9423 337.633C44.8208 327.167 44.7147 316.701 44.5631 306.243C44.4646 299.001 44.3356 291.755 44.1763 284.507L42.796 231.389C42.379 213.673 42.0148 195.965 42.0148 178.256C41.9239 169.398 42.0755 160.555 42.1059 151.697C42.2575 142.847 42.356 133.989 42.6215 125.138L43.3951 99.8612L44.2142 73.2339C44.2672 73.1656 44.3507 73.1126 44.4114 73.1352C44.4295 73.134 44.4476 73.1367 44.4646 73.143H44.4872L44.7223 73.1504L46.3831 73.1732L53.0191 73.2339L66.2986 73.3552L67.2466 73.3628L79.5857 73.4615L92.8652 73.4918C94.9812 73.4992 97.0895 73.507 99.2054 73.5144C111.264 73.5372 123.317 73.5094 135.366 73.4311L145.991 73.3856L172.557 73.2643L173.369 73.2567L199.109 73.014C209.188 72.9456 207.534 72.8016 217.613 72.6727C217.492 72.3465 217.386 72.0054 217.28 71.664C217.064 70.9384 216.914 70.1947 216.832 69.442C216.696 68.3573 216.805 67.2559 217.151 66.2188C207.231 66.0748 209.036 65.9837 199.109 65.9154L172.967 65.6728L172.557 65.6652L163.707 65.6272L145.991 65.5439C142.305 65.5287 138.617 65.511 134.926 65.4908C131.862 65.4756 128.8 65.4629 125.742 65.4528C116.739 65.4148 107.742 65.4021 98.7504 65.4148C96.7861 65.4223 94.8295 65.4299 92.8652 65.4375L89.5891 65.4451L79.5857 65.4679L66.8221 65.5664L66.2986 65.574L57.5771 65.6575L53.0191 65.6955L46.3831 65.756L44.7223 65.7788L44.5175 65.7864L44.1307 65.794C43.3245 65.8654 42.5313 66.0439 41.7722 66.3248C40.7785 66.7303 39.8829 67.3433 39.1453 68.1228C38.4076 68.9023 37.8449 69.8303 37.4948 70.8448C37.3231 71.3491 37.2061 71.8703 37.1459 72.3996C37.1154 72.6639 37.1002 72.9298 37.1004 73.1959L37.108 73.4614V73.6736L37.146 75.3346L37.2369 78.6487L37.4191 85.2998L37.8286 98.5717L38.1091 107.809L38.6248 125.138C38.8979 133.989 38.9964 142.847 39.1558 151.697C39.1784 160.555 39.3302 169.398 39.2467 178.256C39.2467 195.965 38.8903 213.673 38.4655 231.389L37.0852 284.507C36.9563 290.013 36.8502 295.517 36.7667 301.018C36.5695 313.22 36.4559 325.423 36.3118 337.633L36.2359 344.276L36.2207 345.937V346.135L36.2283 346.567C36.238 346.861 36.2659 347.155 36.3118 347.447C36.3963 348.034 36.549 348.609 36.7667 349.16C36.8929 349.506 37.0477 349.841 37.2294 350.162C38.2029 351.953 39.8007 353.324 41.7191 354.014C42.2816 354.215 42.8638 354.354 43.4558 354.431C43.7439 354.477 44.0474 354.477 44.3431 354.5L44.8663 354.507H46.5198L49.8414 354.523L54.5133 354.53H56.485L83.0515 354.538L109.611 354.378C118.461 354.303 127.319 354.12 136.177 353.991C145.027 353.863 153.878 353.719 162.728 353.499L189.295 352.861C194.096 352.732 198.896 352.598 203.697 352.46C203.826 352.46 203.955 352.452 204.091 352.452C204.334 350.791 204.728 348.068 205.138 345.27C205.054 345.27 204.979 345.27 204.895 345.263C201.96 345.224 199.018 345.179 196.083 345.148H196.083ZM253.133 66.689C253.573 68.2058 255.92 70.5967 255.958 70.756C256.147 71.5144 261.653 70.9512 262.033 71.6413C262.058 71.6852 262.081 71.7308 262.101 71.7778C262.177 71.9144 262.245 72.0585 262.313 72.2025C262.844 72.1951 263.367 72.1873 263.898 72.1721C263.906 72.1799 263.906 72.1799 263.913 72.1721C277.481 71.9524 294.659 72.5058 308.219 72.2025C308.841 71.4895 307.757 70.0687 308.303 69.4923C308.971 68.7795 307.65 68.1452 308.219 67.6295C292.277 67.2578 269.075 66.9545 253.133 66.689V66.689Z" fill="#20262C"/>
<path d="M11.2143 402.675C9.87978 390.702 9.18715 378.729 8.68739 366.756C8.57039 363.762 8.4585 360.769 8.37939 357.776L8.34617 356.654L8.32957 356.092C8.32557 355.896 8.31308 355.761 8.32457 355.425C8.34552 354.246 8.62757 353.086 9.1504 352.029C9.6801 350.965 10.4348 350.029 11.3622 349.286C12.2896 348.543 13.3675 348.01 14.5212 347.725C15.0922 347.589 15.6752 347.51 16.2617 347.489L17.3848 347.449L19.6311 347.377L24.124 347.234L33.1111 347.018L42.0993 346.884C43.5956 346.868 45.0961 346.867 46.6049 346.896L48.8636 346.925L49.4469 346.934C49.7444 346.95 50.0424 346.958 50.3379 346.997C50.9313 347.075 51.5147 347.216 52.0778 347.419C53.197 347.822 54.2147 348.464 55.06 349.3C55.9052 350.137 56.5576 351.149 56.9714 352.264C57.1794 352.816 57.3226 353.39 57.3982 353.976C57.4674 354.491 57.4901 355.012 57.4659 355.531L57.3991 357.776C57.3191 360.769 57.2109 363.762 57.0914 366.756C56.5938 378.729 55.8988 390.702 54.5557 402.675C53.2127 390.702 52.5176 378.729 52.02 366.756C51.9005 363.762 51.7923 360.769 51.7123 357.776L51.6455 355.531C51.647 355.384 51.6387 355.236 51.6205 355.09C51.6176 355.008 51.6059 354.927 51.5855 354.849C51.5582 354.692 51.51 354.539 51.4422 354.395C51.3163 354.109 51.1291 353.854 50.8939 353.647C50.6587 353.441 50.3812 353.289 50.0809 353.201C49.9362 353.16 49.7877 353.134 49.6377 353.123C49.5623 353.118 49.4847 353.125 49.4091 353.117L48.87 353.122L46.6389 353.151C45.1541 353.16 43.6619 353.199 42.1655 353.254L33.1977 353.465L24.2287 353.593L19.7435 353.621L17.5008 353.635L16.3793 353.638C16.2173 353.636 16.0553 353.647 15.895 353.671C15.5868 353.729 15.2949 353.854 15.0392 354.036C14.7834 354.217 14.5699 354.452 14.4132 354.724C14.2559 355.006 14.1572 355.317 14.1231 355.638C14.106 355.789 14.098 355.941 14.0989 356.092L14.0824 356.654L14.0492 357.776C13.9701 360.769 13.8581 363.762 13.7413 366.756C13.2415 378.729 12.5489 390.702 11.2143 402.675Z" fill="#20262C"/>
<path d="M55.1753 413.665C70.1153 413.665 70.1401 390.446 55.1753 390.446C40.2352 390.446 40.2105 413.665 55.1753 413.665Z" fill="#20262C"/>
<path d="M11.2143 414.284C26.1544 414.284 26.1791 391.065 11.2143 391.065C-3.72574 391.065 -3.75048 414.284 11.2143 414.284Z" fill="#20262C"/>
<path d="M57.3418 66.5466C57.5114 64.9957 57.8289 63.4646 58.2902 61.9742C58.5292 61.2143 58.8203 60.4718 59.1614 59.7519C59.516 58.9633 60.0239 58.253 60.6555 57.6625C61.05 57.2946 61.5448 57.052 62.0772 56.9655C62.6535 56.8893 63.2382 57.0205 63.7267 57.3357C64.4809 57.8554 65.1094 58.537 65.5663 59.3308C66.3793 60.7378 67.0088 62.2432 67.4393 63.8101C67.8463 65.3638 68.0845 66.9569 68.1498 68.5617C68.1767 70.1847 68.1055 71.6804 68.0283 73.2279C67.8819 76.3024 67.6645 79.3769 67.2485 82.4513C66.8323 79.3769 66.6149 76.3024 66.4685 73.2279C66.3611 71.7017 66.3925 70.1206 66.2604 68.6725C66.1557 67.205 65.9048 65.7516 65.5114 64.3339C65.1476 62.9268 64.6193 61.5676 63.9374 60.2842C63.6613 59.7221 63.2735 59.2221 62.7976 58.8149C62.6482 58.6909 62.4598 58.6237 62.2656 58.6249C62.0312 58.6378 61.8071 58.7258 61.6265 58.8758C61.0962 59.2996 60.6455 59.8142 60.2954 60.3958C59.8878 61.0195 59.5205 61.6686 59.1956 62.3391C58.5088 63.6894 57.9271 65.111 57.3418 66.5466Z" fill="#20262C"/>
<path d="M89.3008 66.5466C89.4704 64.9957 89.788 63.4646 90.2492 61.9742C90.4883 61.2143 90.7794 60.4718 91.1205 59.7519C91.475 58.9632 91.9829 58.2529 92.6147 57.6625C93.0091 57.2946 93.5038 57.052 94.0361 56.9655C94.6126 56.8893 95.1973 57.0205 95.6859 57.3357C96.44 57.8554 97.0685 58.537 97.5254 59.3308C98.3384 60.7378 98.9679 62.2432 99.3984 63.8101C99.8053 65.3638 100.044 66.9569 100.109 68.5617C100.136 70.1847 100.065 71.6804 99.9874 73.2279C99.841 76.3024 99.6236 79.3769 99.2075 82.4513C98.7915 79.3769 98.574 76.3024 98.4276 73.2279C98.3201 71.7017 98.3516 70.1206 98.2195 68.6725C98.1148 67.205 97.8639 65.7516 97.4706 64.3339C97.1068 62.9268 96.5785 61.5676 95.8965 60.2842C95.6205 59.722 95.2326 59.2221 94.7567 58.8149C94.6073 58.6909 94.4189 58.6237 94.2248 58.6249C93.9903 58.6378 93.7662 58.7257 93.5856 58.8758C93.0553 59.2996 92.6045 59.8142 92.2544 60.3958C91.8469 61.0195 91.4796 61.6686 91.1547 62.3391C90.4678 63.6894 89.886 65.111 89.3008 66.5466Z" fill="#20262C"/>
<path d="M125.457 66.5466C125.627 64.9957 125.944 63.4646 126.405 61.9742C126.644 61.2143 126.936 60.4718 127.277 59.7519C127.631 58.9633 128.139 58.253 128.771 57.6625C129.165 57.2946 129.66 57.052 130.192 56.9655C130.769 56.8893 131.353 57.0205 131.842 57.3357C132.596 57.8554 133.225 58.537 133.681 59.3308C134.495 60.7378 135.124 62.2432 135.555 63.8101C135.962 65.3638 136.2 66.9569 136.265 68.5617C136.292 70.1847 136.221 71.6804 136.144 73.2279C135.997 76.3024 135.78 79.3769 135.364 82.4513C134.948 79.3769 134.73 76.3024 134.584 73.2279C134.476 71.7017 134.508 70.1206 134.376 68.6725C134.271 67.205 134.02 65.7515 133.627 64.3339C133.263 62.9268 132.735 61.5676 132.053 60.2842C131.777 59.7221 131.389 59.2221 130.913 58.8149C130.763 58.6909 130.575 58.6237 130.381 58.6249C130.146 58.6378 129.922 58.7258 129.742 58.8758C129.211 59.2996 128.761 59.8143 128.411 60.3958C128.003 61.0195 127.636 61.6686 127.311 62.3391C126.624 63.6894 126.042 65.111 125.457 66.5466Z" fill="#20262C"/>
<path d="M163.464 66.5466C163.633 64.9957 163.951 63.4646 164.412 61.9742C164.651 61.2143 164.943 60.4718 165.284 59.7519C165.638 58.9632 166.146 58.2529 166.778 57.6625C167.172 57.2946 167.667 57.052 168.199 56.9655C168.776 56.8893 169.36 57.0205 169.849 57.3357C170.603 57.8554 171.232 58.537 171.688 59.3308C172.501 60.7378 173.131 62.2432 173.561 63.8101C173.968 65.3638 174.207 66.9569 174.272 68.5617C174.299 70.1847 174.228 71.6804 174.15 73.2279C174.004 76.3024 173.787 79.3769 173.371 82.4513C172.955 79.3769 172.737 76.3024 172.591 73.2279C172.483 71.7017 172.515 70.1206 172.383 68.6725C172.278 67.205 172.027 65.7516 171.634 64.3339C171.27 62.9268 170.742 61.5676 170.06 60.2842C169.784 59.722 169.396 59.2221 168.92 58.8149C168.77 58.6909 168.582 58.6237 168.388 58.6249C168.153 58.6378 167.929 58.7257 167.749 58.8758C167.218 59.2996 166.768 59.8142 166.417 60.3958C166.01 61.0195 165.643 61.6686 165.318 62.3391C164.631 63.6894 164.049 65.111 163.464 66.5466Z" fill="#20262C"/>
<path d="M51.7695 94.666C54.0421 91.9993 56.4792 89.5149 58.9549 87.0736C60.2082 85.8699 61.4483 84.6516 62.7309 83.4805C64.009 82.3044 65.2814 81.1219 66.5925 79.9824L66.6103 79.967C66.7069 79.883 66.8191 79.8189 66.9405 79.7782C67.0619 79.7376 67.1901 79.7213 67.3178 79.7303C67.4455 79.7392 67.5702 79.7732 67.6848 79.8304C67.7993 79.8875 67.9015 79.9666 67.9855 80.0633C68.0138 80.0963 68.0401 80.131 68.0643 80.1673C69.599 82.502 71.0774 84.8743 72.4993 87.2841C73.2183 88.4837 73.9044 89.7051 74.5854 90.9301C75.2604 92.1589 75.9222 93.3965 76.536 94.6661C75.6018 93.6096 74.7158 92.5213 73.8429 91.4241C72.976 90.323 72.1142 89.2184 71.2853 88.092C69.6116 85.8497 67.9942 83.57 66.433 81.2528L67.9045 81.4377C66.6358 82.6242 65.3283 83.7677 64.0265 84.9175C62.7293 86.0724 61.3895 87.1801 60.0629 88.3025C57.3792 90.5131 54.6566 92.6808 51.7695 94.666Z" fill="#20262C"/>
<path d="M81.8711 94.6661C84.1437 91.9993 86.5809 89.515 89.0566 87.0736C90.3099 85.8699 91.5499 84.6516 92.8326 83.4805C94.1107 82.3044 95.383 81.1219 96.6941 79.9824L96.7119 79.967C96.8085 79.883 96.9207 79.8189 97.0421 79.7783C97.1635 79.7376 97.2917 79.7213 97.4194 79.7303C97.5471 79.7392 97.6718 79.7732 97.7863 79.8304C97.9009 79.8875 98.0031 79.9666 98.0871 80.0633C98.1154 80.0963 98.1418 80.131 98.1659 80.1673C99.7006 82.502 101.179 84.8743 102.601 87.2841C103.32 88.4837 104.006 89.7051 104.687 90.9301C105.362 92.1589 106.024 93.3965 106.638 94.6661C105.704 93.6097 104.817 92.5213 103.945 91.4241C103.078 90.323 102.216 89.2184 101.387 88.092C99.7133 85.8497 98.0959 83.57 96.5347 81.2528L98.0062 81.4377C96.7375 82.6242 95.43 83.7677 94.1282 84.9176C92.8311 86.0725 91.4912 87.1801 90.1647 88.3025C87.4808 90.5131 84.7582 92.6808 81.8711 94.6661Z" fill="#20262C"/>
<path d="M118.027 94.666C120.299 91.9993 122.737 89.5149 125.212 87.0736C126.466 85.8699 127.706 84.6516 128.988 83.4805C130.266 82.3044 131.539 81.1219 132.85 79.9824L132.868 79.967C132.964 79.883 133.076 79.8189 133.198 79.7782C133.319 79.7376 133.447 79.7213 133.575 79.7303C133.703 79.7392 133.828 79.7732 133.942 79.8304C134.057 79.8875 134.159 79.9666 134.243 80.0633C134.271 80.0963 134.297 80.131 134.322 80.1673C135.856 82.502 137.335 84.8743 138.757 87.2841C139.476 88.4837 140.162 89.7051 140.843 90.9301C141.518 92.1589 142.18 93.3965 142.793 94.6661C141.859 93.6096 140.973 92.5213 140.1 91.4241C139.233 90.323 138.372 89.2184 137.543 88.092C135.869 85.8497 134.252 83.57 132.69 81.2528L134.162 81.4377C132.893 82.6242 131.586 83.7677 130.284 84.9175C128.987 86.0724 127.647 87.1801 126.32 88.3025C123.636 90.5131 120.914 92.6808 118.027 94.666Z" fill="#20262C"/>
<path d="M176.479 85.6336C175.776 84.9179 175.117 84.1725 174.474 83.4167C173.833 82.6596 173.205 81.8936 172.601 81.1128L173.686 81.2487C172.485 82.5098 171.25 83.7332 169.98 84.9189C168.719 86.1132 167.417 87.2625 166.105 88.4009C164.778 89.5225 163.43 90.6209 162.044 91.6781C160.647 92.7215 159.234 93.7473 157.724 94.6661C158.793 93.2592 159.96 91.9593 161.142 90.677C162.337 89.4084 163.568 88.1811 164.821 86.9769C166.089 85.7896 167.367 84.6131 168.685 83.4818C169.998 82.3445 171.342 81.2421 172.718 80.1747L172.802 80.1096C172.944 79.9999 173.124 79.9512 173.302 79.974C173.48 79.9969 173.642 80.0895 173.751 80.2315C173.771 80.2567 173.788 80.2832 173.804 80.3106C174.293 81.17 174.756 82.0451 175.207 82.9285C175.656 83.8134 176.09 84.7087 176.479 85.6336Z" fill="#20262C"/>
<path d="M59.2686 156.096H59.026C59.1428 156.471 59.2952 156.834 59.4809 157.181C59.3652 156.829 59.2939 156.465 59.2686 156.096ZM59.2686 156.096H59.026C59.1428 156.471 59.2952 156.834 59.4809 157.181C59.3652 156.829 59.2939 156.465 59.2686 156.096ZM59.2686 156.096H59.026C59.1428 156.471 59.2952 156.834 59.4809 157.181C59.3652 156.829 59.2939 156.465 59.2686 156.096ZM48.9923 94.6738C49.9351 97.5248 51.157 100.276 52.6402 102.887C53.3512 104.123 54.2433 105.245 55.287 106.216C56.2209 107.12 57.4481 107.658 58.7453 107.733C60.0422 107.783 61.3126 107.356 62.3173 106.535C63.3745 105.638 64.2212 104.52 64.7973 103.259C66.0135 100.521 66.8382 97.626 67.2469 94.6585C59.0562 102.569 49.3944 94.9922 48.9923 94.6738ZM59.2686 156.096H59.026C59.1428 156.471 59.2952 156.834 59.4809 157.181C59.3652 156.829 59.2939 156.465 59.2686 156.096ZM78.7063 202.373C77.3715 195.904 76.1581 189.415 75.066 182.905C73.9588 176.406 72.9576 169.884 71.9944 163.354C71.054 156.824 70.144 150.294 69.3401 143.742C68.5209 137.197 67.8232 130.634 67.2469 124.054C68.5817 130.523 69.7926 137.012 70.8796 143.522C71.9944 150.021 72.988 156.551 73.9587 163.066C74.8991 169.603 75.8092 176.125 76.6055 182.685C77.4399 189.23 78.1401 195.793 78.7063 202.373H89.301C96.8015 195.26 99.2057 170.801 96.9685 164.294C96.1114 161.792 90.469 146.965 89.301 144.796C88.133 142.627 86.131 122.818 87.6856 108.264C87.9089 106.801 87.8028 105.306 87.3751 103.889C86.9474 102.472 86.2089 101.169 85.2134 100.073C83.6969 98.5214 81.848 97.3338 79.8059 96.6C75.7697 95.2059 71.5158 94.5482 67.2469 94.6585C67.6178 97.7679 67.2675 100.921 66.2232 103.873C65.6781 105.448 64.7503 106.863 63.5233 107.991C62.1807 109.154 60.4531 109.776 58.677 109.736C58.5178 109.72 58.3586 109.713 58.1993 109.69C58.5178 113.398 58.6998 117.122 58.8289 120.831C58.9805 124.873 59.0411 128.923 59.1018 132.973C59.1322 137.007 59.1473 141.057 59.1321 145.092L59.117 151.151C59.1094 152.16 59.1397 153.169 59.155 154.177C59.1777 154.685 59.1853 155.186 59.2385 155.687C59.2459 155.831 59.2611 155.959 59.2687 156.096C60.1121 156.103 60.9538 156.174 61.7866 156.308C62.5396 156.427 63.2755 156.636 63.9784 156.93C64.7142 157.203 65.3278 157.73 65.7074 158.417C65.102 158.077 64.4221 157.892 63.7281 157.878C63.0464 157.835 62.3628 157.83 61.6805 157.863C60.3078 157.916 58.9274 158.06 57.5321 158.159C56.1366 158.265 54.7335 158.364 53.3154 158.424C51.8732 158.513 50.4269 158.51 48.985 158.417C50.2845 157.749 51.6594 157.24 53.0801 156.9C54.4892 156.529 55.928 156.283 57.3801 156.164C57.9264 156.119 58.4721 156.096 59.026 156.096C58.8514 155.489 58.7377 154.86 58.6088 154.238C58.4192 153.237 58.2752 152.228 58.1385 151.219C57.8884 149.202 57.6988 147.17 57.5697 145.145C57.2665 141.095 57.1602 137.038 57.0996 132.988C57.0769 128.93 57.1072 124.888 57.2665 120.831C57.4181 117.107 57.6229 113.391 58.0173 109.675C56.4936 109.423 55.0875 108.699 53.9977 107.604C52.8624 106.448 51.9407 105.1 51.2752 103.623C49.9651 100.802 49.1886 97.7624 48.9849 94.6586C46.8539 96.0808 44.9665 97.8376 43.3954 99.8612C41.413 102.357 39.6447 105.016 38.1094 107.809C23.8288 133.102 13.2037 182.799 12.4529 192.78C12.1144 196.212 12.8193 199.667 14.4754 202.692C16.1315 205.717 18.6618 208.173 21.7356 209.737C21.728 204.853 21.9404 199.984 22.2363 195.115C22.5168 190.262 22.9415 185.4 23.4194 180.554C23.9351 175.708 24.5039 170.862 25.2698 166.046C25.6338 163.635 26.0738 161.223 26.5667 158.826C26.8244 157.636 27.0975 156.437 27.416 155.262C27.5828 154.655 27.7572 154.071 27.9546 153.487C28.0683 153.199 28.1744 152.918 28.3034 152.63C28.4474 152.372 28.5763 152.039 28.8646 151.91C28.6465 152.12 28.5005 152.393 28.4475 152.691C28.364 152.979 28.3035 153.267 28.2427 153.571C28.129 154.17 28.0455 154.769 27.9546 155.368C27.7952 156.566 27.6587 157.78 27.5374 158.986C27.2719 161.397 27.052 163.817 26.817 166.236L25.4063 180.752C24.8906 185.59 24.39 190.429 23.7756 195.267C23.1843 200.09 22.5472 204.921 21.7357 209.737C24.2157 221.439 16.1692 284.727 16.1692 284.727C23.5787 291.158 30.4346 296.543 36.7671 301.018C39.4594 302.921 42.0582 304.663 44.5634 306.243C91.5307 336.01 106.251 312.469 106.562 311.969V311.961C97.5902 302.368 78.7063 202.373 78.7063 202.373V202.373ZM75.5892 109.553C76.1909 108.394 76.9687 107.335 77.8948 106.414C78.8403 105.449 79.9876 104.706 81.2544 104.237C82.5281 103.759 83.9319 103.759 85.2056 104.237C84.0456 104.527 82.9413 105.006 81.937 105.655C80.9851 106.289 80.1008 107.018 79.2979 107.832C77.6294 109.462 76.1656 111.351 74.3683 113.209C74.5559 111.928 74.9693 110.69 75.5892 109.553V109.553ZM59.2685 156.096H59.026C59.1428 156.471 59.2952 156.834 59.4809 157.181C59.3652 156.829 59.2939 156.465 59.2686 156.096H59.2685ZM59.2685 156.096H59.026C59.1428 156.471 59.2952 156.834 59.4809 157.181C59.3652 156.829 59.2939 156.465 59.2686 156.096H59.2685ZM59.2685 156.096H59.026C59.1428 156.471 59.2952 156.834 59.4809 157.181C59.3652 156.829 59.2939 156.465 59.2686 156.096H59.2685ZM59.2685 156.096H59.026C59.1428 156.471 59.2952 156.834 59.4809 157.181C59.3652 156.829 59.2939 156.465 59.2686 156.096H59.2685ZM59.2685 156.096H59.026C59.1428 156.471 59.2952 156.834 59.4809 157.181C59.3652 156.829 59.2939 156.465 59.2686 156.096H59.2685Z" fill="#20262C"/>
<path d="M59.4781 157.177C59.2935 156.833 59.1428 156.471 59.0283 156.098H59.2682C59.2927 156.465 59.3632 156.828 59.4781 157.177V157.177Z" fill="white"/>
<path d="M59.4781 157.177C59.2935 156.833 59.1428 156.471 59.0283 156.098H59.2682C59.2927 156.465 59.3632 156.828 59.4781 157.177V157.177Z" fill="white"/>
<path d="M79.7869 96.5038C85.1722 96.3308 90.5544 96.2474 95.9343 96.1227L112.071 95.8951L113.079 95.8809L113.331 95.8773C113.229 95.824 113.933 95.9771 113.888 96.0671C113.966 96.132 114.032 96.2101 114.083 96.2979C114.127 96.3729 114.165 96.452 114.195 96.5339C114.264 96.7289 114.319 96.9288 114.359 97.1318C114.508 97.8435 114.584 98.5133 114.667 99.1926C114.824 100.545 114.947 101.89 115.066 103.235L115.704 111.298C116.088 116.673 116.515 122.041 116.84 127.416L118.828 159.661C119.168 165.035 119.535 170.408 120 175.772C120.443 181.138 120.909 186.503 121.497 191.855C122.598 202.567 123.983 213.249 125.559 223.896C127.143 234.541 128.868 245.162 130.93 255.711C132.923 266.255 135.521 276.676 138.709 286.922C140.291 292.011 142.278 296.966 144.648 301.74C145.834 304.087 147.236 306.319 148.835 308.407C150.357 310.468 152.331 312.154 154.605 313.334L154.663 313.361C154.808 313.429 154.93 313.537 155.016 313.671C155.103 313.805 155.15 313.961 155.152 314.121C155.154 314.281 155.111 314.438 155.029 314.575C154.946 314.711 154.826 314.822 154.684 314.894C152.78 315.82 150.768 316.505 148.694 316.933C147.688 317.195 146.66 317.322 145.646 317.522C144.622 317.65 143.598 317.787 142.573 317.89C138.479 318.221 134.362 318.152 130.281 317.686C126.218 317.262 122.189 316.561 118.221 315.588C116.25 315.07 114.289 314.516 112.33 313.97L106.534 312.062C106.522 312.058 106.51 312.051 106.5 312.043C106.49 312.034 106.482 312.024 106.476 312.012C106.47 312.001 106.467 311.988 106.466 311.975C106.465 311.962 106.466 311.948 106.47 311.936C106.48 311.911 106.498 311.891 106.521 311.879C106.544 311.868 106.571 311.865 106.597 311.872L112.457 313.514C114.433 313.972 116.406 314.434 118.383 314.861C122.347 315.651 126.353 316.206 130.382 316.52C134.391 316.846 138.422 316.795 142.421 316.37C143.414 316.251 144.402 316.099 145.391 315.957C146.363 315.744 147.356 315.605 148.311 315.335C150.212 314.905 152.054 314.247 153.798 313.375L153.877 314.935C151.321 313.683 149.087 311.86 147.348 309.607C145.62 307.455 144.113 305.135 142.851 302.68C140.372 297.83 138.306 292.779 136.675 287.582C133.471 277.249 130.928 266.723 129.064 256.067C125.096 234.835 122.954 213.359 120.843 191.921L117.747 159.747L116.292 143.65C115.824 138.282 115.472 132.906 115.074 127.534C114.679 122.163 114.409 116.783 114.058 111.411L113.514 103.361C113.412 102.023 113.305 100.684 113.167 99.36C113.096 98.7021 113.018 98.0329 112.912 97.4222C112.891 97.2942 112.862 97.1676 112.825 97.0431C112.82 97.0235 112.814 97.0188 112.833 97.0495C112.865 97.1 112.904 97.1447 112.951 97.1817C112.878 97.239 113.536 97.3833 113.393 97.3302L113.14 97.3266L112.129 97.3124L95.9521 97.0848C90.561 96.9602 85.1721 96.8768 79.7861 96.7037C79.7602 96.7027 79.7357 96.6917 79.7178 96.673C79.6998 96.6543 79.6898 96.6293 79.6899 96.6034C79.69 96.5775 79.7002 96.5526 79.7183 96.534C79.7364 96.5154 79.7609 96.5046 79.7869 96.5038L79.7869 96.5038Z" fill="#20262C"/>
<path d="M103.47 108.683C105.214 112.06 106.67 115.427 108.458 118.574C109.307 120.139 110.309 121.617 111.448 122.986C112.572 124.389 114.114 125.398 115.85 125.868C114.877 126.06 113.869 125.977 112.94 125.628C112.001 125.274 111.131 124.76 110.367 124.11C108.882 122.828 107.645 121.284 106.717 119.556C105.788 117.883 105.043 116.114 104.497 114.28C103.922 112.465 103.576 110.584 103.47 108.683Z" fill="#20262C"/>
<path d="M85.2041 100.073C87.6973 100.147 90.1504 100.355 92.5947 100.594L99.8974 101.354C101.108 101.498 102.32 101.624 103.531 101.732C104.74 101.869 105.951 101.949 107.157 102.042C108.358 102.13 109.562 102.157 110.765 102.124C111.36 102.115 111.952 102.05 112.534 101.929C113.13 101.846 113.681 101.569 114.104 101.142C113.82 101.732 113.329 102.197 112.725 102.449C112.146 102.732 111.536 102.949 110.908 103.095C109.674 103.376 108.417 103.546 107.152 103.602C104.659 103.711 102.162 103.623 99.6827 103.34C97.22 103.064 94.7733 102.66 92.3527 102.129C89.923 101.619 87.5338 100.932 85.2041 100.073Z" fill="#20262C"/>
<path d="M98.2065 96.6038C98.4051 97.5054 98.5091 98.4254 98.5168 99.3487C98.5301 100.223 98.4991 101.097 98.4239 101.969C98.3474 102.831 98.2472 103.679 98.1209 104.529C97.9933 105.389 97.8347 106.212 97.7422 107.179C97.0969 106.447 96.6822 105.541 96.5498 104.574C96.3851 103.659 96.3457 102.726 96.4326 101.8C96.5105 100.889 96.69 99.989 96.9676 99.1175C97.2426 98.2183 97.6609 97.3695 98.2065 96.6038V96.6038Z" fill="#20262C"/>
<path d="M102.967 96.6038C103.273 97.4968 103.445 98.4302 103.479 99.3737C103.516 100.29 103.459 101.207 103.307 102.112C103.149 102.977 102.934 103.83 102.663 104.666C102.544 105.031 102.481 105.411 102.475 105.794C102.45 106.217 102.522 106.679 102.502 107.179C102.118 106.866 101.79 106.49 101.532 106.067C101.269 105.597 101.12 105.072 101.097 104.534C101.084 103.61 101.164 102.688 101.336 101.78C101.482 100.906 101.678 100.041 101.923 99.1898C102.17 98.2903 102.52 97.4224 102.967 96.6038V96.6038Z" fill="#20262C"/>
<path d="M123.118 209.745V209.707L115.693 123.508L115.671 123.197L113.797 101.53L113.373 96.6001V85.353C113.827 88.8849 115.556 92.1292 118.234 94.4765C122.246 97.8362 129.542 99.7094 142.76 94.6205C144.148 94.0897 145.597 93.4754 147.121 92.7853C147.121 92.7853 147.023 97.5025 147.318 105.761C147.629 114.445 148.388 127.042 150.17 142.187V142.195L150.177 142.286C150.496 144.986 150.847 147.764 151.232 150.62C148.646 152.016 146.878 153.927 147.159 156.536C147.275 157.714 147.473 158.882 147.751 160.032L129.868 175.101L138.809 182.564L153.856 167.692C153.977 168.405 154.106 169.125 154.235 169.853C151.497 172.644 148.797 175.663 148.797 176.739C148.789 177.194 148.891 177.644 149.093 178.051C147.151 179.439 145.271 180.888 143.359 182.314C142.404 183.019 141.471 183.755 140.531 184.475L138.074 186.379C135.867 184.475 133.637 182.602 131.407 180.729L127.881 177.801L125.014 175.435C128.669 172.037 132.302 168.625 135.889 165.159C137.8 163.331 139.681 161.481 141.562 159.63C143.412 157.749 145.308 155.906 147.129 153.988C145.073 155.656 143.086 157.393 141.069 159.092C139.067 160.821 137.072 162.55 135.1 164.302C131.142 167.79 127.236 171.347 123.345 174.912L122.708 175.503L123.383 176.057L126.94 178.946L130.512 181.828C132.901 183.739 135.29 185.643 137.709 187.516L138.073 187.805L138.407 187.516L141.107 185.181C142.002 184.399 142.904 183.626 143.784 182.829C145.551 181.237 147.349 179.674 149.093 178.051C149.707 179.288 151.216 179.682 152.619 178.56C153.006 178.249 154.022 177.46 155.433 176.338C157.799 188.73 160.855 201.896 164.769 215.38C164.769 215.38 167.226 229.183 123.118 209.745Z" fill="#20262C"/>
<path d="M195.12 116.197C194.844 118.29 194.325 120.344 193.573 122.317C192.83 123.796 190.061 126.17 186.504 128.794C186.156 127.489 185.784 126.17 185.337 124.896C184.448 122.312 183.366 119.8 182.098 117.38C180.864 114.949 179.417 112.632 177.775 110.456C179.671 115.56 181.742 120.497 183.448 125.548C183.972 127.012 184.447 128.488 184.874 129.977C179.558 133.761 173.043 137.849 168.819 140.435C168.944 140.126 169.041 139.806 169.107 139.479C169.236 138.789 169.41 138.077 169.479 137.371C169.532 136.658 169.577 135.945 169.615 135.24L169.592 133.109C169.446 130.289 169.097 127.483 168.546 124.714C167.992 121.957 167.296 119.231 166.46 116.546C165.65 113.856 164.649 111.228 163.465 108.681C163.882 111.472 164.413 114.21 164.959 116.94L166.589 125.093C167.127 127.815 167.61 130.535 168.038 133.253L168.311 135.301L168.493 137.349C168.568 138.039 168.531 138.706 168.561 139.404C168.575 139.749 168.555 140.094 168.5 140.435L168.485 140.64L168.099 140.871C167.826 140.757 167.871 141.277 167.605 141.171C156.7 137.015 150.177 142.286 150.177 142.286L150.17 142.195V142.187L147.318 105.761C150.299 94.2945 154.235 89.3726 154.235 89.3726C154.235 89.3726 154.447 99.0117 174.446 97.457C174.522 97.6921 174.613 97.9348 174.719 98.185C174.833 98.4581 174.954 98.7388 175.091 99.0041C176.33 101.316 177.956 103.399 179.899 105.162C181.034 106.219 182.346 107.068 183.774 107.672C185.782 108.584 187.901 109.227 190.077 109.584C190.573 109.648 191.047 109.832 191.457 110.118C191.868 110.405 192.203 110.786 192.435 111.229C193.034 112.375 193.96 114.104 195.12 116.197Z" fill="#20262C"/>
<path d="M133.746 272.88C134.752 273.355 135.661 273.924 136.617 274.409C137.61 274.836 138.515 275.39 139.513 275.774C141.463 276.626 143.446 277.368 145.452 278.098C146.451 278.477 147.443 278.9 148.473 279.225L150.013 279.735C150.531 279.889 151.061 279.997 151.589 280.116C152.644 280.354 153.716 280.516 154.794 280.601C155.872 280.711 156.954 280.759 158.037 280.743C159.12 280.748 160.2 280.739 161.28 280.704C162.359 280.676 163.434 280.707 164.512 280.659C166.665 280.611 168.815 280.502 170.967 280.428C175.277 280.323 179.591 280.134 183.981 280.184C184.005 280.184 184.028 280.193 184.047 280.209C184.065 280.225 184.077 280.247 184.08 280.271C184.083 280.295 184.078 280.32 184.065 280.34C184.051 280.361 184.031 280.375 184.008 280.382C179.785 281.572 175.445 282.301 171.065 282.558C168.874 282.67 166.678 282.667 164.487 282.549C162.291 282.467 160.104 282.228 157.943 281.833C156.858 281.677 155.784 281.448 154.706 281.274L151.472 280.754C150.386 280.624 149.305 280.452 148.212 280.297C147.114 280.164 146.025 279.96 144.953 279.685C143.874 279.425 142.82 279.07 141.803 278.623C140.773 278.204 139.773 277.714 138.811 277.156C138.317 276.9 137.844 276.604 137.398 276.27C136.938 275.958 136.487 275.632 136.042 275.304C135.184 274.603 134.374 273.845 133.619 273.034C133.603 273.017 133.593 272.995 133.591 272.972C133.589 272.949 133.596 272.925 133.609 272.906C133.623 272.887 133.643 272.873 133.666 272.868C133.688 272.862 133.712 272.864 133.734 272.874L133.746 272.88Z" fill="#20262C"/>
<path d="M137.073 270.519C137.462 270.506 137.83 270.342 138.1 270.062C138.37 269.782 138.522 269.409 138.522 269.02C138.522 268.631 138.37 268.257 138.1 267.978C137.83 267.698 137.462 267.534 137.073 267.521C136.685 267.534 136.316 267.698 136.046 267.978C135.776 268.257 135.625 268.631 135.625 269.02C135.625 269.409 135.776 269.782 136.046 270.062C136.316 270.342 136.685 270.506 137.073 270.519V270.519Z" fill="#20262C"/>
<path d="M147.508 275.017C147.896 275.003 148.265 274.839 148.535 274.56C148.805 274.28 148.956 273.906 148.956 273.517C148.956 273.129 148.805 272.755 148.535 272.475C148.265 272.195 147.896 272.032 147.508 272.018C147.119 272.032 146.751 272.195 146.481 272.475C146.211 272.755 146.06 273.129 146.06 273.517C146.06 273.906 146.211 274.28 146.481 274.56C146.751 274.839 147.119 275.003 147.508 275.017V275.017Z" fill="#20262C"/>
<path d="M160.82 276.996C161.209 276.982 161.577 276.818 161.847 276.539C162.118 276.259 162.269 275.885 162.269 275.496C162.269 275.107 162.118 274.734 161.847 274.454C161.577 274.174 161.209 274.011 160.82 273.997C160.432 274.011 160.063 274.174 159.793 274.454C159.523 274.734 159.372 275.107 159.372 275.496C159.372 275.885 159.523 276.259 159.793 276.539C160.063 276.818 160.432 276.982 160.82 276.996V276.996Z" fill="#20262C"/>
<path d="M175.213 276.276C175.601 276.263 175.97 276.099 176.24 275.819C176.51 275.539 176.661 275.166 176.661 274.777C176.661 274.388 176.51 274.014 176.24 273.735C175.97 273.455 175.601 273.291 175.213 273.278C174.824 273.291 174.456 273.455 174.186 273.735C173.916 274.014 173.765 274.388 173.765 274.777C173.765 275.166 173.916 275.539 174.186 275.819C174.456 276.099 174.824 276.263 175.213 276.276Z" fill="#20262C"/>
<path d="M184.533 130.283L184.092 129.666C184.652 129.265 186.351 128.016 186.874 127.631L187.325 128.241C186.801 128.628 185.096 129.881 184.533 130.283Z" fill="#20262C"/>
<path d="M266.378 79.0011C263.977 79.8571 261.724 81.084 259.702 82.6372C257.662 84.145 255.953 86.0544 254.679 88.2478L254.223 89.0739C254.078 89.3522 253.972 89.6501 253.845 89.9369L253.113 91.6995C252.65 92.9055 252.056 94.0372 251.508 95.1961C250.35 97.4771 249.156 99.7391 247.885 101.955C242.828 110.835 237.438 119.505 231.948 128.119L231.58 128.696L231.041 128.259L209.146 110.487L209.979 110.527L194.715 120.773L194.949 119.783C199.84 128.216 205.159 136.393 210.886 144.283C213.74 148.221 216.81 151.999 220.08 155.599C221.711 157.385 223.444 159.075 225.269 160.663C226.186 161.442 227.132 162.182 228.11 162.866C228.613 163.18 229.091 163.549 229.615 163.82C230.104 164.117 230.615 164.373 231.145 164.588C232.213 164.914 233.352 164.922 234.424 164.61C235.554 164.302 236.635 163.837 237.635 163.228C239.683 161.968 241.579 160.477 243.288 158.785C246.733 155.349 249.892 151.638 252.732 147.688C258.454 139.77 263.739 131.544 268.562 123.049C263.998 131.708 258.919 140.087 253.353 148.139C250.542 152.172 247.406 155.968 243.976 159.489C242.233 161.265 240.293 162.835 238.192 164.168C237.111 164.847 235.94 165.369 234.713 165.721C233.426 166.108 232.054 166.11 230.766 165.728C230.158 165.499 229.57 165.218 229.009 164.889C228.443 164.604 227.941 164.231 227.404 163.906C226.374 163.207 225.382 162.452 224.434 161.646C222.562 160.035 220.783 158.317 219.108 156.501C215.786 152.88 212.666 149.079 209.762 145.114C203.944 137.219 198.566 129.009 193.652 120.522L193.303 119.919L193.886 119.532L209.2 109.361L209.634 109.072L210.033 109.401L231.822 127.303L230.915 127.443C236.519 118.931 242.034 110.343 247.206 101.564C248.5 99.3696 249.762 97.1583 250.962 94.9157C251.531 93.7832 252.152 92.6651 252.631 91.4985L253.409 89.7456C253.548 89.4533 253.664 89.1501 253.82 88.8675L254.309 88.03C255.658 85.8283 257.444 83.9261 259.556 82.4405C261.635 80.9431 263.938 79.7824 266.378 79.0011V79.0011Z" fill="#20262C"/>
<path d="M232.888 136.882C232.674 136.884 232.462 136.836 232.271 136.741C232.079 136.646 231.912 136.508 231.784 136.336C231.514 136.002 231.304 135.622 231.166 135.214C230.888 134.409 230.717 133.571 230.657 132.721C230.608 132.298 230.587 131.876 230.578 131.455C230.557 131.031 230.557 130.61 230.568 130.19C230.566 129.343 230.637 128.509 230.682 127.666L232.181 127.896C232.016 128.69 231.822 129.488 231.702 130.289C231.628 130.69 231.566 131.092 231.525 131.494C231.471 131.897 231.43 132.3 231.415 132.703C231.348 133.506 231.387 134.314 231.53 135.107C231.598 135.5 231.736 135.878 231.936 136.223C232.031 136.4 232.167 136.553 232.332 136.667C232.498 136.782 232.688 136.855 232.888 136.882V136.882Z" fill="#20262C"/>
<path d="M234.011 244.495L223.788 340.735C220.274 342.906 216.425 344.479 212.396 345.391H212.389C207.007 346.561 201.428 346.478 196.083 345.148H196.076C189.285 343.457 182.958 340.27 177.556 335.82L183.995 280.283L191.085 219.156C197.994 225.116 205.417 230.45 213.268 235.098C219.806 239.002 226.765 242.154 234.011 244.495V244.495Z" fill="#20262C"/>
<path d="M302.053 339.643C299.354 343.692 295.19 346.142 290.442 347.53C277.482 351.337 260.213 347.257 256.792 346.377H256.777C256.391 346.279 256.186 346.218 256.186 346.218L239.736 246.011C253.85 249.136 268.669 247.513 281.289 235.545L302.053 339.643Z" fill="#20262C"/>
<path d="M227.116 242.132L217.621 337.792L218.375 337.867L227.87 242.207L227.116 242.132Z" fill="white"/>
<path d="M208.543 334.731C191.924 334.731 178.897 324.057 178.727 323.915L179.213 323.333C179.433 323.517 201.528 341.607 224.702 330.204L225.037 330.885C219.911 333.426 214.265 334.743 208.543 334.731Z" fill="white"/>
<path d="M273.069 336.177C266.489 336.19 259.959 335.043 253.777 332.788L254.069 332.088C254.314 332.19 278.855 342.112 299.415 327.227L299.86 327.84C292.047 333.404 282.66 336.325 273.069 336.177Z" fill="white"/>
<path d="M209.438 111.188C208.593 110.401 207.78 109.579 206.999 108.723C206.198 107.878 205.454 106.98 204.774 106.034L203.803 104.549C203.438 104.028 203.194 103.431 203.09 102.803C203.032 102.485 203.005 102.163 203.007 101.84L203.023 100.979C203.024 100.42 202.998 99.8627 202.953 99.312C202.89 98.2389 202.646 97.1843 202.23 96.1932C202.128 95.9684 202.003 95.7551 201.855 95.5571C201.709 95.3429 201.513 95.0641 201.359 94.8069C201.043 94.2781 200.779 93.7203 200.571 93.1411L199.929 91.5504C199.711 91.0229 199.444 90.5242 199.215 90.0049L197.8 86.9118L197.774 86.8558C197.733 86.7649 197.712 86.6662 197.714 86.5665L197.714 86.5591L197.8 86.9037C197.099 85.4422 196.221 84.0725 195.186 82.8254C194.984 82.5541 194.729 82.3266 194.437 82.1568C194.144 81.9871 193.82 81.8786 193.485 81.8379C193.35 81.8379 193.218 81.8696 193.098 81.9304C192.978 81.9913 192.875 82.0795 192.795 82.188C192.633 82.4817 192.554 82.8148 192.569 83.1503C192.702 84.786 193.099 86.3894 193.745 87.8981L194.653 90.2593C194.812 90.6638 194.947 91.0772 195.058 91.4976C195.118 91.737 195.124 91.9869 195.077 92.2291C195.029 92.4714 194.928 92.7 194.781 92.8987C194.475 93.2736 194.05 93.5319 193.577 93.6303C193.103 93.7287 192.61 93.6612 192.18 93.4391C191.389 93.0357 190.695 92.4655 190.146 91.7679C189.046 90.4573 188.075 89.0436 187.246 87.5466C186.826 86.8062 186.423 86.0564 186.038 85.2975C185.883 84.9589 185.68 84.6445 185.435 84.3638C185.19 84.114 184.901 83.9105 184.583 83.763C183.949 83.4772 183.231 83.4363 182.568 83.6482C182.25 83.7501 181.956 83.9141 181.702 84.1308C181.448 84.3474 181.24 84.6123 181.09 84.9101L181.034 84.9981C181.052 84.986 181.066 84.9674 181.072 84.9458L180.021 85.2592C179.806 85.128 179.572 85.0299 179.328 84.9679C179.155 84.9139 178.968 84.9176 178.797 84.9783C178.66 85.0514 178.555 85.1714 178.499 85.3162C178.45 85.4061 178.42 85.5361 178.375 85.6438L178.295 86.0419C178.269 86.1668 178.214 86.2838 178.134 86.3829C178.054 86.482 177.951 86.5604 177.834 86.6114C177.718 86.6624 177.59 86.6847 177.463 86.6761C177.336 86.6676 177.213 86.6286 177.104 86.5625L177.096 86.5577C176.952 86.4715 176.788 86.4209 176.62 86.41C176.57 86.4071 176.521 86.4169 176.476 86.4383C176.43 86.4598 176.392 86.4922 176.362 86.5327C176.112 86.9265 175.973 87.3813 175.961 87.848C175.886 89.0503 175.946 90.2571 176.14 91.446C176.159 91.5858 176.143 91.7282 176.093 91.8601C176.043 91.992 175.96 92.1093 175.853 92.2012L175.793 92.2523C175.594 92.4453 175.426 92.6684 175.295 92.9134C175.146 93.198 175.035 93.5016 174.967 93.8159C174.826 94.4865 174.819 95.1784 174.947 95.8517C175.268 97.3105 175.845 98.7008 176.652 99.9577C177.481 101.266 178.441 102.487 179.517 103.6C180.527 104.749 181.717 105.725 183.042 106.49C184.426 107.214 185.869 107.823 187.354 108.308C188.093 108.552 188.844 108.757 189.605 108.923L190.181 109.031C190.414 109.071 190.643 109.134 190.864 109.218C191.305 109.383 191.709 109.631 192.056 109.95C192.396 110.265 192.672 110.643 192.869 111.063L193.405 112.14L194.464 114.303L196.589 118.636C196.598 118.655 196.6 118.677 196.594 118.698C196.587 118.718 196.573 118.736 196.555 118.746C196.536 118.757 196.514 118.76 196.493 118.755C196.472 118.75 196.454 118.737 196.442 118.718C195.565 117.367 194.716 115.998 193.895 114.612L192.661 112.532L192.051 111.488C191.847 111.117 191.556 110.802 191.203 110.568C190.85 110.334 190.446 110.189 190.025 110.145C189.83 110.122 189.613 110.105 189.409 110.073C188.587 109.958 187.773 109.785 186.975 109.555C185.382 109.107 183.829 108.525 182.334 107.815C180.831 107.034 179.469 106.008 178.303 104.779C177.121 103.601 176.062 102.305 175.144 100.91C174.191 99.4661 173.524 97.8526 173.179 96.1572C173.006 95.2456 173.027 94.3077 173.241 93.4047C173.356 92.9352 173.534 92.4835 173.771 92.0621C174.026 91.5992 174.37 91.1912 174.783 90.8615L174.436 91.6675C174.252 90.3386 174.22 88.9931 174.342 87.6571C174.394 86.8458 174.698 86.071 175.211 85.4411C175.396 85.2451 175.62 85.0906 175.869 84.988C176.118 84.8854 176.386 84.837 176.655 84.846C177.125 84.8679 177.58 85.0202 177.969 85.286L176.771 85.8017L176.905 85.2198C176.972 85.0134 177.055 84.812 177.151 84.617C177.382 84.1517 177.778 83.7886 178.261 83.5975C178.726 83.4369 179.229 83.4292 179.698 83.5757C180.1 83.6922 180.48 83.8734 180.824 84.1122L179.773 84.4255C179.814 84.3337 179.862 84.2453 179.917 84.1612L179.861 84.2489C180.111 83.8027 180.446 83.4104 180.847 83.0945C181.249 82.7786 181.709 82.5453 182.202 82.4082C183.173 82.139 184.211 82.2539 185.099 82.7291C185.534 82.9638 185.923 83.2765 186.245 83.6516C186.534 84.0236 186.77 84.4347 186.944 84.8728C187.273 85.6402 187.625 86.3967 188 87.1424C188.718 88.6413 189.592 90.0606 190.608 91.3768C191.08 92.0252 191.69 92.5616 192.394 92.9478C192.713 93.1261 193.083 93.1887 193.443 93.1252C193.803 93.0616 194.13 92.8756 194.369 92.5988C194.475 92.4596 194.547 92.2972 194.579 92.1249C194.611 91.9526 194.603 91.7752 194.554 91.6069C194.443 91.2143 194.31 90.8282 194.155 90.4504C193.852 89.6719 193.515 88.898 193.186 88.1187C192.442 86.5518 191.934 84.883 191.68 83.167C191.632 82.6574 191.729 82.1447 191.961 81.688C192.109 81.4406 192.312 81.2308 192.555 81.0749C192.798 80.919 193.073 80.8212 193.36 80.7893C193.898 80.7293 194.441 80.8448 194.908 81.1184C195.322 81.3496 195.704 81.6334 196.045 81.9628C197.268 83.2205 198.298 84.6533 199.099 86.2141C199.153 86.31 199.182 86.4176 199.184 86.5275L199.185 86.5591L199.185 86.5664L199.099 86.2214C200.078 88.3332 201.176 90.4235 201.936 92.6044C202.106 93.1126 202.326 93.6026 202.593 94.0676C202.731 94.3063 202.866 94.4989 203.036 94.7644C203.221 95.0367 203.377 95.3272 203.503 95.6313C203.946 96.7807 204.189 97.9978 204.22 99.2294C204.246 99.8237 204.241 100.419 204.206 101.013L204.144 101.876C204.128 102.128 204.136 102.382 204.167 102.633C204.431 103.678 204.878 104.667 205.489 105.555C206.718 107.486 208.078 109.33 209.561 111.073C209.574 111.09 209.581 111.111 209.579 111.132C209.578 111.154 209.568 111.174 209.553 111.188C209.537 111.203 209.517 111.211 209.495 111.211C209.474 111.211 209.453 111.203 209.438 111.188V111.188Z" fill="#20262C"/>
<path d="M180.418 84.6818C180.875 85.6248 181.267 86.565 181.728 87.471C182.187 88.3765 182.666 89.2654 183.2 90.1212C183.721 90.9847 184.295 91.8163 184.898 92.6323C185.502 93.449 186.153 94.2319 186.8 95.0538C185.042 93.8998 183.566 92.3643 182.483 90.5614C181.372 88.7764 180.667 86.7692 180.418 84.6818Z" fill="#20262C"/>
<path d="M177.539 85.924C177.847 87.1364 178.041 88.3562 178.413 89.4987C178.778 90.6431 179.268 91.7436 179.875 92.7802C180.483 93.816 181.203 94.7821 182.021 95.6612C182.869 96.5197 183.754 97.4174 184.563 98.3565C183.525 97.6698 182.524 96.9277 181.565 96.1337C179.638 94.4423 178.31 92.1733 177.78 89.6653C177.552 88.4321 177.471 87.1762 177.539 85.924V85.924Z" fill="#20262C"/>
<path d="M175.285 91.5581C175.713 92.3513 176.095 93.1682 176.43 94.005C176.778 94.8012 177.187 95.5693 177.653 96.3027C178.129 97.0379 178.647 97.7455 179.204 98.4219C179.761 99.1343 180.273 99.8807 180.737 100.657C180.025 100.099 179.349 99.4982 178.712 98.8566C178.038 98.2305 177.443 97.524 176.942 96.7531C176.447 95.9681 176.067 95.1166 175.813 94.2242C175.578 93.3482 175.402 92.4575 175.285 91.5581V91.5581Z" fill="#20262C"/>
<path d="M174.325 159.259C173.079 161.007 171.674 162.636 170.127 164.124C168.612 165.643 167.046 167.109 165.461 168.553C162.271 171.418 158.976 174.163 155.664 176.879L153.178 178.905C152.708 179.334 152.139 179.639 151.523 179.795C151.179 179.876 150.824 179.887 150.476 179.829C150.128 179.772 149.795 179.646 149.496 179.459C148.914 179.075 148.486 178.499 148.287 177.832C148.191 177.519 148.137 177.195 148.126 176.868C148.119 176.664 148.144 176.46 148.2 176.264C148.247 176.1 148.309 175.94 148.386 175.787C148.932 174.797 149.585 173.871 150.335 173.025C153.133 169.693 156.339 166.846 159.391 163.808L159.219 164.685L156.548 159.04L156.943 159.412L152.891 157.763L153.875 156.889C154.357 158.782 154.447 160.754 154.14 162.683C154.051 163.176 153.918 163.659 153.742 164.128C153.572 164.666 153.28 165.159 152.888 165.565C152.649 165.81 152.353 165.991 152.026 166.091C151.699 166.191 151.352 166.207 151.018 166.138C150.442 165.994 149.921 165.683 149.522 165.243C148.272 163.721 147.442 161.898 147.115 159.956C146.916 159.035 146.768 158.105 146.67 157.168C146.503 156.171 146.598 155.148 146.946 154.199C147.806 152.422 149.273 151.011 151.081 150.219C152.759 149.39 154.529 148.76 156.354 148.343C159.953 147.496 163.629 147.019 167.325 146.919C163.669 147.268 160.052 147.948 156.519 148.95C154.777 149.452 153.09 150.13 151.484 150.971C149.906 151.709 148.639 152.981 147.907 154.561C147.644 155.359 147.599 156.212 147.776 157.033C147.897 157.924 148.066 158.808 148.283 159.681C148.498 160.539 148.782 161.38 149.131 162.193C149.442 162.97 149.891 163.684 150.458 164.3C150.68 164.548 150.968 164.727 151.288 164.815C151.405 164.839 151.527 164.83 151.639 164.789C151.751 164.749 151.851 164.679 151.926 164.586C152.374 163.949 152.656 163.209 152.744 162.435C152.981 160.713 152.883 158.961 152.456 157.275L152.116 155.87L153.441 156.4L157.502 158.028L157.772 158.135L157.898 158.4L160.581 164.04L160.811 164.524L160.41 164.918C157.375 167.891 154.177 170.758 151.409 173.94C150.727 174.686 150.125 175.501 149.613 176.373C149.567 176.458 149.529 176.547 149.5 176.638C149.477 176.698 149.467 176.762 149.472 176.826C149.475 177.034 149.506 177.242 149.563 177.442C149.663 177.812 149.889 178.136 150.203 178.358C150.565 178.54 150.976 178.598 151.375 178.522C151.773 178.447 152.135 178.243 152.406 177.942L154.958 175.99C158.353 173.39 161.705 170.74 164.992 168.011C166.643 166.655 168.275 165.276 169.858 163.842C171.466 162.435 172.959 160.902 174.325 159.259Z" fill="#20262C"/>
<path d="M152.792 157.151L152.246 154.057L152.992 153.926L153.539 157.02L152.792 157.151Z" fill="#20262C"/>
<path d="M159.718 158.345H157.227V159.103H159.718V158.345Z" fill="#20262C"/>
<path d="M162.372 161.542L159.641 164.088L160.157 164.642L162.888 162.095L162.372 161.542Z" fill="#20262C"/>
<path d="M138.83 183.076L129.277 175.102L147.506 159.742L147.995 160.322L130.458 175.101L138.787 182.053L156.631 164.414L153.328 162.126L153.76 161.503L157.814 164.312L138.83 183.076Z" fill="#20262C"/>
<path d="M338.175 73.2542L335.617 107.982L332.979 142.579L330.282 177.094L327.535 211.557C326.643 223.051 325.641 234.497 324.678 245.964L323.218 263.16L321.68 280.34C319.658 303.257 317.484 326.187 315.56 349.166L315.366 348.787L326.813 355.714L326.57 355.666C340.321 353.627 354.049 351.445 367.79 349.341L408.984 342.851L408.455 343.423L413.178 273.775L418.089 204.141L423.219 134.523C424.921 111.316 426.794 88.1219 428.574 64.9209L428.937 65.7067L422.225 60.7626L422.86 60.9169L380.667 67.108L338.175 73.2542ZM338.009 73.0991L380.154 66.1402L422.598 59.2264L422.942 59.1703L423.233 59.3808L429.989 64.2652L430.388 64.5534L430.353 65.0513C428.735 88.264 427.211 111.484 425.515 134.691L420.453 204.314L415.171 273.921L409.7 343.514L409.661 344.013L409.172 344.085L367.913 350.154C354.17 352.237 340.414 354.242 326.68 356.388L326.551 356.409L326.437 356.34L314.951 349.478L314.736 349.35L314.757 349.099C316.655 326.085 318.304 303.023 320.104 279.947L321.433 262.633L322.839 245.334C323.788 233.805 324.696 222.255 325.716 210.752L328.703 176.226L331.738 141.752L334.834 107.36L338.009 73.0991Z" fill="#20262C"/>
<path d="M327.002 356.056L326.246 355.998L347.565 78.6771L347.856 78.6281L429.398 64.6121L429.527 65.3591L348.276 79.3251L327.002 356.056Z" fill="#20262C"/>
<path d="M338.286 72.8497L337.898 73.5029L347.727 79.3274L348.114 78.6742L338.286 72.8497Z" fill="#20262C"/>
<path d="M334.111 431.838C308.896 411.209 316.36 354.049 316.69 351.626L323.453 352.546C323.378 353.101 316.169 408.34 338.434 426.555L334.111 431.838Z" fill="#20262C"/>
<path d="M290.246 421.101L287.173 415.007C312.857 402.053 317.802 346.567 317.848 346.008L324.651 346.576C324.447 349.014 319.334 406.431 290.246 421.101Z" fill="#20262C"/>
<path d="M427.302 420.695C402.088 400.066 409.552 342.907 409.882 340.483L416.645 341.403C416.57 341.959 409.361 397.197 431.625 415.413L427.302 420.695Z" fill="#20262C"/>
<path d="M383.437 409.959L380.364 403.864C406.078 390.896 410.992 335.425 411.039 334.866L417.841 335.433C417.637 337.871 412.526 395.288 383.437 409.959Z" fill="#20262C"/>
<path d="M422.075 194.917L411.408 348.922L417.46 349.342L428.127 195.336L422.075 194.917Z" fill="#20262C"/>
<path d="M328.933 199.3L318.266 353.305L324.317 353.724L334.984 199.719L328.933 199.3Z" fill="#20262C"/>
<path d="M424.492 200.091L331.547 201.61L331.646 207.677L424.591 206.158L424.492 200.091Z" fill="#20262C"/>
<path d="M224.295 373.687C224.125 374.542 223.842 375.371 223.453 376.152C223.124 376.842 222.669 377.464 222.111 377.987C221.998 378.092 221.879 378.191 221.755 378.283C221.371 378.575 220.936 378.793 220.473 378.927C220.241 379.001 220.002 379.049 219.76 379.071L219.123 379.117C218.345 379.208 217.578 379.376 216.833 379.617C215.182 379.995 213.487 380.138 211.797 380.042C210.128 379.997 208.483 379.83 206.852 379.625C203.576 379.208 200.337 378.669 197.084 378.154C195.461 377.888 193.843 377.61 192.23 377.319C190.607 377.054 188.984 376.766 187.369 376.478C181.014 375.37 174.711 374.043 168.424 372.625C168.295 372.595 168.166 372.565 168.038 372.534L168.015 372.526C167.868 372.494 167.736 372.41 167.644 372.292C167.551 372.173 167.503 372.025 167.507 371.874C167.504 371.7 167.527 371.526 167.575 371.358C167.609 371.222 167.652 371.087 167.704 370.957C167.809 370.715 167.934 370.481 168.075 370.259C168.208 370.047 168.358 369.847 168.523 369.66C168.68 369.474 168.85 369.299 169.031 369.137C169.717 368.499 170.484 367.955 171.314 367.521C172.916 366.694 174.602 366.038 176.342 365.564C177.206 365.337 178.071 365.125 178.936 364.942C179.8 364.776 180.68 364.586 181.529 364.442C181.628 364.427 181.719 364.412 181.818 364.389C183.441 364.108 185.064 363.835 186.679 363.517C189.037 363.054 191.396 362.554 193.694 361.886C194.718 361.59 195.719 361.264 196.713 360.893C198.322 360.304 199.828 359.461 201.172 358.398C202.203 357.814 203.037 355.462 203.697 352.459C204.183 350.26 204.577 347.719 204.895 345.262C205.525 340.363 205.859 335.797 205.995 335.016C206.199 334.997 206.405 334.997 206.609 335.016C206.609 335.13 205.859 340.325 205.138 345.27C204.729 348.068 204.334 350.791 204.092 352.452C203.947 353.468 203.857 354.09 203.857 354.098C203.686 355.896 202.86 357.57 201.536 358.799C200.212 360.006 198.691 360.976 197.039 361.666C196.098 362.088 195.136 362.46 194.157 362.781C191.786 363.562 189.376 364.218 186.937 364.745C185.223 365.132 183.506 365.493 181.787 365.83C181.454 365.89 181.12 365.959 180.794 366.027C180.278 366.133 179.77 366.247 179.246 366.353C178.405 366.55 177.578 366.77 176.751 366.998C175.117 367.441 173.534 368.053 172.027 368.825C171.302 369.194 170.627 369.653 170.017 370.19C169.868 370.314 169.73 370.451 169.607 370.6C169.479 370.732 169.364 370.877 169.266 371.033C169.192 371.132 169.128 371.238 169.076 371.351C173.316 372.382 177.56 373.399 181.81 374.4C183.714 374.855 185.609 375.302 187.513 375.75C189.113 376.106 190.721 376.462 192.321 376.804C193.937 377.122 195.545 377.426 197.16 377.714C198.138 377.888 199.124 378.055 200.11 378.199C201.255 378.374 202.408 378.533 203.561 378.662C204.676 378.791 205.79 378.897 206.913 378.973C208.543 379.094 210.181 379.162 211.797 379.125C213.395 379.124 214.986 378.912 216.529 378.495C216.719 378.442 216.908 378.381 217.106 378.321C217.109 378.318 217.112 378.315 217.116 378.314C217.12 378.313 217.124 378.312 217.128 378.313C217.745 378.099 218.383 377.957 219.032 377.888L219.366 377.865L219.624 377.843C219.791 377.825 219.956 377.792 220.116 377.744C220.44 377.644 220.743 377.487 221.011 377.282C222.131 376.269 222.876 374.909 223.127 373.421C223.471 371.879 223.558 370.29 223.385 368.719C223.3 367.938 223.145 367.167 222.922 366.414C222.869 366.224 222.794 366.042 222.733 365.86C222.657 365.663 222.581 365.443 222.52 365.238C222.407 364.824 222.319 364.404 222.255 363.979C222.031 362.326 221.965 360.655 222.058 358.989C222.088 358.42 222.156 355.508 222.248 351.875C222.293 349.903 222.346 347.712 222.407 345.566C222.543 340.219 222.702 335.145 222.816 334.387C222.786 335.153 222.733 340.219 222.687 345.573C222.672 347.143 222.664 348.743 222.649 350.26L222.702 345.573L222.778 338.171C222.763 340.279 222.74 342.987 222.71 345.573C222.687 347.985 222.665 350.275 222.642 351.86C222.642 352.058 222.642 352.247 222.634 352.422C222.642 352.239 222.642 352.05 222.634 351.86L222.612 354.006C222.619 354.006 222.627 353.574 222.634 352.831C222.619 356.016 222.612 358.481 222.634 358.997C222.658 360.617 222.813 362.233 223.097 363.828C223.176 364.211 223.28 364.588 223.408 364.958C223.465 365.141 223.533 365.321 223.613 365.496C223.696 365.693 223.787 365.89 223.855 366.095C224.147 366.902 224.351 367.739 224.462 368.59C224.699 370.286 224.642 372.01 224.295 373.687V373.687Z" fill="#20262C"/>
<path d="M216.657 362.444C216.859 363.008 216.924 363.612 216.846 364.205C216.775 364.818 216.562 365.406 216.224 365.921C215.883 366.441 215.41 366.861 214.852 367.138C214.319 367.412 213.727 367.555 213.127 367.554C213.629 367.3 214.109 367.006 214.564 366.676C214.99 366.365 215.356 365.978 215.643 365.535C216.216 364.597 216.563 363.539 216.657 362.444V362.444Z" fill="#20262C"/>
<path d="M221.532 377.546C221.532 377.546 225.284 379.42 222.189 386.273C222.189 386.273 222.163 388.969 212.77 387.246L165.142 381.139C165.142 381.139 162.626 372.892 170.145 372.312L181.956 374.967C181.956 374.967 179.903 367.467 181.034 365.252C182.577 363.339 184.711 361.991 187.102 361.421C189.493 360.85 192.005 361.089 194.246 362.099C194.246 362.099 192.276 373.451 200.57 378.493C200.57 378.493 213.598 379.518 221.532 377.546Z" fill="#20262C"/>
<path d="M281.093 360.522C281.058 360.53 279.481 340.928 279.484 340.963C279.66 342.594 281.366 363.864 281.426 365.497C281.517 367.115 281.476 368.737 281.304 370.348C281.254 370.738 281.18 371.124 281.081 371.504C281.035 371.694 280.974 371.865 280.912 372.052C280.846 372.257 280.769 372.461 280.716 372.669C280.481 373.493 280.338 374.341 280.288 375.197C280.168 376.905 280.346 378.621 280.814 380.268C281.05 381.109 281.391 381.916 281.829 382.672C282.277 383.477 282.911 384.163 283.678 384.673C284.083 384.938 284.534 385.126 285.007 385.228C285.243 385.282 285.484 385.313 285.727 385.321L286.366 385.317C287.148 385.351 287.925 385.463 288.685 385.651C290.358 385.909 292.059 385.932 293.738 385.719C295.395 385.55 297.025 385.269 298.642 384.947C301.875 384.295 305.073 383.531 308.274 382.781C309.874 382.404 311.47 382.011 313.062 381.603C314.662 381.223 316.255 380.817 317.85 380.416C324.232 378.826 330.555 377.011 336.845 375.101L336.871 375.094C337.015 375.05 337.14 374.957 337.224 374.832C337.308 374.707 337.347 374.557 337.334 374.407C337.32 374.233 337.284 374.061 337.225 373.897C337.181 373.763 337.127 373.632 337.065 373.506C336.949 373.269 336.809 373.046 336.648 372.838C336.501 372.634 336.336 372.445 336.155 372.271C335.987 372.094 335.806 371.931 335.614 371.781C334.883 371.195 334.078 370.709 333.218 370.337C331.562 369.623 329.834 369.089 328.064 368.743C327.19 368.58 326.314 368.427 325.436 368.306C324.561 368.203 323.671 368.078 322.809 367.996C321.075 367.814 319.34 367.65 317.612 367.44C314.166 367.087 310.754 366.45 307.412 365.535C305.765 365.066 304.205 364.334 302.791 363.367C299.373 361.76 296.72 342.083 296.306 340.39C296.102 340.384 295.898 340.4 295.697 340.438C295.662 340.447 299.797 359.232 299.802 359.267C300.1 361.051 301.045 362.662 302.455 363.793C303.86 364.903 305.447 365.762 307.144 366.333C310.493 367.448 313.942 368.236 317.443 368.686C319.179 368.945 320.915 369.19 322.653 369.395C323.529 369.492 324.368 369.626 325.227 369.739C326.077 369.87 326.921 370.031 327.761 370.201C329.423 370.527 331.046 371.025 332.605 371.687C333.353 372.003 334.059 372.412 334.706 372.903C334.862 373.017 335.008 373.144 335.143 373.282C335.281 373.407 335.407 373.545 335.518 373.694C335.628 373.828 335.724 373.974 335.804 374.128C335.84 374.196 335.871 374.267 335.898 374.34C335.923 374.394 335.942 374.506 335.941 374.465L336.43 373.771C330.18 375.779 323.92 377.755 317.65 379.7C316.078 380.169 314.506 380.644 312.927 381.092C311.346 381.532 309.758 381.945 308.168 382.349C304.993 383.17 301.777 383.823 298.533 384.303C296.913 384.536 295.288 384.723 293.669 384.803C292.075 384.917 290.474 384.818 288.906 384.508C288.077 384.28 287.226 384.138 286.368 384.083L286.031 384.087L285.776 384.083C285.608 384.077 285.441 384.055 285.278 384.016C284.947 383.943 284.632 383.808 284.35 383.62C283.162 382.691 282.321 381.389 281.965 379.924C281.512 378.41 281.311 376.833 281.368 375.254C281.396 374.468 281.497 373.686 281.669 372.918C281.708 372.726 281.769 372.542 281.818 372.353C281.875 372.147 281.939 371.927 281.979 371.715C282.066 371.295 282.125 370.869 282.158 370.442C282.266 368.777 282.213 367.107 281.998 365.453C281.798 363.811 279.852 342.571 279.484 340.963L281.093 360.522Z" fill="#20262C"/>
<path d="M287.631 368.51C287.47 369.087 287.449 369.694 287.569 370.281C287.683 370.887 287.937 371.458 288.312 371.948C288.689 372.443 289.191 372.828 289.767 373.064C290.318 373.299 290.919 373.399 291.517 373.355C290.999 373.138 290.499 372.879 290.021 372.583C289.574 372.303 289.182 371.943 288.863 371.522C288.225 370.627 287.804 369.596 287.631 368.51Z" fill="#20262C"/>
<path d="M283.849 383.923C283.849 383.923 280.24 386.059 283.817 392.674C283.817 392.674 284.035 395.361 293.282 392.972L340.352 383.477C340.352 383.477 342.271 375.071 334.73 375.03L323.139 378.522C323.139 378.522 324.651 370.895 323.365 368.766C321.689 366.968 319.464 365.777 317.038 365.378C314.613 364.98 312.124 365.397 309.961 366.565C309.961 366.565 312.737 377.747 304.825 383.369C304.825 383.369 291.903 385.322 283.849 383.923Z" fill="#20262C"/>
<path d="M308.221 67.626C310.421 91.0448 311.858 114.483 313.073 137.926C314.333 161.368 315.17 184.82 315.833 208.277C316.48 231.734 316.875 255.198 317.02 278.667C317.07 302.139 317.016 325.614 316.339 349.103L316.3 350.437L315.101 350.312L305.517 349.313C302.324 348.941 299.129 348.607 295.938 348.204C299.153 348.11 302.365 348.086 305.579 348.024L315.215 347.953L313.978 349.162C312.144 325.734 310.934 302.29 309.828 278.844C308.799 255.397 308.038 231.942 307.546 208.481C307.053 185.02 306.734 161.555 306.838 138.079C306.897 114.605 307.177 91.1248 308.221 67.626Z" fill="#20262C"/>
<path d="M212.182 75.9884C214.34 75.3254 216.353 74.2583 218.114 72.8438C219.814 71.4307 221.185 69.6639 222.132 67.6665C223.071 65.6675 223.695 63.5354 223.982 61.3457C224.286 59.1628 224.327 56.9514 224.106 54.7586L224.79 55.5732C223.899 55.2591 223.085 54.7575 222.403 54.1024C221.754 53.5006 221.185 52.8168 220.712 52.0683C219.791 50.5825 219.243 48.8954 219.117 47.1516C219.034 46.276 219.078 45.3931 219.249 44.5302C219.415 43.5644 219.919 42.689 220.67 42.0594C221.443 41.494 222.39 41.2179 223.345 41.2793C224.212 41.3157 225.067 41.4997 225.872 41.8232L225.81 41.8041C227.76 42.3319 229.837 42.1133 231.635 41.1909C233.47 40.2639 235.111 38.9951 236.47 37.4525C237.855 35.9191 239.085 34.2516 240.14 32.4749C241.213 30.7188 242.157 28.8879 242.966 26.9962C243.02 26.8687 243.107 26.7578 243.218 26.6748C243.329 26.5917 243.46 26.5393 243.598 26.5229C243.735 26.5065 243.875 26.5266 244.002 26.5813C244.129 26.636 244.24 26.7234 244.323 26.8345L244.354 26.8774C245.793 28.8632 247.016 30.9961 248.004 33.2404C248.513 34.3417 248.984 35.4609 249.43 36.5947C249.906 37.7587 250.307 38.9522 250.629 40.1679C251.173 42.5683 251.487 45.0151 251.566 47.475C251.656 49.9436 251.505 52.415 251.117 54.8544C250.919 56.1587 250.521 57.4246 249.936 58.6071C249.778 58.8959 249.605 59.1761 249.418 59.4466C249.334 59.5644 249.121 59.937 248.962 60.198C248.609 60.7563 248.208 61.2824 247.763 61.7703C246.888 62.7358 245.864 63.5548 244.729 64.1964C244.169 64.5172 243.586 64.7961 242.984 65.0307C242.685 65.1518 242.377 65.2386 242.037 65.3385C241.722 65.4132 241.432 65.5011 241.108 65.554C238.628 65.9846 236.075 65.662 233.78 64.6278C231.484 63.5937 229.551 61.8953 228.231 59.752C228.216 59.7277 228.211 59.6987 228.217 59.6709C228.222 59.643 228.238 59.6183 228.262 59.6018C228.285 59.5853 228.313 59.5782 228.341 59.5819C228.37 59.5855 228.395 59.5997 228.414 59.6216C229.908 61.4313 231.869 62.798 234.083 63.5738C236.217 64.3536 238.538 64.4666 240.737 63.8978C241.002 63.8397 241.281 63.7359 241.544 63.6567C241.773 63.5718 242.037 63.4832 242.287 63.3628C242.787 63.1304 243.27 62.8613 243.732 62.5577C244.65 61.9613 245.476 61.2315 246.18 60.3922C246.524 59.9796 246.83 59.5374 247.097 59.0707C247.237 58.814 247.31 58.6603 247.538 58.2678C247.708 57.99 247.821 57.7925 247.937 57.5651C248.383 56.5828 248.677 55.5386 248.809 54.4681C249.107 52.1679 249.229 49.8484 249.174 47.5296C249.129 45.201 248.887 42.8802 248.453 40.592C248.184 39.4877 247.85 38.4005 247.452 37.3362C247.057 36.2293 246.622 35.132 246.171 34.0409C245.308 31.8657 244.257 29.7691 243.033 27.7748L244.421 27.656C243.429 29.5406 242.313 31.3569 241.079 33.0931C239.858 34.8267 238.501 36.4602 237.02 37.9778C235.547 39.5269 233.832 40.826 231.942 41.8242C230.97 42.3101 229.933 42.6519 228.863 42.8388C227.772 43.0126 226.66 42.9933 225.576 42.7817L225.513 42.7625C224.147 42.3567 222.432 42.3091 221.572 43.1396C220.705 43.9475 220.669 45.5135 220.902 46.953C221.107 48.3908 221.617 49.7683 222.397 50.993C222.782 51.5893 223.242 52.1332 223.767 52.6109C224.229 53.0731 224.778 53.4391 225.382 53.6876L225.429 53.7034C225.602 53.7604 225.753 53.8664 225.866 54.0083C225.979 54.1502 226.049 54.3219 226.066 54.5025C226.289 56.8806 226.188 59.2779 225.766 61.6288C225.382 63.9864 224.599 66.2611 223.449 68.3551C222.303 70.4603 220.679 72.2679 218.709 73.6331C216.761 74.9473 214.553 75.8252 212.235 76.2068C212.205 76.212 212.175 76.2053 212.15 76.1882C212.126 76.1711 212.109 76.145 212.104 76.1156C212.1 76.0887 212.105 76.061 212.119 76.0377C212.134 76.0144 212.156 75.9969 212.182 75.9884V75.9884Z" fill="#20262C"/>
<path d="M225.088 54.6269C226.402 62.5149 210.525 48.4581 214.368 36.8284C218.211 25.1987 219.323 23.7829 232.47 22.3672C245.617 20.9514 243.695 27.3223 243.695 27.3223C243.695 27.3223 236.251 43.7577 225.694 42.2893C225.694 42.2893 218.725 39.0605 220.235 48.368C220.235 48.368 221.635 52.5725 223.361 53.5997L225.088 54.6269Z" fill="#20262C"/>
<path d="M238.998 69.604C238.885 69.6041 238.774 69.5698 238.68 69.5056C238.587 69.4415 238.515 69.3504 238.474 69.2446C238.433 69.1387 238.426 69.023 238.452 68.9126C238.478 68.8022 238.537 68.7023 238.621 68.6262C239.107 68.1865 239.383 67.8899 239.392 67.8805C239.494 67.7717 239.634 67.7076 239.783 67.7022C239.931 67.6967 240.076 67.7504 240.185 67.8514C240.294 67.9525 240.359 68.0926 240.365 68.2412C240.371 68.3897 240.317 68.5346 240.217 68.644C240.217 68.644 239.913 68.9715 239.375 69.459C239.272 69.5526 239.138 69.6043 238.998 69.604V69.604Z" fill="#20262C"/>
<path d="M230.01 73.633H229.979C229.252 73.5943 228.534 73.4503 227.848 73.2054C227.779 73.1806 227.715 73.1423 227.66 73.0928C227.606 73.0433 227.561 72.9835 227.53 72.9169C227.498 72.8503 227.48 72.7781 227.476 72.7044C227.473 72.6308 227.484 72.5572 227.509 72.4877C227.533 72.4183 227.572 72.3545 227.621 72.2998C227.671 72.2452 227.73 72.2008 227.797 72.1693C227.864 72.1377 227.936 72.1196 228.009 72.116C228.083 72.1124 228.157 72.1233 228.226 72.1481C228.81 72.3559 229.421 72.4778 230.04 72.5102C230.186 72.5181 230.324 72.5828 230.423 72.6903C230.522 72.7979 230.575 72.9399 230.571 73.0861C230.568 73.2324 230.507 73.3714 230.402 73.4735C230.297 73.5756 230.157 73.6328 230.01 73.633ZM232.018 73.4795C231.879 73.4792 231.745 73.4271 231.641 73.3333C231.538 73.2395 231.474 73.1107 231.46 72.9719C231.447 72.8332 231.485 72.6943 231.568 72.5824C231.651 72.4704 231.773 72.3933 231.91 72.3661C232.535 72.2383 233.146 72.0522 233.736 71.8103C233.805 71.7825 233.878 71.7685 233.951 71.769C234.025 71.7695 234.098 71.7845 234.166 71.8132C234.234 71.8418 234.296 71.8836 234.347 71.9361C234.399 71.9886 234.44 72.0508 234.468 72.1191C234.496 72.1874 234.51 72.2605 234.509 72.3343C234.509 72.408 234.494 72.4809 234.465 72.5489C234.436 72.6168 234.395 72.6784 234.342 72.7302C234.29 72.782 234.227 72.823 234.159 72.8508C233.503 73.1196 232.823 73.3264 232.129 73.4683C232.092 73.4757 232.055 73.4795 232.018 73.4795V73.4795ZM226.256 72.3015C226.14 72.3016 226.026 72.2653 225.932 72.1977C225.351 71.7816 224.818 71.3041 224.339 70.7736C224.24 70.6633 224.188 70.518 224.195 70.3695C224.202 70.221 224.268 70.0815 224.378 69.9814C224.488 69.8814 224.633 69.829 224.782 69.8358C224.93 69.8425 225.07 69.9079 225.17 70.0176C225.594 70.488 226.067 70.9114 226.581 71.2807C226.679 71.3497 226.751 71.4479 226.789 71.5611C226.827 71.6742 226.828 71.7965 226.792 71.9102C226.755 72.0238 226.684 72.123 226.588 72.1934C226.491 72.2637 226.375 72.3016 226.256 72.3015L226.256 72.3015ZM235.757 71.9984C235.634 71.9985 235.513 71.9578 235.415 71.8827C235.317 71.8076 235.246 71.7023 235.214 71.583C235.182 71.4637 235.19 71.337 235.237 71.2227C235.284 71.1084 235.367 71.0127 235.474 70.9504C236.037 70.6212 236.582 70.2607 237.106 69.8707C237.165 69.8267 237.232 69.7948 237.304 69.7768C237.375 69.7588 237.45 69.7551 237.523 69.7659C237.596 69.7767 237.666 69.8017 237.729 69.8396C237.792 69.8775 237.848 69.9275 237.892 69.9867C237.936 70.0459 237.967 70.1132 237.985 70.1848C238.003 70.2563 238.007 70.3307 237.996 70.4037C237.985 70.4767 237.96 70.5469 237.923 70.6102C237.885 70.6735 237.835 70.7287 237.775 70.7727C237.219 71.1878 236.639 71.5714 236.039 71.9217C235.953 71.9716 235.856 71.998 235.757 71.9983L235.757 71.9984Z" fill="#20262C"/>
<path d="M223.513 69.3467C223.42 69.3467 223.328 69.3235 223.246 69.2793C223.164 69.235 223.094 69.1711 223.043 69.0932C222.838 68.7816 222.636 68.451 222.438 68.1014C222.402 68.0372 222.379 67.9665 222.369 67.8934C222.36 67.8202 222.366 67.746 222.386 67.6749C222.405 67.6038 222.439 67.5373 222.484 67.4792C222.529 67.421 222.586 67.3724 222.65 67.336C222.714 67.2996 222.785 67.2762 222.858 67.2672C222.931 67.2581 223.005 67.2636 223.076 67.2832C223.147 67.3028 223.214 67.3363 223.272 67.3816C223.33 67.427 223.379 67.4833 223.415 67.5475C223.601 67.8749 223.79 68.1843 223.982 68.4756C224.038 68.5603 224.069 68.6585 224.074 68.7598C224.078 68.861 224.055 68.9616 224.007 69.0508C223.959 69.1401 223.888 69.2147 223.801 69.2668C223.714 69.3189 223.615 69.3465 223.513 69.3467V69.3467Z" fill="#20262C"/>
<path d="M245.648 45.3328C246.085 45.3177 246.499 45.1335 246.803 44.8191C247.106 44.5046 247.276 44.0845 247.276 43.6474C247.276 43.2102 247.106 42.7901 246.803 42.4757C246.499 42.1612 246.085 41.977 245.648 41.9619C245.211 41.977 244.797 42.1612 244.493 42.4757C244.19 42.7901 244.02 43.2102 244.02 43.6474C244.02 44.0845 244.19 44.5046 244.493 44.8191C244.797 45.1335 245.211 45.3177 245.648 45.3328V45.3328Z" fill="#20262C"/>
<path d="M236.445 45.535C236.882 45.5199 237.296 45.3357 237.6 45.0212C237.904 44.7068 238.074 44.2867 238.074 43.8495C238.074 43.4124 237.904 42.9923 237.6 42.6778C237.296 42.3634 236.882 42.1792 236.445 42.1641C236.009 42.1792 235.595 42.3634 235.291 42.6778C234.987 42.9923 234.817 43.4124 234.817 43.8495C234.817 44.2867 234.987 44.7068 235.291 45.0212C235.595 45.3357 236.009 45.5199 236.445 45.535Z" fill="#20262C"/>
<path d="M249.419 39.9139C248.893 40.2198 248.453 40.43 248.019 40.6351C247.588 40.8319 247.176 40.9988 246.764 41.1653C246.352 41.3321 245.928 41.4708 245.482 41.6256C244.979 41.7938 244.465 41.9243 243.943 42.0159C244.083 41.4608 244.358 40.949 244.743 40.5263C245.129 40.1037 245.614 39.7835 246.154 39.5944C246.68 39.3872 247.244 39.2974 247.808 39.3313C248.393 39.3521 248.956 39.5559 249.419 39.9139V39.9139Z" fill="#20262C"/>
<path d="M237.487 41.7483C237.03 41.7351 236.574 41.6856 236.125 41.6004C235.751 41.5264 235.382 41.4314 235.019 41.3157C234.66 41.1964 234.309 41.0575 233.965 40.8995C233.549 40.7074 233.15 40.479 232.774 40.2171C233.148 39.8921 233.603 39.674 234.091 39.5857C234.578 39.4974 235.081 39.5421 235.545 39.7151C236.003 39.8625 236.42 40.1125 236.766 40.446C237.14 40.7916 237.393 41.2482 237.487 41.7483V41.7483Z" fill="#20262C"/>
<path d="M243.462 27.8113C245.88 28.454 250.128 44.0133 250.128 44.0133C250.128 44.0133 253.746 26.8845 243.462 27.8113Z" fill="#20262C"/>
<path d="M245.648 57.5632C245.162 57.106 244.574 56.7727 243.932 56.5914C243.29 56.4101 242.614 56.3863 241.961 56.5219C241.642 56.5384 241.314 56.6598 240.982 56.7053C240.652 56.8113 240.312 56.8815 239.964 56.9807C239.241 57.2166 238.505 57.4111 237.76 57.5632C238.214 56.9041 238.793 56.3413 239.465 55.9074C239.806 55.6874 240.164 55.4966 240.537 55.3372C240.929 55.1882 241.337 55.0818 241.752 55.02C242.632 54.8619 243.54 55.0274 244.308 55.486C244.68 55.701 244.996 56.0015 245.229 56.3627C245.462 56.7239 245.606 57.1355 245.648 57.5632V57.5632Z" fill="#20262C"/>
<path d="M218.745 53.0026C218.745 53.0026 217.316 73.9685 212.208 76.0976C212.208 76.0976 219.149 73.5556 221.345 71.1111C223.542 68.6665 225.797 57.0997 225.088 54.6269L218.745 53.0026Z" fill="#20262C"/>
<path d="M256.823 70.7559C248.906 65.7566 250.368 49.7764 250.368 49.7764C250.368 49.7764 250.793 62.5269 240.998 64.5073L239.804 68.2623L256.823 70.7559Z" fill="#20262C"/>
<path d="M168.858 140.5L164.517 143.181L164.554 142.985C167.382 146.489 169.956 150.19 172.258 154.06C173.458 156.002 174.367 158.11 174.956 160.317C175.091 160.904 175.128 161.509 175.063 162.108C175.029 162.437 174.928 162.756 174.766 163.044C174.605 163.333 174.387 163.586 174.125 163.789C173.593 164.139 172.971 164.329 172.333 164.335C171.742 164.351 171.15 164.309 170.567 164.212L171.033 163.738C171.298 164.924 171.667 166.085 172.135 167.207C172.55 168.306 173.205 169.298 174.052 170.111C174.444 170.446 174.944 170.627 175.459 170.62C176.025 170.538 176.578 170.388 177.108 170.174C178.246 169.721 179.359 169.209 180.444 168.642C182.64 167.518 184.791 166.286 186.923 165.025C189.051 163.757 191.172 162.465 193.262 161.143L194.301 160.487L194.147 161.707L190.76 188.472C189.647 197.396 188.494 206.314 187.301 215.228L187.111 214.681C188.794 216.196 190.443 217.745 192.153 219.234C193.875 220.714 195.643 222.14 197.42 223.553C200.984 226.37 204.666 229.029 208.465 231.53C216.018 236.599 224.175 240.702 232.747 243.744C233.819 244.12 234.914 244.417 236.011 244.709L239.3 245.591C241.506 246.122 243.744 246.517 245.999 246.772C250.506 247.336 255.072 247.235 259.55 246.472C264.03 245.713 268.341 244.167 272.283 241.908C276.218 239.643 279.803 236.817 282.923 233.519L282.849 233.746L275.277 178.452L271.509 150.803L267.801 123.146L267.761 122.844L267.952 122.579C270.931 118.436 273.448 113.98 275.458 109.29C277.538 104.651 278.823 99.6957 279.258 94.6306C279.699 89.6072 278.549 84.5725 275.973 80.2377C275.662 79.6967 275.313 79.1784 274.929 78.6867L274.377 77.9303C274.185 77.684 273.967 77.4589 273.763 77.222L273.142 76.5192L272.832 76.1677C272.743 76.0831 272.649 76.0039 272.551 75.9303C272.072 75.595 271.558 75.3136 271.017 75.0914C268.656 74.1677 266.223 73.4397 263.743 72.9148L264.452 72.7112L264.421 72.7412C264.295 72.8551 264.135 72.9242 263.966 72.9375C263.797 72.9507 263.628 72.9075 263.486 72.8145C263.453 72.7926 263.421 72.768 263.391 72.7412L263.36 72.7112L263.725 72.9142C255.84 71.156 247.777 69.9258 239.731 68.8986L240.439 68.3672C239.737 72.2916 238.961 76.2087 237.896 80.0725C237.38 82.022 236.722 83.9308 235.927 85.7838C235.522 86.7402 235.002 87.6439 234.38 88.4753C234.044 88.9232 233.632 89.3084 233.163 89.6134C232.633 89.9612 231.987 90.0857 231.366 89.96C230.291 89.6051 229.383 88.8693 228.813 87.8911C228.248 87.038 227.756 86.1381 227.344 85.2012C226.54 83.3604 225.856 81.4696 225.296 79.5406C224.174 75.7093 223.258 71.8206 222.553 67.8911L223.071 68.1749C220.593 69.1943 218.143 70.3099 215.714 71.4543C213.286 72.604 210.887 73.8163 208.547 75.1328C206.193 76.4176 203.948 77.8915 201.833 79.54C200.831 80.4228 200.02 81.5016 199.451 82.7098C198.882 83.918 198.567 85.23 198.525 86.5648L198.525 86.5591L198.525 86.5665H198.373V86.5591L198.374 86.5528C198.391 85.1863 198.689 83.8378 199.247 82.5906C199.806 81.3433 200.614 80.2236 201.621 79.3004C203.72 77.5917 205.955 76.0569 208.303 74.7113C212.973 71.9975 217.809 69.58 222.782 67.4733L223.209 67.2904L223.3 67.7572C224.042 71.6462 224.993 75.4925 226.148 79.2797C226.717 81.163 227.407 83.0076 228.213 84.8022C228.612 85.681 229.084 86.5246 229.624 87.3237C230.064 88.0777 230.753 88.6553 231.572 88.9577C232.273 89.1291 232.998 88.5493 233.548 87.8246C234.107 87.0554 234.571 86.2219 234.931 85.3418C235.683 83.532 236.301 81.6695 236.781 79.7692C237.787 75.956 238.516 72.0575 239.17 68.1508L239.27 67.5501L239.878 67.6192C243.936 68.0807 247.98 68.6172 252.009 69.2286C256.044 69.8461 260.066 70.524 264.072 71.4302L264.437 71.6334L264.413 71.61C264.274 71.485 264.093 71.4158 263.906 71.4159C263.759 71.4154 263.614 71.4584 263.491 71.5397C263.459 71.5607 263.428 71.5842 263.4 71.61L263.375 71.6334L264.085 71.4296C266.658 71.9698 269.183 72.7228 271.632 73.6809C272.285 73.9497 272.907 74.2922 273.483 74.7016C273.643 74.8214 273.795 74.9516 273.938 75.0914L274.27 75.4644L274.932 76.2109C275.15 76.4627 275.382 76.7026 275.587 76.9647L276.178 77.7702C276.589 78.2957 276.963 78.8489 277.297 79.4259C278.7 81.7022 279.707 84.1999 280.275 86.8129C280.83 89.4131 281.019 92.0778 280.837 94.7302C280.401 99.9778 279.083 105.114 276.94 109.924C274.856 114.724 272.252 119.28 269.173 123.511L269.324 122.945L272.897 150.62L276.41 178.303L283.399 233.674L283.416 233.808L283.325 233.901C280.154 237.224 276.517 240.067 272.527 242.342C270.526 243.463 268.436 244.419 266.279 245.199C264.112 245.95 261.89 246.532 259.633 246.939C255.111 247.735 250.496 247.863 245.937 247.319C243.66 247.074 241.4 246.688 239.169 246.165L235.847 245.297C234.736 245.018 233.627 244.733 232.541 244.369C223.86 241.426 215.582 237.406 207.902 232.403C200.161 227.493 192.895 221.871 186.201 215.609L185.97 215.391L186.012 215.061C187.138 206.139 188.29 197.22 189.469 188.305L192.998 161.558L193.883 162.121C191.766 163.445 189.637 164.73 187.476 165.971C185.314 167.211 183.135 168.423 180.892 169.534C179.767 170.103 178.614 170.614 177.437 171.065C176.811 171.309 176.156 171.47 175.489 171.545C174.753 171.549 174.04 171.288 173.481 170.808C172.531 169.893 171.802 168.774 171.349 167.536C170.875 166.357 170.505 165.139 170.245 163.895L170.125 163.327L170.711 163.421C171.698 163.697 172.751 163.609 173.679 163.174C173.863 163.034 174.015 162.857 174.128 162.656C174.24 162.454 174.31 162.232 174.334 162.002C174.392 161.484 174.366 160.96 174.258 160.449C173.728 158.301 172.89 156.241 171.768 154.334C169.563 150.435 167.083 146.697 164.347 143.149L164.255 143.028L164.383 142.953L168.78 140.37L168.858 140.5Z" fill="#20262C"/>
<path d="M193.187 160.979L214.028 149.539L193.959 162.285L193.187 160.979Z" fill="#20262C"/>
<path d="M237.75 13.5875C238.041 11.247 238.513 8.93263 239.161 6.665C239.767 4.38558 240.551 2.15711 241.505 0C241.216 2.34083 240.744 4.65543 240.094 6.92261C239.485 9.20136 238.702 11.4296 237.75 13.5875V13.5875Z" fill="#20262C"/>
<path d="M243.363 14.9812C244.405 13.2073 245.603 11.5292 246.941 9.9668C248.247 8.37651 249.692 6.9065 251.26 5.57446C250.22 7.34952 249.022 9.02767 247.682 10.5888C246.375 12.1777 244.93 13.6476 243.363 14.9812V14.9812Z" fill="#20262C"/>
<path d="M232.673 13.5875C231.867 11.6509 231.231 9.6479 230.772 7.60107C230.271 5.56408 229.95 3.48694 229.812 1.39368C230.621 3.32953 231.257 5.33274 231.713 7.38013C232.213 9.41753 232.534 11.4945 232.673 13.5875V13.5875Z" fill="#20262C"/>
<path d="M239.891 47.9216C240.444 48.113 241.012 48.2595 241.59 48.3597C241.818 48.3866 242.049 48.362 242.266 48.2878C242.565 48.1817 242.857 48.0595 243.142 47.9216C243.134 48.1118 243.088 48.2985 243.007 48.4708C242.926 48.6432 242.812 48.7978 242.671 48.9257C242.516 49.0707 242.333 49.1813 242.133 49.2499C241.932 49.3185 241.72 49.3436 241.509 49.3235C241.115 49.2818 240.744 49.1159 240.451 48.8497C240.169 48.609 239.972 48.2834 239.891 47.9216V47.9216Z" fill="#20262C"/>
</svg>
