<svg width="62" height="62" viewBox="0 0 62 62" fill="none" xmlns="http://www.w3.org/2000/svg">
<path d="M27.2456 2.59513C29.7331 2.20116 32.267 2.20116 34.7545 2.59513L36.2071 2.82521C38.6946 3.21918 41.1045 4.00222 43.3485 5.14557L44.6589 5.81328C46.9029 6.95663 48.9529 8.44605 50.7337 10.2269L51.7737 11.2668C53.5545 13.0477 55.0439 15.0977 56.1873 17.3416L56.855 18.6521C57.9983 20.896 58.7814 23.306 59.1753 25.7934L59.4054 27.2461C59.7994 29.7335 59.7994 32.2675 59.4054 34.7549L59.1753 36.2076C58.7814 38.695 57.9983 41.1049 56.855 43.3489L56.1873 44.6593C55.0439 46.9033 53.5545 48.9533 51.7737 50.7341L50.7337 51.7741C48.9529 53.5549 46.9029 55.0443 44.6589 56.1877L43.3485 56.8554C41.1045 57.9988 38.6946 58.7818 36.2071 59.1758L34.7545 59.4058C32.267 59.7998 29.7331 59.7998 27.2456 59.4058L25.793 59.1758C23.3055 58.7818 20.8956 57.9988 18.6516 56.8554L17.3412 56.1877C15.0972 55.0443 13.0472 53.5549 11.2664 51.7741L10.2264 50.7341C8.44562 48.9533 6.9562 46.9033 5.81285 44.6593L5.14514 43.3489C4.00179 41.1049 3.21875 38.695 2.82478 36.2076L2.5947 34.7549C2.20073 32.2675 2.20073 29.7335 2.5947 27.2461L2.82478 25.7934C3.21875 23.306 4.00179 20.896 5.14514 18.6521L5.81285 17.3416C6.9562 15.0977 8.44563 13.0477 10.2264 11.2668L11.2664 10.2269C13.0472 8.44605 15.0972 6.95663 17.3412 5.81327L18.6517 5.14557C20.8956 4.00222 23.3055 3.21918 25.793 2.82521L27.2456 2.59513Z" stroke="#2C66A0" stroke-width="4" stroke-linecap="round" stroke-linejoin="round"/>
<path d="M40.6666 21.6606C41.3378 20.7833 41.1707 19.5281 40.2935 18.8569C39.4162 18.1857 38.1609 18.3528 37.4898 19.23L40.6666 21.6606ZM31.6162 26.9069C30.945 27.7841 31.1121 29.0394 31.9893 29.7106C32.8666 30.3818 34.1218 30.2147 34.793 29.3375L31.6162 26.9069ZM46.8163 42.2958C47.7763 42.842 48.9974 42.5065 49.5436 41.5464C50.0898 40.5863 49.7542 39.3652 48.7941 38.8191L46.8163 42.2958ZM35.1425 31.0529C34.1825 30.5067 32.9614 30.8423 32.4152 31.8023C31.869 32.7624 32.2046 33.9835 33.1647 34.5297L35.1425 31.0529ZM29.376 31.0007C29.376 30.1033 30.1035 29.3757 31.001 29.3757V25.3757C27.8944 25.3757 25.376 27.8941 25.376 31.0007H29.376ZM31.001 32.6257C30.1035 32.6257 29.376 31.8982 29.376 31.0007H25.376C25.376 34.1073 27.8944 36.6257 31.001 36.6257L31.001 32.6257ZM32.626 31.0007C32.626 31.8982 31.8984 32.6257 31.001 32.6257L31.001 36.6257C34.1076 36.6257 36.626 34.1073 36.626 31.0007H32.626ZM31.001 29.3757C31.8984 29.3757 32.626 30.1033 32.626 31.0007H36.626C36.626 27.8941 34.1076 25.3757 31.001 25.3757V29.3757ZM37.4898 19.23L31.6162 26.9069L34.793 29.3375L40.6666 21.6606L37.4898 19.23ZM48.7941 38.8191L35.1425 31.0529L33.1647 34.5297L46.8163 42.2958L48.7941 38.8191Z" fill="#2C66A0"/>
</svg>
