<svg width="62" height="62" viewBox="0 0 62 62" fill="none" xmlns="http://www.w3.org/2000/svg">
<path d="M31 60L31 62H31V60ZM9.17965 50.1022L10.9685 50.9967C11.3319 50.2699 11.2194 49.3954 10.684 48.7842L9.17965 50.1022ZM4.23077 60L2.44191 59.1056C2.13192 59.7255 2.16505 60.4618 2.52947 61.0515C2.89388 61.6411 3.53761 62 4.23077 62L4.23077 60ZM58 31C58 45.9117 45.9117 58 31 58V62C48.1208 62 62 48.1208 62 31H58ZM31 4C45.9117 4 58 16.0883 58 31H62C62 13.8792 48.1208 0 31 0V4ZM4 31C4 16.0883 16.0883 4 31 4V0C13.8792 0 0 13.8792 0 31H4ZM10.684 48.7842C6.52101 44.0328 4 37.8133 4 31H0C0 38.8196 2.89784 45.9673 7.67535 51.4202L10.684 48.7842ZM6.01962 60.8944L10.9685 50.9967L7.3908 49.2078L2.44191 59.1056L6.01962 60.8944ZM31 58L4.23077 58L4.23077 62L31 62L31 58Z" fill="#2C66A0"/>
<path d="M31 39.0307V38.6065V38.6065C31 35.4504 32.6631 32.5279 35.3764 30.9159L36.5491 30.2192C39.3325 28.5656 41.0385 25.5677 41.0385 22.3301V22.3301C41.0385 17.2622 36.9301 13.1538 31.8621 13.1538H31C25.4559 13.1538 20.9615 17.6482 20.9615 23.1923L20.9615 23.3349V23.7591" stroke="#2C66A0" stroke-width="4" stroke-linecap="round" stroke-linejoin="round"/>
<path d="M31 46.1692L31 47.9538" stroke="#2C66A0" stroke-width="4" stroke-linecap="round" stroke-linejoin="round"/>
</svg>
