<svg width="64" height="62" viewBox="0 0 64 62" fill="none" xmlns="http://www.w3.org/2000/svg">
<path d="M61.03 31.4632L62.8418 32.3102L63.2377 31.4632L62.8418 30.6162L61.03 31.4632ZM57.0559 37.8689L58.6196 39.1159L58.6196 39.1159L57.0559 37.8689ZM6.97327 37.8689L8.53694 36.6219L6.97327 37.8689ZM3 31.4649L1.18817 30.618L0.792256 31.465L1.18822 32.312L3 31.4649ZM6.97406 25.0593L5.4104 23.8123L5.4104 23.8123L6.97406 25.0593ZM57.0567 25.0593L58.6204 23.8123L58.6204 23.8123L57.0567 25.0593ZM59.2182 30.6163C58.2268 32.7372 56.9813 34.7547 55.4923 36.6219L58.6196 39.1159C60.3067 37.0004 61.7182 34.7139 62.8418 32.3102L59.2182 30.6163ZM55.4923 36.6219C49.7945 43.7668 41.1532 47.9282 32.0146 47.9282V51.9282C42.3705 51.9282 52.1628 47.2124 58.6196 39.1159L55.4923 36.6219ZM32.0146 47.9282C22.876 47.9282 14.2347 43.7668 8.53694 36.6219L5.40961 39.1159C11.8664 47.2124 21.6587 51.9282 32.0146 51.9282V47.9282ZM8.53694 36.6219C7.04827 34.7552 5.80303 32.7382 4.81178 30.6179L1.18822 32.312C2.31168 34.715 3.72295 37.0009 5.40961 39.1159L8.53694 36.6219ZM5.4104 23.8123C3.72332 25.9278 2.31176 28.2143 1.18817 30.618L4.81183 32.3119C5.8032 30.191 7.04869 28.1734 8.53773 26.3062L5.4104 23.8123ZM32.0154 11C21.6595 11 11.8672 15.7157 5.4104 23.8123L8.53773 26.3062C14.2355 19.1614 22.8768 15 32.0154 15V11ZM58.6204 23.8123C52.1636 15.7157 42.3713 11 32.0154 11V15C41.154 15 49.7953 19.1614 55.4931 26.3062L58.6204 23.8123ZM62.8418 30.6162C61.7183 28.2132 60.3071 25.9273 58.6204 23.8123L55.4931 26.3062C56.9817 28.173 58.227 30.19 59.2182 32.3103L62.8418 30.6162Z" fill="#2C66A0"/>
<path d="M27.6265 40.5768C30.3998 41.9123 33.6302 41.9123 36.4035 40.5768V40.5768C39.1767 39.2413 41.1909 36.7156 41.8759 33.7147V33.7147C42.5608 30.7138 41.8419 27.5643 39.9228 25.1578V25.1578C38.0036 22.7512 35.0931 21.3496 32.015 21.3496V21.3496C28.9369 21.3496 26.0264 22.7512 24.1072 25.1578V25.1578C22.1881 27.5643 21.4692 30.7138 22.1542 33.7147V33.7147C22.8391 36.7156 24.8533 39.2413 27.6265 40.5768V40.5768Z" stroke="#2C66A0" stroke-width="4"/>
</svg>
