<svg width="62" height="62" viewBox="0 0 62 62" fill="none" xmlns="http://www.w3.org/2000/svg">
<path d="M38.5311 1H23.4684C11.0795 1 1 11.0795 1 23.4684C1 35.8578 11.0795 45.9373 23.4684 45.9373H42.4217V59.2422C42.4217 60.2131 43.209 61 44.1795 61H59.2422C60.2131 61 61 60.2131 61 59.2422V23.4684C61 11.0795 50.9205 1 38.5311 1ZM38.5311 4.51562C42.9215 4.51562 46.9673 6.01663 50.184 8.53159H46.9769C46.0059 8.53159 45.2191 9.31848 45.2191 10.2894C45.2191 11.2599 46.0059 12.0472 46.9769 12.0472H53.646C54.578 13.2777 55.364 14.6244 55.977 16.0627H50.931C49.9606 16.0627 49.1732 16.8496 49.1732 17.8205C49.1732 18.791 49.9606 19.5783 50.931 19.5783H57.082C57.3452 20.8344 57.4844 22.1354 57.4844 23.4689V23.5938H51.7111C50.7401 23.5938 49.9532 24.3807 49.9532 25.3517C49.9532 26.3226 50.7401 27.1095 51.7111 27.1095H57.4844V31.125H51.7106C50.7401 31.125 49.9528 31.9119 49.9528 32.8828C49.9528 33.8537 50.7401 34.6406 51.7106 34.6406H57.4844V38.6566H51.7106C50.7401 38.6566 49.9528 39.4434 49.9528 40.4144C49.9528 41.3848 50.7401 42.1722 51.7106 42.1722H57.4844V46.1877H45.9377V23.4684C45.9377 15.512 41.7799 8.5087 35.5241 4.51562H38.5311ZM4.51562 23.4684C4.51562 13.0181 13.0181 4.51562 23.4684 4.51562C33.9196 4.51562 42.4217 13.0181 42.4217 23.4684C42.4217 33.9196 33.9192 42.4217 23.4684 42.4217C13.0181 42.4221 4.51562 33.9196 4.51562 23.4684ZM35.5236 42.4221C38.2945 40.6533 40.6533 38.2945 42.4217 35.5241V42.4221H35.5236ZM45.9377 57.4844V49.7033H57.4844V57.4844H45.9377Z" fill="#2C66A0"/>
<path d="M30.8751 23.4684C30.8751 19.3847 27.5526 16.0623 23.4689 16.0623C19.3847 16.0623 16.0627 19.3847 16.0627 23.4684C16.0627 27.5526 19.3852 30.875 23.4689 30.875C27.5526 30.875 30.8751 27.5526 30.8751 23.4684ZM19.5779 23.4684C19.5779 21.3233 21.3234 19.5779 23.4684 19.5779C25.614 19.5779 27.3594 21.3233 27.3594 23.4684C27.3594 25.614 25.614 27.3594 23.4684 27.3594C21.3234 27.3594 19.5779 25.614 19.5779 23.4684Z" fill="#2C66A0"/>
</svg>
